<svg width="577" height="261" viewBox="0 0 577 261" fill="none" xmlns="http://www.w3.org/2000/svg">
<g clip-path="url(#clip0_2133_366)">
<path d="M439.642 50.364C439.642 48.5216 439.669 47.0335 439.642 45.5454C439.482 38.0855 439.301 30.6256 439.121 23.1592C439.094 21.9288 439.081 20.6919 438.981 19.4615C438.907 18.566 438.734 17.677 438.533 16.8009C438.413 16.2726 437.011 15.5962 436.416 15.7959C435.835 15.9956 435.248 16.2855 434.773 16.6592C434.199 17.1101 433.692 17.6641 433.251 18.2375C431.929 19.9833 430.166 21.1493 428.215 22.18C418.252 27.4561 408.461 33.022 398.898 38.9616C389.969 44.5082 381.08 50.1063 372.158 55.6723C370.589 56.6515 368.973 57.5469 367.377 58.4939C355.964 65.2581 344.537 71.99 333.157 78.7993C330.119 80.6159 327.207 82.6194 324.275 84.6036C323.294 85.2671 322.312 85.9886 322.445 87.4381C322.492 87.9985 322.065 88.5976 321.838 89.171C320.035 93.835 319.287 98.7181 318.659 103.627C317.831 110.056 317.003 116.492 316.201 122.921C315.513 128.39 314.839 133.853 314.205 139.329C313.156 148.277 311.981 157.206 310.505 166.096C309.61 171.475 309.116 176.918 308.435 182.33C307.847 186.974 307.299 191.632 306.638 196.264C305.863 201.714 304.975 207.144 304.181 212.588C304.06 213.393 303.653 213.767 302.905 213.928C300.668 214.411 298.451 215.004 296.193 215.364C291.412 216.131 286.61 216.814 281.802 217.458C280.947 217.574 280.045 217.362 278.977 217.284C279.237 216.118 279.398 215.171 279.671 214.25C280.98 209.818 281.615 205.283 281.695 200.689C281.722 199.098 281.601 197.501 281.421 195.916C281.241 194.292 280.446 192.849 279.444 191.58C278.135 189.918 276.219 189.448 274.148 189.719C272.653 189.912 271.29 190.537 270.048 191.368C266.342 193.848 263.063 196.779 260.024 199.981C257.867 202.255 256.959 204.883 257.727 207.95C257.76 208.078 257.7 208.233 257.667 208.555C257.152 208.194 256.745 207.898 256.324 207.615C254.441 206.352 252.611 205.012 250.668 203.84C245.833 200.921 240.497 200.342 234.947 200.883C234.373 200.941 233.799 201.012 233.131 201.089C232.897 199.485 232.703 197.971 232.456 196.47C231.241 189.023 227.594 182.697 222.726 176.944C221.617 175.636 220.121 174.767 218.519 174.219C216.155 173.407 213.984 174.142 212.094 175.585C210.732 176.622 209.83 178.026 209.156 179.572C207.733 182.826 206.945 186.233 206.538 189.725C206.331 191.51 206.251 193.313 206.184 195.111C206.124 196.76 206.712 198.248 207.627 199.614C208.248 200.548 209.116 201.263 210.218 201.585C211.593 201.984 212.996 202.306 214.405 202.558C216.689 202.964 218.986 203.286 221.47 203.679C220.803 204.284 220.108 204.349 219.46 204.426C217.504 204.658 215.54 204.851 213.577 205.025C208.281 205.495 204.508 208.046 202.257 212.691C202.124 212.968 201.97 213.245 201.87 213.535C200.975 216.131 198.925 217.175 196.28 217.419C193.682 217.658 191.145 217.381 188.787 216.279C186.583 215.249 184.42 214.121 182.276 212.974C180.873 212.227 180.032 210.971 179.317 209.612C177.942 206.996 176.673 204.31 175.063 201.836C173.107 198.834 170.923 195.967 168.686 193.152C167.096 191.155 165.333 189.281 163.517 187.47C161.44 185.402 158.561 185.641 156.738 187.934C156.131 188.701 155.536 189.532 155.169 190.427C154.087 193.056 153.125 195.723 152.097 198.37C151.75 199.266 151.897 200.077 152.391 200.876C153.646 202.899 154.728 205.051 156.772 206.513C157.059 206.719 157.273 207.028 157.713 207.479C157.072 207.37 156.685 207.318 156.311 207.228C151.643 206.107 146.901 205.437 142.113 205.025C139.408 204.793 136.71 204.387 134.006 204.181C129.785 203.865 125.578 204.117 121.417 204.883C120.415 205.07 119.54 204.928 118.626 204.593C114.986 203.26 111.32 201.991 107.426 201.495C102.898 200.915 98.7177 201.875 94.9111 204.258C94.1298 204.748 93.4686 205.489 92.9411 206.236C92.507 206.848 92.0395 207.112 91.3182 207.299C89.6754 207.724 88.0258 208.194 86.4632 208.826C83.311 210.101 80.8401 212.027 80.4193 215.699C79.6981 215.912 78.9836 216.099 78.2957 216.331C74.4223 217.645 70.5957 219.043 67.0228 221.066C64.6854 222.393 62.1811 223.449 59.7235 224.577C59.3362 224.757 58.7885 224.776 58.3611 224.686C51.8098 223.243 45.2784 221.742 38.9074 219.661C35.7753 218.637 32.5765 217.78 29.2307 217.754C25.9449 217.722 23.0132 218.753 20.5623 220.827C17.7441 223.211 15.213 225.884 13.4767 229.131C12.722 230.536 12.0809 232.037 11.7003 233.57C10.7453 237.429 12.0142 239.033 15.4734 240.959C16.522 241.545 17.931 241.841 19.1465 241.777C22.9264 241.584 26.6862 241.126 30.4594 240.817C34.2327 240.514 38.0125 240.25 41.7858 239.999C44.2834 239.831 46.8078 239.864 49.2854 239.554C54.8951 238.859 60.2644 239.748 65.4267 241.751C69.6273 243.381 73.7278 245.256 77.8416 247.085C79.9118 248.006 82.0689 248.509 84.3261 248.625C86.53 248.741 88.2729 247.871 89.5151 246.125C89.9025 245.578 90.2765 244.985 90.5035 244.367C91.9928 240.353 92.34 236.243 91.4919 232.056C91.345 231.328 91.0244 230.626 90.784 229.924C92.8342 230.432 94.8043 231.032 96.8211 231.399C100.087 231.991 103.393 232.011 106.705 231.772C109.096 231.598 111.52 231.656 113.877 231.296C117.504 230.742 121.217 230.813 124.79 229.827C127.087 229.196 129.458 228.803 131.775 228.229C133.111 227.894 134.473 227.54 135.709 226.967C138.413 225.71 139.428 223.295 138.573 220.525C137.605 217.387 135.822 214.714 133.304 212.556C131.675 211.158 129.852 209.972 128.102 208.71C127.728 208.439 127.321 208.214 126.953 207.84C132.556 207.305 138.079 208.104 143.575 208.806C149.065 209.509 154.501 210.559 159.957 211.461C159.957 211.564 159.957 211.667 159.957 211.763C159.343 211.892 158.715 211.995 158.107 212.15C154.454 213.09 150.788 214.005 147.155 215.017C146.307 215.249 145.546 215.796 144.764 216.221C143.976 216.646 143.863 217.368 144.116 218.096C144.33 218.714 144.624 219.359 145.051 219.855C148.544 223.907 152.865 226.98 157.553 229.608C158.748 230.278 160.011 230.845 161.213 231.515C162.168 232.049 163.129 232.075 164.144 231.798C165.934 231.315 167.397 230.329 168.752 229.118C172.145 226.09 174.916 222.573 177.681 219.03C178.256 218.296 178.797 217.529 179.444 216.646C179.979 216.949 180.479 217.207 180.947 217.497C183.832 219.294 186.824 220.847 190.21 221.581C194.25 222.457 198.163 221.974 201.977 220.537C204.601 219.545 206.404 217.735 207.446 215.21C207.88 214.16 208.341 213.116 208.842 212.092C209.637 210.469 210.999 209.605 212.836 209.373C215.213 209.071 217.59 208.755 219.961 208.394C220.923 208.246 221.818 207.686 223.04 208.053C221.871 209.18 220.789 210.23 219.694 211.261C216.869 213.934 214.251 216.782 212.121 220.022C212.007 220.196 211.887 220.363 211.774 220.537C209.116 224.635 210.765 229.073 215.634 230.394C218.652 231.212 221.778 231.663 224.863 232.204C226.219 232.442 227.621 232.475 228.997 232.61C230.606 232.771 232.062 232.326 233.438 231.586C235.161 230.664 236.39 229.337 236.63 227.398C236.83 225.768 236.984 224.113 236.937 222.477C236.784 217.419 236.109 212.427 234.707 207.537C234.453 206.648 234.119 205.779 233.778 204.767C235.822 204.342 237.832 204.394 239.849 204.529C243.756 204.793 247.142 206.384 250.327 208.433C251.836 209.406 253.279 210.469 254.708 211.544C256.925 213.213 259.303 214.527 262.094 215.075C262.715 215.197 263.343 215.403 263.884 215.706C266.535 217.213 269.387 218.18 272.399 218.727C272.753 218.792 273.1 218.92 273.628 219.069C273.274 220.589 272.94 222.032 272.612 223.469C271.878 226.683 271.043 229.872 270.455 233.112C270.202 234.497 270.369 235.979 270.522 237.396C270.936 241.216 274.309 242.891 277.08 243.072C279.591 243.233 282.069 243.033 284.493 242.209C290.343 240.218 295.96 237.738 301.409 234.89C302.25 234.452 303.072 233.943 303.807 233.357C306.972 230.832 306.692 228.796 304.054 225.91C303.219 224.995 301.903 224.358 300.681 223.913C297.843 222.876 294.931 222.038 292.046 221.117C291.412 220.918 290.777 220.718 289.822 220.415C293.442 219.771 296.688 219.262 299.9 218.598C301.669 218.238 303.379 217.626 305.115 217.123C305.423 217.033 305.73 216.833 306.024 216.859C308.548 217.033 310.645 215.745 312.889 214.991C317.817 213.329 322.699 211.512 327.655 209.927C335.154 207.524 342.487 204.735 349.733 201.707C361.279 196.869 372.84 192.07 384.339 187.148C388.38 185.422 392.287 183.38 396.253 181.486C396.674 181.286 397.108 181.099 397.569 180.893C413.009 202.3 433.825 215.59 460.605 219.487C482.944 222.734 503.88 218.47 522.98 206.784C561.259 183.386 575.537 137.583 558.515 98.1383C552.291 83.7081 542.654 71.7388 529.818 62.2045C517.029 52.7025 502.604 46.8531 486.617 44.753C470.602 42.6529 455.015 44.4631 439.635 50.364H439.642ZM507.366 93.2295C508.508 94.724 509.623 96.0447 510.578 97.4555C514.692 103.537 518.585 109.747 521.798 116.331C524.776 122.431 527.781 128.519 530.065 134.903C534.019 145.964 535.415 157.431 535.708 169.065C535.922 177.717 534.753 186.208 532.73 194.615C532.403 195.974 531.775 196.979 530.64 197.868C513.804 211.074 494.577 217.716 472.853 217.516C471.577 217.503 470.308 217.516 469.08 217.516C468.866 216.981 468.726 216.653 468.599 216.311C466.555 210.926 465.413 205.315 464.104 199.749C463.59 197.552 463.303 195.272 463.216 193.023C463.056 188.604 463.089 184.172 463.076 179.746C463.063 172.351 464.064 165.058 465.64 157.843C466.782 152.612 467.938 147.362 469.447 142.228C471.617 134.858 474.082 127.572 476.499 120.273C477.374 117.632 478.643 115.107 479.404 112.44C480.713 107.834 482.723 103.543 485.168 99.4267C485.635 98.6473 486.33 97.9902 486.89 97.3137C487.271 97.4104 487.485 97.4426 487.679 97.5199C491.271 98.9307 494.831 98.8212 498.437 97.5006C501.489 96.3796 504.441 95.0977 507.366 93.2359V93.2295ZM373.507 113.561C373.781 113.644 373.948 113.67 374.075 113.741C380.292 117.452 386.55 121.098 392.707 124.892C402.464 130.903 412.174 136.99 421.864 143.097C424.095 144.502 426.212 146.074 428.342 147.62C429.792 148.67 431.214 149.759 432.59 150.899C434.78 152.715 436.924 154.597 439.168 156.516C437.859 157.186 436.704 157.714 435.622 158.346C428.81 162.34 421.517 165.4 414.298 168.602C408.922 170.985 403.446 173.163 398.09 175.591C393.021 177.885 388.133 180.564 383.017 182.755C369.273 188.643 355.456 194.363 341.665 200.148C333.244 203.685 324.469 206.288 315.781 209.116C315.093 209.341 314.398 209.528 313.403 209.824C313.857 209.103 314.118 208.658 314.405 208.24C320.843 198.828 326.833 189.145 332.763 179.431C337.338 171.939 341.719 164.33 346.32 156.851C353.92 144.502 361.627 132.217 369.307 119.912C370.649 117.761 372.105 115.667 373.494 113.554L373.507 113.561ZM483.551 95.7677C483.037 96.4505 482.536 97.0561 482.109 97.7067C478.67 102.963 476.486 108.781 474.155 114.52C473.614 115.854 473.34 117.284 472.853 118.643C469.347 128.468 465.754 138.259 462.969 148.309C459.576 160.549 457.279 172.911 457.626 185.634C457.727 189.281 457.727 192.965 458.248 196.567C459.196 203.144 460.992 209.56 463.189 215.86C463.283 216.137 463.336 216.427 463.416 216.737C456.11 216.55 441.859 212.762 430.86 206.719C418.539 199.955 408.408 190.962 400.367 179.456C403.266 178.174 405.99 176.88 408.782 175.759C416.662 172.589 424.409 169.149 431.975 165.342C435.989 163.319 439.882 161.071 443.823 158.913C444.237 158.687 444.644 158.423 444.978 158.101C445.178 157.908 445.392 157.502 445.312 157.309C444.604 155.659 445.038 153.952 444.991 152.277C444.784 144.199 444.744 136.114 444.417 128.036C444.136 121.098 443.522 114.173 443.108 107.235C442.721 100.818 442.38 94.3955 442.039 87.9728C441.986 87.0064 442.033 86.0401 442.033 85.0094C446.601 83.721 451.242 83.0575 455.91 82.7482C460.966 82.4197 466.041 82.4712 471.11 82.336C472.265 82.3037 473.42 82.1942 474.556 82.1234C475.818 89.3514 478.77 92.5144 483.565 95.7805L483.551 95.7677ZM375.745 110.288C375.932 109.934 376.012 109.747 376.119 109.579C380.219 103.253 384.366 96.953 388.413 90.5947C391.819 85.2478 395.245 79.9009 398.437 74.4316C403.359 65.9989 408.435 57.65 413.824 49.4943C419.995 40.1469 427.421 31.682 434.4 22.9015C434.774 22.4313 435.174 21.9545 435.922 21.9159C435.942 22.296 435.976 22.6052 435.969 22.908C435.889 26.4575 435.755 30.0071 435.729 33.5567C435.708 36.1786 435.829 38.807 435.875 41.4289C435.976 46.7307 436.009 52.0325 436.169 57.3279C436.33 62.5202 436.61 67.706 436.87 72.8919C437.151 78.5996 437.492 84.3008 437.759 90.002C438.099 97.1463 438.38 104.297 438.707 111.441C439.068 119.307 439.528 127.166 439.816 135.038C440.009 140.385 439.989 145.745 440.063 151.098C440.063 151.337 440.023 151.575 439.983 152.02C439.562 151.678 439.288 151.472 439.028 151.247C433.658 146.686 428.162 142.299 422.025 138.685C416.789 135.599 411.68 132.326 406.511 129.138C398.244 124.035 389.983 118.92 381.715 113.825C379.785 112.639 377.821 111.506 375.745 110.275V110.288ZM369.133 110.874C368.726 111.512 368.432 112.002 368.118 112.472C366.629 114.727 365.093 116.956 363.644 119.236C358.374 127.527 353.045 135.786 347.89 144.141C341.211 154.977 334.753 165.941 328.049 176.757C322.653 185.454 317.023 194.015 311.493 202.635C311.233 203.041 310.919 203.421 310.625 203.814C310.745 202.042 311.059 200.387 311.346 198.725C312.408 192.585 313.53 186.459 314.492 180.307C315.113 176.338 315.44 172.332 315.994 168.357C316.635 163.718 317.45 159.1 318.065 154.455C318.652 149.965 319.086 145.455 319.581 140.952C319.921 137.886 320.268 134.819 320.582 131.747C320.996 127.656 321.377 123.552 321.784 119.462C322.345 113.838 322.84 108.201 323.527 102.59C323.988 98.8212 324.736 95.0784 325.377 91.3291C325.431 91.007 325.631 90.7042 325.751 90.4272C326.533 90.672 327.18 90.8975 327.848 91.0843C333.865 92.7463 339.702 94.8335 345.185 97.7776C350.821 100.805 356.444 103.859 362.061 106.919C364.378 108.182 366.669 109.489 369.14 110.868L369.133 110.874ZM537.498 191.574C537.545 191.129 537.532 190.923 537.592 190.736C539.308 185.641 539.675 180.339 539.962 175.05C540.33 168.312 540.009 161.586 539.101 154.874C537.658 144.199 534.854 133.918 530.319 124.048C524.896 112.253 518.726 100.896 510.645 90.4401C513.303 87.8439 515.513 84.9321 515.48 80.7577C516.949 80.9445 518.258 81.0604 519.547 81.2859C524.816 82.2071 529.845 83.8756 534.854 85.6536C537.198 86.4846 539.241 87.7086 541.185 89.1839C545.385 92.3791 549.158 96.0189 552.811 99.7682C553.633 100.612 554.414 101.585 554.908 102.635C557.085 107.28 558.895 112.06 560.157 117.02C560.718 119.217 561.246 121.42 561.74 123.63C562.021 124.886 562.335 126.148 562.401 127.424C562.689 133.299 562.488 139.148 561.553 144.972C558.762 162.417 551.075 177.569 538.667 190.517C538.36 190.84 537.999 191.123 537.498 191.567V191.574ZM423.18 29.4467C423.28 29.5433 423.38 29.6335 423.487 29.7301C422.906 30.4452 422.325 31.1538 421.751 31.8689C417.15 37.6732 412.254 43.2713 408.281 49.5072C402.858 58.0107 397.602 66.6045 392.193 75.1144C385.582 85.5119 378.89 95.8578 372.232 106.217C371.931 106.681 371.591 107.112 371.263 107.576C370.783 107.338 370.442 107.189 370.128 107.009C363.917 103.595 357.713 100.187 351.509 96.7662C344.784 93.062 337.939 89.609 330.419 87.6056C330.065 87.5089 329.731 87.3479 329.257 87.174C329.665 86.8647 329.972 86.5942 330.312 86.3751C334.453 83.7468 338.567 81.0604 342.761 78.5094C350.16 74.0064 357.606 69.5807 365.039 65.1357C371.43 61.3155 377.895 57.6049 384.226 53.6881C395.178 46.9046 406.044 39.9987 416.956 33.1573C419.006 31.8753 421.11 30.6771 423.193 29.4402L423.18 29.4467ZM440.003 55.2729C441.866 55.4146 443.515 55.421 445.125 55.6916C448.851 56.3036 452.578 56.9607 456.264 57.7595C460.344 58.6421 464.225 60.0722 467.777 62.2496C471.197 64.3497 474.656 66.3919 478.082 68.4791C478.703 68.8592 479.264 69.3294 479.832 69.7353C478.71 71.1074 477.514 72.3121 476.646 73.71C475.758 75.1402 475.19 76.7571 474.442 78.387C473.387 78.445 472.218 78.5738 471.05 78.5674C467.851 78.5351 464.652 78.4192 461.446 78.3805C454.962 78.2968 448.571 79.0441 442.266 80.4806C442.079 80.5257 441.866 80.4678 441.592 80.4549C440.971 72.0544 440.423 63.7184 440.003 55.2729ZM445.151 51.7877C455.683 47.9869 466.649 46.4408 477.902 46.9175C489.114 47.3942 499.88 49.7714 510.385 54.3774C505.797 56.8512 502.665 60.2912 500.354 64.5172C494.136 63.4865 488.453 65.0068 483.171 67.3517C482.289 66.6495 481.575 65.9538 480.747 65.432C477.401 63.3126 474.028 61.2382 470.656 59.1639C468.358 57.7466 465.981 56.4453 463.356 55.6916C459.984 54.7253 456.598 53.7976 453.172 53.0439C450.534 52.4706 447.829 52.1936 445.151 51.7877ZM510.932 80.5708C511.026 82.0203 510.652 83.3603 509.964 84.5971C508.635 87.0193 507.085 89.2161 504.488 90.6527C501.836 92.115 499.185 93.5 496.22 94.2731C494.41 94.7434 492.614 94.7562 490.877 94.0927C489.248 93.4678 487.625 92.7914 486.096 91.9604C484.319 91.0005 482.643 89.783 481.648 88.0501C476.753 79.5208 482.182 70.8949 489.582 69.1362C490.877 68.827 492.166 68.4791 493.482 68.2987C494.577 68.1505 495.732 68.0604 496.814 68.2343C498.05 68.434 499.225 68.9816 500.447 69.3166C502.524 69.8835 504.454 70.7467 506.131 72.0544C508.935 74.2512 510.759 76.989 510.939 80.5644L510.932 80.5708ZM550.901 90.1437C545.659 86.2527 539.962 83.225 533.692 81.215C527.474 79.2244 521.243 77.2854 514.639 76.9375C514.418 76.4866 514.251 76.1129 514.051 75.7522C512.642 73.2462 510.979 70.9335 508.615 69.1491C507.299 68.157 506.024 67.1069 504.715 66.0762C506.985 61.7922 509.924 58.3779 514.164 56.0781C529.918 63.989 542.186 75.2755 550.901 90.1373V90.1437ZM301.055 228.886C300.361 230.49 299.292 231.321 298.05 231.94C296.207 232.861 294.37 233.808 292.454 234.588C288.827 236.056 285.161 237.441 281.481 238.807C280.172 239.29 278.79 239.387 277.394 239.058C275.891 238.71 275.083 237.828 275.07 236.359C275.057 235.232 274.99 234.066 275.237 232.977C276.132 229.067 277.147 225.182 278.129 221.291C278.149 221.207 278.262 221.143 278.376 221.033C280.486 221.787 282.603 222.599 284.76 223.288C289.001 224.647 293.282 225.904 297.522 227.276C298.711 227.662 299.813 228.313 301.055 228.886ZM228.262 200.928C226.766 200.728 225.397 200.567 224.035 200.348C220.829 199.846 217.584 199.511 214.452 198.731C211.487 197.997 211.119 198.048 211.446 194.544C211.754 191.271 212.141 187.999 212.662 184.752C212.942 182.993 213.423 181.222 214.098 179.566C214.786 177.865 216.736 177.582 218.185 178.78C218.425 178.98 218.632 179.218 218.839 179.456C222.766 184.017 225.871 189.01 227.281 194.853C227.748 196.792 228.396 198.712 228.262 200.928ZM229.565 206.513C229.785 207.119 229.992 207.634 230.152 208.162C231.274 211.821 231.889 215.577 232.142 219.371C232.309 221.819 232.283 224.293 232.176 226.754C232.076 229.035 231.495 228.867 229.431 229.002C229.224 229.015 229.01 228.931 228.803 228.906C227.06 228.68 225.304 228.538 223.587 228.216C221.344 227.798 219.1 227.327 216.916 226.696C215.126 226.181 214.725 225.363 215.226 223.636C215.467 222.811 215.881 222.006 216.362 221.278C218.512 218.019 220.963 214.984 223.788 212.234C225.691 210.378 227.568 208.497 229.571 206.513H229.565ZM74.015 228.12C75.5242 228.287 76.7397 228.371 77.9417 228.558C79.992 228.873 82.0288 229.247 84.0724 229.614C85.8755 229.943 86.8305 231.051 87.0976 232.764C87.4916 235.328 87.4983 237.886 86.944 240.431C86.8372 240.927 86.6101 241.41 86.363 241.861C85.4013 243.619 83.6984 244.412 81.6949 243.967C80.8735 243.787 80.052 243.51 79.2841 243.168C75.7045 241.577 72.145 239.954 68.5789 238.33C68.1581 238.137 67.7641 237.905 67.3567 237.686C67.9911 234.278 69.6006 231.702 72.913 230.349C73.8613 229.962 74.449 229.434 74.015 228.12ZM274.736 213.947C271.811 213.322 269.013 212.73 266.221 212.118C266.021 212.073 265.841 211.944 265.667 211.821C261.52 208.948 261.847 205.321 264.158 202.661C265.347 201.289 266.649 199.974 268.051 198.802C269.941 197.224 271.945 195.774 273.968 194.357C274.936 193.68 275.805 193.964 276.299 195.014C276.533 195.51 276.639 196.103 276.666 196.657C276.74 198.351 276.8 200.045 276.773 201.74C276.693 205.811 276.085 209.805 274.75 213.947H274.736ZM175.671 211.325C175.584 211.409 175.491 211.499 175.404 211.583C172.232 210.249 169.013 209.013 165.908 207.557C164.151 206.732 162.575 205.553 160.919 204.522C160.605 204.329 160.331 204.072 160.011 203.898C156.985 202.261 156.057 199.549 157.419 196.405C158.134 194.75 158.849 193.094 159.577 191.439C160.031 190.408 160.592 190.298 161.527 191.046C161.694 191.175 161.854 191.31 162.001 191.458C167.784 197.005 172.305 203.369 175.431 210.636C175.524 210.855 175.591 211.093 175.664 211.325H175.671ZM174.736 215.603C173.955 216.427 173.327 217.11 172.679 217.774C169.707 220.802 166.756 223.842 163.75 226.838C162.669 227.914 162.401 227.933 161.179 227.025C157.793 224.519 154.448 221.968 151.102 219.423C150.841 219.223 150.654 218.94 150.361 218.611C153.947 217.413 157.373 216.369 160.966 215.79C163.791 215.339 166.569 214.598 169.374 213.992C169.621 213.941 169.908 213.831 170.115 213.902C171.604 214.424 173.08 214.984 174.736 215.603ZM16.5554 236.25C16.5019 234.381 16.7223 233.46 17.6172 232.101C19.3535 229.479 21.4505 227.134 24.0083 225.247C27.5878 222.605 31.5547 221.955 35.8955 223.443C32.3828 226.58 30.6932 230.394 30.8067 234.987C26.0718 235.612 21.3971 236.295 16.5487 236.25H16.5554ZM84.4397 218.54C87.3247 217.838 90.0961 217.471 92.901 217.252C93.5154 217.207 93.8627 217.497 94.2099 217.948C94.9045 218.856 95.619 219.764 96.4204 220.583C99.1852 223.411 102.431 225.659 105.87 227.662C106.204 227.856 106.518 228.094 107.086 228.474C103.559 228.59 100.367 228.738 97.2085 228.203C91.9861 227.327 88.293 224.261 85.2744 220.286C84.9138 219.809 84.7469 219.191 84.4464 218.534L84.4397 218.54ZM110.271 212.362C114.111 213.541 117.777 214.617 121.397 215.803C123.354 216.447 125.264 217.246 127.16 218.064C128.382 218.592 129.451 219.378 130.186 220.505C130.626 221.182 130.847 221.897 130.553 222.702C129.999 224.19 127.374 225.962 125.691 225.962C125.604 225.962 125.524 225.852 125.351 225.736C125.284 224.499 124.382 223.7 123.367 222.998C122.586 222.464 121.811 221.897 120.956 221.491C117.617 219.9 114.265 218.334 110.885 216.833C109.136 216.054 108.942 215.841 109.496 214.089C109.663 213.561 109.951 213.071 110.278 212.369L110.271 212.362ZM134.173 223.707C134.173 223.507 134.173 223.314 134.173 223.114C134.286 220.19 133.111 217.922 130.459 216.427C129.725 216.015 128.997 215.564 128.222 215.242C126.165 214.398 124.102 213.561 122.005 212.813C119.167 211.796 116.302 210.868 113.129 209.786C115.327 209.051 117.29 208.69 119.287 208.484C119.534 208.459 119.801 208.594 120.048 208.671C123.881 209.914 127.334 211.802 130.399 214.359C132.416 216.041 133.879 218.096 134.994 220.409C135.608 221.678 135.355 222.76 134.173 223.707ZM116.515 227.244C112.201 228.081 101.776 222.187 98.8847 217.555C98.9715 217.51 99.065 217.413 99.1385 217.426C101.396 217.78 103.653 218.122 105.897 218.54C106.237 218.605 106.645 218.966 106.792 219.288C108.221 222.354 110.698 224.364 113.73 225.826C114.665 226.277 115.587 226.773 116.515 227.244ZM95.7927 210.365C97.7828 209.715 104.588 210.578 106.411 211.667C106.097 212.865 105.783 214.037 105.469 215.216C102.377 214.765 99.3455 214.327 96.2802 213.883C95.5456 212.781 95.4788 211.589 95.786 210.365H95.7927ZM85.6084 226.129C80.6331 225.408 75.7246 224.693 70.6758 223.958C73.8614 222.257 77.1404 220.924 80.6798 219.616C81.4344 222.515 83.645 224.261 85.6151 226.123L85.6084 226.129ZM113.256 206.32C112.021 206.932 110.939 207.37 109.984 207.982C109.243 208.459 108.602 208.491 107.753 208.31C105.162 207.75 102.538 207.305 99.9265 206.816C99.459 206.726 98.9915 206.616 98.297 206.468C103.419 203.208 108.234 204.915 113.256 206.32ZM39.3481 234.433C40.9643 231.412 44.3301 228.783 47.0682 228.371C46.7677 229.357 46.4004 230.31 46.2067 231.296C46.0131 232.275 45.9863 233.286 45.8728 234.433H39.3481ZM55.7099 228.229C54.7616 229.324 53.9067 230.291 53.072 231.263C52.2706 232.198 51.9634 233.525 50.7479 234.253C50.0801 233.434 50.4407 232.784 50.6611 232.204C51.2421 230.645 52.0502 229.157 51.8632 227.34C53.2589 227.662 54.4276 227.933 55.7166 228.229H55.7099ZM92.0662 213.934C89.9158 214.192 87.8456 214.437 85.6618 214.694C86.8772 212.858 89.1211 211.531 91.6588 211.08C91.7857 211.976 91.9193 212.871 92.0729 213.941L92.0662 213.934ZM112.054 220.679C115.253 221.884 118.385 223.211 121.05 225.363C117.624 224.57 114.572 223.101 112.054 220.679ZM63.2763 229.479C64.1512 229.531 64.7923 229.563 65.4401 229.601C64.5919 231.418 63.8306 233.054 63.0092 234.819C62.1744 232.971 63.7571 231.399 63.2763 229.479ZM58.1341 232.694C58.2409 232.732 58.3411 232.771 58.448 232.81V234.877C57.8803 234.787 57.3928 234.71 56.6582 234.594C57.2325 233.86 57.68 233.28 58.1341 232.694Z" fill="#3D3D3D"/>
<path d="M507.366 93.2295C504.441 95.0912 501.489 96.3732 498.437 97.4941C494.831 98.8147 491.271 98.9242 487.679 97.5134C487.485 97.4361 487.271 97.4039 486.89 97.3073C486.33 97.9837 485.635 98.6408 485.168 99.4203C482.723 103.537 480.713 107.827 479.404 112.433C478.65 115.1 477.374 117.626 476.499 120.267C474.088 127.566 471.617 134.858 469.447 142.221C467.931 147.362 466.776 152.606 465.64 157.837C464.071 165.052 463.063 172.344 463.076 179.74C463.083 184.166 463.049 188.591 463.216 193.017C463.296 195.265 463.59 197.546 464.104 199.742C465.413 205.308 466.555 210.926 468.599 216.305C468.726 216.64 468.866 216.975 469.08 217.51C470.302 217.51 471.577 217.497 472.853 217.51C494.584 217.703 513.804 211.068 530.64 197.861C531.775 196.972 532.403 195.967 532.73 194.608C534.753 186.201 535.922 177.711 535.708 169.059C535.415 157.425 534.019 145.958 530.065 134.897C527.788 128.513 524.776 122.425 521.798 116.324C518.585 109.74 514.692 103.537 510.578 97.449C509.623 96.0318 508.508 94.7176 507.366 93.223V93.2295Z" fill="#FBCC39"/>
<path d="M373.507 113.561C372.112 115.667 370.662 117.761 369.32 119.919C361.64 132.223 353.933 144.508 346.334 156.858C341.732 164.337 337.351 171.945 332.777 179.437C326.846 189.152 320.856 198.828 314.418 208.246C314.131 208.671 313.871 209.109 313.417 209.831C314.412 209.534 315.106 209.341 315.794 209.122C324.482 206.294 333.251 203.691 341.679 200.155C355.469 194.37 369.287 188.649 383.03 182.761C388.146 180.571 393.035 177.897 398.103 175.598C403.459 173.175 408.935 170.992 414.311 168.608C421.531 165.413 428.823 162.353 435.635 158.352C436.724 157.714 437.879 157.193 439.181 156.523C436.937 154.603 434.794 152.728 432.603 150.905C431.227 149.765 429.805 148.676 428.356 147.626C426.225 146.087 424.108 144.508 421.878 143.104C412.181 136.997 402.478 130.909 392.721 124.899C386.563 121.104 380.306 117.458 374.088 113.747C373.961 113.67 373.794 113.651 373.521 113.567L373.507 113.561Z" fill="#817EB9"/>
<path d="M483.551 95.7676C478.756 92.5015 475.805 89.332 474.542 82.1105C473.4 82.1813 472.252 82.2973 471.096 82.3231C466.028 82.4583 460.952 82.4068 455.897 82.7353C451.229 83.0381 446.587 83.7017 442.019 84.9965C442.019 86.0272 441.973 87 442.026 87.9599C442.367 94.3826 442.707 100.805 443.095 107.222C443.515 114.16 444.123 121.085 444.404 128.023C444.731 136.095 444.771 144.18 444.978 152.265C445.018 153.939 444.591 155.647 445.298 157.296C445.379 157.489 445.165 157.895 444.965 158.088C444.631 158.41 444.223 158.674 443.809 158.9C439.869 161.058 435.976 163.306 431.962 165.329C424.396 169.136 416.649 172.576 408.768 175.746C405.97 176.867 403.252 178.162 400.354 179.444C408.394 190.949 418.532 199.942 430.847 206.706C441.852 212.749 456.097 216.537 463.403 216.724C463.323 216.421 463.27 216.125 463.176 215.848C460.979 209.547 459.182 203.137 458.234 196.554C457.713 192.953 457.713 189.268 457.613 185.621C457.266 172.898 459.563 160.536 462.956 148.296C465.741 138.247 469.34 128.455 472.839 118.631C473.327 117.271 473.601 115.841 474.142 114.508C476.479 108.761 478.656 102.951 482.096 97.6938C482.523 97.0432 483.024 96.4441 483.538 95.7548L483.551 95.7676Z" fill="#9EC376"/>
<path d="M375.745 110.288C377.821 111.518 379.785 112.652 381.715 113.838C389.989 118.933 398.25 124.042 406.511 129.15C411.68 132.339 416.789 135.618 422.025 138.698C428.162 142.312 433.652 146.699 439.028 151.26C439.288 151.485 439.562 151.691 439.983 152.033C440.023 151.588 440.063 151.35 440.063 151.111C439.989 145.758 440.016 140.405 439.816 135.051C439.528 127.186 439.068 119.32 438.707 111.454C438.38 104.31 438.099 97.1591 437.759 90.0149C437.492 84.3072 437.151 78.606 436.87 72.9048C436.617 67.7189 436.336 62.5266 436.169 57.3408C436.002 52.0454 435.969 46.7436 435.875 41.4418C435.829 38.8198 435.708 36.1915 435.729 33.5696C435.755 30.02 435.889 26.4704 435.969 22.9208C435.976 22.6116 435.942 22.3089 435.922 21.9288C435.174 21.9674 434.774 22.4377 434.4 22.9144C427.421 31.6949 420.001 40.1598 413.824 49.5072C408.435 57.6629 403.359 66.0118 398.437 74.4444C395.245 79.9137 391.819 85.2542 388.413 90.6076C384.359 96.9659 380.219 103.266 376.119 109.592C376.012 109.76 375.932 109.947 375.745 110.301V110.288Z" fill="#817EB9"/>
<path d="M369.133 110.874C366.662 109.496 364.371 108.188 362.054 106.925C356.438 103.865 350.815 100.812 345.178 97.784C339.695 94.84 333.859 92.7528 327.842 91.0907C327.174 90.9103 326.526 90.6784 325.745 90.4336C325.624 90.7106 325.431 91.0134 325.371 91.3355C324.729 95.0848 323.988 98.8212 323.521 102.596C322.833 108.207 322.339 113.844 321.778 119.468C321.37 123.565 320.99 127.662 320.576 131.753C320.262 134.826 319.914 137.892 319.574 140.959C319.08 145.462 318.646 149.971 318.058 154.461C317.45 159.106 316.635 163.718 315.988 168.363C315.433 172.338 315.106 176.345 314.485 180.313C313.523 186.465 312.401 192.592 311.34 198.731C311.052 200.393 310.739 202.055 310.618 203.82C310.905 203.427 311.226 203.054 311.486 202.641C317.016 194.022 322.646 185.46 328.042 176.764C334.753 165.947 341.205 154.983 347.883 144.147C353.039 135.792 358.361 127.527 363.637 119.243C365.086 116.962 366.622 114.733 368.111 112.478C368.425 112.002 368.719 111.518 369.126 110.881L369.133 110.874Z" fill="#817EB9"/>
<path d="M537.498 191.574C537.999 191.123 538.36 190.846 538.667 190.524C551.075 177.575 558.755 162.424 561.553 144.979C562.488 139.155 562.689 133.299 562.401 127.43C562.341 126.161 562.021 124.892 561.74 123.636C561.246 121.426 560.712 119.223 560.157 117.026C558.895 112.066 557.085 107.286 554.908 102.641C554.414 101.591 553.633 100.625 552.811 99.7746C549.158 96.0189 545.392 92.3856 541.185 89.1903C539.241 87.7151 537.198 86.4911 534.854 85.6601C529.845 83.8821 524.81 82.2136 519.547 81.2923C518.258 81.0669 516.949 80.9509 515.48 80.7641C515.513 84.9321 513.303 87.8504 510.645 90.4465C518.726 100.902 524.896 112.259 530.319 124.055C534.86 133.924 537.658 144.205 539.101 154.88C540.009 161.586 540.33 168.318 539.962 175.057C539.675 180.339 539.308 185.641 537.592 190.743C537.532 190.93 537.545 191.136 537.498 191.58V191.574Z" fill="#F19436"/>
<path d="M423.18 29.4467C421.096 30.6835 418.993 31.8818 416.943 33.1637C406.03 40.0052 395.165 46.9111 384.213 53.6946C377.888 57.6113 371.417 61.322 365.026 65.1421C357.593 69.5871 350.147 74.0128 342.747 78.5158C338.553 81.0669 334.446 83.7468 330.299 86.3816C329.952 86.6006 329.645 86.8712 329.244 87.1804C329.711 87.3543 330.052 87.5154 330.406 87.612C337.926 89.6155 344.771 93.0684 351.496 96.7726C357.7 100.193 363.904 103.608 370.115 107.015C370.435 107.189 370.769 107.338 371.25 107.582C371.584 107.119 371.925 106.687 372.218 106.223C378.877 95.8578 385.575 85.5119 392.18 75.1209C397.589 66.6109 402.852 58.0172 408.268 49.5137C412.241 43.2778 417.143 37.6732 421.738 31.8753C422.305 31.1538 422.893 30.4452 423.474 29.7365C423.374 29.6399 423.274 29.5497 423.167 29.4531L423.18 29.4467Z" fill="#817EB9"/>
<path d="M440.003 55.2729C440.43 63.712 440.971 72.0544 441.592 80.4549C441.872 80.4677 442.08 80.5257 442.266 80.4806C448.577 79.0441 454.962 78.2968 461.446 78.3805C464.645 78.4192 467.844 78.5351 471.05 78.5673C472.218 78.5802 473.387 78.4514 474.442 78.387C475.19 76.7571 475.758 75.1402 476.646 73.71C477.514 72.3121 478.71 71.1074 479.832 69.7353C479.271 69.3294 478.703 68.8592 478.082 68.4791C474.656 66.3919 471.197 64.3497 467.777 62.2496C464.225 60.0657 460.345 58.6356 456.264 57.7595C452.578 56.9607 448.851 56.31 445.125 55.6916C443.515 55.4275 441.859 55.4146 440.003 55.2729Z" fill="#5476B7"/>
<path d="M445.152 51.7877C447.829 52.1936 450.534 52.4706 453.172 53.0439C456.598 53.7912 459.991 54.7189 463.356 55.6916C465.981 56.4453 468.352 57.7531 470.656 59.1639C474.028 61.2447 477.401 63.3126 480.747 65.432C481.575 65.9538 482.289 66.6495 483.171 67.3517C488.447 65.0068 494.13 63.4865 500.354 64.5172C502.665 60.2912 505.797 56.8512 510.385 54.3774C499.88 49.7714 489.114 47.3942 477.902 46.9175C466.649 46.4408 455.683 47.9805 445.152 51.7877Z" fill="white"/>
<path d="M510.932 80.5708C510.752 76.9955 508.935 74.2512 506.124 72.0609C504.448 70.7531 502.518 69.8899 500.441 69.323C499.219 68.988 498.05 68.4404 496.808 68.2407C495.726 68.0668 494.57 68.157 493.475 68.3051C492.16 68.4855 490.871 68.8334 489.575 69.1426C482.176 70.9013 476.74 79.5272 481.641 88.0565C482.636 89.7959 484.319 91.007 486.089 91.9668C487.618 92.7914 489.241 93.4743 490.871 94.0992C492.6 94.7627 494.404 94.7498 496.213 94.2795C499.178 93.5065 501.83 92.1214 504.481 90.6591C507.086 89.2289 508.628 87.0258 509.957 84.6036C510.638 83.3602 511.019 82.0203 510.925 80.5773L510.932 80.5708Z" fill="white"/>
<path d="M550.901 90.1437C542.186 75.2755 529.918 63.9954 514.164 56.0846C509.93 58.3844 506.985 61.7987 504.715 66.0826C506.017 67.1134 507.299 68.157 508.615 69.1555C510.979 70.94 512.642 73.2527 514.051 75.7586C514.251 76.1194 514.418 76.493 514.639 76.944C521.243 77.2854 527.467 79.2244 533.692 81.2215C539.962 83.2314 545.659 86.2592 550.901 90.1502V90.1437Z" fill="#FF7756"/>
<path d="M301.055 228.886C299.813 228.313 298.711 227.662 297.522 227.276C293.282 225.904 289.008 224.647 284.76 223.288C282.603 222.599 280.486 221.781 278.376 221.033C278.269 221.143 278.149 221.207 278.129 221.291C277.154 225.182 276.132 229.067 275.237 232.977C274.99 234.066 275.057 235.225 275.07 236.359C275.083 237.834 275.891 238.71 277.394 239.058C278.783 239.38 280.172 239.29 281.481 238.807C285.154 237.448 288.821 236.063 292.454 234.588C294.364 233.814 296.2 232.861 298.05 231.94C299.299 231.321 300.361 230.484 301.055 228.886Z" fill="white"/>
<path d="M228.262 200.928C228.396 198.712 227.748 196.792 227.281 194.853C225.871 189.01 222.766 184.024 218.839 179.456C218.639 179.218 218.425 178.98 218.185 178.78C216.736 177.582 214.786 177.865 214.098 179.566C213.423 181.228 212.949 182.993 212.662 184.752C212.141 187.999 211.754 191.271 211.446 194.544C211.113 198.048 211.487 197.997 214.452 198.731C217.584 199.511 220.836 199.839 224.035 200.348C225.397 200.561 226.766 200.722 228.262 200.928Z" fill="white"/>
<path d="M229.564 206.513C227.561 208.497 225.684 210.378 223.781 212.234C220.963 214.984 218.505 218.019 216.355 221.278C215.874 222.006 215.453 222.811 215.22 223.636C214.725 225.356 215.119 226.181 216.909 226.696C219.093 227.327 221.337 227.798 223.581 228.216C225.304 228.538 227.06 228.68 228.796 228.906C229.01 228.931 229.217 229.015 229.424 229.002C231.481 228.867 232.069 229.034 232.169 226.754C232.276 224.3 232.303 221.826 232.136 219.371C231.875 215.577 231.267 211.821 230.145 208.162C229.985 207.634 229.772 207.119 229.558 206.513H229.564Z" fill="white"/>
<path d="M74.0149 228.12C74.449 229.434 73.8613 229.962 72.913 230.349C69.6006 231.702 67.9911 234.278 67.3567 237.686C67.7641 237.899 68.1581 238.137 68.5788 238.33C72.145 239.954 75.7045 241.577 79.284 243.168C80.052 243.51 80.8668 243.787 81.6949 243.967C83.6917 244.405 85.4013 243.619 86.363 241.861C86.6101 241.41 86.8371 240.927 86.944 240.431C87.4983 237.886 87.4916 235.328 87.0976 232.764C86.8371 231.057 85.8755 229.943 84.0724 229.614C82.0288 229.247 79.992 228.88 77.9417 228.558C76.7396 228.371 75.5242 228.287 74.0149 228.12Z" fill="#C69C6D"/>
<path d="M274.736 213.947C276.072 209.805 276.686 205.811 276.76 201.74C276.793 200.045 276.733 198.351 276.653 196.657C276.626 196.103 276.526 195.516 276.285 195.014C275.791 193.964 274.923 193.681 273.955 194.357C271.931 195.774 269.928 197.224 268.038 198.802C266.635 199.974 265.34 201.289 264.144 202.661C261.84 205.328 261.513 208.948 265.654 211.821C265.827 211.937 266.008 212.073 266.208 212.118C269 212.723 271.798 213.322 274.723 213.947H274.736Z" fill="white"/>
<path d="M175.671 211.325C175.591 211.093 175.531 210.861 175.437 210.636C172.305 203.363 167.784 196.998 162.007 191.458C161.854 191.316 161.694 191.175 161.533 191.046C160.598 190.305 160.037 190.408 159.583 191.439C158.855 193.088 158.147 194.75 157.426 196.406C156.064 199.549 156.992 202.261 160.017 203.898C160.338 204.072 160.612 204.329 160.926 204.523C162.582 205.547 164.158 206.732 165.914 207.557C169.02 209.013 172.238 210.256 175.411 211.583C175.497 211.499 175.591 211.409 175.678 211.325H175.671Z" fill="white"/>
<path d="M174.736 215.603C173.08 214.991 171.604 214.424 170.115 213.902C169.908 213.831 169.614 213.941 169.374 213.992C166.569 214.598 163.791 215.332 160.966 215.79C157.373 216.363 153.947 217.413 150.361 218.611C150.654 218.94 150.841 219.23 151.102 219.423C154.454 221.968 157.8 224.519 161.179 227.025C162.401 227.933 162.669 227.914 163.75 226.838C166.756 223.842 169.707 220.802 172.679 217.774C173.334 217.11 173.961 216.427 174.736 215.603Z" fill="white"/>
<path d="M16.5553 236.25C21.4037 236.288 26.0785 235.612 30.8134 234.987C30.6999 230.394 32.3895 226.58 35.9022 223.443C31.5614 221.955 27.5945 222.605 24.015 225.247C21.4505 227.134 19.3602 229.479 17.6239 232.101C16.7223 233.46 16.5086 234.381 16.562 236.25H16.5553Z" fill="#C69C6D"/>
<path d="M39.3482 234.433H45.8728C45.9864 233.286 46.0131 232.275 46.2068 231.296C46.4004 230.31 46.7744 229.357 47.0682 228.371C44.3302 228.783 40.9643 231.405 39.3482 234.433Z" fill="#C69C6D"/>
<path d="M55.7098 228.229C54.4209 227.933 53.2523 227.662 51.8565 227.34C52.0435 229.157 51.2421 230.645 50.6544 232.204C50.434 232.784 50.0734 233.434 50.7412 234.253C51.9567 233.531 52.2706 232.198 53.0653 231.263C53.9001 230.284 54.7548 229.318 55.7032 228.229H55.7098Z" fill="#C69C6D"/>
<path d="M63.2763 229.479C63.7505 231.405 62.1677 232.977 63.0092 234.819C63.8306 233.054 64.5919 231.418 65.4401 229.601C64.7923 229.563 64.1512 229.531 63.2763 229.479Z" fill="#C69C6D"/>
<path d="M58.1341 232.694C57.68 233.273 57.2259 233.86 56.6582 234.594C57.3928 234.71 57.887 234.787 58.448 234.877V232.81C58.3411 232.771 58.241 232.732 58.1341 232.694Z" fill="#C69C6D"/>
</g>
<defs>
<clipPath id="clip0_2133_366">
<rect width="577" height="261" fill="white" transform="matrix(-1 0 0 1 577 0)"/>
</clipPath>
</defs>
</svg>
