<svg width="859" height="686" viewBox="0 0 859 686" fill="none" xmlns="http://www.w3.org/2000/svg">
<g clip-path="url(#clip0_2095_1654)">
<mask id="mask0_2095_1654" style="mask-type:luminance" maskUnits="userSpaceOnUse" x="0" y="0" width="859" height="686">
<path d="M859 0H0V686H859V0Z" fill="white"/>
</mask>
<g mask="url(#mask0_2095_1654)">
<path d="M621.249 542.011C621.44 545.858 621.678 549.836 621.833 553.814C621.881 555.231 622.679 556.041 623.693 556.827C626.827 559.245 629.366 562.21 631.416 565.557C638.282 576.8 638.282 588.162 631.214 599.19C626.625 606.348 619.962 611.35 611.857 614.077C601.857 617.436 593.048 614.828 585.456 607.872C577.399 600.488 574.288 591.246 575.956 580.492C577.625 569.69 581.928 560.281 590.927 553.492C591.427 553.111 591.785 552.528 592.035 551.646C591.201 551.885 590.343 552.087 589.52 552.361C576.111 556.696 562.786 561.293 549.281 565.271C540.437 567.879 531.295 569.463 522.356 571.75C513.5 574.013 504.74 576.609 495.931 579.039C484.978 582.064 473.845 584.1 462.474 584.708C456.455 585.029 450.484 584.529 444.524 583.695C441.807 583.314 439.077 583.005 436.24 582.647C435.549 584.601 434.917 586.363 434.19 588.388C434.691 588.769 435.215 589.293 435.859 589.615C452.701 598.166 459.53 621.473 449.077 639.707C445.764 645.483 441.437 650.342 435.692 653.891C430.483 657.107 424.905 658.084 418.958 656.94C410.4 655.297 402.986 651.39 396.681 645.4C391.651 640.612 388.909 634.598 388.099 627.785C387.479 622.569 387.634 617.329 388.886 612.172C391.055 603.299 396.24 596.391 403.081 590.591C405.453 588.578 407.384 585.935 410.876 585.542C411.294 583.171 411.687 580.98 412.116 578.574C410.209 578.146 408.552 577.8 406.907 577.407C383.844 571.941 360.84 566.212 338.027 559.757C320.887 554.91 303.688 550.301 286.905 544.322C268.872 537.903 251.1 530.793 233.639 522.956C233.043 522.694 232.435 522.479 231.541 522.599C232.161 523.135 232.781 523.694 233.412 524.218C240.48 530.066 244.807 537.617 245.975 546.609C247.477 558.102 242.888 567.32 233.722 574.144C226.857 579.265 219.109 581.397 210.528 579.408C207.047 578.598 203.758 577.24 201.04 574.942C189.395 565.057 184.27 552.766 187.905 537.569C188.644 534.484 190.229 531.555 191.695 528.696C192.804 526.505 194.282 524.492 195.676 522.468C197.083 520.419 199.169 519.24 201.445 518.454C203.15 517.87 204.902 517.442 206.857 516.882V510.689C205.832 510.046 204.544 509.26 203.257 508.462C196.773 504.401 190.682 499.863 185.545 494.122C181.314 489.394 178.62 483.952 177.476 477.687C176.296 471.208 175.748 464.694 175.605 458.107C175.283 443.804 176.165 429.56 177.214 415.316C177.976 405.062 178.751 394.807 179.884 384.601C181.052 373.977 183.745 363.64 186.844 353.433C188.179 349.05 189.908 344.822 193.4 341.559C193.829 341.166 193.96 340.177 193.853 339.522C191.338 324.719 192.101 309.927 193.912 295.135C195.486 282.38 196.773 269.589 198.775 256.905C203.948 224.105 209.217 191.294 218.204 159.245C221.41 147.8 225.188 136.509 229.026 125.255C232.316 115.596 236.762 106.437 242.113 97.7193C254.259 77.9372 271.649 65.0033 293.58 57.8098C312.52 51.6048 331.805 46.8052 351.352 42.9346C367.717 39.6951 384.201 37.3251 400.805 35.6935C412.605 34.5382 424.428 34.6335 436.205 35.7649C448.624 36.9559 461.008 38.5161 473.38 40.0643C504.156 43.8993 532.452 54.5227 558.483 71.2678C563.048 74.1976 567.625 77.1631 571.856 80.5336C584.121 90.3472 592.429 102.817 596.338 118.144C598.841 127.934 600.51 137.867 602.155 147.823C604.527 162.091 607.316 176.288 609.509 190.579C611.285 202.239 612.441 213.994 613.883 225.701C615.289 237.134 616.684 248.556 618.138 259.989C620.212 276.246 623.895 292.205 627.256 308.224C629.056 316.787 630.546 325.421 632.024 334.044C633.037 339.975 633.478 345.942 631.023 351.932C632.405 352.278 633.585 352.552 634.753 352.885C640.832 354.672 646.565 357.196 651.691 360.948C660.761 367.582 668.413 375.502 674.981 384.684C688.866 404.121 695.017 425.951 695.994 449.449C696.352 458.048 695.076 466.575 692.669 474.841C690.607 481.963 688.223 489.001 685.72 495.98C682.347 505.425 676.065 512.523 668.032 518.537C655.588 527.851 641.75 534.199 627.28 539.403C625.576 540.011 623.883 540.642 622.179 541.273C622.012 541.333 621.881 541.499 621.249 541.988V542.011ZM599.818 321.324C599.64 321.324 599.473 321.324 599.294 321.336C599.294 331.519 599.389 341.714 599.234 351.897C599.199 354.421 600.093 355.827 602.298 356.649C603.192 356.982 604.062 357.435 604.979 357.613C609.258 358.435 613.525 358.34 617.697 357.03C623.025 355.35 626.112 351.599 627.006 346.156C627.352 344.024 627.519 341.75 627.185 339.63C625.611 329.768 624.05 319.895 622.06 310.105C618.555 292.86 614.527 275.71 612.429 258.203C611.165 247.71 609.95 237.218 608.639 226.737C606.982 213.422 605.444 200.083 603.478 186.816C601.559 173.834 599.044 160.936 597.006 147.954C595.516 138.451 593.871 128.994 591.547 119.657C587.887 104.96 579.985 93.003 568.114 83.7611C563.239 79.9738 557.958 76.6748 552.726 73.3877C528.089 57.8813 501.307 48.282 472.415 44.6734C459.757 43.0894 447.075 41.5411 434.381 40.3502C423.749 39.3616 413.069 39.2664 402.402 40.2787C384.654 41.958 367.05 44.5543 349.576 48.0915C331.078 51.843 312.818 56.4402 294.891 62.3831C274.295 69.2193 258.157 81.6769 246.631 100.113C242.376 106.925 238.764 114.059 235.915 121.527C227.608 143.357 221.088 165.748 216.499 188.638C212.828 206.92 209.562 225.284 206.404 243.661C202.518 266.278 199.634 289.025 197.917 311.916C197.214 321.265 197.834 330.566 199.359 339.808C200.563 347.145 204.461 352.647 210.981 356.196C216.642 359.281 222.733 360.603 229.169 359.995C233.746 359.566 237.799 357.708 241.458 355.005C243.52 353.481 243.448 352.742 242.423 350.432C240.349 345.739 238.204 341.047 236.559 336.2C233.162 326.172 231.172 315.786 229.324 305.377C226.225 288.013 224.187 270.541 224.485 252.855C224.664 241.886 225.808 231.013 227.25 220.151C229.992 199.512 234.461 179.325 241.756 159.769C247.227 145.108 254.938 131.9 266.25 120.979C284.617 103.222 306.524 96.695 331.4 102.233C354.332 107.33 372.509 120.395 386.752 138.844C395.358 149.991 401.83 162.389 406.431 175.728C414.178 198.261 418.624 221.485 421.139 245.114C423.153 263.967 424.083 282.88 424.178 301.84C424.25 314.81 422.521 327.458 418.374 339.761C415.394 348.598 412.307 357.387 409.398 366.248C407.944 370.678 406.752 375.18 406.776 379.932C406.8 384.029 408.254 387.304 411.627 389.746C414.357 391.723 417.205 393.521 420.483 394.259C426.049 395.522 431.663 396.546 437.277 397.547C438.66 397.797 440.174 397.749 441.544 397.463C445.168 396.689 448.803 395.879 452.331 394.772C456.837 393.366 461.008 391.294 463.952 387.364C464.119 387.137 464.334 386.887 464.584 386.792C466.968 385.863 467.206 383.684 467.48 381.635C468.052 377.252 467.743 372.882 466.598 368.606C463.452 356.839 460.388 345.048 456.992 333.353C453.797 322.337 451.795 311.118 450.376 299.78C449.065 289.299 448.064 278.783 447.039 268.267C446.157 259.167 445.132 250.08 444.703 240.958C444.083 227.833 443.892 214.697 443.63 201.56C443.463 193.342 444.429 185.232 446.24 177.205C447.921 169.785 449.482 162.33 451.08 154.886C452.522 148.157 454.345 141.547 458.005 135.64C464.262 125.528 471.712 116.441 481.378 109.307C494.537 99.5891 509.054 95.1468 525.443 97.7907C530.902 98.6721 536.361 99.47 541.391 101.995C548.936 105.782 554.716 111.427 559.007 118.633C564.276 127.494 568.59 136.807 572.19 146.466C583.251 176.216 588.543 207.217 592.154 238.587C593.203 247.663 593.978 256.774 595.063 265.837C595.849 272.352 597.315 278.807 597.816 285.333C598.746 297.279 599.211 309.272 599.854 321.241L599.818 321.324ZM488.387 575.692C490.031 575.287 491.688 574.918 493.333 574.477C503.703 571.631 514.048 568.654 524.454 565.95C532.559 563.842 540.914 562.591 548.876 560.055C572.464 552.563 595.933 544.679 619.402 536.843C629.068 533.615 638.603 530.018 647.662 525.29C648.341 524.933 649.044 524.623 649.664 524.195C652.251 522.432 654.79 520.61 657.376 518.859C660.523 516.727 663.777 514.714 666.876 512.511C672.68 508.366 676.923 502.912 679.581 496.326C681.393 491.836 682.954 487.227 684.552 482.641C689.379 468.767 691.238 454.558 689.367 439.909C687.138 422.509 682.442 405.991 672.203 391.425C670.725 389.317 669.331 387.161 667.865 385.053C662.287 377.086 655.433 370.392 647.483 364.831C642.203 361.138 636.386 358.554 630.034 357.292C628.806 357.042 627.769 357.077 626.613 357.994C618.651 364.318 609.771 364.878 600.474 361.591C599.115 361.115 598.007 361.031 596.66 361.424C592.19 362.734 587.697 364.021 583.179 365.176C561.844 370.607 540.163 374.358 518.518 378.265C503.142 381.04 487.826 384.017 472.88 388.626C471.855 388.936 470.901 389.627 470.055 390.317C468.815 391.33 467.719 392.509 466.539 393.593C465.8 394.271 465.013 394.903 464.036 395.724C464.846 396.427 465.442 396.903 465.99 397.427C480.055 410.814 490.556 426.392 496.015 445.209C504.811 475.531 508.196 506.366 505.097 537.831C504.406 544.882 502.689 551.694 499.888 558.221C497.123 564.676 493.393 570.464 488.375 575.68L488.387 575.692ZM411.675 397.058C410.793 405.907 409.875 414.22 409.172 422.545C408.397 431.739 408.028 440.981 407.11 450.164C405.68 464.574 404.798 478.997 404.714 493.479C404.643 505.663 404.261 517.847 403.904 530.018C403.808 533.341 403.582 536.712 402.914 539.951C401.794 545.31 398.778 549.133 393.296 550.979C388.373 552.623 383.439 553.147 378.373 552.397C374.988 551.897 371.579 551.361 368.277 550.444C353.879 546.454 339.505 542.369 325.142 538.224C305.654 532.591 286.369 526.314 267.477 518.895C258.145 515.227 249.217 510.772 240.826 505.258C236.297 502.281 233.508 498.16 232.34 492.884C230.719 485.559 230.552 478.152 231.124 470.72C232.578 452.01 233.305 433.276 233.079 414.506C233.031 410.135 233.293 405.752 233.484 401.381C233.961 390.162 234.473 378.944 234.974 367.713C235.021 366.7 234.974 365.676 234.974 364.652C217.858 367.165 204.02 362.961 195.462 346.847C193.591 349.217 192.661 351.813 191.874 354.445C188.346 366.331 185.569 378.384 184.425 390.746C183.602 399.655 183.078 408.587 182.422 417.507C181.445 430.798 180.67 444.102 180.944 457.441C181.075 463.645 181.612 469.779 182.613 475.901C183.602 481.939 186.105 487.143 190.432 491.443C192.661 493.658 194.949 495.826 197.405 497.779C203.305 502.483 209.681 506.497 216.523 509.7C223.162 512.809 229.956 515.584 236.654 518.549C258.335 528.16 280.231 537.271 302.925 544.25C317.848 548.836 332.889 553.016 347.943 557.173C378.611 565.628 409.303 573.953 440.948 578.015C448.326 578.967 455.704 579.956 463.154 579.396C467.516 579.063 471.867 578.658 475.967 576.836C483.821 573.334 489.221 567.391 493.154 559.948C497.35 551.992 499.352 543.405 500.031 534.496C501.283 518.216 501.176 501.971 498.935 485.774C497.314 474.078 495.419 462.431 492.01 451.093C488.577 439.647 484.417 428.548 477.254 418.793C472.343 412.1 466.968 405.812 460.972 400.059C459.781 398.916 458.744 398.535 457.194 399.333C455.847 400.024 454.369 400.476 452.927 400.953C446.24 403.132 439.482 404.299 432.402 403.025C425.465 401.774 418.517 400.655 411.675 397.082V397.058ZM594.252 340.999C594.336 340.213 594.419 339.844 594.407 339.475C594.121 324.826 593.895 310.165 593.501 295.516C593.382 291.24 592.989 286.953 592.345 282.737C590.462 270.41 588.793 258.072 587.637 245.65C585.563 223.26 581.976 201.108 576.66 179.253C572.488 162.103 567.053 145.382 558.936 129.649C556.588 125.1 553.906 120.669 550.89 116.537C546.874 110.999 541.296 107.271 534.764 105.282C529.007 103.531 523.047 102.567 517.028 102.507C505.717 102.388 495.55 106.044 486.277 112.44C478.804 117.585 472.844 124.195 467.349 131.317C461.89 138.391 458.303 146.228 456.539 154.981C454.977 162.723 453.201 170.416 451.509 178.122C450.162 184.267 449.077 190.46 449.077 196.772C449.077 215.709 449.018 234.657 451.044 253.522C451.461 257.381 451.807 261.24 452.2 265.182C454.226 265.932 456.062 266.718 457.969 267.29C461.616 268.386 465.263 269.457 468.958 270.351C480.568 273.15 492.475 273.888 504.263 275.531C512.761 276.711 521.152 278.342 529.305 281.153C535.741 283.368 541.832 286.191 547.219 290.419C555.539 296.945 560.974 305.068 561.785 315.882C561.844 316.608 562.345 317.525 562.929 317.954C569.162 322.587 573.263 328.792 576.302 335.795C576.636 336.569 577.017 337.343 577.303 337.938C583.001 338.975 588.507 339.975 594.24 341.023L594.252 340.999ZM239.765 367.367C239.682 368.213 239.61 368.761 239.586 369.297C239.289 378.431 238.991 387.566 238.716 396.701C238.49 404.216 238.12 411.731 238.12 419.246C238.12 431.727 237.954 444.185 237.083 456.643C236.547 464.432 236.023 472.232 235.975 480.021C235.951 484.261 236.75 488.537 237.489 492.729C238.097 496.135 240.135 498.815 243.067 500.72C245.141 502.066 247.239 503.4 249.384 504.627C260.087 510.772 271.542 515.191 283.151 519.264C302.734 526.148 322.627 532.114 342.52 538.022C354.475 541.571 366.43 545.144 378.79 547.145C383.736 547.943 388.48 547.335 393.045 545.358C394.142 544.882 395.143 544.06 396.001 543.214C397.563 541.678 398.242 539.689 398.373 537.533C398.898 528.72 400.173 519.967 399.541 511.07C399.148 505.484 399.351 499.839 399.494 494.218C399.744 484.321 399.947 474.424 400.554 464.539C401.186 454.189 402.223 443.852 403.165 433.526C403.975 424.617 404.869 415.721 405.775 406.812C406.037 404.204 406.454 401.608 406.836 398.714C404.595 399 402.747 399.393 400.876 399.452C393.641 399.678 386.406 399.857 379.16 399.952C376.871 399.988 374.976 400.429 373.248 402.144C370.459 404.907 366.907 406.36 363.009 406.765C357.574 407.324 352.163 407.158 346.894 405.431C339.743 403.096 332.544 400.917 325.428 398.487C316.596 395.474 307.812 392.366 299.051 389.138C293.699 387.173 288.944 384.255 285.427 379.599C284.963 378.991 284.104 378.539 283.342 378.324C280.314 377.491 277.251 376.776 274.2 376.014C262.853 373.179 251.208 371.524 239.789 367.332L239.765 367.367ZM302.424 215.626C308.908 197.868 322.258 187.673 338.885 180.933C338.432 179.849 338.05 179.075 337.776 178.277C334.737 169.166 335.881 156.196 349.362 150.051C355.345 147.323 361.567 147.121 367.824 148.407C371.519 149.169 375.083 150.503 378.742 151.587C378.766 151.48 378.885 151.194 378.85 150.932C378.754 150.277 378.587 149.634 378.432 148.979C376.966 142.607 374.285 136.759 371.078 131.09C370.029 129.232 368.802 127.613 367.181 126.243C359.922 120.098 351.71 115.524 343.104 111.57C332.925 106.902 322.246 105.032 311.113 105.746C296.19 106.699 283.222 112.475 272.221 122.408C261.887 131.733 254.164 143 248.931 155.91C244.819 166.057 241.351 176.443 238.728 187.078C235.164 201.513 232.983 216.197 231.207 230.941C229.551 244.697 229.3 258.489 230.313 272.28C231.517 288.823 234.247 305.151 237.918 321.324C238.252 322.777 238.645 324.218 239.014 325.636C254.438 326.1 269.158 322.349 284.152 321.634C291.876 307.628 300.755 294.801 314.248 285.655C310.16 281.165 306.846 276.449 304.736 270.803C303.974 271.125 303.449 271.315 302.949 271.542C298.491 273.626 293.926 273.697 289.301 272.28C282.364 270.16 276.977 265.992 273.151 259.834C265.701 247.865 266.881 231.93 275.988 221.164C281.935 214.137 290.767 211.66 299.492 214.566C300.386 214.863 301.268 215.185 302.436 215.59L302.424 215.626ZM351.042 199.631C350.017 200.548 349.171 201.298 348.325 202.06C347.693 202.632 347.145 203.382 346.418 203.752C345.834 204.049 344.88 204.18 344.356 203.894C343.45 203.394 343.652 202.394 344.153 201.632C344.618 200.929 345.273 200.345 345.822 199.69C346.346 199.083 346.859 198.464 347.395 197.832C343.629 195.498 336.62 193.08 332.448 192.64C328.984 192.267 325.849 193.132 323.044 195.236C321.983 196.034 320.923 196.856 319.933 197.749C313.914 203.204 309.48 209.754 306.286 217.305C306.965 217.769 307.514 218.115 308.038 218.508C309.778 219.83 311.53 221.152 313.235 222.521C314.021 223.152 314.558 223.998 313.986 225.01C313.354 226.142 312.257 226.142 311.232 225.737C310.362 225.392 309.516 224.903 308.777 224.32C305.738 221.926 302.257 220.389 298.646 219.139C291.22 216.566 284.057 218.639 279.206 224.796C273.246 232.359 271.637 240.91 274.045 250.104C276.262 258.548 281.399 264.574 289.826 267.54C294.796 269.291 299.349 268.54 303.664 265.599C307.216 263.181 309.802 259.965 311.864 256.238C312.496 255.094 313.283 253.963 314.248 253.094C315.19 252.236 316.477 252.796 316.477 254.07C316.477 255.356 316.286 256.821 315.643 257.869C313.759 260.93 311.709 263.919 309.492 266.754C308.574 267.921 308.455 268.743 308.992 270.053C310.803 274.543 313.64 278.33 316.656 282.022C317.693 283.297 318.598 283.618 320.291 283.07C331.137 279.509 347.55 281.844 355.25 298.136C355.81 299.327 356.358 300.518 356.895 301.673H362.127C364.189 295.778 368.718 293.515 374.344 293.265C379.374 293.039 384.44 293.134 389.482 293.348C391.532 293.432 393.057 292.92 394.702 291.419C394.07 291.205 393.737 291.026 393.379 290.966C387.825 290.037 383.856 286.846 380.9 282.237C374.606 272.399 375.453 258.846 383.057 249.973C392.187 239.326 406.419 239.767 414.702 248.044C415 248.342 415.406 248.544 416.168 249.08C415.704 245.412 415.406 242.196 414.893 239.028C413.236 228.798 411.52 218.579 409.804 208.349C409.684 207.61 409.541 206.777 409.112 206.205C406.144 202.263 403.486 197.987 399.279 195.188C395 192.342 390.685 189.555 386.192 187.066C382.449 184.994 378.361 183.6 374.082 182.957C368.218 182.064 362.33 181.885 356.418 182.409C348.861 183.088 341.555 184.708 334.749 188.15C334.248 188.4 333.855 188.852 333.116 189.448C339.552 190.413 345.071 192.687 350.482 195.331C351.495 194.486 352.365 193.747 353.259 193.045C354.201 192.306 355.119 191.151 356.477 192.199C357.3 192.83 356.966 193.819 355.56 195.331C354.952 195.986 354.344 196.641 353.748 197.285C357.693 200.667 361.364 203.799 364.916 206.836C366.883 206.896 367.395 204.014 369.982 204.883C368.73 206.419 367.646 207.765 366.478 209.194C367.729 210.897 368.933 212.362 369.934 213.958C370.923 215.518 372.699 216.638 372.699 218.817C369.886 216.328 367.92 213.029 364.797 210.79C363.522 211.779 362.413 212.684 361.257 213.506C360.077 214.351 358.837 215.102 357.622 215.899C357.443 215.709 357.264 215.506 357.097 215.316C357.741 212.267 361.09 211.195 362.64 208.694C359.064 205.312 355.548 202.132 351.114 199.571L351.042 199.631ZM349.135 336.259C350.005 334.58 351.007 333.067 351.638 331.412C355.774 320.383 355.286 309.581 349.684 299.148C347.335 294.778 344.129 291.086 339.445 289.168C331.507 285.917 323.676 285.845 316.25 290.74C311.924 293.587 308.038 296.933 304.748 300.947C299.003 307.95 293.747 315.274 289.444 323.289C286.166 329.387 283.675 335.723 282.46 342.524C280.433 353.802 281.876 364.497 288.085 374.346C290.541 378.241 293.795 381.218 297.99 383.1C300.16 384.077 302.376 384.934 304.582 385.839C317.895 391.318 331.864 394.867 345.452 399.559C348.206 400.512 348.611 400.357 349.719 397.582C351.424 393.307 351.877 388.864 350.399 384.458C349.409 381.504 347.955 378.705 346.74 375.823C346.477 375.204 346.382 374.525 346.072 373.394C347.121 373.763 347.776 373.787 348.086 374.132C350.637 376.943 353.295 379.67 354.392 383.505C355.941 388.936 355.607 394.224 353.521 399.44C353.259 400.107 353.009 400.786 352.687 401.667C356.775 402.048 360.542 402.179 364.32 401.31C365.774 400.977 366.609 400.202 367.074 398.773C368.158 395.391 368.814 391.973 368.754 388.4C368.695 384.124 367.55 380.146 365.965 376.24C365.596 375.335 365.369 374.358 365 373.191C367.133 373.31 367.836 374.668 368.635 375.764C372.652 381.183 373.379 387.376 372.628 394.081C374.142 392.437 374.571 391.842 375.345 389.281C379.648 375.156 376.764 362.58 366.215 352.301C354.439 340.821 339.671 337.129 323.652 337.998C317.895 338.308 312.794 340.749 308.789 345.108C308.467 345.453 308.157 345.894 307.752 346.073C307.108 346.347 306.024 346.775 305.773 346.513C305.285 346.001 304.844 344.87 305.094 344.346C305.821 342.845 306.715 341.297 307.895 340.154C311.399 336.747 315.762 334.83 320.494 333.841C328.015 332.269 335.464 333.079 342.878 334.723C344.904 335.175 346.906 335.735 349.123 336.307L349.135 336.259ZM452.689 270.994C453.058 274.972 453.297 278.664 453.749 282.332C454.918 291.872 456.241 301.387 457.361 310.939C457.659 313.428 458.767 314.607 461.211 315C466.181 315.81 471.104 316.942 476.086 317.692C489.328 319.681 502.296 322.575 514.263 328.887C515.443 329.506 516.623 330.161 517.874 330.602C520.914 331.698 523.977 332.722 527.064 333.687C527.934 333.961 529.019 334.234 529.662 333.198C530.807 331.364 532.082 329.649 532.213 327.279C532.499 322.206 530.389 318.264 526.957 314.798C526.23 314.059 525.431 313.321 524.919 312.44C524.668 311.999 524.835 311.106 525.145 310.641C525.372 310.296 526.146 310.189 526.671 310.201C527.112 310.201 527.589 310.475 527.958 310.737C533.262 314.607 537.815 321.027 536.349 329.482C536.063 331.138 535.503 332.746 535.062 334.377C535.253 334.496 535.407 334.663 535.562 334.675C536.039 334.711 536.516 334.723 536.993 334.699C541.415 334.461 545.277 332.71 548.936 330.352C549.949 329.697 550.247 328.863 550.235 327.72C550.211 321.777 548.423 316.501 544.549 311.951C544.001 311.296 543.393 310.677 542.928 309.962C542.368 309.105 542.178 307.985 543.071 307.378C543.739 306.925 544.919 306.687 545.646 306.973C546.647 307.354 547.553 308.212 548.304 309.034C551.403 312.416 553.131 316.513 554.335 320.884C554.526 321.598 554.752 322.301 555.062 323.385C556.624 320.622 556.767 318.037 556.457 315.393C555.634 308.271 552.5 302.376 546.981 297.731C540.938 292.634 534.168 288.858 526.707 286.262C515.55 282.391 503.941 280.879 492.296 279.509C479.221 277.961 466.217 276.151 453.893 271.184C453.642 271.089 453.344 271.089 452.677 270.982L452.689 270.994ZM448.815 620.949C448.589 611.112 445.025 602.608 436.824 596.475C434.035 594.378 430.853 592.747 427.694 591.211C422.033 588.447 416.204 589.329 410.423 590.96C409.72 591.163 409.053 591.639 408.457 592.092C396.407 601.262 390.685 613.136 393.105 628.405C393.915 633.502 396.049 638.051 399.815 641.66C405.37 646.984 411.913 650.461 419.494 652.01C424.536 653.046 429.184 652.212 433.368 649.306C443.165 642.506 448.41 633.18 448.803 620.949H448.815ZM411.198 314.726C409.887 315.548 409.124 316.144 408.278 316.537C406.514 317.358 405.942 318.764 405.692 320.61C405.405 322.765 404.917 324.921 404.226 326.981C402.342 332.627 398.802 336.986 393.451 339.713C387.324 342.833 381.496 342.285 376.12 337.974C374.869 336.974 373.641 335.83 372.723 334.532C367.598 327.22 364.034 319.157 361.853 310.51C361.507 309.164 361.46 307.747 361.245 306.163C360.16 306.223 359.302 306.27 358.396 306.318C360.435 317.644 359.815 328.196 353.235 337.903C369.755 345.096 381.15 356.208 382.89 374.728C389.029 376.407 394.964 378.027 401.019 379.67C401.115 379.289 401.234 378.836 401.353 378.384C403.415 370.773 405.358 363.139 407.575 355.577C408.957 350.837 410.817 346.239 412.307 341.523C413.82 336.724 415.215 331.876 416.514 327.017C416.812 325.91 416.872 324.433 416.371 323.468C414.857 320.526 413.034 317.763 411.198 314.714V314.726ZM191.624 548.752C191.672 556.768 196.463 564.783 204.342 571.095C206.213 572.596 208.633 573.596 210.969 574.275C223.639 577.955 237.811 568.022 240.445 555.172C242.161 546.799 239.324 539.594 234.461 533.032C230.445 527.613 224.997 524.254 218.323 523.111C215.426 522.622 212.459 522.503 209.526 522.265C205.426 521.92 202.113 523.516 199.336 526.434C194.008 532.031 191.612 538.748 191.624 548.764V548.752ZM598.364 554.922C597.053 555.529 596.004 555.791 595.218 556.41C593.215 557.994 591.082 559.531 589.437 561.46C583.525 568.38 580.76 576.538 580.629 585.613C580.498 594.45 584.55 601.107 591.523 606.169C598.46 611.207 605.814 611.386 613.359 607.67C617.673 605.538 621.38 602.537 624.563 598.94C633.526 588.805 633.168 573.12 621.714 562.603C621.523 562.437 621.225 562.377 620.796 562.198C620.677 563.044 620.558 563.759 620.486 564.485C620.188 567.51 619.938 570.547 619.592 573.572C619.175 577.24 618.079 580.789 618.317 584.577C618.46 586.887 617.28 589.007 615.826 590.829C612.56 594.914 608.21 596.713 603.049 596.582C597.756 596.451 593.597 593.199 592.083 588.162C590.379 582.493 591.678 578.729 596.35 575.454C597.017 568.725 597.661 562.127 598.364 554.945V554.922ZM397.694 286.798C399.303 286.393 401.258 286.429 402.461 285.5C408.052 281.177 413.117 276.294 416.836 270.184C417.301 269.422 417.694 268.409 417.623 267.552C417.17 262.288 415.763 257.262 412.962 252.772C412.044 251.295 410.578 249.985 409.077 249.08C404.059 246.067 398.743 245.4 393.272 247.901C382.771 252.677 378.063 266.421 383.188 277.377C386.037 283.463 390.673 286.846 397.706 286.786L397.694 286.798ZM240.921 332.71C242.733 338.796 244.724 344.405 247.501 349.753C248.454 351.599 249.67 352.242 251.744 352.29C259.456 352.48 267.179 352.706 274.688 354.814C275.117 354.934 275.606 354.874 276.429 354.91C275.785 346.085 277.644 337.736 280.481 329.459C267.132 330.554 254.164 331.614 240.921 332.71ZM532.011 339.737C528.077 338.784 524.442 338.034 520.89 336.986C519.388 336.545 518.399 336.819 517.278 337.748C513.977 340.475 511.569 343.858 509.853 347.74C507.767 352.456 506.206 357.351 505.347 362.425C504.895 365.104 504.704 367.832 504.346 370.988C515.634 368.213 526.194 364.938 536.528 361.055C534.99 353.79 533.5 346.74 532.011 339.749V339.737ZM387.717 182.04C388.075 180.968 388.409 180.277 388.528 179.539C389.78 172.155 387.968 165.676 382.282 160.674C375.274 154.505 366.895 152.016 357.669 152.778C346.668 153.695 340.089 161.734 341.161 172.655C341.4 175.085 341.853 177.538 343.629 179.372C347.586 178.646 351.388 177.955 355.119 177.276C356.275 167.153 360.518 162.687 368.504 163.068C372.235 163.247 375.596 164.438 378.301 167.129C381.782 170.583 382.27 174.942 381.782 179.622C383.736 180.408 385.56 181.159 387.706 182.028L387.717 182.04ZM464.465 320.586C478.696 337.915 485.729 357.47 488.446 378.991C489.149 378.717 489.793 378.455 490.651 378.122C485.74 359.364 491.247 343.191 502.821 328.458C490.484 324.028 477.85 322.468 464.477 320.586H464.465ZM367.372 308.033C367.288 308.676 367.205 308.95 367.24 309.212C367.3 309.784 367.372 310.355 367.538 310.891C369.672 317.74 372.401 324.337 376.454 330.269C381.412 337.533 388.635 338.057 394.786 331.769C395.834 330.697 396.8 329.435 397.444 328.089C400.006 322.658 400.447 316.822 400.602 310.57C398.445 312.225 396.716 313.869 394.702 315.024C392.509 316.287 390.113 317.263 387.694 318.061C386.299 318.514 384.69 318.442 383.284 316.727C387.777 313.404 393.486 311.951 396.776 307.104C387.074 310.51 377.336 311.749 367.383 308.021L367.372 308.033ZM483.19 380.682C483.19 379.265 483.357 378.11 483.166 377.014C482.379 372.619 481.748 368.189 480.591 363.89C476.861 349.991 471.247 336.962 462.236 325.576C461.652 324.838 461.032 324.135 460.424 323.409C460.114 324.266 460.198 324.814 460.341 325.35C463.523 336.89 466.718 348.431 469.924 359.971C471.998 367.415 473.75 374.906 472.701 382.731C472.677 382.945 472.892 383.195 473.082 383.636C476.479 382.636 479.829 381.659 483.19 380.67V380.682ZM615.659 543.607C611.523 545.037 607.792 546.335 603.978 547.657C603.668 551.837 603.418 555.898 603.072 559.936C602.596 565.7 601.606 571.44 602.155 577.252C602.488 580.837 603.108 581.468 606.612 581.826C610.355 582.207 611.595 581.409 612.703 577.848C612.93 577.121 613.156 576.383 613.239 575.633C613.68 571.869 614.062 568.094 614.503 564.318C614.717 562.437 614.896 560.543 615.289 558.697C616.35 553.826 616.255 548.943 615.647 543.584L615.659 543.607ZM500.663 376.407C500.699 375.859 500.735 375.49 500.747 375.132C500.89 371.059 500.616 366.927 501.235 362.925C502.88 352.397 505.705 342.285 513.917 334.639C513.965 334.592 513.941 334.461 513.977 334.032C512.475 333.198 510.794 332.353 509.209 331.364C507.934 330.566 506.861 330.673 505.979 331.841C504.322 334.032 502.57 336.176 501.152 338.522C494.263 349.836 491.39 361.925 494.37 375.085C494.549 375.883 494.835 376.645 495.097 377.526C497.111 377.121 498.863 376.776 500.663 376.419V376.407ZM240.361 362.222C242.864 363.913 245.558 364.557 248.216 365.164C258.49 367.51 268.788 369.749 279.075 372.012C279.504 372.107 279.969 372.024 280.386 372.024C279.361 368.511 278.348 365.164 277.418 361.794C277.108 360.686 276.357 360.281 275.38 360.09C272.305 359.483 269.253 358.649 266.154 358.352C259.742 357.744 253.294 357.423 247.262 357.018C244.843 358.84 242.733 360.424 240.349 362.222H240.361ZM549.281 335.318C548.495 342.285 548.507 348.693 548.971 355.16C550.902 355.993 552.702 356.863 554.573 357.53C555.193 357.756 556.123 357.697 556.695 357.387C560.02 355.565 563.286 353.635 566.755 351.646C565.718 347.454 564.526 343.476 562.464 339.808C562.166 339.272 561.594 338.713 561.034 338.546C557.303 337.45 553.548 336.462 549.293 335.306L549.281 335.318ZM381.031 141.464C381.198 142.178 381.365 142.893 381.543 143.596C382.306 146.644 383.272 149.646 383.784 152.73C384.154 154.922 385.107 156.518 386.597 158.125C392.104 164.056 394.368 171.095 393.141 179.134C392.89 180.778 392.151 182.338 391.627 183.993C393.296 185.065 394.905 186.066 396.49 187.114C398.075 188.174 399.66 189.234 401.186 190.365C402.64 191.437 404.035 192.604 405.453 193.724C401.198 174.382 393.546 156.803 381.031 141.452V141.464ZM406.299 393.819C404.798 391.449 403.332 389.567 402.342 387.471C401.675 386.03 400.805 385.125 399.398 384.66C394.011 382.886 388.611 381.135 383.105 379.337C382.58 382.278 382.259 384.994 381.579 387.626C380.912 390.234 379.899 392.747 378.921 395.605C388.182 394.903 397.229 395.629 406.299 393.819ZM558.423 328.292C568.853 337.212 571.177 349.527 573 362.198C574.49 361.817 575.766 361.496 576.981 361.186C578.054 347.716 569.89 327.934 561.212 322.503C560.307 324.373 559.413 326.231 558.423 328.292ZM594.312 345.882C589.27 344.822 584.324 343.774 579.401 342.738C580.247 348.645 581.046 354.219 581.88 360.067C586.159 358.876 590.486 357.673 594.824 356.458C594.646 352.778 594.479 349.407 594.312 345.894V345.882ZM366.74 303.472C377.038 307.747 386.8 306.449 396.824 302.197C393.188 299.494 389.41 297.946 385.262 297.946C380.9 297.946 376.537 298.493 372.175 298.863C369.422 299.101 367.67 300.625 366.74 303.472ZM359.767 176.728C365.643 177.157 371.245 177.562 377.05 177.991C377.407 174.477 376.692 171.464 373.605 169.535C370.351 167.498 366.776 167.022 363.343 168.928C360.351 170.583 359.862 173.608 359.767 176.74V176.728ZM413.797 302.543C413.487 300.256 412.986 297.541 411.067 295.385C409.065 293.134 405.787 292.848 403.677 294.837C403.105 295.385 402.652 296.564 402.819 297.302C403.391 299.792 404.178 302.221 405.024 304.639C405.966 307.33 407.813 308.498 410.173 308.093C412.414 307.7 413.808 305.758 413.797 302.555V302.543ZM536.468 339.856C537.577 345.358 538.661 350.777 539.758 356.279C541.462 355.66 542.952 355.124 544.323 354.624V338.427C541.605 338.927 539.21 339.356 536.468 339.856ZM557.863 365.486C557.875 365.283 557.899 365.081 557.911 364.878C554.335 362.949 550.879 360.757 546.802 359.888C542.976 359.066 539.627 362.568 540.568 366.391C540.962 367.987 541.903 368.761 543.405 368.463C548.232 367.51 553.036 366.486 557.863 365.486ZM430.853 581.885C426.002 581.075 421.282 580.301 416.311 579.468C416.204 581.23 416.109 582.707 416.002 584.529C420.71 584.315 425.227 584.279 429.542 586.351C429.923 585.351 430.233 584.672 430.436 583.958C430.614 583.338 430.686 582.695 430.853 581.873V581.885ZM510.449 374.001C510.485 374.18 510.532 374.37 510.568 374.549C519.269 372.905 527.958 371.25 536.838 369.571C536.421 368.32 536.087 367.367 535.753 366.391C527.219 368.963 518.828 371.476 510.449 374.001ZM610.272 587.566C605.254 587.483 600.414 587.185 597.327 582.409C596.553 585.661 597.733 588.662 600.105 589.912C603.239 591.556 607.78 590.591 610.272 587.566ZM414.333 291.062C415.918 289.228 417.098 287.894 418.23 286.512C418.505 286.179 418.731 285.679 418.719 285.274C418.636 282.88 418.469 280.486 418.314 277.854C413.844 280.534 413.701 284.75 413.165 288.704C413.081 289.335 413.832 290.073 414.345 291.05L414.333 291.062ZM568.495 363.02C568.721 360.829 568.364 358.685 567.53 356.327C565.05 357.709 562.786 358.983 560.426 360.293C564.752 363.556 565.73 363.89 568.495 363.02ZM417.277 320.098C418.302 316.918 419.72 313.654 415.644 311.499C415.12 311.904 414.536 312.356 413.94 312.809C415.084 315.322 416.18 317.704 417.277 320.098ZM212.53 513.797C211.672 515.441 211.934 516.417 213.543 516.775C215.999 517.311 218.466 517.811 220.933 518.323C220.981 518.156 221.04 518.001 221.088 517.835C218.299 516.525 215.51 515.203 212.53 513.797ZM418.969 293.325C417.913 294.285 417.782 295.198 418.576 296.064C418.719 295.087 418.815 294.373 418.969 293.325ZM418.767 307.271V303.96C418.671 304.937 417.17 305.866 418.767 307.271ZM408.171 312.725C407.066 312.733 406.585 313.158 406.729 314C406.991 313.869 407.265 313.797 407.479 313.631C407.682 313.464 407.825 313.202 408.171 312.737V312.725Z" fill="#3D3D3D"/>
<path d="M599.818 321.324C599.163 309.355 598.71 297.362 597.78 285.416C597.268 278.89 595.802 272.435 595.027 265.92C593.942 256.845 593.168 247.746 592.119 238.671C588.507 207.312 583.215 176.311 572.154 146.549C568.566 136.89 564.252 127.577 558.972 118.716C554.681 111.499 548.912 105.865 541.355 102.078C536.325 99.5533 530.866 98.7554 525.407 97.8741C509.018 95.2301 494.501 99.6724 481.342 109.391C471.688 116.525 464.238 125.612 457.969 135.723C454.31 141.63 452.486 148.24 451.044 154.969C449.447 162.413 447.885 169.856 446.205 177.288C444.393 185.315 443.427 193.426 443.594 201.643C443.868 214.78 444.047 227.916 444.667 241.041C445.096 250.164 446.121 259.251 447.003 268.35C448.028 278.866 449.029 289.382 450.341 299.863C451.759 311.201 453.761 322.42 456.956 333.436C460.341 345.132 463.404 356.922 466.563 368.689C467.707 372.965 468.029 377.324 467.445 381.718C467.17 383.767 466.932 385.946 464.548 386.875C464.298 386.971 464.083 387.221 463.916 387.447C460.972 391.377 456.801 393.438 452.295 394.855C448.767 395.962 445.132 396.772 441.509 397.546C440.138 397.832 438.624 397.88 437.241 397.63C431.628 396.629 426.002 395.605 420.447 394.343C417.17 393.604 414.321 391.806 411.591 389.829C408.23 387.387 406.764 384.112 406.74 380.015C406.717 375.275 407.908 370.762 409.363 366.331C412.271 357.47 415.358 348.681 418.338 339.844C422.486 327.541 424.214 314.893 424.142 301.923C424.035 282.963 423.105 264.05 421.103 245.197C418.576 221.568 414.142 198.333 406.395 175.811C401.806 162.46 395.334 150.074 386.716 138.927C372.473 120.479 354.296 107.414 331.364 102.316C306.489 96.7784 284.581 103.305 266.214 121.062C254.914 131.995 247.191 145.191 241.72 159.852C234.437 179.408 229.956 199.595 227.214 220.235C225.772 231.096 224.628 241.97 224.449 252.939C224.151 270.625 226.189 288.096 229.288 305.461C231.148 315.858 233.126 326.255 236.523 336.283C238.168 341.13 240.314 345.823 242.387 350.515C243.413 352.825 243.484 353.564 241.422 355.088C237.763 357.792 233.71 359.65 229.133 360.078C222.697 360.686 216.606 359.364 210.945 356.279C204.425 352.73 200.527 347.228 199.324 339.892C197.798 330.65 197.19 321.348 197.881 311.999C199.586 289.108 202.47 266.349 206.368 243.744C209.526 225.368 212.792 207.003 216.463 188.721C221.052 165.831 227.572 143.441 235.88 121.61C238.728 114.131 242.34 107.009 246.595 100.196C258.109 81.7602 274.259 69.2907 294.855 62.4664C312.77 56.5235 331.03 51.9144 349.54 48.1748C367.014 44.6376 384.618 42.0413 402.366 40.362C413.034 39.3497 423.713 39.445 434.345 40.4335C447.051 41.6125 459.721 43.1727 472.379 44.7567C501.271 48.3653 528.053 57.9646 552.69 73.471C557.923 76.77 563.203 80.0571 568.078 83.8444C579.961 93.0983 587.852 105.044 591.511 119.74C593.835 129.078 595.468 138.534 596.97 148.038C599.008 161.007 601.523 173.906 603.442 186.899C605.408 200.167 606.934 213.506 608.603 226.821C609.914 237.301 611.13 247.794 612.393 258.286C614.503 275.793 618.52 292.943 622.024 310.189C624.014 319.978 625.564 329.852 627.149 339.713C627.483 341.833 627.328 344.108 626.97 346.239C626.076 351.67 622.989 355.434 617.661 357.113C613.49 358.423 609.223 358.518 604.944 357.697C604.026 357.518 603.156 357.065 602.262 356.732C600.057 355.91 599.163 354.505 599.199 351.98C599.354 341.797 599.258 331.614 599.258 321.42C599.437 321.42 599.604 321.42 599.783 321.408L599.818 321.324Z" fill="white"/>
<path d="M488.386 575.692C493.404 570.476 497.123 564.676 499.9 558.232C502.701 551.706 504.406 544.894 505.109 537.843C508.208 506.378 504.835 475.543 496.027 445.221C490.568 426.404 480.067 410.826 466.002 397.439C465.454 396.915 464.858 396.439 464.048 395.736C465.013 394.914 465.812 394.283 466.551 393.604C467.731 392.521 468.827 391.342 470.067 390.329C470.913 389.638 471.867 388.96 472.892 388.638C487.838 384.029 503.154 381.052 518.53 378.277C540.175 374.37 561.856 370.619 583.191 365.188C587.709 364.033 592.202 362.746 596.672 361.436C598.019 361.043 599.127 361.127 600.486 361.603C609.783 364.89 618.651 364.33 626.625 358.006C627.781 357.089 628.818 357.053 630.045 357.304C636.398 358.566 642.215 361.15 647.495 364.842C655.445 370.404 662.299 377.098 667.877 385.065C669.355 387.173 670.749 389.329 672.215 391.437C682.454 406.002 687.15 422.521 689.379 439.921C691.25 454.57 689.379 468.779 684.564 482.653C682.966 487.239 681.417 491.836 679.593 496.338C676.935 502.924 672.692 508.378 666.887 512.523C663.788 514.738 660.546 516.739 657.388 518.871C654.801 520.622 652.263 522.444 649.676 524.206C649.056 524.635 648.341 524.945 647.674 525.302C638.615 530.03 629.08 533.627 619.414 536.855C595.933 544.691 572.476 552.575 548.888 560.067C540.926 562.591 532.571 563.854 524.466 565.962C514.06 568.665 503.715 571.643 493.345 574.489C491.712 574.942 490.055 575.299 488.398 575.704L488.386 575.692ZM511.82 482.558C511.736 486.786 512.38 490.907 513.929 494.861C515.824 499.696 519.305 502.876 524.275 504.341C528.733 505.663 533.155 505.222 537.458 503.662C550.95 498.767 554.764 485.512 551.82 474.4C549.317 464.92 538.924 456.762 529.162 458.989C528.709 459.096 528.22 459.072 527.743 459.072C525.36 459.048 523.274 459.882 521.367 461.24C518.59 463.205 516.468 465.718 514.942 468.755C512.749 473.102 511.927 477.747 511.82 482.558ZM684.134 441.874C684.134 440.826 684.218 439.766 684.122 438.73C683.634 433.728 681.929 429.286 677.925 425.987C670.916 420.199 661.834 422.414 658.234 430.787C658.008 431.311 657.674 431.787 657.412 432.287C653.872 439.016 653.276 446.091 655.207 453.355C655.803 455.618 656.852 457.857 658.139 459.822C660.928 464.062 665.052 465.634 670.046 464.694C674.075 463.931 677.233 461.776 679.546 458.381C682.943 453.403 684.206 447.817 684.146 441.886L684.134 441.874Z" fill="#9EB2C7"/>
<path d="M411.675 397.058C418.517 400.631 425.465 401.751 432.402 403.001C439.482 404.275 446.24 403.108 452.927 400.929C454.369 400.452 455.859 400.012 457.194 399.309C458.744 398.511 459.792 398.892 460.972 400.036C466.968 405.8 472.343 412.076 477.254 418.77C484.405 428.524 488.565 439.635 492.01 451.069C495.419 462.407 497.314 474.043 498.935 485.75C501.176 501.947 501.283 518.204 500.031 534.473C499.352 543.381 497.35 551.968 493.154 559.924C489.233 567.367 483.821 573.31 475.967 576.812C471.867 578.634 467.516 579.051 463.154 579.372C455.692 579.932 448.314 578.943 440.948 577.991C409.303 573.929 378.599 565.593 347.943 557.149C332.889 553.004 317.848 548.812 302.925 544.227C280.231 537.247 258.335 528.137 236.654 518.525C229.956 515.56 223.162 512.785 216.523 509.676C209.693 506.473 203.317 502.459 197.405 497.755C194.949 495.802 192.661 493.634 190.432 491.419C186.105 487.119 183.602 481.915 182.613 475.877C181.612 469.755 181.075 463.622 180.944 457.417C180.67 444.066 181.457 430.775 182.422 417.483C183.078 408.563 183.59 399.631 184.425 390.722C185.569 378.36 188.346 366.307 191.874 354.421C192.661 351.789 193.591 349.193 195.462 346.823C204.02 362.937 217.858 367.141 234.974 364.628C234.974 365.652 235.01 366.676 234.974 367.689C234.485 378.908 233.961 390.127 233.484 401.358C233.293 405.728 233.031 410.111 233.079 414.482C233.305 433.252 232.578 451.986 231.124 470.696C230.552 478.128 230.707 485.535 232.34 492.86C233.508 498.148 236.297 502.269 240.826 505.234C249.217 510.748 258.145 515.203 267.477 518.871C286.369 526.291 305.642 532.567 325.142 538.2C339.493 542.357 353.879 546.43 368.277 550.42C371.567 551.337 374.976 551.873 378.373 552.373C383.439 553.123 388.373 552.599 393.296 550.956C398.778 549.121 401.794 545.298 402.914 539.927C403.594 536.688 403.808 533.317 403.904 529.994C404.261 517.823 404.643 505.639 404.714 493.455C404.798 478.973 405.68 464.551 407.11 450.14C408.028 440.957 408.397 431.715 409.172 422.521C409.875 414.196 410.805 405.883 411.675 397.034V397.058Z" fill="#9EB2C7"/>
<path d="M239.765 367.367C251.184 371.559 262.829 373.215 274.176 376.049C277.227 376.812 280.291 377.526 283.318 378.36C284.081 378.574 284.951 379.027 285.404 379.634C288.932 384.291 293.688 387.209 299.027 389.174C307.776 392.39 316.572 395.51 325.404 398.523C332.52 400.953 339.719 403.132 346.871 405.466C352.151 407.181 357.55 407.36 362.985 406.8C366.871 406.395 370.435 404.954 373.224 402.179C374.952 400.452 376.859 400.012 379.136 399.988C386.371 399.893 393.618 399.726 400.853 399.488C402.724 399.428 404.583 399.035 406.812 398.749C406.431 401.643 406.014 404.24 405.751 406.848C404.845 415.745 403.952 424.653 403.141 433.562C402.199 443.899 401.162 454.225 400.531 464.574C399.923 474.448 399.72 484.356 399.47 494.253C399.327 499.863 399.124 505.508 399.518 511.106C400.137 519.99 398.874 528.756 398.35 537.569C398.218 539.713 397.539 541.714 395.978 543.25C395.119 544.096 394.118 544.917 393.022 545.394C388.457 547.359 383.725 547.978 378.766 547.18C366.406 545.191 354.451 541.618 342.496 538.057C322.603 532.15 302.722 526.172 283.127 519.3C271.53 515.226 260.064 510.808 249.36 504.663C247.215 503.436 245.117 502.102 243.043 500.756C240.123 498.851 238.085 496.183 237.465 492.765C236.714 488.561 235.916 484.285 235.951 480.057C235.999 472.256 236.523 464.455 237.06 456.678C237.918 444.221 238.097 431.763 238.097 419.282C238.097 411.767 238.466 404.252 238.693 396.737C238.967 387.602 239.265 378.467 239.563 369.332C239.575 368.784 239.658 368.237 239.742 367.403L239.765 367.367ZM276.417 418.377C278.562 418.186 281.327 418.043 284.057 417.65C287.668 417.126 291.149 416.138 293.974 413.648C297.788 410.29 297.919 405.705 294.296 402.179C293.413 401.322 292.412 400.524 291.328 399.976C288.872 398.726 286.429 397.32 283.819 396.57C278.526 395.045 273.139 393.831 267.764 392.628C264.796 391.961 261.768 391.532 258.753 391.115C255.308 390.651 251.887 390.853 248.633 392.163C241.243 395.153 239.885 403.942 246.047 408.992C247.286 410.016 248.669 410.909 250.076 411.683C258.061 416.126 266.715 418.067 276.417 418.365V418.377Z" fill="#9EB2C7"/>
<path d="M351.042 199.631C355.476 202.191 358.992 205.371 362.568 208.754C361.019 211.255 357.669 212.326 357.026 215.375C357.204 215.566 357.383 215.768 357.55 215.959C358.766 215.161 360.005 214.399 361.185 213.565C362.342 212.743 363.45 211.838 364.725 210.85C367.848 213.089 369.827 216.388 372.628 218.877C372.628 216.697 370.852 215.578 369.863 214.018C368.849 212.422 367.646 210.957 366.406 209.254C367.574 207.813 368.659 206.479 369.91 204.942C367.324 204.085 366.799 206.955 364.845 206.896C361.293 203.859 357.622 200.715 353.676 197.344C354.272 196.713 354.88 196.046 355.488 195.391C356.906 193.878 357.228 192.89 356.406 192.259C355.047 191.211 354.129 192.366 353.188 193.104C352.294 193.807 351.436 194.545 350.41 195.391C345.011 192.747 339.481 190.472 333.044 189.507C333.783 188.912 334.177 188.459 334.677 188.209C341.495 184.755 348.801 183.136 356.346 182.469C362.258 181.945 368.146 182.123 374.01 183.017C378.289 183.66 382.378 185.053 386.12 187.126C390.602 189.615 394.928 192.402 399.207 195.248C403.415 198.047 406.073 202.322 409.041 206.264C409.47 206.836 409.613 207.67 409.732 208.408C411.448 218.627 413.165 228.857 414.822 239.088C415.334 242.268 415.644 245.471 416.097 249.139C415.334 248.615 414.929 248.413 414.631 248.103C406.359 239.826 392.116 239.385 382.986 250.033C375.381 258.905 374.523 272.459 380.828 282.296C383.772 286.905 387.753 290.097 393.307 291.026C393.653 291.085 393.987 291.252 394.63 291.479C392.998 292.979 391.472 293.491 389.41 293.408C384.368 293.194 379.314 293.098 374.273 293.325C368.647 293.575 364.118 295.837 362.056 301.733H356.823C356.287 300.578 355.738 299.387 355.178 298.196C347.478 281.903 331.078 279.569 320.219 283.13C318.539 283.678 317.621 283.356 316.584 282.082C313.568 278.378 310.72 274.591 308.92 270.112C308.396 268.802 308.515 267.981 309.421 266.813C311.638 263.979 313.688 260.99 315.571 257.929C316.215 256.881 316.405 255.404 316.405 254.13C316.405 252.855 315.118 252.296 314.176 253.153C313.223 254.022 312.424 255.154 311.793 256.297C309.742 260.025 307.156 263.229 303.592 265.658C299.277 268.6 294.724 269.35 289.754 267.6C281.327 264.634 276.19 258.596 273.973 250.164C271.554 240.969 273.163 232.406 279.134 224.856C283.985 218.698 291.149 216.626 298.574 219.198C302.186 220.449 305.654 221.985 308.705 224.379C309.444 224.963 310.291 225.451 311.161 225.796C312.186 226.201 313.294 226.201 313.914 225.07C314.474 224.058 313.938 223.2 313.163 222.581C311.459 221.211 309.707 219.889 307.966 218.567C307.454 218.174 306.894 217.829 306.214 217.364C309.421 209.814 313.843 203.263 319.862 197.809C320.851 196.915 321.912 196.105 322.973 195.296C325.778 193.184 328.912 192.318 332.377 192.699C336.549 193.152 343.569 195.558 347.323 197.892C346.787 198.523 346.275 199.142 345.75 199.75C345.19 200.393 344.546 200.977 344.081 201.691C343.581 202.453 343.378 203.454 344.284 203.954C344.809 204.24 345.762 204.109 346.346 203.811C347.085 203.43 347.621 202.692 348.253 202.12C349.087 201.358 349.946 200.607 350.971 199.69L351.042 199.631ZM287.477 243.578C287.597 247.615 288.836 251.212 291.625 254.213C296.965 259.93 304.152 259.394 308.622 253.737C310.291 251.617 311.113 249.663 310.72 247.091C310.577 246.15 310.505 245.209 310.446 244.256C310.195 240.564 309.802 236.884 309.778 233.192C309.754 230.429 309.337 229.572 306.584 229.345C303.235 229.06 299.921 229.393 296.739 230.501C291.149 232.454 287.454 237.73 287.477 243.578ZM369.6 265.146C369.6 261.895 364.916 255.225 361.817 254.058C359.35 253.129 357.097 254.773 357.455 257.548C358.003 261.776 359.934 265.313 363.712 267.6C364.344 267.981 365.107 268.255 365.834 268.386C367.932 268.731 369.6 267.254 369.6 265.146ZM405.215 236.479C405.143 233.419 400.912 226.928 398.123 225.594C396.24 224.701 394.368 225.749 394.237 227.809C394.201 228.452 394.309 229.131 394.487 229.762C395.381 233.109 397.122 236.027 399.243 238.73C400.304 240.076 401.937 240.505 403.296 239.945C404.571 239.433 405.262 238.182 405.227 236.467L405.215 236.479Z" fill="#C69C6D"/>
<path d="M349.135 336.259C346.918 335.688 344.916 335.128 342.89 334.675C335.488 333.032 328.026 332.234 320.506 333.794C315.762 334.782 311.411 336.712 307.907 340.106C306.715 341.261 305.833 342.798 305.106 344.298C304.856 344.822 305.297 345.954 305.785 346.466C306.036 346.728 307.12 346.299 307.764 346.025C308.169 345.847 308.479 345.406 308.801 345.06C312.806 340.713 317.895 338.26 323.664 337.95C339.683 337.081 354.451 340.773 366.227 352.254C376.776 362.544 379.66 375.109 375.357 389.234C374.583 391.794 374.154 392.39 372.64 394.033C373.391 387.328 372.664 381.135 368.647 375.716C367.836 374.632 367.133 373.275 365.012 373.144C365.381 374.311 365.608 375.287 365.977 376.192C367.562 380.099 368.707 384.089 368.766 388.352C368.814 391.925 368.158 395.343 367.086 398.726C366.633 400.155 365.798 400.929 364.332 401.262C360.566 402.132 356.787 402.013 352.699 401.62C353.033 400.75 353.271 400.071 353.533 399.393C355.607 394.176 355.953 388.9 354.404 383.457C353.307 379.622 350.649 376.895 348.098 374.084C347.788 373.739 347.133 373.715 346.084 373.346C346.382 374.478 346.489 375.156 346.751 375.776C347.967 378.658 349.409 381.457 350.411 384.41C351.889 388.817 351.436 393.259 349.731 397.535C348.623 400.31 348.218 400.465 345.464 399.512C331.888 394.819 317.919 391.27 304.593 385.792C302.388 384.887 300.171 384.017 298.002 383.052C293.795 381.171 290.553 378.193 288.097 374.299C281.888 364.45 280.445 353.755 282.472 342.476C283.687 335.676 286.178 329.34 289.456 323.242C293.759 315.227 299.015 307.902 304.76 300.899C308.05 296.898 311.936 293.551 316.262 290.693C323.7 285.798 331.519 285.869 339.457 289.121C344.153 291.038 347.347 294.73 349.696 299.101C355.298 309.534 355.786 320.336 351.65 331.364C351.03 333.02 350.029 334.544 349.147 336.212L349.135 336.259Z" fill="#C69C6D"/>
<path d="M452.688 270.994C453.368 271.101 453.654 271.101 453.904 271.196C466.229 276.163 479.232 277.973 492.308 279.521C503.953 280.891 515.562 282.403 526.718 286.274C534.18 288.858 540.95 292.634 546.993 297.743C552.499 302.4 555.646 308.283 556.468 315.405C556.778 318.037 556.623 320.622 555.074 323.397C554.752 322.313 554.537 321.61 554.347 320.896C553.155 316.537 551.427 312.428 548.316 309.045C547.553 308.224 546.659 307.366 545.658 306.985C544.943 306.711 543.763 306.937 543.083 307.39C542.189 307.997 542.38 309.105 542.94 309.974C543.405 310.689 544.001 311.308 544.561 311.963C548.423 316.513 550.223 321.801 550.247 327.732C550.247 328.875 549.961 329.709 548.947 330.364C545.288 332.734 541.426 334.473 537.004 334.711C536.528 334.735 536.051 334.735 535.574 334.687C535.419 334.675 535.264 334.508 535.074 334.389C535.503 332.77 536.063 331.162 536.361 329.494C537.839 321.039 533.274 314.607 527.97 310.749C527.6 310.475 527.112 310.213 526.682 310.213C526.158 310.213 525.395 310.308 525.157 310.653C524.847 311.118 524.68 312.011 524.93 312.452C525.431 313.333 526.23 314.071 526.969 314.81C530.401 318.264 532.511 322.218 532.225 327.291C532.094 329.661 530.818 331.376 529.674 333.21C529.031 334.246 527.946 333.972 527.076 333.699C523.989 332.734 520.926 331.71 517.886 330.614C516.635 330.161 515.455 329.518 514.275 328.899C502.308 322.587 489.34 319.693 476.098 317.704C471.115 316.953 466.193 315.822 461.223 315.012C458.779 314.619 457.671 313.44 457.373 310.951C456.252 301.411 454.929 291.884 453.761 282.344C453.308 278.676 453.07 274.984 452.7 271.006L452.688 270.994Z" fill="#C69C6D"/>
<path d="M448.815 620.949C448.422 633.18 443.177 642.518 433.38 649.306C429.196 652.212 424.548 653.046 419.506 652.01C411.925 650.449 405.382 646.984 399.827 641.66C396.061 638.039 393.915 633.502 393.117 628.405C390.697 613.148 396.43 601.274 408.469 592.092C409.065 591.639 409.732 591.151 410.435 590.96C416.216 589.329 422.045 588.447 427.706 591.21C430.865 592.747 434.035 594.378 436.836 596.475C445.037 602.608 448.6 611.123 448.827 620.949H448.815ZM408.504 622.2C408.731 626.654 410.197 630.62 412.926 633.466C418.814 639.612 428.493 637.623 431.496 629.667C434.119 622.7 430.674 614.232 423.94 611.1C418.409 608.527 412.259 610.838 410.006 616.471C409.279 618.293 408.993 620.294 408.504 622.211V622.2Z" fill="#9EC376"/>
<path d="M411.198 314.726C413.034 317.775 414.869 320.538 416.371 323.48C416.872 324.445 416.812 325.921 416.514 327.029C415.215 331.888 413.82 336.735 412.307 341.535C410.817 346.251 408.957 350.849 407.575 355.589C405.37 363.151 403.415 370.797 401.353 378.396C401.234 378.848 401.115 379.301 401.019 379.682C394.976 378.026 389.04 376.407 382.89 374.739C381.15 356.22 369.743 345.108 353.235 337.915C359.815 328.208 360.435 317.644 358.396 306.33C359.302 306.282 360.172 306.235 361.245 306.175C361.46 307.759 361.507 309.176 361.853 310.522C364.034 319.181 367.598 327.232 372.723 334.544C373.641 335.842 374.869 336.986 376.12 337.986C381.496 342.297 387.336 342.845 393.451 339.725C398.802 336.997 402.342 332.639 404.225 326.993C404.917 324.933 405.405 322.765 405.691 320.622C405.942 318.776 406.514 317.37 408.278 316.549C409.124 316.155 409.887 315.56 411.198 314.738V314.726Z" fill="#C69C6D"/>
<path d="M191.624 548.752C191.624 538.724 194.008 532.007 199.336 526.422C202.113 523.504 205.426 521.92 209.527 522.253C212.459 522.503 215.427 522.61 218.323 523.099C224.998 524.242 230.445 527.601 234.461 533.02C239.324 539.582 242.161 546.787 240.445 555.16C237.799 568.01 223.639 577.943 210.969 574.263C208.633 573.584 206.213 572.584 204.342 571.083C196.463 564.783 191.672 556.756 191.624 548.74V548.752ZM214.151 537.021C208.835 536.985 205.283 539.725 204.425 544.25C203.484 549.288 204.532 553.873 207.715 557.947C212.554 564.14 219.694 562.365 223.305 557.685C228.49 550.979 223.77 539.189 215.927 537.236C215.2 537.057 214.425 537.045 214.151 537.009V537.021Z" fill="#9EC376"/>
<path d="M598.364 554.922C597.661 562.115 597.005 568.713 596.35 575.43C591.678 578.705 590.378 582.469 592.083 588.138C593.597 593.176 597.756 596.427 603.048 596.558C608.209 596.689 612.56 594.879 615.826 590.806C617.28 588.984 618.46 586.864 618.317 584.553C618.078 580.766 619.175 577.217 619.592 573.548C619.938 570.523 620.188 567.486 620.486 564.461C620.558 563.735 620.677 563.02 620.796 562.175C621.225 562.365 621.523 562.413 621.714 562.58C633.168 573.096 633.526 588.781 624.562 598.916C621.38 602.513 617.685 605.514 613.358 607.646C605.814 611.374 598.46 611.183 591.523 606.145C584.562 601.084 580.497 594.426 580.629 585.589C580.76 576.526 583.525 568.368 589.437 561.436C591.082 559.507 593.203 557.983 595.218 556.387C595.992 555.767 597.041 555.505 598.364 554.898V554.922Z" fill="#728954"/>
<path d="M397.694 286.798C390.662 286.846 386.025 283.475 383.176 277.389C378.051 266.42 382.759 252.689 393.26 247.913C398.731 245.424 404.047 246.091 409.065 249.092C410.567 249.997 412.033 251.307 412.95 252.784C415.751 257.274 417.158 262.3 417.611 267.564C417.682 268.421 417.289 269.434 416.824 270.196C413.117 276.294 408.04 281.189 402.45 285.512C401.246 286.441 399.291 286.405 397.682 286.81L397.694 286.798ZM405.036 264.05C404.81 262.943 404.69 261.99 404.428 261.097C404.13 260.108 403.689 259.156 403.367 258.322C404.035 256.905 404.845 255.678 405.191 254.332C406.037 251.045 403.463 248.187 400.209 249.02C395.858 250.116 392.152 252.438 389.875 256.5C388.945 258.167 388.671 259.977 389.982 261.597C391.246 263.145 393.01 263.526 394.893 263.074C395.989 262.812 397.038 262.335 398.099 261.93C398.695 261.704 399.267 261.43 400.006 261.121C400.245 261.68 400.507 262.085 400.59 262.526C401.425 266.611 398.528 271.041 394.321 272.054C392.807 272.423 391.258 272.625 389.529 272.947C390.34 274.722 391.627 274.96 392.962 275.019C396.907 275.198 400.006 273.376 402.366 270.47C403.51 269.076 404.583 268.54 406.335 268.35C410.126 267.945 412.855 265.873 414.202 262.216C414.536 261.299 414.691 260.239 413.713 259.644C412.688 259.025 411.937 259.691 411.317 260.513C410.912 261.037 410.519 261.585 410.054 262.05C408.755 263.36 407.313 264.396 405.048 264.074L405.036 264.05Z" fill="#8C6239"/>
<path d="M240.921 332.71C254.164 331.626 267.132 330.554 280.481 329.459C277.632 337.736 275.785 346.085 276.428 354.91C275.618 354.874 275.129 354.934 274.688 354.814C267.179 352.695 259.456 352.48 251.744 352.29C249.67 352.242 248.466 351.599 247.501 349.753C244.724 344.417 242.733 338.808 240.921 332.71Z" fill="#66737F"/>
<path d="M532.01 339.737C533.488 346.74 534.99 353.778 536.528 361.043C526.194 364.926 515.634 368.201 504.346 370.976C504.704 367.82 504.894 365.092 505.347 362.413C506.206 357.327 507.767 352.432 509.853 347.728C511.569 343.857 513.977 340.475 517.278 337.736C518.399 336.807 519.388 336.533 520.89 336.974C524.442 338.022 528.077 338.772 532.01 339.725V339.737Z" fill="#66737F"/>
<path d="M387.717 182.04C385.572 181.171 383.736 180.432 381.794 179.634C382.282 174.954 381.794 170.595 378.313 167.141C375.608 164.461 372.246 163.258 368.516 163.08C360.53 162.699 356.287 167.177 355.131 177.288C351.4 177.967 347.598 178.658 343.641 179.384C341.865 177.538 341.412 175.097 341.173 172.667C340.101 161.746 346.68 153.707 357.681 152.79C366.907 152.028 375.286 154.505 382.294 160.686C387.98 165.688 389.791 172.167 388.54 179.551C388.421 180.277 388.087 180.98 387.729 182.052L387.717 182.04Z" fill="#C69C6D"/>
<path d="M464.465 320.586C477.838 322.468 490.472 324.028 502.809 328.458C491.235 343.191 485.74 359.352 490.639 378.122C489.793 378.455 489.137 378.717 488.434 378.991C485.729 357.482 478.696 337.915 464.453 320.586H464.465Z" fill="#66737F"/>
<path d="M367.372 308.033C377.324 311.761 387.062 310.522 396.764 307.116C393.474 311.975 387.765 313.416 383.272 316.739C384.678 318.454 386.299 318.526 387.682 318.073C390.089 317.275 392.497 316.298 394.69 315.036C396.705 313.881 398.433 312.237 400.59 310.582C400.423 316.834 399.982 322.67 397.432 328.101C396.8 329.447 395.823 330.709 394.774 331.781C388.635 338.069 381.4 337.545 376.442 330.28C372.389 324.349 369.66 317.751 367.526 310.903C367.36 310.367 367.3 309.784 367.229 309.224C367.205 308.962 367.288 308.688 367.36 308.045L367.372 308.033Z" fill="#FF7756"/>
<path d="M483.19 380.682C479.829 381.671 476.479 382.659 473.082 383.648C472.892 383.207 472.665 382.957 472.701 382.743C473.75 374.918 471.986 367.427 469.924 359.983C466.718 348.443 463.535 336.902 460.341 325.362C460.198 324.826 460.114 324.278 460.424 323.42C461.032 324.135 461.652 324.85 462.236 325.588C471.247 336.974 476.861 350.003 480.591 363.902C481.748 368.201 482.379 372.631 483.166 377.026C483.357 378.122 483.19 379.277 483.19 380.694V380.682Z" fill="#C69C6D"/>
<path d="M615.659 543.607C616.267 548.967 616.362 553.85 615.301 558.721C614.896 560.567 614.729 562.46 614.515 564.342C614.074 568.106 613.692 571.881 613.251 575.656C613.168 576.407 612.942 577.145 612.715 577.871C611.595 581.433 610.355 582.23 606.624 581.849C603.12 581.492 602.5 580.849 602.167 577.276C601.618 571.452 602.596 565.724 603.084 559.959C603.418 555.91 603.68 551.861 603.99 547.68C607.804 546.358 611.547 545.06 615.671 543.631L615.659 543.607Z" fill="#4F4F4F"/>
<path d="M500.663 376.407C498.864 376.764 497.112 377.121 495.097 377.514C494.835 376.633 494.549 375.871 494.37 375.073C491.402 361.925 494.263 349.824 501.152 338.51C502.582 336.176 504.335 334.02 505.979 331.829C506.861 330.662 507.922 330.554 509.209 331.352C510.795 332.341 512.475 333.186 513.977 334.02C513.941 334.449 513.977 334.58 513.918 334.628C505.705 342.262 502.88 352.385 501.236 362.913C500.616 366.915 500.878 371.047 500.747 375.121C500.735 375.49 500.699 375.847 500.663 376.395V376.407Z" fill="#9EC376"/>
<path d="M240.361 362.222C242.745 360.424 244.855 358.84 247.274 357.018C253.294 357.423 259.742 357.744 266.166 358.352C269.265 358.649 272.317 359.483 275.392 360.09C276.369 360.281 277.12 360.686 277.43 361.794C278.36 365.164 279.373 368.511 280.398 372.024C279.981 372.024 279.516 372.107 279.087 372.012C268.8 369.749 258.502 367.51 248.228 365.164C245.57 364.557 242.888 363.925 240.373 362.222H240.361Z" fill="#9EB2C7"/>
<path d="M549.281 335.318C553.537 336.485 557.291 337.474 561.022 338.558C561.582 338.724 562.154 339.284 562.452 339.82C564.514 343.488 565.706 347.466 566.743 351.658C563.286 353.647 560.021 355.577 556.683 357.399C556.111 357.709 555.181 357.768 554.562 357.542C552.69 356.875 550.89 356.006 548.96 355.172C548.483 348.705 548.483 342.285 549.269 335.33L549.281 335.318Z" fill="#66737F"/>
<path d="M381.031 141.464C393.546 156.803 401.198 174.382 405.453 193.735C404.035 192.616 402.64 191.449 401.186 190.377C399.648 189.245 398.075 188.186 396.49 187.126C394.905 186.077 393.296 185.065 391.627 184.005C392.163 182.35 392.89 180.778 393.141 179.146C394.368 171.107 392.104 164.056 386.597 158.137C385.107 156.541 384.154 154.934 383.784 152.742C383.26 149.658 382.306 146.644 381.543 143.607C381.364 142.893 381.198 142.19 381.031 141.476V141.464Z" fill="#C6C2AF"/>
<path d="M406.299 393.819C397.229 395.629 388.182 394.903 378.921 395.605C379.887 392.747 380.912 390.234 381.579 387.626C382.259 384.994 382.58 382.266 383.105 379.337C388.611 381.135 394.011 382.886 399.398 384.66C400.805 385.125 401.675 386.03 402.342 387.471C403.332 389.579 404.786 391.461 406.299 393.819Z" fill="#9EB2C7"/>
<path d="M558.423 328.291C559.413 326.231 560.318 324.373 561.212 322.503C569.878 327.922 578.042 347.716 576.981 361.186C575.766 361.496 574.49 361.817 573 362.198C571.177 349.527 568.853 337.212 558.423 328.291Z" fill="#9EC376"/>
<path d="M594.312 345.882C594.479 349.396 594.645 352.778 594.824 356.446C590.486 357.661 586.159 358.864 581.88 360.055C581.046 354.207 580.247 348.645 579.401 342.726C584.323 343.762 589.27 344.81 594.312 345.87V345.882Z" fill="#66737F"/>
<path d="M366.74 303.472C367.669 300.613 369.422 299.089 372.175 298.863C376.537 298.493 380.9 297.946 385.262 297.946C389.41 297.946 393.176 299.506 396.824 302.197C386.8 306.449 377.038 307.747 366.74 303.472Z" fill="#803C2B"/>
<path d="M359.767 176.728C359.862 173.596 360.351 170.583 363.343 168.916C366.787 167.01 370.351 167.486 373.605 169.523C376.68 171.452 377.407 174.477 377.05 177.979C371.245 177.55 365.643 177.145 359.767 176.716V176.728Z" fill="#8C6239"/>
<path d="M413.796 302.543C413.82 305.746 412.426 307.7 410.173 308.081C407.801 308.486 405.966 307.33 405.024 304.627C404.178 302.221 403.379 299.78 402.819 297.29C402.652 296.552 403.093 295.373 403.677 294.825C405.787 292.836 409.065 293.122 411.067 295.373C412.986 297.529 413.498 300.244 413.796 302.531V302.543Z" fill="#FF7756"/>
<path d="M536.468 339.856C539.21 339.356 541.605 338.915 544.323 338.427V354.624C542.952 355.124 541.462 355.66 539.758 356.279C538.649 350.777 537.565 345.358 536.468 339.856Z" fill="#9EC376"/>
<path d="M557.863 365.486C553.048 366.486 548.232 367.51 543.405 368.463C541.903 368.761 540.962 367.987 540.568 366.391C539.627 362.568 542.976 359.078 546.802 359.888C550.878 360.757 554.323 362.961 557.911 364.878C557.899 365.081 557.875 365.283 557.863 365.486Z" fill="#9EC376"/>
<path d="M430.853 581.885C430.698 582.707 430.626 583.35 430.436 583.97C430.221 584.672 429.923 585.351 429.542 586.363C425.239 584.279 420.71 584.327 416.001 584.541C416.109 582.719 416.204 581.254 416.311 579.48C421.282 580.301 425.99 581.087 430.853 581.897V581.885Z" fill="#6D6D6D"/>
<path d="M510.449 374.001C518.828 371.476 527.219 368.951 535.753 366.391C536.087 367.367 536.409 368.332 536.838 369.571C527.958 371.25 519.269 372.905 510.568 374.549C510.532 374.37 510.484 374.18 510.449 374.001Z" fill="#9EC376"/>
<path d="M610.272 587.566C607.781 590.591 603.239 591.556 600.105 589.912C597.733 588.662 596.553 585.673 597.327 582.409C600.414 587.185 605.254 587.483 610.272 587.566Z" fill="#AFAFAF"/>
<path d="M414.333 291.062C413.82 290.085 413.069 289.347 413.153 288.716C413.701 284.75 413.844 280.545 418.302 277.866C418.457 280.498 418.624 282.892 418.707 285.286C418.719 285.702 418.493 286.191 418.219 286.524C417.086 287.906 415.906 289.24 414.321 291.074L414.333 291.062Z" fill="#803C2B"/>
<path d="M568.495 363.02C565.73 363.89 564.752 363.556 560.426 360.293C562.786 358.971 565.05 357.708 567.53 356.327C568.364 358.697 568.721 360.829 568.495 363.02Z" fill="#9EC376"/>
<path d="M417.277 320.098C416.18 317.704 415.084 315.322 413.939 312.809C414.535 312.344 415.119 311.904 415.644 311.499C419.72 313.655 418.302 316.906 417.277 320.098Z" fill="#C69C6D"/>
<path d="M212.53 513.797C215.51 515.203 218.299 516.525 221.088 517.835C221.04 518.002 220.981 518.156 220.933 518.323C218.466 517.811 215.999 517.323 213.543 516.775C211.934 516.418 211.66 515.453 212.53 513.797Z" fill="#6D6D6D"/>
<path d="M418.969 293.325C418.814 294.373 418.719 295.087 418.576 296.064C417.781 295.198 417.913 294.285 418.969 293.325Z" fill="#FF7756"/>
<path d="M418.767 307.271C417.17 305.877 418.671 304.948 418.767 303.96V307.271Z" fill="#FF7756"/>
<path d="M408.171 312.726C407.813 313.19 407.682 313.452 407.479 313.619C407.277 313.786 406.991 313.869 406.728 313.988C406.585 313.146 407.066 312.722 408.171 312.714V312.726Z" fill="#C69C6D"/>
<path d="M511.82 482.558C511.927 477.747 512.749 473.102 514.942 468.755C516.468 465.718 518.602 463.205 521.367 461.24C523.274 459.882 525.36 459.036 527.744 459.072C528.22 459.072 528.709 459.096 529.162 458.989C538.924 456.75 549.317 464.908 551.82 474.4C554.752 485.512 550.95 498.767 537.458 503.662C533.155 505.222 528.733 505.663 524.275 504.341C519.305 502.864 515.824 499.684 513.929 494.861C512.38 490.919 511.736 486.798 511.82 482.558ZM516.623 482.999C516.528 485.976 517.124 489.335 518.363 492.562C520.246 497.433 524.525 500.173 529.758 499.875C539.734 499.303 546.814 492.241 547.231 482.26C547.541 475.007 544.597 469.398 538.399 465.48C535.658 463.741 532.619 463.943 529.603 463.586C526.969 463.276 524.823 464.015 523.143 465.789C521.534 467.492 520.02 469.386 518.923 471.446C517.112 474.853 516.611 478.652 516.623 482.987V482.999Z" fill="#3D3D3D"/>
<path d="M684.134 441.874C684.194 447.806 682.931 453.391 679.534 458.369C677.221 461.764 674.051 463.908 670.034 464.682C665.052 465.623 660.928 464.062 658.127 459.811C656.84 457.857 655.803 455.606 655.195 453.344C653.264 446.091 653.86 439.004 657.4 432.275C657.662 431.775 657.996 431.299 658.222 430.775C661.822 422.414 670.904 420.187 677.913 425.975C681.917 429.274 683.622 433.716 684.111 438.718C684.218 439.755 684.122 440.815 684.122 441.863L684.134 441.874ZM678.354 441.017C678.246 440.171 678.163 438.552 677.841 436.98C677.341 434.502 676.184 432.382 674.265 430.656C670.928 427.666 666.423 428.059 663.753 431.453C659.796 436.456 658.651 442.148 659.271 448.318C659.557 451.188 660.38 453.903 661.977 456.333C663.86 459.215 666.649 460.096 669.903 458.953C672.084 458.191 673.55 456.619 674.802 454.785C677.472 450.866 678.211 446.412 678.354 441.029V441.017Z" fill="#3D3D3D"/>
<path d="M276.417 418.377C266.715 418.091 258.073 416.15 250.075 411.695C248.669 410.909 247.298 410.016 246.047 409.004C239.885 403.954 241.243 395.165 248.633 392.175C251.887 390.853 255.308 390.651 258.753 391.127C261.768 391.532 264.796 391.973 267.763 392.64C273.139 393.843 278.526 395.057 283.819 396.582C286.441 397.344 288.884 398.738 291.328 399.988C292.412 400.536 293.413 401.334 294.295 402.191C297.919 405.717 297.788 410.302 293.974 413.66C291.149 416.15 287.668 417.138 284.057 417.662C281.327 418.055 278.562 418.186 276.417 418.389V418.377ZM276.202 413.065C277.251 413.065 278.312 413.148 279.349 413.053C282.758 412.708 286.226 412.553 289.266 410.707C292.198 408.932 292.412 406.884 289.575 405.002C287.382 403.549 284.951 402.299 282.448 401.489C273.997 398.761 265.308 397.034 256.464 396.308C254.366 396.129 252.054 396.594 250.075 397.368C246.988 398.571 246.416 402.001 248.705 404.395C249.611 405.347 250.755 406.11 251.887 406.789C259.384 411.231 267.62 412.862 276.202 413.077V413.065Z" fill="#3D3D3D"/>
<path d="M287.478 243.578C287.454 237.73 291.149 232.442 296.739 230.501C299.921 229.393 303.235 229.06 306.584 229.346C309.337 229.584 309.755 230.429 309.778 233.192C309.802 236.884 310.196 240.576 310.446 244.257C310.505 245.197 310.577 246.15 310.72 247.091C311.125 249.664 310.303 251.617 308.622 253.737C304.153 259.394 296.965 259.93 291.626 254.213C288.836 251.224 287.585 247.615 287.478 243.578ZM306.334 233.55C303.962 233.836 301.971 233.931 300.04 234.336C293.056 235.813 289.969 242.577 293.342 248.878C295.952 253.761 302.15 256.071 306.036 249.89C306.131 249.735 306.238 249.568 306.381 249.437C307.061 248.77 307.132 248.056 306.906 247.115C306.048 243.578 305.833 239.981 306.322 236.348C306.417 235.622 306.334 234.872 306.334 233.562V233.55Z" fill="#3D3D3D"/>
<path d="M369.6 265.146C369.6 267.254 367.932 268.731 365.834 268.386C365.095 268.267 364.344 267.981 363.712 267.6C359.934 265.313 358.003 261.776 357.455 257.548C357.097 254.773 359.35 253.141 361.817 254.058C364.916 255.225 369.612 261.895 369.6 265.146Z" fill="#3D3D3D"/>
<path d="M405.215 236.479C405.25 238.194 404.559 239.445 403.284 239.957C401.925 240.505 400.292 240.088 399.231 238.742C397.11 236.051 395.369 233.133 394.475 229.774C394.309 229.143 394.189 228.464 394.225 227.821C394.356 225.749 396.228 224.713 398.111 225.606C400.9 226.928 405.131 233.431 405.203 236.491L405.215 236.479Z" fill="#3D3D3D"/>
<path d="M408.504 622.2C408.993 620.282 409.279 618.281 410.006 616.459C412.259 610.826 418.409 608.527 423.94 611.088C430.674 614.22 434.119 622.688 431.496 629.655C428.505 637.611 418.814 639.6 412.926 633.454C410.209 630.608 408.731 626.654 408.504 622.188V622.2ZM413.653 621.89C413.713 624.677 414.297 627.142 415.99 629.215C417.599 631.192 419.613 632.252 422.235 631.62C424.857 630.989 426.169 629.096 426.729 626.63C427.611 622.712 425.501 618.162 421.985 616.185C418.445 614.196 414.404 616.102 413.773 620.08C413.665 620.735 413.677 621.402 413.642 621.902L413.653 621.89Z" fill="#3D3D3D"/>
<path d="M214.151 537.021C214.425 537.057 215.2 537.057 215.927 537.248C223.77 539.201 228.49 550.991 223.305 557.697C219.693 562.365 212.554 564.152 207.715 557.959C204.532 553.885 203.483 549.288 204.425 544.262C205.271 539.725 208.835 536.986 214.151 537.033V537.021ZM208.93 548.133C209.097 550.991 210.301 553.516 212.458 555.541C213.913 556.899 215.45 556.982 217.131 555.91C218.573 554.993 219.538 553.683 219.598 551.956C219.681 549.217 218.931 546.692 217.024 544.632C215.474 542.952 213.162 542.238 211.624 543.036C209.657 544.06 208.907 545.846 208.918 548.121L208.93 548.133Z" fill="#3D3D3D"/>
<path d="M405.036 264.05C407.301 264.36 408.743 263.336 410.042 262.026C410.507 261.561 410.912 261.014 411.305 260.489C411.925 259.68 412.676 259.001 413.701 259.62C414.679 260.216 414.524 261.287 414.19 262.193C412.843 265.849 410.114 267.933 406.323 268.326C404.571 268.517 403.498 269.041 402.354 270.446C399.994 273.34 396.895 275.174 392.95 274.996C391.615 274.936 390.328 274.698 389.517 272.923C391.246 272.602 392.795 272.399 394.309 272.03C398.516 271.018 401.424 266.587 400.578 262.502C400.495 262.062 400.233 261.669 399.994 261.097C399.267 261.407 398.683 261.68 398.087 261.907C397.026 262.312 395.977 262.788 394.881 263.05C392.998 263.503 391.234 263.122 389.97 261.573C388.659 259.965 388.921 258.143 389.863 256.476C392.151 252.415 395.846 250.104 400.197 248.997C403.463 248.175 406.037 251.033 405.179 254.308C404.833 255.654 404.011 256.881 403.355 258.298C403.677 259.132 404.118 260.085 404.416 261.073C404.69 261.978 404.81 262.919 405.024 264.027L405.036 264.05Z" fill="#3D3D3D"/>
<path d="M516.623 482.999C516.611 478.664 517.1 474.864 518.923 471.458C520.02 469.398 521.534 467.504 523.143 465.801C524.823 464.027 526.969 463.288 529.603 463.598C532.618 463.955 535.646 463.753 538.399 465.492C544.597 469.41 547.541 475.019 547.231 482.272C546.814 492.253 539.734 499.303 529.758 499.887C524.525 500.185 520.234 497.457 518.363 492.574C517.124 489.347 516.528 485.988 516.623 483.011V482.999Z" fill="#FFFAA1"/>
<path d="M678.354 441.017C678.199 446.4 677.46 450.854 674.802 454.773C673.562 456.607 672.084 458.179 669.903 458.941C666.649 460.084 663.86 459.203 661.977 456.321C660.38 453.891 659.557 451.176 659.271 448.306C658.651 442.137 659.796 436.444 663.753 431.442C666.434 428.047 670.928 427.654 674.265 430.644C676.184 432.371 677.341 434.502 677.841 436.968C678.163 438.54 678.246 440.16 678.354 441.005V441.017Z" fill="#FFFAA1"/>
<path d="M276.202 413.065C267.608 412.862 259.372 411.219 251.887 406.777C250.755 406.098 249.61 405.336 248.705 404.383C246.416 401.989 246.988 398.559 250.075 397.356C252.054 396.582 254.366 396.117 256.464 396.296C265.308 397.023 273.997 398.749 282.448 401.477C284.951 402.287 287.382 403.537 289.575 404.99C292.412 406.872 292.198 408.92 289.265 410.695C286.226 412.541 282.758 412.696 279.349 413.041C278.312 413.148 277.251 413.053 276.202 413.053V413.065Z" fill="white"/>
<path d="M306.334 233.55C306.334 234.86 306.417 235.61 306.322 236.336C305.833 239.969 306.047 243.554 306.906 247.103C307.132 248.044 307.061 248.758 306.381 249.425C306.25 249.556 306.143 249.723 306.036 249.878C302.15 256.059 295.952 253.748 293.342 248.865C289.969 242.565 293.056 235.801 300.04 234.324C301.959 233.919 303.95 233.823 306.334 233.538V233.55Z" fill="#8C6239"/>
<path d="M413.653 621.89C413.689 621.39 413.677 620.723 413.784 620.068C414.416 616.09 418.469 614.184 421.997 616.173C425.513 618.15 427.623 622.7 426.741 626.618C426.18 629.083 424.869 630.977 422.247 631.608C419.625 632.239 417.61 631.191 416.001 629.202C414.309 627.13 413.725 624.665 413.665 621.878L413.653 621.89Z" fill="white"/>
<path d="M208.93 548.133C208.93 545.858 209.669 544.072 211.636 543.048C213.174 542.25 215.474 542.964 217.035 544.643C218.942 546.704 219.693 549.217 219.61 551.968C219.55 553.695 218.597 554.993 217.143 555.922C215.45 556.994 213.913 556.922 212.47 555.553C210.313 553.528 209.109 551.003 208.942 548.145L208.93 548.133Z" fill="white"/>
</g>
</g>
<defs>
<clipPath id="clip0_2095_1654">
<rect width="859" height="686" fill="white"/>
</clipPath>
</defs>
</svg>
