<svg width="748" height="736" viewBox="0 0 748 736" fill="none" xmlns="http://www.w3.org/2000/svg">
<g clip-path="url(#clip0_2097_2227)">
<mask id="mask0_2097_2227" style="mask-type:luminance" maskUnits="userSpaceOnUse" x="-14" y="-17" width="811" height="833">
<path d="M796.892 -16.6367H-13.0056V815.146H796.892V-16.6367Z" fill="white"/>
</mask>
<g mask="url(#mask0_2097_2227)">
<path d="M253.277 582.283C248.793 575.652 244.027 569.467 237.946 564.356C234.331 561.315 230.447 558.734 226.141 556.766C223.573 555.591 221.644 555.782 219.268 557.75C200.105 573.505 180.865 589.183 161.458 604.657C152.771 611.583 144.032 618.547 133.991 623.517C130.529 625.242 126.977 626.827 123.361 628.194C117.702 630.328 111.863 630.647 105.872 629.651C98.6151 628.437 91.4352 626.942 84.4086 624.706C75.6573 621.907 67.7619 617.563 60.2754 612.298C52.4823 606.804 45.4046 600.517 38.6974 593.758C31.4025 586.423 27.672 577.709 27.8253 567.333C27.902 562.337 29.1285 557.635 31.3003 553.176C36.3084 542.864 45.2768 538.123 56.6216 539.606C63.8015 540.551 70.5343 542.672 76.8454 546.263C81.0997 548.691 85.5201 550.786 90.362 551.885C94.5013 552.831 97.823 551.693 100.531 548.576C101.732 547.196 102.895 545.739 103.879 544.193C110.662 533.498 117.421 522.803 124.115 512.057C128.548 504.952 132.867 497.784 137.287 490.679C138.015 489.504 138.59 488.507 138.015 487.025C135.358 480.227 133.914 473.136 133.007 465.929C132.918 465.239 132.7 464.562 132.496 463.654C131.103 464.153 129.877 464.6 128.638 465.047C119.094 468.523 109.372 471.181 99.1516 471.551C88.8673 471.922 79.03 470.094 69.7805 465.443C59.215 460.128 52.6739 451.873 50.8981 439.977C49.6844 431.889 49.6206 423.916 52.2523 416.057C55.178 407.317 60.5182 400.315 68.1452 395.255C77.2415 389.224 86.4655 383.346 95.83 377.749C108.81 370.006 121.496 361.828 133.952 352.756C133.071 351.606 132.292 350.597 131.333 349.357C130.631 350.201 130.094 350.878 129.519 351.529C127.079 354.277 124.818 357.203 122.148 359.707C115.147 366.249 106.395 363.822 102.371 356.372C97.7208 347.773 95.7406 338.598 96.0855 328.938C96.4943 317.464 99.2666 306.539 104.415 296.24C106.715 291.653 109.462 287.347 113.218 283.794C114.546 282.542 115.977 281.341 117.549 280.408C122.416 277.533 127.807 278.402 131.231 282.913C133.25 285.571 134.732 288.65 136.303 291.614C137.581 294.029 138.641 296.572 139.983 299.473C141.643 298.093 143.061 296.904 144.697 295.537C143.713 294.63 142.921 293.863 142.103 293.148C136.776 288.599 132.062 283.526 129.225 277.009C128.702 275.796 127.935 275.374 126.683 275.246C116.603 274.249 109.117 268.934 103.61 260.769C92.9682 244.976 92.24 228.62 101.49 211.945C102.767 209.645 104.428 207.486 106.229 205.582C113.741 197.647 122.863 195.347 133.352 198.26C133.825 198.388 134.297 198.528 134.923 198.694C143.47 180.678 155.965 166.149 172.433 154.701C171.73 154.113 171.142 153.602 170.529 153.116C163.387 147.494 156.246 141.884 149.117 136.237C148.236 135.547 147.418 134.754 146.639 133.949C144.403 131.611 143.636 128.864 144.697 125.772C145.259 124.136 145.898 122.488 146.779 121.018C154.572 108.049 164.486 96.83 175.473 86.5055C178.182 83.9628 181.529 84.0011 184.697 84.525C187.878 85.0489 191.098 86.0455 193.972 87.4767C199.632 90.2878 205.151 93.3928 210.568 96.6767C212.714 97.98 214.822 98.6828 217.198 98.3505C221.236 97.7883 225.285 97.2517 229.246 96.3061C241.549 93.3544 253.839 90.3517 266.065 87.0805C273.948 84.9722 281.715 82.4294 289.496 79.9505C303.434 75.5167 317.564 71.9644 332.077 69.9839C333.993 69.7283 335.897 69.3067 337.813 69.0383C341.071 68.5655 343.498 69.6261 344.929 72.5522C345.913 74.5455 346.603 76.7305 347.101 78.89C349.222 88.1922 349.809 97.6733 350.078 107.18C350.64 127.407 349.567 147.609 348.621 167.811C348.264 175.362 348.123 182.914 347.804 190.466C347.676 193.494 347.318 196.522 347.05 199.729C348.123 200.892 349.452 202.426 350.857 203.869C355.482 208.636 360.132 213.363 364.77 218.117C365.408 218.768 365.983 219.497 366.571 220.199C370.519 224.876 370.991 229.821 368.807 235.609C367.248 239.737 364.936 243.161 362.317 246.56C356.695 253.843 350.831 260.909 344.226 267.349C342.629 268.908 340.905 270.391 339.065 271.643C335.948 273.764 332.601 274.058 329.266 272.039C326.826 270.557 324.36 269.1 322.035 267.439C314.638 262.136 307.458 256.565 301.07 250.061C300.61 249.588 300.023 249.231 299.243 248.63C299.026 249.499 298.847 250.061 298.745 250.623C297.455 258.098 295.194 265.267 292.345 272.307C289.061 280.421 285.982 288.65 283.248 296.968C280.502 305.351 280.284 314.027 281.575 322.728C281.677 323.418 281.869 324.134 282.214 324.722C286.327 331.89 292.166 337.589 298.043 343.275C308.685 353.561 320.643 362.084 333.163 369.84C342.182 375.424 351.279 380.931 360.566 386.055C376.689 394.961 391.343 405.733 404.208 418.919C409.293 424.133 413.7 429.87 417.162 436.31C422.515 446.264 423.985 456.806 421.289 467.743C420.433 471.232 418.529 474.477 416.996 478.093C419.347 479.103 421.928 480.304 424.572 481.339C450.532 491.459 476.505 501.541 502.465 511.673C504.535 512.478 506.221 512.849 507.806 510.638C508.38 509.821 509.926 509.514 511.089 509.335C515.42 508.658 519.776 508.134 524.12 507.521C525.231 507.367 526.356 507.201 527.416 506.843C530.303 505.847 533.37 505.106 535.976 503.598C538.723 502.013 538.556 498.474 539.681 495.816C540.831 493.094 541.597 490.207 542.696 487.472C546.183 478.771 552.648 473.404 561.693 471.257C567.327 469.916 572.22 471.5 576.053 475.921C577.522 477.608 578.825 479.435 580.371 481.403C581.24 480.93 582.198 480.432 583.143 479.908C587.985 477.186 593.134 476.356 598.525 477.774C606.932 479.997 614.252 484.112 619.694 491.037C622.722 494.883 625.558 498.896 628.216 502.997C630.899 507.137 632.751 511.699 633.569 516.593C633.888 518.484 634.041 520.464 633.914 522.381C633.415 530.035 628.957 534.763 621.368 535.913C615.734 536.769 610.407 535.504 605.156 533.689C604.3 533.396 603.457 533.038 602.371 532.616C600.122 536.794 599.305 541.139 600.684 545.611C601.681 548.869 604.543 550.479 607.724 550.684C612.489 550.991 617.344 551.169 622.083 550.658C631.141 549.687 640.174 548.946 649.283 549.151C654.406 549.266 659.478 549.687 664.447 550.952C664.831 551.054 665.24 551.029 665.904 551.08C670.784 541.535 672.483 530.751 677.453 521.384C677.325 521.039 677.3 520.822 677.172 520.669C672.713 515.047 672.011 506.856 678.743 499.803C680.698 497.758 683.074 496.084 685.425 494.487C687.456 493.107 689.654 493.056 692.119 493.912C695.709 495.152 698.852 496.826 701.165 499.879C707.757 508.581 704.295 524.042 691.455 526.036C691.059 526.099 690.676 526.253 690.28 526.368C688.632 531.773 687.15 537.178 685.348 542.468C683.573 547.668 681.477 552.767 679.433 558.133C679.676 558.402 680.034 558.887 680.455 559.283C692.579 570.694 698.507 584.507 696.77 601.297C696.565 603.213 696.527 605.156 696.412 607.034C698.699 608.452 700.96 609.641 702.966 611.161C714.26 619.722 718.016 632.232 712.969 645.482C708.715 656.65 700.73 663.895 688.9 666.451C683.56 667.601 678.232 667.089 673.39 664.534C670.171 662.834 667.156 660.649 664.358 658.311C662.748 656.957 661.317 656.267 659.222 656.407C653.946 656.778 648.848 655.896 643.943 653.877C628.51 647.552 621.036 630.941 626.67 615.506C627.947 611.992 629.966 608.976 632.904 606.139C629.225 603.673 625.967 600.939 621.291 601.322C610.317 602.229 600.237 605.334 592.188 613.282C591.205 614.253 590.617 615.608 589.825 616.771C588.995 617.997 589.403 618.981 590.183 620.106C595.14 627.287 595.612 635.145 593.236 643.259C589.455 656.177 579.119 664.368 565.641 665.083C562.306 665.262 558.882 665.019 555.599 664.444C548.113 663.141 542.159 659.167 537.764 652.996C536.602 651.36 535.133 650.414 533.472 649.367C530.125 647.258 526.956 644.779 524.069 642.07C521.016 639.208 518.601 635.771 516.595 632.04C509.006 617.908 516.352 602.549 526.381 596.646C528.566 595.355 531.402 595.138 533.957 594.563C534.915 594.346 535.976 594.524 537.304 594.524C537.918 592.736 538.518 591.036 539.093 589.324C539.54 587.982 539.962 586.628 540.332 585.261C540.549 584.494 540.779 583.689 540.779 582.897C540.754 576.482 542.223 570.349 544.229 564.318C545.902 559.296 547.512 554.249 549.262 548.857C545.468 547.592 542.006 546.263 538.199 546.046C533.421 545.764 528.617 545.496 523.89 544.832C520.045 544.295 516.352 542.902 513.095 540.692C505.314 535.427 501.392 528.131 501.763 518.369C486.764 512.708 471.574 507.112 456.486 501.259C441.449 495.433 426.374 489.708 411.694 482.668C411.643 482.668 411.401 482.629 411.26 482.719C402.177 488.609 392.058 489.133 381.736 488.239C370.276 487.229 359.544 483.894 349.758 477.697C345.274 474.861 340.624 472.292 336.076 469.545C326.162 463.527 315.507 459.144 304.609 455.311C304.341 455.208 304.034 455.208 303.37 455.093C302.527 463.463 300.444 471.513 297.825 479.435C295.194 487.383 292.805 495.407 288.359 502.844C289.623 503.879 290.786 504.837 291.961 505.783C300.061 512.261 307.228 519.659 313.258 528.093C322.84 541.484 328.18 556.626 331.106 572.649C333.252 584.417 334.223 596.339 334.108 608.312C334.006 618.559 332.422 628.628 329.854 638.569C328.18 645.035 324.501 649.584 318.394 652.433C312.505 655.181 306.411 657.033 299.997 657.966C287.771 659.729 275.596 661.953 263.216 662.336C251.603 662.694 240.22 660.816 228.939 658.247C220.673 656.369 215.027 651.462 211.424 643.834C206.786 634.021 204.18 623.862 205.56 612.976C207.962 593.988 222.871 581.568 240.143 581.683C244.398 581.708 248.652 582.079 253.251 582.296L253.277 582.283ZM75.4018 460.613C75.1974 459.31 75.1207 458.607 74.9674 457.93C73.281 450.314 75.8234 443.619 79.5283 437.217C80.5503 435.454 82.0323 434.968 83.3482 435.658C84.7152 436.387 85.0985 437.779 84.3064 439.645C83.6293 441.242 82.7989 442.776 82.0579 444.334C79.375 449.931 79.5794 455.566 81.7768 461.265C82.2878 462.581 82.9905 463.271 84.383 463.412C88.1391 463.795 91.8823 464.498 95.6384 464.574C105.258 464.779 114.457 462.415 123.502 459.425C137.44 454.812 150.535 448.372 162.928 440.591C182.576 428.273 201.919 415.495 219.524 400.315C220.993 399.05 222.564 397.913 224.148 396.788C224.672 396.418 225.349 396.264 226.435 395.804C223.165 402.014 219.421 407.33 214.477 411.329C204.717 419.213 194.598 426.676 184.391 433.972C170.337 444.028 155.684 453.126 139.957 460.383C139.599 460.549 139.28 460.831 138.718 461.214C139.548 468.203 140.698 475.18 143.368 482.131C143.956 481.773 144.237 481.237 144.582 480.764C145.527 479.435 146.473 478.106 147.456 476.803C148.811 475.014 150.254 474.503 151.596 475.244C153.026 476.036 153.282 477.723 152.132 479.844C151.353 481.275 150.471 482.668 149.5 483.971C142.039 493.861 135.894 504.569 129.609 515.213C123.131 526.202 116.194 536.922 109.41 547.719C108.325 549.444 107.047 551.054 105.718 552.601C101.081 557.993 95.3317 559.807 88.3818 558.006C82.7861 556.549 77.6758 554.019 72.7317 551.144C67.1359 547.886 61.0675 546.301 54.718 545.649C46.8866 544.844 40.997 548.001 37.3049 554.977C35.018 559.296 33.8299 563.909 34.0598 568.828C34.1365 570.489 34.392 572.151 34.5581 573.812C35.5674 572.726 35.989 571.614 36.4361 570.502C39.7067 562.324 45.2385 556.613 54.0026 554.428C56.6216 553.776 59.2662 553.751 61.8468 554.683C63.8398 555.412 65.4751 556.677 66.2927 558.632C66.5738 559.322 66.395 560.599 65.9095 561.098C65.4368 561.583 64.2997 561.468 63.4438 561.481C63.0988 561.481 62.7156 561.136 62.3834 560.893C60.2882 559.398 58.0269 559.411 55.6507 560.05C49.5311 561.698 45.2768 565.557 42.5173 571.154C40.8309 574.591 40.2177 578.271 39.7322 582.053C39.4384 584.379 40.0133 585.899 41.4953 587.471C50.3871 596.888 60.3265 604.989 71.4796 611.57C81.3041 617.358 92.2145 619.85 103.214 622.342C112.336 624.412 120.525 622.789 128.676 618.815C135.128 615.672 141.311 612.196 146.932 607.686C150.676 604.683 154.598 601.923 158.316 598.907C177.671 583.216 196.949 567.448 216.317 551.757C224.966 544.755 233.692 537.855 242.469 531.006C245.88 528.336 247.132 528.578 249.585 531.786C250.581 531.108 251.654 530.495 252.587 529.728C257.237 525.895 261.99 522.177 266.448 518.139C277.129 508.466 285.292 497.234 287.515 482.527C287.656 481.62 287.924 480.738 288.078 479.831C289.547 471.372 291.029 462.888 289.726 454.276C287.707 440.948 284.845 427.787 281.294 414.779C281.14 414.23 280.859 413.732 280.578 413.054C279.467 413.566 278.56 414.026 277.627 414.409C276.976 414.677 276.247 415.073 275.596 414.997C274.778 414.907 273.743 414.601 273.271 414.013C272.555 413.118 273.015 412.032 273.871 411.317C274.574 410.729 275.366 410.243 276.132 409.758C277.154 409.106 278.189 408.493 279.403 407.764C278.547 404.596 277.729 401.58 276.835 398.296C274.727 398.679 272.849 399.05 270.958 399.344C269.757 399.536 268.531 399.702 267.317 399.714C265.912 399.714 264.979 398.922 264.8 397.529C264.634 396.252 265.388 395.357 266.551 394.961C267.611 394.591 268.723 394.399 269.821 394.169C271.584 393.811 273.36 393.479 274.995 393.172C272.76 380.548 270.575 368.166 268.365 355.682C266.359 356.193 264.507 356.717 262.616 357.152C260.469 357.65 259.307 357.279 258.911 356.078C258.502 354.826 259.23 353.944 261.415 353.28C263.638 352.59 265.899 351.977 268.25 351.299C268.25 350.137 268.211 349.127 268.25 348.118C268.531 341.601 268.569 335.046 269.182 328.555C270.064 319.074 272.632 309.912 275.136 300.738C275.353 299.946 275.468 299.141 275.685 298.08C272.21 300.84 269.246 303.498 265.989 305.747C254.81 313.452 241.817 316.288 228.799 317.962C213.417 319.943 198.009 318.524 182.973 314.333C182.321 314.154 181.644 314.103 180.967 313.988C180.443 318.001 179.957 321.808 179.459 325.616C180.711 325.757 181.848 325.706 182.883 326.025C184.774 326.613 185.195 328.159 183.752 329.513C182.819 330.382 181.542 330.919 180.354 331.468C178.322 332.401 176.138 333.053 174.196 334.139C159.913 342.099 146.319 351.133 133.084 360.704C121.905 368.779 110.292 376.178 98.4362 383.231C89.4039 388.611 80.6398 394.424 71.799 400.111C70.266 401.094 68.8734 402.334 67.5064 403.561C61.5402 408.876 58.2186 415.623 56.8388 423.404C56.6344 424.542 56.6599 425.73 56.5833 426.893C57.6692 425.372 58.2313 423.762 59.0106 422.242C60.3265 419.661 62.0001 417.348 64.568 415.866C65.6795 415.227 66.9826 415.086 67.9408 416.172C68.899 417.271 68.5413 418.459 67.7492 419.52C67.4426 419.929 67.1104 420.312 66.7527 420.683C64.1464 423.456 62.7794 426.803 62.179 430.522C61.1058 437.153 61.6296 443.759 62.5112 450.353C62.6389 451.298 63.1244 452.346 63.7759 453.036C66.8932 456.346 70.7003 458.646 75.4529 460.613H75.4018ZM135.294 275.029C135.307 275.182 135.268 275.412 135.358 275.578C135.741 276.294 136.15 277.009 136.571 277.699C139.778 282.938 144.441 286.759 149.143 290.554C150.676 291.793 151.992 291.934 153.87 291.244C156.91 290.119 160.079 289.225 163.273 288.637C167.642 287.832 171.283 289.481 174.221 292.752C176.879 295.703 178.654 299.166 179.357 303.038C179.791 305.427 181.031 306.334 183.228 306.973C195.62 310.589 208.307 311.446 221.121 311.152C227.278 311.011 233.296 309.925 239.211 308.277C241.664 307.587 244.053 306.654 246.518 306.015C258.732 302.846 268.097 295.588 275.519 285.66C283.989 274.313 289.202 261.574 291.259 247.569C292.025 242.407 291.949 237.232 291.22 232.722C288.742 230.805 286.672 229.348 284.781 227.687C283.862 226.869 282.482 225.771 283.44 224.352C284.322 223.036 285.663 224.058 286.787 224.403C290.39 225.515 293.903 226.997 297.583 227.738C306.385 229.514 314.715 227.943 322.074 222.729C331.655 215.932 333.891 206.054 332.78 195.078C332.205 189.392 329.624 184.319 327.018 179.349C320.898 167.67 311.7 159.863 298.49 157.384C291.68 156.106 285.931 158.202 281.575 163.581C276.247 170.136 272.581 177.419 272.274 186.096C272.197 188.178 271.431 189.175 270.128 189.341C268.761 189.52 267.509 188.434 267.036 186.517C266.844 185.738 266.742 184.894 266.768 184.089C266.819 182.569 267.074 181.036 267.074 179.515C267.074 178.684 266.959 177.624 266.448 177.049C261.977 171.976 257.186 167.274 251.182 163.964C239.3 157.435 226.678 153.103 213.123 152.388C190.293 151.187 171.347 158.457 158.942 178.851C157.958 180.473 156.885 182.045 155.709 183.872C157.345 184.575 158.699 185.035 159.938 185.699C161.28 186.415 162.557 187.258 163.745 188.191C164.09 188.472 164.282 189.379 164.09 189.788C163.899 190.197 163.119 190.606 162.634 190.568C161.535 190.478 160.424 190.184 159.363 189.827C157.447 189.188 155.569 188.459 153.371 187.642C151.966 190.696 150.663 193.507 149.411 196.228C151.263 197.723 153.755 197.634 155.122 200.407C152.477 199.985 150.433 199.666 148.133 199.295C147.558 200.956 147.047 202.592 146.421 204.176C145.808 205.709 146.268 206.77 147.329 208.009C150.586 211.804 153.831 215.625 156.795 219.65C161.318 225.771 164.448 232.492 163.796 240.363C162.621 254.508 155.645 264.909 143.176 271.617C140.685 272.959 137.964 273.904 135.332 275.029H135.294ZM229.246 550.85C232.734 552.92 235.927 554.556 238.828 556.587C247.221 562.478 253.762 570.157 259.166 578.795C260.239 580.507 261.057 582.424 261.619 584.366C262.066 585.899 262.884 586.692 264.2 587.471C268.314 589.912 272.364 592.493 276.362 595.112C277.359 595.764 278.253 596.709 278.879 597.719C279.684 599.009 278.739 600.3 277.244 599.955C275.877 599.636 274.561 599.009 273.296 598.371C269.463 596.454 265.618 594.55 261.875 592.48C255.155 588.762 248.039 587.433 240.373 587.701C222.666 588.314 212.433 601.642 211.641 616.183C211.104 626.086 213.762 635.196 218.757 643.629C219.92 645.597 221.67 647.284 223.331 648.907C224.366 649.916 225.758 650.581 227.534 650.747C227.291 650.057 227.189 649.673 227.036 649.316C223.152 640.371 222.053 631.056 223.433 621.447C224.187 616.196 226.077 611.391 229.731 607.417C231.814 605.156 234.356 603.622 237.473 603.597C238.93 603.597 240.476 604.057 241.817 604.683C242.98 605.232 243.516 606.459 242.967 607.813C242.456 609.066 241.37 609.372 240.182 609.078C237.013 608.312 234.893 609.871 233.091 612.158C231.226 614.534 230.14 617.269 229.489 620.195C228.352 625.344 228.415 630.558 229.118 635.733C229.782 640.601 231.124 645.278 233.743 649.571C235.353 652.203 237.307 653.89 240.501 653.928C241.408 653.928 242.315 654.197 243.222 654.324C253.264 655.743 263.318 656.369 273.411 654.746C282.776 653.238 292.153 651.718 301.556 650.453C306.73 649.763 311.38 647.884 315.941 645.533C319.148 643.885 321.32 641.432 322.086 637.943C323.402 631.976 324.859 626.009 325.689 619.965C326.992 610.522 326.353 601.003 325.574 591.534C324.846 582.692 323.888 573.85 321.46 565.263C318.867 556.127 316.095 547.055 311.253 538.775C304.558 527.339 295.641 517.883 285.459 509.539C285.254 509.373 284.922 509.361 284.539 509.233C283.977 509.974 283.402 510.689 282.878 511.418C279.607 516.018 275.775 520.119 271.431 523.71C266.155 528.067 260.84 532.373 255.398 536.513C252.894 538.417 250.211 540.283 247.311 541.407C242.328 543.337 237.959 546.365 233.155 548.601C231.89 549.189 230.715 549.981 229.271 550.812L229.246 550.85ZM507.243 520.26C507.32 521.614 507.256 522.419 507.435 523.186C508.904 529.92 512.699 534.839 519.086 537.574C523.532 539.478 528.247 540.411 533.076 540.628C538.889 540.896 544.714 541.024 550.259 543.132C552.354 543.937 554.526 544.538 556.647 545.266C563.379 547.553 570.214 547.924 577.164 546.378C578.864 545.994 580.627 545.126 582.747 546.391C581.84 547.285 581.201 548.358 580.269 548.729C574.75 550.888 569.18 553.086 563.086 552.422C560.173 552.102 557.311 551.348 554.398 550.786C554.296 550.888 554.079 551.016 554.028 551.182C551.958 558.236 549.786 565.251 547.895 572.342C545.404 581.683 546.35 590.768 550.693 599.444C550.974 600.006 551.473 600.466 552.111 601.284C552.967 598.754 553.644 596.633 554.385 594.524C554.973 592.889 555.561 591.253 556.302 589.694C556.864 588.506 557.86 587.727 559.279 588.11C560.671 588.493 561.169 589.592 561.08 590.947C561.029 591.752 560.939 592.582 560.709 593.362C559.841 596.301 558.908 599.214 558.014 602.14C557.784 602.868 557.618 603.622 557.4 604.402C571.926 605.347 573.434 606.676 584.025 613.461C584.114 613.423 584.229 613.397 584.293 613.32C584.766 612.784 585.226 612.26 585.686 611.711C590.937 605.488 597.337 600.99 605.041 598.217C614.929 594.652 624.984 594.358 635.242 596.045C642.333 597.208 648.44 600.274 653.55 605.245C656.182 607.801 658.571 610.612 661.049 613.308C661.662 613.972 662.224 614.675 662.914 615.493C663.566 614.956 664.128 614.547 664.626 614.074C668.459 610.433 673.084 608.401 678.232 607.57C680.647 607.187 683.113 607.098 685.54 606.842C687.048 606.689 688.542 606.484 689.973 606.306C690.114 605.756 690.254 605.475 690.267 605.181C690.356 603.034 690.433 600.901 690.497 598.754C690.816 587.126 686.613 577.198 679.088 568.56C673.339 561.954 666.032 558.031 657.357 557.188C650.969 556.562 644.517 556.421 638.104 556.447C633.109 556.459 628.126 557.226 623.131 557.341C617.931 557.456 612.706 557.418 607.532 557.022C601.004 556.511 593.709 551.221 594.041 541.957C594.169 538.519 594.846 535.287 596.226 532.169C596.583 531.351 596.941 530.533 597.273 529.792C589.212 521.781 588.484 520.541 585.481 509.412C584.855 507.099 583.923 504.991 582.249 503.24C581.891 502.869 581.444 502.486 581.329 502.039C581.163 501.426 581.01 500.506 581.329 500.148C581.687 499.752 582.671 499.586 583.22 499.79C584.05 500.084 584.855 500.659 585.456 501.323C586.337 502.307 587.129 503.393 587.755 504.556C589.774 508.338 591.69 512.172 593.658 515.979C598.551 525.422 609.321 531.108 619.899 529.856C625.533 529.192 628.203 526.329 627.781 520.656C627.564 517.756 626.708 514.829 625.673 512.095C623.374 506.013 619.477 500.863 615.555 495.752C611.084 489.926 605.054 486.463 598.206 484.303C592.942 482.655 587.909 483.179 583.297 486.373C579.86 488.75 576.423 491.139 573.012 493.554C571.019 494.96 570.713 494.934 568.758 493.554C568.17 493.146 567.289 492.877 566.599 492.967C562.511 493.503 558.563 494.564 555.152 496.979C552.648 498.742 550.195 500.582 547.832 502.524C541.635 507.661 534.622 510.958 526.726 512.427C524.529 512.836 522.331 513.309 519.712 513.846C521.079 514.663 522.038 515.072 522.804 515.711C524.963 517.538 524.631 520.656 522.101 521.742C521.13 522.164 519.904 522.253 518.831 522.138C516.097 521.844 513.388 521.346 510.667 520.912C509.684 520.758 508.7 520.541 507.256 520.26H507.243ZM284.564 338.867C284.692 340.208 284.692 340.911 284.82 341.601C289.189 363.937 293.507 386.272 297.966 408.582C300.253 419.993 302.476 431.416 303.114 443.069C303.459 449.267 302.603 447.899 308.148 449.739C321.792 454.276 334.658 460.345 346.782 468.037C349.707 469.89 352.799 471.487 355.801 473.238C361.767 476.726 368.142 479.064 374.939 480.304C382.937 481.773 390.934 482.463 398.944 480.547C400.618 480.151 402.279 479.588 403.85 478.886C404.463 478.604 405.166 477.787 405.243 477.148C406.163 469.634 404.757 462.926 398.229 458.134C396.798 457.087 396.351 455.758 396.888 454.442C397.45 453.062 399.111 452.142 400.707 452.857C402.522 453.662 404.451 454.697 405.703 456.167C408.769 459.783 410.928 463.948 411.631 468.753C411.733 469.43 411.924 470.094 412.167 471.193C413.687 469.174 414.224 467.232 414.582 465.277C416 457.432 415.31 449.791 411.899 442.533C409.19 436.757 405.575 431.582 401.129 426.995C387.549 412.952 372.358 401.005 355.162 391.677C340.317 383.64 326.443 374.082 312.76 364.269C310.116 362.365 307.471 360.397 305.082 358.187C298.643 352.232 292.332 346.124 285.97 340.081C285.689 339.812 285.382 339.582 284.539 338.879L284.564 338.867ZM278.79 156.093C276.592 154.458 274.357 152.835 272.197 151.148C264.468 145.117 256.841 138.946 249.035 133.042C238.776 125.286 228.39 117.696 218.029 110.055C210.376 104.407 202.391 99.2705 193.947 94.9005C190.97 93.3544 187.802 92.1533 184.723 90.8117C182.743 89.9428 181.248 90.3389 179.549 91.8978C171.909 98.8872 165.112 106.643 158.801 114.808C156.246 118.105 153.997 121.67 151.864 125.261C150.037 128.314 150.267 128.966 152.937 131.241C156.208 134.013 159.491 136.773 162.838 139.444C167.936 143.52 173.097 147.507 178.271 151.557C194.049 144.261 210.351 143.047 226.946 146.612C243.337 150.126 258.502 156.298 269.936 169.331C272.926 164.872 275.8 160.578 278.802 156.106L278.79 156.093ZM223.241 104.803C241.089 118.373 258.911 131.918 276.937 145.616C277.755 144.862 278.713 144.121 279.518 143.226C282.341 140.134 285.254 137.106 287.86 133.847C296.765 122.667 305.516 111.371 314.421 100.191C320.528 92.5239 326.788 84.985 332.958 77.395C333.38 76.8711 333.712 76.2705 334.389 75.2483C332.907 75.5039 331.911 75.5933 330.953 75.8489C321.103 78.4811 311.227 81.0622 301.403 83.8094C283.236 88.9078 265.465 95.3733 246.927 99.1683C239.045 100.778 231.252 102.887 223.241 104.816V104.803ZM101.886 237.961C103.406 249.716 108.056 259.696 118.519 266.021C123.08 268.768 128.318 269.867 133.569 268.346C145.668 264.819 153.614 256.961 156.987 244.733C158.367 239.737 158.137 234.856 155.173 230.319C154.278 228.965 153.589 227.47 152.899 225.988C150.063 219.854 145.783 214.782 140.775 210.386C138.424 208.329 135.652 206.706 132.905 205.198C130.273 203.754 127.296 203.384 124.281 203.703C123.668 203.767 123.093 204.087 122.224 204.368C124.09 205.761 125.763 206.77 127.143 208.086C128.676 209.556 130.248 211.127 131.244 212.954C133.889 217.836 131.155 222.423 125.61 222.512C123.285 222.551 120.921 222.257 118.622 221.861C114.074 221.081 110.305 219.113 108.491 214.501C108.44 214.373 108.158 214.322 107.98 214.245C105.693 217.146 103.828 221.145 103.828 223.547C103.828 229.898 106.038 235.303 110.854 239.545C112.643 241.117 114.661 242.331 117.038 242.714C121.522 243.442 125.955 243.481 130.273 241.679C131.41 241.206 132.713 241.091 134.591 240.669C132.764 245.18 129.519 246.943 125.955 247.71C115.888 249.857 107.992 246.241 101.886 237.948V237.961ZM340.573 192.28C340.662 191.181 340.803 190.082 340.854 188.983C341.659 169.306 342.63 149.641 343.204 129.95C343.613 115.767 343.524 101.583 341.671 87.4639C341.288 84.5761 340.93 81.6755 339.755 78.5833C339.155 79.3883 338.746 79.8355 338.452 80.3594C335.232 86.0328 331.809 91.6039 328.87 97.4178C324.59 105.877 320.604 114.502 316.593 123.088C312.479 131.892 307.816 140.364 302.488 148.491C302.118 149.04 301.875 149.679 301.518 150.407C323.709 156.004 334.466 171.823 340.573 192.267V192.28ZM340.496 202.426C339.091 213.069 335.437 221.694 326.954 227.611C318.777 233.309 309.694 235.622 299.563 234.6C299.691 237.347 298.937 239.839 301.07 241.998C309.413 250.457 318.56 257.945 328.359 264.641C329.445 265.382 330.672 265.944 331.796 266.647C333.201 267.516 334.543 267.375 335.743 266.34C337.443 264.883 339.257 263.503 340.713 261.817C346.258 255.415 351.547 248.796 357.181 242.484C360.221 239.085 361.537 234.983 363.096 230.92C363.811 229.042 363.582 227.329 362.368 225.732C361.806 225.004 361.32 224.212 360.707 223.547C356.785 219.254 352.876 214.948 348.877 210.718C346.36 208.073 343.69 205.569 340.496 202.413V202.426ZM562.485 658.362C575.35 658.196 584.319 650.938 587.104 638.646C589.02 630.187 585.762 623.402 580.001 617.997C574.175 612.528 566.765 610.062 558.614 610.535C551.766 610.931 546.273 613.883 542.466 619.658C537.867 626.635 536.781 634.187 539.361 642.16C541.955 650.159 547.346 655.296 555.561 657.276C557.822 657.826 560.173 658.017 562.485 658.362ZM140.161 348.169C142.717 346.751 145.169 345.498 147.495 344.054C150.088 342.444 152.503 340.541 155.096 338.943C159.785 336.056 164.537 333.244 169.303 330.484C171.653 329.117 173.135 327.418 173.225 324.492C173.314 321.438 173.57 318.346 174.247 315.381C175.141 311.509 174.323 307.881 173.429 304.226C172.637 301.006 170.427 298.681 168.089 296.547C167.322 295.844 166.07 295.256 165.074 295.294C160.73 295.461 156.335 295.333 152.375 297.85C144.326 302.948 138.245 309.81 133.62 318.039C133.237 318.729 133.007 319.508 132.7 320.275C133.16 320.582 133.454 320.888 133.825 321.029C138.079 322.588 142.372 323.802 146.971 322.498C147.916 322.23 149.117 321.399 150.101 323.303C149.245 323.866 148.453 324.619 147.507 324.964C142.32 326.856 137.07 327.776 131.755 325.399C130.401 331.059 134.808 342.866 140.2 348.194L140.161 348.169ZM662.058 635.988C661.701 645.687 667.59 654.491 677.312 658.158C679.267 658.899 681.503 659.32 683.585 659.218C693.946 658.707 702.634 651.897 705.866 641.968C707.284 637.611 707.616 633.203 706.428 628.705C704.985 623.262 701.177 619.556 697.064 616.17C693.691 613.384 689.577 613.206 685.425 613.512C684.007 613.614 682.576 613.781 681.158 613.896C670.018 614.79 661.573 625.217 662.058 635.988ZM115.939 290.924C115.709 290.873 115.492 290.835 115.262 290.784C114.38 292.011 113.422 293.186 112.643 294.489C104.913 307.497 101.451 321.553 102.729 336.656C103.214 342.393 104.913 347.849 107.711 352.935C110.484 357.982 113.959 358.838 117.983 354.89C121.458 351.478 124.358 347.492 127.386 343.671C127.769 343.198 127.411 342.138 127.386 341.307C120.027 342.023 115.977 337.372 114.521 327.124C109.002 323.674 107.226 320.441 108.989 316.748C111.046 318.294 113.09 319.828 115.402 321.566C117.076 316.557 120.18 313.119 124.128 310.193C118.928 304.558 116.015 298.336 115.926 290.924H115.939ZM638.117 610.727C631.933 614.662 629.442 625.804 632.585 634.059C636.43 644.166 648.299 651.641 658.06 649.891C654.7 642.684 654.38 635.183 656.143 627.172C651.416 626.776 648.925 623.645 646.408 620.323C643.853 616.937 640.876 613.87 638.13 610.727H638.117ZM294.504 460.332C296.203 450.199 295.487 440.105 294.057 430.126C292.664 420.453 290.607 410.869 288.652 401.273C284.718 381.877 280.834 362.48 277.806 342.917C276.835 336.643 275.672 330.395 274.548 323.917C272.849 328.938 272.236 346.048 273.539 350.533C273.922 350.558 274.318 350.597 274.714 350.597C275.685 350.609 277.027 350.188 277.129 351.606C277.167 352.168 276.107 352.884 275.455 353.395C274.919 353.804 274.242 354.021 273.692 354.289C273.641 359.707 278.713 388.662 280.361 392.367C281.332 392.367 282.405 392.176 283.351 392.431C284.13 392.636 285.088 393.236 285.395 393.926C285.906 395.038 284.96 395.817 284.015 396.316C283.133 396.776 282.175 397.095 281.051 397.555C281.715 400.264 282.367 402.883 283.031 405.605C284.373 405.107 285.382 404.519 286.455 404.391C287.234 404.289 288.078 404.8 288.895 405.03C288.652 405.758 288.614 406.678 288.129 407.189C286.953 408.429 285.586 409.477 284.181 410.678C286.046 417.872 287.86 424.976 289.751 432.068C291.783 439.671 293.533 447.312 294.133 455.183C294.261 456.895 294.363 458.62 294.491 460.332H294.504ZM534.174 600.134C531.223 600.466 529.077 601.514 527.339 602.971C519.763 609.347 516.429 620.527 521.782 629.996C524.248 634.353 528.055 637.419 531.568 640.793C531.67 640.895 531.939 640.793 532.271 640.793C531.594 636.512 531.44 632.27 532.245 628.015C533.05 623.773 534.775 619.901 536.844 616.311C532.462 611.519 530.584 606.433 534.174 600.121V600.134ZM283.926 152.848C287.209 151.072 290.518 150.101 294.044 150.049C295.372 150.037 296.05 149.27 296.637 148.235C300.687 141.041 304.941 133.949 308.749 126.628C312.364 119.664 315.494 112.444 318.828 105.34C319.11 104.727 319.314 104.088 319.557 103.462C306.577 118.667 295.04 134.984 281.025 149.244C281.958 150.407 282.84 151.506 283.926 152.861V152.848ZM696.936 510.523C696.617 509.143 696.438 507.725 695.965 506.409C694.764 503.099 691.838 500.697 687.278 501.643C683.981 502.333 682.512 504.531 681.222 507.061C679.599 510.255 680.187 513.603 682.538 516.094C684.876 518.586 688.696 519.493 691.8 518.292C694.751 517.155 696.719 514.088 696.949 510.523H696.936ZM547.857 494.973C553.287 490.769 559.342 488.303 566.024 487.281C566.216 487.255 566.407 487.089 566.599 487.076C567.991 486.961 569.473 486.539 570.764 486.859C572.731 487.344 574.098 486.999 575.235 485.172C574.022 483.792 572.77 482.451 571.607 481.045C568.899 477.761 565.513 477.276 561.68 478.541C553.747 481.147 549.633 487.038 547.857 494.973ZM122.863 285.2C122.454 286.554 121.816 288.049 121.573 289.608C120.627 295.691 123.246 300.687 126.555 305.491C127.782 307.254 129.085 307.932 131.346 307.753C133.837 307.548 134.374 305.785 135.46 304.354C133.16 299.537 130.95 294.847 128.663 290.196C128.088 289.021 127.36 287.883 126.581 286.823C125.789 285.749 124.805 284.829 122.85 285.213L122.863 285.2ZM674.272 554.811C678.909 545.419 681.452 535.529 684.467 525.601C683.56 525.243 682.934 525.001 681.988 524.63C678.411 534.252 674.885 543.733 671.308 553.342C672.304 553.84 673.173 554.274 674.272 554.824V554.811ZM542.823 596.799C541.814 598.613 540.894 600.3 539.975 601.961C537.074 607.187 536.998 605.897 540.409 611.417C540.447 611.481 540.575 611.506 540.716 611.583C543.117 609.986 545.532 608.363 547.934 606.753C546.235 603.431 544.587 600.223 542.823 596.799ZM640.314 603.967C640.774 604.874 640.851 605.168 641.03 605.347C645.399 609.628 649.462 614.177 652.834 619.313C653.882 620.911 655.607 621.319 657.319 621.588C657.791 621.664 658.456 621.332 658.788 620.962C658.954 620.783 658.737 620.003 658.468 619.671C654.431 614.675 650.254 609.807 644.773 606.293C643.534 605.501 642.167 604.926 640.302 603.967H640.314ZM124.971 335.123C124.971 331.66 124.537 328.261 125.099 325.054C125.674 321.757 127.22 318.639 128.548 314.832C122.953 318.537 120.193 322.946 121.011 329.104C121.356 331.66 122.212 334.011 124.984 335.123H124.971ZM143.304 204.112C143.969 201.978 144.543 200.164 145.208 198.068C143.892 197.979 143.023 197.915 142.129 197.864C141.439 199.206 140.851 200.368 140.174 201.672C141.158 202.438 142.014 203.116 143.291 204.112H143.304ZM146.243 195.717C147.61 192.523 148.849 189.622 150.088 186.722C149.896 186.632 149.705 186.53 149.513 186.441C147.29 188.945 145.451 191.705 143.994 194.912C144.786 195.193 145.336 195.398 146.243 195.73V195.717Z" fill="#3D3D3D"/>
<path d="M75.4017 460.613C70.6492 458.646 66.8549 456.333 63.7248 453.036C63.0733 452.346 62.5878 451.298 62.46 450.353C61.5913 443.759 61.0547 437.153 62.1279 430.522C62.7283 426.803 64.0953 423.456 66.7015 420.683C67.0465 420.312 67.3914 419.929 67.698 419.52C68.5029 418.447 68.8479 417.271 67.8897 416.172C66.9315 415.073 65.6156 415.227 64.5169 415.866C61.9618 417.348 60.2754 419.661 58.9595 422.242C58.193 423.749 57.6181 425.372 56.5322 426.893C56.6088 425.73 56.5833 424.554 56.7877 423.404C58.1674 415.635 61.4891 408.876 67.4553 403.56C68.8223 402.334 70.2148 401.107 71.7479 400.111C80.5887 394.424 89.3527 388.611 98.3851 383.231C110.241 376.178 121.854 368.779 133.033 360.704C146.281 351.133 159.861 342.087 174.145 334.139C176.086 333.053 178.271 332.401 180.302 331.468C181.491 330.919 182.768 330.382 183.701 329.513C185.144 328.159 184.723 326.613 182.832 326.025C181.797 325.706 180.66 325.744 179.408 325.616C179.906 321.808 180.392 318.001 180.916 313.988C181.593 314.103 182.27 314.154 182.921 314.333C197.958 318.524 213.366 319.943 228.748 317.962C241.779 316.288 254.759 313.452 265.937 305.747C269.195 303.498 272.159 300.84 275.634 298.08C275.417 299.128 275.302 299.946 275.085 300.738C272.594 309.899 270.013 319.061 269.131 328.555C268.531 335.046 268.48 341.588 268.199 348.118C268.16 349.127 268.199 350.137 268.199 351.299C265.848 351.977 263.599 352.577 261.364 353.28C259.192 353.957 258.451 354.839 258.86 356.078C259.256 357.279 260.418 357.637 262.565 357.152C264.443 356.717 266.308 356.193 268.314 355.682C270.524 368.179 272.708 380.548 274.944 393.172C273.309 393.492 271.533 393.811 269.77 394.169C268.671 394.399 267.56 394.591 266.5 394.961C265.337 395.357 264.596 396.252 264.749 397.529C264.928 398.922 265.874 399.727 267.266 399.714C268.48 399.714 269.706 399.536 270.907 399.344C272.798 399.05 274.676 398.679 276.784 398.296C277.678 401.58 278.496 404.608 279.352 407.764C278.138 408.506 277.103 409.119 276.081 409.758C275.302 410.256 274.51 410.729 273.82 411.317C272.964 412.045 272.504 413.118 273.22 414.013C273.692 414.601 274.727 414.907 275.545 414.997C276.196 415.073 276.912 414.677 277.576 414.409C278.509 414.026 279.403 413.578 280.527 413.054C280.808 413.719 281.089 414.23 281.243 414.779C284.794 427.787 287.656 440.948 289.675 454.275C290.978 462.888 289.496 471.372 288.026 479.831C287.873 480.738 287.605 481.62 287.464 482.527C285.229 497.234 277.065 508.466 266.397 518.139C261.939 522.177 257.186 525.895 252.536 529.728C251.603 530.495 250.53 531.108 249.534 531.786C247.081 528.578 245.829 528.348 242.417 531.006C233.641 537.855 224.915 544.755 216.266 551.757C196.898 567.436 177.62 583.203 158.264 598.907C154.547 601.923 150.612 604.695 146.881 607.685C141.273 612.183 135.077 615.659 128.625 618.815C120.474 622.802 112.285 624.412 103.163 622.342C92.1634 619.85 81.253 617.371 71.4285 611.57C60.2754 604.989 50.336 596.876 41.4441 587.471C39.9622 585.899 39.3873 584.379 39.6811 582.053C40.1666 578.271 40.7798 574.578 42.4662 571.154C45.2257 565.557 49.4672 561.698 55.5995 560.05C57.9758 559.411 60.2371 559.398 62.3323 560.893C62.6645 561.123 63.0349 561.481 63.3927 561.481C64.2359 561.481 65.3857 561.583 65.8584 561.098C66.3438 560.599 66.5355 559.322 66.2416 558.632C65.424 556.677 63.7887 555.412 61.7957 554.683C59.215 553.751 56.5833 553.776 53.9515 554.428C45.2002 556.6 39.6683 562.324 36.385 570.502C35.9378 571.614 35.5162 572.738 34.507 573.812C34.3409 572.151 34.0854 570.489 34.0087 568.828C33.7788 563.909 34.9541 559.296 37.2537 554.977C40.9459 548.001 46.8355 544.857 54.6669 545.649C61.0292 546.301 67.0848 547.885 72.6805 551.144C77.6247 554.019 82.735 556.549 88.3307 558.006C95.2806 559.807 101.03 558.006 105.667 552.601C106.996 551.054 108.286 549.444 109.359 547.719C116.143 536.922 123.08 526.189 129.558 515.213C135.843 504.569 141.988 493.861 149.449 483.971C150.433 482.668 151.302 481.275 152.081 479.844C153.231 477.723 152.988 476.049 151.544 475.244C150.203 474.49 148.759 475.014 147.405 476.803C146.421 478.106 145.476 479.435 144.531 480.764C144.186 481.249 143.905 481.773 143.317 482.131C140.647 475.18 139.497 468.203 138.667 461.214C139.242 460.831 139.548 460.549 139.906 460.383C155.633 453.126 170.286 444.028 184.339 433.972C194.547 426.663 204.666 419.213 214.426 411.329C219.37 407.343 223.101 402.014 226.384 395.804C225.298 396.264 224.621 396.418 224.097 396.788C222.526 397.913 220.942 399.05 219.472 400.315C201.855 415.508 182.513 428.273 162.876 440.591C150.484 448.359 137.389 454.812 123.451 459.425C114.393 462.415 105.207 464.792 95.5872 464.574C91.8312 464.498 88.0879 463.782 84.3319 463.412C82.9394 463.271 82.2239 462.581 81.7257 461.265C79.5283 455.566 79.3239 449.931 82.0067 444.334C82.7605 442.775 83.5781 441.229 84.2552 439.645C85.0601 437.779 84.6768 436.374 83.2971 435.658C81.9812 434.968 80.4992 435.454 79.4772 437.217C75.7722 443.632 73.2427 450.327 74.9163 457.93C75.0696 458.607 75.1462 459.31 75.3506 460.613H75.4017Z" fill="#C69C6D"/>
<path d="M135.294 275.029C137.926 273.892 140.634 272.959 143.138 271.617C155.594 264.922 162.583 254.521 163.758 240.363C164.41 232.479 161.28 225.771 156.757 219.65C153.793 215.625 150.548 211.804 147.29 208.009C146.23 206.783 145.77 205.722 146.383 204.176C147.022 202.592 147.52 200.956 148.095 199.295C150.395 199.666 152.439 199.985 155.083 200.407C153.729 197.647 151.238 197.723 149.373 196.228C150.625 193.507 151.928 190.696 153.333 187.642C155.531 188.447 157.409 189.188 159.325 189.827C160.385 190.184 161.484 190.466 162.595 190.568C163.081 190.606 163.86 190.21 164.052 189.788C164.244 189.379 164.052 188.472 163.707 188.191C162.519 187.246 161.228 186.415 159.9 185.699C158.661 185.035 157.319 184.575 155.671 183.872C156.846 182.045 157.92 180.473 158.903 178.851C171.308 158.444 190.255 151.187 213.085 152.388C226.627 153.103 239.262 157.435 251.143 163.964C257.148 167.261 261.939 171.976 266.41 177.049C266.908 177.624 267.023 178.684 267.036 179.515C267.036 181.036 266.781 182.569 266.73 184.089C266.704 184.894 266.793 185.738 266.998 186.517C267.471 188.434 268.723 189.52 270.09 189.341C271.405 189.175 272.172 188.166 272.236 186.096C272.542 177.432 276.209 170.136 281.536 163.581C285.906 158.202 291.642 156.106 298.451 157.384C311.661 159.863 320.86 167.683 326.979 179.349C329.586 184.319 332.166 189.392 332.741 195.078C333.865 206.054 331.617 215.932 322.035 222.729C314.676 227.943 306.347 229.514 297.544 227.738C293.878 226.997 290.352 225.528 286.749 224.403C285.637 224.058 284.283 223.036 283.402 224.352C282.456 225.771 283.823 226.882 284.743 227.687C286.634 229.361 288.704 230.818 291.182 232.722C291.91 237.232 291.987 242.407 291.22 247.569C289.151 261.574 283.951 274.313 275.481 285.66C268.058 295.601 258.694 302.846 246.48 306.015C244.014 306.654 241.625 307.587 239.173 308.277C233.257 309.925 227.24 311.011 221.082 311.152C208.268 311.446 195.582 310.589 183.19 306.973C180.992 306.334 179.74 305.414 179.319 303.038C178.616 299.166 176.84 295.703 174.183 292.752C171.245 289.481 167.603 287.832 163.234 288.637C160.04 289.225 156.872 290.119 153.831 291.244C151.953 291.947 150.637 291.793 149.104 290.554C144.403 286.759 139.753 282.938 136.533 277.699C136.112 277.009 135.703 276.294 135.319 275.578C135.23 275.412 135.268 275.182 135.256 275.029H135.294ZM294.223 218.449C303.063 218.577 310.78 210.45 310.167 200.764C309.732 194.031 307.663 187.757 303.702 182.249C302.361 180.384 300.636 178.646 298.758 177.343C294.248 174.238 289.368 174.608 285.305 178.288C283.657 179.771 282.277 181.585 280.974 183.399C278.573 186.734 277.269 190.593 275.711 194.363C274.587 197.084 274.523 199.448 275.532 201.991C277.039 205.773 278.573 209.556 280.31 213.236C280.821 214.322 281.945 215.267 283.006 215.906C286.238 217.836 289.892 218.296 294.223 218.449ZM205.47 235.098C205.113 234.958 204.844 234.779 204.551 234.766C195.301 234.063 188.479 230.026 185.298 220.902C185.259 220.8 185.272 220.672 185.196 220.621C184.761 220.238 184.34 219.586 183.88 219.561C183.432 219.535 182.628 220.072 182.525 220.481C181.989 222.64 181.133 224.876 181.299 227.023C181.759 232.888 187.15 238.638 192.899 239.89C193.781 240.082 194.777 240.299 195.608 240.082C198.354 239.353 201.076 238.484 203.771 237.552C204.678 237.232 205.726 236.759 205.47 235.111V235.098Z" fill="#C69C6D"/>
<path d="M229.246 550.85C230.689 550.019 231.865 549.227 233.13 548.639C237.92 546.403 242.303 543.375 247.285 541.446C250.185 540.321 252.868 538.456 255.372 536.552C260.814 532.412 266.129 528.106 271.405 523.748C275.749 520.158 279.582 516.056 282.852 511.456C283.376 510.715 283.951 510.012 284.513 509.271C284.896 509.386 285.229 509.399 285.433 509.578C295.615 517.922 304.545 527.377 311.227 538.813C316.069 547.093 318.841 556.166 321.435 565.302C323.862 573.888 324.82 582.731 325.548 591.573C326.328 601.041 326.967 610.548 325.663 620.003C324.833 626.047 323.377 632.014 322.061 637.982C321.294 641.457 319.122 643.923 315.916 645.572C311.355 647.923 306.704 649.788 301.53 650.491C292.127 651.756 282.763 653.277 273.386 654.784C263.293 656.407 253.238 655.781 243.197 654.363C242.29 654.235 241.383 653.979 240.476 653.967C237.282 653.928 235.327 652.229 233.717 649.609C231.098 645.329 229.757 640.639 229.093 635.771C228.39 630.596 228.313 625.383 229.463 620.233C230.115 617.307 231.2 614.573 233.066 612.196C234.867 609.896 236.988 608.337 240.156 609.117C241.357 609.411 242.43 609.091 242.941 607.852C243.491 606.497 242.941 605.271 241.791 604.721C240.463 604.095 238.904 603.622 237.448 603.635C234.331 603.661 231.788 605.194 229.706 607.456C226.052 611.429 224.161 616.234 223.407 621.486C222.04 631.094 223.126 640.409 227.01 649.354C227.163 649.712 227.278 650.095 227.508 650.785C225.733 650.619 224.353 649.954 223.305 648.945C221.644 647.322 219.907 645.648 218.731 643.668C213.736 635.234 211.092 626.124 211.615 616.221C212.395 601.667 222.641 588.353 240.348 587.739C248.013 587.471 255.142 588.8 261.849 592.518C265.592 594.588 269.438 596.492 273.271 598.409C274.535 599.048 275.851 599.674 277.218 599.993C278.713 600.338 279.658 599.035 278.854 597.757C278.228 596.748 277.321 595.802 276.337 595.151C272.338 592.518 268.288 589.95 264.174 587.509C262.858 586.73 262.041 585.938 261.594 584.404C261.032 582.475 260.201 580.546 259.141 578.833C253.724 570.196 247.196 562.516 238.802 556.626C235.902 554.594 232.708 552.958 229.22 550.888L229.246 550.85Z" fill="#C69C6D"/>
<path d="M507.243 520.26C508.687 520.541 509.671 520.746 510.654 520.912C513.376 521.346 516.084 521.844 518.818 522.138C519.891 522.253 521.118 522.164 522.089 521.742C524.618 520.656 524.95 517.538 522.791 515.711C522.025 515.072 521.067 514.663 519.7 513.846C522.319 513.309 524.516 512.836 526.713 512.427C534.609 510.945 541.635 507.648 547.819 502.524C550.169 500.569 552.635 498.742 555.139 496.979C558.563 494.564 562.498 493.503 566.586 492.967C567.276 492.877 568.17 493.146 568.745 493.554C570.7 494.922 570.994 494.96 573 493.554C576.423 491.139 579.847 488.763 583.284 486.373C587.896 483.179 592.929 482.642 598.193 484.303C605.054 486.463 611.084 489.926 615.542 495.752C619.464 500.863 623.361 506.013 625.661 512.095C626.695 514.829 627.551 517.756 627.769 520.656C628.19 526.329 625.52 529.179 619.886 529.856C609.308 531.121 598.538 525.422 593.645 515.979C591.677 512.172 589.761 508.338 587.743 504.556C587.129 503.393 586.324 502.307 585.443 501.323C584.855 500.659 584.038 500.084 583.207 499.79C582.658 499.598 581.674 499.764 581.316 500.148C580.997 500.506 581.15 501.426 581.316 502.039C581.444 502.486 581.891 502.869 582.236 503.24C583.91 504.991 584.842 507.099 585.468 509.412C588.471 520.554 589.199 521.781 597.26 529.792C596.928 530.533 596.583 531.364 596.213 532.169C594.833 535.287 594.143 538.519 594.028 541.957C593.696 551.221 600.991 556.511 607.519 557.022C612.693 557.431 617.919 557.456 623.118 557.341C628.114 557.226 633.096 556.459 638.091 556.447C644.517 556.421 650.969 556.562 657.344 557.188C666.019 558.044 673.326 561.967 679.075 568.56C686.6 577.198 690.803 587.139 690.484 598.754C690.42 600.901 690.344 603.034 690.254 605.181C690.254 605.475 690.114 605.769 689.96 606.306C688.529 606.484 687.035 606.689 685.527 606.842C683.087 607.098 680.634 607.187 678.22 607.57C673.058 608.401 668.446 610.433 664.613 614.074C664.115 614.547 663.553 614.956 662.902 615.493C662.212 614.675 661.65 613.972 661.036 613.308C658.545 610.599 656.169 607.801 653.537 605.245C648.427 600.274 642.32 597.208 635.23 596.045C624.971 594.371 614.929 594.665 605.028 598.217C597.324 600.99 590.924 605.501 585.673 611.711C585.213 612.247 584.753 612.784 584.28 613.32C584.216 613.384 584.102 613.41 584.012 613.461C573.434 606.676 571.926 605.347 557.388 604.402C557.605 603.609 557.771 602.868 558.001 602.14C558.895 599.214 559.841 596.3 560.697 593.362C560.927 592.582 561.016 591.764 561.067 590.947C561.157 589.592 560.658 588.493 559.266 588.11C557.848 587.727 556.851 588.506 556.289 589.694C555.548 591.253 554.96 592.889 554.373 594.524C553.619 596.62 552.942 598.754 552.099 601.284C551.46 600.466 550.962 600.006 550.681 599.444C546.35 590.768 545.404 581.696 547.883 572.342C549.773 565.251 551.945 558.223 554.015 551.182C554.066 551.016 554.283 550.888 554.385 550.786C557.311 551.348 560.173 552.115 563.073 552.422C569.167 553.073 574.737 550.888 580.256 548.729C581.176 548.371 581.815 547.285 582.735 546.39C580.614 545.125 578.838 545.994 577.152 546.378C570.189 547.924 563.367 547.566 556.634 545.266C554.513 544.538 552.341 543.937 550.246 543.132C544.702 541.011 538.876 540.883 533.063 540.628C528.234 540.411 523.519 539.478 519.074 537.574C512.686 534.839 508.891 529.92 507.422 523.186C507.256 522.419 507.32 521.602 507.231 520.26H507.243ZM564.734 508.837C560.428 508.696 557.618 510.971 556.966 514.523C556.596 516.593 557.464 518.318 558.346 520.03C559.572 522.407 561.77 523.518 564.402 523.224C568.771 522.739 572.437 517.232 571.16 513.002C570.598 511.111 569.371 509.808 567.442 509.309C566.369 509.028 565.245 508.913 564.721 508.837H564.734Z" fill="#BBDCF9"/>
<path d="M284.564 338.867C285.395 339.569 285.714 339.799 285.995 340.068C292.357 346.112 298.668 352.219 305.107 358.174C307.496 360.384 310.128 362.352 312.786 364.256C326.481 374.082 340.343 383.627 355.188 391.664C372.397 400.979 387.574 412.939 401.155 426.982C405.6 431.569 409.216 436.744 411.924 442.52C415.323 449.778 416.013 457.419 414.607 465.264C414.25 467.219 413.726 469.162 412.193 471.181C411.95 470.082 411.758 469.417 411.656 468.74C410.966 463.948 408.807 459.77 405.728 456.154C404.476 454.684 402.547 453.649 400.733 452.844C399.123 452.129 397.475 453.062 396.913 454.429C396.376 455.745 396.824 457.074 398.254 458.122C404.783 462.926 406.188 469.622 405.268 477.135C405.192 477.774 404.489 478.604 403.876 478.873C402.304 479.576 400.644 480.138 398.97 480.534C390.96 482.451 382.962 481.761 374.965 480.291C368.168 479.039 361.793 476.713 355.827 473.225C352.837 471.474 349.745 469.877 346.807 468.024C334.683 460.332 321.805 454.263 308.174 449.727C302.629 447.887 303.485 449.254 303.14 443.057C302.488 431.403 300.265 419.993 297.991 408.569C293.52 386.259 289.202 363.911 284.845 341.588C284.718 340.898 284.705 340.196 284.59 338.854L284.564 338.867Z" fill="#C69C6D"/>
<path d="M278.79 156.093C275.787 160.566 272.913 164.859 269.923 169.318C258.489 156.285 243.325 150.113 226.933 146.599C210.338 143.047 194.036 144.248 178.258 151.544C173.097 147.494 167.923 143.507 162.825 139.431C159.478 136.761 156.182 134 152.924 131.228C150.254 128.953 150.037 128.302 151.851 125.248C153.997 121.657 156.233 118.092 158.788 114.795C165.099 106.63 171.883 98.8744 179.536 91.8849C181.235 90.3261 182.743 89.9427 184.71 90.7988C187.789 92.1405 190.957 93.3416 193.934 94.8877C202.379 99.2577 210.363 104.394 218.016 110.042C228.377 117.67 238.764 125.26 249.023 133.029C256.841 138.945 264.455 145.104 272.185 151.135C274.357 152.835 276.592 154.445 278.777 156.08L278.79 156.093Z" fill="white"/>
<path d="M223.241 104.803C231.264 102.874 239.045 100.766 246.927 99.1556C265.465 95.3606 283.236 88.9078 301.402 83.7967C311.227 81.0367 321.09 78.4684 330.952 75.8361C331.911 75.5806 332.907 75.4912 334.389 75.2356C333.712 76.2578 333.393 76.8584 332.958 77.3823C326.775 84.985 320.515 92.5239 314.421 100.178C305.516 111.358 296.778 122.667 287.86 133.834C285.254 137.106 282.341 140.121 279.518 143.213C278.713 144.095 277.755 144.849 276.937 145.603C258.911 131.905 241.089 118.361 223.241 104.791V104.803Z" fill="white"/>
<path d="M101.886 237.961C107.992 246.241 115.888 249.869 125.955 247.723C129.519 246.956 132.764 245.193 134.591 240.682C132.713 241.104 131.41 241.219 130.273 241.692C125.955 243.493 121.522 243.455 117.038 242.727C114.661 242.343 112.643 241.129 110.854 239.558C106.025 235.316 103.815 229.911 103.828 223.56C103.828 221.158 105.693 217.158 107.98 214.258C108.158 214.334 108.44 214.386 108.491 214.513C110.305 219.126 114.086 221.094 118.622 221.873C120.921 222.269 123.285 222.563 125.61 222.525C131.155 222.423 133.889 217.848 131.244 212.967C130.248 211.14 128.676 209.568 127.143 208.099C125.763 206.783 124.09 205.761 122.224 204.381C123.093 204.087 123.668 203.78 124.281 203.716C127.296 203.397 130.273 203.767 132.905 205.211C135.652 206.719 138.437 208.354 140.775 210.399C145.795 214.794 150.062 219.854 152.899 226.001C153.589 227.483 154.278 228.978 155.173 230.332C158.137 234.856 158.367 239.749 156.987 244.746C153.614 256.974 145.655 264.832 133.569 268.359C128.318 269.892 123.08 268.793 118.519 266.033C108.056 259.708 103.406 249.729 101.886 237.973V237.961Z" fill="#8C6239"/>
<path d="M340.573 192.28C334.466 171.836 323.696 156.017 301.517 150.42C301.888 149.692 302.131 149.053 302.488 148.503C307.816 140.389 312.479 131.905 316.593 123.101C320.604 114.502 324.59 105.889 328.87 97.4305C331.808 91.6166 335.232 86.0455 338.452 80.3722C338.746 79.8611 339.154 79.4138 339.755 78.5961C340.93 81.6883 341.288 84.5888 341.671 87.4766C343.524 101.583 343.613 115.779 343.204 129.963C342.629 149.641 341.671 169.318 340.854 188.996C340.802 190.095 340.675 191.194 340.573 192.293V192.28Z" fill="white"/>
<path d="M340.496 202.426C343.69 205.582 346.36 208.086 348.877 210.731C352.876 214.948 356.785 219.267 360.707 223.56C361.32 224.237 361.819 225.017 362.368 225.745C363.582 227.342 363.824 229.054 363.096 230.933C361.537 234.996 360.209 239.085 357.181 242.497C351.547 248.809 346.258 255.428 340.713 261.829C339.257 263.516 337.443 264.883 335.743 266.353C334.53 267.388 333.201 267.528 331.796 266.659C330.672 265.957 329.458 265.394 328.359 264.653C318.56 257.958 309.426 250.457 301.07 242.011C298.937 239.852 299.691 237.36 299.563 234.613C309.681 235.635 318.777 233.322 326.954 227.623C335.437 221.707 339.091 213.082 340.496 202.438V202.426Z" fill="white"/>
<path d="M562.485 658.362C560.173 658.004 557.822 657.813 555.561 657.276C547.346 655.296 541.955 650.159 539.361 642.16C536.781 634.187 537.866 626.635 542.466 619.658C546.26 613.896 551.754 610.931 558.614 610.535C566.765 610.062 574.175 612.528 580 617.997C585.762 623.402 589.02 630.187 587.104 638.646C584.319 650.938 575.35 658.196 562.485 658.362ZM575.874 634.084C576.078 630.788 574.673 628.13 572.425 625.907C569.614 623.121 565.245 622.342 562.293 623.926C555.522 627.593 553.657 636.154 558.269 642.288C560.62 645.418 563.724 646.389 567.442 645.508C572.271 644.371 575.772 639.566 575.874 634.084Z" fill="#817EB9"/>
<path d="M140.161 348.169C134.77 342.841 130.362 331.047 131.717 325.373C137.031 327.75 142.282 326.83 147.469 324.939C148.414 324.594 149.219 323.84 150.062 323.278C149.092 321.387 147.891 322.204 146.932 322.473C142.333 323.776 138.053 322.562 133.786 321.003C133.416 320.876 133.122 320.556 132.662 320.249C132.981 319.47 133.199 318.691 133.582 318.013C138.219 309.784 144.301 302.923 152.337 297.824C156.297 295.307 160.692 295.435 165.036 295.269C166.032 295.231 167.284 295.818 168.051 296.521C170.401 298.655 172.599 300.981 173.391 304.201C174.298 307.855 175.103 311.484 174.208 315.356C173.531 318.32 173.276 321.425 173.186 324.466C173.097 327.392 171.602 329.092 169.264 330.459C164.499 333.232 159.746 336.03 155.058 338.918C152.464 340.515 150.05 342.419 147.456 344.029C145.131 345.473 142.678 346.725 140.123 348.143L140.161 348.169Z" fill="#FF7756"/>
<path d="M662.058 635.988C661.573 625.217 670.018 614.79 681.158 613.896C682.576 613.781 683.994 613.614 685.425 613.512C689.577 613.218 693.691 613.397 697.064 616.17C701.177 619.569 704.985 623.274 706.428 628.705C707.616 633.19 707.284 637.598 705.866 641.968C702.621 651.897 693.946 658.707 683.585 659.218C681.516 659.321 679.267 658.899 677.312 658.158C667.59 654.491 661.701 645.687 662.058 635.988ZM680.404 637.637C680.506 638.646 680.519 639.681 680.724 640.665C682.154 647.233 689.207 649.52 694.189 645.009C697.319 642.173 698.827 638.582 698.431 634.34C698.073 630.494 695.773 627.977 692.324 626.609C688.964 625.281 686.115 626.673 683.726 629.012C681.337 631.35 680.379 634.314 680.404 637.637Z" fill="#817EB9"/>
<path d="M115.939 290.924C116.028 298.336 118.954 304.558 124.141 310.193C120.18 313.119 117.089 316.557 115.415 321.566C113.103 319.828 111.058 318.294 109.002 316.748C107.239 320.441 109.014 323.661 114.533 327.124C115.977 337.372 120.04 342.023 127.398 341.307C127.411 342.125 127.769 343.186 127.398 343.671C124.371 347.504 121.458 351.491 117.996 354.89C113.971 358.851 110.496 357.982 107.724 352.935C104.926 347.862 103.227 342.393 102.741 336.656C101.464 321.553 104.939 307.497 112.655 294.489C113.422 293.199 114.393 292.023 115.274 290.784C115.504 290.835 115.722 290.873 115.951 290.924H115.939Z" fill="#FF7756"/>
<path d="M638.117 610.727C640.864 613.883 643.84 616.949 646.395 620.323C648.912 623.645 651.404 626.788 656.131 627.172C654.367 635.17 654.687 642.671 658.047 649.89C648.286 651.628 636.418 644.166 632.572 634.059C629.429 625.804 631.933 614.662 638.104 610.727H638.117Z" fill="#56567C"/>
<path d="M294.504 460.332C294.389 458.62 294.286 456.895 294.146 455.183C293.545 447.312 291.795 439.671 289.764 432.068C287.873 424.976 286.059 417.872 284.194 410.678C285.586 409.464 286.966 408.416 288.141 407.189C288.627 406.678 288.665 405.758 288.908 405.03C288.09 404.8 287.247 404.302 286.468 404.391C285.395 404.519 284.373 405.107 283.044 405.605C282.367 402.871 281.728 400.264 281.064 397.555C282.175 397.095 283.133 396.776 284.028 396.316C284.973 395.83 285.906 395.051 285.407 393.926C285.101 393.236 284.143 392.648 283.363 392.431C282.418 392.176 281.345 392.367 280.374 392.367C278.726 388.662 273.641 359.72 273.705 354.289C274.254 354.021 274.931 353.804 275.468 353.395C276.132 352.884 277.193 352.168 277.142 351.606C277.039 350.188 275.698 350.609 274.727 350.597C274.331 350.597 273.922 350.545 273.552 350.533C272.248 346.048 272.862 328.938 274.561 323.917C275.672 330.408 276.848 336.643 277.819 342.917C280.846 362.48 284.73 381.877 288.665 401.273C290.607 410.857 292.677 420.453 294.069 430.126C295.5 440.105 296.216 450.199 294.516 460.332H294.504Z" fill="#C69C6D"/>
<path d="M534.174 600.134C530.584 606.446 532.462 611.532 536.844 616.323C534.775 619.927 533.037 623.786 532.245 628.028C531.44 632.283 531.594 636.525 532.271 640.806C531.939 640.806 531.67 640.895 531.568 640.806C528.068 637.432 524.248 634.366 521.782 630.008C516.442 620.54 519.776 609.359 527.339 602.983C529.077 601.527 531.223 600.479 534.174 600.147V600.134Z" fill="#56567C"/>
<path d="M283.925 152.848C282.852 151.506 281.958 150.394 281.025 149.232C295.04 134.972 306.564 118.654 319.557 103.449C319.314 104.075 319.11 104.727 318.828 105.327C315.494 112.444 312.351 119.651 308.748 126.615C304.954 133.937 300.687 141.028 296.637 148.222C296.062 149.244 295.385 150.011 294.044 150.037C290.518 150.088 287.209 151.059 283.925 152.835V152.848Z" fill="#7C7C7C"/>
<path d="M696.936 510.523C696.719 514.088 694.751 517.155 691.787 518.292C688.683 519.493 684.863 518.586 682.525 516.094C680.174 513.59 679.587 510.255 681.209 507.06C682.487 504.53 683.969 502.333 687.265 501.643C691.826 500.697 694.751 503.087 695.952 506.409C696.425 507.725 696.616 509.156 696.923 510.523H696.936Z" fill="#817EB9"/>
<path d="M547.857 494.973C549.633 487.038 553.747 481.147 561.68 478.541C565.513 477.276 568.899 477.774 571.607 481.045C572.77 482.451 574.009 483.792 575.235 485.172C574.098 487.012 572.731 487.357 570.764 486.859C569.473 486.539 567.991 486.961 566.599 487.076C566.407 487.089 566.228 487.242 566.024 487.281C559.355 488.303 553.287 490.769 547.857 494.973Z" fill="#7E94A5"/>
<path d="M122.863 285.2C124.818 284.817 125.789 285.737 126.594 286.81C127.373 287.871 128.101 288.995 128.676 290.183C130.95 294.847 133.173 299.537 135.473 304.341C134.4 305.772 133.85 307.548 131.359 307.74C129.098 307.919 127.782 307.242 126.568 305.478C123.247 300.687 120.64 295.691 121.586 289.596C121.828 288.037 122.467 286.542 122.876 285.187L122.863 285.2Z" fill="#803C2B"/>
<path d="M674.272 554.811C673.186 554.262 672.304 553.827 671.308 553.329C674.885 543.72 678.411 534.252 681.988 524.617C682.934 524.988 683.547 525.23 684.467 525.588C681.464 535.517 678.909 545.407 674.272 554.798V554.811Z" fill="white"/>
<path d="M542.823 596.799C544.586 600.236 546.235 603.443 547.934 606.753C545.532 608.363 543.104 609.973 540.715 611.583C540.575 611.506 540.46 611.493 540.409 611.417C536.998 605.897 537.062 607.187 539.974 601.961C540.907 600.287 541.827 598.613 542.823 596.799Z" fill="#7E94A5"/>
<path d="M640.314 603.967C642.179 604.926 643.546 605.501 644.786 606.293C650.266 609.807 654.444 614.675 658.481 619.671C658.749 620.003 658.979 620.783 658.801 620.962C658.456 621.319 657.791 621.652 657.331 621.588C655.619 621.319 653.895 620.911 652.847 619.313C649.474 614.177 645.412 609.641 641.042 605.347C640.851 605.168 640.787 604.862 640.327 603.967H640.314Z" fill="#7E94A5"/>
<path d="M124.971 335.123C122.212 334.011 121.343 331.66 120.998 329.104C120.168 322.946 122.94 318.537 128.536 314.832C127.207 318.627 125.661 321.757 125.086 325.054C124.524 328.274 124.958 331.66 124.958 335.123H124.971Z" fill="#FF7756"/>
<path d="M143.304 204.112C142.027 203.116 141.171 202.438 140.187 201.672C140.851 200.356 141.452 199.206 142.142 197.864C143.023 197.928 143.892 197.979 145.22 198.068C144.556 200.164 143.994 201.978 143.317 204.112H143.304Z" fill="#C69C6D"/>
<path d="M146.243 195.717C145.335 195.385 144.786 195.193 143.994 194.899C145.45 191.692 147.29 188.932 149.513 186.428C149.705 186.517 149.896 186.619 150.088 186.709C148.849 189.609 147.61 192.51 146.243 195.704V195.717Z" fill="#C69C6D"/>
<path d="M294.223 218.449C289.892 218.283 286.238 217.835 283.006 215.906C281.945 215.267 280.821 214.322 280.31 213.235C278.572 209.555 277.052 205.773 275.532 201.991C274.523 199.461 274.586 197.097 275.711 194.363C277.269 190.593 278.572 186.734 280.974 183.399C282.277 181.598 283.657 179.77 285.305 178.288C289.368 174.608 294.248 174.238 298.758 177.343C300.649 178.646 302.361 180.384 303.702 182.249C307.663 187.744 309.732 194.03 310.167 200.764C310.793 210.45 303.076 218.589 294.223 218.449ZM292.038 212.686C299.09 212.89 304.098 207.805 303.459 201.339C302.948 196.203 301.313 191.385 298.528 187.015C297.672 185.661 296.535 184.409 295.296 183.387C293.149 181.636 291.412 181.636 289.163 183.22C288.256 183.859 287.439 184.652 286.711 185.495C283.977 188.613 282.213 192.254 281.013 196.203C280.54 197.749 280.54 199.167 281.179 200.649C282.226 203.077 283.466 205.467 284.206 207.984C285.139 211.165 287.413 212.2 290.3 212.571C291.003 212.66 291.719 212.66 292.038 212.673V212.686Z" fill="#3D3D3D"/>
<path d="M205.47 235.098C205.726 236.747 204.678 237.219 203.771 237.539C201.088 238.472 198.367 239.341 195.608 240.069C194.777 240.286 193.781 240.069 192.899 239.877C187.15 238.638 181.759 232.888 181.299 227.01C181.133 224.876 181.989 222.627 182.525 220.468C182.628 220.046 183.432 219.522 183.88 219.548C184.339 219.573 184.774 220.212 185.195 220.608C185.259 220.672 185.259 220.8 185.298 220.889C188.479 230.013 195.301 234.063 204.55 234.753C204.844 234.779 205.113 234.958 205.47 235.086V235.098Z" fill="#3D3D3D"/>
<path d="M564.734 508.837C565.257 508.926 566.382 509.041 567.455 509.309C569.384 509.808 570.61 511.111 571.173 513.002C572.437 517.232 568.784 522.739 564.414 523.224C561.782 523.518 559.585 522.407 558.359 520.03C557.464 518.318 556.596 516.58 556.979 514.523C557.63 510.958 560.441 508.696 564.746 508.837H564.734Z" fill="#3D3D3D"/>
<path d="M575.874 634.084C575.772 639.566 572.271 644.371 567.442 645.508C563.724 646.389 560.633 645.418 558.269 642.288C553.657 636.154 555.522 627.593 562.294 623.926C565.232 622.329 569.614 623.108 572.425 625.907C574.673 628.13 576.066 630.788 575.874 634.084ZM561.31 634.378C561.553 636.065 561.923 637.496 563.188 638.569C564.274 639.502 565.449 639.873 566.816 639.17C569.908 637.586 570.713 633.075 568.336 630.545C566.279 628.36 564.172 628.501 562.613 631.056C562 632.053 561.731 633.267 561.31 634.378Z" fill="#3D3D3D"/>
<path d="M680.404 637.637C680.366 634.314 681.337 631.35 683.726 629.012C686.115 626.673 688.964 625.281 692.324 626.609C695.773 627.964 698.073 630.494 698.431 634.34C698.827 638.582 697.319 642.186 694.189 645.009C689.207 649.52 682.154 647.233 680.724 640.665C680.506 639.681 680.506 638.646 680.404 637.637ZM685.77 637.317C686.064 638.569 686.14 639.4 686.46 640.128C686.984 641.355 688.044 641.7 689.207 641.176C691.238 640.256 693.014 636.448 692.119 634.391C691.723 633.471 690.74 632.487 689.833 632.232C689.168 632.053 687.891 632.832 687.418 633.548C686.613 634.762 686.217 636.244 685.77 637.317Z" fill="#3D3D3D"/>
<path d="M292.038 212.686C291.731 212.673 291.016 212.673 290.3 212.584C287.413 212.213 285.139 211.191 284.207 207.997C283.466 205.467 282.226 203.09 281.179 200.662C280.54 199.193 280.54 197.762 281.013 196.216C282.214 192.267 283.977 188.626 286.711 185.508C287.439 184.677 288.256 183.872 289.163 183.233C291.412 181.649 293.162 181.636 295.296 183.399C296.535 184.422 297.659 185.674 298.528 187.028C301.313 191.386 302.948 196.216 303.459 201.352C304.098 207.818 299.09 212.903 292.038 212.699V212.686Z" fill="#8C6239"/>
<path d="M561.31 634.378C561.731 633.267 562.012 632.053 562.613 631.056C564.172 628.501 566.28 628.36 568.336 630.545C570.713 633.075 569.908 637.586 566.816 639.17C565.449 639.873 564.274 639.502 563.188 638.569C561.923 637.483 561.565 636.052 561.31 634.378Z" fill="white"/>
<path d="M685.77 637.317C686.217 636.244 686.613 634.762 687.418 633.548C687.891 632.832 689.168 632.053 689.833 632.232C690.74 632.475 691.723 633.471 692.119 634.391C693.014 636.448 691.238 640.269 689.207 641.176C688.044 641.7 686.984 641.355 686.46 640.128C686.153 639.4 686.064 638.57 685.77 637.317Z" fill="white"/>
</g>
</g>
<defs>
<clipPath id="clip0_2097_2227">
<rect width="748" height="736" fill="white"/>
</clipPath>
</defs>
</svg>
