<svg width="474" height="474" viewBox="0 0 474 474" fill="none" xmlns="http://www.w3.org/2000/svg">
<g clip-path="url(#clip0_131_148)">
<path d="M443.793 346.64C443.711 347.26 443.558 347.874 443.552 348.494C443.514 354.759 441.945 360.723 439.893 366.571C437.314 373.928 433.902 380.917 430.226 387.78C428.356 391.275 425.931 394.413 423.297 397.359C421.015 399.91 418.08 400.952 414.629 400.343C414.02 400.234 413.378 400.223 412.759 400.261C409.335 400.475 405.912 400.848 402.483 400.919C395.735 401.057 388.982 401.029 382.234 401.068C372.792 401.117 363.351 401.155 353.914 401.205C353.805 401.205 353.695 401.26 353.52 401.309C353.41 401.518 353.251 401.753 353.157 402.017C352.104 404.946 350.48 407.563 348.823 410.175C344.813 416.489 338.932 420.357 332.217 423.182C330.269 424.005 328.327 424.839 326.358 425.607C325.464 425.958 324.52 426.205 323.576 426.408C319.89 427.203 316.214 428.087 312.5 428.701C308.95 429.288 305.362 429.683 301.775 429.99C294.867 430.577 287.939 430.775 281.021 430.363C274.92 430.001 268.819 429.403 262.757 428.602C255.675 427.664 248.581 426.671 241.597 425.201C224.837 421.673 209.449 414.986 196.233 403.926C180.175 390.49 170.371 373.176 165.5 352.965C164.194 347.551 163.969 341.988 163.941 336.425C163.941 335.882 163.941 335.339 163.695 334.757C163.579 334.933 163.431 335.092 163.36 335.284C160.354 343.255 157.298 351.204 154.374 359.203C152.015 365.649 149.661 372.09 146.775 378.322C144.043 384.214 140.9 389.832 136.39 394.589C130.794 400.486 124.249 404.826 116.295 406.817C112.58 407.75 108.866 408.754 105.086 409.308C101.767 409.791 98.3605 409.862 94.9975 409.807C89.5662 409.719 84.135 409.335 78.8189 408.084C69.7614 405.961 62.2015 401.496 56.5892 393.925C53.0507 389.152 50.9715 383.83 50.6368 377.916C50.4174 373.999 51.3226 370.186 52.535 366.472C54.2467 361.222 57.1104 356.641 60.8684 352.614C66.7276 346.327 72.8775 340.347 79.6803 335.075C85.8851 330.264 91.8101 325.123 97.351 319.582C105.07 311.863 111.9 303.426 116.838 293.611C120.59 286.156 124.238 278.645 127.964 271.173C129.236 268.616 130.624 266.115 131.914 263.558C136.846 253.771 143.983 245.822 152.393 238.931C152.827 238.575 153.249 238.201 153.825 237.708C146.342 231.229 140.252 223.74 135.222 215.335C130.196 206.936 125.994 198.235 124.025 188.47C123.739 188.371 123.437 188.207 123.119 188.152C117.403 187.192 112.367 184.684 107.769 181.267C103.622 178.183 99.8582 174.672 96.7366 170.525C92.6878 165.143 90.3782 159.059 89.462 152.421C87.8546 140.763 90.5976 130.081 96.6817 120.124C100.429 113.996 104.927 108.581 110.94 104.554C118.341 99.5949 126.444 97.0383 135.414 97.7625C140.23 98.152 144.877 99.3754 149.332 101.263C152.152 102.459 154.566 104.296 156.974 106.277C164.139 98.0039 172.154 90.839 182.062 86.0277C191.959 81.2219 202.525 79.3182 213.459 78.8848C213.635 77.7821 213.761 76.822 213.942 75.8729C214.875 70.9793 216.773 66.4588 219.428 62.2674C223.027 56.5838 227.69 51.9041 233.264 48.1461C239.178 44.1632 245.805 42.8136 252.751 43.6585C267.42 45.4524 277.756 53.5993 284.663 66.3655C286.836 70.3868 287.719 74.8525 288.196 79.3731C288.745 84.5904 288.449 89.7692 287.077 94.8604C285.678 100.056 282.815 104.302 278.782 107.808C278.618 107.95 278.387 108.027 278.14 108.164C278.541 108.685 278.777 108.998 279.018 109.305C289.25 122.379 295.915 137.081 299.24 153.326C300.946 161.659 301.753 170.069 301.286 178.573C300.167 199.009 293.063 216.998 279.238 232.216C278.826 232.671 278.431 233.143 277.915 233.736C280.861 235.568 283.116 237.982 285.294 240.478C285.475 240.687 285.739 240.846 285.985 240.966C289.579 242.738 293.205 244.478 297.205 245.108C302.97 246.019 308.385 245.306 313.493 242.08C320.515 237.647 326.073 231.849 330.582 224.98C333.062 221.205 335.377 217.321 337.763 213.481C337.879 213.295 337.944 213.075 338.109 212.708C336.792 212.483 335.569 212.285 334.351 212.055C327.658 210.793 321.025 209.279 314.623 206.925C312.434 206.119 310.316 205.076 308.237 204.007C307.288 203.524 306.405 202.816 305.67 202.037C304.139 200.424 304.145 198.466 305.725 196.82C307.107 195.382 308.599 194.033 310.141 192.76C315.907 188.009 322.265 184.169 328.848 180.674C329.298 180.438 329.732 180.175 330.505 179.736C329.869 179.665 329.578 179.599 329.293 179.604C324.032 179.736 318.77 179.917 313.504 179.999C311.562 180.032 309.603 179.966 307.683 179.703C306.476 179.538 305.308 178.984 304.172 178.485C303.514 178.194 303.415 177.322 303.958 176.719C304.364 176.263 304.902 175.868 305.461 175.621C307.65 174.645 309.883 173.756 312.077 172.791C314.063 171.918 316.038 171.024 317.997 170.086C320.153 169.049 322.282 167.952 324.531 166.827C323.05 159.081 321.574 151.23 320.038 143.396C319.281 139.528 318.403 135.683 317.591 131.82C317.355 130.707 317.618 129.971 318.381 129.604C319.242 129.192 319.977 129.522 320.537 130.153C321.058 130.745 321.535 131.414 321.887 132.122C322.627 133.603 323.307 135.117 323.96 136.643C325.815 140.96 327.971 145.119 330.45 149.107C332.475 152.36 334.494 155.619 336.524 158.872C336.825 159.355 337.149 159.821 337.506 160.37C339.124 160.024 340.397 159.048 341.763 158.274C342.701 157.742 343.655 157.194 344.665 156.831C345.883 156.393 346.887 157.073 346.673 158.318C346.289 160.507 347.062 162.499 347.359 164.572C347.501 165.582 347.666 166.586 347.841 167.721C348.79 167.612 349.685 167.513 350.579 167.403C354.688 166.909 358.803 166.931 362.901 167.48C363.702 167.59 364.316 167.42 364.964 166.964C371.459 162.449 378.339 158.554 385.476 155.186C389.903 153.095 394.627 151.614 399.246 149.952C401.463 149.156 403.772 149.288 406.011 149.946C410.432 151.241 414.459 153.414 418.47 155.619C419.314 156.085 420.181 156.519 421.059 156.908C423.648 158.055 424.203 159.629 422.765 162.098C420.368 166.224 417.383 169.921 414.19 173.438C410.997 176.949 407.662 180.328 403.602 183.022C403.772 183.368 403.909 183.664 404.058 183.949C404.217 184.251 404.387 184.542 404.634 184.986C405.928 184.613 407.25 184.306 408.507 183.829C408.896 183.68 409.182 183.11 409.396 182.677C410.175 181.086 410.888 179.462 411.667 177.871C411.914 177.361 412.226 176.861 412.61 176.45C413.384 175.616 414.481 175.435 415.43 175.885C416.401 176.346 416.972 177.295 416.807 178.414C416.709 179.083 416.462 179.741 416.198 180.367C415.485 182.051 414.723 183.713 413.938 185.485C416.785 187.888 418.826 190.763 419.1 194.653C419.655 194.894 420.187 195.092 420.686 195.355C421.185 195.618 421.717 195.876 422.123 196.26C422.919 197.006 423.319 197.928 422.924 199.047C422.557 200.084 421.63 200.715 420.379 200.715C419.929 200.715 419.474 200.616 419.035 200.512C418.596 200.408 418.173 200.232 417.647 200.057C414.24 204.967 409.719 206.969 403.822 205.235C403.026 205.691 402.642 206.245 403.07 207.194C405.495 212.592 406.027 218.325 405.939 224.141C405.83 231.629 404.754 238.953 401.918 245.948C398.983 253.184 395.258 259.998 390.858 266.444C387.665 271.124 383.589 274.947 379.184 278.464C372.008 284.192 364.272 289.069 356.328 293.633C349.827 297.369 342.794 299.405 335.382 300.266C334.439 300.376 333.501 300.518 332.563 300.644C332.48 300.782 332.403 300.919 332.321 301.056C332.656 301.264 333.023 301.429 333.32 301.681C337.544 305.313 341.318 309.378 344.72 313.778C345.422 314.689 346.217 315.183 347.331 315.512C356.12 318.107 364.645 321.398 373.001 325.151C373.878 325.546 374.756 325.935 375.733 326.374C376.111 324.207 376.424 322.177 376.83 320.169C378.075 314.052 380.237 308.314 383.869 303.179C388.488 296.65 394.484 292.042 402.258 289.897C405.396 289.03 408.573 288.932 411.777 289.535C423.067 291.675 431.263 297.879 436.316 308.21C439.229 314.173 440.858 320.532 442.054 327.016C442.954 331.915 443.519 336.858 443.547 341.851C443.547 342.641 443.706 343.431 443.793 344.226V346.629V346.64ZM128.205 188.563C128.282 189.018 128.293 189.419 128.413 189.781C129.214 192.162 129.971 194.565 130.871 196.913C133.757 204.429 137.795 211.341 142.112 218.095C149.189 229.155 158.614 237.582 170.442 243.342C180.998 248.482 192.069 251.67 203.776 252.657C210.859 253.255 217.941 253.469 225.029 252.877C226.055 252.789 227.076 252.646 228.102 252.526C227.586 251.994 227.07 251.774 226.565 251.527C220.333 248.466 215.665 243.874 213.613 237.17C211.791 231.207 211.715 225.095 213.75 219.099C217.036 209.421 222.796 201.675 231.794 196.617C238.849 192.65 246.491 191.372 254.506 192.239C262.384 193.089 268.77 196.864 273.631 202.915C279.078 209.696 279.929 217.546 277.701 225.819C277.537 226.428 277.383 227.037 277.224 227.652C277.35 227.712 277.477 227.767 277.603 227.827C280.099 224.278 282.765 220.843 285.058 217.168C293.085 204.292 296.349 190.028 296.81 175.045C296.93 171.062 296.53 167.047 296.151 163.064C295.46 155.751 294.012 148.597 291.34 141.717C288.147 133.477 284.438 125.5 279.325 118.259C270.975 106.436 260.064 97.5211 247.391 90.7129C243.09 88.4032 238.47 86.8451 233.643 86.0332C230.263 85.4627 226.862 84.9854 223.455 84.6178C212.62 83.4547 201.988 84.5026 191.597 87.8052C191.251 87.9149 190.933 88.0905 190.406 88.3209C197.445 92.0186 202.278 97.8393 207.167 103.561C208.555 103.046 209.822 102.53 211.117 102.113C211.928 101.855 212.779 101.658 213.624 101.586C214.71 101.493 215.549 102.047 215.835 102.859C216.153 103.759 215.791 104.719 214.765 105.306C213.925 105.783 213.004 106.123 212.12 106.518C211.424 106.831 210.722 107.133 210.041 107.435C212.219 111.297 214.293 114.978 216.394 118.708C217.162 118.538 217.875 118.303 218.594 118.259C218.984 118.231 219.521 118.418 219.768 118.703C220.163 119.164 219.889 119.685 219.472 120.053C218.923 120.541 218.353 121.002 217.711 121.539C219.269 125.862 220.948 130.125 221.441 134.728C218.72 131.162 217.113 126.998 214.962 123.015C214.167 123.438 213.53 123.816 212.861 124.118C211.199 124.869 209.531 125.632 207.836 126.307C207.073 126.614 206.19 127.053 205.444 126.301C205.01 125.862 205.488 124.996 206.744 124.184C208.423 123.097 210.173 122.126 211.896 121.106C212.417 120.799 212.932 120.497 213.525 120.146C211.248 116.245 209.361 112.345 206.733 108.861C206.058 109.141 205.526 109.349 205.01 109.585C201.735 111.088 198.477 112.619 195.19 114.1C194.307 114.495 193.38 114.824 192.442 115.038C192.091 115.121 191.531 114.89 191.29 114.616C191.12 114.418 191.185 113.776 191.388 113.546C191.981 112.866 192.617 112.169 193.363 111.686C196.584 109.618 199.854 107.621 203.101 105.591C203.332 105.449 203.551 105.278 203.831 105.081C203.584 104.746 203.42 104.439 203.184 104.203C199.469 100.478 195.799 96.7092 192.003 93.0664C190.867 91.9747 189.37 91.2615 188.058 90.3508C187.104 89.6815 186.221 89.7473 185.189 90.2685C179.407 93.209 173.932 96.6214 168.961 100.802C166.026 103.271 163.102 105.745 160.172 108.219C159.832 108.504 159.509 108.812 159.158 109.135C161.023 112.279 162.625 115.439 163.108 119.087C162.515 118.868 162.021 118.588 161.632 118.204C159.964 116.558 158.274 114.929 156.694 113.2C153.183 109.36 149.047 106.54 144.06 104.966C139.358 103.479 134.624 103.534 129.807 104.247C121.594 105.46 114.49 108.855 108.806 114.923C103.825 120.234 99.9569 126.29 97.6912 133.269C96.4513 137.087 95.5955 141.004 95.5406 145.042C95.4199 154.582 98.141 163.064 104.878 170.075C109.991 175.396 115.867 179.517 122.785 182.172C126.499 183.598 130.295 184.086 134.229 183.757C135.2 183.675 136.171 183.56 137.136 183.587C137.871 183.609 138.941 183.22 139.188 184.268C139.408 185.2 138.475 185.694 137.767 185.963C135.748 186.731 133.697 187.438 131.623 188.042C130.547 188.355 129.39 188.404 128.183 188.591L128.205 188.563ZM180.575 284.608C180.361 285.058 180.186 285.344 180.093 285.645C179.275 288.207 178.491 290.775 177.668 293.331C174.623 302.795 172.352 312.511 168.319 321.645C167.551 323.384 166.86 325.118 167.337 327.082C167.403 327.351 167.359 327.653 167.343 327.938C167.096 332.288 167.321 336.628 167.765 340.956C168.171 344.939 168.698 348.9 169.691 352.795C172.121 362.319 176.389 371.009 181.552 379.304C186.934 387.95 193.676 395.362 201.752 401.545C213.986 410.91 227.855 416.588 242.925 419.369C250.117 420.697 257.37 421.723 264.612 422.76C268.112 423.259 271.617 423.813 275.194 423.627C281.476 423.292 287.763 423.023 294.05 422.853C297.484 422.76 300.908 422.771 304.298 422.123C305.362 421.92 306.454 421.866 307.535 421.75C310.607 421.427 313.674 421.114 316.746 420.779C317.174 420.73 317.596 420.587 318.019 420.488C314.376 418.887 310.931 417.131 307.924 414.498C306.827 414.991 305.796 415.474 304.748 415.913C304.172 416.154 303.568 416.484 302.97 416.489C302.488 416.495 301.873 416.198 301.544 415.831C301.089 415.321 301.44 414.745 301.879 414.328C302.208 414.015 302.592 413.757 302.97 413.499C303.706 412.989 304.446 412.495 305.34 411.897C302.504 408.907 300.875 405.391 299.437 401.72C298.669 401.896 298.066 402.072 297.451 402.159C296.661 402.269 295.86 402.384 295.076 402.34C294.785 402.324 294.396 401.929 294.275 401.622C294.204 401.43 294.5 400.991 294.741 400.815C295.103 400.552 295.559 400.426 295.981 400.25C296.81 399.905 297.643 399.559 298.461 399.219C298.423 398.884 298.428 398.714 298.379 398.56C296.266 391.752 295.049 384.796 294.632 377.68C294.176 369.972 294.632 362.369 296.755 354.902C298.615 348.385 301.698 342.613 306.838 338.065C306.997 337.922 307.091 337.709 307.2 337.555C303.579 331.948 298.126 328.854 291.598 328.525C289.968 328.443 288.652 328.832 287.675 330.121C285.678 332.76 283.511 335.306 281.783 338.115C276.39 346.887 273.132 356.504 271.135 366.555C270.41 370.197 269.999 373.9 269.395 377.565C269.236 378.514 268.968 379.469 268.595 380.358C268.243 381.197 267.508 381.213 267.053 380.407C266.696 379.765 266.438 379.052 266.263 378.333C265.435 374.959 265.456 371.525 265.775 368.096C266.362 361.804 267.799 355.692 269.73 349.685C269.878 349.218 269.977 348.736 270.136 348.105C269.67 348.105 269.395 348.083 269.121 348.105C264.101 348.555 259.115 349.334 254.259 350.634C249.514 351.901 244.873 353.531 240.176 354.995C239.414 355.231 238.646 355.462 237.861 355.604C237.296 355.708 236.654 355.692 236.397 355.028C236.144 354.375 236.583 353.964 237.055 353.596C240.763 350.7 244.609 348.011 249.031 346.311C256.031 343.617 263.284 342.163 270.8 342.103C271.359 342.103 271.914 342.103 272.479 342.103C272.874 341.269 273.219 340.556 273.559 339.832C278.069 330.247 284.411 322.446 294.264 317.799C299.212 315.468 304.21 313.767 309.724 313.877C310.075 313.882 310.426 313.778 310.986 313.69C310.415 313.048 310.048 312.533 309.587 312.121C306.602 309.455 303.59 306.822 300.611 304.155C299.706 303.344 298.768 303.223 297.611 303.541C294.418 304.419 291.197 305.209 287.988 306.037C287.489 306.163 286.94 306.372 286.622 305.774C286.315 305.187 286.699 304.764 287.154 304.496C288.827 303.514 290.501 302.537 292.207 301.621C293.002 301.193 293.874 300.913 294.736 300.557C294.621 300.381 294.577 300.266 294.494 300.206C294.264 300.041 294.023 299.882 293.77 299.75C288.63 296.958 283.259 294.719 277.641 293.057C274.278 292.064 270.986 291.993 267.525 292.832C261.002 294.423 254.72 296.678 248.439 298.982C246.678 299.629 244.823 300.024 243.002 300.502C242.623 300.6 242.195 300.644 241.811 300.579C241.515 300.524 241.115 300.31 241.027 300.068C240.939 299.821 241.093 299.388 241.285 299.158C241.57 298.812 241.959 298.543 242.343 298.296C247.643 294.895 253.036 291.664 258.895 289.283C259.301 289.118 259.685 288.904 260.234 288.641C259.685 287.895 259.263 287.22 258.741 286.638C257.677 285.442 256.635 284.219 255.45 283.149C254.051 281.887 252.482 280.812 251.061 279.578C250.359 278.969 249.755 278.919 248.894 279.188C244.746 280.483 240.659 280.209 236.66 278.519C236.259 278.349 235.842 278.217 235.415 278.058C235.025 278.612 234.701 279.084 234.378 279.55C230 285.804 225.177 291.691 219.362 296.661C217.031 298.658 214.463 300.447 211.791 301.961C204.89 305.873 197.412 305.061 191.377 299.909C190.077 298.801 188.881 297.545 187.79 296.234C185.255 293.189 183.198 289.82 181.453 286.265C181.206 285.761 180.926 285.267 180.581 284.603L180.575 284.608ZM75.2146 400.234C76.8385 400.717 78.2429 401.194 79.6748 401.556C84.4751 402.763 89.3907 403.021 94.3062 403.257C97.6802 403.421 101.065 403.498 104.401 402.818C107.594 402.17 110.765 401.413 113.936 400.667C120.59 399.104 126.126 395.603 130.948 390.847C134.997 386.853 137.987 382.13 140.444 377.066C143.44 370.894 146.386 364.695 149.233 358.452C153.913 348.193 157.682 337.582 161.549 327C164.375 319.27 167.496 311.65 170.453 303.969C171.211 301.999 171.847 299.975 172.516 297.973C173.367 295.427 174.19 292.871 175.029 290.32C175.868 287.768 176.62 285.185 177.574 282.677C178.386 280.543 178.551 278.513 177.542 276.418C177.273 275.858 177.174 275.216 177.031 274.607C175.21 267.042 174.859 259.339 174.99 251.599C175.001 251.039 174.99 250.479 174.99 249.887C168.111 247.001 161.593 243.611 155.63 239.156C153.293 241.4 151.038 243.512 148.844 245.679C143.769 250.699 139.369 256.256 136.083 262.604C133.795 267.015 131.639 271.502 129.626 276.045C126.8 282.42 124.211 288.899 121.435 295.301C116.585 306.471 109.448 316.071 100.988 324.734C95.387 330.472 89.3742 335.755 83.0707 340.726C76.5861 345.839 70.6995 351.605 65.1476 357.711C60.9178 362.363 58.3283 367.844 57.3573 374.049C56.9458 376.682 56.9239 379.348 57.6371 382.075C57.8017 381.866 57.9059 381.789 57.9333 381.691C58.054 381.252 58.1473 380.802 58.257 380.358C59.2994 376.1 60.9287 372.096 63.3152 368.409C65.3286 365.298 68.0003 362.983 71.4017 361.474C73.7223 360.443 76.1527 359.845 78.6379 359.412C78.989 359.351 79.3566 359.401 79.7187 359.401C79.7516 359.51 79.79 359.626 79.8229 359.735C79.3785 360.042 78.9561 360.388 78.4843 360.657C76.9921 361.507 75.4834 362.325 73.9857 363.153C71.3908 364.585 69.2128 366.5 67.4682 368.892C65.0927 372.156 63.2878 375.716 62.0808 379.568C61.2195 382.322 60.819 385.147 60.9726 388.027C61.0055 388.664 61.2414 389.382 61.6145 389.898C64.0339 393.228 67.0293 395.938 70.6337 397.946C70.9464 398.122 71.2975 398.22 71.5828 398.33C71.8406 396.234 71.9887 394.232 72.3563 392.279C73.2835 387.38 75.0555 382.843 78.2813 378.942C81.5675 374.965 85.9838 373.615 90.9103 373.456C91.4644 373.44 92.0295 373.676 92.5946 373.791C92.6055 373.939 92.622 374.092 92.633 374.241C91.4699 374.795 90.3233 375.387 89.1383 375.892C84.8317 377.741 81.5181 380.648 79.3182 384.834C77.5187 388.269 76.4544 391.928 75.7522 395.708C75.4834 397.145 75.4066 398.621 75.231 400.212L75.2146 400.234ZM366.346 201.203C365.759 201.445 365.545 201.51 365.348 201.62C358.655 205.235 352.027 208.971 344.95 211.808C344.665 211.923 344.374 212.175 344.221 212.439C341.582 217.047 339.003 221.688 336.315 226.269C335.278 228.041 334.038 229.703 332.815 231.355C328.234 237.549 322.677 242.651 315.956 246.496C308.484 250.77 300.732 251.352 292.657 248.576C292.141 248.4 291.62 248.241 290.802 247.972C291.186 248.707 291.389 249.157 291.642 249.58C294.368 254.199 296.266 259.142 297.364 264.392C298.143 268.134 298.417 271.87 297.292 275.589C295.833 280.428 293.172 282.173 288.196 281.619C286.435 281.421 284.669 281.251 282.908 281.037C275.737 280.165 268.671 278.843 261.945 276.067C260.212 275.353 258.467 274.673 256.777 273.998C255.488 275.2 254.259 276.346 252.866 277.641C257.353 280.066 260.908 283.402 263.635 287.549C269.642 285.728 275.617 284.74 281.63 283.95C287.807 283.138 293.935 283.292 300.041 284.691C309.762 286.924 318.606 291.082 326.813 296.661C327.636 297.221 328.377 297.435 329.342 297.188C332.996 296.261 336.677 295.427 340.325 294.478C345.214 293.211 349.882 291.356 354.331 288.948C362.604 284.466 370.389 279.26 377.724 273.367C382.409 269.604 386.387 265.226 389.415 260.014C389.624 259.658 389.755 259.263 389.936 258.857C388.164 258.774 386.551 258.829 384.977 258.599C383.402 258.368 381.866 257.875 380.325 257.452C379.776 257.299 379.332 257.299 378.926 257.748C378.739 257.957 378.509 258.204 378.256 258.264C377.839 258.363 377.291 258.484 376.984 258.292C376.693 258.111 376.55 257.551 376.512 257.145C376.479 256.783 376.687 256.399 376.731 256.24C373.851 254.034 371.097 251.922 368.332 249.81C367.295 250.084 366.198 250.397 365.09 250.666C364.426 250.825 363.79 250.721 363.488 250.035C363.164 249.289 363.663 248.855 364.245 248.526C364.969 248.12 365.71 247.731 366.286 247.418C365.145 245.158 363.954 243.128 363.071 240.972C361.134 236.254 360.394 231.251 360.47 226.198C360.597 217.93 362.325 209.975 365.825 202.443C365.962 202.152 366.072 201.845 366.335 201.198L366.346 201.203ZM414.267 394.742C414.35 394.616 414.426 394.49 414.509 394.364C405.654 385.948 402.406 375.091 400.991 363.493C399.603 363.219 398.357 363.032 397.156 362.703C396.821 362.61 396.382 362.078 396.399 361.765C396.415 361.441 396.865 361.014 397.222 360.854C397.672 360.657 398.226 360.69 398.736 360.613C399.394 360.52 400.053 360.416 400.733 360.317C400.733 359.861 400.749 359.582 400.733 359.302C400.173 349.679 401.106 340.232 403.931 330.988C406.268 323.346 409.599 316.269 415.315 310.503C415.43 310.388 415.485 310.212 415.617 309.982C410.69 304.408 405.001 300.282 397.167 300.09C396.13 300.063 395.302 300.31 394.495 300.968C389.651 304.88 386.321 309.878 384.05 315.605C381.735 321.442 380.517 327.543 379.935 333.775C379.699 336.282 379.507 338.789 379.227 341.291C379.123 342.213 379.145 343.266 378.026 343.804C377.746 343.584 377.439 343.414 377.23 343.156C376.984 342.849 376.775 342.487 376.638 342.119C375.508 339.064 375.513 335.849 375.48 332.683C367.24 329.101 359.099 325.562 350.705 321.914C351.051 322.523 351.254 322.907 351.479 323.286C352.9 325.699 354.403 328.069 355.741 330.527C359.318 337.127 361.639 344.149 362.533 351.621C363.186 357.031 363.23 362.467 363.093 367.899C363.027 370.57 362.637 373.248 362.22 375.897C361.76 378.832 361.041 381.724 360.553 384.648C359.905 388.515 358.912 392.246 356.751 395.582C356.718 395.631 356.822 395.768 356.789 395.686C363.592 395.45 370.329 395.115 377.071 395.005C383.534 394.901 390.002 395.082 396.465 395.044C402.406 395.005 408.342 394.841 414.284 394.731L414.267 394.742ZM314.321 411.897C314.563 412.117 314.667 412.248 314.81 412.331C319.456 415.145 324.476 416.418 329.896 415.858C331.306 415.716 332.809 415.54 334.044 414.92C336.546 413.664 338.932 412.095 340.759 409.939C344.034 406.065 346.662 401.803 347.924 396.799C348.609 394.062 348.845 391.275 348.95 388.472C349.257 380.275 348.445 372.139 347.605 363.998C347.26 360.635 346.009 357.788 343.952 355.127C340.633 350.826 336.886 347.035 332.299 344.105C331.882 343.842 331.454 343.601 330.983 343.321C330.856 343.721 330.769 343.99 330.686 344.259C330.582 344.588 330.56 344.978 330.363 345.225C330.022 345.641 329.627 346.13 329.15 346.3C328.404 346.569 327.68 346.009 327.455 345.016C327.241 344.072 327.153 343.096 327.06 342.13C326.978 341.291 326.594 340.737 325.771 340.528C324.388 340.177 323.022 339.695 321.618 339.519C319.286 339.234 316.966 339.42 314.683 340.424C314.804 340.891 314.897 341.269 314.991 341.642C315.309 342.915 315.682 344.182 315.929 345.471C316.28 347.304 315.534 348.758 314.168 349.081C312.703 349.432 311.534 348.56 310.986 346.689C310.827 346.141 310.733 345.576 310.58 345.022C310.432 344.495 310.245 343.979 310.037 343.326C309.598 343.672 309.274 343.891 309 344.16C307.25 345.839 305.884 347.803 304.742 349.937C302.438 354.238 301.253 358.896 300.705 363.68C299.465 374.548 300.474 385.251 303.563 395.752C303.706 396.229 303.909 396.684 304.139 397.299C305.22 396.997 306.196 396.723 307.173 396.459C307.667 396.322 308.182 396.059 308.66 396.119C309.082 396.174 309.696 396.52 309.795 396.865C309.894 397.211 309.57 397.825 309.247 398.111C308.885 398.429 308.314 398.511 307.831 398.687C306.893 399.021 305.949 399.35 304.896 399.724C306.388 403.503 307.935 406.96 311.041 409.401C311.43 409.264 311.699 409.165 311.968 409.072C312.67 408.831 313.356 408.523 314.074 408.37C314.799 408.216 315.429 408.479 315.786 409.198C316.137 409.917 315.951 410.542 315.413 411.069C315.133 411.343 314.793 411.552 314.338 411.897H314.321ZM249.662 197.045C248.323 197.165 246.71 197.187 245.147 197.478C233.209 199.7 225.183 206.815 220.185 217.629C217.892 222.593 217.272 227.8 218.177 233.209C219.461 240.879 223.861 245.926 231.102 248.45C233.341 249.229 235.788 249.432 238.141 249.876C240.039 250.233 241.883 249.931 243.731 249.426C251.791 247.237 259.043 243.441 265.72 238.481C266.082 238.212 266.444 237.911 266.724 237.56C270.515 232.759 273.159 227.405 274.009 221.315C274.882 215.083 273.296 209.394 268.957 204.824C265.396 201.066 260.958 198.542 255.73 197.725C253.809 197.429 251.867 197.281 249.667 197.039L249.662 197.045ZM407.656 363.91C408.99 374.252 412.215 383.545 420.055 390.902C421.937 388.713 423.583 386.513 424.773 384.05C427.483 378.443 430.248 372.853 432.651 367.109C435.861 359.439 437.578 351.413 437.183 343.03C436.865 336.222 436.102 329.468 434.456 322.836C433.299 318.162 431.872 313.586 429.502 309.356C429.178 308.775 428.816 308.21 428.443 307.601C426.2 308.49 424.351 309.68 422.645 311.112C423.725 316.055 424.027 320.916 422.617 325.782C420.697 322.397 420.829 318.321 418.81 314.837C418.376 315.303 418.097 315.572 417.85 315.879C415.013 319.39 413.022 323.362 411.491 327.581C407.876 337.566 406.609 347.885 407.152 358.457C407.179 358.951 407.3 359.445 407.371 359.933C408.973 359.933 410.454 359.911 411.936 359.938C413.631 359.971 414.613 360.739 414.596 361.963C414.58 363.181 413.592 363.894 411.875 363.91C410.57 363.921 409.258 363.91 407.651 363.91H407.656ZM217.519 78.8354C224.503 79.0823 231.338 79.8778 238.081 81.4084C239.458 75.7138 243.155 72.3947 248.236 70.4417C250.172 69.6956 252.213 69.4761 254.309 69.7285C258.736 70.2551 262.121 72.4386 264.639 76.0595C267.991 80.8817 269.878 86.2088 269.911 92.0954C269.922 94.3447 270.109 96.6982 268.479 98.7171C270.29 100.363 272.051 101.965 273.801 103.561C277.767 100.138 280.461 96.0728 281.245 90.9213C281.553 88.8915 281.805 86.8342 281.838 84.7879C281.931 78.6983 281.015 72.7788 277.817 67.4792C273.071 59.6066 266.471 53.8956 257.551 51.2513C249.629 48.9032 242.042 49.589 235.168 54.5484C226.96 60.4734 221.057 68.1485 217.738 77.7547C217.634 78.0619 217.612 78.402 217.524 78.8409L217.519 78.8354ZM371.388 244.554C372.469 244.11 373.346 243.688 374.263 243.38C374.976 243.144 375.656 243.342 376.018 244.061C376.38 244.785 376.1 245.405 375.497 245.866C374.976 246.261 374.411 246.606 373.736 247.056C375.788 248.855 377.823 250.331 380.182 251.346C380.846 250.584 381.334 249.947 381.905 249.393C382.557 248.757 383.265 248.175 383.989 247.621C384.522 247.21 385.152 247.067 385.723 247.55C386.299 248.038 386.228 248.68 385.948 249.278C385.635 249.947 385.257 250.589 384.873 251.22C384.615 251.642 384.297 252.032 384.022 252.41C384.181 252.575 384.242 252.701 384.335 252.729C387.297 253.524 390.227 253.403 393.085 252.29C393.552 252.109 394.023 251.62 394.226 251.154C395.587 248.005 397.052 244.889 398.144 241.652C400.733 233.999 401.221 226.088 400.437 218.1C400.036 214.019 398.884 210.14 396.723 206.607C396.415 206.102 396.037 205.641 395.576 205.005C395.324 206.201 395.801 207.254 394.89 208.011C393.782 207.874 393.162 207.117 392.625 206.311C391.955 205.312 391.335 204.281 390.759 203.228C390.342 202.465 389.794 202.064 388.905 201.944C387.149 201.697 385.416 201.335 383.677 201C382.634 200.797 381.597 200.567 380.555 200.347C382.02 202.377 383.545 204.231 384.275 206.563C385.01 208.9 385.558 211.265 384.884 214.09C384.214 213.492 383.666 213.124 383.271 212.636C381.548 210.502 379.897 208.308 378.174 206.174C376.55 204.166 374.74 202.333 372.54 200.945C372.03 200.622 371.487 200.342 370.96 200.04C370.757 200.325 370.642 200.452 370.565 200.605C370.334 201.066 370.099 201.521 369.901 201.999C366.5 210.08 364.92 218.517 365.282 227.268C365.463 231.629 366.346 235.892 368.266 239.869C369.084 241.57 370.016 243.194 371.393 244.56L371.388 244.554ZM228.255 256.734C227.591 256.734 227.136 256.695 226.686 256.739C220.981 257.293 215.275 257.326 209.547 257.15C199.343 256.843 189.446 255.022 179.802 251.73C179.401 251.593 178.979 251.527 178.249 251.352C179.259 257.397 180.043 263.235 181.239 268.979C183.165 278.261 187.4 286.512 193.193 293.984C193.835 294.813 194.499 295.647 195.476 296.294C195.783 295.668 196.024 295.213 196.238 294.752C199.524 287.653 204.621 282.26 211.528 278.601C215.73 276.374 220.053 274.432 224.733 273.4C227.125 272.874 229.511 272.309 232.117 271.705C231.909 269.933 231.678 268.189 231.514 266.438C231.382 265.001 230.625 264.244 229.265 263.8C222.879 261.72 216.559 261.227 210.156 263.844C207.26 265.029 204.204 265.83 201.209 266.773C200.781 266.91 200.298 266.866 199.837 266.905C199.804 266.79 199.771 266.674 199.738 266.559C200.227 266.197 200.682 265.78 201.203 265.473C203.425 264.178 205.68 262.944 207.902 261.644C214.414 257.842 221.255 257.765 228.294 259.767C228.65 259.872 229.012 259.97 229.698 260.162C229.144 258.835 228.716 257.803 228.266 256.723L228.255 256.734ZM373.774 190.302C373.692 190.193 373.643 190.083 373.555 190.017C373.33 189.841 373.099 189.671 372.858 189.518C368.118 186.473 363.137 183.862 357.645 182.567C351.813 181.19 345.877 180.274 340.013 179.028C338.444 178.694 337.314 179.094 336.085 179.983C327.718 186.067 319.308 192.096 310.925 198.153C310.541 198.427 310.229 198.8 309.779 199.228C312.247 200.649 314.705 201.582 317.201 202.377C323.467 204.374 329.858 205.877 336.282 207.26C339.585 207.973 342.503 207.49 345.543 206.069C355.198 201.56 364.228 195.942 373.456 190.675C373.588 190.598 373.664 190.423 373.769 190.297L373.774 190.302ZM355.401 376.934C356.087 375.458 356.169 374.136 356.213 372.88C356.372 368.31 356.515 363.74 356.477 359.17C356.4 350.398 354.43 342.054 350.294 334.28C346.272 326.731 341.472 319.709 335.777 313.312C327.296 303.788 316.949 297.067 304.935 292.903C299.004 290.846 292.914 289.628 286.583 290.056C285.08 290.16 283.577 290.331 282.074 290.468C282.551 291 283.05 291.197 283.561 291.378C288.685 293.205 293.737 295.191 298.368 298.093C299.558 298.839 300.661 299.218 302.043 298.828C303.069 298.538 304.128 298.598 304.847 299.564C305.522 300.474 304.935 301.281 304.408 302.087C304.858 302.46 305.242 302.795 305.648 303.102C309.603 306.158 313.164 309.62 316.307 313.504C316.96 314.31 317.673 314.782 318.688 314.985C323.445 315.94 327.658 318.057 331.339 321.179C339.003 327.68 344.945 335.525 348.982 344.725C352.159 351.951 353.909 359.571 354.562 367.438C354.814 370.499 355.1 373.555 355.401 376.934ZM253.179 250.364C254.802 252.081 256.306 253.678 257.886 255.357C260.557 252.465 263.948 250.99 267.826 250.567C271.881 250.123 276.95 251.78 278.272 254.15C277.608 254.117 277.065 254.095 276.516 254.056C274.695 253.93 272.857 253.568 271.058 253.705C267.086 254.018 263.536 255.505 260.437 258.067C259.575 258.774 259.252 259.433 259.537 260.552C260.091 262.686 259.954 264.864 259.619 267.025C259.553 267.453 259.51 267.887 259.427 268.534C260.146 268.243 260.673 268.046 261.188 267.826C262.977 267.064 264.721 266.181 266.554 265.555C275.628 262.45 284.405 262.576 292.624 268.178C292.706 268.232 292.838 268.21 292.942 268.221C293.156 259.52 281.536 241.68 274.004 237.368C267.623 242.541 260.865 247.182 253.168 250.364H253.179ZM417.915 160.688C416.994 160.458 416.324 160.343 415.694 160.123C414.893 159.843 414.037 159.602 413.351 159.136C410.723 157.331 407.799 156.244 404.782 155.345C403.377 154.928 401.978 154.911 400.563 155.334C395.187 156.93 389.936 158.834 384.927 161.379C380.347 163.706 375.727 165.96 371.124 168.259C370.916 168.363 370.74 168.528 370.345 168.813C371.443 169.082 372.26 169.334 373.088 169.482C382.942 171.265 391.884 175.281 400.316 180.542C406.888 174.623 412.331 167.749 417.926 160.699L417.915 160.688ZM400.256 187.318C397.924 185.529 395.779 183.521 393.305 182.062C388.477 179.204 383.326 177.004 377.845 175.632C375.129 174.952 372.43 174.222 369.725 173.482C363.592 171.809 357.354 171.32 351.034 171.929C347.704 172.253 344.495 173.01 341.604 174.788C341.318 174.963 341.088 175.237 340.737 175.545C342.481 175.704 344.023 175.791 345.548 175.994C351.391 176.757 357.184 177.755 362.769 179.72C368.381 181.695 373.478 184.575 378.141 188.25C380.709 190.275 380.533 192.497 377.719 194.241C377.417 194.428 377.159 194.686 376.66 195.081C383.21 195.563 389.349 196.897 395.647 197.357C395.823 195.958 395.977 194.735 396.147 193.391C394.863 193.067 393.645 192.793 392.449 192.436C391.692 192.211 390.896 191.97 390.249 191.537C389.196 190.829 389.355 189.611 390.518 189.123C391.034 188.909 391.626 188.772 392.186 188.772C393.667 188.772 395.17 188.739 396.629 188.947C398.127 189.161 399.34 188.997 400.256 187.307V187.318ZM230.867 256.295C233.714 260.009 235.524 263.844 236.298 268.145C236.501 269.269 236.621 270.41 236.907 271.513C237.016 271.941 237.39 272.506 237.763 272.621C240.692 273.538 243.677 273.993 246.694 273.088C249.196 272.336 251.204 270.893 252.487 268.562C253.464 266.784 254.034 264.875 254.182 262.856C254.479 258.681 251.747 254.698 247.753 253.349C246.623 252.965 245.608 252.943 244.445 253.261C241.532 254.062 238.575 254.731 235.628 255.4C234.142 255.741 232.628 255.971 230.872 256.295H230.867ZM230.197 276.747C215.73 278.618 205.455 286.068 198.125 298.318C198.987 298.538 199.629 298.807 200.287 298.85C203.008 299.042 205.674 298.757 208.099 297.419C209.591 296.59 211.051 295.669 212.395 294.621C218.764 289.628 224.217 283.703 229.555 277.669C229.736 277.466 229.868 277.224 230.203 276.752L230.197 276.747ZM295.411 324.926C302.548 325.557 308.188 328.656 312.077 334.746C316.181 332.947 320.34 332.76 324.591 333.49C324.613 333.172 324.674 332.991 324.63 332.842C323.576 329.057 321.898 325.579 319.412 322.529C319.05 322.079 318.447 321.706 317.882 321.557C313.52 320.444 309.104 320.06 304.649 320.91C301.308 321.546 298.318 323.022 295.416 324.926H295.411ZM242.53 82.6757C242.755 82.8293 242.837 82.9171 242.941 82.9555C249.958 85.5724 256.322 89.3468 262.285 93.8399C262.521 94.021 262.845 94.0868 263.246 94.2569C263.701 88.2167 262.028 83.0104 258.226 78.5556C256.064 76.0265 252.378 75.3463 249.261 76.6465C246.37 77.8534 244.203 79.8888 242.535 82.6757H242.53ZM262.472 271.129C262.477 271.244 262.488 271.36 262.494 271.475C266.833 272.451 271.146 273.559 275.518 274.36C280.34 275.244 285.212 275.88 290.078 276.533C291.998 276.791 292.135 276.588 292.657 274.788C290.512 271.398 287.346 269.686 283.555 268.891C279.649 268.073 275.737 267.975 271.804 268.523C268.573 268.973 265.484 269.917 262.472 271.129ZM323.642 145.195C324.624 151.762 325.656 158.642 326.671 165.521C326.928 167.272 327.082 167.42 328.827 167.37C331.328 167.299 333.835 167.239 336.337 167.167C336.381 167.167 336.419 167.107 336.491 167.052C332.14 159.651 327.79 152.251 323.637 145.19L323.642 145.195ZM315.748 175.896C315.77 175.967 315.792 176.038 315.813 176.11C316.071 176.11 316.335 176.121 316.592 176.11C320.016 175.929 323.445 175.742 326.868 175.567C329.211 175.446 331.553 175.353 333.896 175.221C334.28 175.199 334.757 175.172 335.015 174.947C336.414 173.718 337.752 172.423 339.261 171.013C338.307 170.87 337.544 170.739 336.776 170.651C334.165 170.355 331.553 170.058 328.936 169.806C328.448 169.757 327.888 169.806 327.449 170.009C325.946 170.695 324.476 171.457 323.006 172.204C320.586 173.427 318.167 174.667 315.748 175.896ZM405.495 296.02C408.331 297.046 411.047 298.291 413.505 300.041C416.023 301.84 418.091 304.106 419.962 306.525C421.8 305.483 423.451 304.545 425.234 303.536C419.594 298.209 413.208 295.389 405.495 296.02ZM328.267 327.175C329.046 330.061 329.743 332.749 330.516 335.421C330.626 335.788 331.076 336.09 331.421 336.353C334.247 338.493 337.078 340.616 339.914 342.739C340.199 342.953 340.485 343.162 340.77 343.376C337.484 337.314 333.517 331.849 328.267 327.175ZM408.677 196.908C407.821 198.427 407.009 199.865 406.17 201.357C409.171 202.092 412.292 200.77 413.285 198.422C411.782 197.928 410.284 197.434 408.677 196.902V196.908ZM343.946 165.933C343.496 164.188 343.118 162.696 342.712 161.116C341.373 161.687 340.238 162.175 339.096 162.663C340.243 164.907 339.645 164.485 343.946 165.933ZM400.404 194.466C399.191 196.408 399.63 198.422 401.545 199.574C402.225 198.224 402.905 196.88 403.646 195.41C402.423 195.053 401.402 194.757 400.404 194.466ZM412.364 189.381C411.963 190.275 411.628 191.015 411.239 191.888C412.484 192.266 413.521 192.573 414.723 192.936C414.388 191.334 413.625 190.346 412.364 189.375V189.381ZM403.822 189.644C403.833 189.765 403.844 189.891 403.86 190.011C404.557 190.165 405.254 190.313 406 190.478C406.378 189.562 406.685 188.826 406.993 188.091C406.888 188.025 406.784 187.96 406.68 187.888C405.725 188.475 404.776 189.057 403.822 189.644Z" fill="#3D3D3D"/>
<path d="M128.205 188.563C129.417 188.382 130.569 188.333 131.645 188.015C133.718 187.411 135.77 186.709 137.789 185.935C138.502 185.666 139.429 185.173 139.21 184.24C138.969 183.192 137.893 183.582 137.158 183.56C136.193 183.532 135.216 183.648 134.251 183.73C130.317 184.059 126.521 183.571 122.807 182.144C115.889 179.489 110.013 175.369 104.9 170.047C98.163 163.036 95.4419 154.56 95.5625 145.014C95.6119 140.977 96.4678 137.06 97.7131 133.241C99.9789 126.268 103.852 120.212 108.828 114.896C114.512 108.828 121.616 105.432 129.829 104.22C134.646 103.506 139.38 103.452 144.082 104.938C149.074 106.513 153.205 109.333 156.716 113.173C158.296 114.901 159.986 116.53 161.654 118.176C162.043 118.56 162.537 118.84 163.129 119.06C162.647 115.417 161.045 112.251 159.179 109.108C159.536 108.79 159.854 108.477 160.194 108.192C163.124 105.717 166.048 103.243 168.983 100.774C173.954 96.5885 179.429 93.1761 185.211 90.241C186.242 89.7144 187.126 89.654 188.08 90.3233C189.391 91.2395 190.884 91.9527 192.025 93.0389C195.821 96.6817 199.491 100.451 203.206 104.176C203.441 104.412 203.606 104.713 203.853 105.054C203.568 105.251 203.354 105.421 203.123 105.564C199.875 107.588 196.606 109.585 193.385 111.659C192.634 112.142 191.997 112.833 191.41 113.519C191.207 113.755 191.142 114.396 191.312 114.588C191.553 114.868 192.113 115.093 192.464 115.011C193.402 114.797 194.329 114.468 195.212 114.073C198.498 112.591 201.757 111.061 205.032 109.558C205.548 109.322 206.08 109.113 206.755 108.833C209.383 112.317 211.27 116.218 213.547 120.118C212.954 120.464 212.433 120.771 211.917 121.078C210.195 122.099 208.445 123.07 206.766 124.156C205.51 124.974 205.032 125.84 205.466 126.274C206.212 127.025 207.095 126.587 207.858 126.279C209.553 125.605 211.221 124.842 212.883 124.09C213.552 123.789 214.189 123.41 214.984 122.988C217.129 126.965 218.737 131.135 221.463 134.7C220.97 130.098 219.291 125.835 217.733 121.512C218.369 120.974 218.945 120.519 219.494 120.025C219.905 119.652 220.185 119.131 219.79 118.676C219.543 118.39 219.006 118.204 218.616 118.231C217.892 118.281 217.184 118.511 216.416 118.681C214.315 114.95 212.241 111.269 210.063 107.407C210.749 107.105 211.446 106.804 212.142 106.491C213.031 106.096 213.947 105.756 214.787 105.278C215.813 104.691 216.175 103.737 215.856 102.832C215.571 102.02 214.726 101.471 213.646 101.559C212.801 101.63 211.95 101.822 211.138 102.086C209.838 102.502 208.571 103.024 207.188 103.534C202.295 97.8119 197.467 91.9911 190.428 88.2935C190.95 88.063 191.273 87.8875 191.619 87.7778C202.015 84.4751 212.642 83.4218 223.477 84.5903C226.884 84.9579 230.285 85.4407 233.664 86.0058C238.492 86.8177 243.112 88.3758 247.413 90.6854C260.091 97.4937 270.997 106.409 279.347 118.231C284.46 125.473 288.169 133.45 291.362 141.69C294.034 148.569 295.482 155.729 296.173 163.036C296.546 167.019 296.952 171.035 296.831 175.018C296.376 190 293.112 204.27 285.08 217.14C282.787 220.816 280.121 224.256 277.625 227.8C277.498 227.739 277.372 227.685 277.246 227.624C277.405 227.015 277.559 226.401 277.723 225.792C279.951 217.519 279.1 209.674 273.653 202.887C268.792 196.836 262.412 193.062 254.528 192.211C246.513 191.345 238.876 192.617 231.816 196.589C222.813 201.653 217.058 209.394 213.772 219.071C211.736 225.068 211.808 231.179 213.635 237.143C215.686 243.852 220.355 248.439 226.587 251.5C227.092 251.747 227.608 251.966 228.123 252.498C227.098 252.613 226.077 252.762 225.051 252.849C217.958 253.442 210.881 253.228 203.798 252.63C192.091 251.642 181.014 248.455 170.464 243.315C158.636 237.554 149.211 229.127 142.134 218.067C137.811 211.314 133.773 204.402 130.893 196.886C129.993 194.537 129.236 192.135 128.435 189.754C128.315 189.392 128.304 188.991 128.227 188.536L128.205 188.563ZM134.761 160.578C135.611 160.524 136.352 160.502 137.092 160.425C138.864 160.244 140.027 159.328 140.582 157.6C141.196 155.696 141.986 153.852 142.513 151.927C144.016 146.479 145.42 140.999 146.874 135.534C147.006 135.041 147.154 134.547 147.362 134.086C147.938 132.802 147.543 131.425 146.353 130.734C145.963 130.504 145.492 130.377 145.168 130.076C142.732 127.815 139.709 126.713 136.588 126.005C132.281 125.023 128.029 125.336 124.151 127.673C120.113 130.103 117.123 133.455 115.472 137.943C112.822 145.135 115.049 152.19 121.43 156.425C125.484 159.114 130.021 160.337 134.75 160.578H134.761ZM193.726 195.234C193.72 199.184 194.598 202.586 196.469 205.68C197.165 206.832 198.054 207.951 199.091 208.801C202.081 211.254 205.773 210.283 207.161 206.684C207.644 205.433 207.902 204.028 207.935 202.684C208.066 196.869 205.581 191.97 202.278 187.406C202.081 187.131 201.812 186.901 201.543 186.692C200.462 185.853 199.299 185.699 198.005 186.21C196.474 186.813 195.448 187.839 194.845 189.37C194.066 191.367 193.704 193.424 193.726 195.234ZM261.314 173.52C261.638 176.203 261.775 178.617 262.258 180.954C262.648 182.836 263.224 184.75 264.129 186.429C265.851 189.622 269.555 189.584 271.403 186.473C271.892 185.65 272.259 184.717 272.479 183.785C273.23 180.608 273.038 177.432 272.204 174.288C271.48 171.551 270.328 169.011 268.529 166.805C267.602 165.664 266.384 165.066 264.891 165.39C263.388 165.713 262.538 166.783 262.236 168.221C261.852 170.053 261.589 171.913 261.314 173.515V173.52ZM287.341 188.969L287.209 188.953C287.209 188.442 287.247 187.927 287.198 187.417C287.132 186.742 286.808 186.182 286.095 186.072C285.355 185.963 284.965 186.478 284.702 187.093C284.614 187.301 284.526 187.515 284.477 187.735C284.06 189.622 283.61 191.504 283.264 193.402C283.144 194.055 283.16 194.801 283.374 195.415C283.528 195.865 284.076 196.414 284.504 196.469C284.932 196.523 285.574 196.128 285.876 195.739C286.243 195.267 286.441 194.614 286.551 194.011C286.858 192.338 287.083 190.648 287.341 188.964V188.969ZM185.628 221.035C185.628 220.547 185.628 220.437 185.628 220.322C185.628 219.126 185.288 218.539 184.531 218.49C183.571 218.43 183.253 219.11 183.061 219.867C182.737 221.14 182.386 222.412 182.166 223.702C182.046 224.42 182.068 225.194 182.216 225.907C182.287 226.269 182.748 226.768 183.077 226.807C183.499 226.856 184.075 226.609 184.383 226.291C184.712 225.945 184.893 225.391 184.986 224.898C185.26 223.499 185.458 222.083 185.628 221.035ZM291.845 189.946C291.653 189.117 291.537 188.086 291.148 187.175C290.983 186.791 290.259 186.489 289.765 186.451C289.458 186.424 288.86 186.928 288.822 187.246C288.591 188.986 288.416 190.741 288.383 192.497C288.366 193.259 288.877 193.907 289.782 193.95C290.577 193.989 291.109 193.528 291.307 192.826C291.548 191.959 291.647 191.054 291.845 189.946ZM179.868 220.876C179.928 219.318 179.604 218.748 178.913 218.632C178.266 218.523 177.657 218.995 177.311 219.878C177.289 219.933 177.267 219.982 177.262 220.037C177.048 221.661 176.773 223.285 176.658 224.92C176.631 225.293 177.042 225.885 177.399 226.055C177.997 226.34 178.529 225.924 178.699 225.32C179.165 223.691 179.566 222.039 179.868 220.876Z" fill="#C69C6D"/>
<path d="M180.575 284.609C180.926 285.272 181.201 285.761 181.448 286.271C183.192 289.831 185.25 293.194 187.784 296.239C188.876 297.55 190.072 298.807 191.372 299.915C197.407 305.066 204.89 305.878 211.786 301.967C214.458 300.452 217.025 298.664 219.357 296.667C225.172 291.697 229.994 285.81 234.372 279.556C234.701 279.089 235.025 278.623 235.409 278.064C235.831 278.217 236.248 278.354 236.654 278.524C240.654 280.214 244.741 280.488 248.888 279.194C249.75 278.925 250.359 278.974 251.055 279.583C252.476 280.823 254.051 281.893 255.444 283.155C256.624 284.224 257.672 285.448 258.736 286.644C259.257 287.231 259.68 287.906 260.228 288.646C259.68 288.91 259.29 289.124 258.89 289.288C253.036 291.669 247.638 294.9 242.338 298.302C241.954 298.549 241.564 298.818 241.279 299.163C241.087 299.394 240.928 299.827 241.021 300.074C241.109 300.315 241.51 300.535 241.806 300.584C242.184 300.655 242.612 300.606 242.996 300.507C244.818 300.03 246.672 299.635 248.433 298.988C254.715 296.683 260.996 294.429 267.519 292.838C270.981 291.993 274.278 292.064 277.636 293.063C283.248 294.725 288.619 296.963 293.765 299.756C294.017 299.893 294.259 300.046 294.489 300.211C294.571 300.271 294.615 300.387 294.73 300.562C293.874 300.919 292.997 301.198 292.201 301.626C290.495 302.543 288.816 303.519 287.149 304.501C286.688 304.77 286.309 305.192 286.616 305.779C286.935 306.377 287.483 306.174 287.982 306.043C291.192 305.214 294.412 304.424 297.605 303.547C298.763 303.228 299.701 303.355 300.606 304.161C303.585 306.833 306.597 309.461 309.581 312.127C310.042 312.538 310.41 313.054 310.98 313.696C310.426 313.784 310.07 313.888 309.718 313.882C304.199 313.773 299.207 315.468 294.259 317.805C284.405 322.452 278.069 330.247 273.554 339.837C273.214 340.556 272.868 341.275 272.473 342.108C271.908 342.108 271.354 342.108 270.794 342.108C263.278 342.169 256.026 343.623 249.026 346.316C244.598 348.017 240.758 350.711 237.049 353.602C236.578 353.969 236.139 354.386 236.391 355.034C236.649 355.698 237.291 355.714 237.856 355.61C238.64 355.467 239.408 355.237 240.171 355.001C244.862 353.542 249.508 351.907 254.254 350.639C259.115 349.339 264.096 348.566 269.116 348.11C269.39 348.088 269.664 348.11 270.131 348.11C269.972 348.741 269.873 349.224 269.725 349.69C267.794 355.698 266.356 361.809 265.769 368.102C265.451 371.53 265.429 374.959 266.257 378.339C266.433 379.052 266.691 379.771 267.047 380.412C267.497 381.219 268.238 381.202 268.589 380.363C268.962 379.474 269.231 378.52 269.39 377.571C269.993 373.906 270.405 370.203 271.129 366.56C273.126 356.509 276.385 346.892 281.778 338.12C283.506 335.311 285.673 332.766 287.67 330.127C288.646 328.838 289.963 328.448 291.592 328.53C298.121 328.865 303.574 331.954 307.195 337.56C307.085 337.72 306.992 337.933 306.833 338.071C301.692 342.619 298.609 348.39 296.749 354.908C294.621 362.369 294.171 369.978 294.626 377.686C295.043 384.801 296.261 391.763 298.373 398.566C298.422 398.72 298.417 398.89 298.455 399.224C297.638 399.564 296.804 399.905 295.976 400.256C295.553 400.431 295.098 400.563 294.736 400.821C294.494 400.996 294.198 401.435 294.27 401.627C294.385 401.934 294.774 402.329 295.07 402.346C295.86 402.384 296.661 402.275 297.446 402.165C298.06 402.077 298.664 401.902 299.432 401.726C300.875 405.396 302.499 408.907 305.335 411.903C304.446 412.501 303.7 412.994 302.965 413.505C302.592 413.763 302.202 414.02 301.873 414.333C301.434 414.75 301.083 415.326 301.539 415.836C301.868 416.204 302.482 416.5 302.965 416.495C303.563 416.484 304.166 416.16 304.742 415.919C305.79 415.48 306.822 414.997 307.919 414.503C310.925 417.136 314.371 418.892 318.013 420.494C317.591 420.593 317.169 420.741 316.741 420.785C313.674 421.119 310.602 421.432 307.529 421.756C306.449 421.871 305.357 421.926 304.293 422.129C300.902 422.771 297.473 422.765 294.045 422.859C287.757 423.029 281.47 423.297 275.189 423.632C271.612 423.824 268.106 423.27 264.606 422.765C257.364 421.728 250.112 420.702 242.92 419.375C227.849 416.593 213.98 410.921 201.746 401.55C193.671 395.368 186.928 387.95 181.546 379.31C176.378 371.015 172.116 362.319 169.685 352.801C168.692 348.906 168.166 344.95 167.76 340.962C167.315 336.628 167.09 332.294 167.337 327.943C167.354 327.658 167.398 327.356 167.332 327.087C166.849 325.123 167.546 323.39 168.314 321.651C172.346 312.516 174.617 302.8 177.662 293.337C178.485 290.78 179.27 288.213 180.087 285.651C180.186 285.344 180.356 285.064 180.57 284.614L180.575 284.609Z" fill="#C69C6D"/>
<path d="M75.2146 400.234C75.3956 398.643 75.4724 397.167 75.7358 395.73C76.438 391.95 77.5023 388.285 79.3017 384.856C81.4962 380.676 84.8153 377.768 89.1219 375.914C90.3069 375.404 91.4535 374.817 92.6165 374.263C92.6056 374.114 92.5891 373.961 92.5781 373.813C92.0185 373.692 91.4535 373.456 90.8939 373.478C85.9674 373.643 81.551 374.992 78.2649 378.964C75.039 382.859 73.267 387.402 72.3399 392.301C71.9723 394.259 71.8297 396.256 71.5663 398.352C71.2865 398.237 70.9299 398.138 70.6172 397.968C67.0128 395.96 64.0174 393.244 61.5981 389.92C61.225 389.404 60.9891 388.686 60.9562 388.049C60.7971 385.169 61.1976 382.338 62.0644 379.59C63.2713 375.738 65.0763 372.178 67.4517 368.914C69.1963 366.522 71.3743 364.607 73.9692 363.175C75.4724 362.347 76.9811 361.524 78.4678 360.679C78.9397 360.41 79.3621 360.064 79.8065 359.757C79.7735 359.648 79.7351 359.532 79.7022 359.423C79.3401 359.423 78.9726 359.368 78.6215 359.434C76.1362 359.867 73.7059 360.465 71.3853 361.496C67.9839 363.005 65.3122 365.32 63.2987 368.431C60.9123 372.117 59.2829 376.122 58.2406 380.38C58.1308 380.824 58.0376 381.268 57.9169 381.713C57.8894 381.811 57.7852 381.888 57.6206 382.097C56.9074 379.37 56.9294 376.709 57.3408 374.07C58.3119 367.866 60.9013 362.391 65.1311 357.733C70.6831 351.627 76.5642 345.861 83.0542 340.748C89.3578 335.783 95.3651 330.494 100.972 324.756C109.431 316.093 116.569 306.493 121.419 295.323C124.195 288.926 126.784 282.447 129.609 276.067C131.623 271.524 133.784 267.036 136.067 262.626C139.358 256.278 143.753 250.721 148.827 245.701C151.022 243.528 153.276 241.422 155.614 239.178C161.577 243.627 168.094 247.023 174.974 249.909C174.974 250.501 174.985 251.061 174.974 251.621C174.842 259.361 175.193 267.058 177.015 274.629C177.163 275.238 177.256 275.886 177.525 276.44C178.535 278.535 178.37 280.565 177.558 282.699C176.603 285.206 175.852 287.79 175.012 290.341C174.173 292.893 173.35 295.449 172.5 297.995C171.83 300.003 171.194 302.021 170.437 303.991C167.48 311.671 164.358 319.292 161.533 327.022C157.671 337.604 153.896 348.214 149.217 358.473C146.369 364.717 143.429 370.916 140.428 377.088C137.97 382.152 134.98 386.875 130.932 390.869C126.109 395.631 120.574 399.126 113.919 400.689C110.748 401.435 107.577 402.187 104.384 402.84C101.054 403.52 97.6637 403.438 94.2898 403.279C89.3797 403.043 84.4587 402.785 79.6583 401.578C78.2265 401.216 76.822 400.744 75.1981 400.256L75.2146 400.234Z" fill="#C69C6D"/>
<path d="M366.346 201.203C366.083 201.85 365.968 202.158 365.836 202.448C362.341 209.981 360.613 217.936 360.481 226.203C360.405 231.262 361.145 236.259 363.082 240.977C363.965 243.133 365.156 245.163 366.297 247.424C365.721 247.736 364.985 248.12 364.256 248.532C363.674 248.861 363.175 249.294 363.499 250.04C363.8 250.726 364.437 250.836 365.101 250.671C366.209 250.403 367.306 250.09 368.343 249.816C371.108 251.933 373.857 254.04 376.742 256.245C376.698 256.404 376.495 256.788 376.523 257.15C376.556 257.556 376.704 258.116 376.995 258.297C377.302 258.489 377.85 258.368 378.267 258.27C378.52 258.209 378.75 257.962 378.937 257.754C379.343 257.304 379.787 257.31 380.336 257.458C381.877 257.88 383.413 258.374 384.988 258.604C386.562 258.835 388.175 258.785 389.947 258.862C389.766 259.268 389.635 259.669 389.426 260.02C386.398 265.232 382.42 269.609 377.735 273.373C370.4 279.265 362.621 284.471 354.342 288.953C349.893 291.362 345.23 293.211 340.336 294.483C336.688 295.427 333.007 296.266 329.353 297.194C328.382 297.44 327.647 297.227 326.824 296.667C318.611 291.088 309.768 286.929 300.052 284.696C293.946 283.292 287.818 283.144 281.64 283.956C275.628 284.746 269.653 285.733 263.646 287.555C260.925 283.407 257.37 280.071 252.877 277.647C254.27 276.352 255.499 275.2 256.788 274.004C258.478 274.679 260.228 275.359 261.956 276.072C268.677 278.848 275.743 280.17 282.919 281.043C284.68 281.256 286.441 281.427 288.207 281.624C293.189 282.178 295.844 280.434 297.303 275.595C298.428 271.875 298.154 268.139 297.375 264.398C296.277 259.142 294.379 254.204 291.653 249.585C291.4 249.163 291.197 248.713 290.813 247.978C291.631 248.241 292.152 248.406 292.668 248.581C300.743 251.357 308.495 250.776 315.967 246.502C322.688 242.656 328.239 237.554 332.826 231.36C334.049 229.703 335.289 228.047 336.326 226.275C339.014 221.694 341.587 217.052 344.232 212.444C344.385 212.175 344.676 211.923 344.961 211.813C352.044 208.977 358.671 205.241 365.359 201.626C365.556 201.521 365.775 201.45 366.357 201.209L366.346 201.203Z" fill="#C69C6D"/>
<path d="M414.267 394.742C408.326 394.852 402.39 395.016 396.448 395.055C389.986 395.093 383.518 394.912 377.055 395.016C370.312 395.126 363.576 395.461 356.773 395.697C356.806 395.779 356.707 395.642 356.734 395.592C358.896 392.257 359.889 388.532 360.536 384.659C361.024 381.729 361.749 378.838 362.204 375.908C362.621 373.259 363.01 370.581 363.076 367.91C363.208 362.478 363.164 357.042 362.517 351.632C361.617 344.16 359.302 337.138 355.725 330.538C354.392 328.075 352.889 325.705 351.462 323.297C351.243 322.923 351.034 322.539 350.689 321.925C359.082 325.573 367.224 329.112 375.464 332.694C375.497 335.865 375.491 339.075 376.622 342.13C376.759 342.498 376.967 342.86 377.214 343.167C377.417 343.42 377.73 343.59 378.01 343.815C379.129 343.271 379.107 342.218 379.211 341.302C379.491 338.8 379.683 336.293 379.919 333.786C380.506 327.554 381.718 321.453 384.033 315.616C386.31 309.888 389.635 304.891 394.479 300.979C395.291 300.326 396.119 300.079 397.151 300.101C404.985 300.299 410.668 304.419 415.6 309.993C415.469 310.223 415.414 310.399 415.299 310.514C409.588 316.274 406.252 323.351 403.915 330.999C401.09 340.243 400.157 349.69 400.717 359.313C400.733 359.593 400.717 359.872 400.717 360.328C400.036 360.427 399.383 360.531 398.72 360.624C398.209 360.695 397.661 360.668 397.205 360.865C396.849 361.025 396.393 361.447 396.382 361.776C396.366 362.089 396.805 362.621 397.14 362.714C398.341 363.043 399.586 363.23 400.974 363.504C402.39 375.102 405.638 385.959 414.492 394.375C414.41 394.501 414.333 394.627 414.251 394.753L414.267 394.742Z" fill="#C69C6D"/>
<path d="M314.321 411.897C314.777 411.552 315.122 411.343 315.397 411.069C315.929 410.542 316.121 409.911 315.77 409.198C315.413 408.479 314.782 408.216 314.058 408.37C313.339 408.523 312.653 408.83 311.951 409.072C311.682 409.165 311.414 409.264 311.024 409.401C307.919 406.96 306.372 403.503 304.88 399.724C305.933 399.35 306.877 399.021 307.815 398.687C308.298 398.511 308.868 398.429 309.23 398.111C309.554 397.825 309.883 397.211 309.779 396.865C309.68 396.52 309.066 396.174 308.643 396.119C308.171 396.059 307.65 396.322 307.156 396.459C306.18 396.728 305.198 397.002 304.123 397.299C303.892 396.684 303.684 396.229 303.547 395.752C300.458 385.251 299.448 374.548 300.688 363.68C301.237 358.896 302.422 354.238 304.726 349.937C305.867 347.803 307.233 345.839 308.983 344.16C309.263 343.891 309.587 343.677 310.02 343.326C310.234 343.979 310.421 344.495 310.563 345.022C310.717 345.57 310.81 346.141 310.969 346.689C311.518 348.56 312.686 349.432 314.151 349.081C315.517 348.752 316.263 347.304 315.912 345.471C315.665 344.182 315.292 342.92 314.974 341.642C314.881 341.269 314.788 340.89 314.667 340.424C316.955 339.42 319.27 339.234 321.601 339.519C323.006 339.695 324.372 340.172 325.754 340.528C326.577 340.737 326.961 341.291 327.044 342.13C327.137 343.096 327.225 344.072 327.439 345.016C327.663 346.009 328.388 346.569 329.134 346.3C329.611 346.13 330.006 345.641 330.346 345.225C330.549 344.978 330.571 344.583 330.67 344.259C330.752 343.99 330.84 343.721 330.966 343.321C331.438 343.601 331.871 343.842 332.283 344.105C336.875 347.035 340.622 350.826 343.935 355.127C345.993 357.793 347.238 360.64 347.589 363.998C348.434 372.139 349.24 380.27 348.933 388.472C348.829 391.275 348.598 394.062 347.907 396.799C346.651 401.803 344.018 406.06 340.742 409.939C338.915 412.1 336.535 413.669 334.027 414.92C332.793 415.54 331.284 415.716 329.88 415.858C324.46 416.418 319.44 415.145 314.793 412.331C314.656 412.248 314.546 412.111 314.305 411.897H314.321Z" fill="#8C6239"/>
<path d="M249.662 197.045C251.867 197.292 253.809 197.434 255.724 197.73C260.952 198.548 265.391 201.071 268.951 204.829C273.291 209.405 274.871 215.088 274.004 221.321C273.153 227.41 270.509 232.765 266.718 237.565C266.438 237.916 266.076 238.218 265.714 238.487C259.038 243.441 251.785 247.237 243.726 249.432C241.877 249.936 240.034 250.238 238.136 249.881C235.782 249.437 233.335 249.234 231.097 248.455C223.855 245.931 219.455 240.884 218.172 233.215C217.266 227.8 217.886 222.593 220.18 217.634C225.177 206.826 233.204 199.705 245.141 197.484C246.705 197.193 248.318 197.171 249.656 197.05L249.662 197.045ZM246.639 215.988C247.38 218.358 246.93 220.673 246.2 222.983C245.767 224.355 244.922 225.364 243.753 226.181C241.674 227.63 239.354 227.904 236.901 227.926C234.142 227.953 231.887 227.015 230.049 224.991C229.819 224.739 229.605 224.415 229.314 224.289C228.985 224.146 228.486 224.042 228.222 224.195C227.959 224.349 227.723 224.892 227.794 225.183C227.948 225.836 228.217 226.494 228.59 227.048C230.839 230.4 234.043 232.112 238.026 232.562C243.133 233.143 249.229 229.819 250.737 225.364C250.82 225.128 250.984 224.92 251.176 224.59C254.177 227.855 257.759 228.294 261.66 227.229C264.875 226.351 266.521 224.003 267.289 220.92C267.382 220.536 267.371 220.125 267.371 219.724C267.371 219.06 267.234 218.413 266.466 218.27C265.786 218.144 265.435 218.638 265.188 219.187C265.023 219.549 264.847 219.916 264.732 220.295C264.222 221.995 263.004 222.939 261.38 223.433C258.862 224.206 256.492 223.603 254.281 222.429C253.239 221.875 252.339 220.915 252.153 219.658C251.922 218.155 251.889 216.619 251.769 215.083C252.718 214.639 253.667 214.249 254.561 213.755C256.931 212.461 258.538 210.53 259.246 207.896C259.839 205.68 259.449 203.65 257.754 202.059C255.411 199.859 252.679 198.592 249.344 199.003C246.239 199.387 243.325 200.353 240.61 201.878C238.629 202.992 237.313 204.676 236.643 206.848C236.183 208.341 236.237 209.833 237.115 211.138C238.514 213.218 240.248 214.951 242.843 215.462C244.066 215.703 245.317 215.796 246.645 215.972L246.639 215.988Z" fill="#8C6239"/>
<path d="M407.656 363.91C409.269 363.91 410.575 363.921 411.881 363.91C413.603 363.894 414.585 363.181 414.602 361.963C414.618 360.739 413.636 359.971 411.941 359.938C410.46 359.911 408.979 359.933 407.377 359.933C407.3 359.445 407.179 358.951 407.157 358.457C406.614 347.885 407.881 337.566 411.497 327.581C413.022 323.362 415.019 319.39 417.855 315.879C418.102 315.578 418.387 315.303 418.815 314.837C420.834 318.321 420.702 322.397 422.623 325.782C424.032 320.916 423.731 316.055 422.65 311.112C424.356 309.68 426.205 308.49 428.449 307.601C428.816 308.21 429.178 308.775 429.508 309.356C431.878 313.586 433.304 318.162 434.462 322.836C436.107 329.468 436.87 336.222 437.188 343.03C437.578 351.413 435.866 359.439 432.657 367.109C430.254 372.853 427.489 378.443 424.779 384.05C423.588 386.518 421.937 388.718 420.061 390.902C412.221 383.545 409.001 374.252 407.662 363.91H407.656Z" fill="#8C6239"/>
<path d="M217.519 78.8354C217.601 78.391 217.623 78.0564 217.733 77.7492C221.052 68.143 226.96 60.4679 235.162 54.5429C242.036 49.5835 249.624 48.8977 257.545 51.2458C266.466 53.8901 273.066 59.6011 277.811 67.4737C281.01 72.7733 281.926 78.6928 281.832 84.7824C281.8 86.8287 281.547 88.886 281.24 90.9158C280.461 96.0673 277.767 100.133 273.795 103.556C272.045 101.959 270.284 100.363 268.474 98.7116C270.103 96.6927 269.922 94.3392 269.906 92.0899C269.873 86.1978 267.986 80.8763 264.634 76.054C262.115 72.4331 258.725 70.2497 254.303 69.723C252.213 69.4706 250.167 69.6901 248.23 70.4362C243.15 72.3947 239.452 75.7083 238.075 81.4029C231.333 79.8668 224.497 79.0768 217.513 78.8299L217.519 78.8354Z" fill="#C69C6D"/>
<path d="M371.388 244.554C370.011 243.188 369.078 241.559 368.261 239.864C366.341 235.881 365.457 231.624 365.276 227.262C364.914 218.512 366.494 210.074 369.896 201.993C370.093 201.521 370.329 201.061 370.559 200.6C370.636 200.452 370.751 200.32 370.954 200.035C371.481 200.336 372.019 200.616 372.534 200.94C374.734 202.333 376.545 204.16 378.169 206.168C379.891 208.302 381.548 210.491 383.265 212.631C383.66 213.124 384.209 213.492 384.878 214.085C385.553 211.259 385.004 208.889 384.269 206.558C383.54 204.231 382.014 202.372 380.55 200.342C381.592 200.561 382.629 200.797 383.671 200.995C385.41 201.329 387.149 201.691 388.899 201.938C389.788 202.064 390.337 202.459 390.754 203.222C391.33 204.275 391.95 205.307 392.619 206.305C393.157 207.112 393.782 207.869 394.885 208.006C395.795 207.249 395.324 206.196 395.571 205C396.031 205.636 396.41 206.102 396.717 206.601C398.879 210.129 400.031 214.013 400.431 218.095C401.216 226.088 400.727 233.999 398.138 241.647C397.041 244.889 395.576 248.005 394.221 251.149C394.018 251.615 393.546 252.103 393.08 252.284C390.227 253.398 387.292 253.519 384.33 252.723C384.236 252.696 384.176 252.57 384.017 252.405C384.291 252.026 384.609 251.637 384.867 251.215C385.251 250.584 385.624 249.942 385.942 249.272C386.222 248.674 386.294 248.027 385.718 247.544C385.147 247.062 384.522 247.204 383.984 247.616C383.26 248.17 382.557 248.757 381.899 249.388C381.329 249.942 380.84 250.578 380.177 251.341C377.823 250.331 375.782 248.856 373.73 247.051C374.405 246.601 374.97 246.261 375.491 245.86C376.095 245.399 376.375 244.779 376.013 244.055C375.65 243.331 374.97 243.139 374.257 243.375C373.341 243.677 372.458 244.099 371.382 244.549L371.388 244.554Z" fill="#8C6239"/>
<path d="M228.255 256.734C228.705 257.82 229.133 258.846 229.687 260.173C229.001 259.981 228.639 259.877 228.283 259.778C221.244 257.776 214.397 257.853 207.891 261.655C205.669 262.955 203.414 264.189 201.192 265.484C200.671 265.786 200.216 266.203 199.727 266.57C199.76 266.685 199.793 266.801 199.826 266.916C200.287 266.877 200.77 266.916 201.198 266.784C204.193 265.84 207.249 265.04 210.145 263.855C216.548 261.238 222.873 261.731 229.254 263.811C230.614 264.255 231.371 265.012 231.503 266.449C231.667 268.2 231.898 269.939 232.106 271.716C229.5 272.314 227.114 272.885 224.722 273.411C220.042 274.443 215.719 276.385 211.517 278.612C204.61 282.271 199.513 287.664 196.227 294.763C196.013 295.224 195.777 295.679 195.465 296.305C194.488 295.663 193.83 294.829 193.182 293.995C187.389 286.523 183.154 278.272 181.228 268.99C180.032 263.24 179.253 257.408 178.238 251.363C178.968 251.538 179.396 251.604 179.791 251.741C189.435 255.033 199.332 256.854 209.537 257.161C215.264 257.332 220.97 257.304 226.675 256.75C227.125 256.706 227.586 256.745 228.244 256.745L228.255 256.734Z" fill="#FF7756"/>
<path d="M373.774 190.302C373.675 190.428 373.599 190.604 373.462 190.681C364.234 195.947 355.204 201.56 345.548 206.075C342.509 207.496 339.596 207.973 336.288 207.265C329.858 205.883 323.472 204.38 317.207 202.383C314.711 201.587 312.253 200.655 309.784 199.234C310.234 198.811 310.547 198.438 310.931 198.158C319.319 192.102 327.724 186.072 336.09 179.988C337.314 179.1 338.444 178.699 340.018 179.034C345.883 180.279 351.819 181.195 357.651 182.572C363.142 183.867 368.124 186.478 372.864 189.523C373.105 189.677 373.335 189.847 373.56 190.022C373.643 190.088 373.697 190.198 373.78 190.308L373.774 190.302Z" fill="#9EB2C7"/>
<path d="M355.401 376.934C355.099 373.555 354.814 370.494 354.562 367.438C353.909 359.571 352.159 351.95 348.982 344.725C344.939 335.525 338.998 327.685 331.339 321.179C327.663 318.057 323.445 315.934 318.688 314.985C317.679 314.782 316.96 314.31 316.307 313.504C313.164 309.625 309.603 306.158 305.648 303.102C305.247 302.789 304.858 302.455 304.408 302.087C304.934 301.286 305.521 300.48 304.847 299.564C304.134 298.598 303.069 298.543 302.043 298.828C300.661 299.218 299.558 298.839 298.368 298.093C293.737 295.197 288.685 293.205 283.561 291.378C283.05 291.197 282.551 291 282.074 290.468C283.577 290.33 285.075 290.155 286.583 290.056C292.909 289.628 299.004 290.846 304.935 292.903C316.949 297.067 327.296 303.788 335.777 313.312C341.472 319.709 346.267 326.731 350.294 334.28C354.436 342.054 356.4 350.392 356.477 359.17C356.515 363.74 356.372 368.31 356.213 372.88C356.169 374.136 356.087 375.453 355.401 376.934Z" fill="#C69C6D"/>
<path d="M253.179 250.364C260.87 247.177 267.629 242.541 274.015 237.368C281.553 241.68 293.167 259.521 292.953 268.221C292.843 268.211 292.711 268.227 292.635 268.178C284.416 262.576 275.639 262.45 266.565 265.555C264.732 266.181 262.988 267.069 261.199 267.826C260.684 268.046 260.157 268.243 259.438 268.534C259.52 267.887 259.564 267.453 259.63 267.026C259.965 264.864 260.102 262.686 259.548 260.552C259.257 259.433 259.586 258.78 260.448 258.067C263.547 255.505 267.102 254.018 271.069 253.705C272.868 253.563 274.706 253.925 276.527 254.056C277.076 254.095 277.619 254.111 278.283 254.15C276.961 251.785 271.892 250.123 267.837 250.567C263.953 250.995 260.568 252.465 257.897 255.357C256.311 253.678 254.808 252.087 253.19 250.364H253.179Z" fill="#FF7756"/>
<path d="M417.915 160.688C412.32 167.738 406.877 174.612 400.305 180.531C391.873 175.27 382.931 171.254 373.077 169.471C372.244 169.323 371.432 169.071 370.334 168.802C370.729 168.517 370.91 168.352 371.113 168.248C375.716 165.955 380.336 163.7 384.917 161.368C389.931 158.823 395.181 156.919 400.552 155.323C401.967 154.9 403.366 154.917 404.771 155.334C407.788 156.233 410.718 157.32 413.34 159.125C414.026 159.596 414.882 159.838 415.683 160.112C416.314 160.332 416.983 160.447 417.904 160.677L417.915 160.688Z" fill="#9EB2C7"/>
<path d="M400.256 187.318C399.34 189.008 398.127 189.167 396.629 188.958C395.17 188.75 393.667 188.777 392.186 188.783C391.626 188.783 391.039 188.92 390.518 189.134C389.355 189.616 389.196 190.84 390.249 191.548C390.896 191.981 391.692 192.222 392.449 192.447C393.645 192.804 394.863 193.073 396.147 193.402C395.977 194.746 395.823 195.969 395.647 197.368C389.344 196.913 383.205 195.574 376.66 195.092C377.159 194.691 377.417 194.439 377.719 194.252C380.533 192.513 380.709 190.286 378.141 188.261C373.484 184.586 368.381 181.705 362.769 179.73C357.184 177.766 351.391 176.768 345.548 176.005C344.023 175.808 342.481 175.715 340.737 175.556C341.088 175.243 341.318 174.974 341.604 174.798C344.495 173.021 347.71 172.264 351.034 171.94C357.354 171.326 363.587 171.814 369.726 173.493C372.425 174.228 375.129 174.963 377.845 175.643C383.326 177.009 388.477 179.215 393.305 182.073C395.774 183.538 397.924 185.54 400.256 187.329V187.318Z" fill="#9EB2C7"/>
<path d="M230.867 256.295C232.617 255.971 234.131 255.741 235.623 255.4C238.574 254.731 241.526 254.062 244.439 253.261C245.602 252.943 246.623 252.965 247.747 253.349C251.736 254.704 254.473 258.681 254.177 262.856C254.034 264.88 253.458 266.79 252.482 268.562C251.204 270.893 249.19 272.336 246.688 273.088C243.671 273.998 240.681 273.538 237.757 272.621C237.384 272.506 237.005 271.936 236.901 271.513C236.621 270.41 236.495 269.269 236.292 268.145C235.519 263.844 233.708 260.003 230.861 256.295H230.867Z" fill="#FF7756"/>
<path d="M230.197 276.747C229.868 277.219 229.731 277.46 229.55 277.663C224.212 283.703 218.753 289.628 212.389 294.615C211.051 295.668 209.586 296.59 208.094 297.413C205.674 298.757 203.003 299.037 200.281 298.845C199.623 298.801 198.981 298.532 198.12 298.313C205.449 286.062 215.725 278.612 230.192 276.741L230.197 276.747Z" fill="#803C2B"/>
<path d="M295.411 324.926C298.313 323.022 301.308 321.546 304.644 320.91C309.098 320.06 313.515 320.444 317.876 321.557C318.436 321.7 319.039 322.079 319.407 322.529C321.892 325.579 323.576 329.057 324.624 332.842C324.668 332.991 324.608 333.172 324.586 333.49C320.334 332.76 316.176 332.947 312.072 334.746C308.182 328.656 302.543 325.562 295.405 324.926H295.411Z" fill="#C69C6D"/>
<path d="M242.53 82.6757C244.198 79.8887 246.365 77.8534 249.256 76.6465C252.372 75.3463 256.059 76.0265 258.22 78.5556C262.022 83.0103 263.701 88.2167 263.24 94.2569C262.84 94.0868 262.516 94.021 262.28 93.8399C256.317 89.3468 249.953 85.5724 242.936 82.9555C242.832 82.9171 242.749 82.8293 242.525 82.6757H242.53Z" fill="#8C6239"/>
<path d="M262.472 271.129C265.484 269.917 268.578 268.973 271.804 268.523C275.737 267.975 279.649 268.068 283.555 268.891C287.351 269.686 290.512 271.398 292.657 274.788C292.135 276.588 291.998 276.791 290.078 276.533C285.217 275.886 280.346 275.244 275.518 274.36C271.146 273.559 266.833 272.451 262.494 271.475C262.488 271.36 262.477 271.244 262.472 271.129Z" fill="#803C2B"/>
<path d="M323.642 145.195C327.79 152.251 332.146 159.657 336.496 167.058C336.425 167.112 336.386 167.173 336.342 167.173C333.841 167.244 331.334 167.304 328.832 167.376C327.093 167.425 326.934 167.277 326.676 165.527C325.661 158.647 324.624 151.768 323.648 145.201L323.642 145.195Z" fill="#9EB2C7"/>
<path d="M315.748 175.896C318.167 174.667 320.581 173.427 323.006 172.204C324.482 171.457 325.946 170.695 327.45 170.009C327.888 169.812 328.448 169.757 328.936 169.806C331.553 170.058 334.165 170.355 336.776 170.651C337.544 170.739 338.312 170.87 339.261 171.013C337.752 172.423 336.408 173.718 335.015 174.947C334.757 175.172 334.274 175.199 333.896 175.221C331.553 175.353 329.211 175.446 326.868 175.567C323.445 175.742 320.016 175.934 316.593 176.11C316.335 176.121 316.071 176.11 315.813 176.11C315.792 176.038 315.77 175.967 315.748 175.896Z" fill="#9EB2C7"/>
<path d="M405.495 296.02C413.214 295.389 419.594 298.209 425.234 303.536C423.456 304.545 421.8 305.483 419.962 306.526C418.091 304.106 416.023 301.84 413.505 300.041C411.047 298.291 408.331 297.046 405.495 296.02Z" fill="#C69C6D"/>
<path d="M328.267 327.175C333.517 331.849 337.484 337.308 340.77 343.376C340.485 343.162 340.194 342.953 339.914 342.739C337.083 340.611 334.247 338.488 331.421 336.353C331.076 336.09 330.626 335.788 330.516 335.421C329.743 332.749 329.04 330.061 328.267 327.175Z" fill="#C69C6D"/>
<path d="M408.677 196.908C410.284 197.434 411.782 197.928 413.285 198.427C412.292 200.775 409.171 202.097 406.17 201.362C407.009 199.87 407.821 198.433 408.677 196.913V196.908Z" fill="#7C7C7C"/>
<path d="M343.946 165.933C339.645 164.485 340.243 164.907 339.096 162.663C340.238 162.175 341.373 161.687 342.712 161.116C343.118 162.696 343.502 164.188 343.946 165.933Z" fill="#9EB2C7"/>
<path d="M400.404 194.466C401.402 194.757 402.423 195.053 403.646 195.41C402.905 196.88 402.225 198.224 401.545 199.574C399.63 198.422 399.191 196.408 400.404 194.466Z" fill="#7C7C7C"/>
<path d="M412.364 189.381C413.625 190.352 414.388 191.339 414.723 192.941C413.521 192.579 412.484 192.266 411.239 191.893C411.628 191.021 411.963 190.28 412.364 189.386V189.381Z" fill="#7C7C7C"/>
<path d="M403.822 189.644C404.776 189.057 405.725 188.475 406.68 187.888C406.784 187.954 406.888 188.02 406.993 188.091C406.685 188.826 406.378 189.562 406 190.478C405.254 190.319 404.557 190.165 403.86 190.011C403.849 189.891 403.838 189.765 403.822 189.644Z" fill="#7C7C7C"/>
<path d="M134.761 160.578C130.037 160.332 125.495 159.114 121.441 156.425C115.06 152.19 112.833 145.135 115.483 137.943C117.134 133.455 120.124 130.103 124.162 127.673C128.04 125.336 132.292 125.023 136.599 126.005C139.72 126.718 142.743 127.815 145.179 130.076C145.497 130.372 145.969 130.504 146.364 130.734C147.554 131.425 147.949 132.802 147.373 134.086C147.165 134.552 147.017 135.046 146.885 135.534C145.431 140.999 144.027 146.474 142.524 151.927C141.992 153.847 141.202 155.696 140.593 157.6C140.038 159.328 138.875 160.244 137.103 160.425C136.363 160.502 135.622 160.524 134.772 160.578H134.761ZM143.094 133.093C140.944 132.232 138.815 131.65 136.615 131.277C131.058 130.328 126.614 132.16 123.196 136.571C121.578 138.656 120.623 141.053 120.497 143.676C120.332 147.083 121.918 149.727 124.573 151.746C127.108 153.677 129.999 154.884 133.055 155.718C134.042 155.987 135.057 156.184 136.067 156.365C136.851 156.508 137.416 156.25 137.542 155.367C137.581 155.087 137.641 154.802 137.707 154.527C139.364 147.423 140.647 140.22 143.1 133.093H143.094Z" fill="#3D3D3D"/>
<path d="M193.726 195.234C193.704 193.424 194.066 191.367 194.845 189.37C195.443 187.839 196.474 186.813 198.005 186.21C199.299 185.699 200.457 185.847 201.543 186.692C201.812 186.901 202.081 187.131 202.278 187.406C205.581 191.975 208.061 196.869 207.935 202.684C207.907 204.028 207.644 205.433 207.161 206.684C205.779 210.283 202.081 211.254 199.091 208.801C198.054 207.951 197.165 206.832 196.469 205.68C194.603 202.586 193.72 199.184 193.726 195.234Z" fill="#3D3D3D"/>
<path d="M261.314 173.52C261.589 171.918 261.847 170.058 262.236 168.226C262.538 166.789 263.388 165.719 264.891 165.395C266.384 165.072 267.602 165.67 268.529 166.811C270.323 169.016 271.48 171.551 272.204 174.294C273.038 177.437 273.23 180.614 272.479 183.79C272.259 184.723 271.892 185.655 271.403 186.478C269.555 189.589 265.851 189.622 264.129 186.435C263.224 184.756 262.648 182.836 262.258 180.959C261.775 178.622 261.638 176.208 261.314 173.526V173.52Z" fill="#3D3D3D"/>
<path d="M287.341 188.969C287.083 190.653 286.858 192.343 286.551 194.016C286.441 194.62 286.243 195.273 285.876 195.744C285.574 196.134 284.938 196.529 284.504 196.474C284.076 196.419 283.528 195.871 283.374 195.421C283.16 194.806 283.149 194.06 283.264 193.407C283.61 191.509 284.06 189.627 284.477 187.74C284.526 187.521 284.614 187.307 284.702 187.098C284.96 186.484 285.355 185.968 286.095 186.078C286.808 186.182 287.132 186.747 287.198 187.422C287.247 187.927 287.209 188.442 287.209 188.958L287.341 188.975V188.969Z" fill="#3D3D3D"/>
<path d="M185.628 221.035C185.458 222.083 185.26 223.499 184.986 224.898C184.887 225.391 184.712 225.946 184.383 226.291C184.075 226.609 183.499 226.856 183.077 226.807C182.748 226.768 182.292 226.269 182.216 225.907C182.073 225.194 182.046 224.415 182.166 223.702C182.386 222.407 182.737 221.14 183.061 219.867C183.253 219.11 183.571 218.43 184.531 218.49C185.288 218.539 185.623 219.126 185.628 220.322C185.628 220.437 185.628 220.553 185.628 221.035Z" fill="#3D3D3D"/>
<path d="M291.845 189.946C291.647 191.048 291.548 191.959 291.307 192.826C291.11 193.528 290.577 193.994 289.782 193.95C288.882 193.907 288.372 193.259 288.383 192.497C288.416 190.741 288.591 188.991 288.822 187.246C288.866 186.923 289.464 186.424 289.765 186.451C290.259 186.489 290.983 186.791 291.148 187.175C291.537 188.091 291.653 189.117 291.845 189.946Z" fill="#3D3D3D"/>
<path d="M179.868 220.876C179.566 222.039 179.165 223.691 178.699 225.32C178.529 225.924 177.997 226.34 177.399 226.055C177.037 225.885 176.631 225.293 176.658 224.92C176.779 223.285 177.048 221.661 177.262 220.037C177.267 219.982 177.295 219.927 177.311 219.878C177.657 218.995 178.266 218.523 178.913 218.632C179.604 218.748 179.922 219.324 179.868 220.876Z" fill="#3D3D3D"/>
<path d="M246.639 215.988C245.311 215.818 244.061 215.719 242.837 215.478C240.248 214.968 238.514 213.234 237.11 211.155C236.232 209.849 236.177 208.357 236.638 206.865C237.307 204.692 238.618 203.008 240.604 201.894C243.325 200.369 246.233 199.404 249.338 199.02C252.674 198.608 255.4 199.876 257.748 202.075C259.444 203.666 259.833 205.696 259.241 207.913C258.538 210.541 256.926 212.477 254.556 213.772C253.661 214.26 252.712 214.65 251.763 215.099C251.884 216.636 251.917 218.172 252.147 219.675C252.339 220.931 253.233 221.891 254.276 222.445C256.487 223.619 258.857 224.217 261.375 223.449C262.993 222.95 264.211 222.006 264.727 220.311C264.842 219.933 265.018 219.565 265.182 219.203C265.429 218.654 265.78 218.155 266.46 218.287C267.228 218.43 267.366 219.077 267.366 219.741C267.366 220.141 267.377 220.553 267.283 220.937C266.515 224.025 264.869 226.373 261.655 227.246C257.754 228.31 254.172 227.871 251.171 224.607C250.979 224.936 250.814 225.145 250.732 225.38C249.229 229.835 243.128 233.16 238.02 232.578C234.037 232.123 230.834 230.417 228.584 227.065C228.211 226.511 227.942 225.847 227.789 225.199C227.717 224.903 227.959 224.366 228.217 224.212C228.48 224.058 228.979 224.163 229.308 224.305C229.599 224.431 229.813 224.755 230.044 225.007C231.881 227.032 234.136 227.97 236.896 227.942C239.348 227.92 241.669 227.641 243.748 226.198C244.916 225.38 245.767 224.371 246.195 222.999C246.924 220.69 247.374 218.369 246.634 216.005L246.639 215.988Z" fill="#3D3D3D"/>
<path d="M143.094 133.093C140.642 140.22 139.358 147.423 137.701 154.527C137.636 154.807 137.575 155.087 137.537 155.367C137.411 156.25 136.846 156.508 136.061 156.365C135.052 156.184 134.037 155.987 133.049 155.718C129.999 154.878 127.102 153.671 124.568 151.746C121.912 149.727 120.327 147.083 120.491 143.676C120.618 141.053 121.572 138.656 123.191 136.571C126.614 132.166 131.058 130.328 136.61 131.277C138.81 131.65 140.933 132.232 143.089 133.093H143.094Z" fill="#8C6239"/>
</g>
<defs>
<clipPath id="clip0_131_148">
<rect width="474" height="474" fill="white"/>
</clipPath>
</defs>
</svg>
