<svg width="538" height="294" viewBox="0 0 538 294" fill="none" xmlns="http://www.w3.org/2000/svg">
<g clip-path="url(#clip0_2090_124)">
<mask id="mask0_2090_124" style="mask-type:luminance" maskUnits="userSpaceOnUse" x="-3" y="0" width="541" height="294">
<path d="M538 0H-2.36078V294H538V0Z" fill="white"/>
</mask>
<g mask="url(#mask0_2090_124)">
<path d="M483.517 157.964C483.797 158.071 484.093 158.204 484.406 158.301C487.03 159.112 489.341 160.419 491.405 162.067C495.813 165.589 497.43 170.193 497.05 175.354C496.518 182.505 492.943 188.277 486.874 192.784C486.538 193.034 486.208 193.285 485.721 193.652C486.387 193.851 486.89 193.979 487.377 194.147C489.598 194.913 491.875 195.571 494.023 196.48C499.024 198.598 501.492 202.355 502.034 207.27C502.521 211.69 501.301 215.789 499.231 219.724C499.041 220.087 498.823 220.439 498.51 220.985C499.349 221.087 500.054 221.184 500.764 221.255C503.567 221.536 506.191 222.292 508.546 223.736C510.336 224.839 511.505 226.252 511.975 228.279C512.294 229.647 512.283 230.943 512.221 232.296C512.132 234.194 512.048 236.093 512.082 237.992C512.115 240.074 511.142 241.447 509.139 242.463C504.926 244.597 500.445 245.975 495.735 246.735C488.664 247.879 481.621 249.226 474.46 249.839C471.154 250.119 467.842 250.334 464.524 250.467C458.085 250.717 451.646 250.911 445.201 251.084C441.884 251.176 438.561 251.207 435.238 251.202C431.171 251.202 427.109 251.15 423.042 251.084C413.823 250.941 404.598 250.89 395.39 250.574C389.851 250.385 384.33 249.772 378.797 249.354C375.787 249.124 372.755 249.007 369.762 248.665C361.801 247.756 353.813 246.95 346.148 244.576C343.609 243.79 341.114 242.948 338.792 241.692C337.695 241.1 337.192 240.442 337.399 239.161C337.589 237.982 337.332 236.731 337.192 235.522C336.968 233.597 336.677 231.683 336.414 229.723C335.687 229.723 335.15 229.708 334.613 229.723C328.42 229.897 322.227 230.147 316.034 230.244C304.98 230.417 293.926 230.616 282.871 230.57C276.136 230.545 269.4 230.147 262.67 229.8C258.564 229.59 254.463 229.243 250.379 228.82C246.978 228.468 243.644 227.768 240.416 226.696C238.435 226.038 236.696 225.022 235.124 223.746C234.05 222.879 232.886 222.098 231.829 221.215C229.21 219.02 227.224 216.376 225.451 213.584C222.083 208.275 219.577 202.63 217.658 196.76C216.383 192.856 215.225 188.931 215.034 184.75C212.545 183.872 211.991 181.887 211.633 179.769C211.214 177.278 211.348 174.813 212.008 172.266C209.793 171.388 209.619 169.545 209.675 167.723C209.72 166.243 209.916 164.727 210.352 163.308C211.057 161.006 211.79 158.678 212.892 156.524C218.022 146.515 225.227 137.909 234.424 130.702C235.062 130.202 235.739 129.743 236.416 129.288C237.082 128.839 237.775 128.421 238.81 127.762C238.329 127.492 237.943 127.354 237.675 127.109C234.111 123.904 230.559 120.683 227.012 117.462C226.732 117.207 226.542 116.87 226.251 116.635C225.938 116.385 225.569 116.069 225.188 116.018C221.529 115.517 218.089 114.369 214.699 113.078C212.265 112.154 209.781 111.404 207.186 110.97C206.945 110.929 206.693 110.822 206.458 110.847C204.713 111.051 203.186 110.245 201.558 109.944C199.796 109.617 199.208 108.142 200.187 106.667C201.63 104.487 203.331 102.481 205.513 100.874C209.457 97.9642 213.793 95.7643 218.872 94.9732C219.057 94.9426 219.236 94.8558 219.711 94.6976C218.805 94.2943 218.128 93.9881 217.44 93.6869C209.25 90.0987 204.305 84.2646 202.94 76.0367C202.531 73.5816 203.085 71.1674 204.148 68.8807C204.719 67.6506 205.586 66.6093 206.772 65.8182C209.239 64.1695 212.181 64.6085 213.916 66.9054C214.391 67.5332 214.794 68.2171 215.163 68.9062C215.627 69.7688 216.332 70.3711 217.328 70.6467C218.844 71.0653 220.355 71.5502 221.904 71.8003C226.346 72.5046 230.794 73.1682 235.258 73.7143C237.009 73.9287 238.816 73.796 240.595 73.8164C240.74 73.8164 240.903 73.7501 241.037 73.7858C242.726 74.1992 243.442 73.2141 244.27 72.1167C246.894 68.6408 250.295 65.859 254.239 63.7C261.014 59.9841 268.253 57.33 276.152 56.4265C286.032 55.2934 295.229 56.8808 303.302 62.4699C312.706 68.9777 318.546 77.5731 320.823 88.1183C322.289 94.9068 322.082 101.736 320.409 108.458C318.294 116.952 312.896 123.393 304.795 127.951C303.151 128.875 301.506 129.84 299.744 130.544C297.332 131.504 296.348 133.346 295.621 135.403C294.832 137.639 295.263 139.645 297.405 141.11C299.263 142.381 301.198 143.565 303.139 144.734C303.464 144.933 303.984 144.943 304.404 144.917C306.429 144.805 308.454 144.627 310.479 144.509C313.992 144.315 317.511 144.213 321.013 143.943C322.781 143.81 324.554 143.504 326.266 143.085C332.152 141.651 338.026 140.165 343.877 138.629C345.679 138.154 347.402 137.435 349.169 136.848C349.774 136.649 350.406 136.342 351.01 136.368C352.94 136.45 354.725 135.898 356.548 135.51C357.074 135.398 357.611 135.317 358.199 135.214C361.466 128.523 367.211 124.164 374.478 121.117C374.109 120.826 373.857 120.627 373.611 120.433C372.901 119.871 372.184 119.315 371.48 118.738C366.327 114.522 365.124 109.234 366.523 103.288C367.295 100.001 368.694 96.9077 370.445 93.9473C372.794 89.9711 376.302 87.1638 380.822 85.3774C381.264 85.2038 381.706 85.0201 382.31 84.7751C381.633 84.3412 381.074 84.0145 380.542 83.647C376.654 80.9316 374.495 77.2719 373.505 72.9589C372.24 67.4362 374.126 62.7608 378.237 58.7795C380.744 56.3551 383.776 54.6196 387.244 53.4151C391.893 51.8021 396.559 50.3168 401.493 49.6737C403.843 49.3675 406.22 49.1888 408.581 48.9642C409.068 48.9183 409.554 48.903 410.092 48.8672C410.142 48.6478 410.226 48.4793 410.22 48.316C410.136 45.9221 410.052 43.5232 409.952 41.1293C409.789 37.1328 410.03 33.1719 411.305 29.3132C412.005 27.2052 413.09 25.2962 414.864 23.7547C418.522 20.5646 424.01 20.6514 427.523 23.9793C429.252 25.6229 430.354 27.6186 430.863 29.8032C431.518 32.6258 432.005 35.4892 432.374 38.3578C432.777 41.4968 432.961 44.6665 433.246 47.8209C433.269 48.0863 433.325 48.3466 433.381 48.7345C435.266 48.903 437.129 49.051 438.992 49.2296C444.709 49.7758 450.415 50.4393 456.015 51.6694C459.909 52.5218 463.551 53.9051 466.656 56.2938C475.584 63.164 474.644 73.061 470.941 79.0584C470.247 80.1864 469.246 81.1562 468.317 82.2842C468.575 82.3812 468.854 82.5343 469.151 82.5854C473.492 83.3459 476.72 85.5611 479.153 88.8635C481.447 91.977 482.79 95.3866 483.036 99.1229C483.439 105.212 482.113 110.913 478.174 115.962C477.408 116.947 476.507 117.85 475.595 118.871C475.87 118.958 476.077 119.044 476.289 119.09C482.135 120.356 486.812 123.24 490.23 127.722C491.522 129.416 492.613 131.269 493.587 133.137C495.153 136.138 495.282 139.349 494.661 142.57C493.71 147.48 491.293 151.721 487.366 155.192C486.208 156.218 484.82 157.035 483.5 157.974L483.517 157.964ZM230.492 116.319C230.872 116.737 231.034 116.952 231.236 117.13C233.563 119.228 235.896 121.321 238.217 123.424C242.452 127.257 247.14 130.452 252.874 132.198C253.109 132.269 253.4 132.325 253.535 132.484C253.786 132.78 254.144 133.178 254.083 133.464C254.021 133.75 253.507 134.132 253.171 134.153C252.449 134.199 251.666 134.148 250.984 133.933C249.344 133.423 247.722 132.851 246.15 132.193C244.494 131.499 242.905 130.672 241.261 129.896C238.978 131.039 236.964 132.504 235.079 134.112C227.437 140.63 221.188 148.108 216.517 156.657C214.783 159.832 213.563 163.17 212.987 166.687C212.869 167.417 212.724 168.162 213.116 169.137C213.927 168.468 214.576 167.937 215.225 167.406C215.7 167.013 216.137 166.564 216.668 166.248C217.25 165.901 217.916 165.931 218.458 166.38C219.001 166.83 219.079 167.417 218.788 167.993C218.609 168.356 218.335 168.698 218.022 168.979C217.39 169.55 216.674 170.045 216.047 170.617C215.717 170.918 215.365 171.291 215.258 171.689C214.531 174.445 214.335 177.227 214.939 180.024C215.062 180.575 215.325 181.106 215.588 181.805C216.243 181.412 216.73 181.116 217.211 180.83C217.625 180.585 218.011 180.269 218.458 180.121C219.639 179.733 220.511 180.381 220.209 181.494C220.041 182.112 219.622 182.77 219.107 183.194C218.425 183.755 218.318 184.311 218.385 185.092C218.699 188.681 219.801 192.1 220.897 195.535C222.671 201.084 225.121 206.356 228.673 211.154C232.008 215.651 235.946 219.617 241.244 222.297C242.279 222.822 243.202 223.527 244.192 224.119C244.6 224.359 245.037 224.624 245.501 224.711C247.347 225.048 249.193 225.425 251.062 225.599C255.006 225.961 258.961 226.217 262.911 226.497C270.228 227.008 277.551 227.355 284.896 227.263C290.994 227.186 297.092 227.105 303.184 227.018C311.855 226.895 320.532 226.783 329.203 226.64C331.48 226.605 333.757 226.451 336.04 226.375C336.621 226.354 337.063 226.222 337.416 225.742C338.658 224.037 340.426 222.884 342.406 221.995C345.483 220.617 348.727 219.632 352.023 218.79C352.476 218.673 352.923 218.54 353.427 218.397C353.181 217.876 352.968 217.468 352.795 217.05C350.227 211.011 350.971 205.438 355.648 200.441C358.411 197.485 361.958 195.689 366.036 194.693C366.489 194.581 366.937 194.448 367.659 194.254C365.247 192.963 363.206 191.621 361.505 189.9C359.804 188.18 358.674 186.144 357.544 183.663C357.119 184.22 356.923 184.541 356.66 184.807C352.028 189.41 346.406 192.595 339.894 194.484C338.149 194.989 336.554 195.653 334.971 196.546C332.756 197.792 330.283 198.695 327.833 199.527C321.388 201.717 314.669 202.395 307.827 202.401C301.165 202.401 294.681 201.487 288.471 199.282C281.159 196.689 275.576 192.279 272.203 185.73C271.386 184.138 270.765 182.459 270.122 180.8C269.853 180.111 269.752 179.371 269.506 178.365C270.804 179.1 271.28 179.978 271.772 180.841C273.45 183.791 275.582 186.45 278.06 188.875C280.371 191.136 282.922 193.126 285.942 194.581C291.117 197.077 296.712 198.169 302.457 198.731C306.317 199.103 310.183 198.889 314.043 198.675C318.334 198.44 322.44 197.434 326.496 196.204C326.719 196.138 326.921 196.01 327.408 195.786C326.44 195.663 325.752 195.612 325.086 195.484C322.328 194.959 319.559 194.453 316.823 193.841C315.984 193.652 315.19 193.203 314.44 192.779C313.892 192.473 313.371 191.983 313.634 191.33C313.892 190.687 314.619 190.641 315.273 190.641C315.615 190.641 315.967 190.687 316.303 190.758C317.024 190.906 317.741 191.1 318.462 191.253C320.873 191.764 323.273 192.264 325.796 191.922C329.209 191.462 332.504 190.707 335.525 189.155C337.142 188.323 338.417 187.19 339.172 185.378C338.389 185.174 337.802 184.96 337.198 184.873C334.02 184.414 330.798 184.123 327.659 183.505C324.521 182.887 321.444 181.999 318.373 181.132C317.5 180.887 316.7 180.356 315.962 179.85C315.676 179.656 315.492 179.141 315.536 178.804C315.604 178.289 316.146 178.125 316.678 178.156C317.22 178.181 317.774 178.207 318.294 178.334C319.727 178.687 321.136 179.136 322.574 179.457C323.38 179.636 324.252 179.804 325.052 179.697C328.582 179.233 331.805 178.013 334.115 175.476C337.673 171.577 339.402 166.942 339.956 161.93C339.995 161.552 339.9 161.164 339.866 160.776C338.277 160.776 336.834 160.659 335.419 160.802C332.168 161.118 328.935 161.577 325.69 161.95C322.938 162.267 320.185 162.593 317.422 162.808C316.409 162.884 315.346 162.721 314.35 162.506C313.998 162.43 313.601 161.884 313.55 161.521C313.511 161.235 313.92 160.786 314.25 160.603C314.697 160.358 315.262 160.235 315.794 160.164C318.932 159.745 322.076 159.372 325.215 158.959C327.38 158.673 328.94 157.361 330.568 156.208C331.189 155.769 331.111 155.253 330.423 154.891C329.528 154.421 328.588 153.972 327.609 153.702C324.907 152.951 322.205 152.201 319.452 151.629C315.397 150.792 311.335 149.889 307.218 149.414C301.472 148.751 295.677 148.465 289.898 148.005C288.197 147.873 286.575 147.444 285.131 146.612C284.728 146.377 284.253 145.836 284.287 145.474C284.348 144.841 285.126 144.963 285.629 144.979C286.714 145.014 287.8 145.183 288.885 145.214C291.212 145.275 293.545 145.28 295.872 145.305C296.186 145.305 296.505 145.27 296.946 145.239C292.348 141.452 291.291 140.701 292.314 134.137C291.962 134.291 291.66 134.413 291.358 134.556C291.005 134.724 290.675 134.929 290.312 135.072C289.428 135.419 288.695 135.306 288.286 134.796C287.889 134.296 287.951 133.576 288.533 132.923C288.874 132.54 289.271 132.177 289.713 131.897C291.016 131.075 292.32 130.248 293.685 129.518C296.717 127.89 299.828 126.379 302.826 124.705C309.729 120.836 314.255 115.318 316.252 108.137C317.058 105.233 317.299 102.252 317.394 99.2607C317.545 94.718 317.187 90.2365 315.788 85.8367C313.248 77.8589 308.504 71.2439 301.394 66.0479C293.97 60.617 285.439 59.1062 276.203 60.2087C269.434 61.0152 263.146 63.1742 257.176 66.1244C253.613 67.8854 250.553 70.2537 247.89 73.0355C247.219 73.7347 246.642 74.5106 246.027 75.2507C247.862 77.2056 248.55 79.4157 248.819 81.7381C249.216 85.1477 250.279 88.3735 251.8 91.4921C252.6 93.1306 253.68 94.6465 255.42 95.5142C257.07 96.3411 257.451 97.4844 257.171 99.0157C256.785 101.108 255.884 103.002 254.53 104.712C252.231 107.601 249.462 110.025 246.038 111.802C241.294 114.262 236.321 116.099 230.464 116.334L230.492 116.319ZM427.255 158.995C427.255 158.877 427.255 158.76 427.255 158.643C435.132 158.428 443.003 158.183 450.88 158.01C456.329 157.892 461.783 157.887 467.198 157.239C471.467 156.723 475.741 156.223 479.903 155.146C481.665 154.687 483.193 153.901 484.496 152.747C488.104 149.552 490.281 145.668 490.963 141.125C491.349 138.568 491.053 136.052 489.676 133.744C488.709 132.121 487.752 130.457 486.51 129.013C481.704 123.439 475.366 121.336 467.702 122.367C464.91 122.745 462.108 123.133 459.294 123.225C454.046 123.393 448.793 123.403 443.54 123.373C435.216 123.322 426.891 123.174 418.567 123.087C416.536 123.067 414.5 123.026 412.475 123.153C405.655 123.577 398.841 124.113 392.022 124.531C387.944 124.782 383.893 124.506 379.972 123.373C378.954 123.082 378.064 123.112 377.107 123.48C373.65 124.807 370.506 126.573 367.709 128.855C363.894 131.968 361.427 135.796 360.308 140.349C359.815 142.35 359.698 144.366 360.117 146.403C360.817 149.802 362.344 152.773 365.393 154.942C367.687 156.575 370.266 157.698 373.113 158.29C379.166 159.556 385.292 159.526 391.451 159.316C396.844 159.138 402.248 159.041 407.647 158.995C414.187 158.944 420.726 158.985 427.266 158.985L427.255 158.995ZM423.395 229.728C429.991 229.871 436.575 229.601 443.154 229.223C448.843 228.896 454.527 228.575 460.217 228.274C465.313 228.003 470.409 227.779 475.506 227.493C480.524 227.212 485.246 225.972 489.654 223.736C491.461 222.817 493.05 221.674 494.213 220.117C497.229 216.09 498.65 211.665 497.838 206.775C497.329 203.717 495.629 201.38 492.535 200.002C487.388 197.705 482.029 196.184 476.216 196.663C471.372 197.062 466.521 196.954 461.671 197.072C456.021 197.21 450.371 197.281 444.726 197.47C433.487 197.853 422.248 198.394 411.003 198.7C398.562 199.042 386.137 198.669 373.74 197.48C368.498 196.98 363.81 198.389 359.883 201.584C355.401 205.233 354.109 210.394 356.313 215.421C357.477 218.075 359.312 220.301 361.874 221.99C365.762 224.553 370.159 226.028 374.803 226.936C381.756 228.294 388.828 228.789 395.904 229.06C405.062 229.407 414.231 229.514 423.4 229.728H423.395ZM429.185 194.729C429.185 194.698 429.185 194.673 429.185 194.642C431.216 194.571 433.246 194.494 435.277 194.423C442.706 194.157 450.13 193.892 457.559 193.632C463.4 193.427 469.246 193.305 475.081 193.024C478.18 192.876 481.195 192.187 483.746 190.482C489.503 186.624 492.798 181.422 493.178 174.889C493.402 171.035 492.177 167.539 488.893 164.88C485.911 162.46 482.493 160.99 478.409 160.96C476.228 160.945 474.051 160.827 471.875 160.745C471.042 160.715 470.191 160.531 469.375 160.623C464.105 161.2 458.824 161.506 453.515 161.542C447.864 161.583 442.214 161.669 436.575 161.94C427.02 162.394 417.476 162.797 407.899 162.634C403.048 162.552 398.181 162.588 393.331 162.787C386.484 163.073 379.664 163.221 372.912 161.863C372.537 161.787 372.067 161.705 371.759 161.843C370.741 162.297 369.678 162.741 368.8 163.379C364.464 166.529 361.499 170.438 360.666 175.573C359.698 181.514 361.885 186.225 367.127 189.778C369.533 191.406 372.252 192.514 375.116 193.31C378.982 194.382 382.976 194.821 386.987 194.954C393.225 195.153 399.474 195.311 405.717 195.26C413.543 195.204 421.37 194.918 429.196 194.734L429.185 194.729ZM422.779 86.097C422.779 86.2042 422.779 86.3063 422.779 86.4135C417.728 86.4288 412.676 86.3573 407.63 86.4799C400.995 86.6432 394.355 86.8167 387.737 87.2659C382.797 87.6028 378.534 89.6036 375.502 93.2276C372.235 97.1425 370.322 101.66 369.784 106.575C369.505 109.137 369.991 111.674 371.742 113.792C374.148 116.707 377.152 118.947 381.051 120.03C384.503 120.989 388.061 121.239 391.641 121.045C395.792 120.816 399.938 120.474 404.089 120.162C408.777 119.81 413.459 119.417 418.181 119.489C428.139 119.647 438.102 119.667 448.06 119.861C454.074 119.979 460.032 119.565 465.99 118.947C469 118.636 471.64 117.6 473.598 115.405C474.381 114.532 475.165 113.644 475.802 112.685C478.527 108.601 479.433 104.115 479.086 99.4087C478.773 95.1416 476.921 91.4615 473.581 88.4399C472.692 87.6334 471.696 86.9086 470.426 86.7555C468.759 86.5564 467.081 86.4186 465.397 86.3727C462.93 86.3063 460.457 86.3727 457.984 86.3369C454.421 86.2808 450.863 86.1226 447.299 86.1072C439.126 86.0715 430.953 86.097 422.779 86.097ZM442.857 82.8355C442.857 82.8048 442.857 82.7691 442.857 82.7385C446.919 82.8508 450.975 82.9682 455.036 83.0805C456.077 83.1111 457.112 83.1519 457.99 82.4425C458.225 82.2485 458.639 82.1464 458.964 82.1515C460.927 82.1975 462.443 81.2175 463.993 80.3395C465.626 79.4157 466.907 78.1345 467.696 76.5369C470.986 69.8811 469.665 62.4392 462.124 57.9578C459.764 56.5541 457.14 55.7221 454.427 55.1862C444.765 53.2721 434.969 52.2258 425.09 52.2054C418.903 52.1952 412.704 52.4555 406.528 52.8128C400.967 53.1343 395.546 54.2368 390.394 56.2377C386.607 57.7077 383.161 59.6728 380.626 62.6893C377.482 66.4256 376.677 70.6212 378.819 74.9342C381.068 79.4718 385.298 81.7534 390.646 82.2536C393.006 82.4731 395.412 82.32 397.767 82.5496C401.504 82.9171 405.247 83.0192 409.001 83.0447C411.328 83.0601 413.661 83.1315 415.988 83.0652C420.838 82.9274 425.672 82.6007 430.539 82.7946C434.639 82.958 438.757 82.8304 442.869 82.8304L442.857 82.8355ZM253.467 98.6992C253.305 98.5665 253.171 98.4389 253.02 98.3317C250.765 96.826 249.132 94.8711 248.03 92.5385C246.536 89.3688 245.395 86.1175 244.953 82.667C244.807 81.5135 244.433 80.3702 244.047 79.2575C243.605 77.9865 242.603 77.4149 241.098 77.4659C239.465 77.522 237.809 77.5935 236.198 77.4149C232.612 77.0116 229.037 76.4961 225.473 75.95C222.447 75.4906 219.432 74.9904 216.534 73.9951C214.38 73.255 212.735 72.0912 211.84 70.1159C211.689 69.7841 211.493 69.4626 211.297 69.1512C210.469 67.8343 209.681 67.6863 208.506 68.8041C206.766 70.4681 206.011 72.5353 206.503 74.7811C206.828 76.2664 207.432 77.7517 208.215 79.0941C210.335 82.7232 213.177 85.8367 216.797 88.3327C220.495 90.8796 224.634 92.7222 228.802 94.5189C229.513 94.8252 230.301 94.9834 231.045 95.2284C234.749 96.4585 238.609 96.5708 242.48 96.5759C243.09 96.5759 243.722 96.3462 244.298 96.1216C245.026 95.8358 245.714 95.8613 246.206 96.3922C246.984 97.2343 247.498 98.2194 247.37 99.373C247.291 100.118 246.838 100.629 246.066 100.874C245.272 101.129 244.589 100.899 244.052 100.358C243.728 100.031 243.504 99.6231 243.219 99.2301C240.858 99.5567 238.564 99.2403 236.254 98.9493C234.592 98.7401 232.903 98.5104 231.23 98.5614C228.88 98.6329 226.592 98.4032 224.293 98.0408C223.096 97.8519 221.826 97.8213 220.623 97.9693C215.661 98.592 211.449 100.736 207.622 103.569C206.358 104.503 205.244 105.595 204.327 106.958C205.63 107.3 206.828 107.723 208.142 107.443C210.548 106.927 212.752 107.351 214.822 108.55C216.159 109.326 217.468 110.158 218.878 110.801C223.018 112.69 227.431 113.323 232.019 112.884C236.914 112.419 241.266 110.577 245.361 108.218C248.075 106.657 250.245 104.538 251.996 102.083C252.723 101.062 253.333 99.9804 253.467 98.6992ZM355.519 221.306C352.313 221.909 347.223 223.44 344.644 224.726C343.357 225.369 342.104 226.145 341.035 227.064C339.681 228.223 339.777 229.575 341.175 230.713C341.863 231.275 342.708 231.709 343.553 232.066C346.59 233.368 349.869 233.858 353.136 234.429C360.794 235.767 368.481 236.685 376.302 236.752C381.997 236.798 387.703 237.032 393.387 237.395C402.243 237.961 411.093 238.538 419.977 238.359C429.442 238.165 438.908 237.9 448.368 237.619C457.14 237.359 465.906 237.109 474.672 236.721C479.769 236.496 484.86 236.124 489.928 235.608C495.399 235.052 500.501 233.276 505.447 231.127C506.224 230.79 506.929 230.213 507.505 229.616C508.199 228.896 508.132 228.253 507.394 227.564C506.918 227.12 506.336 226.747 505.749 226.416C503.668 225.237 501.313 224.961 498.935 224.706C496.803 224.476 495.041 224.742 493.145 225.951C488.261 229.075 482.639 230.586 476.714 231.004C471.674 231.362 466.622 231.535 461.576 231.811C455.786 232.127 450.001 232.52 444.211 232.781C438.522 233.041 432.821 233.306 427.126 233.337C421.431 233.368 415.731 233.107 410.03 232.985C402.349 232.821 394.662 232.775 387.004 232.117C382.17 231.699 377.331 231.27 372.61 230.162C366.075 228.621 360.028 226.273 355.53 221.312L355.519 221.306ZM508.848 233.684C508.563 233.72 508.456 233.715 508.378 233.75C501.855 236.864 494.963 238.946 487.601 239.442C480.384 239.926 473.156 240.238 465.934 240.575C462.32 240.743 458.701 240.799 455.087 240.917C447.557 241.157 440.027 241.402 432.502 241.631C430.572 241.692 428.637 241.708 426.707 241.764C418.925 241.994 411.143 241.886 403.367 241.488C394.959 241.054 386.567 240.268 378.131 240.228C371.189 240.192 364.263 239.87 357.421 238.625C351.748 237.594 345.925 237.114 340.666 234.654C340.633 234.639 340.571 234.674 340.37 234.73C340.453 235.756 340.616 236.823 340.605 237.885C340.599 238.967 341.164 239.523 342.21 239.86C343.704 240.34 345.169 240.896 346.663 241.381C353.964 243.734 361.606 244.535 369.225 245.403C373.158 245.852 377.119 246.046 381.074 246.322C387.049 246.735 393.023 247.333 399.009 247.47C411.35 247.751 423.691 247.787 436.032 247.899C439.003 247.925 441.979 247.894 444.955 247.802C450.947 247.613 456.938 247.261 462.935 247.164C471.394 247.026 479.73 246.036 488.015 244.602C491.618 243.979 495.237 243.433 498.806 242.688C502.001 242.019 505.033 240.876 507.841 239.294C508.345 239.013 508.876 238.778 508.859 238.094C508.826 236.65 508.848 235.21 508.848 233.699V233.684ZM429.185 48.3824C429.207 48.1731 429.247 48.0404 429.235 47.9128C428.888 44.0898 428.626 40.2565 428.144 36.4488C427.87 34.2642 427.316 32.1001 426.735 29.9563C426.365 28.5986 425.627 27.3481 424.497 26.3426C422.595 24.6531 419.798 24.5714 417.773 26.1333C416.284 27.2868 415.434 28.7977 414.869 30.4616C414.041 32.8912 413.65 35.3922 413.633 37.929C413.61 41.3131 413.65 44.6971 413.666 48.0812C413.666 48.2496 413.733 48.4181 413.778 48.6274C418.914 48.5457 423.988 48.4589 429.179 48.3772L429.185 48.3824ZM356.733 148.383C349.136 150.466 341.718 152.497 334.462 154.483C334.165 155.626 333.875 156.739 333.578 157.872C333.779 157.872 334.104 157.877 334.428 157.872C336.258 157.831 338.093 157.724 339.922 157.754C341.919 157.79 343.049 158.806 343.156 160.613C343.206 161.506 343.105 162.415 342.999 163.313C342.898 164.196 342.702 165.069 342.501 166.243C344.045 165.569 345.343 165.048 346.607 164.451C351.709 162.042 356.862 159.735 362.299 158.005C362.506 157.938 362.685 157.79 362.976 157.617C359.704 155.126 357.706 152.017 356.739 148.378L356.733 148.383ZM367.317 160.332C367.278 160.281 367.239 160.23 367.2 160.179C366.361 160.429 365.516 160.664 364.682 160.929C359.004 162.705 353.533 164.926 348.151 167.34C346.025 168.295 343.883 169.244 341.444 169.474C340.107 173.118 338.109 176.369 334.854 179.177C335.391 179.131 335.586 179.126 335.777 179.09C342.63 177.906 349.27 176.186 355.206 172.674C355.827 172.306 356.464 171.944 357.136 171.663C357.824 171.377 358.171 170.913 358.445 170.29C359.636 167.621 361.371 165.263 363.664 163.277C364.845 162.256 366.092 161.307 367.312 160.322L367.317 160.332ZM318.882 148.021C318.899 148.092 318.915 148.169 318.932 148.24C319.257 148.337 319.581 148.444 319.911 148.521C323.654 149.389 327.408 150.231 330.993 151.578C331.396 151.732 331.961 151.675 332.409 151.558C338.361 150.011 344.314 148.46 350.244 146.852C352.23 146.316 354.16 145.612 356.078 144.994C356.14 143.922 356.162 142.973 356.257 142.029C356.353 141.069 356.52 140.114 356.671 139.012C354.02 139.645 351.558 140.15 349.147 140.824C345.5 141.84 341.902 142.988 338.266 144.045C334.445 145.157 330.607 146.214 326.613 146.724C324.017 147.056 321.455 147.577 318.882 148.016V148.021ZM338.283 191.085C343.027 189.87 347.698 187.527 350.988 184.704C352.722 183.219 354.406 181.688 356.09 180.162C356.353 179.922 356.643 179.585 356.666 179.279C356.733 178.166 356.694 177.048 356.694 176.017C353.712 177.212 350.758 178.605 347.648 179.58C344.521 180.56 341.237 181.121 337.796 181.918C338.798 182.26 339.575 182.443 340.263 182.78C342.048 183.653 342.691 185.23 341.874 186.909C341.483 187.721 340.873 188.461 340.269 189.171C339.726 189.804 339.055 190.35 338.277 191.09L338.283 191.085Z" fill="#3D3D3D"/>
<path d="M79.9484 197.353C78.8967 197.026 77.9904 197.159 77.0841 197.664C76.1163 198.2 75.0422 198.577 73.9905 198.976C67.3053 201.492 60.6313 204.029 53.9181 206.484C51.6692 207.306 49.3363 207.928 47.0203 208.582C46.3713 208.765 45.6441 208.806 44.9672 208.771C43.4008 208.689 42.4106 207.479 42.8749 206.121C43.1322 205.366 43.6022 204.631 44.1392 203.998C45.9014 201.916 47.9042 200.048 50.2426 198.475C52.1894 197.164 54.0411 195.745 56.0999 194.249C55.6243 194.086 55.3782 193.953 55.1208 193.923C49.8062 193.361 44.4972 192.754 39.1714 192.284C33.4988 191.779 27.815 191.411 22.1368 190.977C20.6543 190.865 19.1718 190.768 17.7005 190.6C16.1732 190.421 15.8655 190.043 15.9047 188.665C15.9103 188.4 15.8711 188.129 15.8487 187.859C15.7816 187.2 16.0949 186.705 16.6879 186.379C17.1522 186.123 17.6501 185.904 18.1592 185.735C20.3689 185.016 22.3493 183.929 24.3409 182.806C28.9338 180.218 33.6107 177.747 38.2428 175.211C40.7099 173.863 43.2273 172.582 45.5825 171.092C48.9895 168.933 52.7768 167.927 56.8271 167.539C58.5446 167.376 60.2676 167.243 62.1361 167.085C61.9739 165.936 61.8117 164.875 61.6718 163.813C61.3529 161.343 60.9949 158.877 60.7543 156.402C60.6704 155.519 60.7431 154.58 60.9781 153.717C61.5263 151.706 63.5123 151.211 65.1682 152.62C65.5654 152.956 65.9347 153.339 66.2144 153.763C69.0171 158.025 71.7975 162.297 74.6954 166.733C76.0212 166.799 77.5429 166.865 79.0645 166.957C85.9847 167.386 92.9105 167.799 99.8251 168.269C106.544 168.728 113.263 169.254 119.981 169.744C122.499 169.928 125.022 170.127 127.539 170.27C128.104 170.3 128.697 170.168 129.251 170.015C130.767 169.591 132.267 169.126 133.76 168.647C134.264 168.483 134.795 168.3 135.209 167.998C140.166 164.461 145.1 160.899 150.045 157.346C151.947 155.978 153.866 154.631 155.858 153.217C155.321 152.456 154.817 151.742 154.314 151.022C153.62 150.032 152.91 149.052 152.244 148.041C151.942 147.582 151.696 147.076 151.489 146.576C151.198 145.872 151.377 145.229 151.986 144.723C152.613 144.208 153.379 144.182 154.068 144.535C154.75 144.887 155.388 145.341 155.97 145.821C157.212 146.852 158.409 147.934 159.628 148.996C159.819 148.924 159.964 148.899 160.07 148.822C166.873 143.983 173.67 139.15 180.462 134.301C182.336 132.963 184.232 131.652 186.028 130.228C189.116 127.773 192.786 126.706 196.741 126.272C198.168 126.114 199.611 126.103 201.032 125.935C202.151 125.802 203.281 125.624 204.355 125.323C207.342 124.48 210.397 124.317 213.474 124.485C214.727 124.557 215.93 124.455 217.16 124.317C218.072 124.215 219.029 124.291 219.941 124.429C220.724 124.547 221.261 125.072 221.378 125.818C221.501 126.573 221.088 127.104 220.388 127.492C220.064 127.67 219.734 127.895 219.516 128.171C215.471 133.316 211.516 138.512 207.398 143.606C203.751 148.118 199.991 152.558 196.17 156.943C193.921 159.526 191.449 161.94 189.071 164.431C188.551 164.977 188.036 165.528 187.494 166.054C186.213 167.294 185.099 168.585 185.72 170.459C185.172 172.189 186.056 173.434 187.281 174.659C189.217 176.599 191.08 178.595 192.887 180.631C194.973 182.984 196.987 185.393 198.99 187.803C199.37 188.262 199.639 188.818 199.84 189.37C200.098 190.069 199.907 190.722 199.258 191.202C198.66 191.641 197.955 191.702 197.3 191.376C196.607 191.034 195.919 190.646 195.337 190.166C192.545 187.859 189.782 185.526 187.024 183.188C185.468 181.866 183.941 180.514 182.336 179.12C178.436 181.616 174.33 183.398 169.29 183.296C169.648 183.98 169.866 184.47 170.157 184.929C172.176 188.145 174.218 191.35 176.243 194.561C176.96 195.699 177.743 196.806 178.341 197.996C178.778 198.863 179.371 199.282 180.394 199.481C183.443 200.073 185.866 201.563 187.454 204.044C189.48 207.209 189.334 210.419 187.124 213.39C184.954 216.309 181.804 217.79 177.849 217.591C175.65 217.478 173.536 217.141 171.684 215.896C166.755 212.588 166.179 205.698 170.537 201.798C170.851 201.518 171.169 201.247 171.477 200.982C170.062 199.2 159.265 190.263 158 189.803C156.356 195.464 154.711 201.124 153.038 206.867C153.475 207.03 153.944 207.168 154.37 207.372C155.461 207.893 156.635 208.326 157.609 209C162.012 212.073 162.666 217.305 159.181 221.245C156.809 223.93 153.682 225.482 149.995 226.114C148.395 226.39 146.84 226.211 145.346 225.589C142.152 224.257 139.679 222.286 138.493 219.178C137.234 215.876 137.81 212.859 140.222 210.138C140.596 209.72 140.96 209.23 141.458 208.975C143.147 208.117 143.271 206.754 143.321 205.193C143.433 201.895 143.735 198.603 143.953 195.311C143.981 194.867 143.953 194.423 143.953 193.851C142.655 194.239 141.436 194.581 140.233 194.959C135.964 196.286 131.741 197.725 127.427 198.919C124.166 199.823 120.793 200.415 117.475 201.16C117.005 201.267 116.507 201.4 116.127 201.65C112.519 204.044 108.938 206.463 105.352 208.883C105.078 209.067 104.821 209.261 104.48 209.506C104.832 209.888 105.14 210.225 105.447 210.567C109.749 215.334 108.25 222.291 102.287 225.175C99.7243 226.416 96.9831 226.952 94.0965 226.666C89.3245 226.191 86.0742 223.741 84.077 219.893C82.9806 217.779 83.2099 215.554 84.2281 213.441C85.8448 210.093 88.6029 207.888 92.5021 206.984C93.4531 206.765 94.0685 206.366 94.5888 205.642C95.5566 204.284 96.6027 202.967 97.6992 201.518C94.6391 200.507 91.7469 199.461 89.5035 197.281C87.7357 199.491 84.9833 200.053 82.5946 201.155C81.8281 201.507 80.961 201.558 80.1331 201.242C79.6016 201.038 79.1652 201.15 78.7513 201.451C77.5876 202.293 76.3457 203.059 75.2828 203.993C68.0605 210.338 63.1431 217.989 60.1054 226.671C59.2383 229.151 59.1935 231.673 60.0047 234.154C60.3515 235.215 61.0285 236.185 61.5767 237.191C61.683 237.39 61.8844 237.548 62.0019 237.747C64.1892 241.422 67.9542 243.213 72.0101 244.535C74.3765 245.306 76.866 245.781 79.3387 246.235C81.7107 246.669 84.1218 246.98 86.5274 247.22C96.7538 248.246 107.014 248.394 117.268 247.741C124.731 247.266 132.16 246.419 139.606 245.76C144.093 245.362 148.58 244.898 153.077 244.638C159.751 244.25 166.442 244.02 173.122 243.714C177.525 243.509 181.927 243.188 186.336 243.106C190.447 243.03 194.57 243.065 198.671 243.305C202.917 243.55 207.18 243.897 211.37 244.566C215.454 245.214 219.46 246.317 223.487 247.241C224.405 247.45 225.171 247.567 226.167 247.164C227.18 246.756 228.489 246.817 229.652 246.899C230.866 246.985 232.064 247.338 233.434 247.603C233.468 247.19 233.507 246.812 233.529 246.439C233.613 244.816 233.68 243.188 233.775 241.565C233.977 238.15 236.069 236.068 239.521 235.103C242.357 234.312 245.249 233.653 248.136 233.026C254.53 231.632 261.025 230.999 267.593 231.045C277.618 231.117 287.274 232.939 296.549 236.404C298.104 236.986 299.593 237.721 301.053 238.482C302.597 239.288 302.809 240.217 302.048 241.662C301.847 242.045 301.724 242.514 301.735 242.938C301.858 246.327 302.009 249.716 302.177 253.1C302.2 253.58 302.328 254.075 302.507 254.534C302.921 255.617 302.753 256.255 301.668 256.821C301.075 257.127 300.409 257.378 299.738 257.5C291.14 259.113 282.508 260.501 273.713 260.838C269.601 260.996 265.49 261.047 261.378 261.155C255.839 261.292 250.402 260.629 245.031 259.434C243.157 259.016 241.266 258.638 239.403 258.174C238.402 257.924 237.423 257.592 236.477 257.209C235.342 256.75 234.497 255.969 234.206 254.841C234.005 254.044 233.462 253.6 232.729 253.269C232.153 253.008 231.588 252.712 230.978 252.523C223.571 250.216 216.192 247.807 208.372 246.914C200.982 246.067 193.558 245.73 186.112 246.082C177.944 246.47 169.782 246.888 161.62 247.327C153.256 247.777 144.915 248.409 136.597 249.318C124.681 250.625 112.731 251.554 100.709 251.278C94.0182 251.125 87.3497 250.609 80.7093 249.828C77.0058 249.395 73.4311 248.501 69.9682 247.256C65.7389 245.735 62.0634 243.428 59.2662 240.161C57.6775 238.303 56.8775 236.017 56.402 233.684C55.8481 230.963 56.0048 228.279 56.9558 225.65C59.9487 217.33 64.5193 209.853 71.143 203.462C73.2297 201.446 75.5233 199.665 78.203 198.317C78.8016 198.016 79.3722 197.664 79.954 197.337L79.9484 197.353ZM21.7172 187.838C28.9674 188.41 35.882 188.895 42.7798 189.513C48.4468 190.023 54.0971 190.681 59.7529 191.284C66.248 191.973 72.7318 192.723 79.2324 193.351C83.3218 193.744 87.4392 193.882 91.5231 194.27C98.0573 194.887 104.396 194.198 110.499 192.034C114.65 190.559 118.723 188.905 122.812 187.287C128.468 185.046 133.721 182.147 138.745 178.901C139.875 178.171 140.921 177.334 141.961 176.502C142.381 176.165 142.689 175.711 143.231 175.109C142.062 174.93 141.201 174.731 140.328 174.67C131.981 174.062 123.634 173.501 115.288 172.888C105.559 172.179 95.8363 171.403 86.1078 170.709C76.8044 170.045 67.5011 169.994 58.1977 170.826C54.1922 171.183 50.4608 172.169 47.0035 174.134C43.0539 176.379 38.9757 178.442 34.9757 180.606C30.6401 182.954 26.3269 185.327 21.7172 187.843V187.838ZM297.998 242.897C297.461 243.019 297.181 243.086 296.902 243.147C294.054 243.729 291.235 244.469 288.354 244.852C281.389 245.776 274.401 245.255 267.442 244.704C262.457 244.311 257.49 243.765 252.528 243.183C247.672 242.616 242.771 242.213 238.122 240.626C237.904 240.549 237.647 240.559 237.328 240.524C237.272 240.968 237.216 241.366 237.166 241.764C236.724 245.296 237.166 248.808 237.423 252.324C237.557 254.233 237.596 254.274 239.677 254.764C241.882 255.28 244.114 255.703 246.335 256.178C250.984 257.163 255.688 257.735 260.472 257.612C263.341 257.536 266.217 257.459 269.092 257.393C276.835 257.209 284.51 256.494 292.113 255.132C294.138 254.769 296.163 254.397 298.3 254.014C298.2 250.293 298.104 246.694 298.004 242.902L297.998 242.897ZM179.572 159.219C179.913 158.877 180.187 158.622 180.434 158.346C183.773 154.539 187.315 150.874 190.235 146.77C190.71 146.102 191.382 145.525 192.059 145.009C192.674 144.545 193.457 144.524 194.14 144.948C194.822 145.372 195.04 146.01 194.85 146.74C194.733 147.179 194.576 147.607 194.397 148.031C192.417 152.727 189.927 157.193 187.04 161.48C186.828 161.797 186.649 162.124 186.453 162.45C197.166 151.752 206.106 139.88 215.286 127.864C214.022 128.007 213.015 128.191 211.997 128.232C207.689 128.411 203.381 128.559 199.074 128.696C194.805 128.834 191.057 130.08 187.857 132.734C185.989 134.28 184.003 135.72 182.017 137.144C175.706 141.671 169.368 146.173 163.035 150.675C162.733 150.889 162.392 151.048 162.056 151.236C163.55 152.757 164.786 154.054 166.079 155.299C166.347 155.554 166.823 155.743 167.214 155.764C171.237 155.973 175.041 156.825 178.515 158.75C178.806 158.913 179.13 159.03 179.566 159.229L179.572 159.219ZM159.701 178.569C158.588 177.416 157.396 176.334 156.4 175.114C155.354 173.838 154.672 172.337 154.51 170.744C154.353 169.244 154.476 167.723 154.476 166.222C149.139 167.794 143.852 169.356 138.56 170.918C139.55 171.143 140.535 171.163 141.503 171.301C142.571 171.454 143.662 171.617 144.675 171.944C146.661 172.582 147.483 174.134 146.789 175.956C146.487 176.747 146.017 177.559 145.385 178.156C144.188 179.289 142.907 180.381 141.52 181.31C137.117 184.25 132.479 186.853 127.539 188.992C124.496 190.309 121.436 191.585 118.353 192.825C113.084 194.948 107.707 196.771 101.962 197.506C100.519 197.689 99.0642 197.817 97.5538 197.98C97.688 198.093 97.7496 198.174 97.8279 198.205C98.1076 198.302 98.3873 198.389 98.6726 198.465C101.419 199.195 104.205 199.364 107.053 199.17C112.608 198.792 118.068 197.827 123.377 196.378C129.251 194.77 134.991 192.769 140.82 191.018C144.652 189.87 148.266 188.333 151.718 186.435C152.663 185.914 153.749 185.598 154.912 185.133C156.44 183.03 158.101 180.749 159.69 178.569H159.701ZM241.915 238.165C241.91 238.268 241.904 238.375 241.898 238.477C243.392 238.701 244.88 239.008 246.385 239.14C255.504 239.952 264.611 240.809 273.741 241.483C278.877 241.861 284.04 241.871 289.154 241.075C290.843 240.814 292.544 240.569 294.34 239.865C276.93 233.454 259.509 233.536 241.915 238.165ZM95.0419 223.481C97.1845 223.496 98.9411 223.067 100.575 222.246C104.496 220.275 105.38 215.682 102.37 212.655C101.548 211.828 100.547 211.124 99.5286 210.501C97.951 209.536 96.2279 209.209 94.3035 209.648C91.1203 210.373 88.7315 211.935 87.4448 214.737C86.8294 216.08 86.6504 217.499 87.4057 218.81C89.0616 221.704 91.6126 223.425 95.0475 223.486L95.0419 223.481ZM157.911 215.314C157.777 213.385 156.367 211.838 154.269 210.766C152.568 209.893 150.689 209.434 148.753 209.261C147.998 209.194 147.136 209.306 146.448 209.582C144.244 210.475 142.582 211.925 141.659 213.992C141.24 214.926 141.145 215.911 141.363 216.917C142.057 220.148 144.356 222.001 147.64 222.991C148.048 223.113 148.529 223.144 148.954 223.077C151.88 222.628 154.431 221.526 156.361 219.413C157.34 218.341 157.905 217.111 157.911 215.309V215.314ZM178.011 214.298C180.333 214.349 182.151 213.446 183.594 211.889C185.178 210.179 185.39 207.872 184.137 205.958C182.464 203.396 179.807 202.528 176.697 202.62C175.617 202.651 174.548 202.824 173.62 203.452C170.196 205.769 170.129 210.746 173.553 213.084C174.162 213.502 174.934 213.773 175.678 213.972C176.428 214.171 177.234 214.196 178.011 214.298ZM162.051 175.849C163.947 173.348 165.799 170.954 168.255 169.014C168.764 168.611 168.451 168.233 168.076 167.866C166.895 166.722 165.709 165.584 164.579 164.4C163.774 163.558 163.063 162.644 162.179 161.613C161.122 162.797 160.098 163.828 159.226 164.956C158.728 165.605 158.353 166.386 158.129 167.151C157.217 170.26 158.705 173.562 162.056 175.844L162.051 175.849ZM60.0383 194.555C59.2662 195.301 58.746 195.908 58.1138 196.393C55.8817 198.108 53.6216 199.787 51.3559 201.466C50.0132 202.462 48.7825 203.549 47.6692 204.876C49.5769 204.677 69.0171 197.419 71.4674 195.995C67.5067 195.495 63.7137 195.02 60.0439 194.555H60.0383ZM147.427 192.657C147.147 197.123 146.543 201.64 146.733 206.315C147.41 206.315 148.042 206.326 148.68 206.315C149.021 206.31 149.363 206.259 149.844 206.213C151.399 200.599 152.954 194.979 154.571 189.125C152.087 190.355 149.883 191.447 147.427 192.662V192.657ZM165.749 183.663C164.104 185.154 162.543 186.567 161.049 187.915C165.474 191.529 170.028 195.25 174.582 198.965C171.645 193.826 168.165 188.951 165.749 183.663ZM157.967 156.147C153.531 159.229 149.178 162.251 144.826 165.273C145.24 165.36 145.57 165.298 145.877 165.196C148.3 164.395 150.711 163.583 153.133 162.787C154.291 162.404 155.405 161.879 156.708 162.011C156.949 162.037 157.279 161.868 157.463 161.69C158.375 160.812 159.253 159.903 160.177 158.969C159.427 158.01 158.711 157.101 157.967 156.152V156.147ZM168.831 180.044C172.898 179.891 176.204 178.748 179.326 176.727C177.754 175.476 176.322 174.333 174.811 173.133C172.842 175.41 170.957 177.584 168.831 180.044ZM70.6954 166.773C70.1864 165.411 64.6088 156.907 63.8871 156.386C64.2676 159.929 64.6144 163.42 65.3473 166.773H70.6954ZM108.468 202.462H101.358C100.474 203.641 99.5286 204.896 98.5495 206.198C99.5677 206.622 100.502 207.015 101.52 207.438C103.741 205.846 105.979 204.248 108.468 202.462ZM170.498 171.097C168.825 172.449 160.635 182.387 159.819 183.995C161.765 182.755 171.511 172.48 171.471 171.617C171.186 171.464 170.851 171.286 170.498 171.097ZM170.582 159.541C171.79 161.077 173.418 161.95 173.939 163.619C174.459 163.757 174.968 163.89 175.505 164.038C176.115 163.313 176.674 162.644 177.301 161.899C175.248 160.679 173.172 159.857 170.582 159.541ZM170.655 164.329C167.807 161.516 165.066 158.811 162.325 156.106C162.241 156.167 162.157 156.228 162.079 156.289C164.434 159.209 166.795 162.124 169.206 165.104C169.732 164.824 170.095 164.63 170.66 164.323L170.655 164.329ZM183.661 175.93C183.723 175.874 183.79 175.813 183.852 175.757C181.838 173.633 179.818 171.515 177.709 169.295C177.306 169.836 177.015 170.224 176.691 170.663C179.074 172.465 181.368 174.195 183.661 175.93ZM178.593 165.37C180.775 164.267 184.495 159.98 184.993 158.147C182.789 160.633 180.691 163.001 178.593 165.37ZM171.706 167.182C171.941 168.024 172.355 168.524 173.127 168.529C173.804 168.534 174.297 168.177 174.381 167.473C173.586 166.687 172.736 166.865 171.706 167.177V167.182ZM181.916 168.938C182.011 168.892 182.101 168.846 182.196 168.8C182.067 168.346 181.933 167.896 181.765 167.299C181.418 167.544 181.206 167.697 180.92 167.901C181.295 168.289 181.608 168.611 181.922 168.938H181.916Z" fill="#3D3D3D"/>
<path d="M230.492 116.319C236.354 116.084 241.322 114.247 246.066 111.786C249.49 110.015 252.259 107.586 254.558 104.697C255.918 102.992 256.813 101.093 257.199 99.0004C257.479 97.4691 257.098 96.3258 255.448 95.4989C253.708 94.6312 252.628 93.1153 251.828 91.4768C250.307 88.3633 249.238 85.1375 248.847 81.7228C248.578 79.4055 247.89 77.1954 246.055 75.2354C246.67 74.5004 247.247 73.7246 247.918 73.0202C250.586 70.2384 253.641 67.8701 257.204 66.1091C263.174 63.1589 269.456 60.9999 276.231 60.1934C285.467 59.0909 293.998 60.6017 301.422 66.0326C308.527 71.2286 313.276 77.8487 315.816 85.8214C317.215 90.2212 317.573 94.7027 317.422 99.2454C317.321 102.236 317.086 105.212 316.28 108.122C314.283 115.303 309.757 120.826 302.854 124.69C299.856 126.369 296.745 127.875 293.713 129.503C292.348 130.238 291.044 131.06 289.741 131.881C289.299 132.162 288.902 132.525 288.561 132.907C287.979 133.561 287.917 134.28 288.314 134.781C288.723 135.291 289.456 135.403 290.34 135.056C290.703 134.913 291.033 134.709 291.386 134.541C291.682 134.398 291.99 134.275 292.342 134.122C291.319 140.686 292.376 141.436 296.974 145.224C296.527 145.249 296.214 145.29 295.9 145.29C293.573 145.27 291.24 145.259 288.913 145.198C287.828 145.168 286.742 144.999 285.657 144.963C285.154 144.948 284.376 144.826 284.315 145.459C284.281 145.821 284.756 146.362 285.159 146.597C286.603 147.429 288.225 147.857 289.926 147.99C295.699 148.45 301.5 148.735 307.246 149.399C311.363 149.874 315.425 150.772 319.48 151.614C322.227 152.181 324.935 152.936 327.637 153.686C328.622 153.957 329.556 154.406 330.451 154.876C331.139 155.238 331.217 155.754 330.596 156.193C328.968 157.346 327.408 158.663 325.243 158.944C322.104 159.357 318.96 159.73 315.822 160.148C315.29 160.22 314.731 160.342 314.278 160.587C313.942 160.771 313.539 161.22 313.578 161.506C313.623 161.874 314.026 162.415 314.378 162.491C315.374 162.706 316.437 162.869 317.45 162.792C320.213 162.583 322.966 162.251 325.718 161.935C328.963 161.562 332.196 161.103 335.447 160.786C336.862 160.649 338.305 160.761 339.894 160.761C339.928 161.144 340.023 161.537 339.984 161.914C339.43 166.927 337.701 171.561 334.143 175.461C331.833 177.992 328.61 179.217 325.08 179.682C324.28 179.789 323.402 179.621 322.602 179.442C321.159 179.12 319.755 178.671 318.322 178.319C317.802 178.192 317.248 178.171 316.706 178.141C316.174 178.115 315.632 178.278 315.564 178.789C315.52 179.126 315.71 179.641 315.99 179.835C316.734 180.34 317.534 180.871 318.401 181.116C321.472 181.984 324.549 182.872 327.687 183.49C330.826 184.107 334.048 184.398 337.226 184.858C337.835 184.944 338.423 185.159 339.2 185.363C338.445 187.175 337.17 188.308 335.553 189.14C332.532 190.697 329.231 191.447 325.824 191.906C323.301 192.248 320.901 191.748 318.49 191.238C317.769 191.085 317.052 190.896 316.331 190.743C315.995 190.671 315.643 190.625 315.301 190.625C314.647 190.625 313.92 190.671 313.662 191.314C313.399 191.968 313.914 192.458 314.468 192.764C315.223 193.182 316.012 193.637 316.851 193.826C319.587 194.438 322.356 194.943 325.114 195.469C325.78 195.597 326.468 195.648 327.436 195.77C326.949 195.995 326.747 196.117 326.524 196.189C322.468 197.419 318.356 198.424 314.071 198.659C310.211 198.874 306.345 199.093 302.485 198.715C296.734 198.159 291.14 197.067 285.97 194.566C282.95 193.106 280.398 191.115 278.088 188.859C275.61 186.435 273.478 183.775 271.8 180.825C271.313 179.963 270.832 179.08 269.534 178.35C269.786 179.36 269.887 180.101 270.15 180.784C270.799 182.443 271.414 184.128 272.231 185.715C275.604 192.264 281.187 196.674 288.499 199.267C294.709 201.467 301.193 202.385 307.855 202.385C314.697 202.385 321.422 201.701 327.861 199.512C330.311 198.68 332.784 197.771 334.999 196.531C336.582 195.643 338.177 194.974 339.922 194.469C346.434 192.58 352.056 189.39 356.688 184.791C356.951 184.526 357.147 184.204 357.572 183.648C358.702 186.129 359.832 188.17 361.533 189.885C363.234 191.61 365.275 192.948 367.687 194.239C366.965 194.433 366.517 194.566 366.064 194.678C361.986 195.668 358.439 197.47 355.676 200.425C350.999 205.422 350.249 210.996 352.823 217.034C353.002 217.453 353.209 217.856 353.455 218.382C352.946 218.525 352.498 218.662 352.051 218.775C348.755 219.617 345.516 220.602 342.434 221.98C340.448 222.868 338.686 224.022 337.444 225.727C337.097 226.201 336.655 226.339 336.068 226.36C333.791 226.436 331.514 226.584 329.231 226.625C320.56 226.768 311.883 226.88 303.212 227.003C297.114 227.089 291.017 227.171 284.924 227.248C277.585 227.34 270.256 226.992 262.939 226.482C258.983 226.206 255.028 225.951 251.09 225.584C249.221 225.41 247.375 225.032 245.529 224.696C245.065 224.609 244.628 224.349 244.22 224.104C243.224 223.511 242.307 222.802 241.272 222.281C235.974 219.602 232.036 215.636 228.701 211.139C225.149 206.346 222.699 201.074 220.925 195.52C219.829 192.09 218.727 188.67 218.413 185.077C218.346 184.296 218.453 183.74 219.135 183.178C219.65 182.755 220.069 182.096 220.237 181.479C220.539 180.366 219.667 179.718 218.486 180.106C218.033 180.254 217.647 180.57 217.239 180.815C216.752 181.101 216.271 181.397 215.616 181.79C215.353 181.086 215.085 180.56 214.967 180.009C214.358 177.212 214.559 174.425 215.286 171.674C215.393 171.281 215.745 170.908 216.075 170.602C216.702 170.025 217.418 169.53 218.05 168.963C218.363 168.682 218.637 168.341 218.816 167.978C219.102 167.396 219.029 166.814 218.486 166.365C217.944 165.916 217.278 165.885 216.696 166.232C216.165 166.549 215.734 167.003 215.253 167.391C214.604 167.922 213.955 168.453 213.144 169.121C212.752 168.147 212.892 167.401 213.015 166.671C213.591 163.155 214.811 159.822 216.545 156.642C221.222 148.092 227.465 140.61 235.107 134.097C236.992 132.489 239.006 131.024 241.289 129.881C242.933 130.662 244.522 131.483 246.178 132.177C247.75 132.836 249.372 133.408 251.012 133.918C251.694 134.132 252.472 134.183 253.199 134.137C253.535 134.117 254.049 133.734 254.111 133.448C254.172 133.163 253.814 132.759 253.563 132.468C253.428 132.31 253.132 132.254 252.902 132.183C247.168 130.437 242.48 127.242 238.245 123.409C235.924 121.306 233.585 119.218 231.264 117.115C231.062 116.936 230.9 116.722 230.52 116.304L230.492 116.319ZM274.178 91.5534C271.778 91.4105 269.389 92.319 267.162 93.687C266.62 94.0187 266.29 94.4424 266.463 95.0549C266.636 95.6572 267.151 95.9787 267.8 95.9277C268.774 95.846 269.769 95.7439 270.698 95.4785C272.371 95.0089 274.032 94.6312 275.806 94.815C277.82 95.0242 279.38 95.8358 280.337 97.4998C281.294 99.1535 281.998 100.879 282.161 102.762C282.2 103.211 282.256 103.671 282.418 104.089C282.832 105.151 283.749 105.294 284.555 104.452C285.294 103.671 285.68 102.762 285.741 101.731C285.859 99.7405 285.361 97.8724 284.359 96.1114C283.537 94.6618 282.312 93.5798 280.706 92.8448C278.759 91.9515 276.695 91.5636 274.178 91.5636V91.5534Z" fill="#FBCC39"/>
<path d="M427.255 158.995C420.715 158.995 414.175 158.954 407.636 159.005C402.237 159.051 396.839 159.143 391.44 159.327C385.286 159.531 379.155 159.561 373.102 158.301C370.254 157.703 367.675 156.58 365.382 154.952C362.333 152.783 360.811 149.812 360.106 146.413C359.687 144.371 359.804 142.36 360.296 140.359C361.41 135.807 363.882 131.973 367.698 128.865C370.495 126.583 373.639 124.817 377.096 123.49C378.053 123.123 378.942 123.092 379.961 123.383C383.882 124.511 387.932 124.792 392.011 124.542C398.83 124.123 405.644 123.592 412.463 123.164C414.489 123.036 416.525 123.077 418.556 123.097C426.88 123.184 435.204 123.332 443.529 123.383C448.782 123.414 454.035 123.403 459.282 123.235C462.091 123.143 464.899 122.755 467.691 122.377C475.36 121.341 481.693 123.449 486.499 129.023C487.741 130.468 488.697 132.132 489.665 133.755C491.041 136.057 491.338 138.573 490.952 141.135C490.264 145.673 488.093 149.557 484.485 152.757C483.181 153.911 481.66 154.697 479.892 155.156C475.73 156.239 471.456 156.739 467.187 157.249C461.772 157.897 456.317 157.902 450.869 158.02C442.992 158.188 435.121 158.438 427.244 158.653C427.244 158.77 427.244 158.888 427.244 159.005L427.255 158.995Z" fill="#FFFAA1"/>
<path d="M423.395 229.728C414.231 229.519 405.062 229.407 395.899 229.06C388.822 228.789 381.751 228.294 374.797 226.936C370.154 226.033 365.757 224.553 361.868 221.99C359.306 220.301 357.471 218.075 356.308 215.421C354.109 210.394 355.396 205.238 359.877 201.584C363.804 198.389 368.492 196.975 373.734 197.48C386.125 198.669 398.55 199.042 410.998 198.7C422.242 198.394 433.476 197.853 444.72 197.47C450.365 197.276 456.015 197.21 461.666 197.072C466.516 196.954 471.366 197.062 476.211 196.663C482.029 196.184 487.388 197.705 492.529 200.002C495.623 201.38 497.324 203.717 497.833 206.775C498.65 211.67 497.229 216.09 494.208 220.117C493.044 221.669 491.45 222.817 489.648 223.736C485.246 225.977 480.518 227.212 475.5 227.493C470.404 227.778 465.307 227.998 460.211 228.274C454.522 228.575 448.838 228.896 443.148 229.223C436.569 229.601 429.985 229.876 423.389 229.728H423.395Z" fill="#5476B7"/>
<path d="M429.185 194.729C421.359 194.913 413.532 195.193 405.706 195.255C399.462 195.301 393.219 195.147 386.976 194.948C382.965 194.821 378.97 194.377 375.105 193.305C372.24 192.514 369.527 191.401 367.116 189.773C361.874 186.225 359.692 181.514 360.655 175.568C361.488 170.433 364.453 166.523 368.789 163.374C369.667 162.736 370.73 162.292 371.748 161.838C372.056 161.7 372.526 161.782 372.901 161.858C379.653 163.216 386.472 163.068 393.32 162.782C398.17 162.578 403.032 162.542 407.887 162.629C417.459 162.792 427.009 162.394 436.564 161.935C442.203 161.664 447.859 161.577 453.504 161.537C458.813 161.496 464.094 161.195 469.363 160.618C470.18 160.526 471.03 160.71 471.864 160.74C474.04 160.822 476.222 160.939 478.398 160.955C482.482 160.985 485.9 162.455 488.882 164.875C492.166 167.539 493.391 171.035 493.167 174.884C492.781 181.417 489.492 186.618 483.735 190.477C481.19 192.187 478.169 192.871 475.07 193.019C469.235 193.3 463.389 193.422 457.548 193.626C450.119 193.882 442.695 194.152 435.266 194.418C433.235 194.489 431.205 194.566 429.174 194.637C429.174 194.668 429.174 194.693 429.174 194.724L429.185 194.729Z" fill="#9EC376"/>
<path d="M422.779 86.097C430.953 86.097 439.126 86.0714 447.299 86.1072C450.863 86.1225 454.421 86.2807 457.984 86.3369C460.457 86.3777 462.93 86.3113 465.397 86.3726C467.075 86.4185 468.759 86.5512 470.426 86.7554C471.702 86.9085 472.692 87.6333 473.581 88.4398C476.921 91.4614 478.773 95.1415 479.086 99.4086C479.433 104.115 478.527 108.601 475.802 112.685C475.165 113.644 474.376 114.532 473.598 115.405C471.64 117.6 469.005 118.636 465.99 118.947C460.032 119.57 454.068 119.978 448.06 119.861C438.102 119.667 428.139 119.647 418.181 119.488C413.459 119.412 408.777 119.805 404.089 120.162C399.943 120.474 395.798 120.816 391.641 121.045C388.061 121.244 384.509 120.989 381.051 120.029C377.152 118.947 374.148 116.707 371.742 113.792C369.991 111.669 369.505 109.137 369.784 106.575C370.322 101.665 372.235 97.1475 375.502 93.2275C378.528 89.5984 382.797 87.5976 387.737 87.2658C394.355 86.8167 400.995 86.6431 407.63 86.4798C412.676 86.3573 417.733 86.4287 422.779 86.4134C422.779 86.3062 422.779 86.2042 422.779 86.097Z" fill="#F19436"/>
<path d="M442.857 82.8356C438.746 82.8356 434.628 82.9632 430.528 82.7999C425.661 82.6059 420.827 82.9326 415.977 83.0704C413.65 83.1367 411.322 83.0653 408.989 83.05C405.236 83.0296 401.493 82.9224 397.756 82.5549C395.395 82.3252 392.995 82.4834 390.635 82.2588C385.286 81.7586 381.063 79.472 378.808 74.9394C376.671 70.6264 377.477 66.4308 380.615 62.6945C383.155 59.678 386.601 57.7129 390.383 56.2429C395.535 54.2421 400.956 53.1396 406.517 52.818C412.693 52.4607 418.891 52.1953 425.079 52.2106C434.964 52.231 444.754 53.2774 454.415 55.1914C457.134 55.7274 459.758 56.5593 462.113 57.963C469.654 62.4444 470.975 69.8812 467.685 76.5422C466.896 78.1398 465.61 79.4209 463.982 80.3448C462.438 81.2227 460.922 82.2027 458.952 82.1567C458.628 82.1465 458.214 82.2537 457.979 82.4477C457.106 83.1572 456.071 83.1112 455.025 83.0857C450.964 82.9785 446.908 82.8611 442.846 82.7437C442.846 82.7743 442.846 82.8101 442.846 82.8407L442.857 82.8356Z" fill="#FF7756"/>
<path d="M253.467 98.6993C253.333 99.9753 252.723 101.057 251.996 102.083C250.251 104.538 248.075 106.652 245.361 108.219C241.266 110.577 236.919 112.419 232.019 112.884C227.432 113.323 223.018 112.69 218.878 110.801C217.468 110.158 216.153 109.326 214.822 108.55C212.758 107.351 210.548 106.927 208.142 107.443C206.833 107.723 205.63 107.3 204.327 106.958C205.244 105.595 206.358 104.503 207.622 103.569C211.449 100.741 215.667 98.5921 220.623 97.9694C221.826 97.8163 223.096 97.852 224.293 98.0409C226.598 98.4033 228.88 98.633 231.23 98.5615C232.897 98.5105 234.587 98.7401 236.254 98.9494C238.564 99.2403 240.858 99.5568 243.219 99.2301C243.504 99.6232 243.728 100.031 244.052 100.358C244.589 100.899 245.272 101.129 246.066 100.874C246.838 100.624 247.291 100.113 247.37 99.3731C247.493 98.2195 246.984 97.2344 246.206 96.3922C245.719 95.8614 245.031 95.841 244.298 96.1217C243.722 96.3463 243.09 96.576 242.48 96.576C238.609 96.576 234.749 96.4586 231.045 95.2285C230.301 94.9835 229.513 94.8252 228.802 94.519C224.634 92.7223 220.495 90.8797 216.797 88.3327C213.177 85.8419 210.33 82.7284 208.215 79.0942C207.432 77.7518 206.828 76.2665 206.503 74.7812C206.011 72.5353 206.766 70.4682 208.506 68.8042C209.681 67.6813 210.47 67.8344 211.297 69.1513C211.493 69.4626 211.689 69.7842 211.84 70.116C212.73 72.0913 214.38 73.255 216.534 73.9951C219.432 74.9956 222.447 75.4907 225.473 75.95C229.037 76.4962 232.612 77.0117 236.198 77.4149C237.809 77.5936 239.465 77.5221 241.098 77.466C242.603 77.4149 243.605 77.9815 244.047 79.2575C244.433 80.3702 244.807 81.5136 244.953 82.6671C245.389 86.1175 246.536 89.374 248.03 92.5386C249.132 94.8712 250.765 96.8261 253.02 98.3318C253.177 98.4339 253.305 98.5666 253.467 98.6993Z" fill="#F19436"/>
<path d="M355.519 221.306C360.017 226.268 366.064 228.621 372.598 230.157C377.32 231.27 382.159 231.698 386.993 232.112C394.651 232.77 402.338 232.816 410.019 232.98C415.719 233.102 421.42 233.362 427.115 233.332C432.81 233.301 438.511 233.036 444.2 232.775C449.99 232.51 455.775 232.122 461.565 231.806C466.611 231.53 471.663 231.351 476.703 230.999C482.627 230.581 488.25 229.07 493.134 225.946C495.03 224.736 496.792 224.471 498.924 224.701C501.301 224.956 503.657 225.237 505.738 226.411C506.325 226.742 506.901 227.115 507.382 227.559C508.121 228.248 508.188 228.891 507.494 229.611C506.918 230.208 506.213 230.785 505.436 231.122C500.496 233.265 495.388 235.042 489.917 235.603C484.848 236.119 479.752 236.491 474.661 236.716C465.9 237.104 457.129 237.354 448.357 237.614C438.897 237.895 429.431 238.16 419.966 238.354C411.082 238.533 402.232 237.956 393.376 237.39C387.692 237.027 381.991 236.792 376.291 236.746C368.47 236.68 360.783 235.761 353.125 234.424C349.857 233.852 346.579 233.368 343.542 232.061C342.702 231.698 341.852 231.265 341.164 230.708C339.765 229.57 339.67 228.223 341.024 227.059C342.093 226.145 343.346 225.369 344.632 224.721C347.211 223.43 352.302 221.904 355.508 221.301L355.519 221.306Z" fill="#C69C6D"/>
<path d="M508.848 233.684C508.848 235.195 508.826 236.639 508.859 238.079C508.876 238.768 508.339 238.997 507.841 239.278C505.033 240.86 502.006 242.004 498.806 242.672C495.237 243.423 491.618 243.964 488.015 244.587C479.724 246.021 471.389 247.011 462.936 247.149C456.938 247.246 450.952 247.598 444.955 247.787C441.985 247.879 439.009 247.914 436.032 247.884C423.691 247.772 411.345 247.736 399.009 247.455C393.023 247.317 387.049 246.72 381.074 246.307C377.119 246.031 373.158 245.837 369.225 245.388C361.611 244.52 353.964 243.719 346.663 241.366C345.169 240.886 343.704 240.33 342.21 239.845C341.164 239.508 340.593 238.952 340.605 237.869C340.61 236.808 340.453 235.741 340.37 234.715C340.571 234.659 340.633 234.623 340.666 234.639C345.93 237.099 351.748 237.584 357.421 238.61C364.263 239.85 371.183 240.177 378.131 240.212C386.567 240.253 394.953 241.039 403.367 241.473C411.143 241.871 418.919 241.978 426.707 241.749C428.637 241.692 430.572 241.677 432.502 241.616C440.032 241.381 447.562 241.136 455.087 240.901C458.701 240.789 462.32 240.728 465.934 240.559C473.156 240.222 480.39 239.911 487.601 239.426C494.963 238.931 501.855 236.854 508.378 233.735C508.456 233.699 508.563 233.704 508.848 233.669V233.684Z" fill="#826549"/>
<path d="M429.185 48.3824C423.993 48.4692 418.919 48.5509 413.784 48.6325C413.739 48.4233 413.672 48.2548 413.672 48.0864C413.655 44.7023 413.616 41.3183 413.638 37.9342C413.655 35.3923 414.047 32.8964 414.875 30.4668C415.44 28.8028 416.29 27.292 417.778 26.1385C419.803 24.5715 422.6 24.6531 424.502 26.3477C425.633 27.3533 426.377 28.6038 426.74 29.9615C427.316 32.1001 427.87 34.2694 428.15 36.454C428.631 40.2617 428.894 44.0949 429.241 47.9179C429.252 48.0455 429.213 48.1783 429.191 48.3875L429.185 48.3824Z" fill="#C69C6D"/>
<path d="M356.733 148.383C357.701 152.023 359.692 155.131 362.971 157.622C362.68 157.79 362.501 157.943 362.294 158.01C356.856 159.74 351.704 162.042 346.602 164.456C345.343 165.054 344.039 165.579 342.495 166.248C342.702 165.079 342.893 164.201 342.993 163.318C343.1 162.425 343.2 161.516 343.15 160.618C343.044 158.811 341.914 157.795 339.916 157.76C338.087 157.729 336.258 157.831 334.423 157.877C334.098 157.882 333.774 157.877 333.573 157.877C333.869 156.739 334.16 155.631 334.456 154.488C341.712 152.502 349.125 150.471 356.727 148.388L356.733 148.383Z" fill="#FBCC39"/>
<path d="M367.317 160.332C366.098 161.312 364.85 162.267 363.67 163.287C361.376 165.273 359.642 167.631 358.45 170.301C358.171 170.923 357.829 171.388 357.141 171.674C356.47 171.954 355.832 172.317 355.211 172.684C349.281 176.196 342.641 177.916 335.782 179.1C335.592 179.131 335.396 179.136 334.859 179.187C338.115 176.375 340.112 173.128 341.449 169.484C343.888 169.254 346.025 168.305 348.157 167.35C353.539 164.931 359.01 162.716 364.688 160.94C365.522 160.679 366.366 160.439 367.205 160.189C367.245 160.24 367.284 160.291 367.323 160.342L367.317 160.332Z" fill="#FBCC39"/>
<path d="M318.882 148.021C321.461 147.582 324.023 147.061 326.613 146.729C330.613 146.219 334.445 145.163 338.266 144.05C341.897 142.993 345.5 141.845 349.147 140.829C351.558 140.16 354.02 139.65 356.671 139.017C356.515 140.114 356.353 141.069 356.257 142.034C356.162 142.978 356.14 143.927 356.078 144.999C354.16 145.617 352.23 146.316 350.244 146.857C344.314 148.465 338.361 150.017 332.409 151.563C331.967 151.681 331.402 151.732 330.994 151.584C327.408 150.236 323.654 149.394 319.911 148.526C319.581 148.45 319.257 148.337 318.932 148.245C318.915 148.174 318.899 148.097 318.882 148.026V148.021Z" fill="#FBCC39"/>
<path d="M338.283 191.085C339.06 190.344 339.732 189.803 340.274 189.165C340.879 188.456 341.488 187.716 341.88 186.904C342.697 185.225 342.053 183.648 340.269 182.775C339.581 182.438 338.803 182.259 337.802 181.912C341.237 181.116 344.526 180.555 347.653 179.575C350.764 178.6 353.718 177.206 356.699 176.012C356.699 177.048 356.739 178.166 356.671 179.274C356.655 179.58 356.358 179.917 356.095 180.157C354.411 181.688 352.722 183.214 350.993 184.699C347.698 187.522 343.032 189.865 338.288 191.079L338.283 191.085Z" fill="#FBCC39"/>
<path d="M21.7172 187.839C26.3269 185.322 30.6401 182.944 34.9757 180.601C38.9812 178.432 43.0539 176.375 47.0035 174.129C50.4608 172.164 54.1866 171.179 58.1977 170.821C67.5011 169.989 76.8044 170.04 86.1078 170.704C95.8363 171.398 105.559 172.174 115.288 172.883C123.634 173.496 131.981 174.057 140.328 174.665C141.201 174.726 142.062 174.925 143.231 175.104C142.689 175.711 142.381 176.165 141.961 176.497C140.921 177.329 139.869 178.166 138.745 178.896C133.721 182.142 128.468 185.041 122.812 187.282C118.723 188.9 114.65 190.554 110.499 192.029C104.396 194.198 98.0572 194.887 91.5231 194.265C87.4336 193.877 83.3162 193.739 79.2324 193.346C72.7318 192.718 66.2479 191.968 59.7529 191.279C54.0971 190.676 48.4468 190.013 42.7798 189.508C35.882 188.89 28.9674 188.405 21.7172 187.833V187.839Z" fill="#72818E"/>
<path d="M297.998 242.897C298.099 246.689 298.194 250.293 298.295 254.009C296.163 254.397 294.138 254.764 292.107 255.127C284.505 256.489 276.829 257.204 269.087 257.388C266.211 257.454 263.341 257.531 260.466 257.607C255.677 257.73 250.978 257.158 246.329 256.173C244.108 255.703 241.882 255.28 239.672 254.759C237.591 254.274 237.557 254.228 237.417 252.319C237.166 248.803 236.724 245.291 237.16 241.759C237.21 241.361 237.261 240.963 237.322 240.519C237.641 240.559 237.898 240.544 238.117 240.621C242.76 242.208 247.661 242.611 252.522 243.178C257.484 243.76 262.457 244.306 267.436 244.699C274.396 245.25 281.383 245.771 288.348 244.847C291.229 244.464 294.049 243.724 296.896 243.142C297.181 243.086 297.461 243.014 297.993 242.892L297.998 242.897Z" fill="#5476B7"/>
<path d="M179.572 159.219C179.13 159.02 178.811 158.903 178.52 158.74C175.046 156.815 171.242 155.963 167.22 155.754C166.828 155.733 166.353 155.544 166.084 155.289C164.792 154.044 163.556 152.747 162.062 151.226C162.397 151.037 162.739 150.879 163.041 150.665C169.374 146.158 175.706 141.661 182.022 137.134C184.008 135.71 185.994 134.275 187.863 132.724C191.063 130.075 194.811 128.824 199.079 128.686C203.387 128.548 207.695 128.4 212.002 128.222C213.015 128.181 214.027 128.002 215.292 127.854C206.111 139.869 197.172 151.742 186.459 162.44C186.654 162.119 186.833 161.787 187.046 161.47C189.933 157.188 192.422 152.717 194.403 148.021C194.582 147.602 194.738 147.168 194.856 146.729C195.046 146.005 194.828 145.362 194.145 144.938C193.457 144.509 192.68 144.53 192.064 144.999C191.387 145.515 190.716 146.091 190.24 146.76C187.32 150.869 183.779 154.529 180.439 158.336C180.193 158.617 179.919 158.867 179.578 159.209L179.572 159.219Z" fill="#9EB2C7"/>
<path d="M159.701 178.569C158.112 180.749 156.451 183.03 154.923 185.133C153.76 185.603 152.675 185.914 151.729 186.435C148.277 188.333 144.664 189.865 140.831 191.018C135.002 192.764 129.262 194.77 123.388 196.378C118.079 197.832 112.625 198.792 107.064 199.17C104.217 199.364 101.425 199.195 98.6838 198.465C98.3985 198.389 98.1188 198.302 97.8391 198.205C97.7607 198.179 97.6992 198.098 97.5649 197.98C99.0754 197.817 100.53 197.689 101.973 197.506C107.719 196.771 113.095 194.948 118.365 192.825C121.441 191.585 124.507 190.309 127.55 188.992C132.485 186.853 137.128 184.25 141.531 181.31C142.918 180.381 144.199 179.294 145.396 178.156C146.023 177.559 146.498 176.747 146.801 175.956C147.494 174.134 146.672 172.577 144.686 171.944C143.668 171.617 142.582 171.454 141.514 171.301C140.546 171.163 139.561 171.143 138.571 170.918C143.864 169.356 149.156 167.794 154.487 166.222C154.487 167.718 154.364 169.244 154.521 170.744C154.683 172.332 155.365 173.832 156.412 175.114C157.407 176.334 158.599 177.421 159.712 178.569H159.701Z" fill="#9EB2C7"/>
<path d="M241.915 238.165C259.509 233.536 276.93 233.449 294.339 239.865C292.544 240.57 290.843 240.815 289.154 241.075C284.04 241.871 278.877 241.861 273.741 241.483C264.611 240.809 255.498 239.957 246.385 239.14C244.88 239.008 243.392 238.701 241.898 238.477C241.904 238.375 241.91 238.268 241.915 238.165Z" fill="#FF7756"/>
<path d="M95.0419 223.481C91.6126 223.42 89.056 221.7 87.4 218.806C86.6504 217.489 86.8238 216.07 87.4392 214.732C88.7259 211.93 91.1147 210.373 94.2978 209.644C96.2223 209.205 97.9453 209.531 99.5229 210.496C100.541 211.119 101.542 211.828 102.365 212.65C105.38 215.677 104.496 220.27 100.569 222.241C98.9355 223.062 97.1845 223.491 95.0363 223.476L95.0419 223.481Z" fill="#5476B7"/>
<path d="M157.911 215.314C157.911 217.111 157.34 218.341 156.361 219.418C154.431 221.531 151.88 222.639 148.954 223.083C148.529 223.149 148.042 223.118 147.64 222.996C144.356 222.006 142.062 220.148 141.363 216.922C141.145 215.911 141.24 214.931 141.659 213.997C142.582 211.93 144.244 210.48 146.448 209.587C147.142 209.306 147.998 209.194 148.753 209.266C150.683 209.439 152.563 209.904 154.269 210.771C156.367 211.843 157.777 213.39 157.911 215.319V215.314Z" fill="#5476B7"/>
<path d="M178.011 214.298C177.234 214.196 176.428 214.171 175.678 213.972C174.934 213.773 174.162 213.502 173.553 213.084C170.129 210.746 170.196 205.769 173.62 203.452C174.548 202.824 175.617 202.651 176.697 202.62C179.807 202.528 182.464 203.396 184.137 205.958C185.39 207.877 185.178 210.184 183.594 211.889C182.151 213.446 180.333 214.349 178.011 214.298Z" fill="#5476B7"/>
<path d="M162.051 175.849C158.7 173.567 157.206 170.265 158.123 167.156C158.347 166.386 158.722 165.61 159.22 164.962C160.093 163.834 161.111 162.803 162.174 161.618C163.058 162.649 163.774 163.563 164.574 164.405C165.704 165.589 166.89 166.733 168.07 167.871C168.445 168.233 168.764 168.616 168.249 169.019C165.793 170.959 163.942 173.358 162.045 175.854L162.051 175.849Z" fill="white"/>
<path d="M60.0383 194.555C63.7081 195.015 67.5067 195.495 71.4619 195.995C69.0116 197.419 49.5713 204.682 47.6636 204.876C48.7825 203.544 50.0077 202.457 51.3503 201.466C53.616 199.792 55.8761 198.108 58.1082 196.393C58.7404 195.908 59.2607 195.301 60.0327 194.555H60.0383Z" fill="#72818E"/>
<path d="M147.427 192.657C149.877 191.442 152.087 190.35 154.571 189.12C152.949 194.974 151.399 200.594 149.844 206.208C149.363 206.249 149.021 206.3 148.68 206.31C148.048 206.326 147.41 206.31 146.733 206.31C146.543 201.635 147.153 197.118 147.427 192.652V192.657Z" fill="#72818E"/>
<path d="M165.748 183.663C168.171 188.951 171.645 193.825 174.582 198.965C170.028 195.25 165.474 191.529 161.049 187.915C162.537 186.567 164.104 185.154 165.748 183.663Z" fill="#72818E"/>
<path d="M157.967 156.147C158.711 157.096 159.427 158.005 160.177 158.964C159.253 159.898 158.375 160.807 157.463 161.685C157.284 161.858 156.949 162.027 156.708 162.006C155.405 161.879 154.291 162.404 153.133 162.782C150.711 163.578 148.294 164.39 145.877 165.191C145.564 165.293 145.24 165.36 144.826 165.268C149.178 162.246 153.53 159.225 157.967 156.142V156.147Z" fill="#9EB2C7"/>
<path d="M168.831 180.044C170.962 177.584 172.842 175.41 174.811 173.133C176.322 174.333 177.754 175.476 179.326 176.727C176.204 178.753 172.898 179.896 168.831 180.044Z" fill="white"/>
<path d="M70.6954 166.773H65.3473C64.6144 163.42 64.2676 159.929 63.8871 156.386C64.6088 156.907 70.1864 165.411 70.6954 166.773Z" fill="#9EB2C7"/>
<path d="M108.468 202.462C105.979 204.248 103.741 205.846 101.52 207.438C100.502 207.015 99.5677 206.622 98.5496 206.198C99.5286 204.892 100.474 203.636 101.358 202.462H108.468Z" fill="#72818E"/>
<path d="M170.498 171.097C170.856 171.286 171.186 171.464 171.472 171.617C171.511 172.48 161.765 182.755 159.819 183.995C160.635 182.387 168.825 172.449 170.498 171.097Z" fill="#9EB2C7"/>
<path d="M170.582 159.541C173.172 159.863 175.242 160.684 177.301 161.899C176.674 162.644 176.115 163.308 175.505 164.038C174.962 163.895 174.459 163.762 173.939 163.619C173.424 161.95 171.796 161.072 170.582 159.541Z" fill="white"/>
<path d="M170.655 164.329C170.09 164.63 169.726 164.824 169.2 165.109C166.789 162.129 164.434 159.209 162.073 156.295C162.157 156.233 162.241 156.172 162.319 156.111C165.06 158.816 167.802 161.521 170.649 164.334L170.655 164.329Z" fill="#9EB2C7"/>
<path d="M183.661 175.93C181.368 174.195 179.069 172.46 176.691 170.663C177.015 170.224 177.306 169.836 177.709 169.295C179.818 171.515 181.832 173.639 183.852 175.757C183.79 175.813 183.723 175.874 183.661 175.93Z" fill="#9EB2C7"/>
<path d="M178.593 165.37C180.691 163.002 182.794 160.633 184.993 158.147C184.495 159.98 180.769 164.267 178.593 165.37Z" fill="#9EB2C7"/>
<path d="M171.706 167.182C172.736 166.865 173.586 166.692 174.381 167.478C174.297 168.177 173.804 168.539 173.127 168.534C172.355 168.529 171.941 168.029 171.706 167.187V167.182Z" fill="#9EB2C7"/>
<path d="M181.916 168.938C181.603 168.616 181.289 168.29 180.915 167.902C181.2 167.697 181.413 167.549 181.759 167.299C181.933 167.897 182.062 168.346 182.19 168.8C182.095 168.846 182.006 168.892 181.91 168.938H181.916Z" fill="white"/>
<path d="M274.178 91.5533C276.701 91.5533 278.765 91.9412 280.706 92.8344C282.306 93.5745 283.531 94.6515 284.359 96.1011C285.361 97.862 285.859 99.7302 285.741 101.721C285.68 102.752 285.299 103.66 284.555 104.441C283.755 105.289 282.832 105.141 282.418 104.079C282.256 103.66 282.2 103.201 282.161 102.752C281.998 100.868 281.294 99.1432 280.337 97.4894C279.375 95.8306 277.82 95.0139 275.806 94.8046C274.032 94.6209 272.371 94.9986 270.698 95.4682C269.769 95.7285 268.774 95.8306 267.8 95.9173C267.157 95.9735 266.642 95.6519 266.463 95.0445C266.284 94.432 266.62 94.0084 267.162 93.6766C269.394 92.3087 271.783 91.4002 274.178 91.5431V91.5533Z" fill="#3D3D3D"/>
</g>
</g>
<defs>
<clipPath id="clip0_2090_124">
<rect width="538" height="294" fill="white"/>
</clipPath>
</defs>
</svg>
