<svg width="1006" height="714" viewBox="0 0 1006 714" fill="none" xmlns="http://www.w3.org/2000/svg">
<g clip-path="url(#clip0_2095_2028)">
<mask id="mask0_2095_2028" style="mask-type:luminance" maskUnits="userSpaceOnUse" x="0" y="0" width="1006" height="752">
<path d="M1006 0H0V751.993H1006V0Z" fill="white"/>
</mask>
<g mask="url(#mask0_2095_2028)">
<path d="M594.808 371.689C595.936 374.181 597.151 375.755 598.291 377.366C605.07 386.961 609.197 397.621 610.783 409.224C611.167 412 611.192 414.851 611.056 417.665C610.932 420.281 609.804 422.661 608.466 424.904C607.697 426.181 606.483 426.925 605.132 427.384C603.917 427.793 602.628 428.028 601.377 428.35C600.261 428.635 599.146 428.945 597.931 429.268C597.931 430.235 597.907 431.053 597.931 431.858C598.241 440.238 597.857 448.568 595.651 456.7C593.049 466.269 588.847 475.008 581.436 481.851C572.687 489.933 562.685 495.536 550.664 497.098C546.748 497.606 542.881 497.37 539.101 496.503C531.145 494.668 524.217 490.838 518.244 485.247C512.369 479.756 508.292 473.099 505.429 465.637C505.144 464.893 504.809 464.162 504.438 463.319C479.602 472.455 455.361 482.706 429.893 490.044C429.955 490.999 429.918 491.792 430.066 492.561C432.52 504.758 432.211 516.906 429.025 528.893C426.485 538.475 422.048 547.14 414.563 553.895C406.297 561.37 396.89 566.762 385.711 568.485C380.903 569.229 376.07 569.142 371.36 567.804C358.769 564.209 349.3 556.647 342.769 545.293C339.436 539.504 337.465 533.294 336.35 526.501C335.618 526.649 334.962 526.674 334.379 526.91C330.686 528.422 327.018 530.009 323.324 531.521C322.469 531.868 321.54 532.054 320.635 532.265C320.189 532.364 319.582 532.19 319.259 532.426C317.128 534 314.761 533.43 312.456 533.194C297.708 531.719 283.171 528.881 268.621 526.129C261.235 524.728 253.799 523.563 246.388 522.261C238.977 520.96 231.578 519.633 224.179 518.319C222.791 518.071 221.403 517.799 219.867 517.501C219.049 517.96 218.045 518.381 217.239 519.026C215.343 520.526 213.137 521.282 210.844 521.852C206.284 523.005 201.698 523.947 196.977 524.307C191.362 524.728 185.947 523.873 180.655 522.15C168.497 518.183 157.839 511.688 148.718 502.725C147.478 501.498 146.437 499.961 144.987 499.081C143.636 498.25 141.877 498.102 140.29 497.656C129.062 494.519 118.243 490.268 107.486 485.818C102.814 483.884 98.1165 482.024 93.3575 480.339C89.1191 478.839 85.2896 476.533 81.2371 474.649C78.9691 473.595 78.2007 471.451 77.8909 469.182C77.6183 467.211 77.5687 465.203 77.4943 463.207C77.1721 453.452 76.9366 443.696 77.6059 433.941C78.052 427.371 78.5354 420.801 79.6012 414.306C80.9148 406.298 82.2161 398.303 83.6661 390.32C85.3144 381.172 87.9665 372.259 90.4328 363.309C92.7999 354.694 95.4148 346.154 97.8686 337.576C99.7772 330.894 102.256 324.424 104.821 317.978C106.816 312.958 108.837 307.937 110.832 302.917C112.393 298.975 114.141 295.132 116.409 291.538C117.921 289.133 119.619 286.902 121.998 285.278C124.427 283.617 126.794 281.869 129.347 280.406C136.077 276.551 143.004 273.068 150.18 270.068C158.744 266.498 167.245 262.742 175.797 259.135C182.402 256.346 189.045 253.656 195.663 250.916C196.741 250.47 197.807 250.012 198.773 249.602C198.897 249.218 199.071 248.983 199.021 248.797C197.968 244.991 198.166 241.099 198.377 237.231C199.455 217.262 205.59 199.003 217.091 182.591C218.912 179.987 220.66 177.322 222.68 174.893C228.418 167.964 235.296 162.249 242.583 157.043C249.684 151.973 257.319 147.795 265.102 143.891C270.356 141.25 275.611 138.623 280.878 136.019C286.802 133.094 292.899 130.664 299.443 129.512C301.983 129.065 304.512 128.52 307.139 128.979C307.808 129.09 308.527 128.892 309.233 128.805C312.493 128.408 315.752 127.9 319.024 127.627C327.575 126.921 336.127 126.314 344.69 125.681C352.213 125.124 359.735 125.384 367.246 125.917C371.348 126.214 375.45 126.549 379.54 126.933C391.003 128.037 402.467 129.14 413.918 130.317C423.151 131.272 432.372 132.313 441.592 133.392C451.643 134.582 461.57 136.453 471.472 138.523C478.722 140.048 485.935 141.697 493.185 143.184C500.199 144.635 506.495 147.721 512.543 151.415C521.23 156.72 528.865 163.34 536.139 170.405C548.904 182.801 560.616 196.139 571.026 210.58C575.711 217.063 580.011 223.794 583.964 230.761C588.203 238.223 592.33 245.747 596.122 253.458C601.414 264.242 605.925 275.336 609.792 286.703C613.448 297.438 614.439 308.483 614.104 319.738C613.968 324.287 612.865 328.477 611.13 332.679C607.796 340.761 602.752 347.616 596.878 353.951C594.263 356.777 591.599 359.554 589.008 362.305C589.368 363.062 589.876 362.789 590.297 362.752C601.34 362.057 612.382 361.698 623.449 362.33C633.661 362.913 643.885 363.52 654.097 364.19C665.362 364.921 676.603 365.987 687.794 367.499C700.385 369.21 712.865 371.516 725.159 374.701C738.284 378.11 750.974 382.697 763.119 388.758C768.82 391.609 774.224 394.906 779.045 399.121C782.886 402.48 786.22 406.273 788.786 410.662C790.074 412.88 791.165 415.26 792.02 417.678C793.644 422.289 793.334 426.925 791.574 431.487C790.112 435.28 787.844 438.54 785.055 441.465C778.945 447.849 772.427 453.787 765.363 459.104C748.706 471.624 730.538 481.405 711.13 488.916C687.645 498.015 663.652 505.502 639.213 511.576C628.604 514.216 618.07 517.105 607.449 519.732C591.475 523.674 575.413 527.294 559.253 530.405C549.326 532.314 539.337 533.926 529.335 535.388C518.157 537.025 507.077 539.132 496.023 541.413C484.51 543.793 473.033 546.322 461.743 549.644C452.362 552.408 443.24 555.804 434.503 560.242C430.19 562.424 425.989 564.791 422.271 567.903C420.288 569.551 418.355 571.312 416.694 573.27C415.343 574.857 414.253 576.729 413.385 578.637C412.072 581.526 412.431 584.364 414.364 586.955C417.004 590.488 420.375 592.905 424.799 593.587C426.658 593.872 428.53 594.12 430.401 594.157C437.924 594.306 445.459 594.269 452.969 593.711C458.595 593.289 464.247 593.054 469.886 592.806C478.462 592.434 487.025 591.814 495.564 590.885C503.632 590.004 511.712 589.298 519.78 588.467C530.426 587.377 541.035 585.939 551.544 583.943C574.533 579.592 597.374 574.596 620.14 569.192C633.636 565.981 647.268 563.391 660.926 560.973C672.042 559.002 683.134 556.982 694.251 555.036C708.144 552.594 722.024 550.065 735.954 547.846C745.583 546.309 755.287 545.156 764.978 544.016C774.087 542.937 783.221 542.082 792.342 541.14C794.115 540.954 795.713 540.731 796.953 539.07C798.353 537.198 800.621 536.603 802.889 536.331C808.763 535.624 814.613 535.587 820.45 536.752C820.76 536.814 821.107 536.715 821.38 536.702C821.503 536.529 821.627 536.442 821.627 536.343C821.627 531.657 821.813 526.959 821.541 522.286C821.318 518.369 822.569 516.41 826.56 515.716C827.489 515.555 828.406 515.369 829.311 515.096C836.871 512.84 844.641 511.539 852.387 510.113C865.412 507.721 878.537 506.952 891.735 507.411C902.307 507.783 912.878 508.427 923.301 510.522C926.523 511.167 929.795 511.638 933.005 512.332C934.603 512.679 936.177 513.237 937.664 513.906C939.895 514.91 941.048 516.671 941.01 519.224C940.986 520.737 941.271 522.249 941.395 523.761C941.642 526.575 941.977 529.376 942.089 532.203C942.498 543.012 942.882 553.833 943.142 564.643C943.291 570.394 943.861 569.762 938.445 573.382C936.487 574.696 934.331 575.638 932.063 576.319C923.846 578.823 915.481 580.708 907.016 582.158C899.122 583.509 891.153 584.141 883.172 584.736C877.744 585.145 872.365 584.488 866.986 583.931C860.901 583.311 854.829 582.617 848.744 582.009C843.923 581.526 839.226 580.472 834.603 579.084C831.901 578.278 829.224 577.373 826.572 576.419C825.606 576.072 824.627 575.551 823.846 574.882C822.607 573.828 822.036 572.378 822.52 570.754C822.792 569.799 822.656 568.944 822.569 568.002C822.346 565.783 822.334 563.552 822.284 561.32C822.247 559.56 822.284 557.8 822.284 555.866C821.454 555.767 820.797 555.656 820.128 555.618C815.902 555.358 811.676 555.172 807.462 554.837C804.574 554.614 801.947 553.486 799.828 551.515C798.626 550.4 797.374 550.276 795.936 550.412C793.359 550.672 790.793 550.958 788.216 551.206C772.303 552.755 756.402 554.49 740.576 556.87C730.699 558.358 720.871 560.143 711.019 561.854C700.708 563.639 690.409 565.486 680.11 567.32C661.707 570.593 643.278 573.729 625.06 577.894C614.402 580.336 603.781 582.926 593.098 585.22C577.47 588.579 561.843 591.975 546.079 594.616C536.102 596.289 526.064 597.492 515.988 598.446C507.908 599.202 499.84 600.107 491.772 600.913C488.376 601.247 484.98 601.595 481.572 601.781C468.882 602.475 456.204 603.144 443.513 603.751C437.403 604.049 431.281 604.024 425.184 603.355C417.24 602.487 410.956 598.793 406.309 592.322C402.678 587.277 401.959 581.761 403.892 575.898C404.896 572.849 406.52 570.134 408.502 567.618C411.353 563.973 414.786 560.949 418.516 558.246C424.068 554.23 430.116 551.094 436.35 548.292C446.996 543.495 458.087 540.012 469.39 537.173C484.894 533.269 500.571 530.095 516.298 527.282C523.932 525.918 531.616 524.84 539.287 523.674C551.259 521.852 563.119 519.423 574.967 516.906C597.51 512.109 619.768 506.184 642.076 500.445C665.895 494.321 689.306 486.921 712.097 477.661C729.274 470.682 745.372 461.708 760.133 450.427C766.131 445.853 771.683 440.771 776.95 435.391C778.685 433.619 780.259 431.734 781.436 429.528C783.345 425.958 783.457 422.351 781.771 418.682C780.073 415.012 777.681 411.827 774.893 408.926C771.187 405.071 766.85 402.059 762.202 399.493C754.358 395.154 746.104 391.745 737.664 388.795C724.651 384.246 711.242 381.209 697.671 378.891C687.348 377.118 676.962 375.891 666.54 374.887C660.219 374.28 653.874 373.895 647.541 373.524C636.387 372.867 625.234 372.185 614.067 371.726C607.846 371.478 601.612 371.677 594.808 371.677V371.689ZM274.743 237.455C274.186 237.764 273.616 238.074 273.058 238.384C270.356 238.421 267.642 238.669 264.965 238.434C259.797 237.963 255.931 235.285 253.539 230.662C252.114 227.897 252.461 225.195 254.344 222.716C255.646 221.005 257.269 219.654 259.202 218.712C261.954 217.361 264.816 216.307 267.865 215.824C268.906 215.65 270.059 215.687 270.963 215.241C273.504 214.002 276.02 214.411 278.536 215.043C286.294 216.989 289.157 226.063 283.865 232C282.7 233.302 281.275 234.38 279.961 235.558C279.527 235.942 279.106 236.327 278.672 236.723C281.51 236.153 284.137 236.302 286.851 236.86C289.652 237.442 291.895 238.756 293.655 240.925C295.539 243.256 297.001 245.772 296.555 248.97C296.518 249.268 296.642 249.59 296.692 249.863C296.902 249.912 297.051 249.999 297.125 249.95C297.41 249.764 297.733 249.578 297.956 249.317C300.819 245.735 304.462 243.64 309.097 243.318C309.717 243.281 310.535 243.219 310.659 242.277C309.481 240.801 308.279 239.364 307.176 237.851C304.871 234.69 303.805 231.17 304.202 227.24C304.636 222.989 306.445 219.357 309.221 216.196C311.638 213.456 314.327 211.002 317.388 208.969C318.144 208.461 318.838 207.841 319.706 207.159C318.553 206.341 317.549 205.721 316.657 204.99C313.46 202.35 310.522 198.073 313.298 192.148C313.943 190.784 314.823 189.52 315.628 188.231C315.988 187.66 316.434 187.127 316.93 186.47C313.286 186.669 301.141 190.251 294.857 192.954C294.411 193.152 294.015 193.499 293.048 194.144C294.3 194.23 294.857 194.305 295.428 194.317C301.327 194.491 306.024 197.044 309.791 201.482C311.501 203.49 312.158 205.709 311.675 208.349C311.266 210.593 310.51 212.675 309.196 214.51C305.565 219.617 300.707 222.183 294.349 221.34C292.726 221.129 291.115 220.671 289.578 220.088C284.237 218.067 280.791 214.374 279.825 208.597C279.428 206.192 280.11 203.949 280.742 201.693C280.903 201.122 281.671 200.49 280.853 199.833C280.618 199.87 280.37 199.87 280.172 199.97C267.233 206.49 256.24 215.278 248.272 227.525C246.809 229.782 245.545 232.186 244.343 234.604C243.265 236.773 243.042 239.165 243.587 241.496C243.959 243.07 244.616 244.619 245.384 246.057C248.024 250.916 251.99 254.573 256.414 257.759C261.024 261.081 266.081 263.548 271.447 265.382C282.477 269.138 293.68 272.15 305.33 273.328C313.435 274.146 321.54 274.171 329.633 273.526C334.788 273.117 339.906 272.374 345.037 271.704C358.471 269.956 371.658 267.093 384.571 262.99C400.558 257.908 413.869 248.797 424.663 235.979C426.782 233.451 428.517 230.662 430.005 227.711C431.492 224.761 431.851 221.687 431.591 218.464C431.157 213.01 428.976 208.262 425.568 204.06C421.577 199.151 416.546 195.495 411.13 192.359C409.618 191.491 407.92 190.945 406.321 190.251L406.42 190.363C405.28 189.817 404.177 189.148 402.988 188.739C395.081 186.012 386.938 184.314 378.685 183.049C377.16 182.814 375.735 183.111 374 183.545C374.483 184.09 374.744 184.462 375.078 184.735C376.937 186.247 378.164 188.255 379.416 190.239C380.544 192.036 380.829 194.02 380.234 196.003C379.763 197.552 379.143 199.151 378.226 200.453C375.388 204.482 371.534 206.948 366.539 207.519C365.783 207.605 364.866 207.333 364.16 208.312C364.965 209.229 365.746 210.221 366.638 211.101C369.167 213.617 370.48 216.729 370.865 220.187C371.05 221.91 370.741 223.683 370.666 225.431C370.505 228.654 369.08 231.257 366.837 233.5C366.106 234.232 365.486 235.087 364.817 235.88C364.643 236.029 364.457 236.19 364.284 236.339C363.776 236.636 363.268 236.934 362.747 237.219C362.635 237.38 362.499 237.529 362.363 237.665C361.706 237.864 361.024 237.988 360.405 238.26C357.616 239.512 354.877 240.839 352.089 242.066C350.28 242.872 348.408 243.553 346.425 244.334C348.272 245.462 349.982 246.442 351.618 247.532C353.527 248.797 354.815 250.569 355.708 252.701C357.976 258.118 354.791 266.659 347.999 268.68C344.405 269.758 340.836 269.647 337.205 268.965C334.962 268.543 332.929 267.676 331.083 266.399C328.059 264.316 326.571 261.416 326.671 257.697C326.733 255.49 327.526 253.582 328.74 251.797C329.261 251.016 329.843 250.272 330.351 249.491C330.822 248.747 331.789 248.301 331.962 246.925C328.951 246.987 326.101 246.875 323.225 246.9C323.795 248.784 324.564 250.408 324.762 252.094C325.468 258.267 323.225 263.387 318.627 267.44C317.599 268.345 316.273 269.014 314.971 269.473C310.423 271.06 305.887 270.527 301.587 268.642C296.617 266.461 293.891 262.643 294.114 257.015C294.126 256.557 294.201 256.073 293.383 256.023C292.726 256.705 292.057 257.523 291.276 258.205C289.59 259.656 287.967 261.23 286.096 262.407C281.659 265.209 276.987 265.258 272.339 262.903C269.588 261.502 267.283 259.457 265.486 256.941C262.078 252.168 262.611 246.59 266.973 242.661C268.423 241.347 270.269 240.467 271.943 239.376C272.376 239.091 273.157 239.153 273.033 238.31C273.863 238.545 274.607 238.62 274.768 237.467H276.255C276.255 237.467 276.255 237.442 276.255 237.43H274.781L274.743 237.455ZM93.1469 391.584C94.0144 390.903 94.5721 389.998 94.5969 388.907C94.6464 387.295 95.5883 386.242 96.778 385.473C99.455 383.725 102.33 382.263 105.639 382.424C113.323 382.808 119.569 385.857 123.188 392.923C126.906 400.187 128.542 407.972 127.674 416.153C127.166 420.876 125.233 424.966 121.589 428.127C117.747 431.462 113.273 433.42 108.205 433.891C103.867 434.3 100 433.247 97.1374 429.726C93.5063 425.276 90.9285 420.33 90.2345 414.517C90.1849 414.07 90.4328 413.438 89.6396 413.091C89.4537 413.612 89.2058 414.033 89.1563 414.467C88.3011 422.053 87.2353 429.64 87.2849 437.3C87.2849 437.97 87.5328 438.639 87.6567 439.308C101.054 443.796 114.475 447.7 128.083 450.936C134.936 452.559 141.877 453.836 148.631 455.931C155.583 458.1 162.573 460.171 169.563 462.216C182.092 465.86 194.82 468.699 207.486 471.798C229.967 477.302 252.349 483.214 275.004 488.049C283.158 489.784 291.276 491.767 299.431 493.528C302.033 494.086 304.636 494.941 307.362 494.631C307.945 493.416 307.66 492.251 307.598 491.086C307.176 481.801 306.829 472.517 307.375 463.232C307.399 462.848 307.164 462.451 306.978 461.819C305.478 463.629 304.276 465.216 302.938 466.678C298.798 471.215 293.829 474.5 287.843 475.988C280.184 477.884 273.355 476.347 267.865 470.422C264.135 466.393 261.532 461.72 260.181 456.328C258.434 449.337 259.202 442.544 261.483 435.875C262.896 431.747 265.548 428.474 269.303 426.194C270.902 425.214 272.562 424.297 274.285 423.553C278.994 421.533 283.989 420.69 289.057 420.603C296.741 420.479 302.591 423.975 306.718 430.371C307.536 431.648 308.106 433.086 308.824 434.424C309.06 434.858 308.948 435.627 309.791 435.565C309.878 435.466 310.014 435.391 310.027 435.292C310.436 433.098 310.857 430.916 311.229 428.722C313.113 417.702 315.504 406.794 319.185 396.22C322.159 387.68 325.382 379.213 328.567 370.747C332.458 360.396 336.771 350.219 342.509 340.724C342.683 340.439 342.745 340.08 342.881 339.695C341.344 338.567 339.522 338.704 337.837 338.394C327.786 336.522 317.723 334.7 307.66 332.902C298.873 331.341 290.049 329.952 281.262 328.316C270.864 326.382 260.516 324.201 250.118 322.267C241.344 320.631 232.52 319.18 223.721 317.68C214.562 316.131 205.404 314.631 196.245 313.119C187.198 311.619 178.139 310.243 169.117 308.619C157.306 306.499 145.694 303.537 134.168 300.215C131.033 299.31 127.885 298.38 124.489 297.909C122.643 301.256 121.106 304.677 119.829 308.198C113.434 325.886 106.618 343.414 101.078 361.4C98.3891 370.164 95.5016 378.866 93.4939 387.828C93.2212 389.08 92.7007 390.308 93.1716 391.622C93.0601 391.783 92.9362 391.956 92.8246 392.117C92.9114 391.931 92.9981 391.733 93.0849 391.547L93.1469 391.584ZM443.749 235.248C450.726 236.426 457.046 238.124 463.243 240.43C468.436 242.363 472.848 245.363 476.888 248.995C479.763 251.573 481.721 254.796 482.539 258.565C483.865 264.614 484.014 270.675 482.539 276.737C481.225 282.104 479.936 287.472 478.685 292.839C477.706 297.079 476.826 301.33 475.834 305.57C475.438 307.28 475.611 308.817 476.615 310.268C478.164 312.487 479.614 314.767 481.238 316.924C486.864 324.399 493.829 330.2 502.566 333.745C509.383 336.51 516.521 337.948 523.808 338.58C536.908 339.695 549.573 337.848 561.818 332.915C571.237 329.122 579.689 324.027 586.393 316.28C590.644 311.371 594.474 306.189 597.175 300.239C598.043 298.318 598.142 296.546 597.423 294.5C593.197 282.513 588.451 270.75 582.812 259.358C579.106 251.871 575.029 244.595 570.927 237.318C564.842 226.546 557.84 216.369 550.106 206.725C541.419 195.891 532.198 185.516 522.073 175.984C515.393 169.699 508.627 163.526 500.831 158.567C497.002 156.138 493.011 154.204 488.636 153.188C477.879 150.696 467.085 148.329 456.29 146.023C448.235 144.312 440.08 143.209 431.913 142.255C422.928 141.213 413.955 139.986 404.958 139.056C393.73 137.891 382.489 136.986 371.261 135.883C362.697 135.04 354.121 134.978 345.533 135.338C338.01 135.648 330.512 136.379 322.99 136.552C315.405 136.726 308.031 137.73 300.843 140.246C297.175 141.536 293.494 142.726 290.049 144.535C282.353 148.589 274.582 152.506 266.985 156.733C261.855 159.584 256.897 162.77 251.977 165.993C246.549 169.55 241.604 173.74 236.982 178.277C234.639 180.57 232.359 183.012 230.45 185.665C222.457 196.871 216.248 208.919 213.41 222.53C212.059 229.001 211.328 235.521 211.241 242.128C211.241 242.797 211.092 243.553 211.786 244.024C212.022 244.049 212.282 244.161 212.468 244.086C217.933 241.929 223.386 239.76 228.852 237.591C229.062 237.504 229.261 237.368 229.459 237.231C231.69 235.682 234.143 234.604 236.808 233.996C238.258 229.484 240.613 225.567 243.277 221.823C251.246 210.605 261.272 201.705 273.38 195.172C283.84 189.532 294.535 184.388 305.974 180.992C311.154 179.454 316.31 177.818 321.565 176.529C329.682 174.546 338.035 173.914 346.314 172.959C353.551 172.129 360.851 172.017 368.15 172.141C376.875 172.29 385.488 173.095 394.04 174.98C406.73 177.769 417.847 183.582 427.761 191.863C429.112 192.991 430.401 194.218 431.603 195.507C435.606 199.784 438.407 204.692 439.956 210.407C441.79 217.138 442.571 224.005 443.302 230.91C443.451 232.298 443.587 233.686 443.749 235.236V235.248ZM465.065 297.574C463.441 298.244 462.475 298.628 461.508 299.037C451.346 303.351 441.22 307.789 430.996 311.966C410.324 320.407 389.132 327.473 368.2 335.22C363.9 336.807 359.599 338.369 355.262 339.857C353.948 340.315 353.093 341.071 352.436 342.299C348.371 349.86 344.48 357.508 341.518 365.59C337.874 375.519 334.107 385.411 330.636 395.39C328.629 401.154 326.881 407.03 325.369 412.942C322.048 425.946 320.065 439.184 318.813 452.547C317.698 464.521 317.462 476.483 318.181 488.47C318.206 488.805 318.355 489.14 318.491 489.648C319.061 489.487 319.619 489.4 320.139 489.202C326.931 486.561 333.673 483.797 340.514 481.318C343.476 480.239 346.177 479.111 347.59 476.074C353.799 467.98 361.743 462.055 370.877 457.642C376.293 455.026 381.981 453.836 387.967 454.406C390.644 454.654 393.321 455.088 395.973 455.584C397.188 455.807 398.241 455.782 399.369 455.225C400.943 454.431 402.566 453.737 404.19 453.055C419.706 446.572 435.532 440.957 451.494 435.689C458.187 433.482 464.817 431.04 471.559 428.995C482.018 425.822 492.553 422.909 503.05 419.872C504.165 419.549 505.256 419.153 506.359 418.793C506.805 417.702 507.189 416.723 507.598 415.756C509.407 411.517 511.626 407.513 514.464 403.881C520.214 396.518 527.489 391.014 535.743 386.787C538.246 385.51 540.799 384.345 543.588 383.701C547.987 382.684 552.35 382.325 556.861 382.907C564.358 383.887 571.286 386.143 577.247 390.94C578.239 391.746 579.267 392.502 580.234 393.233C584.051 392.365 587.707 391.535 591.648 390.642C590.843 388.671 589.888 386.936 588.959 385.188C588.017 383.428 587.001 381.705 586.046 379.945C585.092 378.184 584.2 376.399 583.258 374.639C582.353 372.916 581.895 370.933 580.296 369.445C579.255 370.102 578.375 370.648 577.495 371.206C569.985 375.941 562.128 379.709 553.155 380.862C544.678 381.953 536.251 381.779 527.848 380.589C519.458 379.399 511.303 376.982 503.26 374.429C493.68 371.379 484.844 366.892 477.383 359.839C471.001 353.814 466.23 346.873 463.094 338.716C460.851 332.89 460.021 326.891 460.777 320.717C461.248 316.875 461.991 313.057 462.698 309.251C463.379 305.582 464.172 301.925 465.077 297.537L465.065 297.574ZM444.566 249.069C444.542 250.185 444.455 251.338 444.492 252.491C444.566 255.081 444.641 257.66 444.839 260.238C445.037 262.717 444.517 264.899 442.745 266.721C442.336 267.143 441.902 267.589 441.679 268.109C440.477 270.787 438.296 272.584 436.102 274.369C431.417 278.175 426.163 281.051 420.722 283.592C412.84 287.261 404.97 290.967 397.088 294.624C390.582 297.636 384.088 300.686 377.21 302.768C367.258 305.78 357.071 307.317 346.673 307.689C335.618 308.086 324.576 307.999 313.534 307.379C309.072 307.119 304.636 306.561 300.186 306.338C295.589 306.103 291.078 305.334 286.591 304.429C276.503 302.384 267.06 298.479 257.728 294.277C256.228 293.608 254.815 292.752 253.378 291.947C251.234 290.744 249.09 289.529 246.983 288.253C246.078 287.707 245.285 287.001 244.43 286.369C243.525 285.699 243.129 284.831 242.967 283.691C242.373 279.625 241.666 275.572 240.972 271.518C239.646 263.758 237.75 256.11 237.13 248.239C237.043 247.222 236.61 246.231 236.275 245.004C234.776 245.623 233.487 246.169 232.198 246.702C225.146 249.64 218.107 252.59 211.055 255.515C201.289 259.569 191.462 263.473 181.77 267.688C173.045 271.481 164.407 275.46 155.534 278.931C148.098 281.844 140.774 285.079 133.957 289.306C133.412 289.641 132.954 290.1 132.309 290.608C132.842 290.943 133.102 291.203 133.412 291.29C137.836 292.467 142.261 293.657 146.71 294.773C156.054 297.116 165.411 299.384 174.942 300.896C183.765 302.297 192.577 303.686 201.388 305.111C212.294 306.884 223.2 308.631 234.082 310.503C245.434 312.449 256.749 314.532 268.088 316.552C279.304 318.56 290.52 320.593 301.748 322.552C309.729 323.94 317.748 325.167 325.741 326.556C331.987 327.634 338.221 328.824 344.455 330.027C347.38 330.584 350.218 331.043 352.87 329.109C353.427 328.7 354.159 328.539 354.815 328.291C364.854 324.61 374.88 320.903 384.931 317.259C404.71 310.107 424.428 302.805 443.699 294.364C450.478 291.389 457.331 288.587 464.123 285.662C465.387 285.117 466.8 284.745 467.816 283.654C468.473 280.022 468.324 276.39 468.039 272.758C467.543 266.349 465.362 260.635 461.111 255.751C460.417 254.957 459.76 254.115 458.967 253.42C456.402 251.177 448.669 248.859 444.579 249.119L444.566 249.069ZM308.192 501.511C304.921 500.94 301.897 500.531 298.922 499.887C293.42 498.697 287.942 497.346 282.44 496.094C263.428 491.792 244.417 487.479 225.518 482.657C214.711 479.905 203.855 477.302 193.023 474.661C179.329 471.327 165.771 467.472 152.299 463.307C144.207 460.803 135.99 458.894 127.748 456.972C115.157 454.047 102.752 450.452 90.5691 446.138C89.5405 445.779 88.5118 444.849 87.0123 445.705C87.2725 453.911 87.2477 462.228 88.2144 470.67C89.5033 471.166 90.6682 471.686 91.8952 472.058C101.45 474.996 110.733 478.665 119.99 482.384C130.14 486.462 140.551 489.747 151.184 492.313C158.26 494.011 165.312 495.833 172.364 497.618C175.896 498.511 179.391 499.515 182.935 500.333C192.428 502.527 201.983 504.486 211.439 506.866C222.506 509.655 233.697 511.712 244.926 513.621C255.46 515.419 266.019 517.117 276.553 518.902C286.74 520.625 296.915 522.422 307.114 524.108C308.564 524.344 310.101 524.827 311.588 524.071C310.46 516.572 309.333 509.146 308.18 501.498L308.192 501.511ZM584.572 439.965C584.72 432.615 583.667 425.189 581.696 417.888C580.333 412.843 578.164 408.195 575.178 403.906C571.051 397.981 565.437 394.497 558.261 393.605C556.167 393.345 554.047 393.109 551.941 393.121C550.193 393.121 548.409 393.32 546.723 393.766C542.708 394.82 539.101 396.778 535.829 399.344C533.698 401.018 531.665 402.852 529.36 404.228C525.791 406.36 523.288 409.447 521.218 412.856C519.458 415.756 517.909 418.83 516.694 422.004C513.026 431.598 511.812 441.552 512.927 451.791C513.609 458.038 515.195 464.013 517.859 469.715C521.181 476.818 526.448 481.987 533.4 485.47C539.238 488.396 545.372 488.768 551.581 487.082C560.17 484.751 567.432 480.078 573.752 473.868C576.999 470.682 579.379 467.001 580.94 462.712C583.593 455.435 584.708 447.936 584.559 440.002L584.572 439.965ZM418.181 510.845C418.219 504.746 417.376 497.755 415.653 490.887C414.265 485.359 412.072 480.202 408.75 475.554C406.904 472.963 404.809 470.608 402.07 468.86C396.233 465.154 389.752 464.397 383.097 464.856C378.028 465.216 373.727 467.744 369.7 470.682C366.948 472.69 364.234 474.748 361.532 476.818C360.516 477.599 359.5 478.417 358.633 479.359C356.402 481.789 354.518 484.491 352.981 487.429C348.73 495.598 346.574 504.312 346.19 513.485C345.868 521.307 346.735 528.98 349.375 536.392C351.742 543.049 355.249 548.912 360.962 553.313C369.241 559.684 378.238 561.42 388.141 557.751C395.886 554.887 402.554 550.412 408.267 544.462C410.919 541.698 412.865 538.549 414.24 534.992C417.128 527.542 418.219 519.794 418.169 510.857L418.181 510.845ZM934.38 530.108C933.451 530.48 933.005 530.604 932.608 530.827C928.704 533.083 924.478 534.546 920.116 535.55C914.155 536.901 908.169 538.078 902.183 539.318C894.425 540.942 886.592 541.462 878.685 541.078C874.806 540.892 870.927 540.768 867.061 540.483C863.665 540.223 860.244 539.962 856.911 539.343C852.424 538.512 847.975 537.57 843.65 535.909C839.486 534.31 835.26 532.872 831.294 530.802C831.021 530.666 830.625 530.752 830.08 530.728C830.018 543.582 831.17 556.362 830.402 569.068C830.687 569.279 830.848 569.477 831.046 569.539C837.193 571.584 843.452 573.109 849.958 573.518C855.238 573.853 860.492 574.51 865.772 574.894C870.456 575.229 875.178 575.749 879.85 575.551C891.611 575.043 903.286 573.58 914.749 570.865C920.116 569.589 925.42 568.027 930.712 566.49C932.261 566.043 933.698 565.2 935.322 564.481C935.012 553.052 934.702 541.797 934.38 530.12V530.108ZM473.641 317.606C473.38 319.949 473.157 321.461 473.071 322.973C473.009 323.903 473.145 324.845 473.195 325.787C473.467 330.56 474.905 335.022 476.962 339.286C481.312 348.31 487.471 355.736 496.556 360.31C500.001 362.045 503.62 363.582 507.3 364.71C513.361 366.557 519.52 368.169 525.692 369.582C533.425 371.354 541.27 371.813 549.152 370.549C551.346 370.202 553.477 369.433 555.683 369.173C557.827 368.912 559.823 368.293 561.768 367.499C569.155 364.512 575.847 360.359 581.436 354.682C585.799 350.244 589.901 345.534 594.015 340.861C597.076 337.39 599.196 333.299 600.968 329.047C601.364 328.093 601.662 327.014 601.649 325.998C601.6 322.242 601.402 318.486 601.228 314.73C601.166 313.478 601.117 312.201 600.534 310.987C599.431 311.396 599.096 312.363 598.564 313.082C595.614 317.061 592.466 320.854 588.946 324.337C584.398 328.824 579.466 332.803 573.604 335.468C570.183 337.03 566.75 338.555 563.255 339.943C554.432 343.427 545.236 345.311 535.755 345.633C526.175 345.955 516.756 344.753 507.524 342.137C494.771 338.518 484.224 331.688 476.33 320.941C475.648 320.011 474.88 319.156 473.628 317.618L473.641 317.606ZM433.946 240.38C433.611 240.541 433.475 240.566 433.413 240.653C431.876 242.586 430.389 244.557 428.815 246.454C421.156 255.763 411.898 263.04 400.992 268.221C393.742 271.667 386.046 273.812 378.325 275.882C369.006 278.373 359.525 280.059 349.982 281.423C344.517 282.204 339.039 282.885 333.549 283.394C326.869 284.013 320.164 283.989 313.46 283.753C307.808 283.555 302.231 282.774 296.692 281.72C288.016 280.059 279.564 277.629 271.224 274.778C263.627 272.175 256.389 268.866 249.908 264.019C249.548 263.759 249.114 263.597 248.321 263.201C249.3 268.605 250.379 273.613 251.395 278.609C253.477 279.786 255.348 281.038 257.381 281.943C261.78 283.902 266.217 285.786 270.716 287.484C279.651 290.881 288.872 293.149 298.451 293.781C302.554 294.054 306.656 294.525 310.758 294.699C318.739 295.046 326.72 295.579 334.726 295.269C337.192 295.17 339.659 295.108 342.125 295.033C349.883 294.798 357.629 294.413 365.25 292.777C373.07 291.091 380.804 289.12 388.116 285.798C399.555 280.604 411.031 275.485 422.432 270.18C427.34 267.899 431.777 264.825 435.52 260.845C435.148 254.177 434.776 247.619 434.392 241.049C434.392 240.851 434.144 240.677 433.946 240.368V240.38ZM425.865 480.066C434.54 477.103 443.055 474.438 451.407 471.302C468.126 465.03 484.745 458.497 501.401 452.064C501.711 451.94 501.934 451.63 502.281 451.345C502.182 448.692 501.959 445.99 502.009 443.3C502.046 440.597 502.405 437.908 502.529 435.205C502.653 432.553 503.669 429.999 503.632 426.999C501.228 427.706 499.109 428.338 496.989 428.958C488.971 431.251 480.866 433.284 472.947 435.887C454.431 441.998 436.003 448.382 417.549 454.692C414.439 455.758 411.378 456.96 408.292 458.125C407.685 458.348 407.127 458.695 406.21 459.154C410.275 462.166 414.017 464.968 417.277 468.352C420.573 471.761 423.015 475.764 425.853 480.066H425.865ZM302.529 442.754C302.182 441.056 301.736 438.527 301.104 436.036C300.67 434.313 299.641 432.862 298.303 431.648C295.105 428.747 291.437 427.78 287.248 428.859C286.343 429.094 285.439 429.392 284.509 429.491C281.064 429.875 277.99 431.313 274.867 432.664C272.5 433.693 270.877 435.416 269.439 437.486C264.333 444.849 263.639 458.076 272.203 465.885C276.429 469.74 283.282 470.88 288.202 467.967C297.398 462.513 302.107 454.307 302.529 442.754ZM929.274 521.703C928.481 521.394 927.973 521.108 927.428 520.997C914.018 518.381 900.473 516.956 886.815 516.658C869.911 516.286 853.317 518.778 836.834 522.224C835.941 522.41 835.074 522.732 834.132 523.005C834.913 524.282 836.152 524.492 837.181 524.951C843.204 527.666 849.673 528.98 856.018 530.666C857.258 531 858.559 531.174 859.835 531.298C868.746 532.091 877.669 532.24 886.617 532.066C888.253 532.042 889.914 531.918 891.525 531.645C897.783 530.604 904.054 529.637 910.263 528.36C914.625 527.455 918.913 526.166 923.177 524.889C925.284 524.257 927.328 523.364 929.262 521.691L929.274 521.703ZM360.38 219.555C359.525 217.559 358 216.419 356.377 215.489C351.816 212.874 346.995 211.163 341.592 211.77C340.539 211.894 339.485 211.919 338.432 212.018C334.28 212.378 330.314 213.258 326.894 215.861C326.348 216.282 325.63 216.481 325.022 216.84C321.639 218.836 318.789 221.414 316.533 224.65C315.306 226.422 314.563 228.393 314.203 230.5C313.943 232.025 314.414 233.364 315.74 234.157C316.83 234.802 318.02 235.372 319.247 235.67C323.498 236.723 327.811 236.822 332.186 236.488C339.634 235.917 346.425 233.587 352.609 229.484C356.216 227.092 359.128 224.104 360.355 219.543L360.38 219.555ZM119.705 408.145C119.743 405.17 118.875 400.943 117.177 396.877C115.244 392.266 110.349 389.229 105.404 389.589C103.669 389.713 102.194 390.308 101.326 391.919C100.434 393.568 99.4302 395.179 98.699 396.89C96.3691 402.294 95.8362 408.021 96.1956 413.822C96.431 417.665 97.8686 421.111 100.223 424.185C101.785 426.218 103.768 427.074 106.321 427.012C111.712 426.875 115.38 424.161 117.76 419.512C119.346 416.401 119.718 413.017 119.718 408.145H119.705ZM335.395 515.58C335.544 513.745 335.68 512.01 335.829 510.262C335.978 508.502 336.077 506.742 336.337 505.006C336.61 503.147 336.969 501.3 337.378 499.465C337.762 497.742 338.283 496.056 338.692 494.346C339.089 492.685 340.03 491.148 340.105 489.326C336.622 489.821 321.379 495.461 318.826 497.209C319.321 505.167 320.474 513.163 321.899 521.294C326.745 519.856 330.798 517.179 335.395 515.58ZM331.69 183.694C332.942 184.4 333.437 184.71 333.945 184.971C336.635 186.371 338.593 188.516 340.179 191.045C341.22 192.718 341.641 194.515 341.071 196.437C340.675 197.775 340.13 199.077 339.597 200.379C339.349 200.998 338.989 201.569 338.481 202.511H350.527C349.499 201.184 348.52 200.056 347.689 198.829C344.095 193.474 345.087 188.132 350.341 184.4C351.011 183.929 351.767 183.582 352.448 183.124C352.783 182.9 353.415 182.9 353.279 182.033C346.289 181.81 339.361 182.467 331.677 183.694H331.69ZM286.071 246.975C285.934 246.194 285.897 245.351 285.637 244.595C285.463 244.099 285.042 243.479 284.596 243.318C283.059 242.735 281.398 242.388 279.787 242.896C277.668 243.566 275.623 244.458 273.876 245.896C272.091 247.371 270.902 249.231 270.703 251.561C270.641 252.33 270.79 253.247 271.174 253.891C273.231 257.412 278.474 258.478 281.572 255.875C284.274 253.606 285.637 250.52 286.071 246.975ZM359.959 187.115C357.567 187.822 355.621 189.185 354.419 191.54C353.527 193.301 353.663 194.838 354.952 196.4C357.691 199.709 363.639 200.924 367.543 198.854C367.853 198.693 368.163 198.494 368.386 198.234C369.836 196.474 370.17 194.453 369.65 192.272C369.204 190.388 368.076 189.26 366.093 188.85C364.147 188.441 362.264 187.772 359.959 187.103V187.115ZM265.932 232.248C269.043 232.236 271.013 231.827 273.058 230.897C275.276 229.868 276.602 228.096 276.763 225.728C277.036 222.009 276.441 221.018 272.513 220.956C269.129 220.894 265.771 221.836 262.821 223.708C261.408 224.612 260.318 225.852 259.81 227.488C259.326 229.063 259.785 230.253 261.148 231.12C262.697 232.112 264.42 232.36 265.932 232.248ZM289.231 201.668C287.868 203.614 287.682 205.796 287.868 208.027C288.227 212.365 291.945 215.229 296.208 214.398C297.931 214.064 299.678 213.469 300.546 211.758C301.723 209.428 301.748 207.023 300.348 204.73C299.022 202.56 297.125 201.469 294.498 201.643C292.775 201.755 291.04 201.668 289.231 201.668ZM314.798 256.953C314.897 254.362 314.339 252.726 313.274 251.251C312.109 249.627 310.894 249.218 308.998 249.9C307.325 250.507 305.838 251.425 304.598 252.726C303.322 254.077 302.739 255.676 302.752 257.523C302.752 260.412 304.685 263.349 308.502 263.287C312.022 263.238 313.943 261.763 314.649 258.292C314.786 257.61 314.81 256.891 314.798 256.953ZM599.369 418.905C600.001 416.736 599.344 414.789 598.923 412.868C596.853 403.398 595.961 400.559 594.399 398.043C591.933 398.923 589.132 398.191 586.406 399.493C587.856 401.687 589.281 403.683 590.52 405.79C591.822 408.021 593.086 410.29 594.114 412.657C595.081 414.876 595.713 417.244 596.531 419.649C597.646 419.363 598.526 419.14 599.369 418.917V418.905ZM337.762 251.363C337.217 252.02 336.523 252.801 335.879 253.631C334.168 255.838 334.23 259.42 336.077 261.416C336.523 261.899 337.205 262.296 337.849 262.457C339.919 262.978 342.013 262.965 344.083 262.37C345.496 261.961 346.202 260.982 346.264 259.544C346.376 257.226 345.545 255.218 344.133 253.408C342.856 251.772 341.171 251.239 339.188 251.35C338.952 251.363 338.729 251.35 337.762 251.35V251.363ZM324.576 190.524C322.407 192.061 321.131 194.069 320.957 196.672C320.908 197.428 321.069 198.395 321.515 198.953C322.767 200.54 324.613 201.023 326.534 200.775C328.257 200.565 329.533 199.573 330.178 197.875C330.822 196.164 330.847 194.466 330.128 192.768C329.794 191.974 329.261 191.404 328.368 191.23C327.117 190.995 325.865 190.759 324.589 190.512L324.576 190.524ZM167.171 505.403C170.195 506.94 172.959 508.39 175.846 509.63C181.981 512.27 188.376 513.336 195.018 512.816C195.477 512.778 195.923 512.431 196.766 512.047C186.864 509.667 177.445 507.399 168.026 505.143C167.865 505.105 167.679 505.242 167.159 505.403H167.171Z" fill="#3D3D3D"/>
<path d="M93.2336 391.671C92.7626 390.357 93.2707 389.13 93.5434 387.878C95.5387 378.916 98.4263 370.214 101.128 361.45C106.655 343.464 113.484 325.936 119.879 308.247C121.155 304.727 122.68 301.305 124.539 297.958C127.934 298.43 131.07 299.359 134.218 300.264C145.743 303.586 157.356 306.549 169.166 308.668C178.188 310.292 187.248 311.668 196.295 313.168C205.453 314.68 214.624 316.18 223.77 317.73C232.582 319.217 241.393 320.68 250.168 322.316C260.566 324.25 270.914 326.432 281.312 328.365C290.086 330.002 298.91 331.39 307.709 332.952C317.772 334.737 327.836 336.572 337.886 338.443C339.572 338.753 341.406 338.617 342.93 339.745C342.794 340.129 342.732 340.489 342.559 340.774C336.821 350.281 332.508 360.446 328.616 370.796C325.431 379.263 322.209 387.729 319.235 396.27C315.554 406.843 313.162 417.752 311.278 428.772C310.907 430.966 310.485 433.16 310.076 435.342C310.064 435.441 309.927 435.515 309.841 435.614C308.998 435.676 309.097 434.895 308.874 434.474C308.143 433.135 307.585 431.685 306.767 430.42C302.64 424.024 296.791 420.529 289.107 420.652C284.038 420.739 279.031 421.595 274.334 423.603C272.612 424.334 270.963 425.264 269.352 426.243C265.597 428.524 262.933 431.796 261.532 435.924C259.252 442.593 258.484 449.386 260.231 456.377C261.582 461.769 264.184 466.43 267.915 470.471C273.405 476.397 280.246 477.934 287.892 476.037C293.878 474.55 298.848 471.265 302.987 466.728C304.326 465.265 305.528 463.678 307.027 461.869C307.213 462.501 307.449 462.897 307.424 463.282C306.879 472.579 307.226 481.851 307.647 491.135C307.697 492.288 307.982 493.466 307.412 494.68C304.685 494.99 302.083 494.135 299.48 493.577C291.325 491.817 283.22 489.834 275.053 488.098C252.411 483.264 230.029 477.363 207.535 471.847C194.87 468.748 182.129 465.91 169.612 462.265C162.623 460.232 155.633 458.15 148.68 455.981C141.939 453.873 134.998 452.609 128.133 450.985C114.525 447.762 101.103 443.845 87.7062 439.358C87.5699 438.688 87.3344 438.019 87.3344 437.35C87.2849 429.689 88.3507 422.115 89.2058 414.517C89.2554 414.083 89.5032 413.661 89.6891 413.141C90.4823 413.475 90.2344 414.107 90.284 414.566C90.9656 420.367 93.5558 425.313 97.187 429.776C100.05 433.296 103.916 434.337 108.254 433.941C113.323 433.47 117.784 431.511 121.639 428.177C125.282 425.016 127.228 420.925 127.724 416.202C128.591 408.021 126.955 400.249 123.237 392.973C119.619 385.907 113.372 382.858 105.689 382.473C102.38 382.312 99.5045 383.775 96.8276 385.523C95.6502 386.291 94.696 387.345 94.6464 388.956C94.6092 390.047 94.0639 390.952 93.1964 391.634L93.2831 391.721L93.2336 391.671ZM162.474 407.141C162.722 409.459 163.391 411.318 164.271 413.116C168.423 421.57 174.483 428.264 182.774 432.825C186.74 435.007 190.891 436.321 195.526 436.246C201.996 436.135 207.647 433.854 213.013 430.507C216.074 428.598 218.355 425.945 220.362 423.032C220.87 422.289 221.118 421.347 221.478 420.516C221.094 419.884 220.771 419.4 220.486 418.905C219.582 417.318 218.268 416.686 216.421 416.698C215.281 416.698 214.352 416.934 213.459 417.541C211.514 418.855 209.58 420.194 207.647 421.52C204.908 423.38 201.971 424.842 198.773 425.722C195.812 426.54 192.8 427.061 189.751 426.156C187.384 425.45 185.116 424.52 183.034 423.144C177.903 419.735 174.297 415.037 171.496 409.645C170.951 408.604 170.542 407.488 169.873 406.534C168.633 404.786 166.452 404.464 164.606 405.654C163.924 406.087 163.28 406.596 162.462 407.166L162.474 407.141ZM264.767 407.823C264.407 404.711 264.098 401.798 262.412 399.27C260.863 396.939 258.533 396.01 255.869 395.811C255.063 395.749 250.416 397.658 249.746 398.204C248.309 399.394 244.43 405.914 244.07 407.773C244.008 408.12 243.934 408.467 243.909 408.814C243.773 410.327 243.537 411.839 243.537 413.364C243.537 414.752 243.736 416.153 243.984 417.516C244.455 420.169 246.239 422.09 247.887 424.061C249.759 426.293 251.779 426.925 254.431 425.884C256.736 424.966 258.781 423.64 260.231 421.52C263.094 417.33 264.172 412.583 264.767 407.835V407.823ZM147.02 383.589C147.057 380.849 146.437 378.234 145.396 375.73C144.467 373.499 142.992 371.85 140.575 370.958C138.183 370.065 136.039 370.053 133.908 371.503C133.623 371.701 133.276 371.8 132.954 371.924C130.289 372.99 128.48 374.924 127.563 377.589C126.695 380.13 125.902 382.709 125.319 385.324C125.047 386.527 125.208 387.89 125.431 389.13C126.162 393.059 128.814 395.737 131.739 398.129C132.47 398.724 133.685 398.91 134.689 398.96C136.473 399.059 138.196 398.588 139.683 397.547C144.516 394.163 147.057 389.539 147.02 383.589Z" fill="#EFEDDF"/>
<path d="M443.749 235.248C443.587 233.686 443.451 232.31 443.302 230.922C442.571 224.03 441.79 217.163 439.956 210.419C438.395 204.692 435.594 199.796 431.603 195.519C430.401 194.23 429.112 193.003 427.761 191.875C417.859 183.595 406.743 177.793 394.04 174.992C385.488 173.108 376.875 172.302 368.15 172.153C360.851 172.029 353.564 172.141 346.314 172.971C338.035 173.926 329.682 174.546 321.565 176.541C316.322 177.831 311.154 179.467 305.974 181.004C294.535 184.4 283.852 189.545 273.38 195.185C261.272 201.717 251.246 210.618 243.277 221.836C240.613 225.579 238.258 229.496 236.808 234.008C234.144 234.616 231.69 235.694 229.459 237.244C229.261 237.38 229.075 237.517 228.852 237.603C223.399 239.773 217.933 241.942 212.468 244.099C212.282 244.173 212.022 244.062 211.786 244.037C211.08 243.566 211.229 242.81 211.241 242.14C211.315 235.533 212.059 229.013 213.41 222.542C216.248 208.932 222.457 196.883 230.45 185.677C232.347 183.012 234.639 180.582 236.982 178.289C241.604 173.752 246.549 169.563 251.977 166.005C256.897 162.782 261.855 159.596 266.985 156.745C274.582 152.518 282.353 148.601 290.049 144.548C293.494 142.738 297.175 141.548 300.843 140.259C308.031 137.742 315.393 136.726 322.99 136.565C330.513 136.391 338.01 135.66 345.533 135.35C354.109 134.991 362.697 135.065 371.261 135.895C382.489 136.999 393.742 137.904 404.958 139.069C413.955 139.999 422.928 141.226 431.913 142.267C440.093 143.209 448.247 144.312 456.29 146.035C467.097 148.341 477.879 150.708 488.636 153.2C492.999 154.217 497.002 156.138 500.831 158.58C508.627 163.538 515.393 169.711 522.073 175.996C532.198 185.528 541.419 195.891 550.106 206.738C557.84 216.382 564.829 226.546 570.927 237.331C575.029 244.595 579.094 251.883 582.812 259.37C588.463 270.762 593.21 282.526 597.423 294.513C598.142 296.558 598.043 298.33 597.175 300.252C594.474 306.214 590.644 311.383 586.393 316.292C579.689 324.039 571.237 329.134 561.818 332.927C549.573 337.861 536.908 339.708 523.808 338.592C516.521 337.972 509.383 336.534 502.566 333.758C493.829 330.213 486.864 324.411 481.238 316.937C479.614 314.78 478.152 312.499 476.615 310.28C475.611 308.83 475.438 307.293 475.834 305.582C476.826 301.355 477.693 297.091 478.685 292.852C479.936 287.472 481.238 282.104 482.539 276.749C484.014 270.688 483.877 264.614 482.539 258.577C481.709 254.809 479.751 251.586 476.888 249.007C472.848 245.375 468.436 242.363 463.243 240.442C457.046 238.136 450.726 236.438 443.749 235.26V235.248Z" fill="#FF7756"/>
<path d="M465.065 297.574C464.172 301.962 463.379 305.607 462.685 309.288C461.979 313.094 461.235 316.912 460.764 320.754C460.008 326.928 460.851 332.927 463.082 338.753C466.217 346.91 470.989 353.851 477.371 359.876C484.832 366.929 493.668 371.416 503.248 374.466C511.303 377.019 519.446 379.436 527.836 380.626C536.238 381.816 544.666 381.99 553.143 380.899C562.128 379.746 569.973 375.965 577.483 371.243C578.363 370.685 579.255 370.139 580.284 369.482C581.882 370.97 582.341 372.953 583.246 374.676C584.175 376.449 585.08 378.222 586.034 379.982C586.988 381.742 588.005 383.465 588.946 385.225C589.888 386.961 590.83 388.696 591.636 390.679C587.695 391.572 584.039 392.402 580.222 393.27C579.255 392.526 578.226 391.77 577.235 390.977C571.274 386.167 564.346 383.924 556.848 382.944C552.337 382.349 547.975 382.709 543.575 383.738C540.787 384.382 538.221 385.547 535.73 386.824C527.477 391.064 520.202 396.555 514.451 403.918C511.613 407.55 509.395 411.554 507.586 415.793C507.177 416.76 506.792 417.739 506.346 418.83C505.243 419.19 504.153 419.586 503.037 419.909C492.54 422.946 482.006 425.859 471.546 429.032C464.804 431.077 458.174 433.507 451.482 435.726C435.519 440.994 419.693 446.609 404.177 453.092C402.554 453.774 400.93 454.468 399.356 455.262C398.241 455.832 397.188 455.857 395.961 455.621C393.308 455.125 390.644 454.704 387.955 454.443C381.956 453.873 376.268 455.076 370.865 457.679C361.731 462.092 353.787 468.005 347.578 476.111C346.165 479.148 343.463 480.289 340.501 481.355C333.66 483.834 326.918 486.598 320.127 489.239C319.607 489.437 319.061 489.536 318.479 489.685C318.342 489.177 318.181 488.842 318.169 488.507C317.45 476.52 317.686 464.546 318.801 452.584C320.053 439.221 322.036 425.983 325.357 412.979C326.869 407.067 328.616 401.191 330.624 395.427C334.106 385.436 337.874 375.556 341.505 365.627C344.467 357.545 348.359 349.909 352.424 342.336C353.08 341.121 353.923 340.352 355.249 339.894C359.587 338.406 363.887 336.844 368.188 335.258C389.12 327.51 410.312 320.445 430.984 312.003C441.208 307.826 451.321 303.388 461.495 299.074C462.45 298.665 463.429 298.281 465.052 297.611L465.065 297.574Z" fill="#EFEDDF"/>
<path d="M444.566 249.07C448.656 248.809 456.389 251.127 458.955 253.371C459.748 254.065 460.405 254.908 461.099 255.701C465.35 260.573 467.531 266.3 468.027 272.708C468.312 276.34 468.46 279.972 467.804 283.604C466.775 284.708 465.375 285.067 464.11 285.612C457.319 288.538 450.466 291.339 443.687 294.314C424.415 302.756 404.698 310.057 384.918 317.209C374.867 320.841 364.841 324.56 354.803 328.242C354.146 328.49 353.415 328.651 352.857 329.06C350.205 330.994 347.367 330.547 344.442 329.977C338.209 328.775 331.975 327.597 325.729 326.506C317.748 325.118 309.729 323.891 301.736 322.502C290.507 320.544 279.304 318.511 268.076 316.503C256.736 314.482 245.421 312.4 234.069 310.454C223.188 308.582 212.282 306.834 201.376 305.062C192.565 303.636 183.741 302.235 174.929 300.847C165.399 299.335 156.042 297.066 146.698 294.723C142.248 293.608 137.824 292.418 133.4 291.24C133.09 291.153 132.83 290.893 132.297 290.558C132.929 290.05 133.4 289.592 133.945 289.257C140.761 285.03 148.086 281.795 155.521 278.881C164.395 275.411 173.033 271.432 181.758 267.638C191.449 263.424 201.277 259.519 211.043 255.466C218.094 252.54 225.134 249.59 232.185 246.652C233.474 246.119 234.763 245.586 236.263 244.954C236.597 246.181 237.043 247.173 237.118 248.189C237.738 256.061 239.646 263.721 240.96 271.469C241.654 275.522 242.36 279.576 242.955 283.642C243.116 284.782 243.513 285.65 244.417 286.319C245.273 286.951 246.066 287.658 246.97 288.203C249.077 289.48 251.221 290.695 253.365 291.897C254.803 292.703 256.216 293.558 257.715 294.228C267.047 298.43 276.491 302.334 286.579 304.38C291.065 305.285 295.576 306.066 300.174 306.289C304.636 306.512 309.072 307.07 313.521 307.33C324.564 307.962 335.606 308.036 346.661 307.64C357.059 307.268 367.246 305.731 377.197 302.719C384.076 300.636 390.57 297.587 397.076 294.575C404.97 290.918 412.828 287.212 420.71 283.542C426.163 281.001 431.405 278.125 436.09 274.32C438.283 272.535 440.464 270.75 441.666 268.06C441.902 267.539 442.336 267.093 442.732 266.672C444.504 264.849 445.025 262.668 444.827 260.189C444.628 257.61 444.554 255.02 444.48 252.441C444.443 251.301 444.529 250.148 444.554 249.02L444.566 249.07Z" fill="#D3D1C7"/>
<path d="M308.192 501.511C309.345 509.159 310.473 516.584 311.601 524.083C310.113 524.84 308.577 524.368 307.127 524.121C296.927 522.435 286.752 520.637 276.565 518.914C266.031 517.129 255.472 515.431 244.938 513.634C233.71 511.712 222.506 509.667 211.452 506.878C202.008 504.498 192.441 502.552 182.947 500.345C179.403 499.527 175.896 498.523 172.376 497.631C165.312 495.846 158.273 494.023 151.196 492.325C140.551 489.772 130.153 486.474 120.003 482.396C110.733 478.677 101.45 475.008 91.9076 472.07C90.693 471.699 89.5157 471.178 88.2268 470.682C87.2725 462.241 87.2849 453.923 87.0247 445.717C88.5242 444.862 89.5529 445.791 90.5815 446.151C102.776 450.477 115.182 454.059 127.761 456.985C136.002 458.894 144.219 460.815 152.312 463.319C165.771 467.484 179.329 471.339 193.035 474.674C203.879 477.314 214.723 479.917 225.53 482.669C244.43 487.478 263.441 491.792 282.452 496.106C287.954 497.346 293.42 498.697 298.935 499.899C301.909 500.544 304.921 500.953 308.205 501.523L308.192 501.511Z" fill="#FF7756"/>
<path d="M584.572 439.965C584.72 447.899 583.605 455.398 580.953 462.674C579.391 466.963 577 470.645 573.765 473.831C567.444 480.041 560.194 484.714 551.594 487.045C545.385 488.73 539.25 488.359 533.413 485.433C526.448 481.95 521.181 476.793 517.872 469.678C515.207 463.976 513.621 458.001 512.939 451.754C511.824 441.515 513.026 431.573 516.707 421.967C517.921 418.806 519.471 415.719 521.23 412.818C523.3 409.41 525.816 406.323 529.373 404.191C531.678 402.815 533.723 400.98 535.842 399.307C539.114 396.741 542.72 394.782 546.736 393.729C548.421 393.283 550.206 393.097 551.953 393.084C554.06 393.084 556.179 393.307 558.274 393.568C565.449 394.46 571.063 397.956 575.19 403.869C578.177 408.158 580.358 412.806 581.709 417.851C583.679 425.152 584.72 432.577 584.584 439.928L584.572 439.965ZM571.15 439.618C571.237 435.714 570.815 431.982 570.072 428.288C569.564 425.747 568.795 423.281 567.482 421.012C567.073 420.306 566.626 419.599 566.081 419.004C563.974 416.723 561.136 416.351 558.447 417.901C556.39 419.078 555.225 420.962 554.494 423.107C552.734 428.239 551.482 433.507 551.284 438.936C551.123 443.25 551.024 447.564 552.387 451.841C553.415 455.088 555.225 457.406 558.026 459.154C560.802 460.889 563.342 460.629 565.66 458.299C567.618 456.34 568.82 453.935 569.613 451.32C570.791 447.465 571.224 443.511 571.15 439.606V439.618Z" fill="#5476B7"/>
<path d="M418.182 510.844C418.231 519.769 417.153 527.517 414.253 534.979C412.877 538.537 410.919 541.698 408.28 544.45C402.566 550.4 395.899 554.875 388.153 557.738C378.239 561.407 369.254 559.672 360.975 553.3C355.262 548.912 351.755 543.049 349.387 536.38C346.76 528.967 345.88 521.294 346.202 513.472C346.587 504.3 348.743 495.585 352.994 487.416C354.518 484.479 356.402 481.776 358.645 479.347C359.513 478.405 360.529 477.586 361.545 476.806C364.247 474.735 366.961 472.665 369.712 470.67C373.74 467.744 378.028 465.203 383.109 464.844C389.764 464.373 396.246 465.129 402.083 468.847C404.822 470.595 406.916 472.95 408.763 475.541C412.084 480.19 414.278 485.359 415.666 490.875C417.389 497.755 418.231 504.733 418.194 510.832L418.182 510.844ZM404.834 510.398C404.698 508.65 404.636 506.419 404.351 504.213C403.855 500.37 403.211 496.552 401.302 493.094C400.745 492.077 400.1 491.048 399.27 490.267C397.857 488.966 396.085 488.098 394.151 488.569C392.714 488.916 391.363 489.685 390.322 490.9C389.07 492.35 388.252 494.011 387.682 495.821C386.207 500.531 385.142 505.353 384.857 510.274C384.596 514.576 384.609 518.889 385.885 523.154C386.889 526.525 388.686 528.992 391.623 530.789C394.511 532.562 396.828 532.364 399.22 529.984C401.092 528.124 402.257 525.856 403.087 523.364C404.438 519.311 404.71 515.109 404.859 510.411L404.834 510.398Z" fill="#5476B7"/>
<path d="M364.804 235.88C365.473 235.087 366.093 234.232 366.824 233.5C369.068 231.257 370.493 228.654 370.654 225.431C370.741 223.683 371.05 221.898 370.852 220.187C370.468 216.729 369.167 213.617 366.626 211.101C365.734 210.221 364.953 209.229 364.147 208.312C364.866 207.333 365.771 207.605 366.527 207.519C371.509 206.948 375.376 204.482 378.214 200.453C379.143 199.139 379.75 197.552 380.221 196.003C380.816 194.02 380.544 192.036 379.403 190.239C378.152 188.256 376.925 186.247 375.066 184.735C374.731 184.462 374.471 184.091 373.988 183.545C375.71 183.111 377.148 182.814 378.672 183.049C386.926 184.314 395.068 186.012 402.975 188.739C404.165 189.148 405.268 189.817 406.408 190.363C406.073 190.412 405.702 190.561 405.392 190.487C401.166 189.483 397.336 190.524 393.494 192.346C389.491 194.243 386.864 197.267 385.65 201.346C384.187 206.267 385.34 209.762 388.996 212.675C390.681 214.014 392.639 214.745 394.61 215.526C399.344 217.398 403.867 216.791 408.106 214.274C411.873 212.043 414.451 208.733 415.616 204.457C416.05 202.87 416.223 201.16 415.393 199.635C414.154 197.366 412.766 195.098 410.349 193.908C408.602 193.053 407.424 191.702 406.284 190.251C407.895 190.945 409.593 191.491 411.093 192.359C416.521 195.495 421.552 199.151 425.531 204.06C428.939 208.262 431.12 213.01 431.554 218.464C431.814 221.687 431.455 224.761 429.967 227.711C428.468 230.662 426.745 233.463 424.626 235.979C413.844 248.797 400.521 257.908 384.534 262.99C371.633 267.093 358.434 269.956 345 271.704C339.869 272.374 334.751 273.117 329.595 273.526C321.503 274.159 313.398 274.134 305.292 273.328C293.643 272.151 282.44 269.151 271.41 265.382C266.031 263.548 260.975 261.081 256.377 257.759C251.952 254.573 247.987 250.916 245.347 246.057C244.566 244.632 243.909 243.07 243.55 241.496C243.005 239.165 243.228 236.773 244.306 234.604C245.508 232.186 246.772 229.794 248.235 227.526C256.203 215.266 267.196 206.49 280.134 199.97C280.333 199.87 280.581 199.883 280.816 199.833C281.634 200.49 280.866 201.122 280.705 201.693C280.072 203.961 279.391 206.205 279.787 208.597C280.754 214.374 284.199 218.055 289.541 220.088C291.065 220.671 292.689 221.129 294.312 221.34C300.657 222.183 305.528 219.605 309.159 214.51C310.46 212.675 311.216 210.593 311.638 208.349C312.121 205.709 311.464 203.49 309.754 201.482C305.986 197.044 301.277 194.491 295.39 194.317C294.833 194.305 294.263 194.243 293.011 194.144C293.978 193.499 294.362 193.152 294.82 192.954C301.091 190.251 313.236 186.669 316.892 186.471C316.397 187.14 315.951 187.661 315.591 188.231C314.786 189.52 313.906 190.784 313.261 192.148C310.485 198.073 313.422 202.35 316.62 204.99C317.512 205.721 318.504 206.341 319.669 207.159C318.801 207.841 318.107 208.461 317.351 208.969C314.302 211.002 311.601 213.456 309.184 216.196C306.408 219.357 304.598 223.001 304.165 227.24C303.768 231.17 304.834 234.69 307.139 237.851C308.242 239.364 309.457 240.789 310.622 242.277C310.498 243.219 309.68 243.268 309.06 243.318C304.425 243.64 300.781 245.735 297.919 249.317C297.708 249.578 297.386 249.764 297.088 249.95C297.026 249.999 296.865 249.912 296.654 249.863C296.605 249.59 296.481 249.268 296.518 248.97C296.964 245.772 295.502 243.268 293.618 240.925C291.858 238.756 289.615 237.442 286.814 236.86C284.113 236.289 281.485 236.141 278.635 236.723C279.069 236.339 279.49 235.955 279.924 235.558C281.225 234.38 282.663 233.302 283.828 232C289.119 226.063 286.257 216.989 278.499 215.043C275.983 214.411 273.455 214.002 270.926 215.241C270.009 215.688 268.869 215.663 267.828 215.824C264.779 216.32 261.917 217.361 259.165 218.712C257.244 219.654 255.608 221.005 254.307 222.716C252.411 225.183 252.064 227.897 253.502 230.662C255.893 235.285 259.76 237.95 264.928 238.434C267.605 238.682 270.319 238.421 273.021 238.397L272.959 238.322C273.095 239.178 272.314 239.116 271.881 239.401C270.22 240.492 268.373 241.372 266.911 242.686C262.561 246.615 262.016 252.193 265.424 256.966C267.221 259.482 269.514 261.527 272.277 262.928C276.912 265.283 281.597 265.221 286.034 262.432C287.905 261.255 289.528 259.68 291.214 258.23C292.007 257.548 292.664 256.73 293.321 256.048C294.139 256.11 294.077 256.594 294.052 257.04C293.829 262.655 296.543 266.473 301.525 268.667C305.825 270.551 310.361 271.084 314.91 269.498C316.211 269.039 317.549 268.37 318.565 267.465C323.163 263.399 325.407 258.28 324.7 252.119C324.502 250.433 323.746 248.809 323.163 246.925C326.039 246.913 328.877 247.012 331.901 246.95C331.727 248.338 330.76 248.772 330.289 249.516C329.781 250.309 329.199 251.053 328.678 251.821C327.476 253.606 326.671 255.515 326.609 257.722C326.51 261.441 327.984 264.354 331.021 266.424C332.867 267.688 334.9 268.556 337.143 268.99C340.786 269.671 344.356 269.771 347.937 268.704C354.729 266.672 357.914 258.131 355.646 252.726C354.753 250.607 353.477 248.822 351.556 247.557C349.92 246.466 348.21 245.487 346.363 244.359C348.346 243.566 350.218 242.884 352.027 242.091C354.815 240.863 357.567 239.537 360.343 238.285C360.962 238.012 361.644 237.888 362.301 237.69C361.433 239.078 360.566 240.467 359.698 241.855C357.666 245.115 357.554 248.487 359.103 251.958C360.144 254.288 361.855 256.036 363.949 257.424C368.448 260.399 373.504 261.379 378.771 261.019C382.192 260.784 385.129 259.184 386.901 256.098C390.185 250.371 389.33 243.987 385.873 239.847C381.845 235.037 376.603 232.719 370.171 234.343C368.349 234.802 366.564 235.384 364.755 235.905L364.804 235.88ZM402.058 217.187C399.877 217.039 397.225 217.72 395.006 219.753C394.411 220.299 393.668 220.695 393.011 221.179C386.753 225.815 385.984 234.38 391.425 239.859C392.552 241 393.978 241.967 395.428 242.661C398.65 244.186 402.108 244.954 405.664 244.681C412.443 244.148 417.996 240.206 419.508 232.831C420.078 230.029 419.508 227.426 417.723 225.207C415.889 222.914 413.745 220.906 411.167 219.431C408.577 217.956 405.801 217.101 402.046 217.187H402.058Z" fill="#5476B7"/>
<path d="M934.38 530.108C934.702 541.785 935 553.04 935.322 564.469C933.699 565.188 932.261 566.019 930.712 566.477C925.408 568.014 920.116 569.589 914.749 570.853C903.286 573.568 891.612 575.018 879.85 575.539C875.178 575.737 870.456 575.229 865.772 574.882C860.492 574.497 855.238 573.84 849.958 573.506C843.452 573.097 837.193 571.572 831.046 569.527C830.848 569.465 830.674 569.266 830.402 569.056C831.17 556.35 830.018 543.57 830.08 530.715C830.625 530.74 831.022 530.653 831.294 530.79C835.26 532.872 839.486 534.298 843.65 535.897C847.975 537.558 852.424 538.512 856.911 539.33C860.257 539.95 863.665 540.21 867.061 540.471C870.927 540.768 874.806 540.88 878.685 541.066C886.592 541.45 894.437 540.929 902.183 539.306C908.156 538.054 914.155 536.888 920.116 535.537C924.478 534.546 928.704 533.07 932.608 530.814C933.005 530.591 933.451 530.467 934.38 530.095V530.108Z" fill="#5476B7"/>
<path d="M473.641 317.606C474.893 319.143 475.661 319.998 476.343 320.928C484.237 331.675 494.784 338.505 507.536 342.125C516.769 344.74 526.188 345.943 535.768 345.62C545.236 345.298 554.432 343.402 563.268 339.931C566.763 338.555 570.196 337.018 573.616 335.456C579.478 332.791 584.411 328.812 588.959 324.324C592.479 320.841 595.626 317.048 598.576 313.069C599.109 312.35 599.444 311.383 600.547 310.974C601.129 312.189 601.179 313.466 601.241 314.718C601.426 318.474 601.612 322.23 601.662 325.985C601.674 327.002 601.377 328.08 600.98 329.035C599.208 333.287 597.101 337.365 594.028 340.848C589.901 345.521 585.811 350.232 581.449 354.669C575.859 360.347 569.167 364.499 561.781 367.487C559.823 368.28 557.827 368.9 555.696 369.16C553.502 369.42 551.358 370.189 549.165 370.536C541.283 371.8 533.438 371.329 525.704 369.569C519.52 368.156 513.373 366.557 507.313 364.698C503.62 363.57 500.013 362.033 496.568 360.297C487.484 355.723 481.325 348.298 476.975 339.274C474.917 335.01 473.48 330.547 473.207 325.775C473.158 324.833 473.021 323.891 473.083 322.961C473.182 321.449 473.393 319.949 473.653 317.593L473.641 317.606Z" fill="#FF7756"/>
<path d="M433.946 240.38C434.156 240.69 434.379 240.863 434.392 241.062C434.776 247.631 435.148 254.189 435.52 260.858C431.777 264.849 427.352 267.911 422.432 270.192C411.043 275.485 399.555 280.604 388.116 285.811C380.791 289.133 373.071 291.116 365.25 292.789C357.629 294.426 349.883 294.81 342.125 295.046C339.659 295.12 337.192 295.182 334.726 295.281C326.72 295.591 318.739 295.058 310.758 294.711C306.656 294.537 302.554 294.066 298.452 293.794C288.872 293.161 279.651 290.893 270.716 287.496C266.217 285.786 261.78 283.902 257.381 281.956C255.348 281.051 253.477 279.799 251.395 278.621C250.366 273.626 249.288 268.618 248.321 263.213C249.102 263.61 249.548 263.758 249.908 264.031C256.377 268.866 263.627 272.188 271.224 274.791C279.564 277.642 288.029 280.071 296.692 281.732C302.244 282.798 307.821 283.567 313.46 283.765C320.164 284.001 326.869 284.026 333.549 283.406C339.039 282.898 344.529 282.216 349.982 281.435C359.525 280.071 369.006 278.386 378.325 275.894C386.046 273.824 393.742 271.692 400.992 268.233C411.886 263.052 421.144 255.776 428.815 246.466C430.376 244.557 431.876 242.599 433.413 240.665C433.475 240.591 433.611 240.566 433.946 240.392V240.38Z" fill="#385077"/>
<path d="M425.865 480.066C423.027 475.764 420.586 471.761 417.289 468.352C414.03 464.98 410.287 462.166 406.222 459.154C407.139 458.695 407.697 458.348 408.304 458.125C411.378 456.96 414.451 455.758 417.562 454.692C436.015 448.382 454.444 441.998 472.959 435.887C480.878 433.272 488.983 431.251 497.002 428.958C499.133 428.35 501.253 427.706 503.645 426.999C503.669 429.999 502.666 432.54 502.542 435.205C502.418 437.908 502.058 440.597 502.021 443.3C501.984 445.99 502.195 448.692 502.294 451.345C501.947 451.63 501.724 451.952 501.414 452.064C484.757 458.497 468.138 465.03 451.42 471.302C443.079 474.438 434.565 477.103 425.878 480.066H425.865Z" fill="#FF7756"/>
<path d="M302.529 442.754C302.107 454.32 297.386 462.513 288.202 467.968C283.282 470.881 276.429 469.74 272.203 465.885C263.639 458.076 264.333 444.849 269.439 437.486C270.877 435.416 272.513 433.693 274.867 432.664C277.99 431.301 281.076 429.875 284.509 429.491C285.439 429.392 286.343 429.094 287.248 428.859C291.437 427.78 295.105 428.747 298.303 431.648C299.641 432.863 300.67 434.313 301.104 436.036C301.736 438.527 302.169 441.069 302.529 442.754Z" fill="#FF7756"/>
<path d="M929.274 521.703C927.341 523.377 925.296 524.269 923.189 524.902C918.914 526.178 914.626 527.467 910.276 528.372C904.067 529.662 897.796 530.616 891.537 531.657C889.926 531.93 888.266 532.042 886.63 532.079C877.694 532.252 868.759 532.104 859.848 531.31C858.559 531.199 857.27 531.013 856.031 530.678C849.686 528.992 843.229 527.678 837.194 524.964C836.152 524.492 834.913 524.294 834.145 523.017C835.087 522.745 835.954 522.422 836.846 522.236C853.329 518.803 869.924 516.311 886.828 516.671C900.485 516.968 914.031 518.381 927.44 521.009C927.986 521.121 928.494 521.406 929.287 521.716L929.274 521.703Z" fill="#FF7756"/>
<path d="M360.38 219.555C359.153 224.117 356.241 227.104 352.634 229.497C346.438 233.6 339.659 235.93 332.21 236.5C327.836 236.835 323.523 236.736 319.272 235.682C318.045 235.372 316.855 234.814 315.765 234.17C314.439 233.376 313.955 232.038 314.228 230.513C314.587 228.406 315.331 226.435 316.558 224.662C318.813 221.427 321.664 218.849 325.047 216.853C325.654 216.493 326.361 216.295 326.919 215.874C330.327 213.27 334.305 212.39 338.457 212.031C339.51 211.944 340.576 211.907 341.617 211.783C347.008 211.176 351.829 212.886 356.402 215.502C358.025 216.431 359.55 217.559 360.405 219.567L360.38 219.555Z" fill="black"/>
<path d="M119.705 408.145C119.705 413.017 119.334 416.413 117.747 419.512C115.368 424.161 111.712 426.875 106.308 427.012C103.755 427.074 101.772 426.218 100.211 424.185C97.8563 421.111 96.4186 417.665 96.1832 413.822C95.8238 408.021 96.3567 402.307 98.6866 396.89C99.4302 395.167 100.422 393.568 101.314 391.919C102.194 390.308 103.656 389.713 105.391 389.589C110.336 389.229 115.231 392.266 117.165 396.877C118.863 400.943 119.743 405.17 119.693 408.145H119.705Z" fill="#FF7756"/>
<path d="M364.804 235.88C366.614 235.36 368.398 234.777 370.22 234.318C376.652 232.695 381.894 235.013 385.922 239.822C389.38 243.95 390.235 250.346 386.951 256.073C385.191 259.16 382.241 260.759 378.821 260.994C373.554 261.366 368.51 260.374 363.999 257.399C361.904 256.011 360.194 254.263 359.153 251.933C357.604 248.462 357.715 245.09 359.748 241.83C360.615 240.442 361.483 239.054 362.35 237.665C362.487 237.529 362.623 237.38 362.735 237.219C363.243 236.922 363.751 236.624 364.271 236.339C364.445 236.19 364.631 236.029 364.804 235.88ZM378.908 250.557C378.635 247.731 377.544 244.595 375.004 242.091C373.802 240.913 371.15 240.442 369.799 241.099C367.717 242.115 366.626 243.851 366.527 246.107C366.304 251.313 372.662 255.466 377.52 253.371C378.499 252.949 378.97 252.255 378.908 250.545V250.557Z" fill="#3D3D3D"/>
<path d="M335.396 515.58C330.798 517.179 326.745 519.844 321.899 521.294C320.474 513.163 319.322 505.167 318.826 497.209C321.379 495.461 336.622 489.821 340.105 489.325C340.043 491.148 339.089 492.685 338.692 494.346C338.283 496.056 337.763 497.742 337.378 499.465C336.969 501.3 336.598 503.147 336.337 505.006C336.09 506.742 335.99 508.514 335.829 510.262C335.681 512.01 335.544 513.745 335.396 515.58Z" fill="#FF7756"/>
<path d="M331.69 183.694C339.374 182.454 346.301 181.81 353.291 182.033C353.427 182.888 352.795 182.888 352.461 183.124C351.779 183.582 351.023 183.929 350.354 184.4C345.112 188.132 344.12 193.474 347.702 198.829C348.532 200.056 349.511 201.184 350.54 202.511H338.494C338.989 201.556 339.361 200.986 339.609 200.379C340.142 199.077 340.687 197.788 341.084 196.437C341.654 194.528 341.233 192.718 340.192 191.045C338.605 188.516 336.647 186.371 333.958 184.971C333.45 184.71 332.954 184.4 331.702 183.694H331.69Z" fill="#5476B7"/>
<path d="M286.071 246.975C285.637 250.52 284.274 253.606 281.572 255.875C278.474 258.478 273.231 257.412 271.174 253.891C270.79 253.234 270.641 252.33 270.703 251.561C270.902 249.231 272.079 247.371 273.876 245.896C275.623 244.458 277.668 243.566 279.787 242.896C281.399 242.388 283.059 242.735 284.596 243.318C285.055 243.491 285.464 244.099 285.637 244.595C285.897 245.351 285.934 246.194 286.071 246.975Z" fill="white"/>
<path d="M359.959 187.115C362.264 187.784 364.148 188.454 366.093 188.863C368.076 189.272 369.204 190.4 369.65 192.284C370.171 194.453 369.836 196.486 368.386 198.246C368.175 198.507 367.853 198.705 367.543 198.866C363.639 200.936 357.691 199.722 354.952 196.412C353.663 194.85 353.527 193.313 354.419 191.553C355.621 189.197 357.554 187.822 359.959 187.127V187.115Z" fill="white"/>
<path d="M265.932 232.248C264.42 232.348 262.697 232.112 261.148 231.12C259.785 230.253 259.326 229.05 259.81 227.488C260.318 225.852 261.396 224.613 262.821 223.708C265.771 221.836 269.129 220.894 272.513 220.956C276.441 221.03 277.036 222.009 276.764 225.728C276.59 228.096 275.276 229.868 273.058 230.897C271.025 231.839 269.043 232.236 265.932 232.248Z" fill="white"/>
<path d="M289.231 201.668C291.041 201.668 292.776 201.767 294.498 201.643C297.126 201.469 299.022 202.56 300.348 204.729C301.748 207.01 301.736 209.415 300.546 211.758C299.679 213.469 297.931 214.064 296.208 214.398C291.945 215.229 288.227 212.378 287.868 208.027C287.682 205.796 287.868 203.614 289.231 201.668Z" fill="white"/>
<path d="M314.798 256.953C314.798 256.953 314.786 257.598 314.649 258.292C313.943 261.763 312.022 263.238 308.502 263.287C304.698 263.349 302.764 260.412 302.752 257.523C302.752 255.676 303.322 254.077 304.599 252.726C305.838 251.412 307.325 250.507 308.998 249.9C310.894 249.206 312.109 249.627 313.274 251.251C314.34 252.726 314.885 254.362 314.798 256.953Z" fill="white"/>
<path d="M599.369 418.905C598.514 419.128 597.647 419.351 596.531 419.636C595.713 417.231 595.081 414.864 594.115 412.645C593.086 410.277 591.834 408.009 590.52 405.778C589.281 403.67 587.856 401.675 586.406 399.481C589.12 398.191 591.933 398.91 594.4 398.03C595.961 400.547 596.853 403.385 598.923 412.856C599.344 414.777 600.014 416.723 599.369 418.892V418.905Z" fill="#FF7756"/>
<path d="M337.763 251.363C338.729 251.363 338.965 251.363 339.188 251.363C341.171 251.251 342.856 251.772 344.133 253.42C345.545 255.242 346.376 257.238 346.264 259.556C346.202 260.982 345.496 261.973 344.083 262.382C342.013 262.977 339.919 262.99 337.849 262.469C337.205 262.308 336.536 261.911 336.077 261.428C334.231 259.432 334.169 255.85 335.879 253.643C336.523 252.813 337.217 252.02 337.763 251.375V251.363Z" fill="white"/>
<path d="M324.576 190.524C325.865 190.772 327.104 191.007 328.356 191.243C329.248 191.404 329.781 191.987 330.116 192.78C330.835 194.478 330.81 196.164 330.165 197.887C329.521 199.585 328.257 200.577 326.522 200.788C324.588 201.023 322.754 200.552 321.503 198.965C321.056 198.395 320.895 197.441 320.945 196.685C321.118 194.094 322.395 192.086 324.564 190.536L324.576 190.524Z" fill="white"/>
<path d="M167.171 505.403C167.679 505.242 167.878 505.105 168.039 505.143C177.457 507.399 186.876 509.667 196.778 512.047C195.936 512.431 195.489 512.778 195.031 512.816C188.376 513.336 181.993 512.27 175.859 509.63C172.971 508.39 170.207 506.94 167.184 505.403H167.171Z" fill="#385077"/>
<path d="M93.1469 391.584C93.0601 391.77 92.9733 391.969 92.8866 392.155C92.9981 391.993 93.1221 391.82 93.2336 391.659L93.1469 391.572V391.584Z" fill="white"/>
<path d="M364.271 236.339C363.763 236.636 363.255 236.934 362.735 237.219C363.243 236.921 363.751 236.624 364.271 236.339Z" fill="white"/>
<path d="M162.474 407.141C163.28 406.571 163.924 406.063 164.618 405.629C166.465 404.451 168.646 404.761 169.885 406.509C170.554 407.451 170.976 408.579 171.509 409.62C174.309 415.012 177.916 419.71 183.047 423.119C185.129 424.508 187.397 425.437 189.764 426.132C192.812 427.036 195.812 426.516 198.786 425.698C201.983 424.818 204.92 423.355 207.659 421.495C209.605 420.182 211.526 418.83 213.472 417.516C214.364 416.921 215.294 416.686 216.434 416.674C218.293 416.674 219.606 417.293 220.499 418.88C220.784 419.388 221.106 419.872 221.49 420.491C221.131 421.322 220.895 422.264 220.375 423.008C218.367 425.921 216.087 428.573 213.026 430.482C207.659 433.829 202.008 436.11 195.539 436.222C190.904 436.296 186.74 434.982 182.786 432.8C174.495 428.239 168.435 421.557 164.283 413.091C163.403 411.294 162.734 409.434 162.486 407.116L162.474 407.141Z" fill="#3D3D3D"/>
<path d="M264.767 407.823C264.172 412.57 263.094 417.318 260.231 421.508C258.781 423.628 256.736 424.966 254.431 425.871C251.779 426.925 249.759 426.293 247.888 424.049C246.239 422.078 244.455 420.169 243.984 417.504C243.736 416.14 243.55 414.74 243.538 413.351C243.538 411.839 243.761 410.327 243.909 408.802C243.947 408.455 244.009 408.108 244.071 407.761C244.43 405.901 248.309 399.381 249.747 398.191C250.416 397.633 255.063 395.737 255.869 395.799C258.546 395.997 260.863 396.927 262.412 399.257C264.098 401.786 264.42 404.699 264.767 407.81V407.823Z" fill="#3D3D3D"/>
<path d="M147.02 383.589C147.045 389.539 144.504 394.163 139.683 397.547C138.208 398.588 136.473 399.059 134.689 398.96C133.685 398.898 132.47 398.724 131.739 398.129C128.827 395.737 126.162 393.059 125.431 389.13C125.196 387.89 125.047 386.527 125.319 385.324C125.902 382.709 126.683 380.118 127.563 377.589C128.48 374.924 130.289 372.978 132.954 371.925C133.276 371.801 133.623 371.689 133.908 371.503C136.04 370.053 138.171 370.078 140.575 370.958C142.992 371.85 144.467 373.511 145.396 375.73C146.437 378.234 147.057 380.85 147.02 383.589Z" fill="#3D3D3D"/>
<path d="M571.15 439.618C571.224 443.51 570.791 447.477 569.613 451.332C568.808 453.948 567.618 456.353 565.66 458.311C563.33 460.642 560.802 460.902 558.026 459.166C555.225 457.419 553.415 455.101 552.387 451.853C551.024 447.576 551.123 443.263 551.284 438.949C551.495 433.532 552.734 428.251 554.494 423.119C555.225 420.975 556.39 419.091 558.447 417.913C561.149 416.364 563.987 416.735 566.081 419.016C566.627 419.611 567.073 420.318 567.482 421.024C568.795 423.28 569.551 425.747 570.072 428.301C570.815 431.995 571.237 435.726 571.15 439.631V439.618ZM562.215 425.053C560.851 425.896 560.69 426.962 560.393 427.929C559.277 431.536 558.707 435.255 558.472 438.998C558.261 442.271 558.398 445.556 558.435 448.841C558.447 450.105 558.72 451.332 559.674 452.423C561.186 451.481 561.434 450.031 561.744 448.742C563.627 441.007 564.136 433.234 562.202 425.041L562.215 425.053Z" fill="#3D3D3D"/>
<path d="M404.834 510.398C404.685 515.096 404.413 519.299 403.062 523.352C402.231 525.831 401.066 528.1 399.195 529.971C396.803 532.351 394.486 532.55 391.598 530.777C388.661 528.98 386.864 526.513 385.86 523.141C384.596 518.865 384.571 514.563 384.831 510.262C385.129 505.341 386.182 500.519 387.657 495.809C388.227 493.999 389.045 492.35 390.297 490.887C391.338 489.685 392.689 488.904 394.126 488.557C396.06 488.086 397.844 488.954 399.245 490.255C400.087 491.024 400.719 492.065 401.277 493.081C403.186 496.527 403.83 500.358 404.326 504.201C404.611 506.407 404.685 508.638 404.809 510.386L404.834 510.398ZM393.284 524.158C397.002 519.621 398.216 504.634 395.576 496.726C394.287 497.507 394.176 498.858 393.841 500.036C392.329 505.49 391.772 511.08 391.759 516.72C391.759 518.58 392.057 520.451 392.342 522.298C392.441 522.918 392.924 523.488 393.271 524.145L393.284 524.158Z" fill="#3D3D3D"/>
<path d="M402.058 217.187C405.813 217.113 408.589 217.968 411.179 219.431C413.757 220.894 415.901 222.914 417.735 225.207C419.52 227.426 420.09 230.029 419.52 232.831C418.008 240.206 412.456 244.148 405.677 244.681C402.108 244.966 398.65 244.185 395.44 242.661C393.99 241.967 392.577 241 391.437 239.859C385.984 234.38 386.765 225.815 393.023 221.179C393.68 220.695 394.424 220.299 395.019 219.753C397.237 217.708 399.889 217.039 402.07 217.187H402.058ZM401.649 224.96C399.79 224.253 398.898 225.294 398.117 226.596C397.126 228.257 396.605 230.067 396.766 231.988C397.088 235.744 398.985 237.355 402.802 237.405C403.942 237.417 405.132 237.033 406.21 236.624C409.407 235.384 410.114 233.736 408.973 230.538C408.812 230.091 408.651 229.645 408.428 229.236C406.929 226.546 405.193 224.191 401.661 224.96H401.649Z" fill="#3D3D3D"/>
<path d="M406.321 190.239C407.461 191.702 408.639 193.04 410.386 193.896C412.803 195.086 414.191 197.342 415.43 199.623C416.261 201.147 416.087 202.845 415.653 204.445C414.501 208.721 411.911 212.031 408.143 214.262C403.905 216.778 399.381 217.386 394.647 215.514C392.676 214.733 390.718 214.002 389.033 212.663C385.377 209.75 384.212 206.254 385.687 201.333C386.901 197.255 389.529 194.23 393.532 192.334C397.373 190.524 401.203 189.483 405.429 190.474C405.739 190.549 406.111 190.4 406.445 190.35L406.334 190.227L406.321 190.239ZM402.008 196.734C398.018 196.92 395.713 198.953 394.535 202.387C393.222 206.23 394.573 208.411 398.563 208.647C402.194 208.857 405.689 207.209 405.305 202.139C405.206 200.813 404.896 199.61 403.855 198.668C403.248 198.123 402.727 197.49 402.021 196.734H402.008Z" fill="#3D3D3D"/>
<path d="M378.908 250.557C378.97 252.268 378.499 252.949 377.52 253.383C372.674 255.478 366.316 251.326 366.527 246.119C366.626 243.863 367.717 242.128 369.799 241.111C371.149 240.454 373.814 240.925 375.004 242.103C377.544 244.607 378.635 247.743 378.908 250.569V250.557Z" fill="white"/>
<path d="M562.215 425.053C564.148 433.247 563.64 441.019 561.756 448.754C561.446 450.043 561.186 451.494 559.686 452.436C558.732 451.345 558.459 450.118 558.447 448.853C558.41 445.568 558.274 442.283 558.484 439.011C558.72 435.267 559.29 431.549 560.405 427.941C560.703 426.975 560.864 425.909 562.227 425.066L562.215 425.053Z" fill="white"/>
<path d="M393.284 524.158C392.937 523.501 392.441 522.931 392.354 522.311C392.069 520.464 391.772 518.592 391.772 516.733C391.772 511.093 392.342 505.502 393.854 500.048C394.176 498.87 394.3 497.519 395.589 496.738C398.229 504.647 397.002 519.633 393.296 524.17L393.284 524.158Z" fill="white"/>
<path d="M401.649 224.96C405.181 224.191 406.916 226.546 408.416 229.236C408.639 229.645 408.812 230.092 408.961 230.538C410.101 233.736 409.395 235.372 406.197 236.624C405.119 237.046 403.929 237.43 402.789 237.405C398.985 237.355 397.076 235.756 396.754 231.988C396.593 230.067 397.113 228.269 398.105 226.596C398.885 225.294 399.778 224.253 401.637 224.96H401.649Z" fill="white"/>
<path d="M402.008 196.734C402.715 197.49 403.235 198.135 403.843 198.668C404.896 199.61 405.193 200.812 405.293 202.139C405.677 207.209 402.182 208.857 398.551 208.647C394.56 208.411 393.209 206.229 394.523 202.387C395.7 198.953 398.018 196.92 401.996 196.734H402.008Z" fill="white"/>
</g>
</g>
<defs>
<clipPath id="clip0_2095_2028">
<rect width="1006" height="714" fill="white"/>
</clipPath>
</defs>
</svg>
