<svg width="617" height="489" viewBox="0 0 617 489" fill="none" xmlns="http://www.w3.org/2000/svg">
<path d="M556.589 377.192C558.973 378.423 560.941 380.019 561.441 382.787C561.738 384.425 561.535 386.03 560.652 387.498C558.998 390.249 555.426 391.489 552.5 390.309C548.707 388.78 547.282 385.283 548.538 380.367C546.425 377.982 544.058 375.783 541.318 374.009C540.987 373.796 540.428 373.788 540.02 373.873C537.373 374.416 534.735 375.044 532.088 375.571C530.654 375.851 529.526 376.275 528.729 377.752C527.533 379.968 524.631 380.877 521.95 380.274C519.159 379.654 517.03 377.549 516.699 374.993C516.419 372.82 516.741 370.766 518.413 369.169C519.889 367.769 521.908 367.37 523.698 367.607C525.335 367.828 526.404 367.361 527.541 366.487C527.753 366.325 527.974 366.164 528.313 365.901C527.914 365.57 527.609 365.239 527.236 365.018C523.282 362.649 519.32 360.306 515.367 357.921C514.824 357.598 514.375 357.114 513.959 356.478C519.991 356.053 525.946 355.756 532.232 356.223C531.783 353.727 532.453 351.265 530.375 349.177C528.288 347.08 527.897 344.439 529.085 341.646C530.256 338.904 532.444 337.622 535.303 337.486C538.086 337.351 540.088 338.709 541.412 341.12C543.083 344.185 542.896 346.74 540.699 350.382C541.607 352.632 542.531 354.932 543.566 357.488C544.041 357.394 544.644 357.377 545.136 357.14C546.85 356.325 548.546 355.476 550.209 354.567C553.144 352.971 553.127 352.946 556.02 353.379C557.004 351.8 557.904 350.212 558.939 348.727C560.364 346.664 562.485 346.129 564.809 347.139C568.771 348.862 570.968 353.396 569.772 357.36C568.567 361.359 565.174 363.184 561.263 361.945C560.949 361.843 560.635 361.741 560.686 361.758C558.727 363.099 557.021 364.263 555.113 365.561C558.133 367.242 561.399 368.278 564.402 369.849C567.439 371.436 570.315 373.321 573.259 375.078C573.225 375.214 573.191 375.35 573.157 375.486C570.434 375.588 567.702 375.613 564.987 375.817C562.23 376.021 559.482 376.403 556.724 376.7C556.674 376.853 556.623 377.014 556.563 377.167L556.589 377.192ZM556.419 357.055C553.356 357.208 550.99 358.651 548.529 359.882C548.046 360.12 547.537 360.323 547.028 360.51C544.788 361.334 542.616 361.588 540.139 361.113C535.965 360.323 531.673 360.145 527.431 359.721C527.159 359.695 526.871 359.763 526.591 359.788C529.492 361.885 532.377 363.762 535.405 365.4C539.647 367.692 543.125 371.037 547.121 373.669C548.292 374.442 549.208 375.588 550.243 376.572C550.54 376.853 550.76 377.252 551.108 377.421C551.422 377.574 551.855 377.489 552.576 377.523C550.871 374.773 549.369 372.387 547.927 369.968C547.477 369.22 547.13 368.388 546.875 367.556C546.442 366.113 547.554 363.855 548.903 363.617C552.152 363.057 554.544 360.841 557.53 359.508C557.081 358.532 556.699 357.692 556.411 357.063L556.419 357.055ZM559.863 354.754C560.075 356.435 561.246 357.131 562.29 357.836C563.35 358.557 564.309 358.294 565.098 357.259C566.396 355.561 565.641 352.42 563.715 351.469C562.883 351.061 562.027 351.146 561.509 351.842C560.847 352.725 560.406 353.778 559.863 354.754ZM538.23 345.203C538.196 343.344 536.873 341.731 535.456 341.808C533.802 341.901 532.343 343.089 532.343 344.346C532.351 346.035 534.201 347.767 535.991 347.75C537.39 347.742 538.256 346.757 538.222 345.203H538.23ZM553.993 381.174C552.78 381.174 551.889 382.209 551.88 383.619C551.88 385.266 553.212 386.607 554.807 386.556C556.351 386.505 557.403 385.453 557.352 384.026C557.293 382.481 555.749 381.174 553.993 381.174ZM552.466 368.38C552.321 368.507 552.177 368.643 552.033 368.77C552.72 370.052 553.39 371.343 554.12 372.599C554.264 372.845 554.646 373.092 554.917 373.092C556.699 373.1 558.472 372.998 560.55 372.217C557.624 370.825 555.045 369.602 552.466 368.38ZM523.537 376.284C523.902 376.063 524.665 375.817 525.064 375.29C525.573 374.62 525.403 373.754 524.92 373.024C524.351 372.175 523.537 371.776 522.527 371.801C521.899 371.818 521.161 371.436 520.729 372.251C520.296 373.075 520.211 373.932 520.695 374.747C521.246 375.673 522.129 376.122 523.537 376.284ZM529.518 372.115C531.757 371.428 533.989 371.47 536.389 370.519C534.811 369.585 533.598 368.872 532.377 368.151C531.113 368.966 529.942 369.721 528.72 370.511C529 371.071 529.204 371.487 529.518 372.115ZM536.271 351.825C536.118 351.97 535.965 352.114 535.804 352.267C535.957 353.71 536.101 355.145 536.262 356.63H538.391C538.027 355.196 537.764 353.871 537.34 352.598C537.229 352.258 536.644 352.08 536.271 351.825Z" fill="#3D3D3D"/>
<path d="M475.189 346.052C475.791 344.762 476.326 343.616 476.852 342.47C476.996 342.164 477.047 341.799 477.234 341.527C478.515 339.668 478.956 337.809 478.133 335.508C477.547 333.861 478.099 332.002 478.837 330.364C480.534 326.62 484.852 325.38 488.211 327.723C493.692 331.544 492.148 339.261 487.668 341.069C486.896 341.383 486.464 341.859 486.26 342.64C485.963 343.743 485.615 344.83 485.251 346.044C487.159 346.044 488.89 346.137 490.612 346.027C493.989 345.806 497.365 345.458 500.741 345.22C501.208 345.186 501.963 345.416 502.116 345.747C502.328 346.197 502.26 346.952 502.006 347.394C501.692 347.954 501.106 348.404 500.555 348.778C497.866 350.611 495.151 352.403 492.445 354.202C492.054 354.457 491.656 354.695 491.087 355.051C492.283 355.807 493.463 356.087 494.625 356.045C497.908 355.926 501.564 359.22 502.031 363.456C502.362 366.436 500.674 368.949 497.823 369.874C494.744 370.876 491.732 369.874 490.375 367.005C489.535 365.23 488.347 364.899 486.481 365.001C487.227 371.784 485.675 377.846 481.009 382.906C477.878 386.301 474.001 388.458 469.471 389.307C460.233 391.039 451.079 386.556 446.735 378.313C443.07 371.351 442.493 359.797 453.166 351.078C452.759 350.722 452.36 350.382 451.978 350.034C448.839 347.164 448.194 342.47 450.451 338.879C452.173 336.145 456.144 335.007 459.511 336.298C461.794 337.172 463.388 338.777 464.228 341.052C464.568 341.969 465.068 342.393 466.035 342.682C468.173 343.31 470.26 344.142 472.356 344.915C473.229 345.237 474.095 345.602 475.181 346.035L475.189 346.052ZM483.452 368.575C483.477 358.6 475.528 350.594 465.56 350.56C455.634 350.526 447.55 358.541 447.516 368.465C447.482 378.364 455.558 386.497 465.441 386.514C475.367 386.539 483.427 378.517 483.452 368.584V368.575ZM482.672 355.781C486.311 353.651 489.942 351.52 493.793 349.261C491.147 349.032 478.565 350.314 477.505 350.84C479.236 352.496 480.983 354.168 482.672 355.781ZM456.669 340.424C454.922 340.398 454.04 341.086 453.649 342.775C453.038 345.407 454.947 348.226 457.662 348.599C457.993 348.642 458.527 348.285 458.714 347.963C459.147 347.215 459.376 346.358 459.783 345.594C461.013 343.251 459.342 340.458 456.669 340.415V340.424ZM481.806 334.201C481.84 335.975 483.214 337.546 484.716 337.512C486.141 337.478 487.304 336.103 487.321 334.413C487.337 332.766 486.039 331.068 484.708 331.026C483.087 330.966 481.772 332.401 481.806 334.201ZM495.354 360.383C493.081 362.14 492.64 363.541 493.751 365.222C494.387 366.181 495.533 366.512 496.593 366.037C497.56 365.612 498.095 364.611 497.815 363.532C497.467 362.174 496.754 361.07 495.346 360.374L495.354 360.383ZM489.509 361.503C489.976 360.646 490.349 359.967 490.85 359.058C489.535 358.804 488.415 358.676 487.346 358.354C486.141 357.98 485.276 358.235 484.623 359.339C485.514 361.962 487.804 360.884 489.509 361.503ZM482.409 341.383C482.213 341.315 482.027 341.239 481.832 341.171C481.085 342.954 480.339 344.745 479.558 346.621H480.992C481.484 344.813 481.942 343.098 482.409 341.383ZM463.889 346.918C464.899 347.606 465.696 347.317 466.493 347.198C465.806 346.706 465.161 346.035 463.889 346.918Z" fill="#3D3D3D"/>
<path d="M322.265 312.111C322.646 312.162 322.977 312.17 323.283 312.255C329.467 314.038 335.83 314.565 342.209 314.488C351.227 314.378 360.237 313.919 369.246 313.665C383.202 313.266 396.665 310.396 409.798 305.752C419.511 302.314 429.251 298.952 438.981 295.556C439.159 295.497 439.355 295.497 439.77 295.438C439.55 295.981 439.414 296.388 439.227 296.779C438.616 298.069 437.972 299.334 437.378 300.633C432.975 310.328 428.64 320.049 424.169 329.718C419.978 338.777 415.117 347.487 409.857 355.96C409.509 356.52 409.094 357.046 408.491 357.887C408.288 356.995 408.16 356.435 408.042 355.883C407.601 353.812 406.583 352.088 404.928 350.773C402.426 348.778 399.092 348.947 396.767 351.138C392.754 354.932 392.551 360.111 396.258 364.161C396.841 364.795 397.132 365.768 397.132 367.081C396.691 367.081 396.25 367.132 395.817 367.081C391.295 366.478 386.748 366.614 382.209 366.682C381.87 366.682 381.522 366.657 381.191 366.699C379.859 366.886 379.444 367.777 380.292 368.838C380.742 369.399 381.386 369.849 382.006 370.222C383.668 371.232 385.365 372.183 386.986 373.516C385.28 373.754 383.567 373.958 381.87 374.246C374.642 375.469 367.363 376.233 360.025 376.369C352.093 376.513 344.169 376.742 336.237 376.793C327.999 376.844 320.101 374.951 312.424 372.081C306.901 370.01 302.311 366.606 298.672 361.962C292.453 354.041 287.041 345.602 282.502 336.612C282.349 336.306 282.205 336.001 282.078 335.687C281.577 334.515 281.085 333.335 280.526 332.019C281.119 331.858 281.611 331.705 282.12 331.586C285.022 330.881 287.94 330.279 290.816 329.472C294.277 328.504 295.482 326.798 295.219 323.19C295.075 321.169 294.591 319.174 294.269 317.171C293.955 315.218 293.836 313.283 294.566 311.024C294.981 311.737 295.295 312.153 295.499 312.62C296.551 315.074 297.221 317.638 297.306 320.303C297.399 323.08 297.348 325.864 297.331 328.649C297.306 333.284 300.301 336.145 304.873 335.389C308.267 334.838 311.635 333.938 314.892 332.826C319.465 331.264 321.857 327.825 322.112 322.995C322.248 320.354 322.231 317.706 322.265 315.065C322.282 314.123 322.265 313.181 322.265 312.145V312.111Z" fill="#7F684C"/>
<path d="M350.659 132.548C350.947 137.888 351.312 143.219 351.499 148.559C351.932 161.039 352.144 173.519 352.695 185.99C353.119 195.609 353.874 205.219 354.578 214.821C355.537 227.742 356.597 240.654 357.599 253.575C357.845 256.742 357.997 259.917 358.209 263.347C357.42 263.398 356.776 263.44 356.131 263.483C346.239 264.077 336.339 263.78 326.438 263.585C321.696 263.491 316.945 263.678 312.203 263.721C310.583 263.738 308.971 263.721 307.266 263.721C303.287 250.842 296.169 240.646 283.987 234.372C284.428 233.752 284.708 233.311 285.039 232.912C290.748 226.001 296.008 218.777 300.589 211.051C303.974 205.338 307.86 199.93 311.49 194.352C313.857 190.71 316.173 187.043 318.472 183.358C328.729 166.888 338.969 150.41 349.217 133.94C349.539 133.431 349.904 132.947 350.243 132.455L350.667 132.531L350.659 132.548Z" fill="white"/>
<path d="M223.575 150.503C223.711 152.031 223.872 153.373 223.949 154.723C224.602 165.572 224.356 176.414 223.83 187.263C223.55 192.951 223.635 198.656 223.542 204.353C223.448 210.389 223.338 216.425 223.228 222.461C223.228 222.928 223.177 223.395 223.16 223.734C210.027 221.655 196.861 220.075 183.822 217.503C183.822 216.23 183.796 215.084 183.822 213.937C183.949 209.056 184.101 204.174 184.229 199.293C184.246 198.622 184.271 197.918 184.118 197.272C183.643 195.26 182.311 194.216 180.267 193.911C176.984 193.427 173.709 192.841 170.434 192.323C165.548 191.55 160.661 190.786 155.766 190.048C154.698 189.886 153.612 189.785 152.526 189.751C150.261 189.674 149.175 190.557 148.835 192.883C148.581 194.692 148.471 196.525 148.369 198.359C148.165 202.086 148.012 205.813 147.826 209.54C147.792 210.261 147.673 210.975 147.571 211.934C138.774 209.964 130.206 208.046 121.383 206.068C121.383 203.419 121.357 200.855 121.383 198.291C121.484 188.452 121.68 178.621 121.697 168.79C121.713 159.63 121.544 150.478 121.459 141.318C121.459 140.443 121.459 139.577 121.459 138.465C122.485 138.516 123.41 138.525 124.318 138.626C137.315 140.087 150.303 141.623 163.308 143.016C176.449 144.425 189.616 145.579 202.748 147.074C209.069 147.787 215.338 149.018 221.624 150.019C222.218 150.113 222.795 150.3 223.558 150.495L223.575 150.503ZM190.99 182.806C190.931 185.922 191.516 188.885 193.128 191.584C196.657 197.502 202.859 199.25 208.89 195.923C214.557 192.79 217.06 187.849 216.738 181.414C216.347 173.782 210.977 167.432 203.86 166.141C202.18 165.835 200.627 166.116 199.16 166.939C196.157 168.637 194.002 171.091 192.695 174.274C191.584 176.999 190.948 179.835 190.999 182.798L190.99 182.806ZM149.243 173.238C149.293 171.744 148.717 169.036 147.478 166.498C145.764 162.966 143.084 160.487 139.215 159.511C137.298 159.027 135.287 158.84 133.446 159.774C132.004 160.504 130.647 161.421 129.323 162.363C127.584 163.603 126.295 165.258 125.387 167.202C122.435 173.527 123.682 181.635 128.39 186.788C133.175 192.026 140.309 191.949 144.916 186.576C147.868 183.137 149.149 179.071 149.243 173.238Z" fill="#B2B0A1"/>
<path d="M309.361 290.132C310.472 290.267 311.592 290.378 312.704 290.539C316.665 291.108 320.602 291.889 324.581 292.22C328.144 292.517 331.758 292.398 335.346 292.356C338.528 292.322 341.709 292.008 344.89 292.033C355.961 292.127 367.015 291.736 377.942 289.894C388.58 288.103 399.041 285.488 409.272 282.024C416.339 279.63 423.236 276.845 430.006 273.679C438.201 269.841 446.888 267.396 455.796 265.792C457.891 265.41 459.987 265.529 462.048 266.055C465.747 266.997 468.139 269.332 468.945 273.042C470.099 278.382 469.929 283.705 467.961 288.867C466.663 292.262 464.279 294.639 460.988 296.185C456.076 298.494 451.308 298.366 446.574 295.667C445.191 294.877 444.563 293.782 444.538 292.203C444.453 287.254 448.856 282.797 453.709 283.017C454.37 283.051 455.066 283.187 455.677 283.433C457.017 283.985 457.628 285.165 457.263 286.574C456.831 288.23 455.965 289.554 454.124 289.953C453.403 290.115 452.699 290.344 451.961 290.548C452.063 290.726 452.097 290.904 452.173 290.921C454.778 291.498 457.238 290.921 459.231 289.325C461.904 287.177 461.378 282.763 458.392 280.7C456.11 279.129 453.531 278.959 450.969 279.621C446.09 280.895 442.706 283.9 441.314 288.85C441 289.953 440.5 290.539 439.414 290.913C426.986 295.208 414.65 299.793 402.129 303.808C392.432 306.915 382.455 308.919 372.207 309.276C364.479 309.539 356.767 310.006 349.039 310.337C342.863 310.6 336.687 310.413 330.561 309.573C327.813 309.199 325.124 308.452 322.4 307.917C321.586 307.756 321.357 307.23 321.153 306.525C320.636 304.768 320.135 303.002 319.473 301.304C317.616 296.567 314.57 292.891 309.717 290.947C309.539 290.879 309.395 290.726 309.234 290.615C309.276 290.454 309.319 290.293 309.361 290.132Z" fill="#E5BE88"/>
<path d="M269.438 138.312C269.819 161.268 270.201 183.961 270.583 206.9C256.492 212.367 241.713 216.213 227.537 222.495C227.469 221.748 227.376 221.188 227.385 220.627C227.444 215.949 227.495 211.272 227.614 206.594C227.851 196.627 228.14 186.66 228.386 176.694C228.589 168.213 228.479 159.74 227.631 151.284C227.597 150.953 227.58 150.622 227.554 150.198C229.76 148.907 232.203 148.313 234.587 147.651C244.895 144.781 255.228 141.971 265.552 139.161C266.774 138.83 268.029 138.618 269.454 138.304L269.438 138.312Z" fill="#868478"/>
<path d="M147.088 215.805C169.357 220.008 191.694 222.503 213.828 226.561C214.32 253.83 212.946 280.784 212.852 307.883C212.53 307.9 212.199 308.002 211.919 307.917C204.75 305.786 197.37 304.691 190.048 303.256C181.777 301.635 173.752 299.19 165.879 296.176C161.069 294.334 156.14 292.814 151.33 290.972C149.921 290.437 148.7 289.359 147.495 288.4C147.173 288.145 147.139 287.423 147.105 286.914C146.435 276.073 146.155 265.223 146.324 254.365C146.494 243.167 146.604 231.978 146.765 220.78C146.791 219.176 146.969 217.563 147.088 215.805ZM201.026 262.532C200.933 262.532 200.831 262.532 200.738 262.532C200.738 256.224 200.738 249.916 200.729 243.609C200.729 242.87 200.67 242.114 200.5 241.393C200.169 239.975 199.525 239.525 198.04 239.517C197.641 239.517 197.217 239.584 196.835 239.5C194.587 239.033 192.339 238.54 190.099 238.031C185.476 236.97 180.886 235.773 176.229 234.864C171.444 233.93 166.608 233.26 161.798 232.504C159.991 232.216 159.016 233.413 158.32 234.762C157.828 235.705 157.506 236.8 157.37 237.853C156.861 241.885 156.182 245.918 156.08 249.967C155.894 256.946 156.021 263.933 156.14 270.911C156.199 274.298 156.581 277.677 156.734 281.056C156.861 283.807 158.278 285.598 160.636 286.787C161.238 287.092 161.841 287.432 162.477 287.644C167.033 289.189 171.529 290.946 176.161 292.16C181.658 293.604 187.249 294.716 192.84 295.701C196.657 296.371 198.608 294.733 199.194 290.93C199.533 288.722 199.94 286.506 200.059 284.282C200.449 277.041 200.721 269.79 201.043 262.54L201.026 262.532Z" fill="#B2B0A1"/>
<path d="M355.512 133.711C355.698 134.059 355.902 134.39 356.055 134.747C358.71 140.919 361.094 147.175 363.003 153.628C365.276 161.294 367.965 168.832 370.383 176.464C373.14 185.192 375.787 193.953 378.494 202.697C383.915 220.16 391.287 236.851 398.633 253.55C399.278 255.027 399.711 256.598 400.211 258.134C400.585 259.289 400.899 260.469 401.314 261.895C400.474 262.014 399.643 262.201 398.812 262.218C396.029 262.286 393.246 262.252 390.472 262.337C381.997 262.574 373.531 262.846 365.056 263.101C364.385 263.118 363.715 263.101 362.85 263.101C362.74 262.209 362.587 261.36 362.527 260.503C362.078 253.669 361.705 246.826 361.196 239.992C360.678 233.158 359.982 226.341 359.448 219.515C358.752 210.728 358.014 201.933 357.522 193.13C357.081 185.141 356.996 177.127 356.674 169.129C356.224 157.949 355.69 146.768 355.198 135.587C355.172 134.984 355.198 134.373 355.198 133.77L355.512 133.711Z" fill="white"/>
<path d="M217.187 307.892C217.187 306.618 217.187 305.88 217.187 305.141C217.069 295.03 217.45 284.927 217.773 274.816C218.078 265.257 217.841 255.681 217.849 246.113C217.849 240.34 217.875 234.576 217.9 228.803C217.9 228.48 217.968 228.149 218.027 227.657C219.715 227.86 221.319 227.996 222.897 228.268C225.052 228.641 227.062 228.268 229.047 227.427C230.795 226.689 232.576 226.027 234.358 225.373C235.512 224.948 236.649 224.566 237.438 223.514C237.701 223.166 238.193 222.945 238.625 222.792C245.734 220.33 252.852 217.894 259.97 215.457C260.089 215.415 260.233 215.457 260.521 215.457V226.587C259.045 226.57 257.764 226.383 256.466 225.942C255.694 225.679 254.702 225.594 253.938 225.84C244.547 228.854 236.852 239.754 237.115 249.594C237.285 256.037 241.196 264.765 250.324 267.269C252.598 267.889 254.786 268.797 257.035 269.578V286.931C243.944 293.816 230.77 300.752 217.187 307.9V307.892Z" fill="#868478"/>
<path d="M292.581 129.942C292.377 129.432 292.216 129.135 292.131 128.812C289.874 120.569 287.618 112.326 285.378 104.082C284.971 102.58 284.598 101.06 284.343 99.5234C284.08 97.9189 284.309 97.5963 285.734 97.0359C289.484 95.5672 293.336 95.0664 297.306 96.0087C300.47 96.7558 303.626 97.5623 306.799 98.2924C312.381 99.5828 317.836 99.0734 323.206 97.1548C326.396 96.0172 329.594 94.8881 332.844 93.9203C337.713 92.4685 342.608 92.4346 347.435 94.1834C348.631 94.6164 349.76 95.2192 350.939 95.754C350.888 96.2125 350.922 96.5011 350.82 96.7218C349.607 99.3112 349.395 102.053 349.429 104.872C349.48 109.541 349.446 114.219 349.446 119.058C349.005 119.058 348.691 119.1 348.394 119.058C344.754 118.498 341.353 119.245 338.214 121.07C336.288 122.191 334.379 123.413 332.665 124.831C328.05 128.643 322.977 129.712 317.251 127.972C314.069 127.013 310.863 126.189 307.486 126.206C303.618 126.223 299.987 127.233 296.39 128.498C295.177 128.923 293.989 129.415 292.589 129.95L292.581 129.942Z" fill="#FF8BAD"/>
<path d="M189.378 127.785C189.378 128.931 189.353 130.069 189.387 131.207C189.412 131.945 189.429 132.709 189.616 133.422C189.845 134.263 190.447 134.815 191.389 134.832C192.322 134.857 192.992 134.365 193.23 133.516C193.467 132.684 193.518 131.784 193.578 130.918C193.637 130.052 193.586 129.177 193.586 128.023C195.503 128.184 197.234 128.227 198.939 128.481C209.204 130.026 219.554 130.68 229.879 131.614C239.533 132.488 249.145 133.745 258.638 135.731C258.943 135.791 259.223 135.961 259.707 136.164C254.227 137.811 248.992 139.382 243.758 140.953C238.829 142.43 233.798 143.635 228.996 145.452C226.112 146.547 223.533 146.7 220.589 146.012C206.965 142.837 193.12 141.182 179.181 140.036C167.703 139.093 156.25 137.752 144.789 136.623C141.014 136.249 137.221 136.003 133.446 135.664C131.86 135.519 130.282 135.281 128.704 135.078L128.687 134.67C129.154 134.483 129.595 134.237 130.078 134.11C136.305 132.48 142.532 130.858 148.759 129.245C150.795 128.719 152.831 128.218 154.876 127.734C158.04 126.996 161.204 126.283 164.369 125.569C164.632 125.51 164.912 125.518 165.175 125.535C173.064 126.172 180.997 126.316 188.835 127.59C188.903 127.598 188.963 127.632 189.37 127.785H189.378Z" fill="#656352"/>
<path d="M165.158 300.777C172.131 302.908 178.85 304.963 185.713 307.068C186.333 318.588 187.597 330.253 187.02 342.308C179.766 340.466 172.708 338.675 165.37 336.807C165.141 324.913 165.387 312.867 165.158 300.777Z" fill="#868478"/>
<path d="M234.926 345.636C234.859 346.995 234.799 347.98 234.748 348.956C234.604 352.199 234.417 355.442 234.35 358.685C234.299 360.986 234.282 363.235 233.23 365.409C232.746 366.394 232.229 367.098 231.27 367.565C226.884 369.687 222.591 372.031 218.104 373.915C212.038 376.462 206.023 379.068 200.263 382.261C198.803 383.067 197.234 383.695 195.512 384.51C195.045 378.304 194.604 372.379 194.163 366.572C201.204 363.184 208.093 360.026 214.829 356.571C221.497 353.15 228.004 349.414 234.909 345.636H234.926Z" fill="#868478"/>
<path d="M252.173 385.359C254.031 386.157 255.796 387.006 257.62 387.694C262.999 389.723 268.682 390.309 274.333 390.996C281.264 391.837 288.135 390.903 294.99 389.986C296.729 389.757 298.451 389.417 300.335 389.103C300.394 389.689 300.53 390.198 300.487 390.708C300.25 393.951 299.944 397.185 299.732 400.428C299.664 401.387 299.198 401.837 298.383 402.228C295.278 403.722 291.944 404.308 288.593 404.817C285.717 405.25 282.825 405.675 279.915 405.861C270.803 406.447 262.337 404.13 254.303 399.944C252.674 399.095 251.86 397.839 251.851 396.098C251.834 392.779 251.91 389.451 251.961 386.132C251.961 385.885 252.097 385.639 252.173 385.368V385.359Z" fill="#97FFEF"/>
<path d="M143.007 287.916C137.629 290.199 134.702 294.266 133.472 299.572C132.742 302.722 133.141 305.914 133.904 309.046C134.252 310.464 134.524 311.907 134.897 313.648C133.582 313.478 132.598 313.384 131.622 313.215C127.923 312.586 124.386 311.483 121.069 309.675C119.101 308.596 117.896 307.111 117.37 304.878C116.055 299.266 115.198 293.629 116.997 288.001C117.862 285.309 119.126 282.729 120.365 280.173C121.103 278.645 122.273 277.389 123.673 276.446C125.565 277.745 127.279 279.222 129.247 280.182C131.291 281.183 133.54 281.897 135.771 282.33C137.943 282.746 140.208 282.652 142.6 282.788C143.219 284.35 142.863 286.107 142.999 287.899L143.007 287.916Z" fill="#B2B0A1"/>
<path d="M298.96 256.088C298.069 257.489 297.331 258.966 296.305 260.197C290.587 267.082 283.69 272.21 274.808 274.281C273.399 274.612 272.254 274.519 271.134 273.356C269.93 272.1 268.496 271.013 267.028 270.071C265.959 269.383 265.739 268.576 265.985 267.507C266.197 266.59 266.434 265.664 266.782 264.782C268.971 259.221 272.475 254.653 277.319 251.156C280.347 248.974 283.673 247.497 287.482 247.59C291.817 247.7 295.389 249.254 297.484 253.329C297.942 254.229 298.434 255.112 298.952 256.088H298.96Z" fill="#65635A"/>
<path d="M290.918 301.601C296.865 301.143 302.235 299.64 306.129 294.852C309.31 295.607 311.635 297.314 313.365 299.895C315.045 302.416 315.987 305.243 316.648 308.163C317.768 313.096 317.836 318.088 317.353 323.122C317.098 325.737 315.775 327.477 313.416 328.267C310.532 329.226 307.58 330.016 304.61 330.652C302.651 331.068 302.125 330.389 302.091 328.369C302.031 324.65 302.057 320.915 301.743 317.213C301.48 314.089 300.309 311.16 298.782 308.41C297.009 305.218 294.54 302.824 290.918 301.61V301.601Z" fill="#B2B0A1"/>
<path d="M287.694 242.904C286.43 243.057 285.149 243.125 283.902 243.379C280.67 244.042 277.709 245.383 275.062 247.336C268.572 252.124 264.008 258.253 262.142 266.225C262.099 266.403 261.955 266.564 261.785 266.879C260.301 266.225 258.833 265.571 257.365 264.943C256.678 264.654 255.991 264.315 255.27 264.17C253.217 263.754 252.555 262.277 252.496 260.477C252.335 255.418 253.429 250.663 256.059 246.283C260.318 239.194 266.884 236.605 274.782 236.622C275.427 236.622 276.097 236.902 276.716 237.14C278.727 237.921 280.695 238.761 282.791 239.372C284.648 239.916 286.243 241.367 287.957 242.42C287.872 242.581 287.787 242.743 287.703 242.904H287.694Z" fill="#65635A"/>
<path d="M191.126 384.536C187.571 383.517 184.348 382.524 181.09 381.666C177.035 380.596 172.963 379.603 168.874 378.652C167.677 378.372 167.168 377.786 167.168 376.572C167.168 371.156 167.126 365.74 167.109 360.323C167.109 360.136 167.211 359.95 167.321 359.576C174.88 361.69 182.413 363.796 189.989 365.909C190.362 372.03 190.727 378.151 191.117 384.536H191.126Z" fill="#B2B0A1"/>
<path d="M275.478 278.229C286.26 275.886 294.396 269.79 301.166 261.301C301.395 261.785 301.692 262.209 301.794 262.676C302.583 266.386 303.363 270.096 304.076 273.823C304.169 274.307 303.999 274.893 303.821 275.376C301.794 280.997 297.484 284.002 291.97 285.522C289.187 286.286 286.303 286.243 283.478 285.827C280.788 285.428 278.413 284.392 277.319 281.514C276.895 280.402 276.148 279.426 275.469 278.229H275.478Z" fill="#65635A"/>
<path d="M144.56 351.919C150.999 354.117 157.014 356.18 163.054 358.243V376.946C157.234 375.426 151.728 373.881 146.367 371.759C145.764 365.154 145.179 358.685 144.56 351.91V351.919Z" fill="#B2B0A1"/>
<path d="M212.555 352.98C210.74 353.897 209.136 354.746 207.508 355.535C203.308 357.573 199.075 359.551 194.893 361.622C193.841 362.14 192.95 362.149 191.822 361.826C185.383 359.984 178.91 358.26 172.454 356.486C171.877 356.325 171.317 356.129 170.333 355.815C171.317 355.45 171.919 355.23 172.521 355.009C178.74 352.717 184.958 350.416 191.185 348.166C191.847 347.929 192.661 347.776 193.323 347.937C199.44 349.397 205.539 350.925 211.639 352.445C211.877 352.504 212.08 352.7 212.555 352.98Z" fill="#656352"/>
<path d="M299.698 383.763C299.452 384.731 298.689 384.731 298.061 384.85C291.52 386.03 284.945 387.1 278.286 386.887C271.643 386.675 265.06 385.733 258.714 383.61C256.882 382.999 255.066 382.286 253.327 380.724C254.26 380.418 254.931 380.164 255.618 379.968C263.796 377.659 272.152 377.175 280.585 377.574C286.922 377.871 292.835 379.68 298.4 382.702C298.757 382.897 299.104 383.109 299.435 383.339C299.537 383.407 299.58 383.559 299.707 383.763H299.698Z" fill="#FF8BAD"/>
<path d="M248.492 261.683C246.388 260.622 245.166 259.263 244.148 257.744C241.832 254.271 240.822 250.417 241.679 246.317C243.113 239.474 246.778 234.143 252.962 230.662C253.717 230.237 254.371 230.153 255.253 230.365C258.477 231.146 261.734 231.791 264.975 232.496C265.298 232.564 265.603 232.674 266.002 232.954C262.277 234.457 258.697 236.155 255.957 239.126C253.166 242.148 250.994 245.561 249.798 249.534C248.644 253.38 248.135 257.311 248.5 261.683H248.492Z" fill="#65635A"/>
<path d="M274.188 328.054C274.129 327.299 274.019 326.764 274.061 326.246C274.29 323.623 274.29 320.932 274.875 318.385C276.046 313.249 279.049 309.343 283.817 306.958C286.031 305.854 288.339 305.744 290.757 306.881C290.519 307.645 290.29 308.333 290.078 309.029C289.111 312.213 289.077 315.422 289.747 318.665C290.061 320.185 290.29 321.73 290.528 323.266C290.655 324.098 290.4 324.735 289.501 324.964C284.538 326.246 279.592 327.664 274.197 328.054H274.188Z" fill="#65635A"/>
<path d="M148.513 348.472C151.482 347.182 154.426 345.874 157.387 344.626C159.321 343.811 161.281 343.073 163.232 342.309C163.546 342.181 163.953 342.156 164.165 341.935C165.497 340.585 166.948 341.069 168.466 341.502C173.081 342.818 177.722 344.074 182.345 345.356C182.897 345.509 183.44 345.704 184.424 346.01C183.016 346.604 182.057 347.063 181.056 347.419C176.729 348.981 172.394 350.526 168.051 352.038C166.473 352.589 164.861 353.048 163.257 353.506C162.96 353.591 162.579 353.532 162.273 353.43C157.777 351.944 153.289 350.442 148.801 348.939C148.708 348.905 148.666 348.735 148.505 348.48L148.513 348.472Z" fill="#656352"/>
<path d="M142.15 255.647V268.228C138.698 268.568 135.355 268.5 132.352 266.938C130.867 266.165 129.595 264.731 128.611 263.321C127.338 261.505 126.439 259.433 125.412 257.447C125.234 257.107 125.175 256.666 125.192 256.275C125.344 253.499 125.523 250.731 125.718 247.955C125.726 247.768 125.879 247.599 126.099 247.149C129.968 252.82 135.482 255.265 142.142 255.647H142.15Z" fill="#65635A"/>
<path d="M130.104 227.394C130.994 230.238 132.471 232.699 134.575 234.754C136.704 236.851 139.359 237.997 142.193 238.88V251.02C137.764 250.918 133.964 249.696 130.927 246.521C130.553 246.13 130.214 245.697 129.883 245.273C127.533 242.284 125.998 239.177 127.474 235.195C128.398 232.699 128.882 230.042 129.569 227.461C129.747 227.436 129.926 227.41 130.104 227.385V227.394Z" fill="#65635A"/>
<path d="M169.773 196.856C169.612 203.079 169.459 209.226 169.289 215.678C165.896 215.169 162.774 214.702 159.355 214.192C159.626 207.952 159.898 201.814 160.161 195.71C161.552 195.328 166.634 195.94 169.773 196.856Z" fill="white"/>
<path d="M276.097 290.098C273.985 292.118 272.093 293.935 270.031 295.921C266.468 294.767 262.888 293.094 259.147 291.091C260.912 290.267 261.59 289.053 261.573 287.406C261.573 287.092 261.768 286.761 261.938 286.473C263.813 283.255 265.756 280.08 268.352 277.092C272.195 280.793 274.553 285.259 276.097 290.098Z" fill="#E5BE88"/>
<path d="M280.61 289.342C290.095 291.278 298.29 289.648 305.145 282.482C305.705 285.598 305.145 288.052 303.575 290.327C300.131 295.293 295.177 296.94 289.433 296.669C287.779 296.592 286.116 296.091 284.53 295.565C283.13 295.106 282.154 294.062 281.747 292.551C281.484 291.583 281.085 290.649 280.619 289.342H280.61Z" fill="#65635A"/>
<path d="M414.489 385.232C410.239 382.659 406.15 380.164 402.027 377.71C397.972 375.291 393.891 372.922 389.836 370.265C391.728 370.435 393.62 370.57 395.512 370.774C399.346 371.182 403.181 371.64 407.015 372.014C407.804 372.09 408.653 372.048 409.408 371.818C412.25 370.952 415.066 369.985 417.9 369.085C418.052 369.034 418.264 369.178 418.485 369.246C418.451 370.188 417.611 370.409 417.102 370.876C415.355 372.472 413.522 373.975 411.842 375.647C410.527 376.954 410.595 377.413 411.427 379.043C412.453 381.063 413.437 383.109 414.489 385.24V385.232Z" fill="#97FFEF"/>
<path d="M142.371 233.854C137.934 233.192 134.439 229.397 134.439 225.169C134.439 222.741 134.659 220.305 134.838 217.877C134.973 216.069 136.602 215.457 137.705 214.413C138.511 213.657 139.308 213.955 140.165 214.167C141.073 214.388 141.989 214.583 143.007 214.812C142.795 221.222 142.583 227.529 142.362 233.846L142.371 233.854Z" fill="#65635A"/>
<path d="M173.539 197.578C174.252 197.578 174.719 197.519 175.168 197.587C176.763 197.824 178.35 198.104 180.055 198.393C179.817 204.573 179.588 210.635 179.342 216.968C177.255 216.688 175.363 216.442 173.539 216.196V197.578Z" fill="white"/>
<path d="M277.667 294.792C279.346 298.63 282.697 300.03 286.54 301.185C278.235 303.087 273.739 308.664 270.795 316.016C268.929 309.564 271.397 298.918 277.667 294.792Z" fill="#868478"/>
<path d="M142.252 272.719C142.362 274.477 142.473 276.2 142.591 278.008C140.683 278.509 138.944 278.458 137.213 278.263C134.193 277.923 131.427 276.896 129.001 275.071C126.074 272.872 124.954 270.198 125.285 266.352C126.846 267.736 128.288 269.213 129.934 270.41C131.656 271.667 133.777 272.074 135.864 272.303C137.934 272.532 140.012 272.583 142.261 272.719H142.252Z" fill="#65635A"/>
<path d="M148.352 303.129C144.653 302.161 141.336 301.295 137.739 300.344C138.731 297.101 140.267 294.376 143.296 292.738C144.492 292.093 146.231 292.874 146.765 294.274C147.164 295.336 147.41 296.482 147.605 297.602C147.894 299.317 148.08 301.058 148.36 303.121L148.352 303.129Z" fill="#65635A"/>
<path d="M153.069 193.877C154.392 194.106 155.368 194.276 156.377 194.446C156.046 200.762 155.716 206.951 155.376 213.42C154.163 213.174 153.077 212.953 151.881 212.715C152.271 206.458 152.653 200.329 153.06 193.877H153.069Z" fill="white"/>
<path d="M429.963 386.395C426.782 386.599 423.643 387.524 420.445 386.853C418.833 384.391 417.255 381.997 415.677 379.603C415.762 379.518 415.847 379.425 415.931 379.34C420.631 381.556 425.323 383.78 430.023 385.996L429.955 386.403L429.963 386.395Z" fill="#97FFEF"/>
<path d="M404.063 357.734C403.783 358.574 403.647 359.398 403.249 360.077C402.018 362.174 399.626 362.132 398.413 360.035C397.471 358.413 397.531 356.41 398.549 355.068C399.931 353.243 402.061 353.302 403.181 355.281C403.605 356.019 403.766 356.902 404.054 357.743L404.063 357.734Z" fill="#97FFEF"/>
<path d="M422.336 366.368C422.311 365.247 423.584 364.407 425.323 364.39C427.087 364.381 428.436 365.426 428.462 366.852C428.496 368.372 427.104 370.146 425.806 370.231C424.237 370.341 422.387 368.278 422.336 366.368Z" fill="#97FFEF"/>
<path d="M152.891 304.105C152.602 301.457 152.322 298.808 152 295.862C153.663 296.439 155.139 296.949 156.589 297.458C156.36 301.525 155.122 303.757 152.891 304.114V304.105Z" fill="#868478"/>
<path d="M416.576 389.468C417.62 390.029 418.595 390.563 419.588 391.081C420.809 391.726 421.293 392.618 420.988 393.671C420.691 394.698 419.656 395.411 418.51 395.377C417.195 395.343 415.889 394.155 415.414 392.567C414.998 391.166 415.321 390.36 416.576 389.468Z" fill="#97FFEF"/>
<path d="M400.305 380.469C401.416 381.08 402.697 381.785 403.978 382.49C403.961 382.626 403.953 382.753 403.936 382.889C400.194 383.347 396.462 383.797 392.72 384.256C392.67 384.145 392.619 384.035 392.576 383.925C393.806 383.364 395.028 382.804 396.267 382.252C397.548 381.683 398.846 381.123 400.313 380.478L400.305 380.469Z" fill="#97FFEF"/>
<path d="M388.258 386.692C388.258 388.093 387.596 388.933 386.485 388.959C385.119 388.984 383.821 387.634 383.813 386.174C383.804 384.739 384.704 383.653 385.9 383.653C387.198 383.653 388.267 385.02 388.267 386.692H388.258Z" fill="#97FFEF"/>
<path d="M404.572 368.227C403.291 368.015 402.468 367.879 401.535 367.735C401.501 367.157 401.467 366.656 401.425 366.037C402.103 365.85 402.714 365.68 403.495 365.459C403.825 366.308 404.122 367.081 404.58 368.236L404.572 368.227Z" fill="#97FFEF"/>
<path d="M556.419 357.055C556.707 357.692 557.089 358.524 557.539 359.5C554.553 360.833 552.16 363.04 548.911 363.609C547.562 363.847 546.442 366.096 546.883 367.548C547.138 368.38 547.486 369.212 547.935 369.959C549.378 372.379 550.888 374.756 552.584 377.515C551.855 377.481 551.431 377.566 551.117 377.413C550.777 377.243 550.548 376.844 550.251 376.564C549.225 375.579 548.3 374.433 547.13 373.661C543.134 371.029 539.655 367.684 535.414 365.392C532.385 363.762 529.492 361.885 526.599 359.78C526.879 359.755 527.168 359.687 527.439 359.712C531.681 360.137 535.974 360.315 540.148 361.104C542.625 361.571 544.797 361.325 547.036 360.502C547.545 360.315 548.054 360.12 548.538 359.873C550.99 358.642 553.365 357.199 556.427 357.046L556.419 357.055Z" fill="#ECFFB1"/>
<path d="M559.863 354.754C560.398 353.778 560.847 352.725 561.509 351.842C562.027 351.146 562.883 351.061 563.715 351.469C565.649 352.42 566.404 355.561 565.098 357.259C564.3 358.294 563.35 358.558 562.29 357.836C561.246 357.131 560.075 356.435 559.863 354.754Z" fill="#ECFFB1"/>
<path d="M538.23 345.203C538.264 346.757 537.399 347.742 535.999 347.75C534.218 347.767 532.36 346.035 532.351 344.346C532.351 343.098 533.81 341.901 535.465 341.808C536.881 341.731 538.196 343.344 538.239 345.203H538.23Z" fill="#ECFFB1"/>
<path d="M553.993 381.174C555.749 381.174 557.284 382.473 557.352 384.026C557.412 385.453 556.351 386.514 554.807 386.556C553.212 386.607 551.88 385.266 551.88 383.619C551.88 382.21 552.78 381.182 553.993 381.174Z" fill="#ECFFB1"/>
<path d="M552.466 368.38C555.045 369.602 557.624 370.833 560.55 372.217C558.472 372.998 556.699 373.1 554.917 373.092C554.646 373.092 554.264 372.845 554.12 372.599C553.39 371.343 552.72 370.044 552.033 368.77C552.177 368.643 552.321 368.507 552.466 368.38Z" fill="#ECFFB1"/>
<path d="M523.537 376.284C522.128 376.123 521.246 375.681 520.695 374.747C520.211 373.932 520.296 373.075 520.729 372.251C521.153 371.436 521.891 371.818 522.527 371.801C523.545 371.776 524.351 372.183 524.92 373.024C525.412 373.746 525.581 374.62 525.064 375.291C524.665 375.808 523.902 376.055 523.537 376.284Z" fill="#ECFFB1"/>
<path d="M529.518 372.116C529.204 371.487 529 371.08 528.72 370.511C529.942 369.721 531.113 368.966 532.377 368.151C533.598 368.872 534.811 369.586 536.389 370.519C533.989 371.47 531.757 371.428 529.518 372.116Z" fill="#ECFFB1"/>
<path d="M536.271 351.825C536.635 352.08 537.229 352.258 537.34 352.598C537.764 353.871 538.035 355.196 538.391 356.63H536.262C536.109 355.145 535.957 353.71 535.804 352.267C535.957 352.122 536.109 351.978 536.271 351.825Z" fill="#ECFFB1"/>
<path d="M483.452 368.575C483.427 378.508 475.376 386.531 465.441 386.505C455.567 386.48 447.49 378.347 447.516 368.456C447.55 358.541 455.626 350.518 465.56 350.552C475.528 350.594 483.477 358.592 483.452 368.567V368.575Z" fill="#977DE5"/>
<path d="M482.672 355.782C480.983 354.169 479.236 352.496 477.505 350.841C478.565 350.314 491.155 349.032 493.793 349.262C489.933 351.528 486.302 353.651 482.672 355.782Z" fill="#FF8BAD"/>
<path d="M456.669 340.424C459.342 340.466 461.013 343.259 459.783 345.602C459.384 346.367 459.155 347.232 458.714 347.971C458.527 348.294 457.984 348.65 457.662 348.608C454.947 348.234 453.038 345.416 453.649 342.784C454.039 341.095 454.93 340.398 456.669 340.432V340.424Z" fill="#FF8BAD"/>
<path d="M481.806 334.201C481.772 332.401 483.087 330.966 484.708 331.026C486.031 331.068 487.337 332.766 487.32 334.413C487.304 336.094 486.141 337.469 484.716 337.512C483.223 337.546 481.84 335.975 481.806 334.201Z" fill="#FF8BAD"/>
<path d="M495.354 360.383C496.763 361.079 497.475 362.183 497.823 363.541C498.095 364.619 497.569 365.612 496.601 366.045C495.541 366.512 494.396 366.181 493.76 365.23C492.648 363.549 493.081 362.149 495.363 360.391L495.354 360.383Z" fill="#FF8BAD"/>
<path d="M489.509 361.503C487.813 360.884 485.513 361.962 484.623 359.339C485.276 358.235 486.133 357.98 487.346 358.354C488.406 358.676 489.535 358.804 490.85 359.058C490.349 359.967 489.984 360.646 489.509 361.503Z" fill="#FF8BAD"/>
<path d="M482.409 341.383C481.942 343.098 481.484 344.821 480.992 346.621H479.558C480.347 344.737 481.085 342.954 481.832 341.171C482.027 341.239 482.213 341.315 482.409 341.383Z" fill="#FF8BAD"/>
<path d="M463.889 346.918C465.161 346.036 465.806 346.706 466.493 347.199C465.704 347.317 464.898 347.606 463.889 346.918Z" fill="#FF8BAD"/>
<path d="M190.99 182.806C190.931 179.843 191.567 177.008 192.678 174.283C193.976 171.099 196.14 168.637 199.143 166.948C200.61 166.116 202.163 165.844 203.843 166.15C210.96 167.44 216.339 173.79 216.721 181.422C217.052 187.858 214.549 192.799 208.873 195.931C202.842 199.259 196.64 197.51 193.111 191.593C191.499 188.893 190.914 185.93 190.973 182.815L190.99 182.806ZM195.122 182.161C195.122 185.998 195.953 188.978 198.456 191.338C200.076 192.866 201.951 193.325 204.08 192.875C207.932 192.068 211.249 188.537 211.792 184.598C212.207 181.55 211.707 178.629 210.095 175.989C208.526 173.417 206.422 171.532 203.308 170.938C201.187 170.53 199.626 171.142 198.328 172.806C196.055 175.718 195.283 179.096 195.122 182.153V182.161Z" fill="#3D3D3D"/>
<path d="M149.243 173.238C149.149 179.071 147.868 183.137 144.916 186.576C140.309 191.95 133.183 192.026 128.39 186.788C123.682 181.643 122.443 173.527 125.387 167.202C126.295 165.258 127.576 163.603 129.323 162.363C130.647 161.421 132.004 160.504 133.446 159.774C135.287 158.84 137.298 159.027 139.215 159.511C143.084 160.487 145.764 162.966 147.478 166.498C148.708 169.036 149.285 171.744 149.243 173.238ZM144.594 174.393C144.407 171.388 143.711 168.476 141.531 166.082C139.639 164.019 135.915 162.694 132.522 165.046C126.21 169.41 126.651 180.489 132.818 184.844C135.83 186.975 138.664 186.584 141.158 183.85C143.567 181.21 144.398 177.967 144.594 174.393Z" fill="#3D3D3D"/>
<path d="M201.026 262.532C200.712 269.782 200.432 277.032 200.042 284.274C199.923 286.498 199.516 288.714 199.177 290.921C198.591 294.724 196.64 296.363 192.823 295.692C187.223 294.707 181.633 293.595 176.144 292.152C171.503 290.938 167.007 289.172 162.46 287.636C161.824 287.423 161.221 287.084 160.619 286.778C158.261 285.59 156.844 283.798 156.717 281.048C156.564 277.66 156.182 274.282 156.123 270.903C156.004 263.924 155.877 256.937 156.063 249.959C156.174 245.909 156.844 241.877 157.353 237.844C157.489 236.783 157.811 235.696 158.303 234.754C158.999 233.404 159.974 232.207 161.781 232.496C166.6 233.26 171.436 233.922 176.212 234.856C180.861 235.764 185.459 236.97 190.082 238.022C192.322 238.532 194.57 239.024 196.818 239.491C197.2 239.568 197.624 239.5 198.023 239.508C199.508 239.517 200.152 239.967 200.483 241.384C200.653 242.106 200.712 242.862 200.712 243.6C200.729 249.908 200.721 256.216 200.721 262.523C200.814 262.523 200.916 262.523 201.009 262.523L201.026 262.532ZM159.652 249.101C159.652 250.68 159.669 251.827 159.652 252.973C159.499 261.793 159.805 270.606 160.441 279.409C160.594 281.523 161.425 282.831 163.368 283.544C165.022 284.146 166.625 284.885 168.297 285.437C176.365 288.06 184.568 290.157 192.95 291.473C193.459 291.549 193.993 291.481 194.468 291.481C195.97 287.525 197.243 259.807 196.089 256.165C183.813 255.486 171.894 252.659 159.635 249.11L159.652 249.101ZM196.309 244.857C184.348 243.099 172.793 240.332 161.103 237.581C160.653 240.289 160.042 242.828 160.068 245.383C172.182 248.21 184.034 251.003 196.309 251.818V244.857Z" fill="#3D3D3D"/>
<path d="M195.122 182.161C195.274 179.096 196.055 175.726 198.328 172.814C199.626 171.142 201.196 170.539 203.308 170.946C206.43 171.541 208.526 173.417 210.095 175.998C211.707 178.638 212.208 181.558 211.792 184.606C211.249 188.545 207.932 192.077 204.08 192.883C201.951 193.333 200.076 192.883 198.456 191.347C195.953 188.987 195.13 186.007 195.122 182.17V182.161Z" fill="#ECFFB1"/>
<path d="M144.594 174.393C144.398 177.967 143.567 181.21 141.158 183.85C138.655 186.584 135.83 186.975 132.818 184.844C126.651 180.488 126.21 169.401 132.522 165.046C135.915 162.703 139.639 164.027 141.531 166.082C143.72 168.467 144.407 171.388 144.594 174.393Z" fill="#ECFFB1"/>
<path d="M159.652 249.101C171.911 252.65 183.83 255.477 196.106 256.156C197.251 259.798 195.978 287.517 194.485 291.473C194.002 291.473 193.476 291.541 192.967 291.464C184.577 290.148 176.373 288.06 168.314 285.428C166.642 284.885 165.03 284.146 163.385 283.535C161.442 282.822 160.611 281.523 160.458 279.401C159.822 270.597 159.508 261.793 159.669 252.964C159.686 251.818 159.669 250.68 159.669 249.093L159.652 249.101ZM179.173 264.051C179.122 267.6 181.845 270.682 185.281 270.953C188.869 271.234 191.66 268.95 192.152 265.248C192.458 262.973 191.881 260.876 190.252 259.272C189.429 258.465 188.267 257.761 187.156 257.523C182.77 256.581 179.232 259.552 179.173 264.051ZM173.183 261.275C173.209 258.321 171.317 255.766 168.424 254.959C167.652 254.738 166.812 254.755 166.032 254.569C164.488 254.212 163.419 254.908 162.511 256.029C160.441 258.567 160.398 262.252 162.392 264.883C164.233 267.303 166.939 268.373 169.289 267.6C171.597 266.844 173.158 264.315 173.183 261.284V261.275ZM180.335 280.827C180.335 280.869 180.343 281.277 180.386 281.684C180.742 284.936 183.55 287.398 186.757 287.279C189.802 287.16 192.466 284.316 192.585 281.056C192.704 277.83 190.388 275.334 186.994 275.02C186.528 274.978 186.036 275.02 185.586 274.918C183.898 274.536 182.702 275.317 181.701 276.531C180.759 277.669 180.352 279.01 180.335 280.835V280.827ZM173.616 277.261C173.59 273.747 171.156 271.794 166.787 271.76C163.987 271.734 161.679 274.324 161.671 277.482C161.663 281.277 164.114 284.036 167.457 283.976C171.037 283.917 173.65 281.065 173.624 277.27L173.616 277.261Z" fill="white"/>
<path d="M196.309 244.857V251.818C184.025 251.012 172.174 248.219 160.068 245.383C160.042 242.828 160.653 240.281 161.103 237.581C172.793 240.332 184.348 243.091 196.309 244.857Z" fill="#656352"/>
<path d="M179.173 264.052C179.24 259.544 182.77 256.572 187.156 257.523C188.275 257.761 189.429 258.465 190.252 259.272C191.881 260.876 192.458 262.973 192.152 265.249C191.652 268.95 188.861 271.242 185.281 270.954C181.845 270.682 179.122 267.609 179.173 264.052ZM187.69 264.289C187.639 263.016 186.816 261.997 185.858 262.04C184.789 262.09 183.279 263.338 183.304 264.162C183.338 265.342 184.627 266.649 185.781 266.658C186.876 266.675 187.741 265.597 187.699 264.289H187.69Z" fill="#3D3D3D"/>
<path d="M173.183 261.275C173.158 264.315 171.597 266.836 169.289 267.592C166.939 268.364 164.225 267.295 162.392 264.875C160.398 262.252 160.441 258.567 162.511 256.02C163.419 254.9 164.496 254.204 166.032 254.56C166.82 254.738 167.652 254.73 168.424 254.951C171.317 255.757 173.209 258.313 173.183 261.267V261.275ZM165.098 259.043C164.53 261.114 165.056 262.583 166.524 263.347C167.151 263.678 167.796 263.814 168.339 263.186C169.578 261.776 168.806 259.416 166.956 259.06C166.388 258.949 165.777 259.043 165.098 259.043Z" fill="#3D3D3D"/>
<path d="M180.335 280.827C180.343 279.002 180.759 277.66 181.701 276.523C182.702 275.309 183.898 274.528 185.586 274.91C186.044 275.012 186.528 274.969 186.994 275.012C190.388 275.326 192.704 277.822 192.585 281.048C192.466 284.308 189.802 287.16 186.757 287.27C183.55 287.389 180.742 284.927 180.386 281.676C180.343 281.277 180.335 280.869 180.335 280.818V280.827ZM186.519 279.808C185.51 279.825 184.543 280.513 184.56 281.192C184.577 281.964 185.51 282.881 186.307 282.915C187.113 282.949 187.885 282.1 187.911 281.149C187.936 280.275 187.436 279.791 186.519 279.808Z" fill="#3D3D3D"/>
<path d="M173.616 277.261C173.641 281.065 171.028 283.909 167.448 283.968C164.106 284.027 161.654 281.268 161.662 277.474C161.671 274.315 163.987 271.735 166.778 271.752C171.156 271.786 173.582 273.747 173.607 277.253L173.616 277.261ZM166.303 276.013C165.556 277.652 165.599 278.917 166.498 279.443C166.914 279.689 167.669 279.664 168.135 279.452C169.018 279.044 169.357 278.119 169.094 277.236C168.687 275.86 167.355 276.353 166.303 276.005V276.013Z" fill="#3D3D3D"/>
<path d="M187.69 264.289C187.741 265.605 186.876 266.675 185.773 266.658C184.619 266.641 183.338 265.342 183.296 264.162C183.27 263.338 184.78 262.09 185.849 262.039C186.808 261.997 187.639 263.016 187.682 264.289H187.69Z" fill="#97FFEF"/>
<path d="M165.098 259.043C165.777 259.043 166.388 258.949 166.956 259.06C168.806 259.416 169.578 261.776 168.339 263.186C167.788 263.814 167.151 263.678 166.524 263.347C165.056 262.583 164.53 261.114 165.098 259.043Z" fill="#977DE5"/>
<path d="M187.41 307.068L190.379 346.002L218.502 351.282L216.305 313.512L187.41 307.068Z" fill="#868478"/>
<path d="M234.918 301.575L217.722 312.434L218.502 351.282L237.48 343.09L234.918 301.575Z" fill="#868478"/>
<path d="M186.519 279.808C187.436 279.791 187.936 280.275 187.911 281.149C187.885 282.1 187.105 282.949 186.307 282.915C185.51 282.881 184.577 281.964 184.56 281.192C184.543 280.513 185.51 279.825 186.519 279.808Z" fill="#E5BE88"/>
<path d="M166.303 276.013C167.355 276.353 168.687 275.869 169.094 277.244C169.357 278.127 169.018 279.053 168.135 279.46C167.677 279.672 166.914 279.698 166.498 279.452C165.599 278.925 165.556 277.66 166.303 276.022V276.013Z" fill="#FF8BAD"/>
<path d="M247.219 393.305C247.372 389.68 247.626 386.302 247.635 382.914C247.635 379.739 249.162 377.693 252.004 376.768C255.278 375.707 258.612 374.662 262.006 374.144C268.097 373.202 274.248 372.667 280.449 373.007C287.77 373.397 294.54 375.443 301.03 378.814C303.915 380.316 304.907 382.778 305.034 385.563C305.28 391.056 305.119 396.548 304.144 401.999C303.821 403.816 303.041 405.216 301.268 405.87C298.918 406.736 296.602 407.772 294.167 408.29C288.933 409.41 283.63 410.183 278.243 410.276C269.777 410.42 261.819 408.315 254.32 404.614C251.478 403.213 248.822 401.6 245.607 401.158C243.919 400.929 242.697 399.783 241.747 398.331C239.236 398.221 236.733 398.017 234.231 398.009C223.109 397.983 211.978 397.745 200.865 398.085C187.894 398.476 174.956 398.085 162.019 397.516C156.335 397.262 150.668 396.565 144.984 396.166C141.87 395.946 138.748 395.903 135.635 395.818C129.255 395.649 122.884 395.436 116.649 393.9C111.677 392.669 106.884 390.852 102.592 388.118C93.4548 382.303 87.6266 371.207 93.1239 358.345C95.2533 353.362 98.6043 349.295 103.007 346.163C106.927 343.37 110.829 340.509 114.969 338.072C119.457 335.432 124.242 333.293 128.848 330.839C133.692 328.258 138.579 325.728 143.253 322.859C146.002 321.169 148.462 318.954 150.897 316.806C153.756 314.276 155.3 311.5 155.962 308.444C155.851 308.384 155.716 308.265 155.622 308.291C153.018 308.97 150.541 308.486 148.046 307.637C145.162 306.652 142.218 305.846 139.291 304.971C138.842 304.835 138.384 304.759 137.637 304.589C137.747 305.532 137.807 306.321 137.942 307.085C138.282 308.953 138.816 310.795 138.986 312.68C139.3 316.186 137.561 318.003 134.057 317.697C128.39 317.213 122.986 315.728 118.049 312.79C115.733 311.415 114.197 309.479 113.501 306.805C111.779 300.149 110.727 293.459 112.908 286.744C113.841 283.858 115.19 281.099 116.522 278.365C117.641 276.073 119.423 274.281 121.62 272.898C120.144 266.047 120.823 259.204 121.145 252.378C121.459 245.527 122.239 238.719 123.851 232.029C124.988 227.326 126.634 222.801 128.95 218.547C130.07 216.493 131.487 214.6 132.861 212.477C131.495 212.138 130.138 211.824 128.789 211.45C125.913 210.661 123.045 209.854 120.178 209.031C118.821 208.64 118.244 207.918 118.066 206.305C117.056 197.23 117.455 188.146 117.641 179.062C117.862 168.204 118.422 157.354 117.938 146.496C117.794 143.313 117.836 140.121 117.811 136.928C117.794 135.222 118.625 133.949 120.042 133.091C120.848 132.607 121.739 132.217 122.638 131.945C129.858 129.831 137.069 127.692 144.322 125.68C150.193 124.05 156.106 122.53 162.027 121.112C163.368 120.79 164.852 120.994 166.261 121.087C168.831 121.248 171.393 121.503 173.964 121.715C178.485 122.097 183.016 122.496 187.537 122.87C188.055 122.912 188.581 122.87 189.234 122.87C189.107 116.817 188.98 110.865 188.852 104.88C182.931 101.4 179.088 96.0257 175.957 90.066C174.065 86.4749 173.098 82.5867 173.149 78.5032C173.234 71.5162 179.444 65.9386 186.188 66.813C187.308 66.9573 188.42 67.3733 189.472 67.8318C190.456 68.2647 191.346 68.9099 192.415 69.5552C192.873 69.1731 193.382 68.7656 193.875 68.3242C195.402 66.9489 197.09 65.8367 199.041 65.1575C205.607 62.8484 211.172 66.1678 212.199 73.0613C212.75 76.7204 212.25 80.269 210.536 83.546C206.651 90.9659 201.247 97.0274 194.146 101.535C193.858 101.714 193.578 101.9 193.289 102.087C193.238 102.121 193.213 102.198 192.924 102.614C193.077 109.218 193.238 116.171 193.408 123.269C194.536 123.43 195.452 123.583 196.377 123.676C202.443 124.33 208.509 125.035 214.583 125.612C220.318 126.155 226.078 126.529 231.821 127.021C241.9 127.887 251.894 129.33 261.802 131.368C264.195 131.86 266.604 132.276 268.971 132.853C269.93 133.083 270.88 133.55 271.72 134.076C272.865 134.806 273.459 135.918 273.433 137.336C273.408 138.966 273.459 140.596 273.493 142.217C273.671 151.717 273.849 161.217 274.053 170.717C274.282 181.371 274.545 192.017 274.782 202.672C274.808 203.894 274.833 205.117 274.833 206.339C274.833 209.158 273.9 210.533 271.202 211.535C269.115 212.316 266.994 213.029 264.907 213.768C265.382 217.639 265.84 221.391 266.324 225.144C266.409 225.814 266.638 226.46 266.748 227.13C266.867 227.818 267.257 228.158 267.919 228.361C271.932 229.601 275.927 230.874 280.186 232.216C280.525 231.842 281.043 231.324 281.501 230.755C287.117 223.853 292.385 216.722 296.89 209.022C300.072 203.58 303.77 198.444 307.198 193.147C309.777 189.165 312.33 185.158 314.841 181.125C325.709 163.679 336.551 146.208 347.435 128.77C348.097 127.709 349.056 126.826 350.074 125.62C350.184 124.695 349.454 124.177 348.335 123.905C346.137 123.362 343.965 123.464 341.98 124.483C339.876 125.552 337.739 126.69 335.932 128.184C329.628 133.405 322.689 134.577 314.952 132.174C312.704 131.478 310.328 131.062 307.987 130.841C304.551 130.519 301.268 131.521 298.052 132.641C296.644 133.134 295.261 133.719 293.836 134.135C291.028 134.959 289.204 134.034 288.271 131.266C287.601 129.279 287.117 127.225 286.557 125.196C284.657 118.336 282.723 111.477 280.873 104.6C280.381 102.775 280.033 100.89 279.847 99.014C279.584 96.3568 280.805 94.4466 283.24 93.326C287.94 91.1611 292.81 90.3631 297.908 91.5092C301.081 92.2223 304.237 93.0204 307.401 93.7844C312.449 95.0069 317.344 94.4721 322.18 92.6978C325.361 91.5262 328.576 90.431 331.834 89.5226C337.747 87.8672 343.66 87.9606 349.403 90.2358C351.202 90.9489 352.907 92.0101 354.502 93.1392C356.105 94.2768 357.073 96.0002 357.149 97.9953C357.285 101.722 357.412 105.458 357.268 109.176C357.115 113.243 356.64 117.292 356.368 121.35C356.326 121.97 356.665 122.607 356.776 123.252C356.894 123.965 357.268 124.865 356.979 125.357C356.275 126.554 356.827 127.42 357.302 128.388C360.619 135.086 363.588 141.929 365.895 149.035C367.219 153.101 368.339 157.227 369.755 161.26C374.057 173.485 377.959 185.837 381.658 198.257C386.239 213.632 392.356 228.429 398.761 243.108C400.059 246.096 401.382 249.067 402.723 252.039C403.053 252.777 403.528 253.448 403.885 254.178C404.233 254.9 404.538 255.638 404.801 256.394C405.064 257.158 405.183 257.981 405.505 258.72C406.141 260.172 405.963 261.666 405.76 263.126C405.573 264.459 404.538 265.274 403.299 265.588C401.798 265.97 400.245 266.276 398.701 266.327C391.719 266.564 384.729 266.7 377.747 266.887C373.344 267.006 368.933 267.167 364.53 267.32C364.131 267.337 363.741 267.422 363.079 267.515C363.452 274.027 363.825 280.487 364.207 287.143C366.175 286.982 367.982 286.888 369.781 286.676C383.227 285.063 396.309 281.863 409.136 277.533C415.567 275.36 421.819 272.787 427.987 269.926C436.58 265.953 445.666 263.449 454.973 261.742C457.535 261.275 460.105 261.335 462.65 261.938C468.368 263.304 471.897 266.862 473.119 272.601C474.129 277.312 474.027 282.032 472.992 286.744C471.202 294.852 466.052 299.538 458.137 301.423C454.15 302.373 450.324 301.788 446.633 300.107C445.658 299.657 444.708 299.147 443.622 298.604C443.206 299.402 442.807 300.098 442.476 300.828C438.336 309.751 434.171 318.665 430.073 327.605C425.399 337.801 420.029 347.614 414.133 357.14C412.385 359.958 410.51 362.709 407.864 364.967C408.16 365.85 408.449 366.733 408.763 367.684C411.919 366.75 414.888 365.876 417.917 364.984C419.825 360.374 424.457 358.413 428.903 360.425C432.805 362.191 434.273 366.207 432.449 370.112C430.26 374.807 426.409 375.876 420.971 373.211C419.944 373.958 418.858 374.739 417.603 375.647C418.247 376.055 418.655 376.369 419.121 376.589C422.184 378.041 425.255 379.476 428.326 380.919C431.762 382.532 435.198 384.137 438.642 385.741C439.388 386.089 439.897 386.599 439.728 387.473C439.584 388.254 438.981 388.509 438.252 388.636C434.061 389.392 429.87 390.164 425.552 390.954C425.552 391.378 425.526 391.896 425.552 392.406C425.73 395.368 424.449 397.542 421.887 398.917C419.393 400.25 416.152 399.851 414.107 397.898C411.537 395.436 410.239 392.516 411.588 388.899C411.681 388.653 411.707 388.381 411.791 387.991C410.892 387.303 409.993 386.616 409.441 386.191C405.573 386.573 402.086 386.921 398.6 387.278C396.648 387.473 394.689 387.694 392.474 387.923C391.982 390.317 390.71 392.227 388.139 392.915C386.485 393.356 384.916 393.102 383.431 392.261C380.063 390.368 378.816 386.259 380.614 382.957C382.676 379.17 385.696 378.423 390.031 380.766C390.888 380.342 391.847 379.849 392.814 379.399C393.713 378.983 394.638 378.627 395.868 378.109C394.655 377.379 393.688 376.793 392.644 376.165C391.304 377.591 389.607 377.871 387.825 378.109C382.922 378.763 378.035 379.569 373.132 380.231C370.986 380.52 368.814 380.673 366.65 380.758C359.669 381.021 352.687 381.361 345.705 381.42C337.772 381.488 329.798 381.632 322.035 379.612C317.912 378.542 313.815 377.286 309.811 375.817C303.855 373.627 299.164 369.594 295.304 364.67C289.891 357.776 285.056 350.484 281.068 342.657C279.38 339.346 277.76 336.009 276.012 332.486C275.274 332.537 274.341 332.605 273.408 332.681C270.871 332.885 270.523 332.537 269.463 330.245C266.68 324.243 266.112 317.85 265.866 311.389C265.73 307.815 266.46 304.377 267.681 301.032C267.817 300.667 267.927 300.285 268.089 299.776C263.694 297.959 259.351 296.261 255.499 293.103C254.345 293.714 252.979 294.444 251.614 295.157C247.474 297.331 243.359 299.572 239.16 301.618C237.828 302.272 237.361 303.053 237.488 304.428C237.836 308.35 238.15 312.272 238.473 316.186C238.99 322.468 240 328.708 239.754 335.058C239.465 342.521 239.287 349.983 239.194 357.445C239.168 359.729 239.643 362.013 239.771 364.305C239.83 365.366 239.711 366.47 239.457 367.497C239.177 368.601 237.879 368.677 237.183 369.305C233.739 372.43 229.471 374.077 225.399 376.029C221.616 377.846 217.637 379.247 213.777 380.919C211.291 381.997 208.873 383.228 206.413 384.366C202.536 386.157 198.651 387.923 194.774 389.706C193.484 390.292 192.314 390.317 191.245 389.196C190.956 388.899 190.447 388.755 190.015 388.653C188.827 388.373 187.614 388.212 186.434 387.906C180.199 386.285 173.989 384.604 167.754 383.016C162.129 381.581 156.606 379.773 151.058 378.084C150.15 377.812 149.234 377.557 148.309 377.337C144.195 376.352 142.846 374.688 142.201 370.986C141.675 367.913 141.412 364.797 141.166 361.682C140.869 358.031 140.666 354.372 140.513 350.705C140.394 347.878 141.056 346.978 143.609 345.891C148.98 343.616 154.333 341.315 159.694 339.015C160.059 338.862 160.398 338.641 160.865 338.395V309.326C160.517 310.107 160.271 310.54 160.118 311.007C158.973 314.573 156.946 317.587 154.299 320.21C150.566 323.912 146.451 327.129 141.845 329.642C137.204 332.18 132.547 334.702 127.745 336.901C119.932 340.483 112.704 344.991 105.807 350.059C100.827 353.718 97.3572 358.456 96.0762 364.602C95.0072 369.721 95.9489 374.45 99.0369 378.703C101.226 381.717 103.966 384.026 107.351 385.707C114.282 389.146 121.603 390.86 129.298 391.115C131.402 391.183 133.506 391.208 135.601 391.327C142.71 391.726 149.811 392.185 156.92 392.567C163.69 392.932 170.468 393.246 177.238 393.535C180.352 393.67 183.474 393.789 186.596 393.755C193.17 393.687 199.745 393.424 206.328 393.399C215.957 393.356 225.594 393.433 235.223 393.509C237.387 393.526 239.55 393.84 241.722 393.823C243.52 393.806 245.327 393.518 247.228 393.331L247.219 393.305ZM322.265 312.111C322.265 313.147 322.273 314.089 322.265 315.031C322.222 317.672 322.248 320.32 322.112 322.961C321.857 327.791 319.465 331.23 314.892 332.792C311.635 333.904 308.267 334.804 304.873 335.355C300.292 336.103 297.306 333.242 297.331 328.615C297.348 325.83 297.399 323.054 297.306 320.27C297.221 317.604 296.551 315.04 295.499 312.586C295.295 312.12 294.99 311.704 294.566 310.99C293.836 313.249 293.955 315.184 294.269 317.137C294.6 319.14 295.075 321.144 295.219 323.156C295.482 326.773 294.286 328.47 290.816 329.438C287.949 330.245 285.022 330.848 282.12 331.552C281.611 331.671 281.111 331.824 280.525 331.985C281.085 333.301 281.577 334.481 282.078 335.653C282.214 335.967 282.349 336.272 282.502 336.578C287.041 345.568 292.453 354.007 298.672 361.928C302.311 366.572 306.901 369.976 312.424 372.047C320.101 374.925 327.999 376.81 336.237 376.759C344.169 376.717 352.093 376.479 360.025 376.335C367.363 376.199 374.633 375.435 381.87 374.212C383.567 373.924 385.28 373.728 386.986 373.482C385.365 372.141 383.668 371.199 382.006 370.188C381.378 369.806 380.733 369.365 380.292 368.805C379.452 367.743 379.859 366.86 381.191 366.665C381.522 366.614 381.87 366.648 382.209 366.648C386.748 366.58 391.295 366.436 395.817 367.047C396.25 367.107 396.691 367.047 397.132 367.047C397.132 365.734 396.841 364.761 396.258 364.127C392.551 360.077 392.754 354.899 396.767 351.104C399.092 348.905 402.426 348.744 404.928 350.739C406.583 352.055 407.601 353.778 408.042 355.849C408.16 356.41 408.288 356.961 408.491 357.853C409.094 357.012 409.509 356.486 409.857 355.926C415.117 347.445 419.987 338.743 424.169 329.684C428.631 320.023 432.975 310.294 437.378 300.599C437.963 299.3 438.616 298.035 439.227 296.745C439.414 296.354 439.55 295.947 439.77 295.404C439.354 295.463 439.159 295.463 438.981 295.522C429.251 298.918 419.511 302.28 409.798 305.718C396.665 310.362 383.202 313.232 369.246 313.631C360.228 313.894 351.219 314.344 342.209 314.454C335.83 314.531 329.467 314.004 323.283 312.221C322.977 312.137 322.646 312.128 322.265 312.077V312.111ZM350.659 132.548L350.235 132.471C349.895 132.964 349.522 133.448 349.208 133.957C338.96 150.427 328.721 166.905 318.464 183.375C316.173 187.059 313.849 190.727 311.482 194.369C307.859 199.938 303.974 205.355 300.581 211.068C295.991 218.802 290.74 226.018 285.03 232.929C284.699 233.328 284.419 233.769 283.978 234.389C296.169 240.654 303.287 250.85 307.257 263.737C308.954 263.737 310.574 263.754 312.195 263.737C316.937 263.686 321.688 263.508 326.43 263.602C336.33 263.788 346.222 264.094 356.122 263.5C356.767 263.457 357.412 263.415 358.201 263.364C357.989 259.934 357.836 256.759 357.59 253.592C356.597 240.671 355.529 227.759 354.57 214.837C353.857 205.236 353.111 195.625 352.687 186.007C352.135 173.536 351.923 161.047 351.49 148.576C351.304 143.236 350.939 137.905 350.65 132.565L350.659 132.548ZM223.575 150.503C222.812 150.317 222.235 150.121 221.641 150.028C215.355 149.018 209.086 147.795 202.765 147.082C189.633 145.596 176.466 144.433 163.325 143.024C150.32 141.632 137.332 140.095 124.335 138.635C123.427 138.533 122.511 138.533 121.476 138.474C121.476 139.586 121.476 140.452 121.476 141.326C121.561 150.486 121.73 159.638 121.713 168.798C121.696 178.638 121.501 188.469 121.4 198.3C121.374 200.864 121.4 203.427 121.4 206.076C130.222 208.054 138.799 209.973 147.588 211.942C147.69 210.983 147.809 210.27 147.843 209.548C148.029 205.821 148.182 202.095 148.386 198.368C148.488 196.542 148.598 194.709 148.852 192.892C149.183 190.557 150.278 189.674 152.543 189.759C153.62 189.793 154.706 189.895 155.783 190.056C160.678 190.795 165.565 191.559 170.451 192.332C173.735 192.849 177.001 193.435 180.284 193.919C182.328 194.225 183.66 195.269 184.135 197.281C184.288 197.926 184.263 198.631 184.246 199.301C184.118 204.183 183.966 209.064 183.838 213.946C183.805 215.092 183.838 216.238 183.838 217.512C196.878 220.084 210.044 221.655 223.177 223.743C223.194 223.403 223.236 222.936 223.245 222.47C223.355 216.433 223.457 210.397 223.558 204.361C223.652 198.665 223.567 192.96 223.847 187.272C224.373 176.422 224.627 165.581 223.966 154.731C223.881 153.381 223.728 152.04 223.592 150.512L223.575 150.503ZM309.361 290.132C309.319 290.293 309.276 290.454 309.234 290.615C309.395 290.726 309.539 290.87 309.717 290.947C314.57 292.891 317.607 296.558 319.473 301.304C320.144 303.002 320.644 304.776 321.153 306.525C321.357 307.221 321.577 307.756 322.4 307.917C325.124 308.452 327.821 309.199 330.561 309.573C336.687 310.413 342.863 310.608 349.039 310.337C356.759 310.006 364.479 309.539 372.207 309.276C382.455 308.927 392.44 306.924 402.129 303.808C414.65 299.793 426.986 295.208 439.414 290.913C440.5 290.539 441 289.953 441.314 288.85C442.706 283.9 446.09 280.895 450.968 279.621C453.531 278.951 456.109 279.129 458.392 280.7C461.386 282.754 461.904 287.177 459.231 289.325C457.238 290.93 454.778 291.498 452.173 290.921C452.097 290.904 452.063 290.726 451.961 290.547C452.699 290.344 453.403 290.106 454.124 289.953C455.965 289.554 456.831 288.23 457.263 286.574C457.628 285.165 457.026 283.994 455.677 283.433C455.066 283.179 454.37 283.043 453.709 283.017C448.865 282.797 444.453 287.262 444.538 292.203C444.563 293.782 445.191 294.877 446.574 295.667C451.299 298.366 456.076 298.485 460.988 296.185C464.279 294.639 466.663 292.262 467.961 288.867C469.929 283.705 470.099 278.382 468.945 273.042C468.139 269.332 465.747 266.997 462.048 266.055C459.978 265.529 457.891 265.418 455.796 265.792C446.888 267.405 438.201 269.841 430.006 273.679C423.236 276.845 416.339 279.63 409.272 282.024C399.041 285.488 388.58 288.102 377.942 289.894C367.015 291.736 355.961 292.118 344.89 292.033C341.709 292.008 338.528 292.322 335.346 292.356C331.758 292.398 328.152 292.517 324.581 292.22C320.602 291.889 316.665 291.108 312.704 290.539C311.592 290.378 310.481 290.267 309.361 290.132ZM269.437 138.312C268.012 138.618 266.757 138.83 265.535 139.17C255.211 141.98 244.878 144.79 234.57 147.659C232.178 148.322 229.734 148.916 227.537 150.206C227.571 150.622 227.58 150.962 227.614 151.293C228.47 159.74 228.581 168.221 228.369 176.702C228.123 186.669 227.843 196.636 227.597 206.603C227.486 211.28 227.435 215.958 227.368 220.636C227.368 221.196 227.461 221.756 227.52 222.503C241.696 216.213 256.483 212.375 270.566 206.908C270.184 183.969 269.802 161.277 269.421 138.321L269.437 138.312ZM147.088 215.805C146.969 217.571 146.791 219.176 146.765 220.78C146.604 231.978 146.502 243.167 146.324 254.365C146.155 265.223 146.435 276.073 147.105 286.914C147.139 287.432 147.173 288.145 147.495 288.4C148.7 289.359 149.921 290.429 151.33 290.972C156.14 292.814 161.069 294.334 165.879 296.176C173.752 299.19 181.777 301.635 190.048 303.256C197.361 304.691 204.75 305.778 211.919 307.917C212.199 308.002 212.53 307.9 212.852 307.883C212.937 280.784 214.32 253.83 213.828 226.562C191.703 222.495 169.357 220.008 147.088 215.805ZM355.512 133.711L355.198 133.77C355.198 134.373 355.172 134.984 355.198 135.587C355.69 146.768 356.216 157.949 356.674 169.129C356.996 177.127 357.081 185.141 357.522 193.13C358.014 201.933 358.752 210.72 359.448 219.515C359.991 226.341 360.687 233.166 361.196 239.992C361.713 246.826 362.078 253.669 362.527 260.503C362.587 261.352 362.74 262.201 362.85 263.101C363.715 263.101 364.385 263.118 365.056 263.101C373.531 262.846 381.997 262.574 390.472 262.337C393.255 262.26 396.029 262.286 398.812 262.218C399.643 262.201 400.466 262.006 401.314 261.895C400.899 260.469 400.585 259.297 400.211 258.134C399.719 256.598 399.287 255.019 398.633 253.55C391.287 236.851 383.914 220.16 378.493 202.697C375.779 193.953 373.14 185.192 370.383 176.464C367.974 168.841 365.276 161.294 363.003 153.628C361.094 147.167 358.71 140.91 356.055 134.747C355.902 134.39 355.69 134.059 355.512 133.711ZM217.187 307.892C230.778 300.743 243.944 293.816 257.035 286.922V269.57C254.795 268.789 252.598 267.889 250.324 267.261C241.187 264.756 237.285 256.029 237.115 249.585C236.852 239.746 244.538 228.845 253.938 225.831C254.702 225.585 255.694 225.67 256.466 225.933C257.764 226.366 259.045 226.553 260.521 226.579V215.449C260.233 215.449 260.089 215.415 259.97 215.449C252.852 217.885 245.734 220.322 238.625 222.784C238.193 222.936 237.692 223.157 237.438 223.505C236.649 224.558 235.503 224.94 234.358 225.364C232.576 226.027 230.795 226.68 229.047 227.419C227.062 228.259 225.052 228.633 222.897 228.259C221.319 227.988 219.715 227.852 218.027 227.648C217.968 228.149 217.9 228.472 217.9 228.794C217.874 234.567 217.858 240.332 217.849 246.105C217.841 255.672 218.07 265.249 217.773 274.808C217.45 284.919 217.069 295.013 217.187 305.133C217.196 305.871 217.187 306.61 217.187 307.883V307.892ZM292.581 129.942C293.98 129.407 295.177 128.923 296.381 128.49C299.97 127.216 303.609 126.206 307.478 126.198C310.863 126.181 314.069 127.004 317.242 127.963C322.977 129.704 328.05 128.634 332.657 124.822C334.371 123.405 336.279 122.182 338.205 121.061C341.344 119.236 344.746 118.489 348.385 119.049C348.682 119.092 348.996 119.049 349.437 119.049C349.437 114.21 349.471 109.541 349.42 104.863C349.386 102.053 349.607 99.3027 350.812 96.7133C350.913 96.4926 350.88 96.204 350.93 95.7455C349.751 95.2107 348.614 94.6079 347.427 94.1749C342.6 92.4261 337.705 92.4601 332.835 93.9118C329.586 94.8796 326.388 96.0087 323.198 97.1463C317.828 99.0649 312.373 99.5743 306.791 98.2839C303.618 97.5538 300.47 96.7473 297.297 96.0002C293.327 95.0579 289.484 95.5587 285.726 97.0274C284.301 97.5878 284.072 97.9104 284.335 99.5149C284.589 101.052 284.962 102.571 285.37 104.074C287.601 112.326 289.866 120.561 292.122 128.804C292.207 129.118 292.369 129.424 292.572 129.933L292.581 129.942ZM233.586 304.547C232.576 305.005 231.957 305.268 231.355 305.574C227.664 307.433 223.966 309.284 220.301 311.186C218.935 311.89 217.628 312.722 216.305 313.52C215.27 314.14 214.303 314.072 213.285 313.334C212.81 312.985 212.318 312.561 211.775 312.442C205.03 310.931 198.286 309.462 191.533 308.002C190.956 307.875 190.362 307.875 189.658 307.798C189.658 308.673 189.616 309.403 189.658 310.124C190.345 320.609 191.38 331.085 191.143 341.612C191.134 342.139 191.228 342.665 191.279 343.242C192.025 343.429 192.67 343.624 193.332 343.743C200.627 344.991 207.762 346.876 214.803 349.109C215.38 349.287 216.144 349.219 216.712 348.99C223.016 346.477 229.081 343.472 234.926 339.991C236.258 328.207 233.934 316.611 233.569 304.547H233.586ZM189.378 127.785C188.971 127.632 188.912 127.598 188.844 127.59C181.005 126.316 173.073 126.172 165.183 125.535C164.912 125.51 164.632 125.51 164.377 125.569C161.213 126.283 158.04 126.996 154.884 127.734C152.84 128.21 150.804 128.719 148.767 129.245C142.541 130.858 136.314 132.471 130.087 134.11C129.603 134.237 129.162 134.483 128.695 134.67L128.712 135.078C130.29 135.273 131.868 135.519 133.455 135.664C137.238 136.003 141.022 136.249 144.797 136.623C156.258 137.752 167.711 139.093 179.189 140.036C193.119 141.182 206.973 142.837 220.598 146.012C223.55 146.7 226.129 146.547 229.005 145.452C233.807 143.635 238.837 142.421 243.766 140.953C249.001 139.39 254.235 137.811 259.715 136.164C259.223 135.961 258.943 135.791 258.646 135.731C249.145 133.745 239.541 132.497 229.887 131.614C219.563 130.68 209.213 130.018 198.948 128.481C197.242 128.227 195.512 128.184 193.595 128.023C193.595 129.177 193.637 130.052 193.586 130.918C193.527 131.792 193.476 132.684 193.238 133.516C193.001 134.365 192.339 134.857 191.397 134.832C190.456 134.806 189.853 134.263 189.624 133.422C189.438 132.718 189.421 131.954 189.395 131.207C189.361 130.069 189.387 128.931 189.387 127.785H189.378ZM310.566 286.133C315.393 286.787 320.271 287.585 325.174 288.069C328.195 288.366 331.257 288.272 334.303 288.204C337.891 288.119 341.471 287.831 345.051 287.72C349.454 287.593 353.849 287.568 358.252 287.483C358.642 287.483 359.032 287.381 359.66 287.296C359.346 280.7 359.092 274.197 358.438 267.923C341.522 267.77 324.894 267.617 308.148 267.464C308.962 273.738 309.743 279.825 310.557 286.133H310.566ZM165.158 300.777C165.387 312.867 165.141 324.905 165.37 336.807C172.708 338.675 179.766 340.466 187.02 342.308C187.597 330.253 186.333 318.589 185.713 307.068C178.859 304.971 172.131 302.917 165.158 300.777ZM234.926 345.636C228.021 349.414 221.514 353.15 214.846 356.571C208.11 360.026 201.221 363.176 194.18 366.572C194.613 372.379 195.062 378.304 195.529 384.51C197.251 383.704 198.812 383.075 200.28 382.26C206.04 379.068 212.055 376.462 218.12 373.915C222.608 372.031 226.901 369.687 231.287 367.565C232.246 367.098 232.763 366.393 233.247 365.409C234.299 363.235 234.316 360.994 234.367 358.685C234.434 355.442 234.621 352.199 234.765 348.956C234.808 347.971 234.867 346.995 234.943 345.636H234.926ZM252.173 385.359C252.097 385.631 251.97 385.877 251.961 386.123C251.91 389.443 251.826 392.771 251.851 396.09C251.86 397.83 252.674 399.087 254.303 399.936C262.337 404.121 270.803 406.447 279.915 405.853C282.816 405.666 285.709 405.242 288.593 404.809C291.944 404.299 295.278 403.714 298.383 402.219C299.198 401.829 299.664 401.371 299.732 400.42C299.953 397.177 300.25 393.942 300.487 390.699C300.521 390.198 300.394 389.68 300.335 389.095C298.451 389.409 296.729 389.748 294.99 389.977C288.135 390.894 281.264 391.828 274.332 390.988C268.691 390.3 263.007 389.714 257.62 387.685C255.796 386.998 254.031 386.157 252.173 385.351V385.359ZM143.007 287.916C142.871 286.124 143.228 284.367 142.608 282.805C140.216 282.669 137.942 282.763 135.779 282.347C133.54 281.914 131.3 281.192 129.255 280.199C127.287 279.239 125.573 277.762 123.682 276.463C122.282 277.406 121.12 278.662 120.373 280.19C119.134 282.746 117.87 285.318 117.005 288.018C115.198 293.646 116.055 299.275 117.378 304.895C117.904 307.128 119.109 308.622 121.077 309.692C124.394 311.5 127.932 312.603 131.631 313.232C132.606 313.393 133.59 313.495 134.905 313.665C134.532 311.924 134.261 310.481 133.913 309.063C133.149 305.931 132.742 302.739 133.48 299.589C134.71 294.283 137.637 290.216 143.016 287.933L143.007 287.916ZM298.96 256.088C298.443 255.112 297.951 254.229 297.493 253.329C295.397 249.254 291.826 247.701 287.49 247.59C283.681 247.497 280.347 248.974 277.327 251.156C272.483 254.654 268.971 259.221 266.791 264.782C266.443 265.656 266.205 266.581 265.993 267.507C265.747 268.576 265.968 269.383 267.037 270.071C268.513 271.013 269.938 272.1 271.143 273.356C272.262 274.519 273.399 274.613 274.816 274.281C283.698 272.202 290.595 267.074 296.313 260.197C297.34 258.958 298.078 257.481 298.969 256.088H298.96ZM188.742 99.4555C188.895 99.4045 189.098 99.3621 189.268 99.2687C195.834 95.8983 200.84 90.8216 204.929 84.777C205.836 83.4356 206.634 81.9839 207.219 80.4812C208.33 77.6287 208.687 74.6829 207.448 71.7539C206.362 69.1901 204.445 68.2223 201.722 68.7486C198.99 69.2835 196.98 70.922 195.113 72.9595C195.359 73.5622 195.622 74.1056 195.8 74.6829C196.64 77.3656 196.666 80.0398 195.529 82.6376C194.765 84.3695 193.484 85.5835 191.465 85.4816C189.438 85.3797 188.063 84.2082 187.376 82.3235C187.105 81.5764 186.986 80.7359 186.969 79.9379C186.926 77.9853 187.58 76.211 188.538 74.5385C188.937 73.8424 189.353 73.1547 189.752 72.4841C186.672 69.6655 182.549 69.7844 179.699 72.7133C177.086 75.396 176.543 78.5881 177.323 82.1282C178.884 89.2085 183.083 94.5824 188.309 99.3196C188.403 99.4045 188.564 99.4045 188.733 99.4555H188.742ZM290.918 301.601C294.54 302.815 297.009 305.209 298.782 308.401C300.309 311.152 301.48 314.081 301.743 317.205C302.057 320.906 302.031 324.642 302.091 328.36C302.125 330.381 302.651 331.068 304.61 330.644C307.58 330.007 310.532 329.226 313.416 328.258C315.775 327.469 317.098 325.728 317.353 323.114C317.836 318.088 317.76 313.096 316.648 308.155C315.987 305.234 315.045 302.407 313.365 299.886C311.643 297.305 309.31 295.59 306.129 294.843C302.235 299.631 296.865 301.134 290.918 301.592V301.601ZM287.694 242.904C287.779 242.743 287.864 242.581 287.949 242.42C286.235 241.367 284.648 239.916 282.782 239.372C280.687 238.761 278.719 237.929 276.708 237.14C276.089 236.893 275.418 236.622 274.774 236.622C266.875 236.605 260.309 239.186 256.05 246.283C253.421 250.663 252.326 255.418 252.487 260.477C252.547 262.286 253.208 263.754 255.261 264.17C255.983 264.315 256.67 264.654 257.357 264.943C258.833 265.571 260.292 266.225 261.777 266.879C261.955 266.564 262.091 266.403 262.133 266.225C264.008 258.262 268.564 252.132 275.054 247.336C277.709 245.374 280.67 244.042 283.893 243.379C285.141 243.125 286.422 243.057 287.686 242.904H287.694ZM191.126 384.536C190.736 378.152 190.371 372.031 189.998 365.91C182.413 363.787 174.88 361.69 167.33 359.576C167.219 359.95 167.117 360.137 167.117 360.323C167.134 365.74 167.177 371.156 167.177 376.572C167.177 377.786 167.686 378.372 168.882 378.652C172.963 379.603 177.043 380.597 181.098 381.666C184.356 382.524 187.58 383.517 191.134 384.536H191.126ZM275.478 278.229C276.165 279.418 276.911 280.402 277.327 281.515C278.422 284.393 280.797 285.428 283.486 285.827C286.311 286.243 289.196 286.286 291.978 285.522C297.493 284.002 301.802 280.997 303.83 275.377C304.008 274.884 304.178 274.307 304.084 273.823C303.363 270.096 302.591 266.386 301.802 262.676C301.7 262.209 301.404 261.785 301.174 261.301C294.396 269.79 286.269 275.886 275.486 278.229H275.478ZM144.56 351.919C145.179 358.693 145.764 365.162 146.367 371.767C151.72 373.89 157.226 375.426 163.054 376.954V358.252C157.014 356.189 150.999 354.126 144.56 351.927V351.919ZM212.555 352.98C212.08 352.7 211.877 352.504 211.639 352.445C205.539 350.925 199.44 349.389 193.323 347.937C192.661 347.776 191.847 347.937 191.185 348.166C184.95 350.416 178.74 352.725 172.521 355.009C171.919 355.23 171.317 355.45 170.333 355.815C171.317 356.13 171.877 356.333 172.454 356.486C178.91 358.26 185.382 359.984 191.822 361.826C192.95 362.149 193.849 362.14 194.893 361.622C199.075 359.551 203.308 357.573 207.508 355.535C209.136 354.746 210.748 353.897 212.555 352.98ZM299.698 383.763C299.571 383.559 299.529 383.407 299.427 383.339C299.096 383.109 298.748 382.897 298.392 382.702C292.835 379.68 286.914 377.88 280.576 377.574C272.144 377.175 263.787 377.659 255.609 379.968C254.922 380.164 254.243 380.418 253.319 380.724C255.066 382.286 256.873 382.999 258.706 383.61C265.051 385.733 271.626 386.675 278.277 386.887C284.937 387.1 291.512 386.03 298.052 384.85C298.68 384.739 299.444 384.739 299.69 383.763H299.698ZM248.492 261.683C248.127 257.311 248.636 253.38 249.79 249.534C250.986 245.561 253.158 242.148 255.949 239.126C258.697 236.155 262.277 234.457 265.993 232.954C265.603 232.674 265.289 232.572 264.967 232.496C261.726 231.791 258.468 231.146 255.245 230.365C254.371 230.153 253.709 230.238 252.954 230.662C246.769 234.134 243.105 239.474 241.671 246.317C240.814 250.417 241.824 254.272 244.14 257.744C245.158 259.263 246.379 260.613 248.483 261.683H248.492ZM274.188 328.054C279.584 327.655 284.53 326.246 289.493 324.964C290.4 324.735 290.646 324.098 290.519 323.266C290.282 321.73 290.053 320.193 289.739 318.665C289.068 315.422 289.102 312.213 290.069 309.029C290.282 308.333 290.502 307.646 290.748 306.881C288.33 305.744 286.023 305.854 283.809 306.958C279.041 309.335 276.046 313.24 274.867 318.385C274.282 320.932 274.282 323.623 274.053 326.246C274.01 326.764 274.12 327.299 274.18 328.054H274.188ZM148.513 348.472C148.666 348.727 148.717 348.905 148.81 348.93C153.298 350.442 157.785 351.944 162.282 353.421C162.587 353.523 162.969 353.583 163.266 353.498C164.878 353.039 166.481 352.581 168.059 352.029C172.403 350.518 176.738 348.973 181.064 347.411C182.065 347.054 183.033 346.587 184.432 346.001C183.448 345.687 182.905 345.501 182.354 345.348C177.73 344.066 173.09 342.809 168.475 341.493C166.956 341.061 165.506 340.577 164.174 341.926C163.962 342.147 163.554 342.173 163.24 342.3C161.289 343.073 159.321 343.803 157.395 344.618C154.435 345.866 151.491 347.173 148.521 348.463L148.513 348.472ZM142.15 255.647C135.491 255.265 129.976 252.82 126.108 247.149C125.887 247.599 125.735 247.777 125.726 247.955C125.54 250.723 125.353 253.499 125.2 256.275C125.175 256.666 125.243 257.107 125.421 257.447C126.447 259.433 127.347 261.505 128.619 263.321C129.603 264.722 130.876 266.165 132.36 266.938C135.363 268.5 138.706 268.568 142.159 268.228V255.647H142.15ZM130.104 227.393C129.926 227.419 129.747 227.444 129.569 227.47C128.882 230.051 128.398 232.708 127.474 235.204C125.998 239.194 127.525 242.301 129.883 245.281C130.222 245.706 130.553 246.139 130.927 246.529C133.964 249.704 137.764 250.927 142.193 251.029V238.888C139.359 238.005 136.704 236.859 134.575 234.762C132.479 232.699 130.994 230.246 130.104 227.402V227.393ZM169.773 196.856C166.634 195.94 161.552 195.337 160.161 195.71C159.898 201.814 159.626 207.952 159.355 214.192C162.774 214.702 165.896 215.169 169.289 215.678C169.459 209.226 169.612 203.079 169.773 196.856ZM276.097 290.098C274.553 285.258 272.195 280.793 268.352 277.092C265.756 280.071 263.813 283.255 261.938 286.473C261.768 286.761 261.573 287.092 261.573 287.406C261.59 289.053 260.92 290.276 259.147 291.091C262.888 293.103 266.468 294.767 270.031 295.921C272.093 293.943 273.985 292.127 276.097 290.098ZM280.61 289.342C281.077 290.649 281.476 291.583 281.739 292.551C282.146 294.062 283.121 295.098 284.521 295.565C286.108 296.091 287.779 296.584 289.425 296.669C295.168 296.949 300.122 295.293 303.567 290.327C305.145 288.052 305.696 285.598 305.136 282.482C298.282 289.648 290.086 291.278 280.602 289.342H280.61ZM414.489 385.232C413.437 383.101 412.453 381.055 411.427 379.034C410.595 377.404 410.536 376.946 411.842 375.639C413.514 373.975 415.355 372.464 417.102 370.867C417.62 370.401 418.451 370.18 418.485 369.237C418.264 369.17 418.052 369.025 417.9 369.076C415.066 369.985 412.258 370.952 409.408 371.81C408.661 372.039 407.804 372.081 407.015 372.005C403.172 371.632 399.346 371.165 395.512 370.766C393.62 370.57 391.728 370.426 389.836 370.256C393.891 372.913 397.972 375.282 402.027 377.702C406.141 380.155 410.239 382.659 414.489 385.223V385.232ZM142.371 233.854C142.583 227.538 142.795 221.23 143.016 214.82C141.998 214.591 141.081 214.396 140.174 214.175C139.317 213.963 138.519 213.666 137.713 214.421C136.611 215.466 134.982 216.077 134.846 217.885C134.668 220.313 134.447 222.741 134.447 225.178C134.447 229.406 137.942 233.192 142.379 233.863L142.371 233.854ZM173.539 197.578V216.196C175.363 216.442 177.255 216.688 179.342 216.968C179.588 210.635 179.817 204.574 180.055 198.393C178.35 198.104 176.763 197.824 175.168 197.587C174.719 197.519 174.252 197.578 173.539 197.578ZM277.667 294.792C271.397 298.918 268.92 309.564 270.795 316.016C273.73 308.664 278.235 303.087 286.54 301.185C282.706 300.039 279.355 298.63 277.667 294.792ZM142.252 272.719C140.004 272.584 137.917 272.533 135.856 272.303C133.769 272.074 131.648 271.667 129.926 270.41C128.28 269.213 126.846 267.736 125.277 266.352C124.946 270.206 126.066 272.881 128.992 275.071C131.427 276.896 134.193 277.923 137.204 278.263C138.944 278.458 140.683 278.509 142.583 278.008C142.464 276.2 142.354 274.477 142.244 272.719H142.252ZM148.352 303.129C148.072 301.058 147.885 299.326 147.597 297.611C147.402 296.482 147.164 295.344 146.757 294.283C146.231 292.882 144.483 292.101 143.287 292.746C140.258 294.385 138.723 297.11 137.73 300.353C141.327 301.295 144.644 302.161 148.343 303.138L148.352 303.129ZM153.069 193.877C152.661 200.337 152.28 206.458 151.889 212.715C153.077 212.953 154.172 213.173 155.385 213.42C155.724 206.951 156.055 200.762 156.386 194.445C155.368 194.267 154.401 194.106 153.077 193.877H153.069ZM429.963 386.395L430.031 385.987C425.331 383.772 420.64 381.547 415.94 379.332C415.855 379.416 415.77 379.51 415.685 379.595C417.263 381.989 418.833 384.383 420.453 386.845C423.651 387.524 426.79 386.59 429.972 386.386L429.963 386.395ZM404.063 357.734C403.774 356.894 403.605 356.011 403.189 355.272C402.069 353.303 399.94 353.235 398.557 355.06C397.539 356.41 397.48 358.413 398.421 360.026C399.635 362.123 402.027 362.166 403.257 360.069C403.647 359.39 403.783 358.566 404.071 357.726L404.063 357.734ZM422.336 366.368C422.379 368.278 424.228 370.341 425.806 370.231C427.104 370.137 428.496 368.371 428.462 366.852C428.436 365.434 427.096 364.381 425.323 364.39C423.575 364.398 422.311 365.239 422.336 366.368ZM152.891 304.105C155.122 303.757 156.36 301.516 156.589 297.45C155.139 296.949 153.663 296.431 152 295.853C152.314 298.799 152.602 301.448 152.891 304.097V304.105ZM416.576 389.468C415.321 390.368 414.998 391.175 415.414 392.567C415.889 394.154 417.195 395.343 418.51 395.377C419.656 395.411 420.691 394.689 420.988 393.67C421.293 392.618 420.809 391.726 419.588 391.081C418.604 390.563 417.628 390.028 416.576 389.468ZM400.305 380.469C398.837 381.114 397.548 381.675 396.258 382.243C395.028 382.795 393.798 383.356 392.568 383.916C392.619 384.026 392.67 384.137 392.712 384.247C396.453 383.789 400.186 383.339 403.927 382.88C403.944 382.744 403.953 382.617 403.97 382.481C402.689 381.777 401.408 381.072 400.296 380.461L400.305 380.469ZM388.258 386.692C388.258 385.02 387.198 383.644 385.891 383.653C384.686 383.653 383.787 384.739 383.804 386.174C383.813 387.634 385.119 388.993 386.477 388.959C387.588 388.933 388.25 388.093 388.25 386.692H388.258ZM261.166 271.819C261.251 273.526 260.954 274.842 261.421 276.302C262.413 275.36 263.261 274.562 264.271 273.611C263.253 273.025 262.379 272.516 261.166 271.819ZM192.483 76.2534C190.608 78.8003 190.456 80.0398 191.66 81.5849C192.907 80.0653 192.772 78.4183 192.483 76.2534ZM404.572 368.227C404.122 367.073 403.817 366.3 403.486 365.451C402.706 365.672 402.095 365.833 401.416 366.028C401.458 366.648 401.492 367.149 401.526 367.726C402.46 367.879 403.291 368.015 404.563 368.219L404.572 368.227Z" fill="#3D3D3D"/>
<path d="M217.187 307.892L217.654 349.584" stroke="#3D3D3D" stroke-width="5" stroke-miterlimit="10"/>
</svg>
