<svg width="719" height="1008" viewBox="0 0 719 1008" fill="none" xmlns="http://www.w3.org/2000/svg">
<g clip-path="url(#clip0_2123_161)">
<mask id="mask0_2123_161" style="mask-type:luminance" maskUnits="userSpaceOnUse" x="-144" y="-106" width="1052" height="1209">
<path d="M626.139 -105.343L-143.349 113.721L138.16 1102.56L907.649 883.493L626.139 -105.343Z" fill="white"/>
</mask>
<g mask="url(#mask0_2123_161)">
<path d="M394.108 803.35C384.9 830.049 366.117 843.969 337.888 845.381C337.9 846.212 337.955 847.058 337.902 847.894C337.811 849.338 337.788 850.789 337.513 852.192C336.101 859.127 331.612 862.962 324.542 863.213C320.719 863.347 316.947 863.056 313.416 861.199C302.908 855.644 299.953 842.664 307.022 833.072C311.659 826.783 320.267 825.525 327.012 828.362C328.468 828.968 329.439 828.943 330.692 828.096C336.523 824.143 342.075 819.86 347.097 814.879C355.512 806.533 361.271 796.519 365.425 785.517C366.902 781.599 367.271 777.412 367.557 773.263C367.605 772.547 367.456 771.701 367.118 771.069C363.008 763.506 360.785 755.327 359.017 746.979C358.95 746.653 358.839 746.354 358.696 745.851C356.943 745.966 355.274 746.189 353.604 746.174C349.031 746.138 344.438 746.266 339.904 745.808C337.098 745.52 334.264 744.578 331.652 743.44C327.262 741.536 324.815 738.005 324.473 733.133C324.444 732.797 324.414 732.461 324.344 732.123C324.302 731.976 324.171 731.841 324.006 731.584C322.391 731.765 320.731 732.065 319.053 732.119C317.364 732.176 315.639 732.203 313.989 731.891C308.493 730.885 305.094 726.844 304.848 721.242C304.8 720.236 304.844 719.229 304.846 717.983C304.007 718.103 303.294 718.199 302.573 718.312C299.89 718.692 297.22 719.16 294.515 719.414C293.099 719.551 291.626 719.441 290.208 719.195C283.624 718.088 279.6 712.873 280.37 706.24C280.645 703.909 281.494 701.64 282.154 699.359C282.434 698.391 282.901 697.477 283.411 696.205C282.407 696.252 281.613 696.253 280.829 696.331C275.064 696.938 269.31 696.933 263.605 695.801C261.461 695.378 259.31 694.744 257.268 693.935C253.239 692.325 249.659 688.574 250.372 682.673C250.427 682.26 250.401 681.843 250.422 681.36C248.376 680.631 246.381 679.94 244.403 679.218C239.052 677.283 236.276 673.806 237.438 666.783C237.883 664.073 239.187 661.502 240.239 658.923C240.541 658.175 241.279 657.607 242.074 656.638C239.454 655.98 237.593 655.529 235.746 655.034C231.156 653.823 227.046 651.694 223.599 648.369C218.585 643.528 217.923 638.695 221.75 632.861C223.226 630.612 225.121 628.629 226.96 626.356C223.25 623.357 222.186 619.248 222.775 614.535C222.06 614.115 221.409 613.731 220.769 613.343C219.837 612.761 218.874 612.213 217.976 611.568C212.032 607.271 210.466 601.819 213.213 595.022C214.817 591.04 217.111 587.485 219.808 584.186C220.336 583.532 220.849 582.87 221.522 582.029C220.655 581.494 219.887 581.023 219.127 580.537C212.366 576.3 211.006 568.922 215.942 562.614C217.243 560.959 218.851 559.547 220.354 558.045C221.125 557.269 221.973 556.578 222.95 555.69C222.12 554.959 221.383 554.32 220.651 553.654C216.767 550.136 216.117 545.948 218.967 541.559C220.198 539.658 221.816 538.004 223.344 536.125C222.53 535.588 221.68 535.062 220.855 534.488C216.102 531.124 215.164 525.879 218.549 521.138C220.857 517.911 224.026 515.617 227.156 513.281C227.822 512.787 228.507 512.314 229.443 511.65C228.375 510.828 227.451 510.137 226.532 509.417C225.664 508.737 224.817 508.037 223.966 507.326C221.023 504.837 219.84 501.795 221.061 498.002C221.155 497.684 221.178 497.346 221.26 496.938C217.255 492.95 214.137 488.313 211.694 483.217C206.455 472.293 203.942 460.724 204.101 448.647C204.287 433.74 206.13 418.983 209.496 404.469C210.639 399.519 212.053 394.638 212.962 389.608C213.927 384.219 215.86 379.163 218.925 374.554C222.102 369.78 226.46 366.552 231.682 364.456C233.723 363.636 235.845 363.005 237.975 362.452C239.071 362.166 239.686 361.541 240.3 360.677C244.914 354.169 246.386 346.939 245.247 339.127C244.811 336.11 244.1 333.146 243.411 329.658C242.46 330.406 241.864 330.774 241.371 331.273C237.857 334.724 234.375 338.194 230.874 341.642C224.238 348.156 216.197 351.266 206.969 351.23C202.455 351.216 198.017 350.307 193.791 348.701C192.425 348.175 191.097 347.228 190.102 346.147C188.614 344.543 188.775 342.509 190.546 341.25C192.549 339.831 192.751 337.985 192.561 335.879C192.243 332.299 190.984 329.133 188.55 326.434C187.739 325.538 186.901 325.008 185.684 325.381C185.611 325.402 185.518 325.402 185.426 325.401C183.062 325.319 180.6 324.801 178.368 325.277C176.238 325.738 174.418 327.475 172.321 328.284C166.206 330.635 161.317 329.442 156.944 324.486C155.386 322.73 153.94 320.716 153.039 318.574C148.462 307.607 148.606 297.058 156.423 287.399C159.944 283.044 163.598 278.783 166.857 274.251C168.967 271.305 170.768 268.063 172.171 264.722C174.599 258.942 176.732 253.008 178.772 247.074C181.415 239.404 184.696 232.07 189.326 225.385C189.907 224.544 190.431 223.785 190.077 222.587C187.725 214.511 187.426 206.169 187.042 197.85C186.422 184.524 185.685 171.204 185.33 157.882C185.176 152.042 185.646 146.171 186.192 140.331C186.803 133.65 189.027 127.386 192.27 121.546C200.281 107.18 219.348 100.388 234.637 106.477C241.393 109.165 246.103 114.237 249.674 120.416C254.972 129.549 255.45 139.311 252.919 149.281C251.969 153.05 250.421 156.671 248.981 160.3C246.905 165.503 244.488 170.577 242.602 175.845C241.29 179.504 240.593 183.373 239.677 187.172C239.485 187.982 239.476 188.833 239.351 190.021C240.447 189.829 241.327 189.671 242.215 189.537C244.887 189.121 247.559 188.612 250.254 188.322C251.334 188.213 251.903 187.799 252.402 186.902C257.127 178.322 264.271 172.432 273.016 168.312C278.37 165.795 284.025 164.383 289.837 163.524C295.373 162.716 300.475 160.8 305.134 157.658C310.927 153.756 316.099 149.117 321.265 144.453C327.315 138.994 333.333 133.517 340.201 129.071C346.421 125.047 352.874 121.514 360.079 119.555C364.546 118.337 369.072 117.883 373.68 118.228C386.876 119.241 395.836 127.954 397.171 141.143C398.31 152.44 395.547 162.94 390.315 172.804C385.463 181.963 378.962 189.923 371.296 196.862C365.505 202.115 358.598 205.539 351.389 208.413C341.602 212.313 331.364 213.372 320.968 213.602C316.897 213.701 312.825 213.707 308.77 213.908C306.341 214.016 303.924 214.399 301.193 214.7C301.554 215.366 301.687 215.739 301.928 216.028C311.603 227.531 319.638 240.099 325.772 253.843C329.648 262.532 333.536 271.218 337.189 280.01C339.076 284.548 340.47 289.306 342.013 293.981C344.388 301.163 346.617 308.387 350.15 315.132C351.277 317.276 352.831 318.649 354.961 319.766C358.94 321.853 362.857 324.09 366.611 326.546C381.841 336.469 396.976 346.524 412.193 356.45C414.53 357.971 417.109 359.132 419.576 360.457C423.218 362.428 426.759 361.95 430.273 360.128C434.307 358.039 437.904 355.345 440.908 351.959C443.551 348.981 446.048 345.858 448.52 342.743C453.796 336.099 458.882 329.298 464.295 322.761C471.043 314.599 478.861 307.59 488.134 302.352C496.277 297.742 504.885 294.483 514.413 294.553C517.605 294.572 520.864 294.916 523.988 295.577C534.817 297.848 542.696 303.966 547.446 314.103C550.868 321.384 552.988 328.877 552.184 337.016C551.682 342.128 550.174 346.864 547.174 351.005C541.687 358.583 534.763 364.224 525.417 366.329C521.777 367.153 518.12 367.916 514.429 368.423C510.167 369.014 506.778 370.999 503.974 374.156C496.388 382.676 487.716 390.074 478.887 397.199C469.983 404.385 460.979 411.454 452.515 419.164C447.57 423.672 441.675 426.331 435.686 428.937C430.953 430.987 426.112 431.636 421.023 430.992C416.646 430.435 412.241 430.152 407.888 429.497C397.791 427.985 388.437 424.208 379.352 419.705C376.55 418.316 373.779 416.852 370.822 415.336C370.503 416.076 370.232 416.656 370.005 417.251C368.882 420.274 367.975 423.408 366.608 426.315C365.312 429.056 363.609 431.621 361.939 434.163C361.468 434.88 360.521 435.362 359.707 435.753C357.283 436.947 354.803 438.037 352.209 439.239C352.343 439.943 352.546 440.654 352.622 441.387C352.889 443.856 351.79 445.851 350.266 447.65C347.303 451.131 343.573 453.637 339.56 455.707C330.908 460.158 321.81 463.317 312.277 465.276C311.867 465.366 311.47 465.506 311.078 465.803C312.127 465.769 313.177 465.696 314.224 465.702C320.836 465.702 327.443 465.636 334.041 465.772C336.049 465.81 338.082 466.265 340.032 466.796C341.309 467.148 342.572 467.822 343.633 468.62C346.01 470.421 346.776 473.344 345.236 475.876C344.029 477.863 342.429 479.723 340.671 481.257C335.446 485.805 329.388 489.054 323.037 491.736C321.031 492.586 319.007 493.374 316.782 494.802C317.46 495.047 318.185 495.225 318.819 495.548C326.38 499.345 327.856 505.829 322.626 512.498C321.385 514.084 319.887 515.465 318.417 517.036C319.283 517.571 320.076 518.034 320.828 518.536C325.097 521.455 326.091 526.155 322.941 530.232C321.199 532.477 318.869 534.28 316.766 536.23C316.095 536.845 315.277 537.316 314.251 538.032C315.207 538.463 315.94 538.81 316.686 539.155C322.137 541.671 323.044 545.693 319.172 550.346C318.581 551.058 317.939 551.731 317.189 552.58C317.865 553.143 318.503 553.664 319.116 554.192C322.471 557.106 323.365 560.801 321.256 564.727C320.103 566.857 318.372 568.675 316.858 570.603C316.355 571.25 315.712 571.778 314.68 572.8C315.699 573.173 316.469 573.325 317.081 573.707C320.334 575.749 322.115 578.661 322.132 582.578C322.143 585.822 321.184 588.771 319.514 591.5C318.855 592.575 318.149 593.624 317.323 594.906C318.279 594.965 318.999 594.986 319.709 595.062C320.554 595.152 321.414 595.199 322.226 595.405C326.077 596.389 327.505 599.733 325.37 603.057C324.428 604.531 323.15 605.849 321.849 607.041C318.357 610.288 314.454 612.976 310.269 615.28C302.541 619.534 294.751 623.62 286.526 626.876C277.388 630.498 267.845 631.771 258.138 631.91C249.894 632.031 241.708 631.287 233.678 629.28C232.766 629.049 232.068 629.155 231.35 629.744C229.032 631.636 226.947 633.741 225.443 636.355C223.677 639.442 223.906 641.364 226.289 643.972C228.514 646.4 231.153 648.285 234.267 649.28C237.324 650.265 240.494 650.9 243.616 651.694C244.385 651.886 245.071 651.836 245.673 651.161C250.356 645.919 256.421 642.695 262.629 639.695C274.103 634.15 285.833 629.273 298.11 625.805C304.141 624.088 310.205 622.441 316.306 620.969C319.757 620.132 323.301 619.667 326.824 619.127C327.635 619.003 328.528 619.119 329.332 619.341C331.998 620.066 333.349 622.676 332.062 625.123C331.179 626.806 329.966 628.489 328.492 629.678C324.084 633.238 319.476 636.564 314.942 639.962C314.134 640.563 313.285 641.109 312.57 641.896C313.304 641.687 314.04 641.531 314.76 641.273C320.938 639.05 327.29 637.626 333.839 637.126C334.926 637.042 336.053 637.052 337.124 637.238C340.998 637.884 343.115 641.045 342.253 644.894C341.982 646.125 341.412 647.281 340.913 648.642C341.953 648.902 342.811 648.247 343.721 648.054C347.108 647.315 350.469 646.438 353.88 645.878C355.332 645.637 356.95 645.839 358.409 646.179C362.571 647.14 364.607 650.947 363.265 655.013C362.439 657.501 360.878 659.495 358.962 661.22C358.215 661.897 357.415 662.522 356.759 663.424C357.184 663.197 357.628 662.991 358.042 662.728C364.488 658.335 370.856 653.806 377.929 650.454C381.202 648.899 384.701 647.81 388.132 646.622C389.072 646.301 390.129 646.252 391.139 646.269C394.733 646.306 396.599 647.935 397.234 651.464C397.309 651.867 397.347 652.28 397.43 652.945C398.084 652.64 398.6 652.454 399.063 652.176C404.044 649.234 409.17 646.569 414.895 645.403C417.032 644.967 419.287 644.709 421.446 644.863C426.419 645.236 429.78 648.771 429.753 653.788C429.749 656.373 428.987 658.948 428.52 661.533C428.383 662.261 428.075 662.945 427.764 663.895C431.008 662.561 433.951 661.286 436.937 660.117C441.301 658.398 445.819 657.125 450.528 657.083C453.38 657.066 456.261 657.478 459.058 658.06C460.746 658.414 462.347 658.648 464.059 658.439C469.307 657.779 474.561 657.887 479.756 658.899C485.122 659.956 489.625 662.49 493.837 666.088C497.66 669.346 501.687 672.479 506.5 674.475C516.771 678.733 527.145 682.842 537.049 687.854C554.647 696.758 567.557 710.335 574.668 728.996C577.665 736.875 577.617 744.787 574.162 752.581C573.783 753.431 573.454 754.32 573.273 755.22C572.769 757.907 573.591 759.634 576.016 760.905C577.291 761.576 578.628 762.136 579.998 762.581C586.52 764.726 593.068 766.824 599.608 768.937C618.262 774.957 634.236 785.263 647.695 799.466C653.176 805.247 657.617 811.788 659.985 819.502C660.81 822.169 661.413 824.939 661.739 827.708C662.963 838.186 657.71 847.327 648.089 851.577C635.084 857.32 622.131 856.369 609.38 850.737C604.505 848.574 600.512 845.046 597.187 840.891C593.682 836.522 590.381 831.989 587.047 827.479C583.956 823.31 580.697 819.295 576.865 815.775C573.281 812.475 569.146 810.26 564.414 809.156C557.228 807.465 550.061 805.702 542.848 804.151C538.058 803.117 534.216 800.725 531.231 796.884C530.039 795.342 528.987 793.693 527.803 792.136C526.693 790.65 525.494 789.228 524.384 787.835C521.311 789.863 518.465 791.759 515.517 793.712C515.945 793.961 516.478 794.3 517.037 794.591C518.993 795.611 520.95 796.631 522.915 797.635C533.081 802.824 540.99 810.537 547.275 819.932C553.106 828.661 555.604 838.458 555.844 848.871C555.99 855.376 555.386 861.802 552.769 867.847C551.734 870.249 550.503 872.614 549.027 874.77C547.952 876.335 546.503 877.794 544.91 878.844C540.121 881.996 534.77 884.01 529.211 885.248C523.067 886.613 517.264 884.952 511.719 882.29C505.315 879.21 500.13 874.657 495.776 869.072C491.335 863.367 486.971 857.559 483.697 851.124C479.114 842.132 471.406 838.934 462.068 838.372C459.875 838.241 457.66 838.448 455.465 838.543C449.772 838.798 444.105 838.543 438.475 837.628C430.959 836.402 425.215 832.671 421.83 825.657C420.714 823.365 419.541 821.101 418.404 818.828C417.275 816.579 415.79 814.616 413.535 813.429C407.076 810.021 400.607 806.668 394.147 803.299L394.108 803.35ZM165.579 313.242C165.652 313.407 165.68 313.598 165.776 313.703C173.381 321.648 183.392 324.39 193.751 318.923C198.949 316.185 202.62 312.171 203.465 306.034C203.6 305.068 204.118 304.099 204.649 303.272C205.254 302.331 206.271 302.095 207.353 302.41C208.359 302.693 208.915 303.436 209.077 304.423C209.396 306.426 209.791 308.421 209.888 310.434C210.159 316.028 210.445 321.631 210.425 327.229C210.415 329.75 209.785 332.274 209.261 334.756C208.437 338.687 206.152 341.67 202.88 343.927C202.282 344.335 201.715 344.762 200.738 345.464C210.607 346.961 219.119 345.227 226.283 338.709C229.223 336.03 231.987 333.149 234.789 330.311C240.848 324.186 247.642 319.019 254.861 314.367C255.354 314.054 255.871 313.734 256.413 313.501C263.063 310.521 269.694 307.52 276.365 304.614C289.022 299.089 297.993 289.631 304.664 277.807C306.105 275.25 307.066 272.353 307.759 269.492C308.468 266.547 308.592 263.451 308.958 260.418C309.047 259.664 308.959 258.841 309.242 258.164C309.503 257.547 310.174 257.117 310.66 256.595C311.173 257.098 311.897 257.501 312.164 258.114C312.518 258.941 312.612 259.921 312.624 260.846C312.761 266.345 311.875 271.686 309.97 276.84C305.093 289.995 296.177 299.649 284.152 306.558C278.844 309.606 273.215 311.99 267.419 313.932C260.354 316.288 254.715 320.914 248.686 325.148C248.96 326.621 249.155 327.957 249.452 329.277C250.528 334.032 251.167 338.833 250.817 343.69C250.392 349.721 249.65 355.709 246.057 360.88C245.945 361.044 245.998 361.321 245.95 361.666C246.873 361.747 247.703 361.829 248.542 361.895C264.846 363.19 277.115 373.12 281.608 388.856C284.742 399.863 284.753 411.004 282.412 422.152C282.097 423.647 282.005 424.905 282.889 426.243C283.331 426.913 283.447 427.834 283.568 428.674C284.447 435.248 284.979 441.854 284.608 448.493C284.567 449.233 284.551 449.967 284.519 450.97C285.714 450.987 286.719 451.125 287.703 451.004C293.328 450.277 299.035 449.885 304.561 448.67C322.489 444.705 339.73 438.512 356.789 431.774C359.501 430.71 361.087 428.986 362.213 426.532C362.351 426.228 362.529 425.925 362.624 425.607C364.256 420.518 366.368 415.53 367.397 410.321C369.129 401.586 370.459 392.74 371.443 383.886C373.013 369.658 370.118 356.33 362.277 344.211C358.264 338.013 354.393 331.707 350.247 325.6C345.342 318.356 341.674 310.536 339.083 302.223C335.108 289.467 330.538 276.947 325.2 264.699C319.214 250.966 312.609 237.568 303.888 225.329C301.969 222.628 299.854 220.077 297.872 217.434C297.084 216.386 296.186 216.112 295.017 216.697C294.415 217 293.802 217.308 293.168 217.541C290.144 218.627 287.182 219.974 284.066 220.689C276.256 222.475 268.928 221.076 262.215 216.587C258.733 214.252 255.629 211.478 252.947 208.28C249.499 204.16 247.916 199.482 249.301 194.079C249.374 193.78 249.36 193.453 249.411 192.935C248.525 193.028 247.76 193.034 247.043 193.211C244.251 193.9 241.413 194.523 238.68 195.42C230.067 198.243 222.326 202.779 214.751 207.665C199.753 217.368 189.24 230.564 183.695 247.646C182.857 250.23 181.96 252.792 181.122 255.376C177.196 267.505 171.299 278.473 162.495 287.777C161.275 289.065 160.224 290.53 159.144 291.938C158.824 292.347 158.671 292.881 158.362 293.512C161.291 292.93 163.915 292.302 166.587 291.886C170.565 291.27 174.558 291.127 178.366 292.707C183.883 294.992 185.34 300.898 181.433 305.429C179.265 307.941 176.739 310.171 173.523 311.232C170.974 312.077 168.317 312.595 165.581 313.295L165.579 313.242ZM538.053 876.635C539.655 869.023 538.845 861.952 536.201 855.033C535.742 853.838 535.255 852.639 535.035 851.403C534.922 850.772 535.156 849.831 535.602 849.399C536.326 848.69 537.308 849.073 537.828 849.786C538.824 851.146 539.906 852.534 540.491 854.077C542.706 859.86 543.825 865.835 542.928 872.067C542.869 872.508 542.957 872.96 543.001 873.808C545.279 871.358 546.76 868.896 547.729 866.168C552.454 852.897 551.396 839.841 545.308 827.33C541.074 818.636 534.599 811.641 526.621 806.147C521.571 802.669 516.124 799.886 510.469 797.534C509.868 797.281 509.235 797.104 508.355 796.798C507.841 797.872 507.402 798.884 506.884 799.853C504.565 804.25 501.247 807.739 496.953 810.168C489.227 814.527 481.087 817.984 472.288 819.362C468.136 820.015 463.85 819.87 459.619 819.921C458.342 819.94 456.888 819.851 455.9 818.33C456.403 817.961 456.81 817.488 457.316 817.357C458.708 817 460.115 816.693 461.546 816.564C466.187 816.143 470.815 815.674 475.331 814.349C481.882 812.417 488.064 809.65 493.921 806.207C500.944 802.075 504.77 795.817 504.885 787.582C504.993 780.157 503.379 773.05 499.964 766.443C495.184 757.176 488.01 750.234 478.902 745.274C475.991 743.691 473.005 742.262 470.06 740.742C469.347 740.375 468.75 739.856 468.991 738.939C469.275 737.891 470.157 737.693 471.017 737.925C472.82 738.406 474.648 738.879 476.339 739.617C482.036 742.116 487.357 745.292 492.28 749.112C495.644 751.732 498.715 754.621 501.156 758.179C507.42 767.315 510.254 777.454 510.174 788.462C510.165 789.034 510.196 789.608 510.199 790.177C512.534 790.109 515.683 789 517.732 787.277C521.979 783.709 525.79 779.723 528.298 774.689C532.397 766.419 534.709 757.678 534.327 748.392C533.685 732.991 528.986 718.852 520.359 706.109C514.769 697.854 508.202 690.395 501.233 683.289C500.955 683.01 500.627 682.786 500.211 682.44C500.061 682.841 499.919 683.04 499.902 683.257C499.444 690.106 497.041 696.342 493.781 702.266C488.738 711.401 481.675 718.831 473.593 725.279C457.49 738.119 439.984 748.443 420.203 754.631C410.306 757.727 400.387 760.604 389.985 761.365C382.147 761.94 374.372 761.755 367.062 758.284C366.94 758.226 366.742 758.322 366.478 758.371C366.635 758.922 366.719 759.495 366.939 759.989C368.887 764.045 370.687 768.184 372.85 772.113C380.874 786.778 392.124 798.098 407.422 805.152C409.811 806.247 412.141 807.466 414.51 808.633C418.14 810.422 420.82 813.144 422.622 816.779C424.016 819.589 425.497 822.374 427.007 825.124C428.991 828.747 432.1 831.029 436.016 832.1C438.125 832.679 440.321 833.194 442.5 833.276C447.826 833.495 453.164 833.619 458.499 833.452C464.12 833.269 469.475 834.196 474.682 836.225C478.981 837.903 482.515 840.608 485.087 844.487C486.032 845.901 486.907 847.348 487.773 848.811C491.721 855.478 496.043 861.88 501.023 867.804C503.943 871.279 507.3 874.246 511.286 876.45C511.852 876.766 512.459 876.991 513.154 877.297C513.352 876.644 513.562 876.173 513.635 875.689C514.441 869.973 514.398 864.341 512.169 858.88C511.759 857.857 511.382 856.811 511.094 855.754C510.846 854.883 510.927 853.867 511.927 853.661C512.5 853.538 513.318 853.994 513.85 854.426C514.348 854.827 514.649 855.51 514.952 856.113C516.751 859.55 517.897 863.159 518.004 867.064C518.123 871.059 518.021 875.023 516.812 879.091C521.509 880.908 526.107 881.454 530.772 879.675C533.217 878.741 535.604 877.65 538.025 876.63L538.053 876.635ZM371.952 411.131C375.141 412.715 378.294 414.361 381.493 415.889C390.336 420.103 399.432 423.622 409.197 424.99C414.404 425.72 419.65 426.122 424.879 426.607C425.966 426.709 427.116 426.66 428.163 426.388C435.272 424.51 441.997 421.747 447.638 416.895C453.81 411.587 459.825 406.098 466.02 400.823C469.893 397.52 474.146 394.666 477.911 391.262C485.769 384.162 494.203 377.693 501.307 369.76C503.924 366.829 507.305 365.138 511.228 364.471C515.569 363.739 519.918 362.991 524.217 362.019C531.684 360.331 537.199 355.686 541.892 349.872C542.811 348.735 542.796 347.706 541.779 346.737C539.696 344.759 537.703 342.636 535.418 340.928C531.332 337.864 526.661 337.577 521.821 338.783C521.239 338.922 520.664 339.272 520.11 339.23C519.512 339.175 518.686 338.92 518.427 338.477C518.166 338.022 518.32 337.169 518.573 336.62C518.804 336.13 519.363 335.68 519.875 335.481C521.443 334.902 523.041 334.196 524.673 333.983C532.327 332.996 538.364 336.18 543.457 341.621C544.007 342.206 544.554 342.78 545.316 343.596C546.993 338.666 547.303 333.993 546.772 329.202C546.546 327.199 545.636 325.722 544.129 324.468C538.693 319.96 532.494 317.975 525.462 318.638C524.96 318.688 524.455 318.819 523.949 318.804C523.052 318.768 522.233 318.445 522.052 317.436C521.869 316.468 522.372 315.728 523.274 315.458C524.567 315.077 525.897 314.685 527.227 314.571C532.062 314.136 536.68 315.074 541.044 317.21C541.659 317.512 542.304 317.779 543.343 318.226C540.156 310.467 535.279 305.137 527.84 302.325C518.325 298.726 508.884 299.241 499.52 302.861C490.037 306.528 481.909 312.261 474.704 319.374C468.769 325.237 463.631 331.762 458.522 338.345C454.207 343.906 449.931 349.51 445.429 354.926C442.16 358.864 438.103 361.941 433.607 364.453C428.039 367.562 422.363 368.343 416.668 365.062C410.564 361.552 404.492 357.967 398.605 354.104C390.373 348.695 382.336 342.993 374.204 337.424C369.509 334.215 364.801 331.01 360.096 327.818C359.408 327.351 358.664 326.967 357.937 326.551C358.052 327.605 358.443 328.236 358.838 328.878C361.995 334.115 365.276 339.276 368.285 344.595C371.276 349.852 373.634 355.395 375.008 361.338C377.262 371.112 377.01 380.91 375.449 390.71C374.382 397.414 373.163 404.095 371.947 411.159L371.952 411.131ZM656.533 829.442C656.824 826.934 656.235 823.75 655.132 820.618C652.69 813.668 648.646 807.73 643.596 802.488C630.874 789.295 615.878 779.637 598.484 773.816C592.448 771.797 586.364 769.938 580.359 767.845C576.306 766.428 572.153 765.079 569.554 761.247C568.647 762.102 567.927 762.824 567.177 763.488C566.46 764.129 565.641 764.177 564.825 763.681C564.005 763.172 563.688 762.334 564.008 761.462C564.438 760.279 565.012 759.135 565.593 758.016C566.853 755.616 568.327 753.315 569.435 750.84C572.004 745.139 572.632 739.262 570.581 733.221C567.572 724.417 563.029 716.541 556.734 709.667C550.366 702.721 543.29 696.586 534.826 692.449C525.368 687.841 515.629 683.828 506.007 679.571C505.446 679.32 504.831 679.204 504.239 679.028C504.673 680.136 505.372 680.825 506.02 681.568C510.891 687.112 515.883 692.568 520.582 698.253C530.946 710.78 536.649 725.376 538.629 741.39C540.525 756.83 537.414 771.126 527.866 783.716C527.781 783.834 527.8 784.04 527.819 783.968C529.895 786.849 531.836 789.623 533.86 792.319C534.925 793.739 536.102 795.087 537.351 796.361C538.808 797.854 540.633 798.739 542.671 799.206C549.783 800.825 556.868 802.532 564.006 804.051C570.397 805.412 575.947 808.231 580.711 812.745C585.675 817.454 589.646 822.949 593.645 828.449C596.293 832.082 598.968 835.72 601.916 839.107C609.596 847.92 619.783 850.585 630.974 850.592C631.054 850.596 631.122 850.51 631.304 850.406C631.742 847.949 631.727 845.435 631.108 842.935C629.73 837.351 626.366 833.247 621.569 830.239C620.636 829.657 619.691 829.078 618.814 828.413C618.109 827.885 617.562 827.127 618.029 826.212C618.561 825.199 619.548 825.183 620.462 825.559C621.707 826.079 622.955 826.651 624.116 827.341C631.972 832.035 636.198 838.796 635.894 848.132C635.865 848.776 635.946 849.429 635.975 850.229C641.23 849.316 646.064 847.9 650.229 844.74C652.762 842.813 654.755 840.616 653.844 837.045C653.753 836.726 653.837 836.371 653.82 836.032C653.713 833.147 652.858 830.515 651.094 828.221C648.153 824.394 644.701 821.189 640.173 819.311C639.706 819.113 639.219 818.934 638.796 818.656C637.979 818.107 637.32 817.42 637.787 816.32C638.191 815.37 639.053 815.284 639.937 815.417C640.433 815.487 640.929 815.651 641.41 815.805C644.123 816.65 646.504 818.092 648.675 819.912C651.79 822.537 654.565 825.457 656.549 829.451L656.533 829.442ZM343.515 205.699C346.606 204.527 349.741 203.463 352.77 202.163C358.974 199.522 364.721 196.111 369.565 191.339C374.481 186.495 378.832 181.201 382.641 175.439C387.358 168.319 390.437 160.552 391.657 152.108C392.391 147.022 392.424 141.938 390.875 136.959C389.187 131.543 385.836 127.621 380.593 125.323C377.329 123.894 373.901 123.465 370.405 123.493C362.823 123.571 355.96 126.174 349.413 129.748C341.401 134.122 334.332 139.765 327.581 145.875C322.557 150.432 317.383 154.834 312.16 159.156C305.399 164.765 297.58 167.958 288.858 169.143C283.79 169.83 278.928 171.333 274.33 173.623C264.709 178.429 257.463 185.448 253.63 195.722C252.685 198.257 252.567 200.769 253.809 203.132C254.905 205.218 256.15 207.315 257.729 209.052C265.473 217.581 278.693 219.886 288.727 214.3C295.587 210.479 302.857 208.7 310.629 208.595C315.464 208.53 320.289 208.429 325.117 208.247C331.317 208.006 337.464 207.302 343.506 205.715L343.515 205.699ZM234.837 191.677C234.895 190.906 235.005 190.318 234.983 189.728C234.786 184.112 235.927 178.739 237.999 173.564C240.075 168.362 242.389 163.251 244.465 158.048C245.845 154.581 247.259 151.091 248.165 147.494C250.301 139.107 249.56 130.93 245.186 123.324C241.306 116.57 236.05 111.534 228.004 110.167C224.111 109.5 220.239 109.555 216.375 110.337C206.792 112.257 199.582 117.358 195.293 126.264C192.733 131.578 190.966 137.17 190.621 143.111C190.325 148.112 189.903 153.135 190.055 158.127C190.455 170.774 191.081 183.423 191.78 196.051C192.18 203.172 192.916 210.264 193.527 217.378C193.572 217.908 193.808 218.411 194.08 219.367C199.781 212.868 205.953 207.652 212.859 203.248C219.81 198.818 227.005 194.874 234.825 191.681L234.837 191.677ZM244.173 444.845C243.782 444.029 243.585 443.661 243.424 443.283C240.678 437.028 239.528 430.478 239.745 423.671C239.774 422.842 239.952 421.983 240.264 421.218C240.412 420.858 241.049 420.491 241.438 420.513C241.844 420.543 242.312 420.98 242.565 421.358C242.773 421.67 242.718 422.176 242.785 422.594C243.471 426.864 244.048 431.166 244.873 435.41C245.518 438.791 247.028 441.819 249.076 444.602C249.871 445.674 250.785 446.143 252.088 446.077C257.028 445.823 261.558 444.454 265.587 441.465C266.994 440.415 267.445 439.399 266.976 437.611C265.436 431.689 264.082 425.727 262.664 419.77C262.47 418.951 262.322 418.105 262.242 417.267C262.166 416.441 262.444 415.606 263.337 415.537C263.903 415.482 264.722 415.805 265.042 416.231C265.639 417.029 266.097 417.985 266.372 418.953C267.334 422.469 268.213 426.022 269.088 429.563C269.605 431.655 270.036 433.772 270.635 436.437C271.485 435.148 272.005 434.417 272.47 433.636C275.065 429.186 276.716 424.396 277.643 419.336C279.193 410.891 279.196 402.449 277.496 394.015C274.502 379.178 264.325 368.374 248.279 366.223C235.989 364.581 224.183 371.189 219.811 382.822C214.196 397.751 214.915 412.494 222.685 426.594C225.777 432.206 229.559 437.318 234.984 440.995C237.686 442.823 240.569 444.122 244.189 444.854L244.173 444.845ZM212.163 412.071C211.998 412.701 211.762 413.312 211.69 413.942C210.813 421.36 209.816 428.773 209.116 436.208C208.275 445.193 208.163 454.182 209.95 463.108C211.77 472.197 214.84 480.798 220.291 488.376C228.623 499.944 244.348 503.431 256.834 496.471C262.084 493.545 266.004 489.196 268.858 483.984C277.08 468.923 280.728 452.844 279.046 435.646C278.992 435.131 278.76 434.641 278.516 433.783C277.685 435.185 277.101 436.2 276.485 437.196C272.549 443.67 266.872 447.884 259.611 449.832C249.938 452.413 240.931 450.366 232.611 445.155C225.466 440.683 221.027 433.824 217.24 426.514C214.89 421.975 213.211 417.193 212.142 412.091L212.163 412.071ZM331.71 723.666C331.872 723.818 332.047 723.967 332.209 724.12C335.869 722.575 339.518 720.992 343.204 719.492C352.982 715.516 362.149 710.415 370.749 704.296C371.551 703.723 372.348 702.993 372.868 702.169C377.314 694.98 383.151 689.144 389.989 684.269C397.33 679.026 405.297 674.863 413.445 671.059C417.412 669.201 420.109 666.18 422.37 662.648C423.897 660.252 424.644 657.535 424.689 654.673C424.746 651.622 423.3 649.98 420.293 649.962C418.533 649.959 416.737 650.245 415.031 650.665C408.598 652.271 403.021 655.674 397.555 659.284C395.54 660.613 393.808 662.1 392.516 664.203C391.639 665.632 390.494 666.952 389.272 668.095C386.119 671.047 382.986 674.072 379.569 676.701C372.789 681.918 365.942 687.087 358.877 691.907C354.113 695.145 349.959 698.952 346.398 703.397C342.211 708.618 338.167 713.97 334.154 719.339C333.166 720.654 332.517 722.23 331.704 723.694L331.71 723.666ZM337.156 840.487C357.629 842.583 383.414 828.497 389.697 800.352C382.805 794.072 376.795 787.037 371.642 779.202C365.633 802.459 351.909 819.472 331.923 831.35C333.711 834.471 335.394 837.411 337.156 840.487ZM229.03 611.376C230.844 611.893 232.271 612.494 233.753 612.682C237.453 613.139 241.167 613.407 244.876 613.755C246.533 613.906 248.015 613.445 249.533 612.787C253.42 611.111 257.302 609.37 261.307 608.017C275.867 603.091 290.651 599.001 305.902 596.779C306.716 596.667 307.606 596.4 308.251 595.925C311.374 593.658 314.133 590.991 315.653 587.365C316.291 585.845 316.641 584.102 316.673 582.45C316.688 581.385 316.103 580.121 315.396 579.262C313.656 577.147 309.48 576.6 307.012 577.872C299.509 581.757 291.573 584.401 283.29 586.057C274.605 587.787 265.805 588.278 256.982 588.458C254.786 588.5 252.834 589.029 250.899 589.991C245.851 592.514 241.338 595.8 237.213 599.612C233.746 602.811 231.208 606.714 229.027 611.364L229.03 611.376ZM468.307 675.171C467.465 671.422 465.988 668.278 463.272 665.752C461.96 664.535 460.639 664.169 458.877 664.764C453.491 666.562 448.023 668.119 442.661 670.003C438.346 671.523 434.148 673.314 430.336 675.95C426.017 678.942 421.621 681.85 417.084 684.493C402.151 693.17 389.748 704.745 378.563 717.761C377.977 718.445 377.474 719.184 376.849 720.011C382.16 724.357 388.337 724.36 394.307 725.125C412.116 698.258 436.448 681.392 468.295 675.175L468.307 675.171ZM258.402 677.618C259.001 677.818 259.296 677.973 259.613 678.015C271.83 679.771 283.822 679.021 295.406 674.557C297.908 673.593 300.446 672.38 302.512 670.718C309.487 665.115 316.814 660.101 324.857 656.208C329.53 653.95 332.939 650.408 335.863 646.277C336.515 645.362 336.819 644.202 337.454 642.762C335.99 642.636 334.999 642.362 334.056 642.484C330.868 642.902 327.588 643.133 324.54 644.04C317.225 646.216 309.911 648.444 302.812 651.193C295.238 654.132 287.934 657.788 280.442 660.968C273.454 663.924 267.377 668.079 262.335 673.781C261.183 675.077 259.856 676.223 258.426 677.611L258.402 677.618ZM395.998 735.802C395.948 738.042 397.062 738.984 398.757 739.177C400.424 739.365 402.164 739.532 403.807 739.263C408.239 738.571 412.66 737.75 417.055 736.79C430.179 733.928 442.58 729.272 453.709 721.585C462.982 715.182 472.247 708.754 481.384 702.151C484.103 700.184 486.6 697.804 488.848 695.296C491.519 692.322 493.726 688.925 494.407 684.861C495.588 677.953 491.81 668.401 482.703 665.256C478.625 663.846 474.444 663.42 470.18 663.401C469.637 663.397 469.09 663.566 468.217 663.708C471.075 667.148 472.413 670.968 473.361 674.991C474.257 675.12 475.012 675.171 475.733 675.336C477.292 675.701 478.906 675.983 480.383 676.57C483.564 677.851 485.067 680.391 485.015 683.785C484.965 686.582 484.152 689.159 482.255 691.276C480.951 692.734 479.608 694.15 478.192 695.493C468.059 705.189 456.783 713.196 443.846 718.761C435.494 722.358 427.041 725.599 418.086 727.406C416.762 727.677 415.437 728.041 414.172 728.521C411.08 729.692 408.025 730.946 404.951 732.179C401.971 733.372 398.995 734.577 395.957 735.8L395.998 735.802ZM340.533 473.292C338.947 471.902 338.19 471.428 335.188 471.289C329.522 471.034 323.85 470.807 318.186 470.935C305.167 471.236 292.49 474.09 279.77 476.558C278.405 476.827 277.817 477.551 277.314 478.755C274.697 485.078 271.387 490.963 266.42 495.769C266.223 495.958 266.175 496.303 265.955 496.829C267.825 496.522 269.391 496.262 270.969 495.998C280.739 494.317 290.532 492.854 300.49 492.947C301.911 492.967 303.363 492.726 304.747 492.385C311.161 490.758 317.419 488.632 323.436 485.845C328.447 483.518 333.21 480.784 337.412 477.149C338.676 476.06 340.039 474.997 340.529 473.28L340.533 473.292ZM240.916 511.723C241.297 512.131 241.422 512.387 241.613 512.452C247.712 514.784 253.807 517.103 259.921 519.391C261.474 519.97 263.039 519.895 264.654 519.435C271.992 517.293 279.491 515.9 287.056 514.833C294.811 513.739 302.571 513.265 310.327 514.913C311.325 515.12 312.143 515.019 312.914 514.336C314.438 513.001 316.074 511.78 317.518 510.348C318.406 509.473 319.12 508.355 319.688 507.239C320.944 504.775 320.698 503.308 318.423 501.729C316.86 500.65 315.012 499.732 313.172 499.355C308.342 498.371 303.445 497.844 298.571 499.258C297.837 499.467 297.076 499.538 296.318 499.661C287.268 501.085 278.151 501.811 268.993 502.113C267.316 502.167 265.575 502.371 263.994 502.9C258.3 504.826 252.645 506.887 247.012 508.98C244.978 509.732 243.057 510.742 240.925 511.707L240.916 511.723ZM485.079 705.936C484.99 705.855 484.91 705.759 484.821 705.678C484.337 705.975 483.83 706.238 483.368 706.568C475.802 711.996 468.249 717.472 460.663 722.878C454.084 727.547 447.231 731.764 439.754 734.86C429.686 739.025 419.207 741.796 408.476 743.632C405.409 744.147 402.234 744.375 399.131 744.252C395.279 744.102 392.353 742.232 391.095 738.324C391.057 738.189 390.851 738.115 390.536 737.847C382.207 741.291 373.439 743.708 364.488 745.063C364.441 750.006 365.984 752.641 370.158 753.97C373.359 754.994 376.723 755.706 380.06 756.094C386.431 756.825 392.779 756.131 399.006 754.822C409.8 752.557 420.375 749.427 430.587 745.208C442.233 740.409 452.94 733.889 463.174 726.589C470.585 721.312 477.487 715.452 483.238 708.341C483.864 707.567 484.452 706.75 485.058 705.955L485.079 705.936ZM400.801 724.522C400.926 724.685 401.049 724.836 401.187 724.996C401.942 724.953 402.71 724.959 403.464 724.864C407.74 724.323 412.152 724.259 416.121 722.361C421.616 719.736 427.105 717.047 432.445 714.109C443.327 708.109 453.147 700.609 462.198 692.083C464.764 689.669 466.897 686.942 467.961 683.525C468.243 682.61 468.35 681.639 468.64 680.244C454.487 682.882 441.953 688.094 430.275 695.619C418.428 703.245 408.987 713.234 400.813 724.519L400.801 724.522ZM392.184 651.285C390.62 651.505 389.461 651.57 388.346 651.835C384.521 652.751 380.971 654.358 377.61 656.349C361.834 665.69 346.851 676.143 333.114 688.323C326.704 694.004 320.767 700.186 315.768 707.201C315.27 707.913 314.841 708.684 314.156 709.807C315.233 709.5 315.793 709.38 316.333 709.187C324.963 706.054 333.073 701.837 341.109 697.456C346.113 694.733 350.647 691.428 354.773 687.431C365.363 677.154 376.793 667.831 388.661 659.073C391.25 657.156 391.903 654.758 392.184 651.285ZM234.109 534.823C235.246 535.334 235.99 535.718 236.771 536C241.957 537.863 247.156 539.682 252.336 541.573C253.827 542.116 255.277 542.101 256.818 541.847C262.915 540.827 268.993 539.693 275.127 538.941C284.532 537.787 293.965 536.639 303.479 536.938C304.533 536.97 305.754 536.754 306.635 536.225C309.753 534.357 312.822 532.41 315.778 530.296C316.988 529.435 317.961 528.164 318.825 526.924C319.792 525.536 319.599 524.346 318.215 523.388C317.059 522.577 315.684 522.068 314.373 521.46C313.308 520.969 312.317 521.065 311.244 521.662C304.572 525.311 297.301 526.851 289.82 527.47C281.499 528.156 273.246 527.457 265.038 525.938C263.975 525.737 262.817 525.524 261.784 525.751C256.32 526.949 250.865 528.184 245.46 529.59C241.518 530.607 237.729 532.07 234.104 534.851L234.109 534.823ZM231.491 580.025C231.933 580.231 232.148 580.382 232.388 580.433C238.833 582.03 245.378 582.817 251.989 583.135C252.644 583.16 253.341 583.054 253.986 582.857C260.726 580.846 267.455 578.838 274.174 576.752C283.788 573.777 293.666 572.29 303.662 571.723C306.576 571.556 308.883 570.74 310.944 568.829C311.813 568.025 312.806 567.331 313.57 566.438C314.614 565.226 315.655 563.963 316.425 562.577C317.399 560.842 317.036 559.568 315.583 558.272C313.668 556.564 312.269 556.247 310.633 557.19C306.283 559.701 301.669 561.61 296.849 562.983C283.967 566.65 270.841 567.365 257.582 565.946C255.63 565.733 253.92 565.994 252.163 566.746C245.279 569.74 239.011 573.737 233.18 578.432C232.608 578.886 232.114 579.424 231.488 580.013L231.491 580.025ZM350.6 667.894C350.528 667.782 350.453 667.658 350.381 667.546C350.03 667.752 349.687 667.942 349.336 668.148C345.828 670.366 342.38 672.699 338.812 674.801C332.98 678.237 327.219 681.878 321.123 684.806C311.703 689.343 301.715 692.399 291.499 694.698C290.555 694.913 289.688 695.12 289.274 696.126C288.072 699.012 286.544 701.819 285.704 704.815C284.041 710.681 287.129 714.467 293.245 714.488C293.748 714.49 294.271 714.514 294.774 714.424C298.372 713.823 301.953 713.162 305.545 712.589C306.823 712.385 307.33 711.472 307.869 710.484C310.59 705.455 313.975 700.901 317.773 696.639C324.894 688.622 332.722 681.372 341.276 674.908C344.379 672.567 347.497 670.235 350.6 667.894ZM293.806 688.82C294.741 688.713 295.075 688.724 295.381 688.637C303.43 686.531 311.413 684.099 318.825 680.359C325.697 676.905 332.288 672.882 338.848 668.841C344.182 665.56 349.34 661.985 354.422 658.325C355.935 657.232 357.152 655.56 358.142 653.927C359.076 652.376 358.417 651.225 356.616 651.075C354.87 650.936 353.051 651.003 351.318 651.325C345.865 652.334 340.74 654.349 335.718 656.64C333.894 657.478 331.94 658.325 330.477 659.643C323.177 666.24 314.962 671.388 306.068 675.497C305.003 675.985 303.864 676.535 303.063 677.346C299.726 680.721 296.817 684.438 293.811 688.792L293.806 688.82ZM368.897 711.727C368.207 712.136 367.511 712.573 366.789 712.964C362.497 715.352 358.34 718.032 353.878 720.058C346.327 723.493 338.598 726.541 330.903 729.66C329.764 730.117 329.264 730.683 329.296 731.866C329.346 734.781 330.316 737.168 332.968 738.679C335.526 740.137 338.316 740.973 341.201 741.119C345.597 741.325 349.997 741.265 354.401 741.217C356.23 741.186 358.048 740.881 359.823 740.707C361.236 734.567 363.931 729.4 367.296 724.546C368.169 723.291 369.026 722.027 369.949 720.81C370.517 720.065 370.571 719.374 370.325 718.463C369.774 716.341 369.41 714.179 368.897 711.727ZM320.396 600.962C315.958 600.516 311.824 600.394 307.947 602.571C303.592 605.017 299.296 607.671 294.676 609.516C280.499 615.182 265.837 618.866 250.443 619.048C249.69 619.05 248.854 618.996 248.197 619.29C244.662 620.853 241.177 622.547 237.718 625.122C238.895 625.356 239.692 625.554 240.504 625.667C247.743 626.707 255.023 627.006 262.31 626.588C271.001 626.088 279.421 624.354 287.459 620.86C295.168 617.512 302.653 613.751 309.842 609.412C312.932 607.539 315.705 605.106 318.576 602.884C319.269 602.343 319.8 601.608 320.409 600.958L320.396 600.962ZM325.459 625.201C325.366 625.015 325.274 624.83 325.181 624.644C322.2 625.228 319.184 625.689 316.236 626.435C311.056 627.751 305.939 629.287 300.769 630.64C290.55 633.297 280.794 637.214 271.213 641.558C265.592 644.112 260.241 647.239 254.789 650.156C253.849 650.662 253.047 651.421 251.748 652.387C253.088 652.403 253.831 652.457 254.586 652.414C266.416 651.789 278.044 650.175 289.141 645.77C294.583 643.611 300.117 641.678 305.43 639.251C312.337 636.105 318.33 631.471 324.132 626.625C324.634 626.204 325.027 625.682 325.471 625.197L325.459 625.201ZM332.648 843.003C331.746 839.695 330.225 837.094 328.161 834.766C325.145 831.371 321.733 830.302 316.947 832.261C315.799 832.733 314.504 832.876 313.312 833.242C312.704 833.429 312.03 833.66 311.568 834.083C307.352 837.947 306.01 845.776 308.704 850.827C312.09 857.191 317.794 859.622 325.189 858.749C329.719 858.214 332.091 855.816 333.014 851.3C333.604 848.402 333.282 845.552 332.652 843.015L332.648 843.003ZM316.107 545.296C313.759 543.46 308.362 542.015 305.893 542.492C305.642 542.537 305.404 542.632 305.166 542.726C296.01 546.286 286.481 548.164 276.739 549.016C269.644 549.645 262.539 549.865 255.523 548.073C254.595 547.834 253.501 547.986 252.529 548.197C247.694 549.189 243.05 550.763 238.561 552.783C237.082 553.442 235.659 554.205 233.712 555.17C235.183 555.692 236.02 556.077 236.913 556.286C241.851 557.465 246.806 558.611 251.752 559.774C253.438 560.169 255.053 560.08 256.722 559.485C266.311 556.053 276.15 553.544 286.144 551.626C293.908 550.145 301.69 549.095 309.608 550.339C310.3 550.447 311.221 550.384 311.765 550.017C313.497 548.808 315.135 547.454 316.107 545.296ZM282.461 463.389C283.151 463.444 283.567 463.511 283.974 463.501C301.569 463.197 318.458 459.674 334.508 452.362C338.218 450.669 341.754 448.642 344.741 445.804C345.75 444.841 346.874 443.912 347.132 442.447C345.974 441.306 344.937 441.985 343.932 442.311C338.039 444.187 332.188 446.211 326.248 447.968C315.845 451.049 305.356 453.876 294.493 454.835C291.074 455.133 287.616 455.11 284.054 455.236C283.547 457.819 283.028 460.458 282.445 463.38L282.461 463.389ZM284.02 653.469C283.976 653.362 283.917 653.247 283.873 653.14C283.152 653.345 282.433 653.563 281.708 653.756C272 656.308 262.148 657.655 252.092 657.497C246.458 657.404 246.394 657.41 243.978 662.536C243.197 664.203 242.654 666.014 242.257 667.823C242.022 668.857 242.193 670.015 242.327 671.09C242.485 672.343 243.21 673.263 244.353 673.839C246.942 675.129 249.648 676.042 252.29 676.588C256.174 672.766 259.865 669.052 263.632 665.422C266.327 662.813 269.353 660.666 272.757 659.061C275.052 657.97 277.354 656.904 279.63 655.792C281.115 655.065 282.564 654.255 284.023 653.481L284.02 653.469ZM243.601 588C237.833 586.74 232.405 585.556 226.805 584.328C224.433 586.726 222.186 589.38 220.471 592.412C219.388 594.324 218.407 596.312 217.66 598.38C216.882 600.523 216.893 602.746 218.334 604.695C219.82 606.71 221.832 608.019 224.233 609.204C228.24 599.821 235.229 593.432 243.589 588.004L243.601 588ZM337.994 705.419C329.208 709.444 320.62 713.466 311.496 716.209C311.018 716.345 310.475 716.897 310.317 717.366C308.827 721.885 309.95 726.945 316.212 727.203C318.889 727.316 321.6 726.756 324.259 726.343C324.843 726.257 325.575 725.531 325.791 724.94C328.24 718.399 332.249 712.832 336.513 707.417C337.029 706.767 337.497 706.09 337.982 705.422L337.994 705.419ZM225.299 578.25C231.39 572.7 237.892 568.132 245.038 564.203C239.166 562.39 233.624 560.668 227.82 558.862C227.392 559.169 226.691 559.634 226.029 560.14C225.017 560.905 223.966 561.629 223.069 562.52C221.697 563.878 220.248 565.245 219.18 566.834C217.033 570.069 217.732 573.501 220.892 575.728C222.251 576.693 223.787 577.395 225.296 578.238L225.299 578.25ZM255.595 682.392C254.767 685.662 255.63 687.948 258.628 689.188C261.187 690.235 263.951 690.932 266.682 691.374C272.764 692.345 278.858 691.777 284.916 690.9C286.124 690.729 286.851 690.124 287.491 689.12C288.802 687.038 290.262 685.058 291.652 683.019C292.018 682.491 292.32 681.928 292.936 680.931C280.28 684.415 267.954 684.691 255.587 682.408L255.595 682.392ZM251.296 522.682C251.383 522.431 251.48 522.165 251.567 521.915C251.214 521.883 250.833 521.939 250.533 521.812C245.522 519.727 240.499 517.646 235.52 515.485C234.571 515.08 233.867 515.254 233.171 515.783C230.088 518.145 226.82 520.321 223.993 522.981C220.591 526.175 221.137 528.789 225.171 531.02C225.391 531.143 225.628 531.234 225.84 531.373C227.285 532.313 228.471 532.161 229.985 531.16C232.718 529.335 235.58 527.54 238.626 526.395C242.721 524.845 247.054 523.902 251.275 522.701L251.296 522.682ZM391.805 729.853C385.361 728.958 379.006 728.329 373.825 723.973C370.249 728.927 366.875 733.704 365.326 739.644C365.924 739.699 366.182 739.771 366.413 739.745C374.577 738.507 382.338 735.9 389.977 732.864C391.309 732.339 391.711 731.43 391.812 729.877L391.805 729.853ZM444.604 712.595C445.039 712.591 445.222 712.631 445.362 712.565C446.208 712.192 447.063 711.803 447.882 711.384C459.302 705.695 469.101 697.843 477.945 688.726C479.172 687.462 479.895 685.958 480.028 684.198C480.167 682.409 479.776 681.593 478.137 681.039C476.748 680.573 475.258 680.401 473.61 680.048C472.992 687.817 468.796 693.146 463.384 697.642C457.855 702.237 452.165 706.64 446.549 711.114C445.965 711.572 445.375 712.005 444.6 712.583L444.604 712.595ZM244.43 544.645C239.395 542.66 234.753 540.801 230.104 539.011C229.629 538.828 228.769 538.781 228.494 539.071C226.613 541.012 224.673 542.929 223.108 545.097C221.959 546.683 222.345 547.991 223.833 549.409C224.687 550.226 225.694 550.88 226.619 551.624C227.46 552.299 228.208 552.232 229.146 551.673C231.035 550.552 232.989 549.519 234.994 548.617C237.984 547.275 241.025 546.065 244.442 544.642L244.43 544.645ZM170.55 322.481C168.621 321.002 166.562 319.667 164.806 318.007C162.965 316.279 161.47 314.187 159.719 312.353C158.644 311.228 157.254 310.524 155.528 309.942C156.801 315.436 159.387 319.828 163.093 323.557C165.43 325.913 168.509 325.394 170.55 322.481ZM446.61 662.969C446.557 662.785 446.496 662.617 446.432 662.437C445.135 662.806 443.779 663.059 442.536 663.572C437.281 665.691 432.047 667.883 426.805 670.051C422.064 672.024 417.811 674.692 414.147 678.359C412.109 680.397 409.786 682.132 407.61 684.01C407.166 684.401 406.76 684.835 406.335 685.247C411.505 682.411 416.6 679.542 421.339 676.166C426.962 672.18 432.686 668.457 439.077 665.869C441.566 664.855 444.091 663.924 446.606 662.957L446.61 662.969ZM301.841 555.294C291.136 555.505 280.819 557.913 270.62 561.015C281.391 561.129 291.891 559.783 301.841 555.294ZM394.007 694.389C393.53 694.71 393.261 694.879 392.995 695.061C387.979 698.53 383.004 702.053 377.927 705.446C374.662 707.635 374.269 710.808 374.229 714.755C381.001 707.791 387.403 701.198 394.007 694.389ZM241.962 505.316C239.624 504.909 237.782 504.664 235.984 504.249C234.258 503.852 232.541 503.347 230.872 502.736C229.188 502.115 227.572 501.317 225.924 500.593C225.797 500.749 225.669 500.904 225.529 501.063C226.025 501.783 226.385 502.675 227.038 503.204C229.162 504.905 231.363 506.505 233.591 508.057C234.071 508.398 234.938 508.655 235.409 508.454C237.501 507.58 239.504 506.533 241.965 505.329L241.962 505.316ZM205.16 322.115C202.351 325.486 198.936 336.065 199.009 340.921C201.236 338.524 202.853 336.169 203.478 333.208C203.816 331.655 204.163 330.085 204.389 328.51C204.685 326.531 204.861 324.546 205.145 322.107L205.16 322.115ZM278.092 521.904C286.109 522.842 293.999 522.265 301.674 519.497C293.689 518.855 285.905 520.315 278.092 521.904ZM227.749 616.723C227.543 619.763 228.692 621.755 231.278 623.033C233.275 621.643 235.186 620.317 237.292 618.843C234.046 618.124 231.039 617.456 227.749 616.723ZM199.76 320.009C197.014 321.466 194.581 322.768 192.136 324.074C193.339 326.117 194.534 328.175 195.8 330.346C197.124 326.868 198.364 323.653 199.76 320.009ZM290.778 605.021L266.887 611.822C275.146 610.637 283.097 608.373 290.778 605.021ZM280.602 470.981C284.301 470.272 287.774 469.602 291.234 468.935C288.195 468.713 285.179 468.803 282.163 468.8C280.867 468.799 280.625 469.53 280.59 470.984L280.602 470.981ZM290.104 579.148C290.104 578.962 290.096 578.792 290.096 578.607C285.916 578.882 281.989 580.371 277.915 581.16C277.952 581.335 277.992 581.522 278.029 581.697C282.057 580.842 286.076 580.003 290.104 579.148Z" fill="#3D3D3D"/>
<path d="M165.579 313.242C168.316 312.543 170.972 312.025 173.522 311.18C176.75 310.115 179.263 307.889 181.431 305.377C185.338 300.846 183.885 294.952 178.364 292.654C174.556 291.075 170.563 291.218 166.586 291.833C163.926 292.246 161.286 292.865 158.36 293.459C158.67 292.828 158.822 292.294 159.142 291.885C160.222 290.478 161.273 289.013 162.493 287.724C171.309 278.417 177.206 267.449 181.12 255.323C181.958 252.739 182.856 250.178 183.694 247.594C189.238 230.512 199.747 217.303 214.749 207.613C222.312 202.73 230.066 198.19 238.678 195.368C241.411 194.47 244.24 193.863 247.042 193.159C247.758 192.981 248.524 192.975 249.41 192.882C249.359 193.4 249.373 193.728 249.299 194.027C247.915 199.43 249.489 204.123 252.945 208.228C255.628 211.426 258.732 214.2 262.213 216.534C268.923 221.011 276.254 222.422 284.064 220.636C287.18 219.921 290.142 218.575 293.166 217.489C293.8 217.255 294.414 216.948 295.015 216.644C296.184 216.06 297.082 216.334 297.87 217.382C299.856 220.036 301.971 222.588 303.886 225.276C312.608 237.515 319.209 250.901 325.198 264.647C330.537 276.895 335.106 289.415 339.081 302.17C341.672 310.483 345.34 318.304 350.246 325.547C354.391 331.655 358.263 337.96 362.276 344.159C370.12 356.29 373.015 369.618 371.441 383.834C370.457 392.687 369.127 401.533 367.396 410.269C366.366 415.478 364.255 420.465 362.622 425.554C362.516 425.876 362.349 426.175 362.211 426.48C361.088 428.946 359.499 430.657 356.787 431.721C339.724 438.447 322.5 444.649 304.559 448.617C299.034 449.832 293.33 450.237 287.701 450.952C286.73 451.069 285.713 450.935 284.518 450.917C284.55 449.914 284.566 449.181 284.606 448.44C284.978 441.802 284.446 435.195 283.566 428.621C283.449 427.793 283.329 426.86 282.887 426.191C282.004 424.852 282.095 423.594 282.41 422.1C284.751 410.952 284.752 399.807 281.606 388.803C277.114 373.068 264.848 363.15 248.54 361.843C247.713 361.773 246.883 361.691 245.949 361.613C245.984 361.272 245.944 360.992 246.056 360.827C249.649 355.657 250.39 349.668 250.816 343.637C251.153 338.784 250.523 333.968 249.45 329.224C249.154 327.904 248.946 326.572 248.685 325.096C254.704 320.878 260.352 316.235 267.418 313.879C273.216 311.95 278.842 309.554 284.15 306.505C296.179 299.609 305.094 289.955 309.968 276.787C311.873 271.634 312.76 266.293 312.622 260.793C312.598 259.872 312.504 258.892 312.162 258.062C311.911 257.458 311.184 257.042 310.658 256.542C310.169 257.052 309.513 257.491 309.24 258.112C308.954 258.777 309.046 259.612 308.956 260.366C308.59 263.399 308.479 266.491 307.757 269.44C307.064 272.3 306.107 275.21 304.663 277.755C298.004 289.575 289.02 299.037 276.363 304.561C269.696 307.48 263.065 310.481 256.411 313.448C255.873 313.694 255.364 313.998 254.859 314.314C247.641 318.966 240.834 324.137 234.787 330.258C231.985 333.097 229.221 335.977 226.281 338.656C219.121 345.187 210.609 346.921 200.737 345.411C201.702 344.713 202.28 344.283 202.878 343.874C206.15 341.618 208.435 338.635 209.26 334.703C209.783 332.222 210.41 329.685 210.423 327.176C210.443 321.579 210.157 315.976 209.887 310.381C209.79 308.368 209.39 306.362 209.075 304.371C208.925 303.38 208.361 302.653 207.351 302.357C206.257 302.046 205.253 302.279 204.648 303.22C204.107 304.062 203.586 305.019 203.464 305.982C202.619 312.119 198.935 316.136 193.75 318.871C183.387 324.325 173.376 321.584 165.775 313.65C165.663 313.536 165.638 313.358 165.577 313.19L165.579 313.242ZM228.27 263.884C229.001 265.478 229.497 266.94 230.295 268.21C231.793 270.593 234.358 271.797 236.518 271.209C239.06 270.525 240.064 268.477 240.462 266.111C241.17 261.815 240.242 257.812 237.713 254.318C236.862 253.142 235.537 252.155 234.207 251.526C232.018 250.48 229.715 251.401 228.657 253.584C228.156 254.614 227.805 255.84 227.811 256.978C227.821 259.334 228.104 261.678 228.266 263.872L228.27 263.884Z" fill="#FBCC39"/>
<path d="M538.053 876.635C535.645 877.652 533.248 878.758 530.8 879.68C526.123 881.462 521.537 880.913 516.84 879.096C518.041 875.044 518.139 871.067 518.032 867.07C517.925 863.164 516.775 859.543 514.98 856.118C514.664 855.519 514.376 854.833 513.878 854.431C513.358 853.996 512.528 853.543 511.955 853.667C510.959 853.884 510.875 854.889 511.122 855.759C511.422 856.813 511.787 857.862 512.197 858.885C514.411 864.337 514.47 869.979 513.663 875.694C513.59 876.179 513.38 876.649 513.182 877.302C512.483 876.984 511.877 876.759 511.315 876.456C507.316 874.255 503.971 871.285 501.051 867.809C496.068 861.874 491.746 855.471 487.801 848.816C486.935 847.353 486.048 845.909 485.116 844.492C482.531 840.616 479.009 837.909 474.71 836.231C469.519 834.21 464.148 833.275 458.527 833.457C453.208 833.633 447.854 833.501 442.528 833.281C440.349 833.199 438.153 832.685 436.044 832.106C432.125 831.022 429.019 828.752 427.035 825.129C425.525 822.379 424.048 819.606 422.65 816.784C420.844 813.137 418.168 810.427 414.538 808.639C412.181 807.468 409.839 806.253 407.451 805.157C392.152 798.103 380.902 786.783 372.879 772.119C370.724 768.174 368.912 764.038 366.967 759.994C366.731 759.491 366.66 758.915 366.506 758.376C366.77 758.327 366.971 758.244 367.09 758.289C374.412 761.757 382.175 761.945 390.013 761.371C400.415 760.609 410.347 757.728 420.231 754.636C440.012 748.448 457.518 738.124 473.621 725.285C481.703 718.836 488.757 711.421 493.809 702.271C497.081 696.344 499.476 690.123 499.93 683.263C499.947 683.046 500.085 682.834 500.239 682.446C500.651 682.779 500.983 683.016 501.261 683.294C508.23 690.401 514.797 697.86 520.387 706.114C529.017 718.869 533.717 733.009 534.355 748.397C534.738 757.683 532.426 766.424 528.326 774.694C525.831 779.724 522.007 783.715 517.76 787.283C515.711 789.006 512.574 790.111 510.227 790.182C510.212 789.617 510.193 789.039 510.202 788.467C510.278 777.447 507.448 767.32 501.184 758.185C498.743 754.626 495.672 751.737 492.308 749.117C487.397 745.294 482.064 742.122 476.367 739.622C474.672 738.872 472.848 738.411 471.045 737.931C470.185 737.698 469.306 737.909 469.019 738.945C468.778 739.861 469.375 740.38 470.088 740.747C473.033 742.267 476.019 743.697 478.93 745.28C488.026 750.243 495.2 757.185 499.992 766.448C503.411 773.068 505.021 780.163 504.913 787.588C504.801 795.835 500.975 802.092 493.949 806.213C488.092 809.656 481.91 812.423 475.359 814.354C470.843 815.679 466.231 816.157 461.574 816.569C460.155 816.695 458.736 817.006 457.344 817.362C456.851 817.49 456.447 817.976 455.928 818.335C456.916 819.856 458.37 819.946 459.647 819.927C463.874 819.863 468.161 820.008 472.316 819.368C481.115 817.989 489.259 814.544 496.981 810.173C501.275 807.745 504.593 804.256 506.912 799.859C507.43 798.89 507.856 797.88 508.383 796.803C509.263 797.109 509.896 797.287 510.497 797.54C516.164 799.888 521.611 802.671 526.649 806.152C534.627 811.646 541.102 818.642 545.336 827.335C551.424 839.847 552.494 852.899 547.757 866.174C546.788 868.901 545.307 871.363 543.029 873.814C542.986 872.965 542.893 872.501 542.956 872.072C543.853 865.84 542.734 859.865 540.519 854.082C539.934 852.539 538.852 851.151 537.856 849.791C537.336 849.078 536.354 848.695 535.63 849.405C535.184 849.836 534.95 850.778 535.063 851.408C535.283 852.644 535.773 853.856 536.229 855.038C538.87 861.946 539.683 869.029 538.081 876.64L538.053 876.635Z" fill="#FBCC39"/>
<path d="M371.952 411.131C373.171 404.079 374.387 397.386 375.454 390.682C377.015 380.882 377.264 371.072 375.014 361.31C373.639 355.367 371.281 349.824 368.29 344.567C365.269 339.252 362 334.087 358.843 328.85C358.461 328.204 358.07 327.573 357.943 326.523C358.657 326.942 359.413 327.323 360.102 327.79C364.818 330.979 369.523 334.172 374.21 337.396C382.341 342.965 390.379 348.667 398.61 354.076C404.497 357.939 410.566 361.512 416.673 365.034C422.384 368.324 428.056 367.531 433.613 364.425C438.108 361.913 442.165 358.836 445.434 354.898C449.936 349.482 454.2 343.882 458.527 338.317C463.627 331.75 468.774 325.209 474.709 319.346C481.915 312.233 490.03 306.503 499.525 302.833C508.889 299.213 518.331 298.698 527.845 302.297C535.284 305.109 540.161 310.439 543.348 318.198C542.318 317.736 541.676 317.481 541.049 317.182C536.682 315.034 532.079 314.104 527.232 314.543C525.89 314.66 524.572 315.049 523.279 315.43C522.374 315.688 521.886 316.436 522.057 317.408C522.238 318.417 523.042 318.731 523.954 318.776C524.448 318.794 524.966 318.66 525.467 318.61C532.499 317.947 538.698 319.932 544.134 324.44C545.641 325.694 546.551 327.171 546.777 329.174C547.321 333.962 546.999 338.638 545.321 343.568C544.559 342.752 544.009 342.166 543.463 341.593C538.37 336.152 532.332 332.968 524.678 333.955C523.034 334.171 521.448 334.874 519.881 335.453C519.365 335.639 518.797 336.106 518.578 336.592C518.325 337.141 518.171 337.994 518.433 338.449C518.691 338.892 519.517 339.147 520.115 339.202C520.669 339.244 521.244 338.894 521.826 338.755C526.654 337.553 531.322 337.827 535.423 340.9C537.711 342.621 539.701 344.731 541.785 346.708C542.813 347.674 542.817 348.707 541.897 349.844C537.205 355.658 531.69 360.303 524.222 361.991C519.923 362.963 515.574 363.711 511.233 364.443C507.322 365.106 503.933 366.813 501.313 369.732C494.211 377.677 485.774 384.134 477.917 391.234C474.151 394.638 469.899 397.492 466.025 400.794C459.83 406.07 453.815 411.559 447.643 416.867C441.993 421.735 435.277 424.482 428.168 426.36C427.121 426.632 425.971 426.681 424.884 426.579C419.655 426.094 414.409 425.692 409.202 424.962C399.437 423.594 390.341 420.075 381.498 415.861C378.287 414.337 375.137 412.703 371.958 411.103L371.952 411.131Z" fill="#FBCC39"/>
<path d="M656.533 829.442C654.562 825.445 651.787 822.525 648.66 819.903C646.489 818.083 644.107 816.641 641.394 815.797C640.914 815.642 640.418 815.479 639.921 815.408C639.037 815.275 638.176 815.362 637.772 816.311C637.313 817.396 637.963 818.099 638.781 818.648C639.203 818.925 639.691 819.104 640.157 819.303C644.686 821.181 648.137 824.385 651.078 828.212C652.842 830.506 653.709 833.135 653.804 836.023C653.822 836.363 653.738 836.718 653.828 837.036C654.751 840.603 652.75 842.816 650.213 844.731C646.048 847.891 641.202 849.311 635.959 850.22C635.918 849.424 635.85 848.767 635.878 848.123C636.183 838.787 631.957 832.026 624.101 827.332C622.939 826.643 621.692 826.07 620.446 825.55C619.532 825.174 618.533 825.194 618.013 826.203C617.534 827.121 618.077 827.868 618.799 828.404C619.676 829.069 620.629 829.632 621.554 830.231C626.354 833.25 629.706 837.358 631.092 842.926C631.712 845.426 631.726 847.94 631.288 850.397C631.107 850.502 631.026 850.591 630.958 850.584C619.768 850.576 609.58 847.911 601.901 839.099C598.952 835.711 596.265 832.077 593.629 828.441C589.63 822.941 585.659 817.446 580.695 812.737C575.932 808.223 570.381 805.403 563.99 804.042C556.853 802.523 549.768 800.817 542.655 799.197C540.618 798.731 538.789 797.834 537.335 796.352C536.09 795.09 534.922 793.727 533.844 792.311C531.808 789.618 529.88 786.84 527.803 783.96C527.784 784.031 527.765 783.825 527.851 783.708C537.402 771.13 540.513 756.834 538.613 741.381C536.645 725.364 530.943 710.768 520.567 698.245C515.867 692.56 510.875 687.103 506.004 681.56C505.356 680.817 504.645 680.131 504.223 679.019C504.815 679.195 505.434 679.324 505.991 679.563C515.614 683.82 525.352 687.832 534.81 692.441C543.271 696.565 550.351 702.712 556.719 709.658C563.014 716.532 567.557 724.408 570.566 733.212C572.625 739.238 571.988 745.13 569.419 750.831C568.308 753.294 566.838 755.607 565.577 758.007C564.984 759.13 564.423 760.27 563.992 761.453C563.684 762.322 563.986 763.151 564.809 763.672C565.616 764.184 566.445 764.121 567.161 763.479C567.923 762.812 568.644 762.09 569.539 761.239C572.137 765.071 576.29 766.419 580.343 767.836C586.348 769.93 592.435 771.801 598.468 773.807C615.875 779.625 630.858 789.286 643.581 802.48C648.63 807.721 652.69 813.668 655.116 820.61C656.219 823.741 656.808 826.926 656.517 829.433L656.533 829.442Z" fill="#FBCC39"/>
<path d="M343.515 205.699C337.473 207.287 331.329 208.002 325.126 208.231C320.298 208.413 315.461 208.518 310.638 208.579C302.866 208.685 295.596 210.463 288.736 214.284C278.702 219.87 265.482 217.565 257.738 209.036C256.159 207.299 254.914 205.202 253.817 203.116C252.576 200.753 252.698 198.254 253.639 195.707C257.472 185.432 264.717 178.414 274.339 173.607C278.937 171.318 283.811 169.811 288.867 169.127C297.576 167.946 305.408 164.749 312.169 159.141C317.392 154.818 322.566 150.416 327.59 145.859C334.337 139.737 341.409 134.107 349.421 129.732C355.968 126.159 362.819 123.559 370.413 123.477C373.91 123.449 377.338 123.878 380.602 125.308C385.845 127.605 389.2 131.539 390.884 136.943C392.433 141.922 392.403 147.019 391.665 152.092C390.437 160.552 387.358 168.319 382.649 175.423C378.838 181.173 374.478 186.482 369.574 191.323C364.73 196.095 358.983 199.506 352.779 202.147C349.734 203.438 346.615 204.512 343.523 205.683L343.515 205.699Z" fill="#8C6239"/>
<path d="M234.837 191.677C227.018 194.871 219.822 198.814 212.871 203.245C205.977 207.645 199.793 212.864 194.092 219.364C193.82 218.408 193.581 217.893 193.539 217.375C192.932 210.272 192.193 203.168 191.792 196.047C191.089 183.407 190.468 170.77 190.067 158.123C189.904 153.135 190.337 148.108 190.633 143.108C190.978 137.166 192.749 131.587 195.306 126.261C199.59 117.342 206.804 112.254 216.387 110.334C220.255 109.564 224.123 109.496 228.016 110.164C236.05 111.534 241.318 116.567 245.198 123.32C249.572 130.927 250.313 139.104 248.178 147.49C247.259 151.091 245.845 154.581 244.477 158.045C242.401 163.247 240.099 168.355 238.011 173.561C235.94 178.735 234.798 184.109 234.995 189.724C235.017 190.314 234.907 190.902 234.849 191.674L234.837 191.677Z" fill="#8C6239"/>
<path d="M244.173 444.845C240.556 444.125 237.658 442.817 234.968 440.986C229.544 437.309 225.761 432.198 222.669 426.585C214.895 412.473 214.18 397.742 219.795 382.813C224.167 371.18 235.986 364.569 248.264 366.215C264.321 368.362 274.486 379.169 277.48 394.006C279.181 402.44 279.177 410.882 277.627 419.327C276.697 424.375 275.049 429.178 272.454 433.627C272.001 434.405 271.47 435.139 270.62 436.428C270.023 433.775 269.593 431.659 269.073 429.554C268.209 426.01 267.318 422.461 266.357 418.945C266.084 417.988 265.636 417.016 265.026 416.222C264.703 415.784 263.875 415.477 263.321 415.529C262.432 415.61 262.153 416.444 262.227 417.258C262.294 418.1 262.455 418.942 262.648 419.762C264.063 425.706 265.408 431.684 266.96 437.602C267.43 439.39 266.978 440.407 265.571 441.456C261.542 444.445 257.013 445.814 252.073 446.068C250.769 446.134 249.852 445.653 249.061 444.593C247.012 441.811 245.499 438.77 244.857 435.401C244.044 431.154 243.456 426.856 242.769 422.585C242.703 422.167 242.761 421.673 242.549 421.349C242.296 420.971 241.828 420.534 241.423 420.504C241.033 420.482 240.397 420.849 240.248 421.209C239.937 421.974 239.758 422.833 239.73 423.663C239.524 430.466 240.662 437.019 243.408 443.274C243.569 443.652 243.766 444.02 244.157 444.836L244.173 444.845Z" fill="#FBCC39"/>
<path d="M212.163 412.071C213.244 417.17 214.911 421.956 217.261 426.495C221.048 433.805 225.487 440.664 232.632 445.136C240.952 450.347 249.963 452.406 259.632 449.813C266.893 447.865 272.57 443.651 276.506 437.177C277.122 436.18 277.706 435.166 278.537 433.763C278.781 434.622 279.001 435.115 279.067 435.627C280.746 452.812 277.101 468.903 268.879 483.965C266.025 489.177 262.118 493.523 256.855 496.452C244.369 503.412 228.647 499.937 220.312 488.357C214.846 480.77 211.791 472.178 209.971 463.089C208.184 454.163 208.284 445.177 209.137 436.188C209.837 428.754 210.822 421.344 211.711 413.922C211.783 413.292 212.028 412.666 212.184 412.052L212.163 412.071Z" fill="#FBCC39"/>
<path d="M337.156 840.487C335.391 837.399 333.711 834.471 331.923 831.35C351.909 819.472 365.633 802.459 371.642 779.202C376.783 787.041 382.805 794.072 389.697 800.352C383.426 828.494 357.641 842.579 337.156 840.487Z" fill="#FBCC39"/>
<path d="M468.307 675.171C436.448 681.392 412.124 698.242 394.32 725.122C388.353 724.369 382.163 724.369 376.862 720.008C377.486 719.181 377.986 718.429 378.575 717.758C389.76 704.741 402.163 693.167 417.096 684.49C421.634 681.846 426.029 678.938 430.348 675.947C434.169 673.295 438.367 671.504 442.674 670C448.035 668.115 453.507 666.571 458.89 664.76C460.651 664.166 461.972 664.532 463.284 665.749C466 668.275 467.477 671.419 468.319 675.168L468.307 675.171Z" fill="#A58426"/>
<path d="M395.998 735.802C399.035 734.579 402.011 733.374 404.991 732.181C408.065 730.948 411.12 729.694 414.212 728.522C415.477 728.043 416.802 727.679 418.127 727.408C427.081 725.601 435.534 722.359 443.887 718.763C456.823 713.198 468.099 705.191 478.232 695.495C479.648 694.151 480.991 692.735 482.295 691.278C484.192 689.161 485.005 686.584 485.056 683.787C485.108 680.393 483.604 677.853 480.423 676.572C478.943 675.973 477.332 675.703 475.774 675.338C475.048 675.16 474.294 675.11 473.401 674.993C472.454 670.969 471.115 667.15 468.258 663.71C469.13 663.568 469.677 663.399 470.22 663.403C474.475 663.437 478.669 663.86 482.743 665.257C491.851 668.402 495.628 677.954 494.447 684.863C493.75 688.917 491.544 692.315 488.888 695.297C486.64 697.806 484.144 700.186 481.424 702.153C472.284 708.744 463.022 715.183 453.749 721.587C442.629 729.258 430.219 733.93 417.095 736.792C412.712 737.748 408.291 738.569 403.847 739.265C402.201 739.521 400.461 739.354 398.797 739.179C397.102 738.985 395.988 738.044 396.038 735.803L395.998 735.802Z" fill="#A58426"/>
<path d="M485.079 705.936C484.473 706.731 483.898 707.544 483.259 708.322C477.508 715.432 470.606 721.293 463.195 726.57C452.958 733.857 442.254 740.389 430.608 745.189C420.392 749.396 409.833 752.534 399.027 754.803C392.8 756.111 386.439 756.809 380.081 756.075C376.744 755.687 373.38 754.975 370.179 753.951C366.006 752.622 364.462 749.987 364.509 745.044C373.476 743.697 382.231 741.284 390.557 737.827C390.872 738.096 391.078 738.17 391.116 738.304C392.366 742.229 395.3 744.083 399.152 744.232C402.255 744.356 405.43 744.128 408.497 743.613C419.22 741.792 429.707 739.006 439.775 734.841C447.252 731.745 454.105 727.528 460.684 722.859C468.286 717.461 475.826 711.989 483.39 706.549C483.851 706.219 484.358 705.956 484.842 705.659C484.931 705.739 485.011 705.836 485.1 705.916L485.079 705.936Z" fill="#A58426"/>
<path d="M400.801 724.522C408.971 713.225 418.416 703.248 430.263 695.622C441.932 688.113 454.463 682.889 468.628 680.248C468.35 681.639 468.243 682.61 467.949 683.529C466.885 686.945 464.749 689.661 462.186 692.086C453.147 700.609 443.323 708.097 432.433 714.113C427.093 717.05 421.616 719.736 416.109 722.364C412.14 724.263 407.727 724.326 403.451 724.868C402.698 724.963 401.929 724.956 401.175 724.999C401.049 724.836 400.927 724.685 400.789 724.526L400.801 724.522Z" fill="#A58426"/>
<path d="M332.648 843.003C333.278 845.54 333.604 848.402 333.01 851.288C332.091 855.816 329.715 858.202 325.186 858.736C317.79 859.609 312.074 857.182 308.701 850.814C306.019 845.761 307.361 837.931 311.565 834.071C312.026 833.648 312.701 833.416 313.309 833.23C314.513 832.861 315.796 832.721 316.944 832.248C321.733 830.302 325.141 831.359 328.158 834.754C330.222 837.081 331.746 839.695 332.645 842.991L332.648 843.003Z" fill="#8C6239"/>
<path d="M391.805 729.853C391.704 731.405 391.302 732.315 389.97 732.84C382.331 735.876 374.57 738.483 366.406 739.721C366.166 739.762 365.92 739.687 365.319 739.619C366.871 733.691 370.246 728.914 373.818 723.949C378.999 728.304 385.354 728.933 391.798 729.828L391.805 729.853Z" fill="#A58426"/>
<path d="M444.604 712.596C445.366 712.021 445.969 711.584 446.553 711.126C452.181 706.649 457.855 702.237 463.388 697.654C468.799 693.159 472.995 687.83 473.614 680.061C475.273 680.41 476.752 680.585 478.141 681.051C479.779 681.605 480.171 682.421 480.032 684.21C479.898 685.971 479.176 687.475 477.949 688.738C469.105 697.855 459.306 705.707 447.886 711.396C447.051 711.806 446.208 712.192 445.366 712.577C445.226 712.644 445.039 712.591 444.607 712.608L444.604 712.596Z" fill="#A58426"/>
<path d="M170.55 322.481C168.509 325.394 165.427 325.901 163.093 323.557C159.387 319.828 156.801 315.436 155.528 309.942C157.254 310.524 158.648 311.24 159.719 312.353C161.47 314.187 162.965 316.279 164.806 318.007C166.562 319.667 168.621 321.002 170.55 322.481Z" fill="#FBCC39"/>
<path d="M205.16 322.115C204.876 324.555 204.701 326.54 204.405 328.519C204.166 330.097 203.828 331.651 203.494 333.217C202.853 336.169 201.252 338.533 199.024 340.93C198.951 336.074 202.367 325.495 205.176 322.124L205.16 322.115Z" fill="#FF7756"/>
<path d="M199.76 320.009C198.361 323.64 197.136 326.865 195.8 330.346C194.534 328.175 193.331 326.133 192.136 324.074C194.581 322.768 197.018 321.479 199.76 320.009Z" fill="#803C2B"/>
<path d="M228.27 263.884C228.108 261.69 227.821 259.334 227.815 256.99C227.808 255.852 228.16 254.626 228.66 253.596C229.718 251.413 232.022 250.492 234.211 251.539C235.528 252.171 236.866 253.155 237.716 254.33C240.249 257.837 241.177 261.839 240.465 266.123C240.068 268.489 239.064 270.537 236.521 271.221C234.361 271.81 231.793 270.593 230.298 268.222C229.5 266.952 229.005 265.49 228.273 263.896L228.27 263.884Z" fill="#3D3D3D"/>
</g>
</g>
<defs>
<clipPath id="clip0_2123_161">
<rect width="512.813" height="901.304" fill="white" transform="translate(0 140.412) rotate(-15.891)"/>
</clipPath>
</defs>
</svg>
