<svg width="1291" height="748" viewBox="0 0 1291 748" fill="none" xmlns="http://www.w3.org/2000/svg">
<path d="M307.734 24.7724C209.119 63.5815 144.505 86.3907 45.8907 125.2C44.2239 125.31 42.5571 125.486 40.8218 125.772C24.6791 128.412 12.7833 135.188 4.74621 145.704C-12.972 168.871 22.3502 194.018 54.0877 181.522C105.142 161.435 122.195 157.348 173.249 137.24C180.533 248.893 187.794 360.546 195.077 472.2C195.214 474.224 195.694 476.094 196.31 477.876C196.584 479.482 196.881 481.11 197.224 482.716C201.06 504.431 206.174 526.013 212.818 547.376C214.668 553.294 216.54 559.212 218.664 565.086C220.285 569.575 223.504 572.633 230.377 572.017C231.039 571.951 231.815 571.841 232.546 571.753C234.783 571.841 237.09 571.533 239.122 570.851C239.35 570.763 239.647 570.653 239.898 570.543C243.186 569.795 246.337 568.805 248.666 567.529C253.301 564.976 253.324 560.312 248.871 557.628C244.875 555.208 238.665 555.516 233.505 556.748C233.071 555.45 232.591 554.306 232.34 553.602C231.564 551.358 230.856 549.114 230.126 546.848C228.139 535.958 225.559 525.133 222.408 514.397C221.7 508.699 220.855 503.023 219.691 497.368C219.577 496.796 219.417 496.224 219.28 495.652C234.92 499.591 253.826 496.554 262.479 486.478C269.375 485.51 276.818 486.984 281.705 490.79C288.669 496.224 288.463 503.727 283.714 509.887C279.535 515.321 271.11 523.593 277.663 529.753C280.654 532.57 286.111 534.88 290.427 536.376C295.541 538.158 300.861 538.95 306.41 537.806C307.985 537.476 309.697 536.2 309.469 534.902C308.259 528.015 300.724 523.043 291.614 522.647C292.733 520.403 295.153 517.785 296.089 516.487C300.587 510.239 304.332 503.903 302.574 496.708C299.491 483.992 283.577 476.908 267.16 475.17C267.229 474.202 267.297 473.212 267.229 472.178C259.351 351.306 251.474 230.413 243.597 109.541C277.115 96.3405 310.656 83.1621 344.175 69.9617C385 53.9012 348.627 8.68989 307.757 24.7504L307.734 24.7724Z" fill="#817EB9"/>
<path d="M672.052 149.714C653.946 114.073 617.185 84.6585 569.213 69.1701C565.926 68.114 562.683 67.454 559.51 67.058C522.11 40.7452 477.746 67.344 455.758 92.3807C430.984 120.608 412.787 152.443 401.644 184.894C378.469 252.304 382.442 324.026 406.028 391.062C417.559 423.843 433.268 458.186 472.837 478.668C509.757 497.765 558.299 497.765 593.302 476.27C627.208 455.457 641.228 423.205 652.37 393.108C666.709 354.475 676.025 314.895 681.048 275.052C686.14 234.703 691.756 188.502 672.052 149.692V149.714ZM608.417 278.814C603.371 316.435 593.119 353.792 578.62 390.072C572.09 406.396 558.391 446.041 525.124 440.057C488.409 433.435 479.481 389.83 472.426 367.873C462.471 336.852 457.63 305.215 458.292 273.358C458.886 243.965 464.343 214.946 475.714 186.698C481.308 172.815 488.135 159.241 496.879 146.238C501.926 138.714 507.451 131.344 513.433 124.194C516.447 120.586 519.552 117.043 522.795 113.545C523.662 112.973 524.302 112.423 524.895 111.917C525.854 112.137 526.836 112.313 527.795 112.445C529.325 113.149 530.946 113.809 532.772 114.403C625.154 144.214 616.751 216.574 608.417 278.836V278.814Z" fill="#FBCC39"/>
<path d="M958.391 40.1327C941.124 77.1086 924.127 114.152 907.396 151.285C896.517 141.931 884.782 132.923 875.889 121.533C853.084 92.3783 834.813 60.8775 817.331 30.0632C799.296 -1.77067 734.982 19.2592 753 51.0253C769.428 79.982 787.139 108.674 807.216 136.511C812.312 143.576 817.764 150.495 823.884 157.119C831.126 163.751 838.775 170.176 846.428 176.556C852.292 180.574 858.338 184.873 861.849 189.593C863.405 190.942 864.96 192.313 866.491 193.682C867.669 194.38 868.895 195.038 870.019 195.819C873.049 197.892 875.473 200.332 877.515 202.959C877.989 203.575 878.251 204.26 878.421 204.937C879.646 206.412 880.217 208.029 880.162 209.725C880.154 209.812 880.126 209.876 880.118 209.964C880.427 210.101 880.71 210.28 880.996 210.415C845.163 291.453 810.607 372.823 777.327 454.546C753.062 467.487 728.795 480.451 704.552 493.394C699.25 486.068 689.841 479.05 678.818 480.107C672.278 480.734 668.942 485.127 671.134 489.733C673.712 495.168 681.246 500.014 687.39 503.438C693.119 506.627 701.299 511.154 708.31 508.514C716.389 505.458 723.788 500.731 731.114 496.838C744.275 489.871 757.139 482.635 769.833 475.23C768.346 489.787 783.721 500.964 800.6 504.277C800.365 512.56 800.129 520.865 799.894 529.148C799.741 534.368 799.613 539.569 799.46 544.789C799.382 547.278 799.329 549.746 799.252 552.235C799.25 552.257 799.246 552.301 799.244 552.323C795.079 551.72 790.774 551.944 787.167 553.377C782.847 555.101 779.547 559.078 782.417 562.727C785.577 566.732 794.186 567.895 799.782 568.114C803.641 568.271 809.806 568.273 813.574 566.568C814.092 566.414 814.526 566.164 814.899 565.821C815.436 565.448 815.885 565.023 816.205 564.498C817.422 562.616 816.978 560.06 817.111 557.996C817.34 554.549 817.571 551.08 817.8 547.632C818.217 541.22 818.658 534.788 819.075 528.376C819.612 520.296 820.148 512.238 820.686 504.158C829.042 502.142 836.076 497.384 839.425 489.127C897.826 345.05 960.196 201.978 1026.53 60.0209C1041.23 28.587 973.112 8.74459 958.412 40.1566L958.391 40.1327Z" fill="#9EC376"/>
<path d="M1289.56 368.604C1282.53 334.085 1247.82 315.231 1209.81 297.784C1173.85 281.284 1121.22 267.753 1118.91 232.596C1117.38 209.319 1123.04 159.686 1154.96 147.41C1186.91 135.111 1207.09 182.853 1193.48 198.187C1168.27 226.59 1230.7 252.881 1255.77 224.61C1300.41 174.316 1238.3 79.1415 1147.84 93.904C1104.82 100.922 1076.94 126.245 1063.29 155.33C1049.09 185.603 1041.35 223.466 1050.32 255.015C1060.5 290.854 1098.84 308.85 1138.66 327.067C1175.58 343.963 1227.91 357.736 1216.89 395.555C1208.98 422.682 1180.83 455.243 1143.04 464.615C1098.09 475.769 1070.25 448.18 1067.76 418.524C1064.96 385.061 992.782 384.819 995.614 418.524C1000.91 481.731 1070.09 535.831 1162.2 515.106C1239.79 497.638 1301.39 426.928 1289.49 368.582L1289.56 368.604Z" fill="#5476B7"/>
<path fill-rule="evenodd" clip-rule="evenodd" d="M834.393 558.618H1128.16C1184.94 558.618 1230.97 601.013 1230.97 653.309C1230.97 705.604 1184.94 748 1128.16 748H169.14C112.355 748 66.3239 705.604 66.3239 653.309C66.3239 601.013 112.355 558.618 169.14 558.618H201.425C202.087 574.327 216.061 586.867 233.277 586.867C250.492 586.867 264.466 574.305 265.128 558.618H770.689C771.352 574.327 785.325 586.867 802.541 586.867C819.757 586.867 833.731 574.305 834.393 558.618ZM1143.16 650.757C1143.16 664.05 1131.98 674.826 1118.18 674.826C1104.38 674.826 1093.2 664.05 1093.2 650.757C1093.2 637.464 1104.38 626.688 1118.18 626.688C1131.98 626.688 1143.16 637.464 1143.16 650.757ZM187.34 674.956C201.136 674.956 212.319 664.18 212.319 650.887C212.319 637.594 201.136 626.818 187.34 626.818C173.545 626.818 162.361 637.594 162.361 650.887C162.361 664.18 173.545 674.956 187.34 674.956ZM401.669 628.926C401.669 628.086 401.809 627.561 402.089 627.351C401.389 626.511 400.794 625.916 400.304 625.566C399.884 625.216 399.254 624.761 398.414 624.201C398.134 623.781 397.784 623.431 397.364 623.151C396.944 622.801 396.594 622.416 396.314 621.996C395.964 621.856 395.544 621.681 395.054 621.471C394.634 621.261 394.249 621.086 393.899 620.946C393.269 620.526 392.674 620.316 392.114 620.316C391.554 620.316 390.854 620.211 390.014 620.001C389.524 620.141 388.999 620.176 388.439 620.106C387.879 619.966 387.284 620.106 386.654 620.526C386.374 621.086 386.024 621.646 385.604 622.206C385.184 622.766 384.799 623.361 384.449 623.991C383.889 625.321 383.609 626.406 383.609 627.246C383.679 628.016 383.399 629.101 382.769 630.501C382.699 630.571 382.349 630.956 381.719 631.656C381.159 632.286 380.844 632.706 380.774 632.916C380.704 633.686 380.529 634.491 380.249 635.331C380.039 636.101 379.899 636.906 379.829 637.746C379.759 638.586 379.584 639.391 379.304 640.161L378.674 642.471C378.394 642.751 378.079 643.346 377.729 644.256C377.379 645.166 377.029 646.041 376.679 646.881C376.329 647.721 375.944 648.246 375.524 648.456C375.384 648.456 375.174 648.211 374.894 647.721C374.614 647.231 374.334 646.706 374.054 646.146C373.844 645.516 373.704 645.131 373.634 644.991L373.214 644.151C373.144 643.871 373.039 643.626 372.899 643.416C371.919 642.576 371.324 641.981 371.114 641.631C370.904 641.211 370.624 640.546 370.274 639.636C369.784 638.586 369.539 637.326 369.539 635.856C369.539 635.506 369.504 635.191 369.434 634.911C369.434 634.561 369.399 634.246 369.329 633.966C369.329 633.826 369.259 633.721 369.119 633.651C369.049 633.511 368.979 633.406 368.909 633.336L368.174 631.551C368.104 631.411 367.964 631.271 367.754 631.131C367.544 630.921 367.369 630.711 367.229 630.501C367.159 630.361 367.054 630.186 366.914 629.976C366.844 629.766 366.844 629.626 366.914 629.556C366.984 629.066 366.949 628.646 366.809 628.296C366.739 627.946 366.634 627.596 366.494 627.246C366.424 626.896 366.354 626.511 366.284 626.091C366.284 625.601 366.109 625.111 365.759 624.621C365.619 624.411 365.304 624.271 364.814 624.201C364.394 624.131 364.044 623.921 363.764 623.571C363.414 623.011 363.169 622.381 363.029 621.681C362.889 620.981 362.574 620.316 362.084 619.686C361.594 619.826 361.244 619.721 361.034 619.371C360.824 619.021 360.439 618.776 359.879 618.636C359.389 618.496 358.829 618.461 358.199 618.531C357.639 618.531 357.079 618.566 356.519 618.636C355.889 618.636 355.329 618.881 354.839 619.371C354.629 619.441 354.384 619.476 354.104 619.476C353.824 619.336 353.579 619.231 353.369 619.161C353.229 619.021 353.019 618.916 352.739 618.846C352.389 618.986 352.179 619.161 352.109 619.371C351.969 619.651 351.619 620.141 351.059 620.841C350.499 621.471 350.149 621.891 350.009 622.101C349.239 623.221 348.679 624.201 348.329 625.041C348.049 625.811 347.629 626.826 347.069 628.086C346.719 629.066 346.089 629.766 345.179 630.186C345.039 630.256 344.934 630.396 344.864 630.606C344.864 630.746 344.829 630.886 344.759 631.026C344.829 631.306 344.934 631.621 345.074 631.971C345.214 632.321 345.249 632.671 345.179 633.021C344.759 633.791 344.374 634.526 344.024 635.226C343.674 635.856 343.324 636.556 342.974 637.326C342.764 637.676 342.589 638.096 342.449 638.586C342.379 639.006 342.274 639.426 342.134 639.846C341.924 640.266 341.679 640.686 341.399 641.106L340.664 642.576C340.734 642.926 340.769 643.311 340.769 643.731C340.769 644.151 340.804 644.536 340.874 644.886C340.804 645.306 340.664 645.691 340.454 646.041C340.244 646.391 340.104 646.846 340.034 647.406C339.894 648.176 339.614 648.911 339.194 649.611C338.844 650.311 338.424 651.046 337.934 651.816C337.934 651.886 337.864 651.956 337.724 652.026C337.654 652.026 337.619 651.991 337.619 651.921C337.409 651.921 337.164 651.851 336.884 651.711C336.744 651.291 336.569 650.871 336.359 650.451C336.219 650.031 336.044 649.646 335.834 649.296C335.764 648.736 335.729 648.211 335.729 647.721C335.729 647.231 335.694 646.741 335.624 646.251C335.344 645.411 335.029 644.606 334.679 643.836L333.629 641.526C333.209 640.336 332.824 639.461 332.474 638.901C332.124 638.271 331.704 637.711 331.214 637.221C330.794 636.731 330.094 636.066 329.114 635.226C329.044 635.226 328.834 634.946 328.484 634.386C328.204 633.756 327.924 633.161 327.644 632.601C327.364 631.971 327.189 631.621 327.119 631.551C326.699 630.641 326.209 629.696 325.649 628.716C325.159 627.736 324.739 626.756 324.389 625.776C323.899 625.146 323.514 624.481 323.234 623.781C323.024 623.011 322.814 622.276 322.604 621.576C322.534 621.296 322.429 621.051 322.289 620.841C322.149 620.631 321.904 620.491 321.554 620.421C319.734 620.841 317.984 621.541 316.304 622.521C315.324 623.011 314.589 623.431 314.099 623.781C313.609 624.061 312.839 624.341 311.789 624.621C311.509 624.761 311.194 624.866 310.844 624.936C310.564 624.936 310.249 625.041 309.899 625.251C308.989 626.161 308.289 627.211 307.799 628.401L308.219 629.661C308.359 630.011 308.464 630.431 308.534 630.921C308.604 631.271 308.674 631.656 308.744 632.076C308.814 632.426 308.989 632.776 309.269 633.126C309.409 633.266 309.514 633.476 309.584 633.756C309.724 633.966 309.794 634.211 309.794 634.491C309.934 635.051 310.109 635.611 310.319 636.171C310.529 636.661 310.704 637.221 310.844 637.851C311.194 639.181 311.614 640.511 312.104 641.841C312.594 643.101 313.014 644.431 313.364 645.831C313.644 646.881 313.889 647.931 314.099 648.981C314.379 650.031 314.659 651.116 314.939 652.236C315.709 653.146 316.444 654.091 317.144 655.071C317.914 656.051 318.649 656.996 319.349 657.906C319.489 658.816 319.629 659.446 319.769 659.796C319.979 660.076 320.469 660.741 321.239 661.791C321.239 662.981 321.694 664.101 322.604 665.151C322.604 665.921 322.674 666.691 322.814 667.461C322.954 668.231 323.164 668.966 323.444 669.666L324.074 670.296C324.354 670.506 324.599 670.786 324.809 671.136C324.949 671.836 325.229 672.466 325.649 673.026C326.069 673.516 326.314 674.146 326.384 674.916C326.524 675.616 326.769 676.281 327.119 676.911C327.539 677.471 327.924 678.066 328.274 678.696C328.764 678.556 329.219 678.556 329.639 678.696C330.059 678.766 330.514 678.836 331.004 678.906L331.424 678.696C331.634 678.626 331.809 678.521 331.949 678.381C332.229 678.311 332.474 678.241 332.684 678.171L333.314 677.961C334.014 678.101 334.644 678.276 335.204 678.486C335.834 678.696 336.394 678.871 336.884 679.011L340.034 678.381C340.804 678.241 341.749 677.926 342.869 677.436C343.079 676.736 343.359 676.176 343.709 675.756C343.849 675.336 344.024 674.951 344.234 674.601C344.514 674.181 344.724 673.761 344.864 673.341C344.934 672.641 345.179 672.046 345.599 671.556C346.089 671.066 346.369 670.506 346.439 669.876C346.579 669.176 346.859 668.581 347.279 668.091C347.699 667.601 348.014 667.041 348.224 666.411C348.434 665.921 348.714 665.501 349.064 665.151L350.219 663.996C350.359 663.436 350.569 662.876 350.849 662.316C351.199 661.756 351.479 661.161 351.689 660.531L352.109 658.851C352.249 658.221 352.564 657.661 353.054 657.171C353.754 656.471 354.104 655.491 354.104 654.231C354.104 653.811 354.069 653.391 353.999 652.971V651.606C353.999 651.326 354.139 651.186 354.419 651.186C355.049 651.186 355.609 651.536 356.099 652.236C356.869 653.146 357.604 654.091 358.304 655.071C359.074 656.051 359.809 657.031 360.509 658.011C360.859 658.571 361.174 659.236 361.454 660.006C361.594 660.426 361.734 660.881 361.874 661.371C362.084 661.791 362.259 662.211 362.399 662.631C362.609 663.121 362.784 663.576 362.924 663.996C363.134 664.416 363.239 664.906 363.239 665.466C363.239 665.746 363.379 665.991 363.659 666.201C364.009 666.411 364.219 666.656 364.289 666.936C364.639 667.636 365.024 668.301 365.444 668.931C365.864 669.561 366.284 670.226 366.704 670.926C367.054 671.346 367.299 671.801 367.439 672.291L368.069 673.551C368.209 673.621 368.384 673.761 368.594 673.971C368.874 674.181 368.979 674.426 368.909 674.706C368.699 675.336 368.664 675.966 368.804 676.596C369.014 677.156 369.259 677.786 369.539 678.486C369.749 678.766 370.064 678.976 370.484 679.116C370.974 679.186 371.464 679.221 371.954 679.221H373.529H374.684C375.104 679.221 375.489 679.256 375.839 679.326C376.119 679.396 376.574 679.396 377.204 679.326C377.834 679.326 378.289 679.396 378.569 679.536C379.059 679.396 379.619 679.151 380.249 678.801C380.879 678.451 381.334 678.101 381.614 677.751C381.964 676.631 382.104 675.896 382.034 675.546C382.034 675.196 382.104 674.846 382.244 674.496C382.384 674.146 382.769 673.446 383.399 672.396C383.749 671.906 383.994 671.416 384.134 670.926C384.344 670.366 384.589 669.841 384.869 669.351C385.219 669.001 385.464 668.651 385.604 668.301C385.814 667.881 386.024 667.426 386.234 666.936C386.234 665.746 386.374 664.556 386.654 663.366C387.004 662.106 387.494 660.916 388.124 659.796C388.404 659.446 388.614 659.061 388.754 658.641C388.964 658.221 389.209 657.836 389.489 657.486L389.909 656.226C390.049 655.806 390.224 655.421 390.434 655.071C390.784 654.791 391.064 654.511 391.274 654.231C391.484 653.951 391.729 653.671 392.009 653.391C392.149 652.901 392.254 652.446 392.324 652.026C392.464 651.606 392.639 651.186 392.849 650.766C393.269 649.646 393.759 648.596 394.319 647.616C394.879 646.566 395.194 645.481 395.264 644.361C395.894 643.451 396.349 642.471 396.629 641.421L397.469 638.271C397.469 637.921 397.399 637.606 397.259 637.326C397.189 636.976 397.154 636.661 397.154 636.381C397.154 636.031 397.294 635.821 397.574 635.751C397.994 635.611 398.309 635.541 398.519 635.541C398.869 635.121 399.184 634.736 399.464 634.386L400.304 633.336C400.234 633.196 400.164 633.021 400.094 632.811C400.024 632.601 399.954 632.426 399.884 632.286C400.094 631.936 400.339 631.656 400.619 631.446C400.969 631.166 401.214 630.886 401.354 630.606C401.564 630.256 401.669 629.696 401.669 628.926ZM429.13 624.516C429.2 623.956 429.13 623.431 428.92 622.941C428.85 622.521 428.745 622.101 428.605 621.681C428.535 621.191 428.43 620.736 428.29 620.316C428.22 619.896 428.08 619.476 427.87 619.056L427.45 617.796C427.24 616.816 426.785 616.011 426.085 615.381C425.805 615.241 425.49 615.136 425.14 615.066C424.79 614.996 424.545 614.786 424.405 614.436C423.845 613.526 423.075 613.141 422.095 613.281H421.255C420.975 613.281 420.73 613.246 420.52 613.176C420.1 613.036 419.68 612.966 419.26 612.966H417.79C417.23 613.246 416.635 613.526 416.005 613.806C415.445 614.086 414.92 614.436 414.43 614.856C413.94 615.066 413.485 615.381 413.065 615.801C412.715 616.151 412.26 616.396 411.7 616.536C411.56 616.606 411.455 616.711 411.385 616.851C411.385 616.921 411.35 616.991 411.28 617.061V617.691C411.28 617.901 411.315 618.111 411.385 618.321L410.86 619.371C410.65 619.721 410.65 620.106 410.86 620.526C410.86 620.806 410.825 621.016 410.755 621.156C410.545 621.646 410.545 622.136 410.755 622.626C410.965 623.116 410.965 623.606 410.755 624.096C410.545 624.306 410.545 624.481 410.755 624.621C410.965 625.321 411.035 626.021 410.965 626.721C410.895 627.351 410.825 627.946 410.755 628.506L411.385 630.396C411.735 630.536 412.085 630.711 412.435 630.921C412.855 631.061 413.205 631.236 413.485 631.446H414.535C414.955 631.446 415.34 631.516 415.69 631.656C415.83 631.796 416.005 631.936 416.215 632.076C416.495 632.216 416.74 632.356 416.95 632.496C417.3 632.496 417.685 632.531 418.105 632.601H419.365C419.575 632.741 419.855 632.811 420.205 632.811C420.835 632.811 421.675 632.671 422.725 632.391C423.775 632.041 424.545 631.691 425.035 631.341C425.245 631.201 425.42 631.061 425.56 630.921C425.7 630.711 425.875 630.571 426.085 630.501L426.925 629.451C427.275 629.101 427.59 628.716 427.87 628.296C428.01 627.946 428.185 627.596 428.395 627.246C428.605 626.826 428.745 626.406 428.815 625.986C428.955 625.496 429.06 625.006 429.13 624.516ZM428.08 648.561C428.08 648.001 428.15 647.511 428.29 647.091C428.22 646.111 428.08 645.376 427.87 644.886C427.8 644.536 427.555 644.361 427.135 644.361C426.785 644.431 426.435 644.606 426.085 644.886C425.735 645.096 425.315 645.166 424.825 645.096L424.09 644.676L423.88 644.466C423.88 644.396 423.845 644.326 423.775 644.256C423.565 643.696 423.25 643.346 422.83 643.206C422.48 643.066 422.06 643.031 421.57 643.101C421.08 643.311 420.59 643.416 420.1 643.416L419.26 642.996C419.05 642.786 418.77 642.646 418.42 642.576C417.93 642.716 417.335 642.856 416.635 642.996C416.355 643.066 416.04 643.101 415.69 643.101H414.85C414.43 643.101 413.975 643.171 413.485 643.311C413.065 643.451 412.54 643.661 411.91 643.941C412.05 644.431 412.085 644.886 412.015 645.306C412.015 645.656 411.98 646.006 411.91 646.356C411.84 646.986 411.805 647.616 411.805 648.246V650.031C411.945 650.521 411.945 651.081 411.805 651.711C411.735 652.271 411.735 652.831 411.805 653.391V655.071C411.805 655.561 411.63 656.086 411.28 656.646C411.21 656.716 411.175 656.926 411.175 657.276V660.111C411.175 661.021 411.14 661.966 411.07 662.946V664.941C411.14 665.571 411.14 666.236 411.07 666.936C411 667.426 411 667.916 411.07 668.406C411.14 668.896 411.175 669.421 411.175 669.981L411.595 671.451C411.875 672.291 411.91 673.166 411.7 674.076C411.49 674.636 411.315 675.301 411.175 676.071C411.035 676.841 411.21 677.401 411.7 677.751C411.98 677.891 412.26 677.996 412.54 678.066C412.82 678.136 413.065 678.241 413.275 678.381C413.835 679.081 414.395 679.746 414.955 680.376C415.305 680.446 415.655 680.481 416.005 680.481C416.425 680.551 416.775 680.586 417.055 680.586C417.405 680.726 417.72 680.901 418 681.111C418.35 681.321 418.665 681.496 418.945 681.636C419.925 681.846 420.8 681.881 421.57 681.741C422.41 681.671 423.215 681.636 423.985 681.636H424.405C424.475 681.566 424.545 681.531 424.615 681.531C425.105 681.181 425.525 680.761 425.875 680.271C425.875 680.131 425.91 679.991 425.98 679.851C426.05 679.781 426.085 679.711 426.085 679.641C425.945 679.081 425.805 678.556 425.665 678.066C425.525 677.506 425.455 676.946 425.455 676.386C426.085 675.196 426.505 673.936 426.715 672.606C426.925 671.206 426.995 669.841 426.925 668.511C426.855 667.601 426.82 666.691 426.82 665.781C426.89 664.801 426.925 663.961 426.925 663.261C427.065 662.631 427.24 662.036 427.45 661.476C427.66 660.916 427.8 660.391 427.87 659.901C427.94 659.341 427.975 658.816 427.975 658.326V656.751C427.975 656.261 427.94 655.806 427.87 655.386C427.8 654.966 427.59 654.581 427.24 654.231L427.975 653.181C427.975 652.691 428.01 652.201 428.08 651.711C428.15 651.151 428.15 650.626 428.08 650.136V648.561ZM471.421 673.551C471.701 672.851 472.016 672.151 472.366 671.451C472.226 670.821 472.051 670.261 471.841 669.771C471.631 669.211 471.456 668.721 471.316 668.301L470.476 667.041C470.266 666.621 469.986 666.236 469.636 665.886C469.286 665.536 469.041 665.116 468.901 664.626C468.761 664.136 468.411 663.821 467.851 663.681C467.571 663.751 467.291 663.856 467.011 663.996L466.171 664.416C465.261 664.696 464.386 664.836 463.546 664.836C462.776 664.766 462.076 664.311 461.446 663.471C461.306 663.191 461.096 663.016 460.816 662.946C460.606 662.876 460.361 662.806 460.081 662.736C459.521 662.316 459.206 661.791 459.136 661.161C459.066 661.091 459.031 660.881 459.031 660.531V655.491V653.391C459.101 652.971 459.241 652.551 459.451 652.131L460.396 650.241L460.606 650.136V650.031C460.536 649.541 460.501 649.086 460.501 648.666L460.711 647.406C460.711 646.916 460.816 646.531 461.026 646.251C462.286 645.691 463.196 645.341 463.756 645.201C464.386 645.061 465.261 644.956 466.381 644.886C466.521 644.886 466.696 644.851 466.906 644.781C467.116 644.711 467.326 644.676 467.536 644.676C468.796 644.676 469.881 644.396 470.791 643.836C470.721 643.206 470.721 642.576 470.791 641.946L471.001 640.056C471.211 638.446 471.316 636.836 471.316 635.226C471.176 634.106 470.721 633.301 469.951 632.811C468.411 632.391 467.081 631.936 465.961 631.446C464.911 630.956 463.931 630.361 463.021 629.661C463.091 629.101 463.161 628.611 463.231 628.191C463.371 627.771 463.476 627.316 463.546 626.826C463.476 626.616 463.441 626.371 463.441 626.091C463.441 625.811 463.406 625.636 463.336 625.566C463.476 624.936 463.581 624.376 463.651 623.886L463.861 622.416C463.931 622.066 463.966 621.716 463.966 621.366C464.036 621.016 464.106 620.701 464.176 620.421C464.246 620.211 464.351 620.001 464.491 619.791C464.631 619.511 464.736 619.231 464.806 618.951C464.596 618.741 464.351 618.566 464.071 618.426C464.001 618.356 463.861 618.286 463.651 618.216C463.511 618.146 463.371 618.111 463.231 618.111C462.111 618.111 460.956 618.006 459.766 617.796C458.646 617.586 457.491 617.411 456.301 617.271H455.671C455.461 617.201 455.286 617.166 455.146 617.166C454.796 617.236 454.411 617.271 453.991 617.271L452.941 617.061H451.786C451.716 617.341 451.646 617.586 451.576 617.796C451.506 617.936 451.436 618.146 451.366 618.426C451.296 618.566 451.226 618.741 451.156 618.951L450.946 619.371C451.086 619.721 451.156 619.966 451.156 620.106C451.156 620.246 451.226 620.491 451.366 620.841C451.296 621.051 451.331 621.331 451.471 621.681C451.611 621.961 451.611 622.276 451.471 622.626C451.401 622.906 451.296 623.151 451.156 623.361L450.736 623.991C450.946 624.551 451.121 625.146 451.261 625.776C451.401 626.336 451.576 626.861 451.786 627.351C451.436 628.121 451.226 628.716 451.156 629.136C450.106 630.326 448.881 630.886 447.481 630.816H446.851C446.641 630.816 446.466 630.886 446.326 631.026C445.836 631.516 445.276 631.831 444.646 631.971C444.086 632.041 443.526 632.041 442.966 631.971H441.181C440.691 631.971 440.236 632.041 439.816 632.181C439.256 632.531 438.871 632.916 438.661 633.336C438.521 633.756 438.451 634.246 438.451 634.806V636.801C438.381 637.081 438.311 637.396 438.241 637.746C438.171 638.026 438.101 638.341 438.031 638.691C438.171 639.181 438.276 639.706 438.346 640.266C438.416 640.756 438.451 641.281 438.451 641.841V643.626C438.451 644.256 438.486 644.851 438.556 645.411V646.041C438.556 646.251 438.591 646.461 438.661 646.671C438.661 646.741 438.731 646.881 438.871 647.091C439.081 647.231 439.221 647.301 439.291 647.301C439.711 647.301 440.026 647.231 440.236 647.091C440.796 646.951 441.286 646.811 441.706 646.671C442.196 646.531 442.651 646.391 443.071 646.251C443.491 646.321 443.876 646.391 444.226 646.461C444.576 646.531 444.926 646.566 445.276 646.566C445.556 647.266 445.801 648.001 446.011 648.771C446.221 649.541 446.326 650.136 446.326 650.556C446.046 651.396 445.801 652.236 445.591 653.076C445.801 653.986 445.801 654.861 445.591 655.701C445.521 656.191 445.451 656.611 445.381 656.961C445.381 657.311 445.416 657.731 445.486 658.221C445.626 658.711 445.696 659.236 445.696 659.796C445.766 660.286 445.801 660.811 445.801 661.371V668.301C446.151 669.281 446.361 669.946 446.431 670.296C446.501 670.576 446.536 671.136 446.536 671.976C446.886 673.026 447.376 673.901 448.006 674.601C448.706 675.301 449.301 676.071 449.791 676.911C450.141 677.121 450.456 677.331 450.736 677.541C451.016 677.681 451.261 677.821 451.471 677.961C452.031 678.031 452.556 678.136 453.046 678.276C453.536 678.346 453.991 678.486 454.411 678.696C454.971 678.976 455.531 679.221 456.091 679.431C456.721 679.711 457.316 679.921 457.876 680.061C458.856 680.341 459.801 680.481 460.711 680.481C461.691 680.551 462.636 680.516 463.546 680.376C465.366 680.096 466.941 679.221 468.271 677.751L470.476 675.651C470.826 674.951 471.141 674.251 471.421 673.551ZM524.665 664.521C524.595 663.611 524.7 662.701 524.98 661.791C525.05 661.651 525.05 661.546 524.98 661.476V661.161L524.77 658.641L524.56 656.121C524.56 655.771 524.525 655.456 524.455 655.176C524.385 654.826 524.315 654.511 524.245 654.231V653.181C523.825 652.201 523.51 651.326 523.3 650.556C523.02 649.996 522.775 649.226 522.565 648.246C522.495 647.616 522.145 646.986 521.515 646.356C521.375 646.216 521.2 646.076 520.99 645.936C520.78 645.726 520.605 645.516 520.465 645.306C519.695 644.466 518.925 643.696 518.155 642.996C517.385 642.226 516.755 641.421 516.265 640.581C515.775 640.021 515.25 639.671 514.69 639.531C514.13 639.321 513.64 639.041 513.22 638.691C512.52 638.201 511.715 638.131 510.805 638.481C510.735 638.551 510.63 638.586 510.49 638.586C510.35 638.586 510.21 638.621 510.07 638.691C510 638.621 509.93 638.586 509.86 638.586L509.755 638.481C509.895 637.711 509.58 637.256 508.81 637.116C508.53 637.046 508.215 636.976 507.865 636.906C507.585 636.836 507.34 636.731 507.13 636.591H506.605C506.465 636.521 506.29 636.521 506.08 636.591C505.1 636.731 504.085 636.731 503.035 636.591C502.055 636.381 501.075 636.276 500.095 636.276C499.605 636.276 499.15 636.066 498.73 635.646C498.52 635.296 498.275 634.981 497.995 634.701C497.785 634.351 497.54 634.036 497.26 633.756C496.91 633.056 496.735 632.356 496.735 631.656V630.186C496.875 629.136 496.98 628.051 497.05 626.931C497.12 625.811 497.085 624.691 496.945 623.571C496.875 623.221 496.875 622.906 496.945 622.626C497.015 622.346 497.05 622.066 497.05 621.786C496.98 621.436 496.91 621.121 496.84 620.841V620.211C496.91 619.791 497.05 619.476 497.26 619.266C497.54 619.056 497.68 618.776 497.68 618.426C497.26 617.516 496.945 616.711 496.735 616.011C496.525 615.451 496.315 614.926 496.105 614.436C495.965 613.946 495.72 613.421 495.37 612.861C494.74 612.791 494.11 612.616 493.48 612.336C492.92 612.056 492.325 611.706 491.695 611.286C491.485 611.076 491.205 611.006 490.855 611.076C490.575 611.076 490.295 611.146 490.015 611.286L488.965 612.021C488.895 612.091 488.79 612.161 488.65 612.231C488.51 612.301 488.37 612.406 488.23 612.546H486.55C486.27 612.406 486.025 612.266 485.815 612.126L485.185 611.706C484.835 611.776 484.485 611.881 484.135 612.021C483.855 612.091 483.54 612.196 483.19 612.336C482.98 612.336 482.875 612.371 482.875 612.441L482.665 612.546C482.665 612.616 482.63 612.686 482.56 612.756V612.861C482.28 613.281 482.14 613.736 482.14 614.226C482.21 614.646 482.14 615.066 481.93 615.486C481.86 615.766 481.825 616.011 481.825 616.221C481.895 616.431 481.965 616.676 482.035 616.956V617.901C482.035 618.251 482 618.531 481.93 618.741C481.72 619.861 481.685 621.086 481.825 622.416V622.836C481.895 622.976 481.895 623.151 481.825 623.361C481.685 623.991 481.65 624.621 481.72 625.251C481.79 625.881 481.79 626.546 481.72 627.246C481.72 627.666 481.755 628.086 481.825 628.506C481.895 628.856 481.86 629.241 481.72 629.661C481.79 630.431 481.79 631.236 481.72 632.076C481.65 632.846 481.755 633.546 482.035 634.176C481.965 634.526 481.86 634.841 481.72 635.121C481.65 635.401 481.65 635.646 481.72 635.856C481.86 636.556 481.895 637.221 481.825 637.851C481.825 638.481 481.965 639.076 482.245 639.636C482.105 640.056 482 640.441 481.93 640.791L481.72 641.841C481.65 642.051 481.615 642.261 481.615 642.471V642.996C481.615 643.276 481.65 643.556 481.72 643.836C481.79 644.116 481.825 644.361 481.825 644.571C481.825 644.851 481.79 645.096 481.72 645.306C481.65 645.516 481.65 645.761 481.72 646.041C481.79 646.741 481.79 647.441 481.72 648.141V650.241L481.825 650.346L482.245 650.136C482.385 649.996 482.49 649.996 482.56 650.136C482.91 650.626 483.015 650.976 482.875 651.186L482.56 653.076L482.035 653.601C481.825 653.741 481.685 653.951 481.615 654.231C481.545 654.511 481.475 654.861 481.405 655.281V656.331C481.195 656.681 481.195 656.961 481.405 657.171C481.685 658.291 481.72 659.411 481.51 660.531C481.44 661.861 481.545 663.156 481.825 664.416C482.035 665.116 482.07 665.781 481.93 666.411C481.58 667.391 481.51 668.546 481.72 669.876C481.79 670.016 481.79 670.191 481.72 670.401V670.926C481.72 671.486 481.755 671.871 481.825 672.081C481.965 672.431 481.965 672.816 481.825 673.236C481.755 673.586 481.685 673.971 481.615 674.391C481.965 675.301 482.21 676.281 482.35 677.331C482.49 678.381 482.91 679.361 483.61 680.271C484.24 680.481 484.905 680.761 485.605 681.111C485.745 681.181 485.885 681.181 486.025 681.111H486.55L487.285 680.376C487.635 680.236 487.915 680.096 488.125 679.956C488.405 679.816 488.685 679.711 488.965 679.641C489.525 679.291 490.12 679.081 490.75 679.011L492.85 678.801H495.055C496.035 678.661 496.525 678.136 496.525 677.226V675.021C496.455 674.321 496.385 673.656 496.315 673.026L496.105 670.926C496.455 669.806 496.735 668.721 496.945 667.671C497.155 666.551 497.225 665.431 497.155 664.311C497.155 664.031 497.19 663.786 497.26 663.576C497.33 663.296 497.365 663.051 497.365 662.841C497.575 661.931 497.645 661.126 497.575 660.426C497.435 659.656 497.33 658.886 497.26 658.116C497.26 657.346 497.19 656.611 497.05 655.911C496.84 655.351 496.875 654.756 497.155 654.126C497.435 653.986 497.715 653.881 497.995 653.811C498.275 653.671 498.52 653.496 498.73 653.286C499.08 653.146 499.325 653.006 499.465 652.866C499.675 652.656 499.92 652.481 500.2 652.341C500.55 652.271 500.83 652.236 501.04 652.236C501.25 652.236 501.495 652.201 501.775 652.131C501.985 652.131 502.23 652.061 502.51 651.921C502.79 651.781 503.07 651.781 503.35 651.921L503.98 652.551C504.05 652.621 504.085 652.726 504.085 652.866C504.085 652.936 504.12 653.006 504.19 653.076C504.33 653.146 504.435 653.251 504.505 653.391L504.715 653.811C505.275 654.021 505.73 654.266 506.08 654.546C506.36 655.176 506.675 655.736 507.025 656.226C507.375 656.716 507.795 657.241 508.285 657.801C508.845 658.291 509.195 658.956 509.335 659.796V661.791C509.405 662.351 509.475 662.946 509.545 663.576C509.545 664.136 509.58 664.731 509.65 665.361C509.79 665.921 509.895 666.481 509.965 667.041C510.105 667.671 510.315 668.266 510.595 668.826C510.875 669.386 511.085 669.946 511.225 670.506C511.155 670.856 511.05 671.206 510.91 671.556C510.84 671.906 510.805 672.256 510.805 672.606C510.805 672.956 510.84 673.306 510.91 673.656C511.05 674.006 511.155 674.356 511.225 674.706C511.295 674.986 511.26 675.266 511.12 675.546C511.05 675.756 510.98 676.001 510.91 676.281C510.77 676.841 510.98 677.401 511.54 677.961C511.82 678.171 512.065 678.381 512.275 678.591L513.115 679.221C513.255 679.221 513.36 679.256 513.43 679.326H513.745C513.955 679.256 514.27 679.221 514.69 679.221C515.39 679.641 516.055 679.921 516.685 680.061C517.385 680.271 518.12 680.166 518.89 679.746C519.1 679.466 519.31 679.221 519.52 679.011L520.15 678.381L521.2 677.961C521.55 677.821 521.97 677.856 522.46 678.066C522.74 678.066 522.915 678.101 522.985 678.171C523.545 678.171 523.825 677.926 523.825 677.436V677.121C523.895 676.981 523.93 676.876 523.93 676.806C524.07 676.246 524.14 675.756 524.14 675.336C524.21 674.846 524.315 674.356 524.455 673.866C524.455 673.446 524.49 673.096 524.56 672.816C524.56 672.396 524.525 671.976 524.455 671.556C524.455 671.066 524.49 670.611 524.56 670.191C524.7 669.631 524.735 669.106 524.665 668.616C524.595 668.126 524.595 667.636 524.665 667.146C524.805 666.236 524.805 665.361 524.665 664.521ZM608.819 675.231C608.889 674.811 608.819 674.356 608.609 673.866C608.469 673.516 608.294 673.096 608.084 672.606C607.874 672.116 607.594 671.731 607.244 671.451C606.824 670.891 606.474 670.331 606.194 669.771C605.914 669.211 605.634 668.616 605.354 667.986C605.074 667.356 604.829 666.691 604.619 665.991C604.479 665.291 604.409 664.591 604.409 663.891C604.409 663.751 604.374 663.646 604.304 663.576C604.304 663.506 604.269 663.366 604.199 663.156C603.919 663.016 603.674 662.841 603.464 662.631C603.254 662.421 602.974 662.211 602.624 662.001C602.274 661.021 601.854 660.076 601.364 659.166C600.944 658.256 600.629 657.311 600.419 656.331C601.189 655.141 601.714 653.881 601.994 652.551C601.924 652.201 601.889 651.886 601.889 651.606C601.889 651.256 601.854 650.941 601.784 650.661C601.714 650.451 601.574 650.276 601.364 650.136C601.224 649.926 601.119 649.786 601.049 649.716C600.419 648.946 600.524 648.316 601.364 647.826C601.504 647.686 601.679 647.581 601.889 647.511C602.099 647.441 602.274 647.371 602.414 647.301C602.764 646.951 602.939 646.566 602.939 646.146C602.729 645.936 602.554 645.621 602.414 645.201C602.344 645.061 602.309 644.886 602.309 644.676C602.379 644.396 602.414 644.151 602.414 643.941V643.416C602.274 643.066 602.169 642.681 602.099 642.261C602.029 641.841 601.924 641.456 601.784 641.106C601.854 640.826 601.889 640.511 601.889 640.161C602.029 639.391 601.994 638.656 601.784 637.956C601.574 637.186 601.364 636.451 601.154 635.751C600.804 635.471 600.559 635.156 600.419 634.806C600.279 634.386 600.139 634.001 599.999 633.651C599.789 633.301 599.474 633.056 599.054 632.916C598.704 632.776 598.354 632.566 598.004 632.286C597.794 632.006 597.549 631.796 597.269 631.656C596.989 631.446 596.674 631.201 596.324 630.921C596.254 630.711 596.149 630.501 596.009 630.291L595.589 629.661C595.169 629.311 594.749 628.926 594.329 628.506C593.979 628.086 593.594 627.736 593.174 627.456C592.684 627.106 592.229 626.686 591.809 626.196C591.459 625.636 590.969 625.321 590.339 625.251C590.059 625.251 589.779 625.356 589.499 625.566C589.289 625.776 589.009 625.846 588.659 625.776C588.169 625.496 587.714 625.216 587.294 624.936C587.014 625.006 586.699 625.111 586.349 625.251C585.999 625.321 585.649 625.426 585.299 625.566C585.019 625.356 584.739 625.181 584.459 625.041L583.829 624.411C583.059 624.481 582.289 624.446 581.519 624.306C580.819 624.166 580.084 624.061 579.314 623.991C577.774 624.481 576.619 624.761 575.849 624.831C575.149 624.901 573.994 624.796 572.384 624.516C572.174 624.516 571.999 624.551 571.859 624.621L570.599 625.881L569.129 626.091C568.639 626.161 568.114 626.266 567.554 626.406C567.344 626.406 567.239 626.511 567.239 626.721C567.099 626.931 567.134 627.141 567.344 627.351C567.484 627.421 567.624 627.526 567.764 627.666C567.974 627.806 568.114 627.946 568.184 628.086L568.079 628.821C568.079 629.731 568.184 630.536 568.394 631.236C568.604 631.866 568.779 632.426 568.919 632.916L568.709 635.016C568.709 635.646 568.814 636.276 569.024 636.906C569.584 637.466 570.144 637.606 570.704 637.326C571.264 637.186 571.789 637.011 572.279 636.801C572.839 636.591 573.364 636.451 573.854 636.381C574.624 636.241 575.359 636.171 576.059 636.171C576.759 636.171 577.424 636.031 578.054 635.751H578.684C580.014 635.891 581.134 636.101 582.044 636.381C582.324 636.661 582.464 636.941 582.464 637.221C582.534 637.431 582.604 637.676 582.674 637.956C582.744 638.376 582.814 638.831 582.884 639.321C582.954 639.741 583.094 640.161 583.304 640.581C583.654 641.351 583.864 641.911 583.934 642.261C584.074 642.611 584.179 643.381 584.249 644.571C584.039 644.991 583.549 645.131 582.779 644.991C582.429 644.991 582.114 644.921 581.834 644.781C581.554 644.571 581.239 644.396 580.889 644.256H580.574C580.504 644.186 580.399 644.151 580.259 644.151C579.839 644.361 579.419 644.396 578.999 644.256C578.579 644.116 578.159 644.011 577.739 643.941L575.534 644.361C575.184 644.361 574.799 644.396 574.379 644.466C573.959 644.536 573.539 644.536 573.119 644.466C572.209 644.396 571.124 644.466 569.864 644.676C569.724 644.746 569.514 644.781 569.234 644.781C569.024 644.711 568.849 644.676 568.709 644.676C568.009 644.956 567.274 645.306 566.504 645.726C565.804 646.076 565.069 646.426 564.299 646.776C563.669 647.126 563.074 647.581 562.514 648.141C562.024 648.701 561.674 649.366 561.464 650.136C561.184 651.046 560.729 651.851 560.099 652.551C559.959 652.761 559.784 653.006 559.574 653.286C559.364 653.496 559.189 653.741 559.049 654.021C559.189 654.931 559.084 655.806 558.734 656.646L557.894 659.166C558.034 659.726 558.174 660.356 558.314 661.056C558.314 661.406 558.244 661.791 558.104 662.211C558.244 662.911 558.349 663.576 558.419 664.206C558.489 664.766 558.559 665.361 558.629 665.991C558.839 666.201 559.014 666.411 559.154 666.621L559.574 667.041C559.924 669.561 560.589 671.871 561.569 673.971C561.919 674.671 562.234 675.511 562.514 676.491L562.829 676.806C562.969 676.876 563.109 676.981 563.249 677.121C563.319 677.541 563.459 677.891 563.669 678.171L564.614 679.116C565.034 679.186 565.454 679.221 565.874 679.221C566.294 679.291 566.679 679.396 567.029 679.536C567.379 679.396 567.694 679.256 567.974 679.116C568.254 678.976 568.569 678.976 568.919 679.116C569.199 679.186 569.409 679.291 569.549 679.431C569.759 679.571 570.004 679.711 570.284 679.851C570.424 679.781 570.599 679.746 570.809 679.746C571.019 679.746 571.229 679.711 571.439 679.641C572.209 679.781 572.944 679.921 573.644 680.061C574.344 680.271 575.009 680.446 575.639 680.586C576.199 680.446 576.654 680.306 577.004 680.166C577.424 680.096 577.844 680.166 578.264 680.376C578.614 680.306 578.999 680.201 579.419 680.061C579.839 679.921 580.259 679.816 580.679 679.746C581.099 679.466 581.554 679.186 582.044 678.906C582.534 678.626 583.024 678.311 583.514 677.961C584.354 677.751 585.229 677.506 586.139 677.226C587.049 676.876 587.959 676.491 588.869 676.071C589.009 675.931 589.114 675.756 589.184 675.546C589.254 675.336 589.359 675.161 589.499 675.021C589.639 674.881 589.744 674.741 589.814 674.601C589.884 674.391 589.989 674.216 590.129 674.076C590.269 673.936 590.444 673.831 590.654 673.761C590.864 673.691 591.109 673.761 591.389 673.971C591.739 674.461 592.089 675.021 592.439 675.651C592.789 676.281 593.104 676.876 593.384 677.436C593.594 677.506 593.769 677.611 593.909 677.751C594.119 677.821 594.329 677.926 594.539 678.066V679.641C594.749 680.061 595.029 680.201 595.379 680.061C595.799 679.921 596.149 679.921 596.429 680.061V680.691C596.429 681.041 596.604 681.321 596.954 681.531C597.304 681.811 597.619 681.881 597.899 681.741C598.039 681.741 598.144 681.706 598.214 681.636H598.529C598.949 681.216 599.404 680.936 599.894 680.796C600.384 680.656 600.874 680.586 601.364 680.586C601.994 680.236 602.414 679.991 602.624 679.851C602.834 679.781 603.184 679.711 603.674 679.641C603.884 679.431 604.024 679.256 604.094 679.116C604.304 678.206 604.934 677.646 605.984 677.436C606.264 677.296 606.509 677.226 606.719 677.226C606.929 677.226 607.174 677.191 607.454 677.121C607.594 676.981 607.769 676.876 607.979 676.806C608.189 676.666 608.329 676.561 608.399 676.491C608.609 676.071 608.749 675.651 608.819 675.231ZM563.249 677.121C563.389 676.981 563.424 676.911 563.354 676.911H563.249V677.121ZM584.039 657.591C584.669 657.941 585.194 658.641 585.614 659.691C585.264 660.391 584.949 661.126 584.669 661.896C584.389 662.596 584.109 663.261 583.829 663.891C583.479 664.451 583.094 664.766 582.674 664.836C581.554 665.186 580.609 665.571 579.839 665.991C579.699 666.061 579.489 666.096 579.209 666.096C578.509 666.166 577.774 666.201 577.004 666.201C576.234 666.201 575.464 666.131 574.694 665.991C574.624 665.991 574.519 665.921 574.379 665.781C574.029 665.151 573.749 664.521 573.539 663.891C573.399 663.191 573.259 662.526 573.119 661.896C573.329 661.336 573.329 660.916 573.119 660.636C572.909 660.286 572.734 659.901 572.594 659.481L573.959 656.961C574.169 656.681 574.379 656.471 574.589 656.331C574.799 656.121 575.044 655.911 575.324 655.701C575.884 655.351 576.479 655.176 577.109 655.176C577.459 655.246 577.809 655.351 578.159 655.491C578.579 655.631 578.999 655.701 579.419 655.701C579.769 655.631 580.119 655.596 580.469 655.596C580.889 655.526 581.239 655.491 581.519 655.491L582.149 655.701C582.359 655.771 582.499 655.946 582.569 656.226C582.779 656.786 583.269 657.241 584.039 657.591ZM693.538 637.116C693.818 637.046 694.168 637.011 694.588 637.011C694.798 636.521 694.973 636.031 695.113 635.541C695.323 634.981 695.393 634.421 695.323 633.861C695.183 633.511 695.008 633.126 694.798 632.706C694.588 632.216 694.413 631.761 694.273 631.341C694.273 628.891 693.643 626.721 692.383 624.831C692.103 624.481 691.788 624.166 691.438 623.886C691.088 623.606 690.843 623.221 690.703 622.731L690.493 622.311C690.423 622.101 690.318 621.961 690.178 621.891C689.898 621.541 689.583 621.226 689.233 620.946C688.953 620.596 688.638 620.281 688.288 620.001C687.448 619.371 686.678 618.916 685.978 618.636C685.488 618.286 684.928 618.006 684.298 617.796C683.738 617.586 683.143 617.446 682.513 617.376C681.393 617.306 680.238 617.271 679.048 617.271C677.858 617.201 676.738 617.306 675.688 617.586C675.058 617.446 674.498 617.341 674.008 617.271L672.538 616.851L671.068 616.431C670.578 616.221 670.088 616.046 669.598 615.906C669.038 615.976 668.443 615.976 667.813 615.906C667.183 615.836 666.588 615.906 666.028 616.116C664.698 616.396 663.368 616.641 662.038 616.851C660.708 617.061 659.378 617.166 658.048 617.166C657.558 617.166 657.068 617.201 656.578 617.271C656.158 617.271 655.703 617.306 655.213 617.376C654.863 617.516 654.478 617.586 654.058 617.586C653.708 617.516 653.323 617.446 652.903 617.376C652.273 617.236 651.713 617.306 651.223 617.586C650.453 617.936 649.613 618.251 648.703 618.531C647.863 618.741 647.023 618.986 646.183 619.266H645.448C645.308 619.196 645.133 619.126 644.923 619.056C644.713 618.916 644.538 618.811 644.398 618.741C644.118 618.671 643.768 618.706 643.348 618.846C643.138 619.126 643.068 619.441 643.138 619.791C643.278 620.141 643.278 620.491 643.138 620.841C642.998 621.191 642.893 621.576 642.823 621.996C642.753 622.346 642.648 622.626 642.508 622.836C642.648 623.606 642.718 624.341 642.718 625.041C642.788 625.741 642.858 626.371 642.928 626.931C642.718 627.561 642.508 628.121 642.298 628.611C642.438 628.891 642.543 629.171 642.613 629.451C642.683 629.731 642.753 630.046 642.823 630.396C642.683 631.026 642.508 631.656 642.298 632.286L641.878 634.176C642.018 634.246 642.158 634.351 642.298 634.491C642.438 634.561 642.508 634.701 642.508 634.911C642.438 635.121 642.298 635.331 642.088 635.541C641.948 635.751 641.808 635.996 641.668 636.276C641.598 637.116 641.528 638.516 641.458 640.476V646.776C641.528 649.016 641.598 651.011 641.668 652.761C641.668 652.831 641.703 652.936 641.773 653.076C641.843 653.146 641.878 653.251 641.878 653.391C642.018 653.601 642.053 653.846 641.983 654.126C641.983 654.336 642.088 654.581 642.298 654.861C642.228 655.281 642.158 655.666 642.088 656.016C642.018 656.296 641.878 656.681 641.668 657.171C641.668 657.661 641.633 658.221 641.563 658.851C641.563 659.481 641.703 660.076 641.983 660.636C642.123 660.916 642.193 661.196 642.193 661.476V662.316C642.263 663.086 642.333 663.891 642.403 664.731C642.473 665.501 642.578 666.271 642.718 667.041C642.788 667.321 642.823 667.636 642.823 667.986C642.893 668.336 642.928 668.686 642.928 669.036C642.858 670.786 642.928 672.571 643.138 674.391C643.348 676.211 643.523 677.996 643.663 679.746V679.851L643.768 679.956C643.908 680.376 644.293 680.586 644.923 680.586C646.043 680.516 647.128 680.411 648.178 680.271C649.228 680.131 650.243 679.816 651.223 679.326H652.588C653.708 679.186 654.758 679.116 655.738 679.116C656.788 679.186 657.838 679.396 658.888 679.746C659.448 679.886 659.833 679.676 660.043 679.116C660.183 678.836 660.253 678.521 660.253 678.171C660.813 676.841 660.988 675.511 660.778 674.181L660.568 673.131V671.871V670.611C660.638 670.121 660.673 669.666 660.673 669.246C660.743 669.106 660.778 668.861 660.778 668.511C660.708 667.601 660.708 666.656 660.778 665.676C660.918 664.696 660.988 663.751 660.988 662.841L661.408 661.581C661.548 661.161 661.653 660.741 661.723 660.321C661.793 659.831 662.248 659.411 663.088 659.061H665.503L668.233 658.851H669.703L670.963 658.641C671.733 658.431 672.468 658.256 673.168 658.116C673.868 657.976 674.568 657.871 675.268 657.801L677.998 657.381C678.908 657.171 679.783 656.926 680.623 656.646C681.813 655.876 682.968 655.036 684.088 654.126L687.448 651.396C687.588 651.046 687.728 650.766 687.868 650.556C688.008 650.276 688.148 650.031 688.288 649.821L689.338 648.981C689.758 648.701 690.108 648.421 690.388 648.141C690.598 647.791 690.808 647.406 691.018 646.986C691.298 646.566 691.543 646.181 691.753 645.831C691.893 645.551 692.033 645.306 692.173 645.096C692.383 644.886 692.558 644.641 692.698 644.361C692.838 644.081 692.943 643.836 693.013 643.626C693.153 643.346 693.188 643.066 693.118 642.786C693.118 642.366 692.943 642.016 692.593 641.736C692.313 641.456 692.208 641.071 692.278 640.581C692.418 640.371 692.558 640.091 692.698 639.741C692.838 639.391 692.978 639.076 693.118 638.796C693.328 638.516 693.363 638.201 693.223 637.851C693.153 637.501 693.258 637.256 693.538 637.116ZM677.998 634.071C678.208 634.491 678.348 634.911 678.418 635.331C678.418 635.821 678.313 636.276 678.103 636.696C677.963 637.046 677.823 637.431 677.683 637.851C677.613 638.341 677.508 638.796 677.368 639.216C677.298 639.636 677.193 640.091 677.053 640.581L675.898 641.736L674.638 642.786C674.358 642.856 674.043 642.926 673.693 642.996C673.413 642.996 673.098 643.031 672.748 643.101L671.488 644.151C671.138 644.501 670.753 644.851 670.333 645.201C669.843 645.341 669.423 645.376 669.073 645.306C668.373 645.096 667.603 644.956 666.763 644.886C665.993 644.816 665.223 644.676 664.453 644.466C663.683 644.326 662.878 644.291 662.038 644.361C661.198 644.361 660.288 644.431 659.308 644.571C659.238 644.431 659.168 644.256 659.098 644.046C659.028 643.836 658.993 643.696 658.993 643.626C658.923 643.206 658.888 642.786 658.888 642.366C658.958 641.876 658.993 641.421 658.993 641.001C659.063 640.231 659.098 639.496 659.098 638.796C659.168 638.026 659.238 637.291 659.308 636.591C659.308 636.241 659.343 635.926 659.413 635.646C659.553 635.296 659.658 634.981 659.728 634.701C659.938 634.211 660.218 633.826 660.568 633.546C660.918 633.266 661.303 633.021 661.723 632.811C661.933 632.811 662.143 632.776 662.353 632.706C662.563 632.636 662.773 632.671 662.983 632.811C663.263 632.811 663.613 632.881 664.033 633.021C664.803 632.251 665.853 631.726 667.183 631.446C667.743 631.376 668.303 631.376 668.863 631.446C669.493 631.446 670.053 631.481 670.543 631.551C670.893 631.761 671.173 631.971 671.383 632.181C671.663 632.321 671.908 632.461 672.118 632.601H673.378C673.728 632.531 674.043 632.496 674.323 632.496L675.373 632.286C675.513 632.146 675.653 632.041 675.793 631.971C675.933 631.901 676.073 631.796 676.213 631.656C676.633 631.516 676.913 631.621 677.053 631.971C677.123 632.041 677.193 632.146 677.263 632.286C677.403 632.426 677.508 632.601 677.578 632.811L677.998 634.071ZM742.677 642.786C742.817 642.436 742.887 642.051 742.887 641.631C742.957 641.211 742.922 640.791 742.782 640.371C742.572 639.531 742.432 638.691 742.362 637.851C742.362 637.011 742.327 636.171 742.257 635.331C742.257 634.911 742.222 634.491 742.152 634.071C742.082 633.651 742.012 633.266 741.942 632.916C741.942 632.776 741.907 632.671 741.837 632.601C741.767 632.461 741.697 632.356 741.627 632.286C741.347 632.146 741.102 632.041 740.892 631.971C740.682 631.901 740.437 631.831 740.157 631.761C739.737 631.901 739.317 632.006 738.897 632.076C738.547 632.146 738.162 632.146 737.742 632.076L736.482 631.656C736.132 631.516 735.782 631.411 735.432 631.341C735.012 631.411 734.662 631.446 734.382 631.446C734.102 631.446 733.822 631.481 733.542 631.551C733.262 631.621 733.017 631.726 732.807 631.866C732.597 631.936 732.352 632.041 732.072 632.181C731.232 632.601 730.742 633.371 730.602 634.491C730.532 634.981 730.497 635.541 730.497 636.171C730.497 636.731 730.462 637.291 730.392 637.851C730.322 638.411 730.287 639.006 730.287 639.636C730.287 640.266 730.252 640.966 730.182 641.736V642.576C730.252 642.926 730.322 643.311 730.392 643.731V644.466C730.462 644.676 730.462 644.886 730.392 645.096C730.112 645.936 729.937 646.776 729.867 647.616C729.797 648.456 729.692 649.366 729.552 650.346C729.132 650.696 728.782 651.151 728.502 651.711C728.222 652.271 727.907 652.831 727.557 653.391C727.067 653.881 726.752 654.476 726.612 655.176C726.472 655.876 726.227 656.506 725.877 657.066L724.197 658.116H723.462C723.112 658.116 722.762 658.081 722.412 658.011C721.712 658.221 720.977 658.501 720.207 658.851C719.857 658.921 719.542 659.096 719.262 659.376C718.982 659.656 718.597 659.796 718.107 659.796C717.967 659.726 717.792 659.691 717.582 659.691C717.442 659.691 717.302 659.656 717.162 659.586C716.952 659.446 716.637 659.166 716.217 658.746C715.517 657.836 714.992 656.821 714.642 655.701C714.502 655.141 714.362 654.616 714.222 654.126C714.152 653.636 714.012 653.146 713.802 652.656L713.382 651.186C713.242 650.696 713.207 650.206 713.277 649.716C713.067 648.946 712.927 648.211 712.857 647.511C712.787 646.741 712.682 645.971 712.542 645.201C712.402 644.011 712.332 642.821 712.332 641.631C712.332 640.371 712.227 639.181 712.017 638.061C712.157 637.711 712.262 637.361 712.332 637.011C712.472 636.661 712.577 636.346 712.647 636.066C712.577 635.786 712.472 635.576 712.332 635.436L712.122 634.806V633.441C712.192 632.951 712.227 632.461 712.227 631.971L712.017 631.551C711.947 631.411 711.877 631.236 711.807 631.026C711.247 630.956 710.722 630.921 710.232 630.921L708.762 630.711C708.272 630.711 707.782 630.676 707.292 630.606C706.872 630.536 706.487 630.466 706.137 630.396C705.507 630.466 704.947 630.536 704.457 630.606L703.197 630.816L702.567 631.026C702.357 631.096 702.182 631.201 702.042 631.341L701.202 632.601C700.922 633.021 700.712 633.511 700.572 634.071C700.222 635.541 700.012 637.046 699.942 638.586C699.872 639.356 699.802 640.161 699.732 641.001C699.662 641.771 699.522 642.576 699.312 643.416C699.242 643.696 699.242 644.011 699.312 644.361C699.382 644.711 699.347 645.061 699.207 645.411C698.997 646.041 698.962 646.846 699.102 647.826C699.102 648.106 698.997 648.421 698.787 648.771C698.647 649.121 698.647 649.471 698.787 649.821C698.927 649.961 699.032 650.136 699.102 650.346C699.242 650.556 699.347 650.766 699.417 650.976C698.997 652.446 698.857 653.881 698.997 655.281C699.137 656.681 699.452 658.081 699.942 659.481L700.152 659.901L700.467 660.426C700.467 660.916 700.432 661.336 700.362 661.686C700.362 661.966 700.467 662.316 700.677 662.736C701.027 663.646 701.412 664.591 701.832 665.571C702.252 666.481 702.672 667.461 703.092 668.511C703.442 668.791 703.827 669.071 704.247 669.351C704.737 669.561 705.087 669.841 705.297 670.191C705.577 670.681 705.717 671.171 705.717 671.661C705.787 672.151 705.962 672.536 706.242 672.816C706.662 673.166 707.082 673.446 707.502 673.656C707.992 673.796 708.482 673.761 708.972 673.551H709.392C709.742 673.551 709.987 673.866 710.127 674.496C710.127 675.196 710.372 675.546 710.862 675.546C711.352 675.406 711.807 675.406 712.227 675.546L713.697 675.966C714.187 676.036 714.502 676.316 714.642 676.806C714.572 677.016 714.502 677.191 714.432 677.331V677.751L715.482 678.171C715.902 678.311 716.287 678.486 716.637 678.696C717.477 678.486 718.317 678.451 719.157 678.591C719.997 678.731 720.837 678.626 721.677 678.276C721.817 678.206 721.957 678.101 722.097 677.961C722.307 677.751 722.482 677.611 722.622 677.541C722.832 677.401 723.007 677.296 723.147 677.226C723.357 677.086 723.567 676.981 723.777 676.911C724.337 676.981 724.827 677.051 725.247 677.121C725.737 677.191 726.227 677.086 726.717 676.806C726.857 676.666 726.997 676.491 727.137 676.281L727.452 675.651C728.362 674.951 729.167 674.391 729.867 673.971C730.287 673.901 730.672 673.831 731.022 673.761C731.442 673.621 731.792 673.516 732.072 673.446C733.192 672.676 734.032 671.871 734.592 671.031C734.522 670.891 734.417 670.716 734.277 670.506C734.207 670.296 734.102 670.121 733.962 669.981C734.032 669.701 734.137 669.561 734.277 669.561L735.117 669.141C735.467 669.001 735.782 668.826 736.062 668.616C736.412 668.266 736.727 667.881 737.007 667.461C737.357 667.041 737.672 666.656 737.952 666.306C738.582 664.696 739.212 663.226 739.842 661.896C739.982 661.616 740.052 661.371 740.052 661.161C740.122 660.881 740.192 660.671 740.262 660.531C740.472 659.271 740.752 658.046 741.102 656.856C741.452 655.666 741.767 654.511 742.047 653.391C742.187 652.761 742.257 652.166 742.257 651.606V650.031V648.036C742.327 647.336 742.362 646.636 742.362 645.936V644.361C742.432 643.801 742.537 643.276 742.677 642.786ZM788.443 637.116C788.933 636.626 789.108 635.821 788.968 634.701C788.758 634.421 788.513 634.141 788.233 633.861C787.953 633.581 787.708 633.301 787.498 633.021C786.868 632.671 786.273 632.356 785.713 632.076C785.153 631.796 784.558 631.516 783.928 631.236C782.878 630.606 781.793 630.466 780.673 630.816C780.043 631.026 779.308 630.921 778.468 630.501L778.153 630.606C778.083 630.536 778.013 630.536 777.943 630.606H777.838L777.628 630.711H775.213C774.303 631.061 773.463 631.411 772.693 631.761C771.993 632.111 771.258 632.461 770.488 632.811L769.438 633.861C769.088 634.211 768.703 634.561 768.283 634.911C768.073 635.191 767.863 635.436 767.653 635.646C767.443 635.786 767.198 635.961 766.918 636.171C766.778 636.311 766.533 636.381 766.183 636.381C765.903 636.311 765.693 636.206 765.553 636.066C764.993 635.366 764.608 634.631 764.398 633.861C764.328 632.251 764.258 631.236 764.188 630.816C764.118 630.396 763.838 629.766 763.348 628.926C762.578 628.506 761.598 628.471 760.408 628.821C760.198 628.891 759.988 628.996 759.778 629.136C759.568 629.206 759.358 629.241 759.148 629.241C758.448 629.171 757.713 629.241 756.943 629.451C756.243 629.591 755.543 629.556 754.843 629.346C754.493 629.276 754.108 629.451 753.688 629.871C753.618 630.151 753.548 630.466 753.478 630.816C753.408 631.096 753.303 631.411 753.163 631.761C753.093 632.111 752.988 632.496 752.848 632.916C752.778 633.266 752.673 633.616 752.533 633.966C752.743 634.456 752.848 634.806 752.848 635.016C752.568 635.576 752.393 636.171 752.323 636.801V638.586V639.636C752.323 639.986 752.253 640.301 752.113 640.581C751.833 641.351 751.693 642.121 751.693 642.891L751.903 645.201V645.726C751.973 645.936 752.008 646.111 752.008 646.251C751.798 647.091 751.728 647.931 751.798 648.771C751.868 649.541 751.833 650.346 751.693 651.186C751.693 651.676 751.728 652.131 751.798 652.551C751.938 652.971 752.043 653.426 752.113 653.916C752.253 654.266 752.323 654.651 752.323 655.071C752.393 655.491 752.463 655.876 752.533 656.226C752.673 656.296 752.743 656.401 752.743 656.541L752.953 656.751C753.303 657.031 753.478 657.381 753.478 657.801C753.548 658.221 753.513 658.606 753.373 658.956L753.163 659.796C753.163 660.006 753.128 660.251 753.058 660.531C752.988 661.231 752.988 661.931 753.058 662.631C753.128 662.841 753.163 663.086 753.163 663.366L753.373 663.996C753.513 664.136 753.548 664.276 753.478 664.416C753.408 664.486 753.373 664.591 753.373 664.731C753.373 664.941 753.338 665.151 753.268 665.361C753.268 665.501 753.233 665.676 753.163 665.886C753.093 666.096 752.988 666.341 752.848 666.621C752.778 666.831 752.673 667.006 752.533 667.146C752.883 668.546 753.093 669.771 753.163 670.821C753.093 671.311 753.128 671.766 753.268 672.186C753.408 672.606 753.513 673.026 753.583 673.446C753.723 673.726 753.793 674.041 753.793 674.391C753.863 674.671 753.933 674.916 754.003 675.126C753.933 675.616 753.898 676.106 753.898 676.596C753.898 677.086 753.863 677.576 753.793 678.066C754.563 678.836 755.403 679.361 756.313 679.641C756.523 679.571 756.698 679.501 756.838 679.431C757.048 679.431 757.293 679.396 757.573 679.326C757.923 679.466 758.308 679.571 758.728 679.641C759.148 679.781 759.498 679.886 759.778 679.956L761.458 680.166C762.088 680.236 762.683 680.306 763.243 680.376C764.083 680.446 764.853 680.306 765.553 679.956C766.253 679.676 766.848 679.151 767.338 678.381C767.478 678.241 767.653 677.961 767.863 677.541C767.863 676.981 767.898 676.421 767.968 675.861C768.038 675.301 768.073 674.776 768.073 674.286C768.073 673.516 768.038 672.711 767.968 671.871C767.968 671.031 768.003 670.226 768.073 669.456C768.073 668.826 768.038 668.196 767.968 667.566C767.968 666.866 768.073 666.201 768.283 665.571C768.423 665.011 768.528 664.486 768.598 663.996C768.738 663.436 768.738 662.841 768.598 662.211C768.598 661.791 768.668 661.371 768.808 660.951C769.018 660.531 769.053 660.076 768.913 659.586C769.053 659.166 769.228 658.746 769.438 658.326C769.648 657.906 769.823 657.486 769.963 657.066L770.278 656.436C770.418 656.226 770.523 655.981 770.593 655.701L770.803 655.281C770.873 655.071 770.908 654.931 770.908 654.861C770.908 653.811 771.048 652.866 771.328 652.026C771.678 651.116 771.993 650.241 772.273 649.401C772.833 648.771 773.428 648.176 774.058 647.616C774.688 647.056 775.423 646.601 776.263 646.251C776.403 646.181 776.543 646.146 776.683 646.146C776.893 646.146 777.103 646.111 777.313 646.041H778.048C778.258 646.041 778.503 646.006 778.783 645.936C780.253 645.376 781.758 645.411 783.298 646.041H783.823C783.893 645.971 783.963 645.936 784.033 645.936C784.173 645.936 784.278 645.901 784.348 645.831C784.418 645.761 784.453 645.691 784.453 645.621C784.523 645.481 784.593 645.376 784.663 645.306C784.803 644.956 784.908 644.606 784.978 644.256C785.048 643.906 785.153 643.591 785.293 643.311L785.923 642.261C786.203 641.911 786.483 641.596 786.763 641.316C786.903 641.106 787.008 640.896 787.078 640.686L787.498 640.056C787.568 639.496 787.638 638.971 787.708 638.481C787.848 637.991 788.093 637.536 788.443 637.116ZM843.623 655.911C843.623 655.771 843.658 655.666 843.728 655.596C843.658 655.316 843.623 654.791 843.623 654.021C843.693 653.251 843.693 652.726 843.623 652.446C843.343 652.026 843.273 651.606 843.413 651.186C843.763 650.416 843.763 649.541 843.413 648.561C843.343 648.211 843.308 647.581 843.308 646.671C843.308 645.691 843.343 645.096 843.413 644.886C843.343 644.536 843.238 644.186 843.098 643.836C843.028 643.486 842.993 643.171 842.993 642.891C842.923 642.471 842.888 642.051 842.888 641.631V640.266C842.678 639.986 842.468 639.741 842.258 639.531C842.118 639.251 841.943 639.006 841.733 638.796C841.313 638.516 840.928 638.061 840.578 637.431C839.878 636.451 839.143 635.541 838.373 634.701C837.673 633.791 836.833 632.986 835.853 632.286C835.643 632.146 835.468 631.971 835.328 631.761C835.188 631.551 835.048 631.376 834.908 631.236C834.838 631.096 834.663 630.956 834.383 630.816C834.313 630.816 833.893 630.641 833.123 630.291C832.423 629.941 831.968 629.696 831.758 629.556C831.268 629.416 830.743 629.346 830.183 629.346H828.608C828.328 629.276 828.013 629.241 827.663 629.241L826.823 629.031C826.263 628.681 825.668 628.471 825.038 628.401C824.478 628.331 823.883 628.261 823.253 628.191H822.098L821.048 627.981C820.558 628.051 820.068 628.086 819.578 628.086C819.088 628.086 818.633 628.156 818.213 628.296C817.093 628.576 816.043 628.891 815.063 629.241C814.083 629.591 813.138 629.871 812.228 630.081C811.598 630.431 811.038 630.781 810.548 631.131C810.128 631.411 809.708 631.621 809.288 631.761C807.888 632.321 806.873 633.266 806.243 634.596L805.508 636.066L805.298 636.276L804.983 636.591C804.913 636.941 804.808 637.221 804.668 637.431L804.563 637.746C804.003 639.076 803.373 640.196 802.673 641.106C801.973 642.016 801.483 642.681 801.203 643.101C800.993 643.451 800.853 643.871 800.783 644.361C800.713 644.781 800.538 645.551 800.258 646.671C800.188 646.741 800.048 647.231 799.838 648.141C799.698 648.981 799.558 649.646 799.418 650.136L798.998 650.976C798.928 651.186 798.858 651.466 798.788 651.816C798.508 652.726 798.298 653.636 798.158 654.546C798.018 655.386 798.018 656.296 798.158 657.276C798.088 657.836 798.053 658.991 798.053 660.741C798.123 662.491 798.193 664.311 798.263 666.201C798.333 668.021 798.438 669.351 798.578 670.191L798.158 671.241C798.088 671.521 797.983 671.801 797.843 672.081C797.773 672.781 797.843 673.341 798.053 673.761C798.263 674.181 798.298 674.636 798.158 675.126C798.088 675.406 797.948 675.721 797.738 676.071C797.598 676.421 797.458 676.701 797.318 676.911C797.458 677.401 797.563 677.856 797.633 678.276C797.773 678.696 797.843 679.116 797.843 679.536C797.773 679.956 797.738 680.376 797.738 680.796L797.948 682.266C797.878 682.756 797.738 683.246 797.528 683.736C797.318 684.296 797.213 684.856 797.213 685.416C797.283 685.766 797.388 686.116 797.528 686.466C797.668 686.816 797.738 687.166 797.738 687.516C797.808 688.006 797.913 688.531 798.053 689.091C798.193 689.651 798.368 690.211 798.578 690.771C798.578 690.841 798.613 690.876 798.683 690.876C798.753 690.946 798.823 691.051 798.893 691.191H799.943C800.363 691.191 800.713 691.261 800.993 691.401C801.623 691.681 802.253 691.821 802.883 691.821C803.513 691.891 804.143 691.891 804.773 691.821H805.613C805.893 691.821 806.138 691.856 806.348 691.926C807.118 692.276 807.888 692.451 808.658 692.451H811.073C811.913 692.451 812.613 692.066 813.173 691.296C813.243 691.156 813.278 690.981 813.278 690.771C813.418 690.001 813.488 689.231 813.488 688.461C813.488 687.691 813.628 686.956 813.908 686.256V683.316C813.978 682.336 813.873 681.391 813.593 680.481C813.383 679.641 813.418 678.836 813.698 678.066C813.838 677.786 813.908 677.401 813.908 676.911L813.488 675.126V674.391C813.488 674.111 813.523 673.831 813.593 673.551C813.803 673.131 814.013 672.746 814.223 672.396C814.433 672.046 814.678 671.731 814.958 671.451C815.308 671.311 815.588 671.311 815.798 671.451C816.008 671.521 816.253 671.626 816.533 671.766C816.813 671.836 817.058 671.941 817.268 672.081L818.108 672.501C818.808 672.361 819.473 672.256 820.103 672.186C820.733 672.046 821.363 671.941 821.993 671.871C822.343 672.081 822.693 672.256 823.043 672.396C823.393 672.466 823.708 672.571 823.988 672.711C824.268 672.641 824.478 672.606 824.618 672.606C824.828 672.536 825.038 672.501 825.248 672.501C826.018 672.431 826.718 672.221 827.348 671.871C828.048 671.521 828.748 671.206 829.448 670.926C829.798 670.576 830.148 670.331 830.498 670.191C830.848 669.981 831.198 669.806 831.548 669.666C832.038 669.526 832.458 669.246 832.808 668.826C833.018 668.616 833.333 668.441 833.753 668.301C834.593 667.951 835.363 667.566 836.063 667.146C836.833 666.656 837.568 666.131 838.268 665.571L839.528 663.681L840.998 661.581C841.628 660.881 842.118 660.041 842.468 659.061C842.678 658.571 842.853 658.116 842.993 657.696L843.623 656.226C843.693 656.156 843.693 656.051 843.623 655.911ZM829.343 648.456C829.763 649.366 830.008 650.416 830.078 651.606C830.008 652.656 829.798 653.776 829.448 654.966C829.168 656.086 828.573 657.206 827.663 658.326C827.523 658.466 827.418 658.746 827.348 659.166C827.348 659.516 827.138 659.726 826.718 659.796C826.578 660.006 826.333 660.181 825.983 660.321C825.703 660.391 825.493 660.496 825.353 660.636C824.373 661.056 823.533 661.091 822.833 660.741C822.343 660.601 821.853 660.531 821.363 660.531C820.873 660.461 820.348 660.426 819.788 660.426H819.053C818.843 660.356 818.633 660.321 818.423 660.321C817.933 659.971 817.513 659.761 817.163 659.691C816.813 659.551 816.568 659.271 816.428 658.851C816.218 658.711 816.078 658.396 816.008 657.906C815.938 657.416 815.833 657.136 815.693 657.066C815.553 656.926 815.483 656.751 815.483 656.541C815.343 655.981 815.203 655.386 815.063 654.756C814.923 654.126 814.783 653.461 814.643 652.761C814.433 651.921 814.363 650.941 814.433 649.821C814.573 648.701 814.853 647.686 815.273 646.776C815.413 646.706 815.728 646.356 816.218 645.726C816.778 645.026 817.198 644.396 817.478 643.836C817.688 643.556 818.143 643.381 818.843 643.311C819.613 643.241 820.138 643.066 820.418 642.786C821.398 642.506 822.518 642.471 823.778 642.681C824.548 643.101 825.213 643.556 825.773 644.046C826.403 644.466 827.033 645.026 827.663 645.726C828.433 646.566 828.993 647.476 829.343 648.456ZM898.386 652.656C898.666 651.956 898.701 651.186 898.491 650.346C898.211 649.716 898.001 649.051 897.861 648.351C897.791 647.651 897.686 646.986 897.546 646.356C897.336 646.076 897.126 645.831 896.916 645.621C896.776 645.411 896.671 645.201 896.601 644.991C896.461 644.431 896.251 643.906 895.971 643.416C895.691 642.926 895.481 642.436 895.341 641.946C895.271 641.596 895.131 641.316 894.921 641.106L894.291 640.476C894.221 640.336 894.116 640.161 893.976 639.951C893.906 639.741 893.801 639.566 893.661 639.426C893.521 639.076 893.311 638.761 893.031 638.481L892.191 637.641C891.981 637.291 891.736 636.941 891.456 636.591C891.246 636.241 891.071 635.926 890.931 635.646C890.651 635.506 890.371 635.436 890.091 635.436C889.811 635.436 889.566 635.401 889.356 635.331C888.936 635.051 888.726 634.736 888.726 634.386C888.656 634.176 888.621 633.966 888.621 633.756V633.126C887.921 632.566 887.151 632.006 886.311 631.446C885.541 630.886 884.666 630.571 883.686 630.501C883.406 630.431 883.161 630.326 882.951 630.186C882.741 630.046 882.531 629.941 882.321 629.871C882.041 629.591 881.761 629.381 881.481 629.241C881.271 629.031 880.991 628.786 880.641 628.506C880.291 628.506 879.906 628.541 879.486 628.611H878.436C877.666 628.681 876.861 628.716 876.021 628.716C875.251 628.716 874.481 628.576 873.711 628.296H872.766C872.276 628.226 871.751 628.191 871.191 628.191H869.511L867.411 628.821C866.781 628.961 866.151 629.241 865.521 629.661C864.891 629.871 864.261 630.151 863.631 630.501C863.001 630.851 862.406 631.201 861.846 631.551C861.636 631.621 861.426 631.726 861.216 631.866C861.076 632.006 860.901 632.111 860.691 632.181C860.621 632.251 860.516 632.461 860.376 632.811C860.376 633.021 860.411 633.301 860.481 633.651C860.551 633.931 860.481 634.281 860.271 634.701C860.131 634.841 859.956 635.051 859.746 635.331C859.536 635.541 859.291 635.821 859.011 636.171C858.591 636.591 858.276 637.081 858.066 637.641C857.856 637.921 857.646 638.236 857.436 638.586C857.296 638.866 857.156 639.181 857.016 639.531C856.876 639.811 856.701 640.056 856.491 640.266C856.281 640.476 856.036 640.756 855.756 641.106C855.826 641.596 855.791 642.086 855.651 642.576C855.511 643.066 855.301 643.591 855.021 644.151C854.951 644.221 854.916 644.361 854.916 644.571V645.096C854.636 645.586 854.426 646.041 854.286 646.461L853.866 647.721C853.726 648.071 853.586 648.456 853.446 648.876C853.306 649.226 853.166 649.611 853.026 650.031C852.886 650.451 852.781 650.871 852.711 651.291C852.641 651.711 852.536 652.166 852.396 652.656C852.186 653.076 852.116 653.531 852.186 654.021C852.326 654.511 852.361 654.966 852.291 655.386C852.221 655.876 852.221 656.366 852.291 656.856C852.361 657.346 852.326 657.836 852.186 658.326C852.116 658.606 852.081 658.886 852.081 659.166C852.151 659.376 852.186 659.586 852.186 659.796C852.186 660.076 852.256 660.321 852.396 660.531L852.816 661.161C852.676 661.581 852.571 661.861 852.501 662.001L852.921 662.841C853.131 663.051 853.306 663.296 853.446 663.576C853.936 664.276 854.356 665.081 854.706 665.991C855.126 667.321 855.756 668.441 856.596 669.351C857.506 670.261 858.521 671.101 859.641 671.871C859.851 672.081 860.061 672.256 860.271 672.396C860.481 672.466 860.691 672.571 860.901 672.711C861.041 672.851 861.146 672.991 861.216 673.131C861.356 673.201 861.461 673.306 861.531 673.446C861.741 673.796 862.021 674.146 862.371 674.496C862.721 674.846 863.106 675.091 863.526 675.231C864.086 675.511 864.611 675.826 865.101 676.176C865.661 676.526 866.256 676.841 866.886 677.121C867.446 677.191 867.971 677.261 868.461 677.331L869.931 677.541C870.141 677.471 870.386 677.401 870.666 677.331C870.946 677.261 871.226 677.261 871.506 677.331C872.416 677.541 873.291 677.611 874.131 677.541C874.271 677.471 874.446 677.471 874.656 677.541C874.866 677.611 875.041 677.646 875.181 677.646C875.811 677.506 876.406 677.331 876.966 677.121C877.526 676.841 878.121 676.666 878.751 676.596C880.641 676.246 882.181 675.616 883.371 674.706C884.141 674.146 884.876 673.586 885.576 673.026C886.346 672.466 887.116 671.941 887.886 671.451C887.886 670.471 888.411 669.981 889.461 669.981C889.601 669.911 889.741 669.911 889.881 669.981C890.091 669.981 890.266 669.946 890.406 669.876C890.756 669.666 891.071 669.491 891.351 669.351C891.631 669.211 891.911 669.036 892.191 668.826C892.471 668.406 892.821 668.091 893.241 667.881C893.661 667.671 894.011 667.426 894.291 667.146V666.096C894.431 665.606 894.606 665.081 894.816 664.521C895.096 663.961 895.306 663.436 895.446 662.946C895.796 662.666 896.076 662.456 896.286 662.316L896.811 661.791V660.426L897.861 658.956C897.791 658.396 897.721 657.801 897.651 657.171C897.651 656.541 897.791 655.946 898.071 655.386V655.071C898.141 654.931 898.141 654.826 898.071 654.756C898.001 654.406 898.001 654.056 898.071 653.706C898.141 653.356 898.246 653.006 898.386 652.656ZM883.581 652.866C883.791 653.216 883.861 653.636 883.791 654.126C883.511 655.106 883.021 655.981 882.321 656.751C881.621 657.521 881.026 658.396 880.536 659.376C879.976 659.656 879.416 660.006 878.856 660.426C878.366 660.846 877.876 661.231 877.386 661.581C876.756 661.721 876.161 661.861 875.601 662.001C875.111 662.071 874.586 662.036 874.026 661.896H873.711C873.221 662.106 872.731 662.176 872.241 662.106C871.751 662.036 871.261 661.931 870.771 661.791C870.211 661.581 869.616 661.406 868.986 661.266C868.426 661.126 867.831 660.986 867.201 660.846L866.991 660.426C866.921 660.286 866.886 660.146 866.886 660.006C866.956 659.166 866.781 658.291 866.361 657.381C866.221 657.031 866.046 656.681 865.836 656.331C865.626 655.911 865.416 655.526 865.206 655.176C865.276 654.546 865.416 653.881 865.626 653.181C865.906 652.481 866.081 651.781 866.151 651.081C866.431 650.731 866.676 650.346 866.886 649.926C867.096 649.506 867.341 649.121 867.621 648.771C867.761 648.491 867.936 648.211 868.146 647.931C868.356 647.581 868.496 647.266 868.566 646.986C868.636 646.636 868.741 646.321 868.881 646.041C869.091 645.691 869.266 645.376 869.406 645.096C869.756 644.046 870.491 643.626 871.611 643.836H872.136L872.451 643.521C872.591 643.451 872.696 643.416 872.766 643.416C873.956 643.066 874.971 643.101 875.811 643.521C877.211 644.151 878.506 644.466 879.696 644.466C879.836 644.676 879.976 644.816 880.116 644.886C880.256 644.886 880.326 644.956 880.326 645.096C880.816 645.726 881.271 646.391 881.691 647.091C882.111 647.721 882.566 648.421 883.056 649.191V649.716C883.056 649.926 883.021 650.101 882.951 650.241C882.951 650.661 882.986 650.941 883.056 651.081C883.266 651.291 883.371 651.466 883.371 651.606C883.301 652.026 883.371 652.446 883.581 652.866ZM938.635 639.741C938.845 639.391 939.09 639.076 939.37 638.796C940 638.166 940.42 637.396 940.63 636.486C940.49 635.926 940.385 635.401 940.315 634.911C940.245 634.421 940.14 633.931 940 633.441C939.51 632.811 938.985 632.146 938.425 631.446C937.935 630.746 937.34 630.116 936.64 629.556C936.29 629.346 935.905 629.171 935.485 629.031C935.065 628.821 934.68 628.611 934.33 628.401C933.77 627.981 933.245 627.526 932.755 627.036C932.335 626.546 931.81 626.126 931.18 625.776H930.655C930.445 625.706 930.235 625.671 930.025 625.671C929.115 625.391 928.17 625.181 927.19 625.041C926.28 624.901 925.335 625.006 924.355 625.356H924.145C923.095 625.356 922.29 625.391 921.73 625.461C921.24 625.531 920.785 625.671 920.365 625.881L918.475 626.511C918.195 626.581 917.88 626.686 917.53 626.826C917.18 626.896 916.865 627.001 916.585 627.141C915.465 628.121 914.31 629.101 913.12 630.081C912 630.991 911.09 632.006 910.39 633.126C909.76 634.596 909.235 635.751 908.815 636.591C908.535 637.291 908.29 637.991 908.08 638.691C907.94 639.391 907.8 640.056 907.66 640.686C907.38 641.666 907.415 642.681 907.765 643.731C907.975 644.501 908.15 645.306 908.29 646.146L908.92 648.456C909.27 648.876 909.585 649.296 909.865 649.716C910.145 650.136 910.425 650.521 910.705 650.871C911.055 651.291 911.3 651.746 911.44 652.236C911.58 652.726 911.86 653.216 912.28 653.706C912.98 653.986 913.54 654.301 913.96 654.651C914.31 654.791 914.625 654.896 914.905 654.966L915.745 655.176L916.165 655.386C916.305 655.456 916.445 655.561 916.585 655.701C916.865 655.911 917.145 656.156 917.425 656.436C917.705 656.716 918.055 656.961 918.475 657.171L920.995 657.906C921.345 658.116 921.59 658.431 921.73 658.851C921.87 659.201 922.08 659.551 922.36 659.901L923.83 661.056C923.9 661.266 923.97 661.511 924.04 661.791L924.25 662.421C924.32 662.631 924.355 662.841 924.355 663.051C924.285 663.541 924.25 664.066 924.25 664.626V665.991C924.04 666.411 923.76 666.761 923.41 667.041C923.13 667.251 922.815 667.461 922.465 667.671C921.695 668.231 920.89 668.336 920.05 667.986C919.77 667.916 919.525 667.846 919.315 667.776C919.105 667.706 918.86 667.671 918.58 667.671C918.23 667.741 917.74 667.601 917.11 667.251L915.64 666.621C915.15 666.411 914.73 666.166 914.38 665.886C913.96 665.746 913.575 665.641 913.225 665.571C912.875 665.501 912.49 665.431 912.07 665.361C911.58 666.271 911.055 667.181 910.495 668.091C910.005 669.001 909.655 669.946 909.445 670.926C909.445 671.416 909.41 671.906 909.34 672.396V673.866V674.601C909.41 674.811 909.445 675.021 909.445 675.231C910.075 676.001 910.775 676.701 911.545 677.331C912.315 677.961 913.05 678.626 913.75 679.326C914.24 679.396 914.73 679.501 915.22 679.641C915.78 679.851 916.305 680.131 916.795 680.481C917.075 680.761 917.565 680.831 918.265 680.691C919.035 680.481 919.77 680.341 920.47 680.271C921.17 680.201 921.905 680.341 922.675 680.691H925.195C925.545 680.551 925.93 680.376 926.35 680.166C926.77 680.026 927.19 679.921 927.61 679.851C928.17 679.711 928.695 679.571 929.185 679.431L930.655 679.221C931.005 678.591 931.39 677.996 931.81 677.436C932.23 676.876 932.79 676.386 933.49 675.966C933.63 675.826 933.77 675.651 933.91 675.441C934.05 675.231 934.225 675.056 934.435 674.916L935.485 673.866C935.835 673.516 936.15 673.166 936.43 672.816C936.92 671.906 937.305 670.926 937.585 669.876C937.725 669.316 937.9 668.791 938.11 668.301C938.32 667.811 938.53 667.356 938.74 666.936C938.81 666.446 938.81 665.991 938.74 665.571C938.74 665.151 938.705 664.766 938.635 664.416C938.565 663.786 938.495 663.191 938.425 662.631C938.355 662.001 938.32 661.371 938.32 660.741C938.32 659.831 938.215 658.991 938.005 658.221C937.865 657.381 937.69 656.576 937.48 655.806C937.2 655.316 936.885 654.861 936.535 654.441C936.255 654.021 936.01 653.601 935.8 653.181C935.52 652.831 935.205 652.516 934.855 652.236C934.575 651.956 934.225 651.781 933.805 651.711C933.315 651.431 932.825 651.186 932.335 650.976C931.845 650.766 931.32 650.521 930.76 650.241C930.27 650.031 929.78 649.716 929.29 649.296C928.87 648.806 928.415 648.421 927.925 648.141L927.295 647.721C927.085 647.511 926.84 647.301 926.56 647.091C926.28 647.021 926 646.986 925.72 646.986C925.44 646.916 925.16 646.881 924.88 646.881C924.32 646.671 923.865 646.286 923.515 645.726C923.375 645.166 923.2 644.676 922.99 644.256C922.85 643.766 922.78 643.276 922.78 642.786C923.06 641.806 923.305 641.141 923.515 640.791C923.725 640.371 924.18 639.706 924.88 638.796C926 638.446 927.085 638.376 928.135 638.586C929.185 638.796 930.235 639.146 931.285 639.636C931.635 639.846 931.88 640.126 932.02 640.476C932.16 640.756 932.405 640.966 932.755 641.106C932.825 641.176 932.93 641.211 933.07 641.211L934.33 641.316C934.47 641.596 934.75 641.876 935.17 642.156C936.01 642.716 936.605 642.646 936.955 641.946C937.095 641.596 937.235 641.316 937.375 641.106C937.515 640.896 937.725 640.651 938.005 640.371C938.285 640.231 938.495 640.021 938.635 639.741ZM994.645 644.151C994.715 643.381 994.785 642.646 994.855 641.946C994.785 641.526 994.645 641.141 994.435 640.791C994.225 640.441 994.155 640.091 994.225 639.741C994.225 639.531 994.19 639.321 994.12 639.111V638.481C993.49 637.291 992.755 636.346 991.915 635.646C991.705 635.436 991.46 635.121 991.18 634.701C990.9 633.721 990.235 632.881 989.185 632.181C988.415 631.551 987.68 630.956 986.98 630.396C986.28 629.766 985.545 629.101 984.775 628.401C984.705 628.331 984.635 628.296 984.565 628.296L984.355 628.086H983.41L981.94 627.246C981.45 626.966 980.925 626.791 980.365 626.721L978.895 627.141C978.335 626.931 977.705 626.756 977.005 626.616C976.375 626.476 975.71 626.441 975.01 626.511C973.89 626.651 972.805 626.511 971.755 626.091C971.265 626.371 970.74 626.651 970.18 626.931C969.62 627.211 969.025 627.386 968.395 627.456C968.255 627.456 968.115 627.491 967.975 627.561L967.555 627.771C967.415 627.911 967.24 628.016 967.03 628.086C966.82 628.156 966.645 628.226 966.505 628.296L965.665 628.506C965.455 628.506 965.245 628.541 965.035 628.611H964.09C963.81 628.541 963.495 628.611 963.145 628.821C962.865 629.101 962.515 629.416 962.095 629.766C961.745 630.046 961.36 630.326 960.94 630.606C959.75 631.306 958.84 632.251 958.21 633.441C958.35 633.721 958.21 634.071 957.79 634.491C957.37 634.911 957.195 635.226 957.265 635.436C956.495 636.066 956.04 636.486 955.9 636.696C955.76 636.906 955.585 637.081 955.375 637.221L953.905 637.956C953.625 638.726 953.24 639.531 952.75 640.371L951.91 641.631C951.7 641.981 951.49 642.366 951.28 642.786C951.07 643.486 950.895 644.221 950.755 644.991L950.335 647.301C950.405 647.581 950.44 647.861 950.44 648.141C950.44 648.421 950.475 648.631 950.545 648.771C950.335 649.401 950.16 649.996 950.02 650.556L949.6 652.236C949.46 652.726 949.425 653.251 949.495 653.811L949.705 655.491C949.775 655.701 949.775 655.946 949.705 656.226V657.066V657.591C949.705 657.801 949.74 657.976 949.81 658.116C949.95 658.746 949.985 659.341 949.915 659.901C949.915 660.391 949.88 660.881 949.81 661.371C950.37 662.491 950.825 663.646 951.175 664.836C951.525 665.956 951.875 667.111 952.225 668.301C952.365 668.581 952.54 668.826 952.75 669.036L953.38 669.666C953.66 669.876 953.87 670.086 954.01 670.296L954.43 671.136C954.57 671.416 954.675 671.696 954.745 671.976C955.235 672.256 955.69 672.536 956.11 672.816C956.53 673.026 956.95 673.201 957.37 673.341C958.07 673.621 958.7 673.971 959.26 674.391C959.89 674.741 960.45 675.196 960.94 675.756C961.29 676.316 961.885 676.701 962.725 676.911L965.875 678.381C966.925 678.801 968.045 678.976 969.235 678.906C969.445 678.906 969.655 678.941 969.865 679.011L970.495 679.221C971.125 679.221 971.755 679.291 972.385 679.431C973.015 679.571 973.645 679.606 974.275 679.536H975.115C975.395 679.606 975.64 679.641 975.85 679.641C976.2 679.571 976.55 679.466 976.9 679.326C977.25 679.256 977.6 679.221 977.95 679.221C978.37 679.081 978.755 678.906 979.105 678.696C979.455 678.486 979.805 678.346 980.155 678.276C980.365 678.206 980.68 678.171 981.1 678.171C982.15 678.171 983.165 677.751 984.145 676.911C984.495 676.631 984.88 676.351 985.3 676.071L986.56 675.231C986.7 675.161 986.805 675.056 986.875 674.916C986.945 674.776 987.015 674.706 987.085 674.706C987.505 674.496 987.855 674.251 988.135 673.971C988.205 673.621 988.275 673.306 988.345 673.026C988.485 672.746 988.52 672.431 988.45 672.081C988.31 671.801 988.1 671.486 987.82 671.136C987.54 670.786 987.33 670.436 987.19 670.086C987.05 669.316 986.77 668.651 986.35 668.091L985.09 666.201C984.81 665.781 984.495 665.396 984.145 665.046C983.865 664.696 983.62 664.346 983.41 663.996C982.5 663.716 981.59 663.681 980.68 663.891C980.4 664.101 980.085 664.311 979.735 664.521C979.455 664.661 979.175 664.836 978.895 665.046C978.265 665.116 977.6 665.186 976.9 665.256L975.01 665.466C974.52 665.396 974.065 665.291 973.645 665.151C973.225 664.941 972.77 664.906 972.28 665.046C971.79 665.116 971.335 665.116 970.915 665.046L969.655 664.836C969.305 664.766 968.92 664.696 968.5 664.626L967.45 664.416L966.19 663.366C965.77 663.016 965.385 662.666 965.035 662.316L964.825 661.476C964.755 661.126 964.65 660.811 964.51 660.531C964.37 660.181 964.23 659.866 964.09 659.586C963.95 659.306 963.775 659.026 963.565 658.746C963.495 658.396 963.355 658.116 963.145 657.906C963.005 657.626 962.865 657.381 962.725 657.171C963.005 656.961 963.25 656.926 963.46 657.066C963.67 657.136 963.915 657.206 964.195 657.276C964.545 657.206 964.825 657.171 965.035 657.171L965.875 656.961C966.225 657.101 966.575 657.136 966.925 657.066C967.275 656.926 967.59 656.926 967.87 657.066C968.15 656.926 968.43 656.891 968.71 656.961C969.06 657.031 969.375 656.961 969.655 656.751H975.535H978.58C979.63 656.681 980.61 656.646 981.52 656.646C982.57 656.576 983.62 656.611 984.67 656.751C985.72 656.821 986.735 656.786 987.715 656.646C988.345 656.506 988.94 656.331 989.5 656.121C990.13 655.911 990.796 655.701 991.495 655.491C991.775 655.351 992.055 655.176 992.335 654.966C992.615 654.686 992.825 654.371 992.965 654.021C992.895 653.741 992.825 653.496 992.755 653.286V652.551C992.965 652.201 993.175 651.921 993.385 651.711C993.595 651.431 993.77 651.186 993.91 650.976C994.19 650.136 994.33 649.331 994.33 648.561C994.33 647.721 994.365 646.951 994.435 646.251C994.575 645.551 994.645 644.851 994.645 644.151ZM981.52 642.786V645.411C981.52 645.691 981.345 646.006 980.995 646.356C980.155 646.566 979.315 646.671 978.475 646.671C977.635 646.671 976.76 646.531 975.85 646.251C975.43 646.111 974.975 646.006 974.485 645.936C974.065 645.866 973.645 645.726 973.225 645.516L971.755 645.726C971.335 645.796 970.845 645.796 970.285 645.726C969.725 645.446 969.025 645.481 968.185 645.831C967.975 645.901 967.765 645.936 967.555 645.936C967.415 645.936 967.24 645.971 967.03 646.041C966.54 645.901 966.085 645.761 965.665 645.621C965.245 645.481 964.825 645.376 964.405 645.306C963.985 645.166 963.67 644.816 963.46 644.256C963.46 643.906 963.495 643.696 963.565 643.626C963.845 643.276 964.09 642.891 964.3 642.471C964.51 642.051 964.755 641.666 965.035 641.316L966.505 639.636C967.065 639.006 967.695 638.551 968.395 638.271C968.815 638.201 969.235 638.166 969.655 638.166C970.075 638.166 970.53 638.131 971.02 638.061C972 637.711 973.015 637.431 974.065 637.221C975.115 637.011 976.095 636.766 977.005 636.486C977.425 636.626 977.81 636.731 978.16 636.801C978.51 636.871 978.79 637.046 979 637.326C979.21 637.676 979.385 638.166 979.525 638.796C979.945 638.936 980.295 639.006 980.575 639.006L980.89 639.321V641.106C980.96 641.176 981.03 641.316 981.1 641.526C981.24 641.736 981.345 641.946 981.415 642.156C981.485 642.226 981.52 642.436 981.52 642.786Z" fill="#F19436"/>
</svg>
