<svg width="523" height="523" viewBox="0 0 523 523" fill="none" xmlns="http://www.w3.org/2000/svg">
<path d="M186.779 426.844C186.7 426.372 186.67 426.051 186.591 425.743C184.333 416.85 182.045 407.958 179.812 399.06C178.389 393.394 176.93 387.734 175.677 382.032C174.406 376.239 173.31 370.41 172.251 364.575C171.815 362.165 171.7 359.696 171.367 357.262C171.24 356.312 170.919 355.386 170.683 354.448C169.376 349.29 168.45 344.066 167.796 338.788C167.033 332.638 166.519 326.457 166.67 320.265C166.809 314.66 167.118 309.054 168.092 303.516C168.353 302.045 168.54 300.555 168.813 299.085C168.928 298.449 168.801 297.983 168.335 297.523C165.574 294.811 162.82 292.087 160.096 289.333C157.166 286.379 154.279 283.382 151.367 280.41C150.659 279.69 149.866 279.042 149.188 278.298C148.407 277.444 147.723 276.512 146.973 275.634C143.45 271.512 139.8 267.499 136.422 263.268C129.122 254.121 121.803 244.975 115.108 235.362C111.616 230.35 108.734 224.975 105.762 219.648C101.573 212.142 98.2562 204.273 95.7199 196.058C94.0613 190.677 93.0141 185.181 92.4693 179.594C91.9608 174.376 92.1182 169.158 92.6025 163.934C93.0383 159.249 93.9221 154.66 95.272 150.151C96.3071 146.682 98.3833 143.867 100.702 141.192C104.987 136.24 110.556 133.68 116.87 132.536C120.508 131.876 124.079 132.263 127.596 133.341C136.004 135.913 143.371 140.211 149.358 146.688C152.608 150.205 155.599 153.94 158.238 157.947C160.762 161.785 163.292 165.623 165.822 169.454C165.974 169.684 166.137 169.908 166.416 170.102C164.981 161.507 164.672 152.917 165.78 144.303C166.888 135.671 169.206 127.372 172.893 119.4C170.211 118.286 168.002 116.646 165.877 114.909C161.264 111.125 157.796 106.464 155.586 100.914C153.97 96.8458 152.971 92.6267 152.596 88.2502C152.154 83.1412 152.971 78.2139 154.497 73.3774C156.731 66.2769 160.229 59.921 165.829 54.915C172.227 49.1947 179.315 44.7153 187.971 43.2201C191.476 42.6148 194.969 42.53 198.498 43.0083C202.19 43.5046 205.84 44.1342 209.357 45.4053C213.389 46.8581 217.214 48.6862 220.465 51.5433C225.919 56.3314 229.297 62.2273 230.023 69.5336C230.035 69.6728 230.09 69.812 230.156 70.0662C251.179 63.1716 271.754 65.1268 292.148 73.2745C292.014 71.9912 291.881 70.8108 291.766 69.6243C291.1 62.9113 292.971 56.961 297.39 51.8944C303.273 45.1572 310.828 41.3254 319.587 40.1148C327.656 39.001 335.483 40.1996 342.874 43.8315C350.337 47.4998 356.064 53.0627 360.555 59.9634C365.319 67.2878 368.776 75.1933 370.682 83.7284C372.075 89.9572 372.141 96.2162 369.998 102.318C368.025 107.953 365.01 112.923 359.914 116.307C355.743 119.073 351.173 120.344 346.136 119.594C345.428 119.491 344.702 119.503 343.721 119.443C346.766 125.278 349.393 131.047 350.882 137.3C352.359 143.498 353.921 149.666 354.066 156.355C354.441 155.938 354.678 155.738 354.835 155.484C360.132 147.215 367.002 140.459 374.901 134.727C379.223 131.591 383.836 128.958 388.993 127.366C393.939 125.841 398.969 125.145 404.151 125.381C411.057 125.702 416.602 128.656 421.324 133.625C426.578 139.158 429.205 145.792 430.295 153.183C430.991 157.941 430.991 162.723 430.809 167.517C430.682 170.901 430.555 174.285 429.865 177.62C428.709 183.171 427.153 188.595 425.143 193.897C422.553 200.738 419.841 207.541 416.275 213.921C411.893 221.773 407.341 229.545 402.541 237.148C395.543 248.231 388.327 259.169 381.082 270.09C376.433 277.099 371.56 283.97 366.802 290.907C364.889 293.697 363.019 296.518 361.1 299.309C360.634 299.98 360.501 300.628 360.555 301.463C360.816 305.616 361.088 309.775 361.136 313.939C361.191 318.776 361.1 323.624 360.888 328.455C360.755 331.536 360.307 334.605 359.944 337.674C359.581 340.743 359.23 343.818 358.727 346.863C357.674 353.207 356.106 359.435 353.751 365.416C352.202 369.357 351.354 373.455 350.362 377.541C348.406 385.573 345.949 393.461 343.425 401.33C342.613 403.854 341.948 406.427 341.149 408.963C339.333 414.72 337.613 420.519 335.156 426.051C334.962 426.493 334.793 426.947 334.629 427.401C334.605 427.468 334.672 427.565 334.702 427.68C336.572 427.298 338.461 426.947 340.325 426.523C346.276 425.174 352.311 425.192 358.358 425.434C362.238 425.591 366.033 426.263 369.69 427.571C375.525 429.659 380.398 433.14 384.248 437.988C386.863 441.287 388.164 445.186 388.854 449.29C389.459 452.867 389.792 456.475 389.617 460.107C389.284 467.165 387.916 473.987 384.798 480.391C384.326 481.354 383.794 482.268 382.771 482.77C382.601 482.855 382.426 482.97 382.311 483.115C380.271 485.748 377.395 487.171 374.417 488.315C370.864 489.677 367.268 490.997 363.588 491.941C359.732 492.927 355.767 493.515 351.826 494.156C348.6 494.677 345.343 495.028 342.099 495.427C340.949 495.567 339.793 495.664 338.636 495.694C334.478 495.809 330.325 495.948 326.167 495.96C323.074 495.972 319.98 495.869 316.893 495.688C314.351 495.536 311.821 495.125 309.278 494.943C305.325 494.659 301.476 493.769 297.638 492.879C294.823 492.225 292.039 491.432 289.266 490.621C287.801 490.191 286.24 489.889 285.168 488.618C285.114 488.551 284.999 488.521 284.908 488.497C282.777 487.903 281.972 486.305 281.361 484.32C279.521 478.333 278.455 472.195 277.36 466.051C276.167 459.386 275.071 452.698 273.528 446.112C271.918 439.235 270.816 432.268 269.248 425.391C269.024 424.405 268.824 423.418 268.619 422.45C267.517 422.292 267.39 422.329 267.238 423.14C266.125 429.042 264.012 434.659 262.354 440.404C260.156 448.012 257.91 455.615 255.562 463.182C253.709 469.132 251.742 475.052 249.672 480.93C248.94 483.012 247.783 484.955 246.73 486.911C245.671 488.872 243.927 490.028 241.857 490.815C237.911 492.316 233.77 492.988 229.636 493.672C225.501 494.356 221.355 494.943 217.208 495.524C214.581 495.894 211.948 496.208 209.315 496.469C206.337 496.759 203.359 497.068 200.368 497.183C196.7 497.328 193.02 497.298 189.345 497.316C187.554 497.322 185.762 497.316 183.976 497.225C176.767 496.856 169.666 495.924 162.917 493.158C158.946 491.529 155.278 489.411 152.07 486.547C148.432 483.309 146.04 479.253 144.582 474.647C143.068 469.871 142.306 464.974 142.245 459.949C142.172 454.489 142.717 449.132 144.297 443.896C145.629 439.477 147.893 435.537 150.762 431.971C153.861 428.121 158.002 425.906 162.802 424.944C166.7 424.163 170.671 423.818 174.624 424.096C178.328 424.356 181.96 425.198 185.477 426.445C185.871 426.584 186.27 426.699 186.833 426.881L186.779 426.844ZM244.418 232.087C243.243 231.427 242.057 230.798 240.907 230.096C236.331 227.305 232.584 223.625 229.557 219.23C226.603 214.938 224.702 210.193 224.248 204.963C223.734 198.958 224.811 193.219 227.275 187.717C230.005 181.609 233.776 176.258 238.897 171.973C245.229 166.67 252.469 163.553 260.846 163.22C264.611 163.068 268.268 163.389 271.869 164.442C277.269 166.028 281.912 168.946 286.046 172.675C289.042 175.374 291.712 178.353 293.455 182.081C296.058 187.65 297.141 193.552 297.341 199.636C297.456 203.219 297.069 206.791 296.215 210.271C294.859 215.822 292.123 220.683 288.37 224.969C285.271 228.504 281.688 231.409 277.275 233.183C277.099 233.249 276.954 233.389 276.797 233.498C280.247 233.074 283.661 232.505 287.069 231.918C294.696 230.598 302.184 228.764 309.321 225.689C310.513 225.174 311.669 224.551 312.771 223.861C316.572 221.494 319.75 218.346 323.043 215.362C323.994 214.503 324.69 213.359 325.513 212.354C325.725 212.093 325.967 211.851 326.209 211.621C326.936 210.919 327.783 210.308 328.376 209.503C330.35 206.815 332.262 204.085 334.139 201.325C339.75 193.086 343.673 184.073 346.251 174.46C347.432 170.054 348.037 165.55 348.418 161.016C348.594 158.946 348.764 156.852 348.642 154.787C348.437 151.222 348.134 147.651 347.626 144.116C347.002 139.769 346.233 135.417 344.357 131.398C342.698 127.85 341.015 124.303 339.121 120.877C337.535 118.002 335.634 115.302 333.866 112.53C333.225 111.525 332.741 110.466 332.529 109.073C334.321 110.145 335.943 111.107 337.553 112.088C338.975 112.953 340.398 113.765 342.172 113.444C342.438 113.395 342.741 113.559 343.025 113.559C345.44 113.595 347.856 113.625 350.271 113.65C354.853 112.348 358.782 110.102 360.955 105.647C361.814 103.88 362.474 101.973 362.922 100.054C364.302 94.1521 363.927 88.2199 362.759 82.3422C361.372 75.3628 358.842 68.8253 355.107 62.7358C351.639 57.082 347.244 52.4876 341.294 49.4307C335.138 46.2649 328.624 45.1753 321.766 45.7746C316.003 46.277 310.761 48.1475 306.009 51.4465C300.943 54.9634 298.031 59.7999 297.426 65.9198C297.093 69.3035 297.547 72.6752 298.395 75.9803C298.473 76.289 298.612 76.6764 298.855 76.8398C300.392 77.887 301.96 78.8919 303.74 79.6606C305.434 75.2841 308.219 71.9004 311.839 69.1461C317.22 65.0481 322.928 64.467 328.897 67.6449C334.478 70.611 337.347 75.5626 338.546 81.5795C339.048 84.1037 338.866 86.6763 338.582 89.2369C338.201 92.5964 336.984 95.5988 334.938 98.2501C334.423 98.916 333.636 99.3821 332.922 99.8663C332.002 100.484 331.028 101.023 330.077 101.598C329.502 101.949 328.933 102.3 328.255 102.723C327.656 102.167 327.105 101.64 326.542 101.125C325.12 99.8179 323.782 98.4015 322.256 97.2271C318.431 94.2792 314.526 91.4221 310.634 88.5589C308.025 86.6461 305.416 84.7211 302.729 82.9173C299.811 80.9621 296.439 79.9693 293.207 78.6921C287.686 76.5069 282.142 74.358 276.294 73.1958C272.329 72.4088 268.316 71.8519 264.315 71.289C263.05 71.1134 261.742 71.2587 260.314 71.2587C260.55 76.6401 260.786 82.0153 261.034 87.5177C263.153 87.5177 265.077 87.439 266.996 87.548C268.231 87.6146 269.454 87.9415 270.671 88.2018C270.87 88.2441 271.01 88.5831 271.252 88.8737C267.983 90.4717 264.46 89.9874 260.973 90.6533C261.107 94.6484 261.234 98.5407 261.361 102.542C262.511 102.627 263.467 102.693 264.424 102.778C265.435 102.863 266.452 102.905 267.444 103.069C268.013 103.159 268.715 103.232 268.891 104.116C266.548 105.538 263.897 104.812 261.343 105.169C261.343 106.61 261.385 107.911 261.331 109.213C261.282 110.496 261.579 111.809 260.955 113.329C259.823 110.46 259.69 107.59 258.909 104.8C257.693 104.721 256.536 104.673 255.386 104.558C254.381 104.455 253.377 104.309 252.396 104.085C252.105 104.019 251.688 103.595 251.706 103.371C251.73 103.093 252.111 102.693 252.414 102.621C253.153 102.433 253.933 102.342 254.702 102.312C255.937 102.263 257.178 102.3 258.395 102.3C258.673 99.8966 258.225 91.7913 257.759 90.6533C255.241 90.3749 252.699 90.1146 250.168 89.8059C249.406 89.7151 248.661 89.5092 247.91 89.3398C247.511 89.249 247.063 89.0613 247.239 88.5952C247.366 88.2623 247.765 87.893 248.11 87.8143C248.607 87.6933 249.182 87.7417 249.69 87.8507C252.438 88.4439 255.144 87.6691 257.941 87.7478C258.292 82.1061 257.711 76.628 257.765 71.1013C257.354 71.0529 257.117 70.9924 256.887 71.0045C254.236 71.1679 251.585 71.3011 248.94 71.519C244.944 71.8398 241.028 72.5844 237.13 73.5347C231.282 74.9573 225.635 76.8943 220.326 79.7393C217.802 81.0952 215.253 82.324 212.481 83.0868C211.9 83.2441 211.385 83.6739 210.871 84.0311C210.435 84.3337 210.078 84.7575 209.63 85.0299C205.138 87.7599 201.319 91.3434 197.354 94.7392C192.784 98.6436 188.758 103.093 184.86 107.657C184.575 107.99 184.255 108.286 183.988 108.625C183.401 109.388 182.626 109.842 181.579 110.078C181.301 109.697 180.913 109.315 180.695 108.849C179.684 106.658 178.583 104.497 177.766 102.227C176.603 98.9947 176.101 95.6049 175.677 92.1908C175.35 89.5637 175.429 86.9729 175.859 84.4003C176.567 80.1207 178.643 76.4948 181.519 73.3168C184.46 70.0602 188.129 68.0687 192.523 67.7721C197.166 67.4573 201.482 68.7648 205.199 71.5311C207.275 73.0747 209.043 75.042 210.889 76.8882C211.524 77.5238 211.954 78.3652 212.529 79.1824C217.354 76.979 221.694 73.9827 226.549 71.5311C225.689 68.7103 225.011 65.8229 223.934 63.0929C221.779 57.651 218.026 53.6317 212.59 51.2649C209.164 49.7697 205.659 48.6014 201.966 47.9598C196.857 47.0639 191.791 47.0216 186.73 48.3412C182.989 49.3157 179.557 50.938 176.276 52.9295C172.106 55.4537 168.341 58.4501 165.423 62.4149C163.002 65.714 161.077 69.2854 159.684 73.1292C157.917 78.0141 156.688 83.0262 156.942 88.2744C157.033 90.1448 157.342 92.0213 157.717 93.8555C158.704 98.6194 160.145 103.244 162.99 107.263C164.382 109.225 166.077 110.968 167.584 112.851C169.237 114.921 171.258 116.537 173.595 117.929C173.922 117.469 174.23 116.979 174.594 116.537C175.235 115.756 175.865 114.939 176.906 114.636C177.675 114.412 178.195 114.685 178.238 115.466C178.268 116.071 178.177 116.725 177.965 117.294C176.966 119.963 175.853 122.596 174.872 125.272C171.537 134.327 169.612 143.668 169.642 153.347C169.648 155.81 169.951 158.268 170.126 160.726C170.411 164.787 171.077 168.789 172.112 172.717C175.229 184.557 180.713 195.169 188.752 204.43C193.77 210.211 199.509 215.132 206.095 219.049C211.095 222.027 216.385 224.388 221.742 226.633C223.431 227.342 225.072 228.231 226.821 228.74C232.559 230.417 238.437 231.446 244.436 232.093L244.418 232.087ZM180.314 378.479C180.259 378.503 180.199 378.527 180.144 378.545C180.266 379.036 180.374 379.532 180.502 380.022C183.873 392.873 187.257 405.718 190.623 418.569C191.531 422.026 192.372 425.5 193.298 428.957C193.395 429.314 193.758 429.677 194.091 429.889C199.115 433.152 204.158 436.39 209.194 439.641C209.642 439.931 210.047 440.27 210.471 440.591C211.373 441.269 211.482 442.171 211.24 443.194C211.095 443.805 210.75 444.132 210.12 444.096C208.915 444.023 207.723 443.933 206.627 443.303C204.067 441.838 201.44 440.494 198.934 438.945C194.775 436.372 190.556 434.017 185.962 432.238C179.37 429.683 172.681 429.054 165.774 430.125C160.278 430.979 156.18 433.902 153.262 438.63C150.344 443.351 149.497 448.642 149.085 453.993C148.746 458.418 148.922 462.879 149.818 467.268C150.611 471.124 151.67 474.877 153.662 478.309C153.94 478.787 154.255 479.235 154.551 479.701C154.521 478.412 154.243 477.244 153.988 476.069C153.189 472.371 152.663 468.636 152.814 464.847C153.014 459.768 154.14 454.889 156.24 450.252C157.687 447.062 159.37 444.029 161.712 441.396C163.335 439.574 165.35 438.376 167.62 437.589C168.353 437.335 169.115 437.22 169.878 437.607C171.059 438.206 171.222 439.502 170.163 440.282C169.818 440.537 169.412 440.73 169.013 440.882C167.197 441.578 165.683 442.716 164.618 444.314C163.553 445.918 162.572 447.601 161.737 449.332C159.6 453.769 158.341 458.454 157.881 463.376C157.451 467.982 157.566 472.534 158.595 477.068C159.206 479.774 160.235 482.316 161.143 484.919C161.555 486.112 162.227 486.874 163.298 487.243C167.027 488.527 170.544 490.482 174.569 490.815C175.659 490.906 176.749 491.081 177.941 491.233C177.487 489.816 177.075 488.533 176.658 487.25C174.921 481.911 174.043 476.445 174.224 470.827C174.261 469.616 174.364 468.412 174.467 467.207C174.842 462.782 175.798 458.485 177.808 454.514C179.146 451.88 180.726 449.356 183.637 448.085C184.69 447.625 185.447 447.686 185.962 448.406C186.537 449.205 186.379 449.732 185.417 450.621C184.091 451.838 182.983 453.212 182.227 454.883C180.665 458.351 179.703 461.977 179.285 465.742C178.867 469.508 178.861 473.261 179.418 477.026C180.048 481.299 181.234 485.422 182.62 489.495C183.419 491.832 183.401 491.826 185.95 491.874C192.572 491.995 199.182 491.808 205.78 491.124C207.886 490.906 210.011 490.797 212.112 490.524C215.453 490.089 218.788 489.616 222.112 489.041C227.753 488.067 233.377 486.977 239.018 486.009C240.477 485.76 241.379 484.992 241.918 483.708C242.668 481.929 243.498 480.167 244.085 478.333C245.913 472.673 247.711 467.008 249.394 461.299C252.565 450.543 255.653 439.756 258.764 428.981C259.369 426.893 259.932 424.798 260.501 422.734C260.301 422.625 260.223 422.546 260.138 422.54C256.676 422.262 253.219 421.917 249.751 421.729C246.494 421.554 243.346 420.906 240.271 419.895C239.279 419.568 238.322 419.042 237.438 418.479C237.112 418.267 236.839 417.674 236.863 417.274C236.9 416.681 237.505 416.663 238.007 416.663C238.492 416.663 238.976 416.632 239.46 416.675C242.444 416.923 245.417 417.256 248.401 417.431C252.015 417.649 255.64 417.801 259.26 417.861C261.433 417.898 263.613 417.722 265.786 417.631C266.01 417.619 266.228 417.516 266.518 417.438C266.113 412.244 265.707 407.105 265.308 401.978C263.431 401.857 261.7 401.778 259.975 401.62C258.824 401.517 257.68 401.342 256.554 401.106C256.197 401.033 255.725 400.706 255.616 400.392C255.41 399.811 255.986 399.532 256.415 399.369C257.039 399.133 257.705 398.927 258.364 398.878C260.241 398.745 262.13 398.697 264.012 398.612C264.43 398.594 264.841 398.539 265.362 398.491C265.162 392.71 264.962 387.074 264.769 381.372C264.163 381.348 263.685 381.312 263.213 381.306C260.598 381.294 257.989 381.324 255.374 381.275C254.369 381.257 253.358 381.094 252.366 380.924C251.76 380.821 251.246 380.464 251.3 379.756C251.349 379.157 251.881 379.054 252.372 378.981C252.85 378.909 253.328 378.806 253.806 378.794C256.9 378.715 259.999 378.66 263.092 378.588C263.607 378.576 264.121 378.527 264.745 378.491C264.745 377.874 264.745 377.395 264.745 376.923C264.805 372.323 264.908 367.722 264.92 363.128C264.95 354.127 264.92 345.119 264.944 336.118C264.944 335.404 264.666 334.956 264.115 334.55C262.947 333.691 261.803 332.795 260.671 331.887C258.558 330.192 256.452 328.491 254.363 326.766C253.982 326.451 253.697 326.034 253.159 325.428C253.818 325.356 254.157 325.216 254.424 325.307C255.792 325.773 257.232 326.13 258.461 326.851C260.423 327.989 262.232 329.381 264.109 330.658C264.369 330.834 264.66 330.961 265.071 331.185C265.501 315.555 265.774 300.095 265.634 284.46C263.062 284.29 260.665 284.139 258.262 283.964C257.396 283.903 256.524 283.83 255.671 283.691C255.271 283.625 254.902 283.395 254.587 283.261C254.509 282.414 254.841 281.966 255.435 281.742C256.203 281.451 256.978 281.07 257.771 281.004C259.835 280.828 261.912 280.798 263.988 280.707C264.502 280.683 265.011 280.658 265.634 280.628C265.634 278.497 265.761 276.512 265.598 274.545C265.435 272.559 265.538 270.537 265.156 268.491C261.197 268.788 257.838 267.529 254.72 265.677C253.703 266.355 252.771 267.039 251.785 267.632C248.8 269.418 245.792 271.173 242.789 272.928C236.567 276.554 230.314 280.138 223.716 283.056C221.064 284.224 218.389 285.344 215.665 286.342C213.389 287.178 211.034 287.202 208.698 286.47C208.377 286.367 208.044 286.312 207.711 286.258C203.328 285.537 199.527 283.673 196.434 280.459C192.227 276.088 189.957 270.774 188.958 264.872C188.649 263.044 188.522 261.185 188.274 259.042C187.935 259.702 187.717 260.108 187.517 260.525C184.448 267.105 181.706 273.818 179.582 280.773C176.276 291.572 173.661 302.493 173.068 313.824C172.729 320.313 172.778 326.79 173.431 333.255C173.928 338.164 174.727 343.019 175.677 347.862C177.729 358.315 181.537 368.091 186.851 377.292C190.06 382.843 193.879 387.946 198.262 392.631C201.803 396.421 205.489 400.065 209.884 402.855C213.147 404.926 216.543 406.784 219.932 408.642C221.349 409.417 222.311 410.373 222.39 412.08C221.633 412.492 220.986 413.14 220.011 412.904C218.934 412.643 217.838 412.45 216.779 412.135C213.934 411.293 211.3 409.968 208.752 408.473C202.911 405.034 197.862 400.658 193.213 395.743C189.103 391.403 185.544 386.663 182.293 381.669C181.609 380.622 180.968 379.55 180.302 378.491L180.314 378.479ZM267.62 268.019C268.007 272.372 268.001 276.609 268.491 280.955C269.194 280.955 269.72 280.907 270.235 280.967C271.621 281.125 273.007 281.3 274.387 281.536C275.096 281.657 275.568 282.166 275.852 282.826C276.264 283.782 276.04 284.502 275.023 284.744C273.867 285.023 272.65 285.126 271.452 285.156C270.562 285.18 269.66 284.98 268.649 284.865C268.649 285.416 268.637 285.846 268.649 286.27C268.734 289.508 268.837 292.747 268.909 295.985C268.994 299.853 269.109 303.727 269.121 307.601C269.139 314.236 269.103 320.87 269.06 327.498C269.048 329.242 269.03 330.985 268.885 332.722C268.788 333.891 269.224 334.617 270.174 335.222C271.106 335.822 271.99 336.512 272.838 337.232C273.649 337.922 274.321 338.733 274.424 340.004C273.395 340.21 272.462 339.908 271.585 339.605C270.701 339.302 269.89 338.794 268.976 338.334C268.873 351.863 268.776 365.246 268.673 378.697C271.718 378.987 274.587 379.29 277.462 379.526C278.958 379.647 279.405 379.938 279.648 381.263C278.734 382.026 277.711 382.462 276.482 382.359C274.514 382.196 272.541 382.044 270.568 381.905C270.053 381.869 269.539 381.905 268.897 381.905C268.855 387.462 269.303 392.867 269.714 398.382C271.415 398.382 272.91 398.327 274.406 398.4C275.701 398.461 277.027 398.557 278.146 399.35C279.121 400.04 279.067 400.785 277.983 401.251C276.179 402.026 274.303 402.407 272.335 402.05C271.536 401.905 270.737 401.778 269.811 402.147C270.289 407.111 270.761 412.05 271.252 417.159C272.123 417.08 272.874 417.026 273.619 416.935C276.96 416.53 280.301 416.094 283.643 415.706C286.137 415.416 288.631 415.149 291.125 414.925C291.784 414.865 292.48 414.956 293.134 415.089C294.054 415.277 294.381 415.815 294.49 416.875C294.575 417.692 294.181 418.158 293.479 418.424C292.934 418.63 292.39 418.824 291.833 418.987C287.656 420.234 283.334 420.652 279.036 421.233C277.475 421.445 275.913 421.632 274.272 421.838C274.327 422.195 274.351 422.425 274.406 422.655C275.743 428.491 276.918 434.375 278.473 440.155C280.435 447.437 282.148 454.762 283.485 462.183C284.89 469.974 286.258 477.776 288.806 485.476C291.548 486.112 294.436 486.862 297.359 487.443C301.324 488.236 305.301 489.017 309.302 489.568C312.117 489.955 314.986 490.016 317.838 490.095C322.571 490.222 327.299 490.549 332.051 490.167C336.379 489.822 340.731 489.828 345.029 489.108C349.871 488.297 354.72 487.534 359.556 486.711C360.773 486.505 361.966 486.16 363.255 485.857C363.158 482.153 363.067 478.575 362.97 475.004C362.849 470.773 362.105 466.644 360.846 462.607C359.466 458.194 357.674 453.975 354.847 450.27C353.364 448.327 351.481 447.092 348.885 447.395C348.455 447.443 348.013 447.51 347.583 447.486C346.149 447.407 344.829 447.068 343.981 445.742C344.678 444.374 345.573 443.406 347.123 443.158C349.998 442.686 352.674 443.128 355.21 444.611C359.187 446.935 362.008 450.301 364.096 454.326C366.723 459.399 368.346 464.774 368.8 470.494C369.096 474.253 369.423 478.012 369.066 481.783C369.006 482.437 369.06 483.103 369.06 483.944C371.742 483.018 374.211 482.135 376.53 480.779C378.352 479.713 378.757 477.964 379.145 476.221C379.435 474.919 379.326 473.539 379.453 472.195C379.78 468.654 379.478 465.149 378.945 461.644C378.049 455.706 375.579 450.591 371.203 446.42C370.01 445.282 368.721 444.786 367.02 444.925C365.477 445.052 364.024 444.489 363.031 443.109C363.431 442.516 363.727 441.947 364.151 441.505C364.502 441.136 364.974 440.767 365.452 440.652C367.492 440.155 369.581 439.944 371.56 440.845C373.001 441.505 374.435 442.238 375.731 443.134C377.099 444.084 378.303 445.27 379.581 446.354C379.641 446.257 379.696 446.209 379.683 446.184C376.693 438.527 371.136 433.769 363.188 431.941C360.719 431.372 358.104 431.354 355.549 431.239C349.787 430.967 344.048 431.203 338.431 432.655C331.609 434.417 325.186 437.207 319.012 440.573C316.899 441.729 314.811 442.94 312.656 444.017C311.264 444.713 310.156 444.326 309.078 442.958C309.478 442.407 309.841 441.778 310.325 441.263C312.232 439.247 314.417 437.565 316.827 436.203C319.732 434.562 322.68 433.006 325.628 431.439C326.173 431.148 326.542 430.839 326.675 430.18C327.583 425.658 329.151 421.336 330.701 417.008C331.221 415.561 331.778 414.126 332.287 412.674C333.17 410.162 334.714 407.958 335.471 405.379C336.354 402.365 337.414 399.399 338.388 396.415C338.497 396.088 338.534 395.737 338.624 395.313C336.143 397.534 333.806 399.695 331.397 401.766C328.382 404.356 325.198 406.711 321.554 408.376C320.114 409.036 318.776 409.786 317.032 409.217C315.858 408.836 315.374 408.249 316.112 407.244C316.591 406.59 317.135 405.93 317.789 405.476C321.869 402.613 325.949 399.744 329.478 396.197C331.282 394.381 333.219 392.619 334.641 390.525C336.53 387.734 338.207 384.738 339.55 381.651C341.839 376.372 343.836 370.973 345.864 365.585C348.188 359.411 349.774 353.031 350.797 346.518C351.427 342.504 351.802 338.455 352.311 334.429C352.922 329.526 353.249 324.605 353.249 319.666C353.249 315.307 353.067 310.955 353.061 306.597C353.055 299.424 352.293 292.305 351.415 285.211C350.44 277.311 348.921 269.502 346.76 261.827C345.119 255.992 342.843 250.404 340.004 245.047C339.726 244.527 339.405 244.03 339.103 243.528C338.927 243.776 338.933 243.915 338.945 244.048C339.308 246.918 339.877 249.775 339.98 252.656C340.113 256.27 339.896 259.902 339.768 263.522C339.659 266.718 339.036 269.841 338.261 272.935C336.966 278.134 335.053 283.05 331.651 287.305C326.288 294 318.001 294.738 311.336 291.675C309.2 290.695 307.238 289.309 305.235 288.049C301.258 285.556 297.505 282.753 294.169 279.424C292.801 278.062 291.476 276.639 290.029 275.362C286.966 272.668 284.345 269.563 281.688 266.488C280.307 264.89 278.951 263.268 277.487 261.536C274.793 264.569 271.694 266.887 267.608 268.044L267.62 268.019ZM170.308 291.754C170.471 291.149 170.58 290.725 170.695 290.307C172.887 282.378 175.308 274.533 178.498 266.936C181.851 258.933 185.968 251.312 189.86 243.576C190.247 242.808 190.556 241.984 190.786 241.155C191.803 237.511 192.983 233.934 194.702 230.556C196.476 227.063 198.274 223.576 201.567 221.089C201.385 220.931 201.264 220.792 201.113 220.701C195.193 217.003 190.199 212.233 185.55 207.081C185.096 206.579 184.624 206.089 184.109 205.647C180.483 202.547 177.324 199.049 174.83 194.969C171.125 188.903 167.457 182.82 163.686 176.797C159.89 170.732 156.101 164.66 152.106 158.728C149.243 154.479 145.98 150.514 142.021 147.178C138.51 144.224 134.66 141.864 130.387 140.193C129.921 140.011 129.424 139.902 128.813 139.721C128.686 141.04 128.504 142.136 128.492 143.238C128.456 147.699 129.394 151.967 131.174 156.053C131.616 157.069 132.009 158.117 132.372 159.164C132.687 160.06 132.451 160.853 131.815 161.513C129.788 161.083 129.212 160.75 128.183 159.291C127.711 158.619 127.281 157.911 126.924 157.172C124.164 151.482 123.129 145.526 124.237 139.249C124.291 138.94 124.243 138.613 124.243 138.256C121.779 137.657 119.394 137.675 116.997 138.099C113.644 138.686 110.635 140.03 108.014 142.215C107.282 142.826 106.815 143.504 106.725 144.521C106.495 147.1 106.694 149.654 107.142 152.172C107.881 156.301 108.783 160.399 109.612 164.509C109.679 164.842 109.703 165.181 109.751 165.52C108.256 164.212 107.003 162.82 105.805 161.373C104.83 160.199 104.237 158.819 103.94 157.324C103.644 155.81 103.347 154.291 103.093 152.766C102.893 151.591 102.748 150.411 102.578 149.231C102.469 149.212 102.366 149.2 102.257 149.182C101.676 150.738 100.962 152.263 100.532 153.861C99.3579 158.256 98.6618 162.723 98.3894 167.287C98.0383 173.153 98.1715 178.988 99.0915 184.787C100.199 191.748 102.33 198.425 105.036 204.908C109.098 214.636 114.364 223.746 120.296 232.408C125.072 239.387 130.411 245.979 135.544 252.717C140.883 259.726 146.525 266.488 152.378 273.068C153.08 273.861 153.928 274.521 154.63 275.313C155.78 276.621 156.779 278.056 157.984 279.309C161.87 283.358 165.822 287.341 169.751 291.349C169.878 291.476 170.042 291.566 170.314 291.76L170.308 291.754ZM420.119 141.936C420.022 145.054 419.986 148.032 419.804 150.998C419.689 152.917 419.417 154.836 418.6 156.634C418.255 157.39 417.728 157.893 416.947 158.141C416.475 158.292 416.088 158.232 415.852 157.741C415.343 156.694 414.792 155.665 414.992 154.436C415.131 153.577 415.186 152.705 415.373 151.858C416.215 148.032 416.172 144.176 415.724 140.32C415.579 139.085 415.277 137.863 414.95 136.658C414.835 136.234 414.502 135.792 414.151 135.514C412.668 134.333 411.045 133.389 409.248 132.741C405.246 131.307 401.209 131.464 397.129 132.336C397.492 133.486 397.982 134.564 398.164 135.695C398.921 140.29 399.005 144.921 398.436 149.545C398.297 150.689 397.752 151.646 396.602 152.142C395.991 152.408 395.567 152.257 395.301 151.67C394.774 150.508 394.508 149.303 394.732 148.008C395.222 145.114 395.059 142.209 394.441 139.382C394.012 137.433 393.11 135.593 392.389 133.625C391.905 133.758 391.578 133.807 391.282 133.934C389.556 134.685 387.789 135.356 386.124 136.234C381.56 138.625 377.474 141.694 373.545 145.03C367.032 150.562 361.554 156.961 356.899 164.103C355.925 165.605 354.914 167.088 353.818 168.498C353.328 169.128 353.013 169.763 352.825 170.526C352.093 173.474 351.421 176.44 350.543 179.339C348.17 187.172 344.52 194.4 340.077 201.258C335.676 208.044 331.173 214.739 325.428 220.501C325.313 220.616 325.277 220.822 325.18 221.04C327.262 222.124 329.236 223.268 330.755 225.005C332.722 227.257 334.641 229.557 336.578 231.839C339.551 235.344 342.329 239 344.726 242.929C347.916 248.165 350.259 253.8 352.22 259.569C355.289 268.582 357.51 277.82 358.903 287.25C359.066 288.364 359.278 289.472 359.508 290.792C359.811 290.459 359.956 290.332 360.059 290.18C365.38 282.323 370.779 274.527 375.985 266.597C382.02 257.414 387.867 248.11 393.836 238.891C399.338 230.392 404.429 221.651 409.199 212.729C414.048 203.661 417.795 194.103 420.948 184.327C423.479 176.494 424.756 168.45 424.611 160.205C424.574 158.086 424.362 155.962 424.126 153.855C423.763 150.683 423.091 147.578 421.711 144.66C421.263 143.722 420.773 142.814 420.125 141.93L420.119 141.936ZM218.861 260.58C218.897 260.447 218.928 260.314 218.964 260.18C219.527 260.156 220.084 260.126 220.647 260.12C221.567 260.108 222.517 260.271 223.395 260.084C226.549 259.418 229.714 258.752 232.814 257.868C236.107 256.93 239.339 255.755 242.578 254.648C244.036 254.145 245.459 253.528 246.912 253.007C247.808 252.686 248.147 252.148 248.189 251.173C248.231 250.174 248.564 249.188 248.77 248.195C248.831 247.898 248.885 247.596 248.921 247.396C247.42 247.396 246.016 247.299 244.63 247.414C241.906 247.638 239.194 247.523 236.555 246.924C232.747 246.058 228.964 245.041 225.223 243.903C219.866 242.269 214.902 239.841 210.508 236.276C207.796 234.073 205.52 231.567 203.952 228.437C203.764 228.068 203.528 227.729 203.183 227.154C202.523 228.304 201.948 229.236 201.44 230.211C199.012 234.878 197.499 239.866 196.367 244.975C195.023 251.01 194.491 257.111 195.271 263.268C195.883 268.086 197.414 272.608 200.465 276.464C202.202 278.667 204.351 280.386 207.245 280.852C209.055 281.149 210.859 281.179 212.717 281.01C215.005 280.804 217.003 280.005 218.982 278.988C223.498 276.669 228.068 274.454 232.523 272.027C238.213 268.921 243.806 265.652 249.436 262.438C249.926 262.16 250.368 261.809 250.707 261.579C249.896 259.714 249.151 258.007 248.407 256.288C245.78 257.323 243.201 258.286 240.665 259.345C236.99 260.883 233.201 261.96 229.267 262.553C226.022 263.037 222.929 262.42 219.926 261.228C219.545 261.076 219.218 260.798 218.861 260.574V260.58ZM327.262 232.099C326.621 232.923 326.1 233.661 325.513 234.345C321.863 238.613 317.347 241.73 312.305 244.091C307.547 246.318 302.493 247.614 297.323 248.395C293.316 249.006 289.278 249.418 285.259 249.932C284.218 250.065 283.177 250.247 282.051 250.423C281.99 251.179 282.081 251.893 281.857 252.493C281.445 253.613 282.033 254.079 282.862 254.527C286.554 256.53 290.162 258.685 294.169 260.071C300.416 262.226 306.615 264.533 313.261 265.217C313.867 265.277 314.514 265.495 315.017 265.834C315.338 266.052 315.586 266.627 315.568 267.027C315.555 267.341 315.138 267.771 314.799 267.91C314.278 268.122 313.679 268.177 313.104 268.219C310.235 268.431 307.42 268.025 304.654 267.299C296.518 265.168 288.758 262.148 281.712 257.469C281.349 257.226 280.949 257.033 280.562 256.821C282.359 259.757 284.545 262.257 286.833 264.666C290.701 268.734 294.787 272.577 298.945 276.349C303.715 280.677 309.048 284.121 314.684 287.16C315.81 287.765 317.045 287.977 318.31 288.031C321.106 288.152 323.394 287.033 325.319 285.108C328.34 282.093 330.277 278.455 331.348 274.351C332.965 268.171 333.455 261.887 333.037 255.519C332.632 249.309 331.451 243.256 329.557 237.341C328.988 235.562 328.279 233.831 327.244 232.099H327.262ZM246.748 173.934C244.381 174.975 241.458 177.433 239.605 179.339C235.834 183.226 233.243 187.844 231.536 192.953C229.521 198.964 229.412 204.987 231.76 210.949C235.181 219.642 241.361 225.671 249.793 229.49C250.931 230.005 252.105 230.659 253.31 230.786C255.604 231.022 257.941 231.052 260.247 230.931C262.602 230.81 264.956 230.477 267.287 230.108C271.936 229.369 276.276 227.868 279.89 224.702C282.904 222.063 285.344 218.988 287.347 215.507C289.309 212.106 290.356 208.498 290.277 204.593C290.223 202.033 290.132 199.46 289.775 196.93C288.964 191.155 286.99 185.78 283.752 180.901C282.499 179.012 281.052 177.275 279.182 175.786C278.709 177.336 277.735 178.413 276.573 179.309C274.569 180.841 272.269 181.694 269.781 182.027C268.546 182.196 267.299 182.287 266.064 182.414C265.985 183.758 266.452 185.556 267.287 186.997C268.582 189.242 270.223 191.222 272.251 192.814C273.062 193.449 274.085 193.928 275.09 194.194C276.875 194.672 278.728 194.66 280.55 194.279C281.809 194.018 282.941 193.528 283.776 192.487C283.982 192.227 284.242 191.991 284.527 191.827C285.259 191.403 286.088 191.518 286.506 192.051C286.845 192.481 286.827 193.425 286.312 193.928C284.974 195.241 283.885 196.827 282.148 197.717C281.821 197.886 281.494 198.316 281.421 198.673C280.87 201.415 280.368 204.164 279.878 206.918C279.29 210.211 278.419 213.413 277.075 216.482C275.743 219.521 274.127 222.378 271.415 224.424C268.812 226.391 265.84 227.438 262.608 227.214C257.62 226.863 253.607 224.551 250.574 220.538C247.027 215.846 244.176 210.744 241.712 205.417C240.35 202.469 239.157 199.454 238.595 196.24C238.449 195.393 238.098 194.727 237.553 194.085C236.706 193.098 235.907 192.063 235.138 191.01C234.823 190.58 234.624 190.048 235.102 189.557C235.562 189.091 236.095 188.673 236.76 189.073C237.408 189.46 238.038 189.92 238.582 190.441C241.409 193.141 244.496 195.132 248.661 194.509C251.452 194.091 253.812 192.989 255.525 190.635C257.19 188.347 258.485 185.877 259.551 183.268C259.69 182.929 259.757 182.56 259.902 182.063C254.4 181.095 249.848 178.698 246.742 173.922L246.748 173.934ZM182.923 105.623C183.698 104.364 184.273 103.299 184.975 102.33C188.94 96.8881 193.843 92.3664 199.127 88.2623C201.682 86.2829 204.424 84.5456 207.075 82.6933C207.656 82.2877 208.201 81.8337 208.867 81.3253C206.155 78.3895 203.486 75.6655 199.975 73.9706C196.876 72.4754 193.692 72.3423 190.429 73.5045C186.077 75.0481 183.183 78.1836 180.992 82.0759C180.042 83.7647 179.418 85.5868 179.243 87.548C178.758 93.008 179.751 98.2138 181.888 103.232C182.203 103.976 182.529 104.715 182.929 105.635L182.923 105.623ZM329.587 98.6436C330.749 97.5237 331.572 96.1557 331.966 94.6121C332.462 92.6509 332.91 90.6594 333.122 88.6497C333.63 83.9584 332.759 79.5032 330.434 75.3689C329.478 73.6679 328.092 72.427 326.245 71.749C325.755 71.5674 325.198 71.5432 324.72 71.3374C322.141 70.2115 319.593 70.5384 317.147 71.6401C312.414 73.7708 309.72 77.772 307.614 82.3422C315.065 87.6509 322.589 92.7175 329.593 98.6496L329.587 98.6436ZM319.52 224.829C312.65 228.837 305.362 231.5 297.826 233.51C295.683 234.079 293.485 234.448 291.318 234.938C290.713 235.078 290.089 235.247 289.551 235.538C288.146 236.288 286.784 237.111 285.404 237.904C285.029 238.122 284.623 238.304 284.284 238.564C283.056 239.496 281.839 240.447 280.634 241.415C279.974 241.942 279.357 242.511 278.679 243.098C279.254 243.77 279.769 244.236 280.102 244.805C280.556 245.574 281.137 245.659 281.936 245.532C285.029 245.035 288.128 244.557 291.234 244.133C296.694 243.389 302.057 242.226 307.238 240.326C311.942 238.601 316.1 236.022 319.484 232.287C320.997 230.622 322.135 228.746 322.408 226.409C321.409 225.865 320.483 225.362 319.52 224.835V224.829ZM274.781 251.633C274.872 249.811 274.291 248.189 273.255 246.742C272.753 246.04 272.129 245.423 271.548 244.787C269.811 242.886 267.584 242.299 265.114 242.517C262.402 242.753 260.053 243.988 257.789 245.404C256.276 246.355 255.344 247.735 254.975 249.454C254.248 252.826 254.611 256.076 256.318 259.115C257.941 262.002 261.185 263.413 264.46 262.741C267.396 262.136 269.811 260.616 271.906 258.528C273.818 256.621 274.72 254.303 274.775 251.633H274.781ZM263.189 189.545C262.093 191.034 261.185 192.396 260.144 193.655C257.269 197.13 253.685 199.327 249.067 199.418C247.553 199.448 246.04 199.182 244.436 199.049C245.574 202.227 247.093 205.217 248.691 208.183C248.927 208.116 249.085 208.11 249.194 208.032C252.747 205.61 256.688 204.254 260.949 203.843C265.126 203.437 269.018 204.297 272.529 206.67C272.874 206.906 273.225 207.142 273.588 207.396C274.297 205.671 275.519 199.721 275.447 198.244C269.763 197.778 266.373 193.891 263.189 189.545ZM250.961 241.21C250.519 240.852 250.326 240.641 250.084 240.507C247.971 239.327 245.919 238.068 244.097 236.452C243.77 236.161 243.237 236.046 242.783 235.949C239.587 235.259 236.367 234.66 233.189 233.909C230.005 233.159 226.76 232.517 223.71 231.385C217.923 229.23 212.16 226.96 206.742 223.934C206.597 223.855 206.409 223.855 206.107 223.794C206.192 224.115 206.198 224.315 206.294 224.448C207.342 225.955 208.274 227.566 209.485 228.921C212.868 232.711 217.087 235.332 221.815 237.099C224.388 238.062 227.033 238.831 229.654 239.678C236.294 241.815 243.098 242.184 249.993 241.482C250.223 241.458 250.441 241.361 250.961 241.21ZM251.373 212.79C253.201 215.58 254.908 218.395 257.341 220.635C259.654 222.765 263.044 223.165 265.707 221.706C268.207 220.338 269.975 218.28 271.24 215.744C271.609 215.005 271.512 214.448 270.925 213.952C269.678 212.886 268.492 211.718 267.123 210.828C265.253 209.618 263.255 208.576 260.877 208.988C259.884 209.158 258.867 209.285 257.91 209.581C255.61 210.296 253.346 211.119 251.361 212.796L251.373 212.79ZM277.154 237.323C276.125 237.372 275.217 237.39 274.315 237.463C273.413 237.535 272.517 237.662 271.294 237.802C272.705 238.528 273.764 239.073 274.841 239.624C275.64 238.831 276.373 238.104 277.16 237.323H277.154ZM257.723 239.151C259.615 238.582 260.675 238.042 260.901 237.529C259.339 237.45 257.795 237.378 255.961 237.287C256.67 238.038 257.208 238.613 257.723 239.151Z" fill="#3D3D3D"/>
<path d="M244.418 232.087C238.425 231.44 232.541 230.405 226.803 228.734C225.053 228.225 223.413 227.336 221.724 226.627C216.373 224.388 211.077 222.021 206.077 219.043C199.491 215.12 193.752 210.205 188.734 204.424C180.695 195.163 175.211 184.551 172.094 172.711C171.059 168.783 170.393 164.781 170.108 160.72C169.939 158.262 169.63 155.798 169.624 153.341C169.594 143.662 171.525 134.327 174.854 125.266C175.841 122.59 176.948 119.957 177.947 117.288C178.159 116.719 178.25 116.065 178.22 115.46C178.177 114.679 177.657 114.412 176.888 114.63C175.847 114.933 175.223 115.75 174.575 116.531C174.212 116.973 173.904 117.463 173.577 117.923C171.24 116.537 169.218 114.915 167.566 112.845C166.059 110.962 164.364 109.219 162.971 107.257C160.12 103.238 158.686 98.6134 157.699 93.8495C157.318 92.0153 157.009 90.1388 156.924 88.2684C156.67 83.0202 157.899 78.0082 159.666 73.1232C161.059 69.2854 162.984 65.708 165.405 62.4089C168.316 58.4441 172.088 55.4477 176.258 52.9235C179.539 50.9381 182.971 49.3097 186.712 48.3352C191.773 47.0216 196.839 47.064 201.948 47.9538C205.635 48.6015 209.146 49.7698 212.572 51.2589C218.001 53.6257 221.76 57.639 223.915 63.0869C224.993 65.8109 225.671 68.6983 226.53 71.5251C221.676 73.9767 217.33 76.973 212.511 79.1764C211.936 78.3592 211.506 77.5178 210.871 76.8822C209.031 75.036 207.263 73.0687 205.181 71.5251C201.458 68.7649 197.148 67.4513 192.505 67.7661C188.117 68.0627 184.448 70.0542 181.5 73.3108C178.625 76.4888 176.555 80.1147 175.841 84.3943C175.411 86.973 175.332 89.5577 175.659 92.1848C176.083 95.5928 176.585 98.9887 177.747 102.221C178.565 104.485 179.66 106.652 180.677 108.843C180.889 109.309 181.282 109.691 181.561 110.072C182.614 109.83 183.383 109.382 183.97 108.619C184.236 108.274 184.563 107.978 184.842 107.651C188.746 103.093 192.772 98.6436 197.336 94.7333C201.301 91.3434 205.12 87.7539 209.612 85.0239C210.06 84.7515 210.417 84.3277 210.853 84.0251C211.367 83.674 211.882 83.2442 212.463 83.0808C215.235 82.3181 217.784 81.0892 220.308 79.7333C225.616 76.8883 231.264 74.9452 237.111 73.5288C241.004 72.5844 244.926 71.8338 248.921 71.513C251.567 71.3012 254.218 71.1619 256.869 70.9985C257.099 70.9864 257.335 71.0469 257.747 71.0953C257.686 76.622 258.268 82.1062 257.923 87.7418C255.126 87.6631 252.42 88.4379 249.672 87.8447C249.157 87.7357 248.588 87.6873 248.092 87.8083C247.747 87.8931 247.354 88.2563 247.22 88.5892C247.045 89.0493 247.493 89.243 247.892 89.3338C248.643 89.5033 249.387 89.7091 250.15 89.7999C252.68 90.1086 255.217 90.3689 257.741 90.6473C258.207 91.7853 258.655 99.8906 258.377 102.294C257.16 102.294 255.919 102.257 254.684 102.306C253.915 102.336 253.14 102.427 252.396 102.615C252.099 102.687 251.718 103.087 251.688 103.365C251.67 103.589 252.087 104.019 252.378 104.079C253.358 104.303 254.363 104.449 255.368 104.552C256.518 104.673 257.674 104.715 258.891 104.794C259.678 107.584 259.805 110.454 260.937 113.323C261.561 111.809 261.258 110.49 261.312 109.207C261.361 107.905 261.324 106.604 261.324 105.163C263.879 104.806 266.53 105.538 268.873 104.11C268.697 103.226 267.995 103.153 267.426 103.063C266.427 102.899 265.41 102.857 264.406 102.772C263.449 102.693 262.493 102.627 261.343 102.536C261.209 98.5347 261.082 94.6425 260.955 90.6473C264.442 89.9815 267.965 90.4718 271.234 88.8677C270.998 88.5771 270.858 88.2381 270.652 88.1958C269.436 87.9294 268.213 87.6086 266.978 87.542C265.059 87.433 263.128 87.5117 261.016 87.5117C260.774 82.0093 260.538 76.6341 260.295 71.2527C261.724 71.2527 263.031 71.1014 264.297 71.283C268.304 71.846 272.311 72.4029 276.276 73.1898C282.117 74.352 287.662 76.5009 293.189 78.6861C296.421 79.9633 299.793 80.9561 302.71 82.9113C305.398 84.7151 308.007 86.634 310.616 88.5529C314.514 91.4161 318.413 94.2732 322.238 97.2211C323.764 98.3955 325.101 99.8119 326.524 101.119C327.087 101.634 327.638 102.161 328.237 102.717C328.915 102.3 329.484 101.943 330.059 101.592C331.009 101.017 331.984 100.478 332.904 99.8603C333.618 99.3821 334.411 98.91 334.92 98.2441C336.966 95.5928 338.182 92.5904 338.564 89.2309C338.854 86.6703 339.03 84.0977 338.527 81.5735C337.335 75.5566 334.46 70.605 328.879 67.6389C322.904 64.467 317.202 65.0421 311.821 69.1402C308.201 71.8944 305.416 75.2842 303.721 79.6546C301.942 78.8859 300.374 77.8871 298.836 76.8338C298.594 76.6704 298.455 76.283 298.376 75.9743C297.529 72.6752 297.075 69.2975 297.408 65.9138C298.013 59.8 300.925 54.9635 305.991 51.4405C310.743 48.1415 315.985 46.271 321.748 45.7686C328.606 45.1693 335.12 46.2589 341.276 49.4247C347.226 52.4816 351.621 57.076 355.089 62.7298C358.824 68.8193 361.36 75.3568 362.74 82.3362C363.909 88.22 364.284 94.1461 362.904 100.048C362.456 101.961 361.796 103.874 360.937 105.641C358.763 110.096 354.841 112.342 350.253 113.644C347.837 113.613 345.422 113.589 343.007 113.553C342.722 113.553 342.42 113.389 342.153 113.438C340.38 113.759 338.957 112.941 337.535 112.082C335.925 111.101 334.308 110.145 332.511 109.067C332.722 110.454 333.207 111.513 333.848 112.524C335.616 115.296 337.517 118.002 339.103 120.871C340.997 124.297 342.68 127.838 344.339 131.392C346.215 135.417 346.984 139.763 347.607 144.11C348.116 147.645 348.418 151.216 348.624 154.781C348.745 156.846 348.576 158.94 348.4 161.01C348.013 165.544 347.414 170.048 346.233 174.454C343.655 184.067 339.738 193.08 334.121 201.319C332.244 204.073 330.331 206.809 328.358 209.497C327.771 210.302 326.917 210.913 326.191 211.615C325.949 211.851 325.713 212.087 325.495 212.348C324.672 213.353 323.982 214.497 323.025 215.356C319.726 218.34 316.554 221.488 312.753 223.855C311.651 224.539 310.495 225.168 309.302 225.683C302.166 228.758 294.678 230.592 287.051 231.912C283.643 232.499 280.229 233.068 276.778 233.492C276.936 233.383 277.081 233.25 277.257 233.177C281.669 231.403 285.253 228.498 288.352 224.963C292.105 220.683 294.841 215.822 296.197 210.265C297.045 206.785 297.438 203.219 297.323 199.63C297.123 193.546 296.046 187.644 293.437 182.075C291.694 178.353 289.024 175.375 286.028 172.669C281.887 168.934 277.244 166.016 271.851 164.436C268.249 163.377 264.593 163.062 260.828 163.214C252.45 163.553 245.211 166.67 238.879 171.967C233.752 176.258 229.987 181.609 227.257 187.711C224.793 193.213 223.716 198.958 224.23 204.957C224.678 210.187 226.579 214.932 229.539 219.224C232.566 223.613 236.312 227.299 240.889 230.09C242.039 230.792 243.225 231.415 244.4 232.081L244.418 232.087ZM282.753 159.037C283.74 159.079 284.466 158.704 285.108 158.05C286.464 156.67 287.795 155.284 288.715 153.54C289.188 152.651 289.811 151.827 290.465 151.053C291.942 149.297 293.776 148.099 296.118 147.887C298.346 147.687 300.374 148.395 302.069 149.745C304.569 151.737 307.517 153.268 308.921 156.44C309.399 157.524 310.005 157.56 311.385 157.154C312.311 156.876 312.862 156.204 312.856 155.241C312.856 154.818 312.753 154.376 312.626 153.964C311.439 150.296 309.478 147.1 306.506 144.636C304.109 142.645 301.167 141.603 298.14 142.021C291.379 142.947 286.409 146.682 283.231 152.729C282.299 154.509 282.341 156.464 282.462 158.401C282.474 158.619 282.65 158.825 282.753 159.037ZM235.489 159.461C236.216 157.451 235.949 154.672 234.957 152.735C232.547 148.032 228.716 144.927 223.849 143.074C219.66 141.482 215.616 142.021 212.075 144.709C208.794 147.197 206.742 150.653 205.586 154.606C205.187 155.962 205.659 156.936 206.761 157.348C208.28 157.911 208.928 157.663 209.715 156.234C210.035 155.641 210.247 154.902 210.731 154.503C212.886 152.723 214.993 150.841 217.354 149.364C221.228 146.942 225.229 148.056 228.007 151.519C228.788 152.493 229.484 153.559 230.108 154.642C231.016 156.222 232.323 157.445 233.631 158.655C234.079 159.073 234.805 159.182 235.495 159.473L235.489 159.461ZM334.853 172.717C334.738 171.046 333.854 170.52 332.856 171.21C332.274 171.615 331.627 172.003 331.215 172.554C330.023 174.122 328.933 175.762 327.801 177.384C327.692 177.542 327.595 177.711 327.523 177.893C327.232 178.613 327.626 179.569 328.443 180.108C329.121 180.55 329.563 180.036 329.908 179.618C331.427 177.76 332.928 175.883 334.381 173.97C334.684 173.577 334.756 173.002 334.853 172.729V172.717ZM204.466 173.922C204.454 172.336 203.262 171.573 202.075 172.172C201.736 172.348 201.367 172.53 201.107 172.802C199.878 174.097 198.649 175.393 197.481 176.743C196.918 177.396 197.106 177.808 197.911 178.728C198.425 179.321 198.928 179.454 199.515 178.946C200.998 177.644 202.475 176.331 203.903 174.975C204.224 174.666 204.345 174.152 204.466 173.922ZM319.066 178.934C319.532 178.516 319.926 178.244 320.216 177.881C321.742 175.95 323.279 174.025 324.72 172.033C325.089 171.525 325.247 170.786 325.289 170.138C325.331 169.43 324.738 169.109 324.097 169.442C323.594 169.703 323.061 170.023 322.704 170.453C321.191 172.269 319.738 174.134 318.267 175.98C317.565 176.864 317.571 177.112 318.249 177.996C318.449 178.256 318.685 178.492 319.072 178.928L319.066 178.934ZM197.56 172.293C197.36 172.003 197.202 171.531 196.936 171.458C196.585 171.361 196.04 171.452 195.774 171.682C194.17 173.056 192.596 174.473 191.052 175.919C190.393 176.537 190.483 177.088 191.216 177.935C191.815 178.625 192.172 178.667 192.935 178.123C193.092 178.008 193.244 177.887 193.365 177.741C194.618 176.216 195.877 174.697 197.112 173.159C197.287 172.947 197.372 172.663 197.56 172.299V172.293Z" fill="#C69C6D"/>
<path d="M180.314 378.479C180.974 379.538 181.621 380.61 182.305 381.657C185.562 386.645 189.115 391.384 193.225 395.731C197.874 400.646 202.923 405.022 208.764 408.461C211.313 409.962 213.946 411.287 216.791 412.123C217.85 412.438 218.946 412.631 220.023 412.892C220.998 413.128 221.645 412.48 222.402 412.068C222.323 410.361 221.361 409.405 219.945 408.63C216.555 406.772 213.153 404.913 209.896 402.843C205.501 400.053 201.815 396.409 198.274 392.619C193.891 387.934 190.072 382.831 186.864 377.28C181.543 368.079 177.735 358.303 175.689 347.849C174.739 343.007 173.94 338.152 173.444 333.243C172.79 326.778 172.741 320.301 173.08 313.812C173.674 302.48 176.295 291.554 179.594 280.761C181.718 273.806 184.46 267.093 187.529 260.513C187.723 260.096 187.947 259.69 188.286 259.03C188.528 261.173 188.655 263.031 188.97 264.86C189.969 270.761 192.245 276.076 196.446 280.447C199.539 283.661 203.34 285.519 207.723 286.246C208.056 286.3 208.389 286.355 208.71 286.458C211.046 287.19 213.407 287.166 215.677 286.33C218.395 285.332 221.076 284.218 223.728 283.043C230.326 280.132 236.579 276.548 242.802 272.916C245.81 271.161 248.812 269.406 251.797 267.62C252.783 267.027 253.716 266.343 254.732 265.665C257.856 267.511 261.209 268.776 265.168 268.479C265.55 270.525 265.447 272.553 265.61 274.533C265.774 276.494 265.646 278.485 265.646 280.616C265.023 280.646 264.515 280.677 264 280.695C261.93 280.786 259.847 280.816 257.783 280.991C256.99 281.058 256.209 281.439 255.447 281.73C254.854 281.954 254.521 282.402 254.599 283.249C254.914 283.376 255.283 283.612 255.683 283.679C256.542 283.818 257.408 283.891 258.274 283.951C260.671 284.121 263.074 284.272 265.646 284.448C265.786 300.083 265.513 315.543 265.084 331.173C264.672 330.949 264.381 330.822 264.121 330.646C262.238 329.369 260.429 327.977 258.473 326.839C257.245 326.124 255.798 325.767 254.436 325.295C254.176 325.204 253.831 325.344 253.171 325.416C253.709 326.021 253.994 326.439 254.375 326.754C256.464 328.479 258.57 330.18 260.683 331.875C261.815 332.783 262.959 333.679 264.127 334.538C264.678 334.944 264.956 335.386 264.956 336.106C264.938 345.107 264.956 354.115 264.932 363.116C264.92 367.716 264.817 372.317 264.757 376.911C264.751 377.383 264.757 377.861 264.757 378.479C264.133 378.515 263.619 378.564 263.104 378.576C260.011 378.648 256.912 378.703 253.818 378.782C253.34 378.794 252.862 378.897 252.384 378.969C251.894 379.042 251.361 379.145 251.312 379.744C251.252 380.452 251.766 380.809 252.378 380.912C253.37 381.082 254.381 381.245 255.386 381.263C257.995 381.318 260.61 381.288 263.225 381.294C263.697 381.294 264.176 381.33 264.781 381.36C264.981 387.068 265.174 392.704 265.374 398.479C264.853 398.527 264.436 398.582 264.024 398.6C262.142 398.691 260.259 398.733 258.377 398.866C257.717 398.915 257.051 399.12 256.427 399.356C255.992 399.52 255.423 399.798 255.628 400.379C255.743 400.694 256.209 401.015 256.567 401.094C257.693 401.33 258.843 401.505 259.987 401.608C261.712 401.766 263.449 401.844 265.32 401.965C265.719 407.093 266.125 412.232 266.53 417.425C266.246 417.504 266.022 417.613 265.798 417.619C263.625 417.71 261.446 417.885 259.272 417.849C255.653 417.783 252.027 417.631 248.413 417.419C245.429 417.244 242.45 416.911 239.472 416.663C238.994 416.62 238.504 416.657 238.019 416.651C237.517 416.651 236.912 416.669 236.875 417.262C236.851 417.661 237.124 418.255 237.45 418.467C238.34 419.03 239.291 419.556 240.283 419.883C243.358 420.9 246.512 421.542 249.763 421.717C253.231 421.905 256.688 422.25 260.15 422.528C260.235 422.534 260.314 422.613 260.513 422.722C259.938 424.786 259.375 426.881 258.776 428.969C255.665 439.744 252.578 450.531 249.406 461.287C247.723 466.989 245.925 472.661 244.097 478.321C243.504 480.155 242.68 481.917 241.93 483.696C241.391 484.98 240.483 485.742 239.03 485.997C233.389 486.965 227.765 488.055 222.124 489.029C218.806 489.598 215.465 490.07 212.124 490.512C210.023 490.785 207.905 490.894 205.792 491.112C199.2 491.796 192.59 491.983 185.962 491.862C183.407 491.814 183.425 491.826 182.632 489.483C181.24 485.409 180.06 481.287 179.43 477.014C178.873 473.248 178.879 469.495 179.297 465.73C179.715 461.959 180.677 458.339 182.239 454.871C182.989 453.2 184.103 451.832 185.429 450.609C186.391 449.719 186.549 449.193 185.974 448.394C185.459 447.673 184.696 447.613 183.649 448.073C180.738 449.35 179.158 451.868 177.82 454.502C175.81 458.472 174.854 462.77 174.479 467.195C174.376 468.4 174.279 469.61 174.236 470.815C174.055 476.432 174.933 481.898 176.67 487.237C177.088 488.521 177.493 489.804 177.953 491.22C176.761 491.069 175.677 490.894 174.582 490.803C170.55 490.47 167.033 488.515 163.31 487.231C162.245 486.862 161.573 486.099 161.155 484.907C160.254 482.304 159.224 479.762 158.607 477.056C157.578 472.522 157.463 467.97 157.893 463.363C158.353 458.442 159.612 453.757 161.749 449.32C162.584 447.583 163.565 445.906 164.63 444.302C165.695 442.704 167.209 441.566 169.025 440.87C169.424 440.718 169.83 440.525 170.175 440.27C171.228 439.489 171.065 438.194 169.89 437.595C169.128 437.207 168.365 437.322 167.632 437.577C165.356 438.364 163.347 439.562 161.724 441.384C159.382 444.017 157.699 447.056 156.252 450.24C154.152 454.883 153.026 459.756 152.826 464.834C152.675 468.624 153.201 472.359 154.001 476.057C154.255 477.231 154.533 478.394 154.563 479.689C154.267 479.223 153.946 478.775 153.674 478.297C151.682 474.865 150.617 471.112 149.83 467.256C148.928 462.861 148.758 458.406 149.097 453.981C149.503 448.63 150.35 443.339 153.274 438.618C156.192 433.896 160.284 430.967 165.786 430.113C172.693 429.042 179.382 429.671 185.974 432.226C190.568 434.005 194.793 436.36 198.946 438.933C201.452 440.482 204.085 441.826 206.639 443.291C207.735 443.92 208.928 444.011 210.132 444.084C210.762 444.12 211.107 443.793 211.252 443.182C211.494 442.159 211.391 441.257 210.483 440.579C210.06 440.258 209.648 439.919 209.206 439.629C204.17 436.378 199.127 433.14 194.103 429.877C193.77 429.659 193.407 429.302 193.31 428.945C192.39 425.488 191.543 422.014 190.635 418.557C187.269 405.706 183.885 392.861 180.514 380.01C180.387 379.52 180.272 379.024 180.157 378.533C180.211 378.509 180.272 378.485 180.326 378.467L180.314 378.479Z" fill="#C69C6D"/>
<path d="M267.62 268.019C271.706 266.863 274.805 264.545 277.499 261.512C278.964 263.243 280.32 264.866 281.7 266.464C284.357 269.539 286.978 272.638 290.041 275.338C291.488 276.615 292.813 278.031 294.181 279.399C297.517 282.723 301.264 285.525 305.247 288.025C307.25 289.284 309.212 290.671 311.348 291.651C318.013 294.714 326.3 293.976 331.663 287.281C335.065 283.031 336.978 278.116 338.273 272.91C339.042 269.823 339.665 266.694 339.781 263.498C339.908 259.878 340.126 256.246 339.992 252.632C339.889 249.757 339.32 246.893 338.957 244.024C338.939 243.885 338.933 243.746 339.115 243.504C339.417 244.012 339.744 244.502 340.017 245.023C342.856 250.38 345.132 255.967 346.772 261.803C348.927 269.472 350.452 277.287 351.427 285.186C352.299 292.287 353.061 299.399 353.073 306.572C353.073 310.931 353.267 315.283 353.261 319.641C353.261 324.581 352.934 329.502 352.323 334.405C351.82 338.437 351.439 342.486 350.809 346.493C349.786 353.001 348.201 359.387 345.876 365.561C343.848 370.949 341.845 376.348 339.563 381.627C338.225 384.72 336.542 387.71 334.653 390.501C333.237 392.595 331.294 394.356 329.49 396.172C325.961 399.72 321.881 402.589 317.801 405.452C317.147 405.912 316.603 406.572 316.124 407.22C315.386 408.224 315.87 408.806 317.045 409.193C318.788 409.762 320.126 409.011 321.566 408.352C325.21 406.681 328.394 404.326 331.409 401.741C333.818 399.671 336.155 397.51 338.636 395.289C338.546 395.712 338.509 396.064 338.4 396.39C337.426 399.381 336.36 402.341 335.483 405.355C334.726 407.934 333.182 410.143 332.299 412.649C331.79 414.102 331.227 415.531 330.713 416.983C329.163 421.312 327.595 425.634 326.687 430.155C326.554 430.815 326.191 431.124 325.64 431.414C322.692 432.976 319.744 434.538 316.839 436.178C314.43 437.54 312.244 439.223 310.338 441.239C309.847 441.753 309.484 442.389 309.091 442.934C310.168 444.302 311.282 444.683 312.668 443.993C314.823 442.916 316.911 441.705 319.024 440.549C325.198 437.177 331.615 434.387 338.443 432.631C344.06 431.184 349.799 430.948 355.561 431.215C358.116 431.336 360.731 431.348 363.2 431.917C371.148 433.745 376.711 438.503 379.696 446.16C379.708 446.184 379.653 446.233 379.593 446.33C378.309 445.24 377.111 444.054 375.743 443.109C374.447 442.207 373.013 441.481 371.572 440.821C369.593 439.913 367.51 440.131 365.464 440.627C364.986 440.742 364.514 441.112 364.163 441.481C363.739 441.929 363.443 442.498 363.043 443.085C364.036 444.471 365.483 445.034 367.032 444.901C368.733 444.762 370.022 445.258 371.215 446.396C375.591 450.567 378.055 455.676 378.957 461.62C379.49 465.125 379.792 468.63 379.466 472.171C379.338 473.515 379.447 474.895 379.157 476.196C378.763 477.94 378.358 479.689 376.542 480.754C374.223 482.11 371.754 483 369.072 483.92C369.072 483.085 369.018 482.419 369.078 481.759C369.441 477.982 369.115 474.229 368.812 470.47C368.358 464.75 366.736 459.374 364.108 454.302C362.02 450.276 359.199 446.911 355.222 444.586C352.686 443.103 350.01 442.667 347.135 443.133C345.586 443.388 344.69 444.35 343.994 445.718C344.841 447.038 346.155 447.383 347.595 447.462C348.025 447.486 348.467 447.425 348.897 447.371C351.494 447.068 353.376 448.303 354.859 450.246C357.686 453.945 359.478 458.164 360.858 462.583C362.117 466.62 362.868 470.748 362.983 474.98C363.085 478.551 363.17 482.128 363.267 485.833C361.978 486.136 360.785 486.481 359.569 486.687C354.732 487.51 349.877 488.272 345.041 489.084C340.743 489.804 336.391 489.798 332.063 490.143C327.311 490.524 322.583 490.197 317.85 490.07C314.999 489.992 312.129 489.931 309.315 489.544C305.313 488.993 301.336 488.206 297.372 487.419C294.448 486.838 291.56 486.087 288.818 485.452C286.276 477.746 284.908 469.943 283.497 462.159C282.16 454.738 280.447 447.413 278.485 440.131C276.93 434.35 275.755 428.466 274.418 422.631C274.363 422.407 274.345 422.171 274.284 421.814C275.919 421.608 277.487 421.421 279.048 421.209C283.34 420.628 287.668 420.216 291.845 418.963C292.402 418.799 292.947 418.606 293.491 418.4C294.2 418.134 294.587 417.674 294.502 416.85C294.393 415.797 294.066 415.258 293.146 415.065C292.493 414.931 291.796 414.841 291.137 414.901C288.637 415.125 286.143 415.391 283.655 415.682C280.313 416.076 276.972 416.505 273.631 416.911C272.886 417.002 272.136 417.05 271.264 417.135C270.774 412.026 270.301 407.086 269.823 402.123C270.749 401.754 271.548 401.881 272.347 402.026C274.321 402.383 276.191 402.002 277.995 401.227C279.079 400.761 279.133 400.016 278.159 399.326C277.045 398.539 275.719 398.436 274.418 398.376C272.929 398.309 271.427 398.358 269.726 398.358C269.315 392.849 268.867 387.438 268.909 381.881C269.551 381.881 270.071 381.85 270.58 381.881C272.553 382.02 274.521 382.171 276.494 382.335C277.723 382.438 278.752 382.002 279.66 381.239C279.418 379.913 278.97 379.629 277.475 379.502C274.599 379.266 271.73 378.963 268.685 378.673C268.788 365.222 268.885 351.839 268.988 338.31C269.902 338.764 270.713 339.272 271.597 339.581C272.475 339.883 273.407 340.186 274.436 339.98C274.333 338.715 273.661 337.898 272.85 337.208C272.002 336.487 271.119 335.797 270.186 335.198C269.236 334.593 268.8 333.866 268.897 332.698C269.042 330.961 269.067 329.218 269.073 327.474C269.109 320.84 269.151 314.206 269.133 307.577C269.121 303.703 269.006 299.835 268.921 295.961C268.849 292.723 268.746 289.484 268.661 286.246C268.649 285.816 268.661 285.392 268.661 284.841C269.672 284.956 270.568 285.156 271.464 285.132C272.656 285.095 273.873 284.993 275.035 284.72C276.046 284.478 276.276 283.758 275.864 282.801C275.58 282.142 275.108 281.633 274.399 281.512C273.025 281.276 271.633 281.106 270.247 280.943C269.732 280.882 269.206 280.931 268.504 280.931C268.013 276.585 268.019 272.353 267.632 267.995L267.62 268.019Z" fill="#C69C6D"/>
<path d="M170.308 291.754C170.042 291.56 169.872 291.47 169.745 291.342C165.816 287.335 161.864 283.346 157.977 279.303C156.779 278.05 155.774 276.615 154.624 275.307C153.928 274.514 153.074 273.849 152.372 273.062C146.519 266.482 140.877 259.72 135.538 252.711C130.411 245.973 125.072 239.381 120.29 232.402C114.358 223.734 109.092 214.63 105.03 204.902C102.318 198.419 100.187 191.742 99.0855 184.781C98.1654 178.982 98.0322 173.147 98.3833 167.281C98.6557 162.723 99.3518 158.25 100.526 153.855C100.956 152.257 101.664 150.732 102.251 149.176C102.36 149.194 102.463 149.206 102.572 149.225C102.742 150.405 102.887 151.585 103.087 152.76C103.347 154.285 103.638 155.798 103.934 157.318C104.231 158.813 104.824 160.193 105.799 161.367C106.997 162.808 108.25 164.206 109.745 165.514C109.703 165.175 109.679 164.836 109.606 164.503C108.777 160.393 107.875 156.295 107.136 152.166C106.682 149.648 106.489 147.094 106.719 144.515C106.809 143.498 107.276 142.82 108.008 142.209C110.629 140.018 113.637 138.68 116.991 138.093C119.388 137.669 121.773 137.651 124.237 138.25C124.237 138.607 124.285 138.934 124.231 139.243C123.129 145.52 124.158 151.476 126.918 157.166C127.275 157.905 127.705 158.613 128.177 159.285C129.206 160.75 129.788 161.083 131.809 161.507C132.445 160.853 132.681 160.06 132.366 159.158C132.003 158.111 131.61 157.063 131.168 156.047C129.382 151.961 128.45 147.693 128.486 143.232C128.492 142.13 128.68 141.034 128.807 139.715C129.418 139.896 129.915 140.005 130.381 140.187C134.654 141.858 138.504 144.218 142.015 147.172C145.98 150.502 149.237 154.467 152.1 158.722C156.095 164.654 159.884 170.726 163.68 176.791C167.451 182.814 171.119 188.897 174.824 194.963C177.318 199.049 180.477 202.548 184.103 205.641C184.618 206.077 185.09 206.573 185.544 207.075C190.193 212.233 195.181 216.997 201.107 220.695C201.258 220.786 201.379 220.925 201.561 221.083C198.268 223.57 196.476 227.057 194.696 230.55C192.977 233.928 191.797 237.511 190.78 241.149C190.55 241.978 190.241 242.802 189.854 243.57C185.968 251.306 181.851 258.927 178.492 266.93C175.308 274.527 172.881 282.372 170.689 290.301C170.574 290.719 170.465 291.143 170.302 291.748L170.308 291.754ZM152.62 188.141C152.681 183.54 151.537 179.69 149.461 176.113C147.911 173.437 145.714 171.325 143.341 169.394C138.298 165.29 132.639 163.583 126.18 165.011C124.63 165.356 123.068 165.677 121.525 166.046C120.502 166.289 119.412 166.446 118.486 166.912C114.697 168.795 111.991 171.761 110.447 175.689C108.783 179.933 108.571 184.333 109.285 188.813C110.145 194.194 112.518 198.879 115.714 203.225C118.262 206.694 121.446 209.357 125.338 211.149C127.457 212.124 129.691 212.838 132.003 213.008C137.027 213.377 141.101 211.337 144.461 207.693C146.785 205.175 148.468 202.245 149.866 199.158C151.513 195.526 152.729 191.773 152.608 188.141H152.62Z" fill="#C69C6D"/>
<path d="M420.119 141.936C420.773 142.814 421.263 143.722 421.705 144.666C423.085 147.578 423.757 150.683 424.12 153.861C424.362 155.968 424.568 158.092 424.605 160.211C424.75 168.456 423.467 176.5 420.942 184.333C417.789 194.109 414.042 203.667 409.193 212.735C404.423 221.657 399.332 230.398 393.83 238.897C387.861 248.122 382.014 257.426 375.979 266.603C370.767 274.526 365.368 282.329 360.053 290.186C359.95 290.338 359.811 290.459 359.502 290.798C359.278 289.478 359.06 288.37 358.897 287.256C357.51 277.825 355.283 268.588 352.214 259.575C350.253 253.806 347.91 248.171 344.72 242.935C342.323 239 339.55 235.35 336.572 231.845C334.635 229.563 332.716 227.269 330.749 225.011C329.23 223.274 327.256 222.124 325.174 221.046C325.271 220.828 325.301 220.622 325.422 220.507C331.167 214.751 335.67 208.056 340.071 201.264C344.514 194.406 348.164 187.178 350.537 179.345C351.415 176.44 352.087 173.474 352.819 170.532C353.007 169.769 353.322 169.14 353.812 168.504C354.914 167.094 355.918 165.61 356.893 164.109C361.548 156.966 367.026 150.568 373.539 145.036C377.462 141.7 381.554 138.637 386.118 136.24C387.783 135.369 389.55 134.691 391.275 133.94C391.572 133.813 391.899 133.764 392.383 133.631C393.103 135.592 394.005 137.439 394.435 139.388C395.053 142.215 395.222 145.126 394.726 148.014C394.508 149.309 394.768 150.508 395.295 151.676C395.561 152.263 395.985 152.414 396.596 152.148C397.746 151.652 398.291 150.695 398.43 149.551C398.999 144.927 398.909 140.302 398.158 135.701C397.97 134.576 397.486 133.498 397.123 132.342C401.203 131.47 405.24 131.319 409.241 132.747C411.039 133.395 412.662 134.333 414.145 135.52C414.496 135.798 414.829 136.24 414.944 136.664C415.27 137.869 415.573 139.091 415.718 140.326C416.166 144.182 416.209 148.038 415.367 151.864C415.18 152.711 415.125 153.583 414.986 154.442C414.786 155.677 415.337 156.706 415.846 157.747C416.082 158.232 416.469 158.292 416.941 158.147C417.728 157.899 418.249 157.396 418.594 156.64C419.411 154.848 419.677 152.929 419.798 151.004C419.98 148.038 420.01 145.06 420.113 141.942L420.119 141.936ZM416.741 182.227C416.899 177.608 415.918 173.232 413.509 169.224C410.373 164 406.185 160.138 400.022 158.831C398.007 158.401 395.991 158.304 394.036 158.952C391.227 159.878 388.558 161.113 386.148 162.88C382.329 165.683 379.06 169.006 376.324 172.88C372.486 178.322 370.579 184.448 370.059 191.004C369.732 195.108 371.039 198.915 373.497 202.136C378.788 209.067 385.779 212.329 394.538 210.719C402.093 209.333 408.007 205.283 412.159 198.794C415.373 193.776 416.911 188.244 416.747 182.227H416.741Z" fill="#C69C6D"/>
<path d="M218.861 260.58C219.212 260.804 219.545 261.082 219.926 261.234C222.929 262.426 226.028 263.044 229.266 262.559C233.201 261.972 236.99 260.895 240.665 259.351C243.201 258.286 245.786 257.323 248.407 256.294C249.151 258.013 249.896 259.72 250.707 261.585C250.368 261.815 249.92 262.166 249.436 262.444C243.806 265.652 238.213 268.927 232.523 272.033C228.068 274.466 223.498 276.675 218.982 278.994C217.003 280.011 215.005 280.81 212.717 281.016C210.859 281.185 209.055 281.155 207.245 280.858C204.357 280.386 202.209 278.667 200.465 276.47C197.414 272.614 195.883 268.092 195.271 263.274C194.491 257.117 195.023 251.016 196.367 244.981C197.505 239.872 199.012 234.884 201.44 230.217C201.942 229.248 202.523 228.31 203.183 227.16C203.528 227.735 203.77 228.074 203.952 228.443C205.52 231.573 207.796 234.079 210.507 236.282C214.896 239.848 219.866 242.275 225.223 243.909C228.958 245.047 232.741 246.07 236.555 246.93C239.188 247.529 241.906 247.644 244.63 247.42C246.016 247.305 247.42 247.402 248.921 247.402C248.885 247.596 248.831 247.898 248.77 248.201C248.564 249.194 248.231 250.18 248.189 251.179C248.147 252.154 247.808 252.692 246.912 253.013C245.459 253.534 244.036 254.151 242.578 254.654C239.333 255.761 236.107 256.936 232.814 257.874C229.714 258.758 226.549 259.424 223.395 260.09C222.517 260.277 221.567 260.114 220.647 260.126C220.084 260.132 219.527 260.168 218.964 260.186C218.928 260.32 218.897 260.453 218.861 260.586V260.58Z" fill="#FF7756"/>
<path d="M327.262 232.099C328.298 233.825 329.006 235.556 329.575 237.341C331.469 243.262 332.65 249.315 333.055 255.519C333.473 261.887 332.983 268.177 331.366 274.351C330.295 278.449 328.358 282.093 325.337 285.108C323.406 287.033 321.124 288.152 318.328 288.031C317.063 287.977 315.828 287.765 314.702 287.16C309.066 284.121 303.733 280.677 298.964 276.349C294.799 272.577 290.719 268.734 286.851 264.666C284.563 262.257 282.384 259.757 280.58 256.821C280.961 257.039 281.361 257.226 281.73 257.469C288.776 262.154 296.536 265.168 304.672 267.299C307.432 268.025 310.247 268.431 313.122 268.219C313.691 268.177 314.296 268.122 314.817 267.91C315.156 267.771 315.574 267.341 315.586 267.027C315.604 266.627 315.356 266.052 315.035 265.834C314.532 265.495 313.885 265.277 313.279 265.217C306.633 264.539 300.434 262.232 294.187 260.071C290.174 258.685 286.573 256.53 282.88 254.527C282.051 254.079 281.464 253.613 281.875 252.493C282.099 251.893 282.008 251.173 282.069 250.423C283.195 250.247 284.236 250.065 285.277 249.932C289.296 249.418 293.334 249.006 297.341 248.395C302.511 247.608 307.571 246.318 312.323 244.091C317.365 241.73 321.881 238.607 325.531 234.345C326.118 233.661 326.639 232.923 327.281 232.099H327.262Z" fill="#FF7756"/>
<path d="M246.748 173.934C249.854 178.71 254.4 181.101 259.908 182.075C259.763 182.572 259.696 182.941 259.557 183.28C258.492 185.889 257.196 188.359 255.532 190.647C253.818 193.002 251.452 194.103 248.667 194.521C244.502 195.144 241.409 193.159 238.588 190.453C238.044 189.933 237.414 189.473 236.766 189.085C236.101 188.686 235.568 189.103 235.108 189.569C234.63 190.054 234.829 190.592 235.144 191.022C235.913 192.075 236.712 193.111 237.559 194.097C238.11 194.739 238.455 195.405 238.601 196.252C239.158 199.466 240.356 202.481 241.718 205.429C244.182 210.756 247.027 215.859 250.58 220.55C253.613 224.563 257.626 226.869 262.614 227.227C265.84 227.457 268.818 226.403 271.421 224.436C274.133 222.384 275.749 219.533 277.081 216.494C278.425 213.431 279.303 210.223 279.884 206.93C280.374 204.176 280.876 201.428 281.427 198.686C281.5 198.322 281.827 197.893 282.154 197.729C283.891 196.839 284.987 195.253 286.318 193.94C286.833 193.437 286.851 192.493 286.512 192.063C286.094 191.531 285.259 191.416 284.533 191.839C284.248 192.003 283.988 192.245 283.782 192.499C282.947 193.54 281.809 194.025 280.556 194.291C278.728 194.672 276.881 194.678 275.096 194.206C274.091 193.94 273.068 193.468 272.257 192.826C270.229 191.228 268.588 189.249 267.293 187.009C266.464 185.574 265.992 183.77 266.07 182.427C267.299 182.299 268.552 182.203 269.787 182.039C272.275 181.7 274.575 180.853 276.579 179.321C277.741 178.431 278.715 177.354 279.188 175.798C281.058 177.287 282.505 179.025 283.758 180.913C286.996 185.786 288.97 191.167 289.781 196.942C290.138 199.472 290.229 202.045 290.283 204.606C290.368 208.51 289.315 212.118 287.353 215.52C285.35 218.994 282.91 222.075 279.896 224.714C276.276 227.88 271.936 229.382 267.293 230.12C264.962 230.489 262.608 230.822 260.253 230.943C257.947 231.064 255.61 231.034 253.316 230.798C252.111 230.671 250.943 230.017 249.799 229.503C241.367 225.683 235.187 219.648 231.766 210.962C229.418 205.005 229.527 198.976 231.543 192.965C233.256 187.856 235.846 183.238 239.611 179.351C241.458 177.445 244.388 174.981 246.754 173.946L246.748 173.934Z" fill="#8C6239"/>
<path d="M182.923 105.623C182.523 104.709 182.203 103.964 181.882 103.22C179.745 98.2017 178.752 92.9959 179.236 87.5359C179.412 85.5746 180.029 83.7587 180.986 82.0638C183.177 78.1715 186.071 75.0359 190.423 73.4924C193.686 72.3362 196.87 72.4694 199.969 73.9585C203.48 75.6534 206.143 78.3773 208.861 81.3132C208.195 81.8216 207.65 82.2756 207.069 82.6812C204.418 84.5395 201.676 86.2708 199.121 88.2502C193.837 92.3543 188.94 96.876 184.969 102.318C184.261 103.286 183.692 104.358 182.917 105.611L182.923 105.623Z" fill="#8C6239"/>
<path d="M329.587 98.6436C322.583 92.7114 315.059 87.6448 307.608 82.3361C309.714 77.7659 312.408 73.7708 317.141 71.634C319.587 70.5323 322.135 70.2054 324.714 71.3313C325.192 71.5371 325.749 71.5674 326.239 71.7429C328.086 72.4209 329.472 73.6618 330.428 75.3628C332.753 79.4971 333.624 83.9523 333.116 88.6436C332.898 90.6472 332.456 92.6448 331.96 94.606C331.566 96.1557 330.743 97.5176 329.581 98.6375L329.587 98.6436Z" fill="#8C6239"/>
<path d="M319.52 224.83C320.483 225.356 321.415 225.859 322.408 226.403C322.129 228.746 320.991 230.616 319.484 232.281C316.1 236.01 311.942 238.595 307.238 240.32C302.057 242.221 296.694 243.383 291.234 244.127C288.128 244.551 285.029 245.029 281.936 245.526C281.137 245.653 280.556 245.568 280.102 244.799C279.763 244.23 279.248 243.764 278.679 243.092C279.357 242.505 279.974 241.936 280.634 241.409C281.839 240.441 283.056 239.497 284.284 238.558C284.629 238.298 285.029 238.116 285.404 237.898C286.784 237.106 288.146 236.282 289.551 235.532C290.096 235.241 290.713 235.072 291.318 234.932C293.485 234.442 295.683 234.079 297.826 233.504C305.368 231.494 312.656 228.831 319.52 224.823V224.83Z" fill="#803C2B"/>
<path d="M274.781 251.633C274.732 254.303 273.824 256.621 271.912 258.528C269.817 260.616 267.402 262.135 264.466 262.741C261.191 263.413 257.947 262.002 256.324 259.115C254.617 256.082 254.254 252.832 254.981 249.454C255.35 247.735 256.276 246.361 257.795 245.404C260.059 243.982 262.402 242.753 265.12 242.517C267.59 242.299 269.817 242.886 271.554 244.787C272.142 245.429 272.765 246.046 273.261 246.742C274.297 248.195 274.884 249.811 274.787 251.633H274.781Z" fill="#FF7756"/>
<path d="M263.189 189.545C266.373 193.897 269.763 197.784 275.447 198.244C275.519 199.721 274.297 205.671 273.588 207.396C273.219 207.142 272.874 206.906 272.529 206.67C269.018 204.297 265.126 203.443 260.949 203.843C256.688 204.255 252.747 205.604 249.194 208.032C249.085 208.104 248.927 208.117 248.691 208.183C247.099 205.217 245.58 202.227 244.436 199.049C246.034 199.188 247.553 199.448 249.067 199.418C253.685 199.333 257.269 197.13 260.144 193.655C261.185 192.396 262.093 191.034 263.189 189.545Z" fill="#401E16"/>
<path d="M250.961 241.21C250.441 241.361 250.217 241.458 249.993 241.482C243.098 242.184 236.294 241.821 229.654 239.678C227.033 238.837 224.388 238.068 221.815 237.099C217.087 235.326 212.868 232.705 209.485 228.922C208.274 227.566 207.342 225.949 206.294 224.448C206.198 224.309 206.198 224.109 206.107 223.794C206.409 223.861 206.597 223.855 206.742 223.934C212.16 226.954 217.917 229.23 223.71 231.385C226.76 232.517 230.005 233.159 233.189 233.909C236.373 234.66 239.587 235.259 242.783 235.949C243.243 236.046 243.77 236.161 244.097 236.452C245.919 238.068 247.971 239.327 250.084 240.507C250.326 240.641 250.519 240.852 250.961 241.21Z" fill="#803C2B"/>
<path d="M251.373 212.79C253.358 211.113 255.616 210.29 257.923 209.575C258.879 209.279 259.896 209.152 260.889 208.982C263.268 208.571 265.265 209.612 267.136 210.822C268.504 211.706 269.684 212.88 270.937 213.946C271.524 214.442 271.615 215.005 271.252 215.738C269.987 218.274 268.219 220.338 265.719 221.7C263.056 223.159 259.666 222.765 257.354 220.629C254.92 218.389 253.207 215.574 251.385 212.784L251.373 212.79Z" fill="#FFAD9A"/>
<path d="M277.154 237.323C276.367 238.104 275.634 238.83 274.835 239.623C273.758 239.073 272.698 238.528 271.288 237.801C272.511 237.662 273.407 237.535 274.309 237.462C275.211 237.39 276.119 237.372 277.148 237.323H277.154Z" fill="#C69C6D"/>
<path d="M257.723 239.151C257.214 238.607 256.67 238.038 255.961 237.287C257.795 237.378 259.339 237.457 260.901 237.529C260.675 238.038 259.615 238.578 257.723 239.151Z" fill="#C69C6D"/>
<path d="M282.753 159.037C282.65 158.819 282.475 158.613 282.462 158.401C282.341 156.458 282.299 154.503 283.231 152.729C286.409 146.676 291.373 142.947 298.14 142.021C301.167 141.603 304.103 142.645 306.506 144.636C309.478 147.106 311.439 150.296 312.626 153.964C312.759 154.376 312.856 154.812 312.856 155.241C312.856 156.21 312.311 156.882 311.385 157.154C310.005 157.566 309.399 157.524 308.921 156.44C307.517 153.268 304.569 151.731 302.069 149.745C300.374 148.395 298.352 147.687 296.119 147.887C293.77 148.099 291.942 149.297 290.465 151.053C289.817 151.827 289.188 152.651 288.715 153.54C287.795 155.284 286.464 156.67 285.108 158.05C284.466 158.704 283.74 159.079 282.753 159.037Z" fill="#3D3D3D"/>
<path d="M235.489 159.461C234.799 159.17 234.073 159.061 233.625 158.643C232.317 157.433 231.01 156.216 230.102 154.63C229.478 153.547 228.788 152.481 228.001 151.507C225.223 148.044 221.222 146.93 217.348 149.352C214.993 150.829 212.88 152.705 210.725 154.491C210.241 154.89 210.035 155.635 209.708 156.222C208.928 157.651 208.28 157.899 206.754 157.336C205.659 156.93 205.187 155.956 205.58 154.594C206.736 150.641 208.782 147.191 212.069 144.697C215.616 142.009 219.654 141.47 223.843 143.062C228.71 144.915 232.535 148.02 234.95 152.723C235.943 154.66 236.21 157.439 235.483 159.448L235.489 159.461Z" fill="#3D3D3D"/>
<path d="M334.853 172.717C334.756 172.996 334.684 173.565 334.381 173.958C332.928 175.871 331.433 177.747 329.908 179.606C329.563 180.029 329.121 180.544 328.443 180.096C327.626 179.563 327.232 178.601 327.523 177.881C327.595 177.705 327.692 177.529 327.801 177.372C328.927 175.756 330.023 174.109 331.215 172.542C331.633 171.991 332.275 171.603 332.856 171.198C333.854 170.508 334.744 171.034 334.853 172.705V172.717Z" fill="#3D3D3D"/>
<path d="M204.466 173.922C204.345 174.152 204.224 174.672 203.903 174.975C202.475 176.331 200.992 177.645 199.515 178.946C198.934 179.461 198.431 179.321 197.911 178.728C197.106 177.802 196.918 177.39 197.481 176.743C198.649 175.393 199.878 174.097 201.107 172.802C201.367 172.53 201.73 172.348 202.075 172.172C203.262 171.573 204.46 172.336 204.466 173.922Z" fill="#3D3D3D"/>
<path d="M319.066 178.934C318.679 178.498 318.449 178.262 318.243 178.002C317.565 177.118 317.565 176.87 318.261 175.986C319.732 174.134 321.185 172.269 322.698 170.459C323.055 170.029 323.582 169.709 324.091 169.448C324.732 169.115 325.331 169.436 325.283 170.144C325.241 170.792 325.083 171.531 324.714 172.039C323.273 174.031 321.736 175.956 320.21 177.887C319.926 178.25 319.526 178.522 319.06 178.94L319.066 178.934Z" fill="#3D3D3D"/>
<path d="M197.56 172.293C197.378 172.657 197.287 172.935 197.112 173.153C195.871 174.69 194.618 176.216 193.365 177.735C193.244 177.88 193.086 178.008 192.935 178.117C192.172 178.667 191.821 178.625 191.216 177.929C190.483 177.088 190.393 176.531 191.052 175.913C192.596 174.466 194.164 173.05 195.774 171.676C196.046 171.446 196.591 171.355 196.936 171.452C197.202 171.525 197.36 171.997 197.56 172.287V172.293Z" fill="#3D3D3D"/>
<path d="M152.62 188.141C152.741 191.773 151.525 195.526 149.878 199.158C148.474 202.245 146.797 205.175 144.473 207.693C141.107 211.337 137.039 213.377 132.015 213.008C129.703 212.838 127.463 212.124 125.351 211.149C121.452 209.351 118.268 206.694 115.726 203.226C112.536 198.879 110.157 194.194 109.297 188.813C108.583 184.333 108.789 179.933 110.46 175.689C112.003 171.761 114.709 168.795 118.498 166.912C119.424 166.452 120.508 166.295 121.537 166.047C123.081 165.677 124.642 165.356 126.192 165.011C132.651 163.583 138.311 165.29 143.353 169.394C145.726 171.325 147.923 173.438 149.473 176.113C151.549 179.691 152.693 183.54 152.632 188.141H152.62ZM130.472 170.145C128.807 170.393 127.13 170.574 125.478 170.913C123.305 171.355 121.156 171.9 119.007 172.457C118.619 172.56 118.226 172.875 117.972 173.195C117.493 173.795 117.058 174.448 116.7 175.126C114.782 178.764 114.43 182.705 114.794 186.694C115.248 191.724 117.203 196.222 120.193 200.278C122.354 203.207 124.897 205.647 128.389 206.96C131.712 208.213 134.83 207.971 137.699 205.804C138.547 205.163 139.37 204.479 140.102 203.716C142.645 201.046 143.958 197.723 144.969 194.261C145.526 192.354 145.895 190.387 145.732 188.389C145.229 182.36 143.068 177.124 138.274 173.195C136.016 171.349 133.589 169.902 130.478 170.145H130.472Z" fill="#3D3D3D"/>
<path d="M416.741 182.227C416.911 188.244 415.367 193.77 412.153 198.794C408.007 205.283 402.087 209.333 394.532 210.719C385.773 212.329 378.782 209.067 373.491 202.136C371.033 198.915 369.726 195.108 370.053 191.004C370.579 184.448 372.48 178.322 376.318 172.88C379.048 169.006 382.323 165.683 386.142 162.88C388.551 161.113 391.221 159.884 394.03 158.952C395.985 158.304 398.001 158.401 400.016 158.831C406.179 160.138 410.367 164 413.503 169.224C415.912 173.238 416.893 177.614 416.735 182.227H416.741ZM409.835 179.309C409.835 178.437 409.98 177.541 409.81 176.706C408.6 170.828 405.325 166.767 399.417 165.054C395.41 163.891 395.386 163.849 391.844 166.004C385.712 169.739 381.288 175.011 378.128 181.391C376.294 185.09 375.349 188.994 375.591 193.153C375.7 195.047 376.312 196.736 377.438 198.25C380.065 201.785 383.721 203.564 387.934 204.424C390.906 205.029 393.685 204.497 396.372 203.177C398.212 202.275 399.877 201.137 401.36 199.721C407.171 194.158 409.774 187.245 409.835 179.303V179.309Z" fill="#3D3D3D"/>
<path d="M130.472 170.144C133.583 169.902 136.01 171.349 138.268 173.195C143.062 177.118 145.223 182.36 145.726 188.389C145.889 190.386 145.52 192.348 144.963 194.261C143.958 197.723 142.639 201.046 140.096 203.716C139.37 204.478 138.541 205.169 137.693 205.804C134.824 207.977 131.706 208.213 128.383 206.96C124.89 205.647 122.354 203.207 120.187 200.277C117.191 196.222 115.242 191.724 114.788 186.694C114.424 182.705 114.775 178.764 116.694 175.126C117.052 174.448 117.487 173.795 117.966 173.195C118.22 172.874 118.613 172.554 119.001 172.457C121.144 171.9 123.298 171.355 125.472 170.913C127.118 170.574 128.795 170.393 130.465 170.144H130.472Z" fill="#8C6239"/>
<path d="M409.835 179.309C409.768 187.251 407.171 194.164 401.36 199.727C399.877 201.143 398.212 202.281 396.372 203.183C393.685 204.497 390.906 205.035 387.934 204.43C383.727 203.57 380.071 201.791 377.438 198.256C376.312 196.742 375.7 195.054 375.591 193.159C375.349 189 376.3 185.096 378.128 181.397C381.288 175.017 385.719 169.739 391.844 166.01C395.392 163.849 395.41 163.897 399.417 165.06C405.325 166.773 408.6 170.835 409.81 176.712C409.98 177.548 409.835 178.443 409.835 179.315V179.309Z" fill="#8C6239"/>
</svg>
